<?xml version="1.0" encoding="utf-8" standalone="no"?>
<!DOCTYPE svg PUBLIC "-//W3C//DTD SVG 1.1//EN"
  "http://www.w3.org/Graphics/SVG/1.1/DTD/svg11.dtd">
<svg xmlns:xlink="http://www.w3.org/1999/xlink" width="460.8pt" height="345.6pt" viewBox="0 0 460.8 345.6" xmlns="http://www.w3.org/2000/svg" version="1.1">
 <metadata>
  <rdf:RDF xmlns:dc="http://purl.org/dc/elements/1.1/" xmlns:cc="http://creativecommons.org/ns#" xmlns:rdf="http://www.w3.org/1999/02/22-rdf-syntax-ns#">
   <cc:Work>
    <dc:type rdf:resource="http://purl.org/dc/dcmitype/StillImage"/>
    <dc:date>2023-01-17T16:26:37.703031</dc:date>
    <dc:format>image/svg+xml</dc:format>
    <dc:creator>
     <cc:Agent>
      <dc:title>Matplotlib v3.5.2, https://matplotlib.org/</dc:title>
     </cc:Agent>
    </dc:creator>
   </cc:Work>
  </rdf:RDF>
 </metadata>
 <defs>
  <style type="text/css">*{stroke-linejoin: round; stroke-linecap: butt}</style>
 </defs>
 <g id="figure_1">
  <g id="patch_1">
   <path d="M 0 345.6 
L 460.8 345.6 
L 460.8 0 
L 0 0 
z
" style="fill: #ffffff"/>
  </g>
  <g id="axes_1">
   <g id="patch_2">
    <path d="M 57.6 307.584 
L 414.72 307.584 
L 414.72 41.472 
L 57.6 41.472 
z
" style="fill: #ffffff"/>
   </g>
   <g id="matplotlib.axis_1">
    <g id="xtick_1">
     <g id="line2d_1">
      <defs>
       <path id="m37d1645d51" d="M 0 0 
L 0 3.5 
" style="stroke: #000000; stroke-width: 0.8"/>
      </defs>
      <g>
       <use xlink:href="#m37d1645d51" x="70.382626" y="307.584" style="stroke: #000000; stroke-width: 0.8"/>
      </g>
     </g>
     <g id="text_1">
      <!-- 0 -->
      <g transform="translate(67.882626 321.576187)scale(0.1 -0.1)">
       <defs>
        <path id="FangSong-30" d="M 1575 4125 
Q 1225 4125 987 3587 
Q 750 3050 750 2150 
Q 750 1200 987 675 
Q 1225 150 1575 150 
Q 1950 150 2162 675 
Q 2375 1200 2375 2150 
Q 2375 3050 2175 3587 
Q 1975 4125 1575 4125 
z
M 1575 -50 
Q 1025 -50 650 525 
Q 275 1100 275 2150 
Q 275 3125 637 3725 
Q 1000 4325 1575 4325 
Q 2125 4325 2487 3750 
Q 2850 3175 2850 2150 
Q 2850 1125 2487 537 
Q 2125 -50 1575 -50 
z
" transform="scale(0.015625)"/>
       </defs>
       <use xlink:href="#FangSong-30"/>
      </g>
     </g>
    </g>
    <g id="xtick_2">
     <g id="line2d_2">
      <g>
       <use xlink:href="#m37d1645d51" x="139.384655" y="307.584" style="stroke: #000000; stroke-width: 0.8"/>
      </g>
     </g>
     <g id="text_2">
      <!-- 20 -->
      <g transform="translate(134.384655 321.576187)scale(0.1 -0.1)">
       <defs>
        <path id="FangSong-32" d="M 2300 3225 
Q 2300 3675 2100 3912 
Q 1900 4150 1500 4150 
Q 1200 4150 987 3987 
Q 775 3825 775 3575 
Q 775 3425 862 3325 
Q 950 3225 950 3125 
Q 950 3000 887 2937 
Q 825 2875 700 2875 
Q 550 2875 462 2962 
Q 375 3050 375 3250 
Q 375 3775 750 4050 
Q 1125 4325 1550 4325 
Q 2150 4325 2437 4025 
Q 2725 3725 2725 3275 
Q 2725 2975 2587 2675 
Q 2450 2375 2150 2100 
Q 1425 1400 1037 962 
Q 650 525 575 375 
L 2050 375 
Q 2275 375 2425 550 
Q 2575 725 2625 1075 
L 2775 1075 
L 2625 0 
L 300 0 
L 300 325 
Q 425 550 712 900 
Q 1000 1250 1475 1725 
Q 1900 2150 2100 2525 
Q 2300 2900 2300 3225 
z
" transform="scale(0.015625)"/>
       </defs>
       <use xlink:href="#FangSong-32"/>
       <use xlink:href="#FangSong-30" x="50"/>
      </g>
     </g>
    </g>
    <g id="xtick_3">
     <g id="line2d_3">
      <g>
       <use xlink:href="#m37d1645d51" x="208.386683" y="307.584" style="stroke: #000000; stroke-width: 0.8"/>
      </g>
     </g>
     <g id="text_3">
      <!-- 40 -->
      <g transform="translate(203.386683 321.576187)scale(0.1 -0.1)">
       <defs>
        <path id="FangSong-34" d="M 2275 475 
Q 2275 300 2375 225 
Q 2475 150 2650 150 
L 2875 150 
L 2875 0 
L 1225 0 
L 1225 150 
L 1500 150 
Q 1700 150 1787 225 
Q 1875 300 1875 475 
L 1875 1300 
L 200 1300 
L 200 1425 
L 2025 4325 
L 2275 4325 
L 2275 1450 
L 2950 1450 
L 2950 1300 
L 2275 1300 
L 2275 475 
z
M 1850 3700 
L 425 1450 
L 1875 1450 
L 1875 3700 
L 1850 3700 
z
" transform="scale(0.015625)"/>
       </defs>
       <use xlink:href="#FangSong-34"/>
       <use xlink:href="#FangSong-30" x="50"/>
      </g>
     </g>
    </g>
    <g id="xtick_4">
     <g id="line2d_4">
      <g>
       <use xlink:href="#m37d1645d51" x="277.388712" y="307.584" style="stroke: #000000; stroke-width: 0.8"/>
      </g>
     </g>
     <g id="text_4">
      <!-- 60 -->
      <g transform="translate(272.388712 321.576187)scale(0.1 -0.1)">
       <defs>
        <path id="FangSong-36" d="M 750 1700 
Q 750 950 1012 537 
Q 1275 125 1650 125 
Q 2025 125 2225 400 
Q 2425 675 2425 1425 
Q 2425 1925 2212 2200 
Q 2000 2475 1700 2475 
Q 1425 2475 1187 2312 
Q 950 2150 750 1700 
z
M 1725 2725 
Q 2325 2725 2587 2325 
Q 2850 1925 2850 1425 
Q 2850 675 2487 312 
Q 2125 -50 1650 -50 
Q 975 -50 625 462 
Q 275 975 275 1950 
Q 275 3100 700 3712 
Q 1125 4325 1850 4325 
Q 2200 4325 2412 4125 
Q 2625 3925 2625 3775 
Q 2625 3625 2562 3550 
Q 2500 3475 2350 3475 
Q 2225 3475 2162 3537 
Q 2100 3600 2100 3725 
Q 2100 3775 2112 3825 
Q 2125 3875 2125 3925 
Q 2125 4025 2050 4087 
Q 1975 4150 1775 4150 
Q 1350 4150 1050 3762 
Q 750 3375 750 2075 
Q 900 2400 1162 2562 
Q 1425 2725 1725 2725 
z
" transform="scale(0.015625)"/>
       </defs>
       <use xlink:href="#FangSong-36"/>
       <use xlink:href="#FangSong-30" x="50"/>
      </g>
     </g>
    </g>
    <g id="xtick_5">
     <g id="line2d_5">
      <g>
       <use xlink:href="#m37d1645d51" x="346.390741" y="307.584" style="stroke: #000000; stroke-width: 0.8"/>
      </g>
     </g>
     <g id="text_5">
      <!-- 80 -->
      <g transform="translate(341.390741 321.576187)scale(0.1 -0.1)">
       <defs>
        <path id="FangSong-38" d="M 600 1025 
Q 600 625 862 375 
Q 1125 125 1525 125 
Q 2000 125 2212 375 
Q 2425 625 2425 1000 
Q 2425 1325 2125 1625 
Q 1825 1925 1225 2175 
Q 925 1975 762 1675 
Q 600 1375 600 1025 
z
M 2800 1075 
Q 2800 600 2450 275 
Q 2100 -50 1525 -50 
Q 1000 -50 625 275 
Q 250 600 250 1025 
Q 250 1450 462 1750 
Q 675 2050 1075 2275 
Q 725 2450 537 2712 
Q 350 2975 350 3300 
Q 350 3725 675 4025 
Q 1000 4325 1575 4325 
Q 2100 4325 2425 4025 
Q 2750 3725 2750 3300 
Q 2750 3000 2562 2737 
Q 2375 2475 1975 2275 
Q 2400 2025 2600 1725 
Q 2800 1425 2800 1075 
z
M 2400 3275 
Q 2400 3625 2200 3887 
Q 2000 4150 1575 4150 
Q 1100 4150 900 3900 
Q 700 3650 700 3375 
Q 700 3100 987 2837 
Q 1275 2575 1800 2375 
Q 2100 2525 2250 2750 
Q 2400 2975 2400 3275 
z
" transform="scale(0.015625)"/>
       </defs>
       <use xlink:href="#FangSong-38"/>
       <use xlink:href="#FangSong-30" x="50"/>
      </g>
     </g>
    </g>
    <g id="text_6">
     <!-- 响应比 -->
     <g transform="translate(221.16 334.873062)scale(0.1 -0.1)">
      <defs>
       <path id="FangSong-54cd" d="M 2700 -200 
Q 2725 -650 2625 -525 
L 2375 -125 
Q 2500 50 2475 350 
L 2500 3200 
Q 2500 3625 2425 4100 
L 2500 4125 
L 2725 3575 
L 3300 3625 
Q 3550 4225 3675 4637 
Q 3800 5050 3700 5150 
L 3775 5200 
L 4125 4750 
Q 4050 4800 3900 4512 
Q 3750 4225 3500 3650 
L 5275 3850 
L 5425 4125 
L 5725 3850 
L 5575 3650 
Q 5500 -175 5175 -675 
Q 4800 -275 4175 250 
L 4225 350 
L 5050 -175 
Q 5275 525 5325 3625 
L 2725 3325 
L 2700 -200 
z
M 725 3250 
Q 725 3575 625 3925 
L 725 3975 
L 950 3525 
L 1750 3650 
L 1875 3875 
L 2175 3650 
L 2000 3450 
L 1925 2175 
L 2125 1950 
L 1000 1800 
Q 1025 1275 900 1350 
L 650 1750 
Q 775 1850 750 2150 
L 725 3250 
z
M 3550 1250 
Q 3575 950 3500 875 
L 3225 1200 
Q 3300 1350 3300 1525 
L 3275 2325 
Q 3275 2700 3200 2875 
L 3275 2925 
L 3500 2625 
L 4350 2725 
L 4500 2925 
L 4775 2675 
L 4600 2475 
L 4525 1575 
L 4750 1400 
L 3550 1250 
z
M 975 3275 
L 1000 2050 
L 1675 2150 
L 1775 3425 
L 975 3275 
z
M 4350 2475 
L 3500 2375 
L 3525 1500 
L 4275 1575 
L 4350 2475 
z
" transform="scale(0.015625)"/>
       <path id="FangSong-5e94" d="M 1625 4400 
L 1800 3800 
Q 5075 4050 5200 4175 
L 5525 3850 
Q 5200 3900 1825 3550 
Q 1775 2450 1675 1825 
Q 1575 1200 1312 612 
Q 1050 25 500 -600 
L 425 -525 
Q 850 50 1100 675 
Q 1350 1300 1425 1862 
Q 1500 2425 1550 3150 
Q 1600 3875 1550 4375 
L 1625 4400 
z
M 4725 3175 
L 5100 2725 
Q 5000 2800 4750 2112 
Q 4500 1425 4000 150 
Q 5425 225 5400 275 
L 5725 0 
Q 5425 0 3687 -112 
Q 1950 -225 1725 -275 
L 1350 25 
Q 2150 0 3800 125 
Q 4300 1500 4525 2200 
Q 4750 2900 4650 3125 
L 4725 3175 
z
M 2900 1150 
Q 2800 975 2650 725 
Q 2450 1625 2175 2550 
L 2275 2575 
Q 2600 1850 2900 1150 
z
M 3775 1550 
Q 3675 1350 3525 1150 
Q 3475 1600 3075 3050 
L 3150 3075 
Q 3475 2300 3775 1550 
z
M 3500 4100 
Q 3275 4675 3000 5225 
L 3075 5275 
Q 3375 4900 3700 4525 
Q 3600 4325 3500 4100 
z
" transform="scale(0.015625)"/>
       <path id="FangSong-6bd4" d="M 3500 2125 
Q 3925 2425 4487 2975 
Q 5050 3525 4950 3750 
L 5025 3775 
L 5250 3225 
Q 5175 3250 4875 3000 
Q 4575 2750 4287 2525 
Q 4000 2300 3500 1900 
L 3500 575 
Q 3475 -100 4150 -100 
L 4800 -100 
Q 5275 -100 5375 12 
Q 5475 125 5450 1350 
L 5575 1350 
Q 5600 825 5637 412 
Q 5675 0 5800 -175 
Q 5375 -325 4800 -325 
L 4150 -325 
Q 3225 -350 3275 550 
L 3275 4300 
Q 3275 4875 3150 5150 
L 3200 5200 
L 3625 4850 
Q 3475 4825 3500 4250 
L 3500 2125 
z
M 1500 2575 
Q 1900 2625 2337 2712 
Q 2775 2800 2800 2850 
L 3075 2600 
Q 2875 2575 2350 2475 
Q 1825 2375 1775 2325 
L 1500 2525 
L 1500 150 
L 2925 1075 
L 2975 1025 
Q 1550 -75 1375 -350 
L 1200 0 
Q 1275 75 1275 350 
L 1275 3925 
Q 1275 4475 1150 4750 
L 1200 4800 
L 1625 4400 
Q 1475 4375 1500 3925 
L 1500 2575 
z
" transform="scale(0.015625)"/>
      </defs>
      <use xlink:href="#FangSong-54cd"/>
      <use xlink:href="#FangSong-5e94" x="100"/>
      <use xlink:href="#FangSong-6bd4" x="200"/>
     </g>
    </g>
   </g>
   <g id="matplotlib.axis_2">
    <g id="ytick_1">
     <g id="line2d_6">
      <defs>
       <path id="m9f2cab5f3e" d="M 0 0 
L -3.5 0 
" style="stroke: #000000; stroke-width: 0.8"/>
      </defs>
      <g>
       <use xlink:href="#m9f2cab5f3e" x="57.6" y="295.488" style="stroke: #000000; stroke-width: 0.8"/>
      </g>
     </g>
     <g id="text_7">
      <!-- 0% -->
      <g transform="translate(40.6 298.984094)scale(0.1 -0.1)">
       <defs>
        <path id="FangSong-25" d="M 725 4150 
Q 575 4150 475 3950 
Q 375 3750 375 3200 
Q 375 2575 487 2387 
Q 600 2200 725 2200 
Q 900 2200 987 2425 
Q 1075 2650 1075 3200 
Q 1075 3650 1012 3900 
Q 950 4150 725 4150 
z
M 1400 3175 
Q 1400 2725 1250 2387 
Q 1100 2050 725 2050 
Q 425 2050 237 2350 
Q 50 2650 50 3175 
Q 50 3725 250 4025 
Q 450 4325 725 4325 
Q 1025 4325 1212 4012 
Q 1400 3700 1400 3175 
z
M 2700 1100 
Q 2700 1525 2625 1800 
Q 2550 2075 2350 2075 
Q 2200 2075 2100 1837 
Q 2000 1600 2000 1100 
Q 2000 475 2112 300 
Q 2225 125 2350 125 
Q 2525 125 2612 337 
Q 2700 550 2700 1100 
z
M 3025 1075 
Q 3025 575 2850 262 
Q 2675 -50 2350 -50 
Q 2075 -50 1875 262 
Q 1675 575 1675 1075 
Q 1675 1625 1875 1937 
Q 2075 2250 2350 2250 
Q 2650 2250 2837 1925 
Q 3025 1600 3025 1075 
z
M 2500 4250 
L 700 -50 
L 550 25 
L 2325 4325 
L 2500 4250 
z
" transform="scale(0.015625)"/>
       </defs>
       <use xlink:href="#FangSong-30"/>
       <use xlink:href="#FangSong-25" x="50"/>
      </g>
     </g>
    </g>
    <g id="ytick_2">
     <g id="line2d_7">
      <g>
       <use xlink:href="#m9f2cab5f3e" x="57.6" y="247.104" style="stroke: #000000; stroke-width: 0.8"/>
      </g>
     </g>
     <g id="text_8">
      <!-- 20% -->
      <g transform="translate(35.6 250.600094)scale(0.1 -0.1)">
       <use xlink:href="#FangSong-32"/>
       <use xlink:href="#FangSong-30" x="50"/>
       <use xlink:href="#FangSong-25" x="100"/>
      </g>
     </g>
    </g>
    <g id="ytick_3">
     <g id="line2d_8">
      <g>
       <use xlink:href="#m9f2cab5f3e" x="57.6" y="198.72" style="stroke: #000000; stroke-width: 0.8"/>
      </g>
     </g>
     <g id="text_9">
      <!-- 40% -->
      <g transform="translate(35.6 202.216094)scale(0.1 -0.1)">
       <use xlink:href="#FangSong-34"/>
       <use xlink:href="#FangSong-30" x="50"/>
       <use xlink:href="#FangSong-25" x="100"/>
      </g>
     </g>
    </g>
    <g id="ytick_4">
     <g id="line2d_9">
      <g>
       <use xlink:href="#m9f2cab5f3e" x="57.6" y="150.336" style="stroke: #000000; stroke-width: 0.8"/>
      </g>
     </g>
     <g id="text_10">
      <!-- 60% -->
      <g transform="translate(35.6 153.832094)scale(0.1 -0.1)">
       <use xlink:href="#FangSong-36"/>
       <use xlink:href="#FangSong-30" x="50"/>
       <use xlink:href="#FangSong-25" x="100"/>
      </g>
     </g>
    </g>
    <g id="ytick_5">
     <g id="line2d_10">
      <g>
       <use xlink:href="#m9f2cab5f3e" x="57.6" y="101.952" style="stroke: #000000; stroke-width: 0.8"/>
      </g>
     </g>
     <g id="text_11">
      <!-- 80% -->
      <g transform="translate(35.6 105.448094)scale(0.1 -0.1)">
       <use xlink:href="#FangSong-38"/>
       <use xlink:href="#FangSong-30" x="50"/>
       <use xlink:href="#FangSong-25" x="100"/>
      </g>
     </g>
    </g>
    <g id="ytick_6">
     <g id="line2d_11">
      <g>
       <use xlink:href="#m9f2cab5f3e" x="57.6" y="53.568" style="stroke: #000000; stroke-width: 0.8"/>
      </g>
     </g>
     <g id="text_12">
      <!-- 100% -->
      <g transform="translate(30.6 57.064094)scale(0.1 -0.1)">
       <defs>
        <path id="FangSong-31" d="M 1800 4350 
L 1800 550 
Q 1800 350 1925 250 
Q 2050 150 2275 150 
L 2525 150 
L 2525 0 
L 700 0 
L 700 150 
L 925 150 
Q 1175 150 1287 250 
Q 1400 350 1400 550 
L 1400 3575 
Q 1400 3675 1337 3737 
Q 1275 3800 1150 3800 
L 700 3800 
L 700 3950 
L 925 3950 
Q 1225 3950 1412 4050 
Q 1600 4150 1700 4350 
L 1800 4350 
z
" transform="scale(0.015625)"/>
       </defs>
       <use xlink:href="#FangSong-31"/>
       <use xlink:href="#FangSong-30" x="50"/>
       <use xlink:href="#FangSong-30" x="100"/>
       <use xlink:href="#FangSong-25" x="150"/>
      </g>
     </g>
    </g>
    <g id="text_13">
     <!-- 累计完成比例 -->
     <g transform="translate(25.154688 204.528)rotate(-90)scale(0.1 -0.1)">
      <defs>
       <path id="FangSong-7d2f" d="M 4525 4975 
L 4700 5225 
L 5000 4950 
L 4825 4775 
L 4625 3550 
L 4850 3300 
L 3175 3150 
L 3375 2975 
Q 3200 2925 2862 2725 
Q 2525 2525 2075 2275 
L 3475 2500 
Q 3750 2675 3900 2800 
Q 4050 2925 4100 3075 
L 4175 3100 
L 4325 2700 
Q 4200 2675 3500 2237 
Q 2800 1800 2275 1550 
L 4375 1825 
L 3900 2175 
L 4000 2275 
Q 4625 1900 4950 1725 
Q 4975 1475 4925 1225 
Q 4800 1375 4500 1675 
L 3250 1475 
L 3525 1300 
Q 3375 1200 3375 875 
L 3375 25 
Q 3375 -325 3225 -625 
Q 2975 -325 2400 150 
L 2450 250 
L 3050 -75 
Q 3150 -125 3150 0 
L 3150 925 
Q 3150 1300 3125 1450 
Q 1875 1275 1575 1175 
L 1325 1425 
L 1850 1550 
Q 2175 1700 3250 2300 
Q 2075 2100 1875 2000 
L 1575 2250 
L 1800 2300 
Q 2150 2475 3025 3125 
L 2000 3025 
Q 2000 2675 1950 2700 
Q 1900 2725 1650 3025 
Q 1725 3250 1725 3425 
L 1650 4400 
Q 1625 4675 1525 4950 
L 1625 5000 
L 1875 4675 
L 4525 4975 
z
M 3150 3375 
L 3150 3875 
Q 2525 3800 2400 3725 
L 2100 3975 
Q 2500 3975 3150 4075 
L 3150 4600 
L 1900 4450 
L 1975 3250 
L 3150 3375 
z
M 3375 4100 
Q 3950 4175 4025 4225 
L 4275 4000 
Q 3950 3975 3375 3900 
L 3375 3400 
L 4400 3500 
L 4575 4750 
L 3375 4600 
L 3375 4100 
z
M 5450 -75 
Q 4975 325 3875 1025 
L 3950 1125 
Q 4850 700 5350 500 
Q 5425 250 5450 -75 
z
M 800 -250 
Q 1350 75 1825 500 
Q 2300 925 2325 1125 
L 2400 1150 
L 2550 725 
Q 2425 700 2075 425 
Q 1725 150 875 -350 
L 800 -250 
z
" transform="scale(0.015625)"/>
       <path id="FangSong-8ba1" d="M 4075 4200 
Q 4100 4825 3900 5100 
L 3975 5150 
L 4450 4725 
Q 4275 4600 4300 4200 
L 4275 3000 
Q 5525 3200 5575 3250 
L 5950 2950 
Q 5725 2975 4275 2800 
L 4250 -425 
Q 4250 -700 4150 -575 
L 3875 -150 
Q 4050 50 4025 300 
L 4050 2750 
Q 2975 2625 2900 2575 
L 2525 2825 
Q 2850 2825 4050 2975 
L 4075 4200 
z
M 1775 3250 
L 2100 2950 
L 1900 2750 
L 1875 550 
L 2825 1250 
L 2875 1175 
Q 1875 250 1750 -25 
L 1525 275 
Q 1625 375 1650 625 
L 1675 2775 
Q 900 2625 750 2550 
L 425 2800 
Q 850 2825 1650 3000 
L 1775 3250 
z
M 2025 3800 
Q 1825 4300 1325 4950 
L 1375 5025 
Q 1925 4575 2175 4300 
Q 2125 4000 2025 3800 
z
" transform="scale(0.015625)"/>
       <path id="FangSong-5b8c" d="M 5375 2050 
Q 4925 2050 3550 1950 
L 3850 1750 
Q 3725 1600 3700 1375 
L 3675 275 
Q 3650 -125 4075 -175 
L 4925 -175 
Q 5300 -150 5312 62 
Q 5325 275 5325 1025 
L 5425 1025 
Q 5450 750 5475 337 
Q 5500 -75 5700 -275 
Q 5400 -375 5000 -400 
L 4075 -400 
Q 3425 -350 3425 150 
L 3475 1450 
Q 3475 1775 3425 1925 
L 2675 1850 
L 2875 1650 
Q 2750 1550 2600 1200 
Q 2450 850 2025 312 
Q 1600 -225 600 -675 
L 550 -575 
Q 1525 -100 1987 625 
Q 2450 1350 2525 1850 
Q 1550 1775 1500 1725 
L 1150 2025 
Q 1625 2025 3212 2150 
Q 4800 2275 5000 2350 
L 5375 2050 
z
M 1650 3650 
Q 1550 3125 1325 2875 
L 1150 3250 
Q 1450 3425 1575 4400 
L 1675 4400 
L 1675 3900 
L 5025 4150 
L 5175 4400 
L 5525 4075 
Q 5375 4050 4725 3250 
L 4650 3325 
L 4975 3900 
L 1650 3650 
z
M 4475 2975 
Q 4225 2975 3412 2875 
Q 2600 2775 2400 2725 
L 2050 2975 
Q 2575 2975 3200 3075 
Q 3825 3175 4150 3225 
L 4475 2975 
z
M 3550 4575 
Q 3475 4350 3300 4150 
Q 3225 4475 2900 5200 
L 2975 5250 
Q 3350 4825 3550 4575 
z
" transform="scale(0.015625)"/>
       <path id="FangSong-6210" d="M 5575 975 
Q 5600 -150 5750 -625 
Q 4650 -225 4000 1075 
Q 3625 650 2975 225 
L 2925 325 
Q 3525 825 3900 1300 
Q 3600 2275 3500 3300 
L 1875 3125 
Q 1875 2625 1825 2100 
L 2725 2250 
L 2875 2475 
L 3175 2225 
L 3000 2050 
Q 2850 475 2575 -125 
Q 2225 400 1825 775 
L 1875 850 
L 2475 400 
Q 2650 875 2750 2000 
L 1825 1850 
Q 1675 250 600 -650 
L 525 -600 
Q 1250 250 1425 987 
Q 1600 1725 1625 2612 
Q 1650 3500 1550 3800 
L 1625 3825 
L 1850 3350 
L 3450 3525 
Q 3400 4150 3375 4562 
Q 3350 4975 3225 5200 
L 3275 5225 
L 3725 4900 
Q 3625 4925 3637 4575 
Q 3650 4225 3675 3550 
Q 4900 3700 5050 3775 
L 5325 3475 
Q 4775 3475 3725 3325 
Q 3775 2425 4075 1525 
Q 4500 2025 4687 2325 
Q 4875 2625 4800 2850 
L 4875 2875 
L 5125 2325 
Q 5075 2400 4850 2125 
Q 4625 1850 4150 1275 
Q 4625 225 5425 -125 
L 5475 975 
L 5575 975 
z
M 4100 5000 
Q 4525 4700 4875 4450 
Q 4825 4250 4750 4025 
Q 4400 4525 4025 4950 
L 4100 5000 
z
" transform="scale(0.015625)"/>
       <path id="FangSong-4f8b" d="M 3050 2000 
Q 3025 1800 2975 1600 
Q 2775 1900 2525 2250 
Q 2300 1875 2025 1550 
L 1925 1625 
Q 2675 2725 2975 3975 
Q 2475 3925 2375 3875 
L 2050 4125 
Q 2375 4125 3162 4225 
Q 3950 4325 4100 4450 
L 4350 4125 
Q 4050 4150 3100 3975 
L 3300 3700 
Q 3200 3675 3125 3525 
Q 3050 3375 2925 3050 
L 3625 3150 
L 3775 3350 
L 4050 3075 
L 3875 2900 
Q 3300 825 1850 -225 
L 1800 -100 
Q 3100 975 3625 2900 
Q 3150 2825 3025 2775 
L 2875 2925 
Q 2775 2675 2575 2350 
Q 2900 2125 3050 2000 
z
M 1275 -150 
Q 1425 25 1400 225 
L 1450 3425 
Q 1025 2800 475 2225 
L 400 2325 
Q 875 2850 1450 3887 
Q 2025 4925 1925 5150 
L 2000 5175 
L 2250 4700 
Q 2200 4725 2062 4475 
Q 1925 4225 1675 3800 
L 1625 -325 
Q 1650 -675 1525 -600 
L 1275 -150 
z
M 5475 250 
Q 5475 -300 5300 -650 
Q 4900 -100 4300 375 
L 4350 475 
L 5200 -75 
Q 5250 250 5250 575 
L 5250 4350 
Q 5275 4950 5100 5150 
L 5175 5225 
L 5600 4850 
Q 5450 4775 5475 4325 
L 5475 250 
z
M 4300 1525 
Q 4400 1650 4400 1900 
L 4400 3075 
Q 4425 3525 4300 3750 
L 4350 3800 
L 4725 3450 
Q 4600 3350 4625 3025 
L 4625 1375 
Q 4625 1050 4550 1125 
L 4300 1525 
z
" transform="scale(0.015625)"/>
      </defs>
      <use xlink:href="#FangSong-7d2f"/>
      <use xlink:href="#FangSong-8ba1" x="100"/>
      <use xlink:href="#FangSong-5b8c" x="200"/>
      <use xlink:href="#FangSong-6210" x="300"/>
      <use xlink:href="#FangSong-6bd4" x="400"/>
      <use xlink:href="#FangSong-4f8b" x="500"/>
     </g>
    </g>
   </g>
   <g id="line2d_12">
    <path d="M 73.832727 295.488 
L 74.177737 295.24608 
L 74.522748 294.52032 
L 74.867758 293.31072 
L 75.557778 286.05312 
L 75.902788 280.73088 
L 76.592808 260.89344 
L 77.972849 230.89536 
L 80.38792 175.49568 
L 82.457981 141.14304 
L 82.802991 138.48192 
L 83.148001 134.36928 
L 83.493011 132.192 
L 83.838021 131.46624 
L 84.183032 130.25664 
L 84.528042 127.83744 
L 85.218062 126.62784 
L 86.943113 126.62784 
L 87.288123 126.38592 
L 87.978143 126.38592 
L 88.323153 126.144 
L 88.668163 126.144 
L 89.013174 125.90208 
L 90.048204 125.90208 
L 90.393214 125.66016 
L 91.773255 125.66016 
L 92.118265 125.41824 
L 93.153295 125.41824 
L 93.498305 125.17632 
L 94.188326 125.17632 
L 94.533336 124.9344 
L 95.913376 124.9344 
L 96.258387 124.69248 
L 99.018468 124.69248 
L 99.363478 124.45056 
L 100.743519 124.45056 
L 101.088529 124.20864 
L 102.813579 124.20864 
L 103.15859 123.96672 
L 103.84861 123.96672 
L 104.19362 123.7248 
L 104.88364 123.7248 
L 105.22865 123.48288 
L 107.988732 123.48288 
L 108.333742 123.24096 
L 109.368772 123.24096 
L 109.713782 122.99904 
L 110.058792 122.99904 
L 110.748813 122.5152 
L 112.473863 122.5152 
L 112.818874 122.27328 
L 113.163884 122.27328 
L 113.508894 122.03136 
L 114.543924 122.03136 
L 114.888934 121.78944 
L 115.233945 121.78944 
L 115.578955 121.54752 
L 116.958995 121.54752 
L 117.304005 121.3056 
L 117.649016 121.3056 
L 117.994026 121.06368 
L 119.029056 121.06368 
L 119.374066 120.82176 
L 119.719076 120.82176 
L 120.064087 120.57984 
L 121.789137 120.57984 
L 122.479158 120.096 
L 123.514188 120.096 
L 123.859198 119.85408 
L 124.549218 119.85408 
L 124.894229 119.61216 
L 125.239239 119.61216 
L 125.584249 119.37024 
L 128.34433 119.37024 
L 129.03435 118.8864 
L 129.724371 118.8864 
L 130.069381 118.64448 
L 131.449421 118.64448 
L 131.794431 118.40256 
L 132.139442 118.40256 
L 132.484452 118.16064 
L 134.899523 118.16064 
L 135.244533 117.91872 
L 137.314594 117.91872 
L 138.004614 117.43488 
L 138.694634 117.43488 
L 139.039644 117.19296 
L 139.384655 117.19296 
L 139.729665 116.70912 
L 140.419685 116.70912 
L 140.764695 116.4672 
L 141.454715 116.4672 
L 141.799726 116.22528 
L 142.489746 116.22528 
L 142.834756 115.74144 
L 143.524776 115.74144 
L 143.869786 115.49952 
L 144.214797 115.49952 
L 144.559807 115.2576 
L 145.249827 115.2576 
L 145.594837 115.01568 
L 147.664898 115.01568 
L 148.354918 114.53184 
L 149.044939 114.53184 
L 150.424979 113.56416 
L 151.115 112.59648 
L 151.46001 112.35456 
L 151.80502 112.35456 
L 152.15003 111.87072 
L 153.530071 111.87072 
L 153.875081 111.6288 
L 155.255121 111.6288 
L 155.600131 111.38688 
L 156.980172 111.38688 
L 157.325182 111.14496 
L 159.395243 111.14496 
L 159.740253 110.90304 
L 161.120294 110.90304 
L 161.465304 110.66112 
L 162.500334 110.66112 
L 162.845344 110.4192 
L 164.570395 110.4192 
L 165.260415 109.93536 
L 166.295446 109.93536 
L 166.640456 109.69344 
L 167.330476 109.69344 
L 167.675486 109.45152 
L 168.020497 109.45152 
L 168.710517 108.96768 
L 171.125588 108.96768 
L 171.470598 108.48384 
L 173.540659 108.48384 
L 174.230679 108 
L 174.920699 108 
L 175.26571 107.75808 
L 175.95573 107.75808 
L 176.30074 107.51616 
L 178.370801 107.51616 
L 178.715811 107.27424 
L 179.750841 107.27424 
L 180.440862 106.7904 
L 181.820902 106.7904 
L 182.510923 106.30656 
L 183.545953 106.30656 
L 183.890963 106.06464 
L 184.580983 106.06464 
L 184.925994 105.82272 
L 186.306034 105.82272 
L 186.651044 105.5808 
L 187.341065 105.5808 
L 187.686075 105.33888 
L 188.031085 105.33888 
L 188.376095 104.85504 
L 190.446156 104.85504 
L 190.791166 104.61312 
L 191.136176 104.61312 
L 191.481186 104.12928 
L 192.171207 104.12928 
L 192.516217 103.88736 
L 194.586278 103.88736 
L 194.931288 103.64544 
L 195.276298 103.1616 
L 198.381389 103.1616 
L 198.726399 102.91968 
L 200.10644 102.91968 
L 200.45145 102.43584 
L 200.79646 102.43584 
L 201.486481 101.952 
L 203.211531 101.952 
L 203.556541 101.71008 
L 203.901552 101.71008 
L 204.246562 101.46816 
L 204.591572 101.46816 
L 204.936582 101.22624 
L 207.006643 101.22624 
L 207.351653 100.98432 
L 209.076704 100.98432 
L 209.766724 100.50048 
L 211.146765 100.50048 
L 211.491775 100.25856 
L 212.871815 100.25856 
L 213.216825 100.01664 
L 214.596866 100.01664 
L 215.286886 99.5328 
L 216.666927 99.5328 
L 217.011937 99.29088 
L 217.356947 99.29088 
L 218.046967 98.80704 
L 219.772018 98.80704 
L 220.117028 98.56512 
L 221.497069 98.56512 
L 221.842079 98.3232 
L 223.91214 98.3232 
L 224.25715 98.08128 
L 224.94717 98.08128 
L 225.637191 97.59744 
L 227.362241 97.59744 
L 227.707251 97.35552 
L 228.397272 97.35552 
L 228.742282 97.1136 
L 229.087292 97.1136 
L 229.432302 96.87168 
L 230.122322 96.87168 
L 230.467333 96.62976 
L 230.812343 96.62976 
L 231.157353 96.38784 
L 232.882404 96.38784 
L 233.227414 96.14592 
L 233.917434 96.14592 
L 234.607454 95.66208 
L 236.332505 95.66208 
L 236.677515 95.42016 
L 238.057556 95.42016 
L 238.747576 94.93632 
L 239.092586 94.93632 
L 239.437596 94.6944 
L 241.162647 94.6944 
L 241.507657 94.45248 
L 243.232708 94.45248 
L 243.577718 93.96864 
L 245.302769 93.96864 
L 245.647779 93.72672 
L 246.337799 93.72672 
L 246.682809 93.4848 
L 247.02782 93.4848 
L 247.71784 93.00096 
L 248.75287 93.00096 
L 249.09788 92.75904 
L 249.787901 92.75904 
L 250.477921 92.2752 
L 252.202972 92.2752 
L 252.892992 91.79136 
L 253.238002 91.30752 
L 255.308063 91.30752 
L 255.653073 91.0656 
L 257.033114 91.0656 
L 257.723134 90.58176 
L 259.448185 90.58176 
L 259.793195 90.33984 
L 261.518246 90.33984 
L 261.863256 90.09792 
L 262.898286 90.09792 
L 263.243296 89.61408 
L 263.588306 89.61408 
L 263.933317 89.37216 
L 266.003377 89.37216 
L 266.348388 89.13024 
L 267.728428 89.13024 
L 268.073438 88.88832 
L 269.108469 88.88832 
L 269.798489 88.40448 
L 270.488509 88.40448 
L 270.833519 88.16256 
L 272.21356 88.16256 
L 272.55857 87.92064 
L 273.938611 87.92064 
L 274.283621 87.67872 
L 275.663661 87.67872 
L 276.008672 87.4368 
L 278.078732 87.4368 
L 278.423743 87.19488 
L 279.113763 87.19488 
L 279.458773 86.95296 
L 280.838814 86.95296 
L 281.183824 86.46912 
L 283.598895 86.46912 
L 283.943905 86.2272 
L 284.633925 86.2272 
L 284.978935 85.98528 
L 285.323946 85.98528 
L 285.668956 85.74336 
L 287.048996 85.74336 
L 287.394006 85.50144 
L 289.119057 85.50144 
L 289.464067 85.25952 
L 290.154088 85.25952 
L 290.499098 85.0176 
L 290.844108 85.0176 
L 291.189118 84.77568 
L 292.914169 84.77568 
L 293.259179 84.53376 
L 293.604189 84.04992 
L 293.949199 84.04992 
L 294.294209 83.808 
L 294.639219 83.808 
L 294.98423 83.56608 
L 296.70928 83.56608 
L 297.399301 83.08224 
L 298.089321 83.08224 
L 298.434331 82.84032 
L 300.159382 82.84032 
L 300.849402 82.35648 
L 301.884432 82.35648 
L 302.229443 82.11456 
L 305.334534 82.11456 
L 305.679544 81.63072 
L 306.024554 81.3888 
L 308.094615 81.3888 
L 308.439625 81.14688 
L 309.474656 81.14688 
L 309.819666 80.90496 
L 310.164676 80.90496 
L 310.854696 80.42112 
L 311.544716 80.42112 
L 311.889727 80.1792 
L 312.579747 80.1792 
L 312.924757 79.69536 
L 314.994818 79.69536 
L 315.684838 79.21152 
L 316.719869 79.21152 
L 317.064879 78.9696 
L 317.754899 78.9696 
L 318.099909 78.48576 
L 318.789929 78.48576 
L 319.13494 78.24384 
L 319.47995 78.24384 
L 319.82496 78.00192 
L 320.16997 78.00192 
L 320.51498 77.76 
L 320.85999 77.27616 
L 321.550011 77.27616 
L 321.895021 77.03424 
L 322.240031 77.03424 
L 322.585041 76.5504 
L 323.275061 76.5504 
L 323.965082 76.06656 
L 325.690132 76.06656 
L 326.380153 75.58272 
L 327.760193 75.58272 
L 328.105203 75.3408 
L 328.795224 75.3408 
L 329.140234 75.09888 
L 330.175264 75.09888 
L 330.520274 74.61504 
L 331.555305 74.61504 
L 332.245325 74.1312 
L 332.935345 74.1312 
L 333.625366 73.64736 
L 333.970376 73.64736 
L 334.660396 73.16352 
L 335.695427 73.16352 
L 336.385447 72.67968 
L 337.075467 72.67968 
L 337.420477 72.19584 
L 338.110498 72.19584 
L 338.800518 71.712 
L 339.145528 71.712 
L 339.490538 71.47008 
L 340.180558 71.47008 
L 340.870579 70.98624 
L 341.560599 70.98624 
L 341.905609 70.74432 
L 342.94064 70.74432 
L 343.28565 70.5024 
L 344.32068 70.5024 
L 344.66569 70.26048 
L 345.0107 70.26048 
L 345.700721 69.77664 
L 346.390741 69.77664 
L 346.735751 69.53472 
L 347.770782 69.53472 
L 348.115792 69.05088 
L 350.185853 69.05088 
L 350.530863 68.80896 
L 350.875873 68.80896 
L 351.220883 68.32512 
L 352.255913 67.59936 
L 353.290944 67.59936 
L 353.635954 67.35744 
L 353.980964 67.35744 
L 354.325974 67.11552 
L 354.670984 67.11552 
L 355.015995 66.63168 
L 355.361005 66.63168 
L 355.706015 66.38976 
L 356.741045 66.38976 
L 357.086055 65.90592 
L 357.431066 65.90592 
L 357.776076 65.664 
L 358.121086 65.664 
L 358.466096 65.42208 
L 359.156116 65.42208 
L 360.536157 64.4544 
L 361.571187 64.4544 
L 362.606218 63.72864 
L 363.296238 63.72864 
L 363.641248 63.48672 
L 363.986258 63.48672 
L 364.331268 63.2448 
L 365.021289 63.2448 
L 365.366299 63.00288 
L 366.056319 63.00288 
L 366.401329 62.76096 
L 367.09135 62.76096 
L 367.43636 62.51904 
L 367.78137 62.0352 
L 368.12638 61.79328 
L 369.16141 61.79328 
L 369.506421 61.55136 
L 370.196441 61.55136 
L 370.541451 61.06752 
L 371.576481 61.06752 
L 371.921492 60.8256 
L 372.956522 60.8256 
L 373.646542 60.34176 
L 374.681573 60.34176 
L 375.026583 60.09984 
L 376.061613 60.09984 
L 376.751634 59.616 
L 378.476684 59.616 
L 378.821695 59.37408 
L 379.166705 59.37408 
L 379.511715 59.13216 
L 381.581776 59.13216 
L 381.926786 58.89024 
L 382.271796 58.89024 
L 382.616806 58.64832 
L 382.961816 58.64832 
L 383.306826 58.4064 
L 383.996847 58.4064 
L 384.341857 58.16448 
L 384.686867 58.16448 
L 385.031877 57.92256 
L 385.376887 57.92256 
L 385.721897 57.68064 
L 386.411918 57.68064 
L 387.791958 56.71296 
L 388.481979 56.71296 
L 389.171999 56.22912 
L 389.517009 56.22912 
L 389.862019 55.9872 
L 390.89705 55.9872 
L 391.24206 55.74528 
L 391.58707 55.74528 
L 391.93208 55.50336 
L 392.27709 55.50336 
L 392.96711 55.01952 
L 393.657131 55.01952 
L 394.002141 54.7776 
L 394.347151 54.7776 
L 394.692161 54.53568 
L 395.727192 54.53568 
L 396.072202 54.29376 
L 396.762222 54.29376 
L 397.107232 54.05184 
L 397.797252 54.05184 
L 398.487273 53.568 
L 398.487273 53.568 
" clip-path="url(#p7ae816e87e)" style="fill: none; stroke: #ff0000; stroke-linecap: square"/>
   </g>
   <g id="line2d_13">
    <path d="M 73.832727 295.488 
L 74.177737 294.19431 
L 74.522748 294.19431 
L 74.867758 292.90062 
L 75.212768 285.138481 
L 75.557778 274.788963 
L 75.902788 268.320513 
L 76.592808 242.446717 
L 76.937819 228.216128 
L 77.627839 213.98554 
L 78.662869 185.524364 
L 80.04291 136.36415 
L 80.73293 120.839872 
L 81.42295 102.728214 
L 81.767961 96.259765 
L 82.457981 71.679658 
L 82.802991 70.385968 
L 83.148001 66.504898 
L 83.493011 63.917519 
L 83.838021 62.623829 
L 84.183032 58.742759 
L 84.528042 53.568 
L 398.487273 53.568 
L 398.487273 53.568 
" clip-path="url(#p7ae816e87e)" style="fill: none; stroke-dasharray: 1.85,0.8; stroke-dashoffset: 0; stroke: #008000; stroke-width: 0.5"/>
   </g>
   <g id="line2d_14">
    <path d="M 73.832727 295.488 
L 74.177737 295.488 
L 74.522748 293.176662 
L 74.867758 290.094879 
L 75.212768 284.701758 
L 75.557778 281.619975 
L 75.902788 272.374624 
L 76.592808 246.949911 
L 76.937819 242.327236 
L 77.282829 229.229656 
L 78.317859 205.345834 
L 79.35289 173.757554 
L 79.6979 166.823541 
L 80.73293 130.612586 
L 81.42295 115.203669 
L 82.112971 90.549401 
L 83.148001 66.66558 
L 83.493011 62.81335 
L 84.183032 59.731567 
L 84.873052 54.338446 
L 85.218062 53.568 
L 398.487273 53.568 
L 398.487273 53.568 
" clip-path="url(#p7ae816e87e)" style="fill: none; stroke-dasharray: 1.85,0.8; stroke-dashoffset: 0; stroke: #0000ff; stroke-width: 0.5"/>
   </g>
   <g id="line2d_15">
    <path d="M 73.832727 295.488 
L 74.867758 295.488 
L 75.212768 294.710122 
L 77.972849 294.710122 
L 78.317859 293.932244 
L 80.38792 293.932244 
L 80.73293 293.154367 
L 81.767961 293.154367 
L 82.112971 292.376489 
L 82.802991 292.376489 
L 83.493011 290.820733 
L 84.183032 290.820733 
L 84.528042 289.264977 
L 84.873052 289.264977 
L 85.218062 288.4871 
L 86.943113 288.4871 
L 87.288123 287.709222 
L 87.978143 287.709222 
L 88.323153 286.931344 
L 88.668163 286.931344 
L 89.013174 286.153466 
L 90.048204 286.153466 
L 90.393214 285.375588 
L 91.773255 285.375588 
L 92.118265 284.597711 
L 93.153295 284.597711 
L 93.498305 283.819833 
L 94.188326 283.819833 
L 94.533336 283.041955 
L 95.913376 283.041955 
L 96.258387 282.264077 
L 99.018468 282.264077 
L 99.363478 281.486199 
L 100.743519 281.486199 
L 101.088529 280.708322 
L 102.813579 280.708322 
L 103.15859 279.930444 
L 103.84861 279.930444 
L 104.19362 279.152566 
L 104.88364 279.152566 
L 105.22865 278.374688 
L 107.988732 278.374688 
L 108.333742 277.59681 
L 109.368772 277.59681 
L 109.713782 276.818932 
L 110.058792 276.818932 
L 110.748813 275.263177 
L 112.473863 275.263177 
L 112.818874 274.485299 
L 113.163884 274.485299 
L 113.508894 273.707421 
L 114.543924 273.707421 
L 114.888934 272.929543 
L 115.233945 272.929543 
L 115.578955 272.151666 
L 116.958995 272.151666 
L 117.304005 271.373788 
L 117.649016 271.373788 
L 117.994026 270.59591 
L 119.029056 270.59591 
L 119.374066 269.818032 
L 119.719076 269.818032 
L 120.064087 269.040154 
L 121.789137 269.040154 
L 122.479158 267.484399 
L 123.514188 267.484399 
L 123.859198 266.706521 
L 124.549218 266.706521 
L 124.894229 265.928643 
L 125.239239 265.928643 
L 125.584249 265.150765 
L 128.34433 265.150765 
L 129.03435 263.59501 
L 129.724371 263.59501 
L 130.069381 262.817132 
L 131.449421 262.817132 
L 131.794431 262.039254 
L 132.139442 262.039254 
L 132.484452 261.261376 
L 134.899523 261.261376 
L 135.244533 260.483498 
L 137.314594 260.483498 
L 138.004614 258.927743 
L 138.694634 258.927743 
L 139.039644 258.149865 
L 139.384655 258.149865 
L 139.729665 256.594109 
L 140.419685 256.594109 
L 140.764695 255.816232 
L 141.454715 255.816232 
L 141.799726 255.038354 
L 142.489746 255.038354 
L 142.834756 253.482598 
L 143.524776 253.482598 
L 143.869786 252.70472 
L 144.214797 252.70472 
L 144.559807 251.926842 
L 145.249827 251.926842 
L 145.594837 251.148965 
L 147.664898 251.148965 
L 148.354918 249.593209 
L 149.044939 249.593209 
L 150.424979 246.481698 
L 151.115 243.370186 
L 151.46001 242.592309 
L 151.80502 242.592309 
L 152.15003 241.036553 
L 153.530071 241.036553 
L 153.875081 240.258675 
L 155.255121 240.258675 
L 155.600131 239.480797 
L 156.980172 239.480797 
L 157.325182 238.70292 
L 159.395243 238.70292 
L 159.740253 237.925042 
L 161.120294 237.925042 
L 161.465304 237.147164 
L 162.500334 237.147164 
L 162.845344 236.369286 
L 164.570395 236.369286 
L 165.260415 234.813531 
L 166.295446 234.813531 
L 166.640456 234.035653 
L 167.330476 234.035653 
L 167.675486 233.257775 
L 168.020497 233.257775 
L 168.710517 231.702019 
L 171.125588 231.702019 
L 171.470598 230.146264 
L 173.540659 230.146264 
L 174.230679 228.590508 
L 174.920699 228.590508 
L 175.26571 227.81263 
L 175.95573 227.81263 
L 176.30074 227.034752 
L 178.370801 227.034752 
L 178.715811 226.256875 
L 179.750841 226.256875 
L 180.440862 224.701119 
L 181.820902 224.701119 
L 182.510923 223.145363 
L 183.545953 223.145363 
L 183.890963 222.367486 
L 184.580983 222.367486 
L 184.925994 221.589608 
L 186.306034 221.589608 
L 186.651044 220.81173 
L 187.341065 220.81173 
L 187.686075 220.033852 
L 188.031085 220.033852 
L 188.376095 218.478096 
L 190.446156 218.478096 
L 190.791166 217.700219 
L 191.136176 217.700219 
L 191.481186 216.144463 
L 192.171207 216.144463 
L 192.516217 215.366585 
L 194.586278 215.366585 
L 194.931288 214.588707 
L 195.276298 213.032952 
L 198.381389 213.032952 
L 198.726399 212.255074 
L 200.10644 212.255074 
L 200.45145 210.699318 
L 200.79646 210.699318 
L 201.486481 209.143563 
L 203.211531 209.143563 
L 203.556541 208.365685 
L 203.901552 208.365685 
L 204.246562 207.587807 
L 204.591572 207.587807 
L 204.936582 206.809929 
L 207.006643 206.809929 
L 207.351653 206.032051 
L 209.076704 206.032051 
L 209.766724 204.476296 
L 211.146765 204.476296 
L 211.491775 203.698418 
L 212.871815 203.698418 
L 213.216825 202.92054 
L 214.596866 202.92054 
L 215.286886 201.364785 
L 216.666927 201.364785 
L 217.011937 200.586907 
L 217.356947 200.586907 
L 218.046967 199.031151 
L 219.772018 199.031151 
L 220.117028 198.253273 
L 221.497069 198.253273 
L 221.842079 197.475395 
L 223.91214 197.475395 
L 224.25715 196.697518 
L 224.94717 196.697518 
L 225.637191 195.141762 
L 227.362241 195.141762 
L 227.707251 194.363884 
L 228.397272 194.363884 
L 228.742282 193.586006 
L 229.087292 193.586006 
L 229.432302 192.808129 
L 230.122322 192.808129 
L 230.467333 192.030251 
L 230.812343 192.030251 
L 231.157353 191.252373 
L 232.882404 191.252373 
L 233.227414 190.474495 
L 233.917434 190.474495 
L 234.607454 188.91874 
L 236.332505 188.91874 
L 236.677515 188.140862 
L 238.057556 188.140862 
L 238.747576 186.585106 
L 239.092586 186.585106 
L 239.437596 185.807228 
L 241.162647 185.807228 
L 241.507657 185.02935 
L 243.232708 185.02935 
L 243.577718 183.473595 
L 245.302769 183.473595 
L 245.647779 182.695717 
L 246.337799 182.695717 
L 246.682809 181.917839 
L 247.02782 181.917839 
L 247.71784 180.362084 
L 248.75287 180.362084 
L 249.09788 179.584206 
L 249.787901 179.584206 
L 250.477921 178.02845 
L 252.202972 178.02845 
L 252.892992 176.472695 
L 253.238002 174.916939 
L 255.308063 174.916939 
L 255.653073 174.139061 
L 257.033114 174.139061 
L 257.723134 172.583305 
L 259.448185 172.583305 
L 259.793195 171.805428 
L 261.518246 171.805428 
L 261.863256 171.02755 
L 262.898286 171.02755 
L 263.243296 169.471794 
L 263.588306 169.471794 
L 263.933317 168.693916 
L 266.003377 168.693916 
L 266.348388 167.916039 
L 267.728428 167.916039 
L 268.073438 167.138161 
L 269.108469 167.138161 
L 269.798489 165.582405 
L 270.488509 165.582405 
L 270.833519 164.804527 
L 272.21356 164.804527 
L 272.55857 164.02665 
L 273.938611 164.02665 
L 274.283621 163.248772 
L 275.663661 163.248772 
L 276.008672 162.470894 
L 278.078732 162.470894 
L 278.423743 161.693016 
L 279.113763 161.693016 
L 279.458773 160.915138 
L 280.838814 160.915138 
L 281.183824 159.359383 
L 283.598895 159.359383 
L 283.943905 158.581505 
L 284.633925 158.581505 
L 284.978935 157.803627 
L 285.323946 157.803627 
L 285.668956 157.025749 
L 287.048996 157.025749 
L 287.394006 156.247871 
L 289.119057 156.247871 
L 289.464067 155.469994 
L 290.154088 155.469994 
L 290.499098 154.692116 
L 290.844108 154.692116 
L 291.189118 153.914238 
L 292.914169 153.914238 
L 293.259179 153.13636 
L 293.604189 151.580605 
L 293.949199 151.580605 
L 294.294209 150.802727 
L 294.639219 150.802727 
L 294.98423 150.024849 
L 296.70928 150.024849 
L 297.399301 148.469093 
L 298.089321 148.469093 
L 298.434331 147.691215 
L 300.159382 147.691215 
L 300.849402 146.13546 
L 301.884432 146.13546 
L 302.229443 145.357582 
L 305.334534 145.357582 
L 305.679544 143.801826 
L 306.024554 143.023949 
L 308.094615 143.023949 
L 308.439625 142.246071 
L 309.474656 142.246071 
L 309.819666 141.468193 
L 310.164676 141.468193 
L 310.854696 139.912437 
L 311.544716 139.912437 
L 311.889727 139.134559 
L 312.579747 139.134559 
L 312.924757 137.578804 
L 314.994818 137.578804 
L 315.684838 136.023048 
L 316.719869 136.023048 
L 317.064879 135.24517 
L 317.754899 135.24517 
L 318.099909 133.689415 
L 318.789929 133.689415 
L 319.13494 132.911537 
L 319.47995 132.911537 
L 319.82496 132.133659 
L 320.16997 132.133659 
L 320.51498 131.355781 
L 320.85999 129.800026 
L 321.550011 129.800026 
L 321.895021 129.022148 
L 322.240031 129.022148 
L 322.585041 127.466392 
L 323.275061 127.466392 
L 323.965082 125.910637 
L 325.690132 125.910637 
L 326.380153 124.354881 
L 327.760193 124.354881 
L 328.105203 123.577003 
L 328.795224 123.577003 
L 329.140234 122.799125 
L 330.175264 122.799125 
L 330.520274 121.24337 
L 331.555305 121.24337 
L 332.245325 119.687614 
L 332.935345 119.687614 
L 333.625366 118.131859 
L 333.970376 118.131859 
L 334.660396 116.576103 
L 335.695427 116.576103 
L 336.385447 115.020347 
L 337.075467 115.020347 
L 337.420477 113.464592 
L 338.110498 113.464592 
L 338.800518 111.908836 
L 339.145528 111.908836 
L 339.490538 111.130958 
L 340.180558 111.130958 
L 340.870579 109.575203 
L 341.560599 109.575203 
L 341.905609 108.797325 
L 342.94064 108.797325 
L 343.28565 108.019447 
L 344.32068 108.019447 
L 344.66569 107.241569 
L 345.0107 107.241569 
L 345.700721 105.685814 
L 346.390741 105.685814 
L 346.735751 104.907936 
L 347.770782 104.907936 
L 348.115792 103.35218 
L 350.185853 103.35218 
L 350.530863 102.574302 
L 350.875873 102.574302 
L 351.220883 101.018547 
L 352.255913 98.684913 
L 353.290944 98.684913 
L 353.635954 97.907035 
L 353.980964 97.907035 
L 354.325974 97.129158 
L 354.670984 97.129158 
L 355.015995 95.573402 
L 355.361005 95.573402 
L 355.706015 94.795524 
L 356.741045 94.795524 
L 357.086055 93.239768 
L 357.431066 93.239768 
L 357.776076 92.461891 
L 358.121086 92.461891 
L 358.466096 91.684013 
L 359.156116 91.684013 
L 360.536157 88.572502 
L 361.571187 88.572502 
L 362.606218 86.238868 
L 363.296238 86.238868 
L 363.641248 85.46099 
L 363.986258 85.46099 
L 364.331268 84.683113 
L 365.021289 84.683113 
L 365.366299 83.905235 
L 366.056319 83.905235 
L 366.401329 83.127357 
L 367.09135 83.127357 
L 367.43636 82.349479 
L 367.78137 80.793723 
L 368.12638 80.015846 
L 369.16141 80.015846 
L 369.506421 79.237968 
L 370.196441 79.237968 
L 370.541451 77.682212 
L 371.576481 77.682212 
L 371.921492 76.904334 
L 372.956522 76.904334 
L 373.646542 75.348579 
L 374.681573 75.348579 
L 375.026583 74.570701 
L 376.061613 74.570701 
L 376.751634 73.014945 
L 378.476684 73.014945 
L 378.821695 72.237068 
L 379.166705 72.237068 
L 379.511715 71.45919 
L 381.581776 71.45919 
L 381.926786 70.681312 
L 382.271796 70.681312 
L 382.616806 69.903434 
L 382.961816 69.903434 
L 383.306826 69.125556 
L 383.996847 69.125556 
L 384.341857 68.347678 
L 384.686867 68.347678 
L 385.031877 67.569801 
L 385.376887 67.569801 
L 385.721897 66.791923 
L 386.411918 66.791923 
L 387.791958 63.680412 
L 388.481979 63.680412 
L 389.171999 62.124656 
L 389.517009 62.124656 
L 389.862019 61.346778 
L 390.89705 61.346778 
L 391.24206 60.5689 
L 391.58707 60.5689 
L 391.93208 59.791023 
L 392.27709 59.791023 
L 392.96711 58.235267 
L 393.657131 58.235267 
L 394.002141 57.457389 
L 394.347151 57.457389 
L 394.692161 56.679511 
L 395.727192 56.679511 
L 396.072202 55.901633 
L 396.762222 55.901633 
L 397.107232 55.123756 
L 397.797252 55.123756 
L 398.487273 53.568 
L 398.487273 53.568 
" clip-path="url(#p7ae816e87e)" style="fill: none; stroke-dasharray: 1.85,0.8; stroke-dashoffset: 0; stroke: #bf00bf; stroke-width: 0.5"/>
   </g>
   <g id="line2d_16">
    <path d="M 73.832727 295.488 
L 75.212768 295.488 
L 75.902788 283.906723 
L 76.247798 259.457362 
L 77.282829 220.853106 
L 77.627839 197.690553 
L 77.972849 182.248851 
L 78.317859 157.799489 
L 79.007879 135.923745 
L 80.04291 90.885447 
L 80.38792 83.164596 
L 80.73293 79.30417 
L 81.07794 74.156936 
L 81.42295 66.436085 
L 82.112971 57.428426 
L 82.457981 57.428426 
L 82.802991 54.854809 
L 83.148001 54.854809 
L 83.493011 53.568 
L 398.487273 53.568 
L 398.487273 53.568 
" clip-path="url(#p7ae816e87e)" style="fill: none; stroke-dasharray: 1.85,0.8; stroke-dashoffset: 0; stroke: #bfbf00; stroke-width: 0.5"/>
   </g>
   <g id="patch_3">
    <path d="M 57.6 307.584 
L 57.6 41.472 
" style="fill: none; stroke: #000000; stroke-width: 0.8; stroke-linejoin: miter; stroke-linecap: square"/>
   </g>
   <g id="patch_4">
    <path d="M 414.72 307.584 
L 414.72 41.472 
" style="fill: none; stroke: #000000; stroke-width: 0.8; stroke-linejoin: miter; stroke-linecap: square"/>
   </g>
   <g id="patch_5">
    <path d="M 57.6 307.584 
L 414.72 307.584 
" style="fill: none; stroke: #000000; stroke-width: 0.8; stroke-linejoin: miter; stroke-linecap: square"/>
   </g>
   <g id="patch_6">
    <path d="M 57.6 41.472 
L 414.72 41.472 
" style="fill: none; stroke: #000000; stroke-width: 0.8; stroke-linejoin: miter; stroke-linecap: square"/>
   </g>
   <g id="text_14">
    <!-- count=1000, googlenet=125, resnet50=125, squeezenetv1=75, vgg19=75 -->
    <g transform="translate(38.16 35.472)scale(0.12 -0.12)">
     <defs>
      <path id="FangSong-63" d="M 2125 2125 
Q 2125 2200 2137 2225 
Q 2150 2250 2175 2325 
Q 2200 2425 2075 2562 
Q 1950 2700 1650 2700 
Q 1275 2700 1012 2337 
Q 750 1975 750 1375 
Q 750 825 975 487 
Q 1200 150 1725 150 
Q 2075 150 2312 375 
Q 2550 600 2650 900 
L 2775 850 
Q 2675 475 2400 212 
Q 2125 -50 1650 -50 
Q 1050 -50 700 325 
Q 350 700 350 1400 
Q 350 2025 725 2437 
Q 1100 2850 1700 2850 
Q 2125 2850 2362 2625 
Q 2600 2400 2600 2175 
Q 2600 2025 2537 1962 
Q 2475 1900 2350 1900 
Q 2250 1900 2187 1962 
Q 2125 2025 2125 2125 
z
" transform="scale(0.015625)"/>
      <path id="FangSong-6f" d="M 2875 1400 
Q 2875 775 2500 362 
Q 2125 -50 1575 -50 
Q 1000 -50 637 375 
Q 275 800 275 1400 
Q 275 1950 637 2400 
Q 1000 2850 1575 2850 
Q 2175 2850 2525 2400 
Q 2875 1950 2875 1400 
z
M 675 1375 
Q 675 725 937 412 
Q 1200 100 1575 100 
Q 2000 100 2237 437 
Q 2475 775 2475 1375 
Q 2475 2025 2212 2362 
Q 1950 2700 1575 2700 
Q 1225 2700 950 2362 
Q 675 2025 675 1375 
z
" transform="scale(0.015625)"/>
      <path id="FangSong-75" d="M 1425 225 
Q 1725 225 1937 375 
Q 2150 525 2250 850 
L 2250 2425 
Q 2250 2525 2200 2587 
Q 2150 2650 2025 2650 
L 1875 2650 
L 1875 2800 
L 2025 2800 
Q 2175 2800 2300 2825 
Q 2425 2850 2550 2950 
L 2600 2950 
L 2600 500 
Q 2600 400 2662 350 
Q 2725 300 2825 300 
L 2975 300 
L 2975 150 
L 2825 150 
Q 2700 150 2575 112 
Q 2450 75 2300 0 
L 2250 0 
L 2250 525 
Q 2125 250 1875 112 
Q 1625 -25 1300 -25 
Q 900 -25 700 200 
Q 500 425 500 925 
L 500 2425 
Q 500 2525 450 2587 
Q 400 2650 275 2650 
L 125 2650 
L 125 2800 
L 275 2800 
Q 425 2800 550 2825 
Q 675 2850 800 2950 
L 850 2950 
L 850 875 
Q 850 525 1000 375 
Q 1150 225 1425 225 
z
" transform="scale(0.015625)"/>
      <path id="FangSong-6e" d="M 175 0 
L 175 150 
L 300 150 
Q 425 150 475 200 
Q 525 250 525 350 
L 525 2500 
Q 525 2575 500 2612 
Q 475 2650 400 2650 
L 200 2650 
L 200 2800 
L 375 2800 
Q 500 2800 612 2825 
Q 725 2850 825 2925 
L 875 2925 
L 875 2350 
Q 1100 2600 1325 2725 
Q 1550 2850 1800 2850 
Q 2225 2850 2425 2625 
Q 2625 2400 2625 1950 
L 2625 350 
Q 2625 250 2687 200 
Q 2750 150 2850 150 
L 2975 150 
L 2975 0 
L 1925 0 
L 1925 150 
L 2050 150 
Q 2175 150 2225 200 
Q 2275 250 2275 350 
L 2275 2025 
Q 2275 2325 2150 2487 
Q 2025 2650 1775 2650 
Q 1550 2650 1312 2500 
Q 1075 2350 875 2075 
L 875 350 
Q 875 250 937 200 
Q 1000 150 1100 150 
L 1225 150 
L 1225 0 
L 175 0 
z
" transform="scale(0.015625)"/>
      <path id="FangSong-74" d="M 1475 800 
Q 1475 450 1600 325 
Q 1725 200 1975 200 
Q 2225 200 2375 362 
Q 2525 525 2575 825 
L 2700 775 
Q 2650 425 2437 200 
Q 2225 -25 1875 -25 
Q 1500 -25 1312 200 
Q 1125 425 1125 900 
L 1125 2650 
L 375 2650 
L 375 2800 
L 575 2800 
Q 875 2800 1062 2987 
Q 1250 3175 1300 3575 
L 1325 3775 
L 1475 3775 
L 1475 2800 
L 2475 2800 
L 2475 2650 
L 1475 2650 
L 1475 800 
z
" transform="scale(0.015625)"/>
      <path id="FangSong-3d" d="M 175 2725 
L 175 2950 
L 2950 2950 
L 2950 2725 
L 175 2725 
z
M 175 1450 
L 175 1675 
L 2950 1675 
L 2950 1450 
L 175 1450 
z
" transform="scale(0.015625)"/>
      <path id="FangSong-2c" d="M 1325 75 
Q 1200 25 1100 75 
Q 1000 125 962 237 
Q 925 350 925 437 
Q 925 525 987 612 
Q 1050 700 1150 737 
Q 1250 775 1425 725 
Q 1600 675 1650 500 
Q 1700 325 1662 150 
Q 1625 -25 1525 -200 
Q 1425 -375 1312 -475 
Q 1200 -575 1025 -675 
L 950 -575 
Q 1100 -450 1187 -312 
Q 1275 -175 1325 75 
z
" transform="scale(0.015625)"/>
      <path id="FangSong-20" transform="scale(0.015625)"/>
      <path id="FangSong-67" d="M 850 1875 
Q 850 1575 1025 1362 
Q 1200 1150 1500 1150 
Q 1825 1150 1987 1337 
Q 2150 1525 2150 1875 
Q 2150 2300 1962 2487 
Q 1775 2675 1500 2675 
Q 1225 2675 1037 2487 
Q 850 2300 850 1875 
z
M 2075 525 
Q 2450 475 2625 312 
Q 2800 150 2800 -125 
Q 2800 -500 2487 -725 
Q 2175 -950 1500 -950 
Q 975 -950 650 -737 
Q 325 -525 325 -250 
Q 325 -75 450 100 
Q 575 275 850 375 
Q 700 450 612 537 
Q 525 625 525 750 
Q 525 900 625 1012 
Q 725 1125 875 1200 
Q 725 1325 612 1500 
Q 500 1675 500 1875 
Q 500 2250 762 2537 
Q 1025 2825 1500 2825 
Q 1700 2825 1887 2775 
Q 2075 2725 2200 2600 
Q 2375 2725 2512 2787 
Q 2650 2850 2750 2850 
Q 2875 2850 2925 2762 
Q 2975 2675 2975 2600 
Q 2975 2500 2937 2437 
Q 2900 2375 2800 2375 
Q 2725 2375 2675 2412 
Q 2625 2450 2600 2525 
Q 2575 2600 2487 2587 
Q 2400 2575 2300 2500 
Q 2400 2400 2450 2225 
Q 2500 2050 2500 1875 
Q 2500 1575 2262 1287 
Q 2025 1000 1500 1000 
Q 1350 1000 1225 1037 
Q 1100 1075 1025 1125 
Q 925 1075 875 1000 
Q 825 925 825 875 
Q 825 775 875 725 
Q 925 675 1025 675 
Q 1350 625 1612 587 
Q 1875 550 2075 525 
z
M 1050 325 
Q 825 225 737 87 
Q 650 -50 650 -250 
Q 650 -450 875 -625 
Q 1100 -800 1550 -800 
Q 1975 -800 2225 -662 
Q 2475 -525 2475 -250 
Q 2475 -75 2412 25 
Q 2350 125 2225 150 
Q 1975 200 1675 237 
Q 1375 275 1050 325 
z
" transform="scale(0.015625)"/>
      <path id="FangSong-6c" d="M 900 4275 
Q 1125 4275 1325 4325 
Q 1525 4375 1700 4475 
L 1750 4475 
L 1750 350 
Q 1750 250 1812 200 
Q 1875 150 1975 150 
L 2550 150 
L 2550 0 
L 600 0 
L 600 150 
L 1175 150 
Q 1300 150 1350 200 
Q 1400 250 1400 350 
L 1400 3925 
Q 1400 4025 1350 4075 
Q 1300 4125 1175 4125 
L 625 4125 
L 625 4275 
L 900 4275 
z
" transform="scale(0.015625)"/>
      <path id="FangSong-65" d="M 2375 1550 
Q 2400 2100 2187 2387 
Q 1975 2675 1625 2675 
Q 1250 2675 1012 2375 
Q 775 2075 775 1550 
L 2375 1550 
z
M 775 1400 
Q 775 725 1037 437 
Q 1300 150 1725 150 
Q 2050 150 2275 337 
Q 2500 525 2600 800 
L 2725 750 
Q 2650 475 2387 212 
Q 2125 -50 1675 -50 
Q 1100 -50 737 325 
Q 375 700 375 1400 
Q 375 2025 737 2437 
Q 1100 2850 1625 2850 
Q 2100 2850 2450 2525 
Q 2800 2200 2800 1400 
L 775 1400 
z
" transform="scale(0.015625)"/>
      <path id="FangSong-35" d="M 1700 2750 
Q 2175 2750 2475 2387 
Q 2775 2025 2775 1425 
Q 2775 750 2462 350 
Q 2150 -50 1500 -50 
Q 1050 -50 700 212 
Q 350 475 350 850 
Q 350 1000 437 1112 
Q 525 1225 675 1225 
Q 825 1225 875 1125 
Q 925 1025 925 950 
Q 925 800 850 712 
Q 775 625 775 525 
Q 775 325 1012 225 
Q 1250 125 1525 125 
Q 1925 125 2137 450 
Q 2350 775 2350 1375 
Q 2350 1875 2162 2187 
Q 1975 2500 1600 2500 
Q 1325 2500 1125 2400 
Q 925 2300 750 1975 
L 525 2000 
L 650 4275 
L 2700 4275 
L 2625 3900 
L 825 3900 
L 725 2250 
Q 975 2600 1212 2675 
Q 1450 2750 1700 2750 
z
" transform="scale(0.015625)"/>
      <path id="FangSong-72" d="M 1250 2025 
Q 1500 2425 1787 2637 
Q 2075 2850 2375 2850 
Q 2625 2850 2762 2737 
Q 2900 2625 2900 2475 
Q 2900 2350 2837 2275 
Q 2775 2200 2650 2200 
Q 2525 2200 2462 2275 
Q 2400 2350 2425 2475 
Q 2425 2550 2400 2600 
Q 2375 2650 2250 2650 
Q 2050 2650 1762 2400 
Q 1475 2150 1250 1700 
L 1250 350 
Q 1250 250 1312 200 
Q 1375 150 1475 150 
L 2025 150 
L 2025 0 
L 175 0 
L 175 150 
L 675 150 
Q 800 150 850 200 
Q 900 250 900 350 
L 900 2425 
Q 900 2525 850 2587 
Q 800 2650 675 2650 
L 200 2650 
L 200 2800 
L 400 2800 
Q 575 2800 812 2837 
Q 1050 2875 1175 2925 
L 1250 2925 
L 1250 2025 
z
" transform="scale(0.015625)"/>
      <path id="FangSong-73" d="M 600 2075 
Q 600 2450 887 2650 
Q 1175 2850 1575 2850 
Q 1800 2850 2000 2787 
Q 2200 2725 2275 2725 
Q 2350 2725 2400 2750 
Q 2450 2775 2525 2850 
L 2625 2025 
L 2475 2000 
Q 2375 2325 2137 2512 
Q 1900 2700 1600 2700 
Q 1275 2700 1087 2575 
Q 900 2450 900 2225 
Q 900 2025 987 1912 
Q 1075 1800 1300 1750 
Q 1475 1675 1737 1587 
Q 2000 1500 2225 1400 
Q 2425 1300 2562 1137 
Q 2700 975 2700 775 
Q 2700 400 2437 187 
Q 2175 -25 1675 -25 
Q 1350 -25 1187 37 
Q 1025 100 925 100 
Q 850 100 762 62 
Q 675 25 575 -25 
L 500 900 
L 650 925 
Q 725 525 975 325 
Q 1225 125 1675 125 
Q 2025 125 2212 250 
Q 2400 375 2400 625 
Q 2400 800 2300 912 
Q 2200 1025 2100 1075 
Q 1850 1175 1550 1287 
Q 1250 1400 1025 1500 
Q 800 1600 700 1750 
Q 600 1900 600 2075 
z
" transform="scale(0.015625)"/>
      <path id="FangSong-71" d="M 2250 2150 
Q 2150 2375 1975 2512 
Q 1800 2650 1550 2650 
Q 1200 2650 950 2350 
Q 700 2050 700 1325 
Q 700 700 912 437 
Q 1125 175 1450 175 
Q 1725 175 1937 300 
Q 2150 425 2250 725 
L 2250 2150 
z
M 2600 -550 
Q 2600 -675 2662 -725 
Q 2725 -775 2825 -775 
L 2975 -775 
L 2975 -925 
L 1825 -925 
L 1825 -775 
L 2025 -775 
Q 2150 -775 2200 -725 
Q 2250 -675 2250 -550 
L 2250 375 
Q 2100 175 1887 75 
Q 1675 -25 1375 -25 
Q 950 -25 625 337 
Q 300 700 300 1400 
Q 300 2075 675 2450 
Q 1050 2825 1475 2825 
Q 1750 2825 1937 2725 
Q 2125 2625 2275 2475 
L 2500 2800 
L 2600 2800 
L 2600 -550 
z
" transform="scale(0.015625)"/>
      <path id="FangSong-7a" d="M 2725 975 
L 2550 0 
L 400 0 
L 400 125 
L 2125 2650 
L 1200 2650 
Q 975 2650 825 2487 
Q 675 2325 575 1925 
L 425 1950 
L 525 2800 
L 2575 2800 
L 2575 2725 
L 825 150 
L 1775 150 
Q 2100 150 2287 350 
Q 2475 550 2575 1000 
L 2725 975 
z
" transform="scale(0.015625)"/>
      <path id="FangSong-76" d="M 1600 -25 
L 1450 -25 
L 600 2425 
Q 575 2525 500 2587 
Q 425 2650 325 2650 
L 200 2650 
L 200 2800 
L 1275 2800 
L 1275 2650 
L 1175 2650 
Q 1025 2650 987 2575 
Q 950 2500 1000 2325 
L 1600 575 
L 1650 575 
L 2250 2300 
Q 2325 2475 2262 2562 
Q 2200 2650 2050 2650 
L 2000 2650 
L 2000 2800 
L 2900 2800 
L 2900 2650 
L 2850 2650 
Q 2700 2650 2612 2562 
Q 2525 2475 2450 2300 
L 1600 -25 
z
" transform="scale(0.015625)"/>
      <path id="FangSong-37" d="M 2800 4100 
Q 2275 3250 1962 2437 
Q 1650 1625 1650 1025 
Q 1650 925 1662 737 
Q 1675 550 1675 300 
Q 1675 100 1612 25 
Q 1550 -50 1400 -50 
Q 1275 -50 1187 37 
Q 1100 125 1100 350 
Q 1100 825 1312 1525 
Q 1525 2225 2450 3900 
L 1200 3900 
Q 925 3900 762 3725 
Q 600 3550 525 3200 
L 375 3225 
L 550 4275 
L 2800 4275 
L 2800 4100 
z
" transform="scale(0.015625)"/>
      <path id="FangSong-39" d="M 675 2950 
Q 675 2400 887 2112 
Q 1100 1825 1425 1825 
Q 1800 1825 2075 2175 
Q 2350 2525 2350 2825 
Q 2350 3425 2150 3787 
Q 1950 4150 1500 4150 
Q 1075 4150 875 3812 
Q 675 3475 675 2950 
z
M 1350 1600 
Q 850 1600 550 1912 
Q 250 2225 250 2925 
Q 250 3525 575 3925 
Q 900 4325 1500 4325 
Q 2125 4325 2475 3825 
Q 2825 3325 2825 2375 
Q 2825 1325 2412 637 
Q 2000 -50 1275 -50 
Q 950 -50 712 100 
Q 475 250 475 500 
Q 475 600 537 700 
Q 600 800 750 800 
Q 900 800 950 687 
Q 1000 575 1000 425 
Q 1000 325 1025 262 
Q 1050 200 1075 175 
Q 1100 150 1162 137 
Q 1225 125 1300 125 
Q 1750 125 2025 625 
Q 2300 1125 2350 2300 
Q 2225 2000 1975 1800 
Q 1725 1600 1350 1600 
z
" transform="scale(0.015625)"/>
     </defs>
     <use xlink:href="#FangSong-63"/>
     <use xlink:href="#FangSong-6f" x="50"/>
     <use xlink:href="#FangSong-75" x="100"/>
     <use xlink:href="#FangSong-6e" x="150"/>
     <use xlink:href="#FangSong-74" x="200"/>
     <use xlink:href="#FangSong-3d" x="250"/>
     <use xlink:href="#FangSong-31" x="300"/>
     <use xlink:href="#FangSong-30" x="350"/>
     <use xlink:href="#FangSong-30" x="400"/>
     <use xlink:href="#FangSong-30" x="450"/>
     <use xlink:href="#FangSong-2c" x="500"/>
     <use xlink:href="#FangSong-20" x="550"/>
     <use xlink:href="#FangSong-67" x="600"/>
     <use xlink:href="#FangSong-6f" x="650"/>
     <use xlink:href="#FangSong-6f" x="700"/>
     <use xlink:href="#FangSong-67" x="750"/>
     <use xlink:href="#FangSong-6c" x="800"/>
     <use xlink:href="#FangSong-65" x="850"/>
     <use xlink:href="#FangSong-6e" x="900"/>
     <use xlink:href="#FangSong-65" x="950"/>
     <use xlink:href="#FangSong-74" x="1000"/>
     <use xlink:href="#FangSong-3d" x="1050"/>
     <use xlink:href="#FangSong-31" x="1100"/>
     <use xlink:href="#FangSong-32" x="1150"/>
     <use xlink:href="#FangSong-35" x="1200"/>
     <use xlink:href="#FangSong-2c" x="1250"/>
     <use xlink:href="#FangSong-20" x="1300"/>
     <use xlink:href="#FangSong-72" x="1350"/>
     <use xlink:href="#FangSong-65" x="1400"/>
     <use xlink:href="#FangSong-73" x="1450"/>
     <use xlink:href="#FangSong-6e" x="1500"/>
     <use xlink:href="#FangSong-65" x="1550"/>
     <use xlink:href="#FangSong-74" x="1600"/>
     <use xlink:href="#FangSong-35" x="1650"/>
     <use xlink:href="#FangSong-30" x="1700"/>
     <use xlink:href="#FangSong-3d" x="1750"/>
     <use xlink:href="#FangSong-31" x="1800"/>
     <use xlink:href="#FangSong-32" x="1850"/>
     <use xlink:href="#FangSong-35" x="1900"/>
     <use xlink:href="#FangSong-2c" x="1950"/>
     <use xlink:href="#FangSong-20" x="2000"/>
     <use xlink:href="#FangSong-73" x="2050"/>
     <use xlink:href="#FangSong-71" x="2100"/>
     <use xlink:href="#FangSong-75" x="2150"/>
     <use xlink:href="#FangSong-65" x="2200"/>
     <use xlink:href="#FangSong-65" x="2250"/>
     <use xlink:href="#FangSong-7a" x="2300"/>
     <use xlink:href="#FangSong-65" x="2350"/>
     <use xlink:href="#FangSong-6e" x="2400"/>
     <use xlink:href="#FangSong-65" x="2450"/>
     <use xlink:href="#FangSong-74" x="2500"/>
     <use xlink:href="#FangSong-76" x="2550"/>
     <use xlink:href="#FangSong-31" x="2600"/>
     <use xlink:href="#FangSong-3d" x="2650"/>
     <use xlink:href="#FangSong-37" x="2700"/>
     <use xlink:href="#FangSong-35" x="2750"/>
     <use xlink:href="#FangSong-2c" x="2800"/>
     <use xlink:href="#FangSong-20" x="2850"/>
     <use xlink:href="#FangSong-76" x="2900"/>
     <use xlink:href="#FangSong-67" x="2950"/>
     <use xlink:href="#FangSong-67" x="3000"/>
     <use xlink:href="#FangSong-31" x="3050"/>
     <use xlink:href="#FangSong-39" x="3100"/>
     <use xlink:href="#FangSong-3d" x="3150"/>
     <use xlink:href="#FangSong-37" x="3200"/>
     <use xlink:href="#FangSong-35" x="3250"/>
    </g>
   </g>
   <g id="legend_1">
    <g id="patch_7">
     <path d="M 315.72 302.584 
L 407.72 302.584 
Q 409.72 302.584 409.72 300.584 
L 409.72 234.279312 
Q 409.72 232.279312 407.72 232.279312 
L 315.72 232.279312 
Q 313.72 232.279312 313.72 234.279312 
L 313.72 300.584 
Q 313.72 302.584 315.72 302.584 
z
" style="fill: #ffffff; opacity: 0.8; stroke: #cccccc; stroke-linejoin: miter"/>
    </g>
    <g id="line2d_17">
     <path d="M 317.72 239.779312 
L 327.72 239.779312 
L 337.72 239.779312 
" style="fill: none; stroke: #ff0000; stroke-linecap: square"/>
    </g>
    <g id="text_15">
     <!-- total -->
     <g transform="translate(345.72 243.279312)scale(0.1 -0.1)">
      <defs>
       <path id="FangSong-61" d="M 1200 -25 
Q 750 -25 500 187 
Q 250 400 250 675 
Q 250 1125 637 1412 
Q 1025 1700 2175 1825 
L 2175 2125 
Q 2175 2375 2062 2537 
Q 1950 2700 1550 2700 
Q 1125 2700 950 2562 
Q 775 2425 825 2275 
Q 875 2175 825 2075 
Q 775 1975 625 1975 
Q 525 1975 462 2037 
Q 400 2100 400 2225 
Q 400 2450 725 2650 
Q 1050 2850 1525 2850 
Q 2025 2850 2275 2662 
Q 2525 2475 2525 2125 
L 2525 475 
Q 2525 275 2562 237 
Q 2600 200 2700 200 
Q 2825 200 2875 312 
Q 2925 425 2925 625 
L 3050 625 
Q 3050 275 2925 137 
Q 2800 0 2600 0 
Q 2425 0 2325 75 
Q 2225 150 2175 325 
Q 1925 150 1712 62 
Q 1500 -25 1200 -25 
z
M 675 750 
Q 675 525 812 337 
Q 950 150 1250 150 
Q 1475 150 1700 237 
Q 1925 325 2175 500 
L 2175 1675 
Q 1325 1575 1000 1337 
Q 675 1100 675 750 
z
" transform="scale(0.015625)"/>
      </defs>
      <use xlink:href="#FangSong-74"/>
      <use xlink:href="#FangSong-6f" x="50"/>
      <use xlink:href="#FangSong-74" x="100"/>
      <use xlink:href="#FangSong-61" x="150"/>
      <use xlink:href="#FangSong-6c" x="200"/>
     </g>
    </g>
    <g id="line2d_18">
     <path d="M 317.72 253.224625 
L 327.72 253.224625 
L 337.72 253.224625 
" style="fill: none; stroke-dasharray: 1.85,0.8; stroke-dashoffset: 0; stroke: #008000; stroke-width: 0.5"/>
    </g>
    <g id="text_16">
     <!-- googlenet -->
     <g transform="translate(345.72 256.724625)scale(0.1 -0.1)">
      <use xlink:href="#FangSong-67"/>
      <use xlink:href="#FangSong-6f" x="50"/>
      <use xlink:href="#FangSong-6f" x="100"/>
      <use xlink:href="#FangSong-67" x="150"/>
      <use xlink:href="#FangSong-6c" x="200"/>
      <use xlink:href="#FangSong-65" x="250"/>
      <use xlink:href="#FangSong-6e" x="300"/>
      <use xlink:href="#FangSong-65" x="350"/>
      <use xlink:href="#FangSong-74" x="400"/>
     </g>
    </g>
    <g id="line2d_19">
     <path d="M 317.72 266.709 
L 327.72 266.709 
L 337.72 266.709 
" style="fill: none; stroke-dasharray: 1.85,0.8; stroke-dashoffset: 0; stroke: #0000ff; stroke-width: 0.5"/>
    </g>
    <g id="text_17">
     <!-- squeezenetv1 -->
     <g transform="translate(345.72 270.209)scale(0.1 -0.1)">
      <use xlink:href="#FangSong-73"/>
      <use xlink:href="#FangSong-71" x="50"/>
      <use xlink:href="#FangSong-75" x="100"/>
      <use xlink:href="#FangSong-65" x="150"/>
      <use xlink:href="#FangSong-65" x="200"/>
      <use xlink:href="#FangSong-7a" x="250"/>
      <use xlink:href="#FangSong-65" x="300"/>
      <use xlink:href="#FangSong-6e" x="350"/>
      <use xlink:href="#FangSong-65" x="400"/>
      <use xlink:href="#FangSong-74" x="450"/>
      <use xlink:href="#FangSong-76" x="500"/>
      <use xlink:href="#FangSong-31" x="550"/>
     </g>
    </g>
    <g id="line2d_20">
     <path d="M 317.72 280.154312 
L 327.72 280.154312 
L 337.72 280.154312 
" style="fill: none; stroke-dasharray: 1.85,0.8; stroke-dashoffset: 0; stroke: #bf00bf; stroke-width: 0.5"/>
    </g>
    <g id="text_18">
     <!-- vgg19 -->
     <g transform="translate(345.72 283.654312)scale(0.1 -0.1)">
      <use xlink:href="#FangSong-76"/>
      <use xlink:href="#FangSong-67" x="50"/>
      <use xlink:href="#FangSong-67" x="100"/>
      <use xlink:href="#FangSong-31" x="150"/>
      <use xlink:href="#FangSong-39" x="200"/>
     </g>
    </g>
    <g id="line2d_21">
     <path d="M 317.72 293.638687 
L 327.72 293.638687 
L 337.72 293.638687 
" style="fill: none; stroke-dasharray: 1.85,0.8; stroke-dashoffset: 0; stroke: #bfbf00; stroke-width: 0.5"/>
    </g>
    <g id="text_19">
     <!-- resnet50 -->
     <g transform="translate(345.72 297.138687)scale(0.1 -0.1)">
      <use xlink:href="#FangSong-72"/>
      <use xlink:href="#FangSong-65" x="50"/>
      <use xlink:href="#FangSong-73" x="100"/>
      <use xlink:href="#FangSong-6e" x="150"/>
      <use xlink:href="#FangSong-65" x="200"/>
      <use xlink:href="#FangSong-74" x="250"/>
      <use xlink:href="#FangSong-35" x="300"/>
      <use xlink:href="#FangSong-30" x="350"/>
     </g>
    </g>
   </g>
  </g>
 </g>
 <defs>
  <clipPath id="p7ae816e87e">
   <rect x="57.6" y="41.472" width="357.12" height="266.112"/>
  </clipPath>
 </defs>
</svg>
