<?xml version="1.0" encoding="utf-8" standalone="no"?>
<!DOCTYPE svg PUBLIC "-//W3C//DTD SVG 1.1//EN"
  "http://www.w3.org/Graphics/SVG/1.1/DTD/svg11.dtd">
<svg xmlns:xlink="http://www.w3.org/1999/xlink" width="460.8pt" height="345.6pt" viewBox="0 0 460.8 345.6" xmlns="http://www.w3.org/2000/svg" version="1.1">
 <metadata>
  <rdf:RDF xmlns:dc="http://purl.org/dc/elements/1.1/" xmlns:cc="http://creativecommons.org/ns#" xmlns:rdf="http://www.w3.org/1999/02/22-rdf-syntax-ns#">
   <cc:Work>
    <dc:type rdf:resource="http://purl.org/dc/dcmitype/StillImage"/>
    <dc:date>2022-11-17T04:01:27.908096</dc:date>
    <dc:format>image/svg+xml</dc:format>
    <dc:creator>
     <cc:Agent>
      <dc:title>Matplotlib v3.5.2, https://matplotlib.org/</dc:title>
     </cc:Agent>
    </dc:creator>
   </cc:Work>
  </rdf:RDF>
 </metadata>
 <defs>
  <style type="text/css">*{stroke-linejoin: round; stroke-linecap: butt}</style>
 </defs>
 <g id="figure_1">
  <g id="patch_1">
   <path d="M 0 345.6 
L 460.8 345.6 
L 460.8 0 
L 0 0 
z
" style="fill: #ffffff"/>
  </g>
  <g id="axes_1">
   <g id="patch_2">
    <path d="M 57.6 307.584 
L 414.72 307.584 
L 414.72 41.472 
L 57.6 41.472 
z
" style="fill: #ffffff"/>
   </g>
   <g id="matplotlib.axis_1">
    <g id="xtick_1">
     <g id="line2d_1">
      <defs>
       <path id="m16768b8453" d="M 0 0 
L 0 3.5 
" style="stroke: #000000; stroke-width: 0.8"/>
      </defs>
      <g>
       <use xlink:href="#m16768b8453" x="71.762226" y="307.584" style="stroke: #000000; stroke-width: 0.8"/>
      </g>
     </g>
     <g id="text_1">
      <!-- 0 -->
      <g transform="translate(69.262226 321.576187)scale(0.1 -0.1)">
       <defs>
        <path id="FangSong-30" d="M 1575 4125 
Q 1225 4125 987 3587 
Q 750 3050 750 2150 
Q 750 1200 987 675 
Q 1225 150 1575 150 
Q 1950 150 2162 675 
Q 2375 1200 2375 2150 
Q 2375 3050 2175 3587 
Q 1975 4125 1575 4125 
z
M 1575 -50 
Q 1025 -50 650 525 
Q 275 1100 275 2150 
Q 275 3125 637 3725 
Q 1000 4325 1575 4325 
Q 2125 4325 2487 3750 
Q 2850 3175 2850 2150 
Q 2850 1125 2487 537 
Q 2125 -50 1575 -50 
z
" transform="scale(0.015625)"/>
       </defs>
       <use xlink:href="#FangSong-30"/>
      </g>
     </g>
    </g>
    <g id="xtick_2">
     <g id="line2d_2">
      <g>
       <use xlink:href="#m16768b8453" x="113.172245" y="307.584" style="stroke: #000000; stroke-width: 0.8"/>
      </g>
     </g>
     <g id="text_2">
      <!-- 20 -->
      <g transform="translate(108.172245 321.576187)scale(0.1 -0.1)">
       <defs>
        <path id="FangSong-32" d="M 2300 3225 
Q 2300 3675 2100 3912 
Q 1900 4150 1500 4150 
Q 1200 4150 987 3987 
Q 775 3825 775 3575 
Q 775 3425 862 3325 
Q 950 3225 950 3125 
Q 950 3000 887 2937 
Q 825 2875 700 2875 
Q 550 2875 462 2962 
Q 375 3050 375 3250 
Q 375 3775 750 4050 
Q 1125 4325 1550 4325 
Q 2150 4325 2437 4025 
Q 2725 3725 2725 3275 
Q 2725 2975 2587 2675 
Q 2450 2375 2150 2100 
Q 1425 1400 1037 962 
Q 650 525 575 375 
L 2050 375 
Q 2275 375 2425 550 
Q 2575 725 2625 1075 
L 2775 1075 
L 2625 0 
L 300 0 
L 300 325 
Q 425 550 712 900 
Q 1000 1250 1475 1725 
Q 1900 2150 2100 2525 
Q 2300 2900 2300 3225 
z
" transform="scale(0.015625)"/>
       </defs>
       <use xlink:href="#FangSong-32"/>
       <use xlink:href="#FangSong-30" x="50"/>
      </g>
     </g>
    </g>
    <g id="xtick_3">
     <g id="line2d_3">
      <g>
       <use xlink:href="#m16768b8453" x="154.582263" y="307.584" style="stroke: #000000; stroke-width: 0.8"/>
      </g>
     </g>
     <g id="text_3">
      <!-- 40 -->
      <g transform="translate(149.582263 321.576187)scale(0.1 -0.1)">
       <defs>
        <path id="FangSong-34" d="M 2275 475 
Q 2275 300 2375 225 
Q 2475 150 2650 150 
L 2875 150 
L 2875 0 
L 1225 0 
L 1225 150 
L 1500 150 
Q 1700 150 1787 225 
Q 1875 300 1875 475 
L 1875 1300 
L 200 1300 
L 200 1425 
L 2025 4325 
L 2275 4325 
L 2275 1450 
L 2950 1450 
L 2950 1300 
L 2275 1300 
L 2275 475 
z
M 1850 3700 
L 425 1450 
L 1875 1450 
L 1875 3700 
L 1850 3700 
z
" transform="scale(0.015625)"/>
       </defs>
       <use xlink:href="#FangSong-34"/>
       <use xlink:href="#FangSong-30" x="50"/>
      </g>
     </g>
    </g>
    <g id="xtick_4">
     <g id="line2d_4">
      <g>
       <use xlink:href="#m16768b8453" x="195.992282" y="307.584" style="stroke: #000000; stroke-width: 0.8"/>
      </g>
     </g>
     <g id="text_4">
      <!-- 60 -->
      <g transform="translate(190.992282 321.576187)scale(0.1 -0.1)">
       <defs>
        <path id="FangSong-36" d="M 750 1700 
Q 750 950 1012 537 
Q 1275 125 1650 125 
Q 2025 125 2225 400 
Q 2425 675 2425 1425 
Q 2425 1925 2212 2200 
Q 2000 2475 1700 2475 
Q 1425 2475 1187 2312 
Q 950 2150 750 1700 
z
M 1725 2725 
Q 2325 2725 2587 2325 
Q 2850 1925 2850 1425 
Q 2850 675 2487 312 
Q 2125 -50 1650 -50 
Q 975 -50 625 462 
Q 275 975 275 1950 
Q 275 3100 700 3712 
Q 1125 4325 1850 4325 
Q 2200 4325 2412 4125 
Q 2625 3925 2625 3775 
Q 2625 3625 2562 3550 
Q 2500 3475 2350 3475 
Q 2225 3475 2162 3537 
Q 2100 3600 2100 3725 
Q 2100 3775 2112 3825 
Q 2125 3875 2125 3925 
Q 2125 4025 2050 4087 
Q 1975 4150 1775 4150 
Q 1350 4150 1050 3762 
Q 750 3375 750 2075 
Q 900 2400 1162 2562 
Q 1425 2725 1725 2725 
z
" transform="scale(0.015625)"/>
       </defs>
       <use xlink:href="#FangSong-36"/>
       <use xlink:href="#FangSong-30" x="50"/>
      </g>
     </g>
    </g>
    <g id="xtick_5">
     <g id="line2d_5">
      <g>
       <use xlink:href="#m16768b8453" x="237.402301" y="307.584" style="stroke: #000000; stroke-width: 0.8"/>
      </g>
     </g>
     <g id="text_5">
      <!-- 80 -->
      <g transform="translate(232.402301 321.576187)scale(0.1 -0.1)">
       <defs>
        <path id="FangSong-38" d="M 600 1025 
Q 600 625 862 375 
Q 1125 125 1525 125 
Q 2000 125 2212 375 
Q 2425 625 2425 1000 
Q 2425 1325 2125 1625 
Q 1825 1925 1225 2175 
Q 925 1975 762 1675 
Q 600 1375 600 1025 
z
M 2800 1075 
Q 2800 600 2450 275 
Q 2100 -50 1525 -50 
Q 1000 -50 625 275 
Q 250 600 250 1025 
Q 250 1450 462 1750 
Q 675 2050 1075 2275 
Q 725 2450 537 2712 
Q 350 2975 350 3300 
Q 350 3725 675 4025 
Q 1000 4325 1575 4325 
Q 2100 4325 2425 4025 
Q 2750 3725 2750 3300 
Q 2750 3000 2562 2737 
Q 2375 2475 1975 2275 
Q 2400 2025 2600 1725 
Q 2800 1425 2800 1075 
z
M 2400 3275 
Q 2400 3625 2200 3887 
Q 2000 4150 1575 4150 
Q 1100 4150 900 3900 
Q 700 3650 700 3375 
Q 700 3100 987 2837 
Q 1275 2575 1800 2375 
Q 2100 2525 2250 2750 
Q 2400 2975 2400 3275 
z
" transform="scale(0.015625)"/>
       </defs>
       <use xlink:href="#FangSong-38"/>
       <use xlink:href="#FangSong-30" x="50"/>
      </g>
     </g>
    </g>
    <g id="xtick_6">
     <g id="line2d_6">
      <g>
       <use xlink:href="#m16768b8453" x="278.812319" y="307.584" style="stroke: #000000; stroke-width: 0.8"/>
      </g>
     </g>
     <g id="text_6">
      <!-- 100 -->
      <g transform="translate(271.312319 321.576187)scale(0.1 -0.1)">
       <defs>
        <path id="FangSong-31" d="M 1800 4350 
L 1800 550 
Q 1800 350 1925 250 
Q 2050 150 2275 150 
L 2525 150 
L 2525 0 
L 700 0 
L 700 150 
L 925 150 
Q 1175 150 1287 250 
Q 1400 350 1400 550 
L 1400 3575 
Q 1400 3675 1337 3737 
Q 1275 3800 1150 3800 
L 700 3800 
L 700 3950 
L 925 3950 
Q 1225 3950 1412 4050 
Q 1600 4150 1700 4350 
L 1800 4350 
z
" transform="scale(0.015625)"/>
       </defs>
       <use xlink:href="#FangSong-31"/>
       <use xlink:href="#FangSong-30" x="50"/>
       <use xlink:href="#FangSong-30" x="100"/>
      </g>
     </g>
    </g>
    <g id="xtick_7">
     <g id="line2d_7">
      <g>
       <use xlink:href="#m16768b8453" x="320.222338" y="307.584" style="stroke: #000000; stroke-width: 0.8"/>
      </g>
     </g>
     <g id="text_7">
      <!-- 120 -->
      <g transform="translate(312.722338 321.576187)scale(0.1 -0.1)">
       <use xlink:href="#FangSong-31"/>
       <use xlink:href="#FangSong-32" x="50"/>
       <use xlink:href="#FangSong-30" x="100"/>
      </g>
     </g>
    </g>
    <g id="xtick_8">
     <g id="line2d_8">
      <g>
       <use xlink:href="#m16768b8453" x="361.632356" y="307.584" style="stroke: #000000; stroke-width: 0.8"/>
      </g>
     </g>
     <g id="text_8">
      <!-- 140 -->
      <g transform="translate(354.132356 321.576187)scale(0.1 -0.1)">
       <use xlink:href="#FangSong-31"/>
       <use xlink:href="#FangSong-34" x="50"/>
       <use xlink:href="#FangSong-30" x="100"/>
      </g>
     </g>
    </g>
    <g id="xtick_9">
     <g id="line2d_9">
      <g>
       <use xlink:href="#m16768b8453" x="403.042375" y="307.584" style="stroke: #000000; stroke-width: 0.8"/>
      </g>
     </g>
     <g id="text_9">
      <!-- 160 -->
      <g transform="translate(395.542375 321.576187)scale(0.1 -0.1)">
       <use xlink:href="#FangSong-31"/>
       <use xlink:href="#FangSong-36" x="50"/>
       <use xlink:href="#FangSong-30" x="100"/>
      </g>
     </g>
    </g>
    <g id="text_10">
     <!-- 响应比 -->
     <g transform="translate(221.16 334.873062)scale(0.1 -0.1)">
      <defs>
       <path id="FangSong-54cd" d="M 2700 -200 
Q 2725 -650 2625 -525 
L 2375 -125 
Q 2500 50 2475 350 
L 2500 3200 
Q 2500 3625 2425 4100 
L 2500 4125 
L 2725 3575 
L 3300 3625 
Q 3550 4225 3675 4637 
Q 3800 5050 3700 5150 
L 3775 5200 
L 4125 4750 
Q 4050 4800 3900 4512 
Q 3750 4225 3500 3650 
L 5275 3850 
L 5425 4125 
L 5725 3850 
L 5575 3650 
Q 5500 -175 5175 -675 
Q 4800 -275 4175 250 
L 4225 350 
L 5050 -175 
Q 5275 525 5325 3625 
L 2725 3325 
L 2700 -200 
z
M 725 3250 
Q 725 3575 625 3925 
L 725 3975 
L 950 3525 
L 1750 3650 
L 1875 3875 
L 2175 3650 
L 2000 3450 
L 1925 2175 
L 2125 1950 
L 1000 1800 
Q 1025 1275 900 1350 
L 650 1750 
Q 775 1850 750 2150 
L 725 3250 
z
M 3550 1250 
Q 3575 950 3500 875 
L 3225 1200 
Q 3300 1350 3300 1525 
L 3275 2325 
Q 3275 2700 3200 2875 
L 3275 2925 
L 3500 2625 
L 4350 2725 
L 4500 2925 
L 4775 2675 
L 4600 2475 
L 4525 1575 
L 4750 1400 
L 3550 1250 
z
M 975 3275 
L 1000 2050 
L 1675 2150 
L 1775 3425 
L 975 3275 
z
M 4350 2475 
L 3500 2375 
L 3525 1500 
L 4275 1575 
L 4350 2475 
z
" transform="scale(0.015625)"/>
       <path id="FangSong-5e94" d="M 1625 4400 
L 1800 3800 
Q 5075 4050 5200 4175 
L 5525 3850 
Q 5200 3900 1825 3550 
Q 1775 2450 1675 1825 
Q 1575 1200 1312 612 
Q 1050 25 500 -600 
L 425 -525 
Q 850 50 1100 675 
Q 1350 1300 1425 1862 
Q 1500 2425 1550 3150 
Q 1600 3875 1550 4375 
L 1625 4400 
z
M 4725 3175 
L 5100 2725 
Q 5000 2800 4750 2112 
Q 4500 1425 4000 150 
Q 5425 225 5400 275 
L 5725 0 
Q 5425 0 3687 -112 
Q 1950 -225 1725 -275 
L 1350 25 
Q 2150 0 3800 125 
Q 4300 1500 4525 2200 
Q 4750 2900 4650 3125 
L 4725 3175 
z
M 2900 1150 
Q 2800 975 2650 725 
Q 2450 1625 2175 2550 
L 2275 2575 
Q 2600 1850 2900 1150 
z
M 3775 1550 
Q 3675 1350 3525 1150 
Q 3475 1600 3075 3050 
L 3150 3075 
Q 3475 2300 3775 1550 
z
M 3500 4100 
Q 3275 4675 3000 5225 
L 3075 5275 
Q 3375 4900 3700 4525 
Q 3600 4325 3500 4100 
z
" transform="scale(0.015625)"/>
       <path id="FangSong-6bd4" d="M 3500 2125 
Q 3925 2425 4487 2975 
Q 5050 3525 4950 3750 
L 5025 3775 
L 5250 3225 
Q 5175 3250 4875 3000 
Q 4575 2750 4287 2525 
Q 4000 2300 3500 1900 
L 3500 575 
Q 3475 -100 4150 -100 
L 4800 -100 
Q 5275 -100 5375 12 
Q 5475 125 5450 1350 
L 5575 1350 
Q 5600 825 5637 412 
Q 5675 0 5800 -175 
Q 5375 -325 4800 -325 
L 4150 -325 
Q 3225 -350 3275 550 
L 3275 4300 
Q 3275 4875 3150 5150 
L 3200 5200 
L 3625 4850 
Q 3475 4825 3500 4250 
L 3500 2125 
z
M 1500 2575 
Q 1900 2625 2337 2712 
Q 2775 2800 2800 2850 
L 3075 2600 
Q 2875 2575 2350 2475 
Q 1825 2375 1775 2325 
L 1500 2525 
L 1500 150 
L 2925 1075 
L 2975 1025 
Q 1550 -75 1375 -350 
L 1200 0 
Q 1275 75 1275 350 
L 1275 3925 
Q 1275 4475 1150 4750 
L 1200 4800 
L 1625 4400 
Q 1475 4375 1500 3925 
L 1500 2575 
z
" transform="scale(0.015625)"/>
      </defs>
      <use xlink:href="#FangSong-54cd"/>
      <use xlink:href="#FangSong-5e94" x="100"/>
      <use xlink:href="#FangSong-6bd4" x="200"/>
     </g>
    </g>
   </g>
   <g id="matplotlib.axis_2">
    <g id="ytick_1">
     <g id="line2d_10">
      <defs>
       <path id="m37b06835ec" d="M 0 0 
L -3.5 0 
" style="stroke: #000000; stroke-width: 0.8"/>
      </defs>
      <g>
       <use xlink:href="#m37b06835ec" x="57.6" y="295.488" style="stroke: #000000; stroke-width: 0.8"/>
      </g>
     </g>
     <g id="text_11">
      <!-- 0% -->
      <g transform="translate(40.6 298.984094)scale(0.1 -0.1)">
       <defs>
        <path id="FangSong-25" d="M 725 4150 
Q 575 4150 475 3950 
Q 375 3750 375 3200 
Q 375 2575 487 2387 
Q 600 2200 725 2200 
Q 900 2200 987 2425 
Q 1075 2650 1075 3200 
Q 1075 3650 1012 3900 
Q 950 4150 725 4150 
z
M 1400 3175 
Q 1400 2725 1250 2387 
Q 1100 2050 725 2050 
Q 425 2050 237 2350 
Q 50 2650 50 3175 
Q 50 3725 250 4025 
Q 450 4325 725 4325 
Q 1025 4325 1212 4012 
Q 1400 3700 1400 3175 
z
M 2700 1100 
Q 2700 1525 2625 1800 
Q 2550 2075 2350 2075 
Q 2200 2075 2100 1837 
Q 2000 1600 2000 1100 
Q 2000 475 2112 300 
Q 2225 125 2350 125 
Q 2525 125 2612 337 
Q 2700 550 2700 1100 
z
M 3025 1075 
Q 3025 575 2850 262 
Q 2675 -50 2350 -50 
Q 2075 -50 1875 262 
Q 1675 575 1675 1075 
Q 1675 1625 1875 1937 
Q 2075 2250 2350 2250 
Q 2650 2250 2837 1925 
Q 3025 1600 3025 1075 
z
M 2500 4250 
L 700 -50 
L 550 25 
L 2325 4325 
L 2500 4250 
z
" transform="scale(0.015625)"/>
       </defs>
       <use xlink:href="#FangSong-30"/>
       <use xlink:href="#FangSong-25" x="50"/>
      </g>
     </g>
    </g>
    <g id="ytick_2">
     <g id="line2d_11">
      <g>
       <use xlink:href="#m37b06835ec" x="57.6" y="247.104" style="stroke: #000000; stroke-width: 0.8"/>
      </g>
     </g>
     <g id="text_12">
      <!-- 20% -->
      <g transform="translate(35.6 250.600094)scale(0.1 -0.1)">
       <use xlink:href="#FangSong-32"/>
       <use xlink:href="#FangSong-30" x="50"/>
       <use xlink:href="#FangSong-25" x="100"/>
      </g>
     </g>
    </g>
    <g id="ytick_3">
     <g id="line2d_12">
      <g>
       <use xlink:href="#m37b06835ec" x="57.6" y="198.72" style="stroke: #000000; stroke-width: 0.8"/>
      </g>
     </g>
     <g id="text_13">
      <!-- 40% -->
      <g transform="translate(35.6 202.216094)scale(0.1 -0.1)">
       <use xlink:href="#FangSong-34"/>
       <use xlink:href="#FangSong-30" x="50"/>
       <use xlink:href="#FangSong-25" x="100"/>
      </g>
     </g>
    </g>
    <g id="ytick_4">
     <g id="line2d_13">
      <g>
       <use xlink:href="#m37b06835ec" x="57.6" y="150.336" style="stroke: #000000; stroke-width: 0.8"/>
      </g>
     </g>
     <g id="text_14">
      <!-- 60% -->
      <g transform="translate(35.6 153.832094)scale(0.1 -0.1)">
       <use xlink:href="#FangSong-36"/>
       <use xlink:href="#FangSong-30" x="50"/>
       <use xlink:href="#FangSong-25" x="100"/>
      </g>
     </g>
    </g>
    <g id="ytick_5">
     <g id="line2d_14">
      <g>
       <use xlink:href="#m37b06835ec" x="57.6" y="101.952" style="stroke: #000000; stroke-width: 0.8"/>
      </g>
     </g>
     <g id="text_15">
      <!-- 80% -->
      <g transform="translate(35.6 105.448094)scale(0.1 -0.1)">
       <use xlink:href="#FangSong-38"/>
       <use xlink:href="#FangSong-30" x="50"/>
       <use xlink:href="#FangSong-25" x="100"/>
      </g>
     </g>
    </g>
    <g id="ytick_6">
     <g id="line2d_15">
      <g>
       <use xlink:href="#m37b06835ec" x="57.6" y="53.568" style="stroke: #000000; stroke-width: 0.8"/>
      </g>
     </g>
     <g id="text_16">
      <!-- 100% -->
      <g transform="translate(30.6 57.064094)scale(0.1 -0.1)">
       <use xlink:href="#FangSong-31"/>
       <use xlink:href="#FangSong-30" x="50"/>
       <use xlink:href="#FangSong-30" x="100"/>
       <use xlink:href="#FangSong-25" x="150"/>
      </g>
     </g>
    </g>
    <g id="text_17">
     <!-- 累计完成比例 -->
     <g transform="translate(25.154688 204.528)rotate(-90)scale(0.1 -0.1)">
      <defs>
       <path id="FangSong-7d2f" d="M 4525 4975 
L 4700 5225 
L 5000 4950 
L 4825 4775 
L 4625 3550 
L 4850 3300 
L 3175 3150 
L 3375 2975 
Q 3200 2925 2862 2725 
Q 2525 2525 2075 2275 
L 3475 2500 
Q 3750 2675 3900 2800 
Q 4050 2925 4100 3075 
L 4175 3100 
L 4325 2700 
Q 4200 2675 3500 2237 
Q 2800 1800 2275 1550 
L 4375 1825 
L 3900 2175 
L 4000 2275 
Q 4625 1900 4950 1725 
Q 4975 1475 4925 1225 
Q 4800 1375 4500 1675 
L 3250 1475 
L 3525 1300 
Q 3375 1200 3375 875 
L 3375 25 
Q 3375 -325 3225 -625 
Q 2975 -325 2400 150 
L 2450 250 
L 3050 -75 
Q 3150 -125 3150 0 
L 3150 925 
Q 3150 1300 3125 1450 
Q 1875 1275 1575 1175 
L 1325 1425 
L 1850 1550 
Q 2175 1700 3250 2300 
Q 2075 2100 1875 2000 
L 1575 2250 
L 1800 2300 
Q 2150 2475 3025 3125 
L 2000 3025 
Q 2000 2675 1950 2700 
Q 1900 2725 1650 3025 
Q 1725 3250 1725 3425 
L 1650 4400 
Q 1625 4675 1525 4950 
L 1625 5000 
L 1875 4675 
L 4525 4975 
z
M 3150 3375 
L 3150 3875 
Q 2525 3800 2400 3725 
L 2100 3975 
Q 2500 3975 3150 4075 
L 3150 4600 
L 1900 4450 
L 1975 3250 
L 3150 3375 
z
M 3375 4100 
Q 3950 4175 4025 4225 
L 4275 4000 
Q 3950 3975 3375 3900 
L 3375 3400 
L 4400 3500 
L 4575 4750 
L 3375 4600 
L 3375 4100 
z
M 5450 -75 
Q 4975 325 3875 1025 
L 3950 1125 
Q 4850 700 5350 500 
Q 5425 250 5450 -75 
z
M 800 -250 
Q 1350 75 1825 500 
Q 2300 925 2325 1125 
L 2400 1150 
L 2550 725 
Q 2425 700 2075 425 
Q 1725 150 875 -350 
L 800 -250 
z
" transform="scale(0.015625)"/>
       <path id="FangSong-8ba1" d="M 4075 4200 
Q 4100 4825 3900 5100 
L 3975 5150 
L 4450 4725 
Q 4275 4600 4300 4200 
L 4275 3000 
Q 5525 3200 5575 3250 
L 5950 2950 
Q 5725 2975 4275 2800 
L 4250 -425 
Q 4250 -700 4150 -575 
L 3875 -150 
Q 4050 50 4025 300 
L 4050 2750 
Q 2975 2625 2900 2575 
L 2525 2825 
Q 2850 2825 4050 2975 
L 4075 4200 
z
M 1775 3250 
L 2100 2950 
L 1900 2750 
L 1875 550 
L 2825 1250 
L 2875 1175 
Q 1875 250 1750 -25 
L 1525 275 
Q 1625 375 1650 625 
L 1675 2775 
Q 900 2625 750 2550 
L 425 2800 
Q 850 2825 1650 3000 
L 1775 3250 
z
M 2025 3800 
Q 1825 4300 1325 4950 
L 1375 5025 
Q 1925 4575 2175 4300 
Q 2125 4000 2025 3800 
z
" transform="scale(0.015625)"/>
       <path id="FangSong-5b8c" d="M 5375 2050 
Q 4925 2050 3550 1950 
L 3850 1750 
Q 3725 1600 3700 1375 
L 3675 275 
Q 3650 -125 4075 -175 
L 4925 -175 
Q 5300 -150 5312 62 
Q 5325 275 5325 1025 
L 5425 1025 
Q 5450 750 5475 337 
Q 5500 -75 5700 -275 
Q 5400 -375 5000 -400 
L 4075 -400 
Q 3425 -350 3425 150 
L 3475 1450 
Q 3475 1775 3425 1925 
L 2675 1850 
L 2875 1650 
Q 2750 1550 2600 1200 
Q 2450 850 2025 312 
Q 1600 -225 600 -675 
L 550 -575 
Q 1525 -100 1987 625 
Q 2450 1350 2525 1850 
Q 1550 1775 1500 1725 
L 1150 2025 
Q 1625 2025 3212 2150 
Q 4800 2275 5000 2350 
L 5375 2050 
z
M 1650 3650 
Q 1550 3125 1325 2875 
L 1150 3250 
Q 1450 3425 1575 4400 
L 1675 4400 
L 1675 3900 
L 5025 4150 
L 5175 4400 
L 5525 4075 
Q 5375 4050 4725 3250 
L 4650 3325 
L 4975 3900 
L 1650 3650 
z
M 4475 2975 
Q 4225 2975 3412 2875 
Q 2600 2775 2400 2725 
L 2050 2975 
Q 2575 2975 3200 3075 
Q 3825 3175 4150 3225 
L 4475 2975 
z
M 3550 4575 
Q 3475 4350 3300 4150 
Q 3225 4475 2900 5200 
L 2975 5250 
Q 3350 4825 3550 4575 
z
" transform="scale(0.015625)"/>
       <path id="FangSong-6210" d="M 5575 975 
Q 5600 -150 5750 -625 
Q 4650 -225 4000 1075 
Q 3625 650 2975 225 
L 2925 325 
Q 3525 825 3900 1300 
Q 3600 2275 3500 3300 
L 1875 3125 
Q 1875 2625 1825 2100 
L 2725 2250 
L 2875 2475 
L 3175 2225 
L 3000 2050 
Q 2850 475 2575 -125 
Q 2225 400 1825 775 
L 1875 850 
L 2475 400 
Q 2650 875 2750 2000 
L 1825 1850 
Q 1675 250 600 -650 
L 525 -600 
Q 1250 250 1425 987 
Q 1600 1725 1625 2612 
Q 1650 3500 1550 3800 
L 1625 3825 
L 1850 3350 
L 3450 3525 
Q 3400 4150 3375 4562 
Q 3350 4975 3225 5200 
L 3275 5225 
L 3725 4900 
Q 3625 4925 3637 4575 
Q 3650 4225 3675 3550 
Q 4900 3700 5050 3775 
L 5325 3475 
Q 4775 3475 3725 3325 
Q 3775 2425 4075 1525 
Q 4500 2025 4687 2325 
Q 4875 2625 4800 2850 
L 4875 2875 
L 5125 2325 
Q 5075 2400 4850 2125 
Q 4625 1850 4150 1275 
Q 4625 225 5425 -125 
L 5475 975 
L 5575 975 
z
M 4100 5000 
Q 4525 4700 4875 4450 
Q 4825 4250 4750 4025 
Q 4400 4525 4025 4950 
L 4100 5000 
z
" transform="scale(0.015625)"/>
       <path id="FangSong-4f8b" d="M 3050 2000 
Q 3025 1800 2975 1600 
Q 2775 1900 2525 2250 
Q 2300 1875 2025 1550 
L 1925 1625 
Q 2675 2725 2975 3975 
Q 2475 3925 2375 3875 
L 2050 4125 
Q 2375 4125 3162 4225 
Q 3950 4325 4100 4450 
L 4350 4125 
Q 4050 4150 3100 3975 
L 3300 3700 
Q 3200 3675 3125 3525 
Q 3050 3375 2925 3050 
L 3625 3150 
L 3775 3350 
L 4050 3075 
L 3875 2900 
Q 3300 825 1850 -225 
L 1800 -100 
Q 3100 975 3625 2900 
Q 3150 2825 3025 2775 
L 2875 2925 
Q 2775 2675 2575 2350 
Q 2900 2125 3050 2000 
z
M 1275 -150 
Q 1425 25 1400 225 
L 1450 3425 
Q 1025 2800 475 2225 
L 400 2325 
Q 875 2850 1450 3887 
Q 2025 4925 1925 5150 
L 2000 5175 
L 2250 4700 
Q 2200 4725 2062 4475 
Q 1925 4225 1675 3800 
L 1625 -325 
Q 1650 -675 1525 -600 
L 1275 -150 
z
M 5475 250 
Q 5475 -300 5300 -650 
Q 4900 -100 4300 375 
L 4350 475 
L 5200 -75 
Q 5250 250 5250 575 
L 5250 4350 
Q 5275 4950 5100 5150 
L 5175 5225 
L 5600 4850 
Q 5450 4775 5475 4325 
L 5475 250 
z
M 4300 1525 
Q 4400 1650 4400 1900 
L 4400 3075 
Q 4425 3525 4300 3750 
L 4350 3800 
L 4725 3450 
Q 4600 3350 4625 3025 
L 4625 1375 
Q 4625 1050 4550 1125 
L 4300 1525 
z
" transform="scale(0.015625)"/>
      </defs>
      <use xlink:href="#FangSong-7d2f"/>
      <use xlink:href="#FangSong-8ba1" x="100"/>
      <use xlink:href="#FangSong-5b8c" x="200"/>
      <use xlink:href="#FangSong-6210" x="300"/>
      <use xlink:href="#FangSong-6bd4" x="400"/>
      <use xlink:href="#FangSong-4f8b" x="500"/>
     </g>
    </g>
   </g>
   <g id="line2d_16">
    <path d="M 73.832727 295.488 
L 74.039777 295.488 
L 74.246827 294.2784 
L 74.660928 289.68192 
L 75.282078 265.00608 
L 75.903228 238.39488 
L 77.559629 172.83456 
L 78.180779 158.31936 
L 78.801929 146.46528 
L 79.42308 137.27232 
L 79.83718 133.15968 
L 80.45833 130.74048 
L 80.66538 130.74048 
L 81.493581 129.7728 
L 83.149981 129.7728 
L 83.357032 129.28896 
L 83.564082 129.28896 
L 83.771132 129.04704 
L 85.220482 129.04704 
L 85.427532 128.80512 
L 87.498033 128.80512 
L 87.705083 128.5632 
L 87.912134 128.5632 
L 88.119184 128.32128 
L 89.361484 128.32128 
L 89.568534 128.07936 
L 90.189685 128.07936 
L 90.396735 127.83744 
L 92.674286 127.83744 
L 92.881336 127.59552 
L 93.088386 127.59552 
L 93.502486 127.11168 
L 94.123636 127.11168 
L 94.330686 126.86976 
L 94.951837 126.86976 
L 95.158887 126.62784 
L 95.365937 126.62784 
L 95.572987 126.38592 
L 96.815288 126.38592 
L 97.022338 126.144 
L 99.092839 126.144 
L 99.299889 125.90208 
L 99.921039 125.90208 
L 100.128089 125.66016 
L 100.542189 125.66016 
L 100.749239 125.41824 
L 103.02679 125.41824 
L 103.23384 124.9344 
L 104.062041 124.9344 
L 104.269091 124.69248 
L 106.132542 124.69248 
L 106.339592 124.45056 
L 107.995993 124.45056 
L 108.410093 123.96672 
L 109.445343 123.96672 
L 109.652393 123.7248 
L 110.687644 123.7248 
L 110.894694 123.24096 
L 112.551095 123.24096 
L 112.758145 122.99904 
L 113.379295 122.99904 
L 113.586345 122.75712 
L 114.000445 122.75712 
L 114.207495 122.5152 
L 116.070946 122.5152 
L 116.277996 122.03136 
L 117.727347 122.03136 
L 117.934397 121.78944 
L 118.969647 121.78944 
L 119.176698 121.54752 
L 120.211948 121.54752 
L 120.418998 121.3056 
L 120.833098 121.3056 
L 121.040148 121.06368 
L 122.489499 121.06368 
L 122.696549 120.82176 
L 123.317699 120.82176 
L 123.52475 120.57984 
L 124.1459 120.57984 
L 124.35295 120.33792 
L 124.76705 120.33792 
L 124.9741 120.096 
L 125.59525 120.096 
L 125.802301 119.85408 
L 126.837551 119.85408 
L 127.044601 119.61216 
L 127.251651 119.61216 
L 127.458701 119.37024 
L 129.943302 119.37024 
L 130.150353 119.12832 
L 131.599703 119.12832 
L 131.806753 118.8864 
L 133.256104 118.8864 
L 133.463154 118.64448 
L 133.877254 118.64448 
L 134.084304 118.40256 
L 135.947755 118.40256 
L 136.154805 118.16064 
L 136.568905 118.16064 
L 136.775955 117.91872 
L 138.432356 117.91872 
L 138.639406 117.6768 
L 139.053506 117.6768 
L 139.260557 117.43488 
L 140.502857 117.43488 
L 140.709907 117.19296 
L 142.780408 117.19296 
L 142.987458 116.95104 
L 144.436809 116.95104 
L 144.643859 116.70912 
L 145.265009 116.70912 
L 145.472059 116.4672 
L 147.12846 116.4672 
L 147.33551 116.22528 
L 148.577811 116.22528 
L 148.784861 115.98336 
L 150.855362 115.98336 
L 151.269462 115.49952 
L 153.754063 115.49952 
L 153.961113 115.2576 
L 154.168163 115.2576 
L 154.375213 115.01568 
L 155.203414 115.01568 
L 155.410464 114.77376 
L 157.688015 114.77376 
L 157.895065 114.53184 
L 158.930315 114.53184 
L 159.137365 114.28992 
L 160.793766 114.28992 
L 161.000816 114.048 
L 162.036067 114.048 
L 162.243117 113.80608 
L 163.071317 113.80608 
L 163.278367 113.56416 
L 164.313618 113.56416 
L 164.520668 113.32224 
L 164.727718 113.32224 
L 164.934768 113.08032 
L 166.177069 113.08032 
L 166.384119 112.8384 
L 166.798219 112.8384 
L 167.005269 112.59648 
L 168.86872 112.59648 
L 169.07577 112.35456 
L 169.28282 112.35456 
L 169.48987 112.11264 
L 171.353321 112.11264 
L 171.560371 111.87072 
L 171.974471 111.87072 
L 172.181521 111.6288 
L 174.044972 111.6288 
L 174.252022 111.38688 
L 176.115473 111.38688 
L 176.322523 111.14496 
L 177.771874 111.14496 
L 177.978924 110.90304 
L 179.221224 110.90304 
L 179.635325 110.4192 
L 182.119926 110.4192 
L 182.326976 110.17728 
L 183.155176 110.17728 
L 183.362226 109.93536 
L 184.190427 109.93536 
L 184.397477 109.69344 
L 186.467978 109.69344 
L 186.675028 109.45152 
L 186.882078 109.45152 
L 187.089128 109.2096 
L 188.538479 109.2096 
L 188.745529 108.96768 
L 191.23013 108.96768 
L 191.43718 108.72576 
L 193.507681 108.72576 
L 193.714731 108.48384 
L 195.164082 108.48384 
L 195.371132 108.24192 
L 197.855733 108.24192 
L 198.062783 108 
L 198.683933 108 
L 198.890983 107.75808 
L 200.754434 107.75808 
L 200.961484 107.51616 
L 201.582635 107.51616 
L 201.789685 107.27424 
L 202.203785 107.27424 
L 202.410835 107.03232 
L 204.274286 107.03232 
L 204.481336 106.7904 
L 205.723636 106.7904 
L 205.930686 106.54848 
L 208.208237 106.54848 
L 208.415288 106.30656 
L 209.657588 106.30656 
L 210.071688 105.82272 
L 210.278738 105.82272 
L 210.485788 105.5808 
L 213.17744 105.5808 
L 213.38449 105.33888 
L 215.247941 105.33888 
L 215.869091 104.61312 
L 218.353692 104.61312 
L 218.560742 104.3712 
L 218.767792 104.3712 
L 218.974842 104.12928 
L 221.252393 104.12928 
L 221.459443 103.88736 
L 221.666494 103.88736 
L 221.873544 103.64544 
L 222.908794 103.64544 
L 223.115844 103.40352 
L 224.772245 103.40352 
L 224.979295 103.1616 
L 227.049796 103.1616 
L 227.256846 102.91968 
L 228.706197 102.91968 
L 228.913247 102.67776 
L 230.362597 102.67776 
L 230.569647 102.43584 
L 231.397848 102.43584 
L 231.604898 101.952 
L 232.847199 101.952 
L 233.054249 101.71008 
L 234.503599 101.71008 
L 234.710649 101.46816 
L 235.7459 101.46816 
L 235.95295 101.22624 
L 237.402301 101.22624 
L 237.816401 100.7424 
L 239.058701 100.7424 
L 239.265751 100.50048 
L 241.336252 100.50048 
L 241.543302 100.25856 
L 242.371503 100.25856 
L 242.578553 100.01664 
L 244.027904 100.01664 
L 244.234954 99.77472 
L 245.270204 99.77472 
L 245.477254 99.5328 
L 246.098404 99.5328 
L 246.305455 99.29088 
L 248.375955 99.29088 
L 248.583006 99.04896 
L 248.790056 99.04896 
L 248.997106 98.80704 
L 251.688757 98.80704 
L 252.102857 98.3232 
L 252.931058 98.3232 
L 253.138108 98.08128 
L 254.173358 98.08128 
L 254.380408 97.83936 
L 255.829759 97.83936 
L 256.036809 97.59744 
L 256.450909 97.59744 
L 256.657959 97.35552 
L 257.279109 97.35552 
L 257.48616 97.1136 
L 258.31436 97.1136 
L 258.52141 96.87168 
L 258.93551 96.87168 
L 259.14256 96.62976 
L 261.006011 96.62976 
L 261.213061 96.38784 
L 263.076512 96.38784 
L 263.490612 95.904 
L 264.732913 95.904 
L 264.939963 95.66208 
L 266.389314 95.66208 
L 266.596364 95.42016 
L 268.873915 95.42016 
L 269.080965 95.17824 
L 270.116215 95.17824 
L 270.323265 94.93632 
L 272.807866 94.93632 
L 273.014917 94.6944 
L 274.878367 94.6944 
L 275.085417 94.45248 
L 276.741818 94.45248 
L 276.948868 94.21056 
L 279.226419 94.21056 
L 279.433469 93.96864 
L 281.29692 93.96864 
L 281.50397 93.72672 
L 283.988571 93.72672 
L 284.195622 93.4848 
L 286.680223 93.4848 
L 286.887273 93.24288 
L 288.129573 93.24288 
L 288.336623 93.00096 
L 288.543673 93.00096 
L 288.750724 92.75904 
L 289.993024 92.75904 
L 290.200074 92.51712 
L 293.098776 92.51712 
L 293.305826 92.03328 
L 295.790427 92.03328 
L 295.997477 91.79136 
L 298.067978 91.79136 
L 298.275028 91.54944 
L 301.173729 91.54944 
L 301.380779 91.30752 
L 301.794879 91.30752 
L 302.20898 90.82368 
L 304.486531 90.82368 
L 304.693581 90.58176 
L 305.935881 90.58176 
L 306.142931 90.33984 
L 307.385232 90.33984 
L 307.592282 90.09792 
L 310.283933 90.09792 
L 310.490983 89.856 
L 311.319184 89.856 
L 311.526234 89.61408 
L 312.354434 89.61408 
L 312.561484 89.37216 
L 312.975584 89.37216 
L 313.182635 89.13024 
L 315.667236 89.13024 
L 315.874286 88.88832 
L 316.702486 88.88832 
L 317.116586 88.40448 
L 318.565937 88.40448 
L 318.772987 88.16256 
L 319.394137 88.16256 
L 319.601187 87.92064 
L 320.636438 87.92064 
L 321.050538 87.4368 
L 322.085788 87.4368 
L 322.499889 86.95296 
L 323.121039 86.95296 
L 323.328089 86.71104 
L 324.156289 86.71104 
L 324.57039 86.2272 
L 324.98449 86.2272 
L 325.60564 85.50144 
L 326.43384 85.50144 
L 326.847941 85.0176 
L 327.054991 85.0176 
L 327.262041 84.77568 
L 327.469091 84.77568 
L 327.883191 84.29184 
L 328.504341 84.29184 
L 328.711391 84.04992 
L 328.918442 84.04992 
L 329.125492 83.808 
L 329.746642 83.808 
L 329.953692 83.56608 
L 330.367792 83.56608 
L 330.574842 83.32416 
L 330.988942 83.32416 
L 331.195993 83.08224 
L 332.024193 83.08224 
L 332.438293 82.5984 
L 333.059443 82.5984 
L 333.266494 82.35648 
L 333.473544 82.35648 
L 333.680594 81.87264 
L 334.508794 81.87264 
L 334.715844 81.3888 
L 334.922894 81.3888 
L 335.129944 81.14688 
L 335.336994 81.14688 
L 335.544045 80.90496 
L 335.958145 80.90496 
L 336.579295 80.1792 
L 337.821596 80.1792 
L 338.028646 79.93728 
L 338.649796 79.93728 
L 338.856846 79.69536 
L 339.270946 79.69536 
L 339.685046 78.9696 
L 340.513247 78.9696 
L 340.720297 78.72768 
L 341.134397 78.72768 
L 341.341447 78.48576 
L 341.548497 78.48576 
L 341.755547 78.24384 
L 342.790798 78.24384 
L 343.204898 77.76 
L 343.618998 77.76 
L 343.826048 77.51808 
L 344.240148 77.51808 
L 344.654249 77.03424 
L 345.068349 77.03424 
L 345.275399 76.79232 
L 346.103599 76.79232 
L 346.517699 76.30848 
L 346.72475 76.30848 
L 346.9318 76.06656 
L 347.13885 76.06656 
L 347.3459 75.82464 
L 347.76 75.82464 
L 347.96705 75.58272 
L 348.1741 75.58272 
L 348.38115 75.3408 
L 349.209351 75.3408 
L 349.416401 75.09888 
L 350.037551 75.09888 
L 350.658701 74.37312 
L 351.486902 74.37312 
L 351.693952 73.88928 
L 352.108052 73.88928 
L 352.315102 73.64736 
L 353.350353 73.64736 
L 353.557403 73.40544 
L 353.764453 73.40544 
L 353.971503 73.16352 
L 354.592653 73.16352 
L 354.799703 72.67968 
L 355.420853 72.67968 
L 355.627904 72.43776 
L 356.456104 72.43776 
L 356.870204 71.95392 
L 357.491354 71.95392 
L 357.905455 71.47008 
L 358.733655 71.47008 
L 358.940705 71.22816 
L 360.390056 71.22816 
L 360.597106 70.98624 
L 360.804156 70.98624 
L 361.011206 70.74432 
L 361.218256 70.74432 
L 361.632356 70.26048 
L 361.839406 70.26048 
L 362.253506 69.77664 
L 362.874657 69.77664 
L 363.081707 69.53472 
L 363.702857 69.53472 
L 363.909907 69.2928 
L 364.738108 69.2928 
L 364.945158 68.80896 
L 365.773358 68.80896 
L 366.187458 68.32512 
L 366.394508 68.32512 
L 366.808609 67.84128 
L 367.222709 67.84128 
L 367.636809 67.35744 
L 368.465009 67.35744 
L 368.672059 67.11552 
L 369.08616 67.11552 
L 369.70731 66.38976 
L 370.12141 66.38976 
L 370.53551 65.90592 
L 370.94961 65.90592 
L 371.15666 65.664 
L 371.363711 65.664 
L 371.570761 65.42208 
L 372.191911 65.42208 
L 372.398961 65.18016 
L 372.813061 65.18016 
L 373.020111 64.93824 
L 373.434212 64.93824 
L 373.641262 64.69632 
L 373.848312 64.69632 
L 374.055362 64.4544 
L 374.469462 64.4544 
L 374.676512 64.21248 
L 375.090612 64.21248 
L 375.297662 63.97056 
L 376.539963 63.97056 
L 376.747013 63.72864 
L 376.954063 62.76096 
L 377.368163 62.76096 
L 377.575213 62.51904 
L 377.782263 62.51904 
L 377.989314 62.27712 
L 378.196364 62.27712 
L 378.610464 61.79328 
L 379.438664 61.79328 
L 379.645714 61.55136 
L 379.852764 61.55136 
L 380.059814 61.30944 
L 380.266865 61.30944 
L 380.473915 61.06752 
L 381.302115 61.06752 
L 381.509165 60.58368 
L 382.337365 60.58368 
L 382.751466 60.09984 
L 383.165566 60.09984 
L 383.372616 59.85792 
L 383.786716 59.85792 
L 383.993766 59.616 
L 384.407866 59.616 
L 384.614917 59.37408 
L 384.821967 59.37408 
L 385.029017 59.13216 
L 385.857217 59.13216 
L 386.064267 58.89024 
L 386.478367 58.89024 
L 386.892468 58.4064 
L 387.513618 58.4064 
L 387.720668 58.16448 
L 388.548868 58.16448 
L 388.755918 57.92256 
L 389.170019 57.92256 
L 389.584119 57.43872 
L 390.619369 57.43872 
L 390.826419 57.1968 
L 391.44757 57.1968 
L 392.06872 56.47104 
L 392.68987 56.47104 
L 392.89692 56.22912 
L 394.139221 56.22912 
L 394.346271 55.74528 
L 395.174471 55.74528 
L 395.381521 55.26144 
L 396.002672 55.26144 
L 396.209722 55.01952 
L 396.623822 55.01952 
L 396.830872 54.7776 
L 397.037922 54.05184 
L 397.452022 54.05184 
L 397.659072 53.80992 
L 398.280223 53.80992 
L 398.487273 53.568 
L 398.487273 53.568 
" clip-path="url(#p5d08560689)" style="fill: none; stroke: #ff0000; stroke-linecap: square"/>
   </g>
   <g id="line2d_17">
    <path d="M 73.832727 295.488 
L 74.039777 295.488 
L 74.867978 285.248 
L 75.075028 278.848 
L 75.489128 257.088 
L 76.110278 223.808 
L 76.938479 179.008 
L 77.145529 162.368 
L 77.766679 139.328 
L 77.973729 136.768 
L 78.387829 112.448 
L 79.63013 68.928 
L 80.45833 58.688 
L 81.286531 58.688 
L 81.493581 57.408 
L 108.203043 57.408 
L 108.410093 56.128 
L 116.070946 56.128 
L 116.277996 54.848 
L 120.211948 54.848 
L 120.418998 53.568 
L 398.487273 53.568 
L 398.487273 53.568 
" clip-path="url(#p5d08560689)" style="fill: none; stroke-dasharray: 1.85,0.8; stroke-dashoffset: 0; stroke: #008000; stroke-width: 0.5"/>
   </g>
   <g id="line2d_18">
    <path d="M 73.832727 295.488 
L 74.039777 295.488 
L 74.453878 287.767149 
L 74.660928 281.333106 
L 75.075028 256.883745 
L 75.489128 229.860766 
L 76.524378 171.954383 
L 76.731429 166.807149 
L 76.938479 156.512681 
L 77.145529 152.652255 
L 77.352579 142.357787 
L 77.559629 125.629277 
L 77.973729 117.908426 
L 78.180779 103.753532 
L 78.801929 85.738213 
L 79.00898 81.877787 
L 79.21603 72.870128 
L 79.42308 72.870128 
L 79.83718 65.149277 
L 80.04423 63.862468 
L 80.45833 60.002043 
L 81.079481 60.002043 
L 81.286531 58.715234 
L 94.123636 58.715234 
L 94.330686 57.428426 
L 99.921039 57.428426 
L 100.128089 56.141617 
L 103.02679 56.141617 
L 103.23384 54.854809 
L 114.000445 54.854809 
L 114.207495 53.568 
L 398.487273 53.568 
L 398.487273 53.568 
" clip-path="url(#p5d08560689)" style="fill: none; stroke-dasharray: 1.85,0.8; stroke-dashoffset: 0; stroke: #0000ff; stroke-width: 0.5"/>
   </g>
   <g id="line2d_19">
    <path d="M 73.832727 295.488 
L 74.246827 295.488 
L 74.453878 293.942185 
L 74.660928 290.077649 
L 76.110278 190.372601 
L 76.731429 139.360716 
L 77.145529 116.946403 
L 77.559629 96.850812 
L 78.180779 78.301035 
L 79.00898 62.842888 
L 79.63013 60.524166 
L 79.83718 58.978351 
L 80.66538 58.978351 
L 81.079481 57.432537 
L 83.149981 57.432537 
L 83.357032 56.659629 
L 83.564082 56.659629 
L 83.771132 55.886722 
L 87.912134 55.886722 
L 88.119184 55.113815 
L 93.088386 55.113815 
L 93.295436 54.340907 
L 94.951837 54.340907 
L 95.158887 53.568 
L 398.487273 53.568 
L 398.487273 53.568 
" clip-path="url(#p5d08560689)" style="fill: none; stroke-dasharray: 1.85,0.8; stroke-dashoffset: 0; stroke: #bf00bf; stroke-width: 0.5"/>
   </g>
   <g id="line2d_20">
    <path d="M 73.832727 295.488 
L 77.559629 295.488 
L 77.973729 293.927226 
L 78.180779 293.927226 
L 78.387829 293.146839 
L 78.801929 293.146839 
L 79.21603 290.805677 
L 79.42308 290.805677 
L 79.63013 290.02529 
L 83.149981 290.02529 
L 83.357032 289.244903 
L 85.220482 289.244903 
L 85.427532 288.464516 
L 87.498033 288.464516 
L 87.705083 287.684129 
L 89.361484 287.684129 
L 89.568534 286.903742 
L 90.189685 286.903742 
L 90.396735 286.123355 
L 92.674286 286.123355 
L 92.881336 285.342968 
L 93.295436 285.342968 
L 93.502486 284.562581 
L 95.365937 284.562581 
L 95.572987 283.782194 
L 96.815288 283.782194 
L 97.022338 283.001806 
L 99.092839 283.001806 
L 99.299889 282.221419 
L 100.542189 282.221419 
L 100.749239 281.441032 
L 103.02679 281.441032 
L 103.23384 280.660645 
L 104.062041 280.660645 
L 104.269091 279.880258 
L 106.132542 279.880258 
L 106.339592 279.099871 
L 107.995993 279.099871 
L 108.203043 278.319484 
L 109.445343 278.319484 
L 109.652393 277.539097 
L 110.687644 277.539097 
L 110.894694 275.978323 
L 112.551095 275.978323 
L 112.758145 275.197935 
L 113.379295 275.197935 
L 113.586345 274.417548 
L 116.070946 274.417548 
L 116.277996 273.637161 
L 117.727347 273.637161 
L 117.934397 272.856774 
L 118.969647 272.856774 
L 119.176698 272.076387 
L 120.833098 272.076387 
L 121.040148 271.296 
L 122.489499 271.296 
L 122.696549 270.515613 
L 123.317699 270.515613 
L 123.52475 269.735226 
L 124.1459 269.735226 
L 124.35295 268.954839 
L 124.76705 268.954839 
L 124.9741 268.174452 
L 125.59525 268.174452 
L 125.802301 267.394065 
L 126.837551 267.394065 
L 127.044601 266.613677 
L 127.251651 266.613677 
L 127.458701 265.83329 
L 129.943302 265.83329 
L 130.150353 265.052903 
L 131.599703 265.052903 
L 131.806753 264.272516 
L 133.256104 264.272516 
L 133.463154 263.492129 
L 133.877254 263.492129 
L 134.084304 262.711742 
L 135.947755 262.711742 
L 136.154805 261.931355 
L 136.568905 261.931355 
L 136.775955 261.150968 
L 138.432356 261.150968 
L 138.639406 260.370581 
L 139.053506 260.370581 
L 139.260557 259.590194 
L 140.502857 259.590194 
L 140.709907 258.809806 
L 142.780408 258.809806 
L 142.987458 258.029419 
L 144.436809 258.029419 
L 144.643859 257.249032 
L 145.265009 257.249032 
L 145.472059 256.468645 
L 147.12846 256.468645 
L 147.33551 255.688258 
L 148.577811 255.688258 
L 148.784861 254.907871 
L 150.855362 254.907871 
L 151.269462 253.347097 
L 153.754063 253.347097 
L 153.961113 252.56671 
L 154.168163 252.56671 
L 154.375213 251.786323 
L 155.203414 251.786323 
L 155.410464 251.005935 
L 157.688015 251.005935 
L 157.895065 250.225548 
L 158.930315 250.225548 
L 159.137365 249.445161 
L 160.793766 249.445161 
L 161.000816 248.664774 
L 162.036067 248.664774 
L 162.243117 247.884387 
L 163.071317 247.884387 
L 163.278367 247.104 
L 164.313618 247.104 
L 164.520668 246.323613 
L 164.727718 246.323613 
L 164.934768 245.543226 
L 166.177069 245.543226 
L 166.384119 244.762839 
L 166.798219 244.762839 
L 167.005269 243.982452 
L 168.86872 243.982452 
L 169.07577 243.202065 
L 169.28282 243.202065 
L 169.48987 242.421677 
L 171.353321 242.421677 
L 171.560371 241.64129 
L 171.974471 241.64129 
L 172.181521 240.860903 
L 174.044972 240.860903 
L 174.252022 240.080516 
L 176.115473 240.080516 
L 176.322523 239.300129 
L 177.771874 239.300129 
L 177.978924 238.519742 
L 179.221224 238.519742 
L 179.635325 236.958968 
L 182.119926 236.958968 
L 182.326976 236.178581 
L 183.155176 236.178581 
L 183.362226 235.398194 
L 184.190427 235.398194 
L 184.397477 234.617806 
L 186.467978 234.617806 
L 186.675028 233.837419 
L 186.882078 233.837419 
L 187.089128 233.057032 
L 188.538479 233.057032 
L 188.745529 232.276645 
L 191.23013 232.276645 
L 191.43718 231.496258 
L 193.507681 231.496258 
L 193.714731 230.715871 
L 195.164082 230.715871 
L 195.371132 229.935484 
L 197.855733 229.935484 
L 198.062783 229.155097 
L 198.683933 229.155097 
L 198.890983 228.37471 
L 200.754434 228.37471 
L 200.961484 227.594323 
L 201.582635 227.594323 
L 201.789685 226.813935 
L 202.203785 226.813935 
L 202.410835 226.033548 
L 204.274286 226.033548 
L 204.481336 225.253161 
L 205.723636 225.253161 
L 205.930686 224.472774 
L 208.208237 224.472774 
L 208.415288 223.692387 
L 209.657588 223.692387 
L 210.071688 222.131613 
L 210.278738 222.131613 
L 210.485788 221.351226 
L 213.17744 221.351226 
L 213.38449 220.570839 
L 215.247941 220.570839 
L 215.869091 218.229677 
L 218.353692 218.229677 
L 218.560742 217.44929 
L 218.767792 217.44929 
L 218.974842 216.668903 
L 221.252393 216.668903 
L 221.459443 215.888516 
L 221.666494 215.888516 
L 221.873544 215.108129 
L 222.908794 215.108129 
L 223.115844 214.327742 
L 224.772245 214.327742 
L 224.979295 213.547355 
L 227.049796 213.547355 
L 227.256846 212.766968 
L 228.706197 212.766968 
L 228.913247 211.986581 
L 230.362597 211.986581 
L 230.569647 211.206194 
L 231.397848 211.206194 
L 231.604898 209.645419 
L 232.847199 209.645419 
L 233.054249 208.865032 
L 234.503599 208.865032 
L 234.710649 208.084645 
L 235.7459 208.084645 
L 235.95295 207.304258 
L 237.402301 207.304258 
L 237.816401 205.743484 
L 239.058701 205.743484 
L 239.265751 204.963097 
L 241.336252 204.963097 
L 241.543302 204.18271 
L 242.371503 204.18271 
L 242.578553 203.402323 
L 244.027904 203.402323 
L 244.234954 202.621935 
L 245.270204 202.621935 
L 245.477254 201.841548 
L 246.098404 201.841548 
L 246.305455 201.061161 
L 248.375955 201.061161 
L 248.583006 200.280774 
L 248.790056 200.280774 
L 248.997106 199.500387 
L 251.688757 199.500387 
L 252.102857 197.939613 
L 252.931058 197.939613 
L 253.138108 197.159226 
L 254.173358 197.159226 
L 254.380408 196.378839 
L 255.829759 196.378839 
L 256.036809 195.598452 
L 256.450909 195.598452 
L 256.657959 194.818065 
L 257.279109 194.818065 
L 257.48616 194.037677 
L 258.31436 194.037677 
L 258.52141 193.25729 
L 258.93551 193.25729 
L 259.14256 192.476903 
L 261.006011 192.476903 
L 261.213061 191.696516 
L 263.076512 191.696516 
L 263.490612 190.135742 
L 264.732913 190.135742 
L 264.939963 189.355355 
L 266.389314 189.355355 
L 266.596364 188.574968 
L 268.873915 188.574968 
L 269.080965 187.794581 
L 270.116215 187.794581 
L 270.323265 187.014194 
L 272.807866 187.014194 
L 273.014917 186.233806 
L 274.878367 186.233806 
L 275.085417 185.453419 
L 276.741818 185.453419 
L 276.948868 184.673032 
L 279.226419 184.673032 
L 279.433469 183.892645 
L 281.29692 183.892645 
L 281.50397 183.112258 
L 283.988571 183.112258 
L 284.195622 182.331871 
L 286.680223 182.331871 
L 286.887273 181.551484 
L 288.129573 181.551484 
L 288.336623 180.771097 
L 288.543673 180.771097 
L 288.750724 179.99071 
L 289.993024 179.99071 
L 290.200074 179.210323 
L 293.098776 179.210323 
L 293.305826 177.649548 
L 295.790427 177.649548 
L 295.997477 176.869161 
L 298.067978 176.869161 
L 298.275028 176.088774 
L 301.173729 176.088774 
L 301.380779 175.308387 
L 301.794879 175.308387 
L 302.20898 173.747613 
L 304.486531 173.747613 
L 304.693581 172.967226 
L 305.935881 172.967226 
L 306.142931 172.186839 
L 307.385232 172.186839 
L 307.592282 171.406452 
L 310.283933 171.406452 
L 310.490983 170.626065 
L 311.319184 170.626065 
L 311.526234 169.845677 
L 312.354434 169.845677 
L 312.561484 169.06529 
L 312.975584 169.06529 
L 313.182635 168.284903 
L 315.667236 168.284903 
L 315.874286 167.504516 
L 316.702486 167.504516 
L 317.116586 165.943742 
L 318.565937 165.943742 
L 318.772987 165.163355 
L 319.394137 165.163355 
L 319.601187 164.382968 
L 320.636438 164.382968 
L 321.050538 162.822194 
L 322.085788 162.822194 
L 322.499889 161.261419 
L 323.121039 161.261419 
L 323.328089 160.481032 
L 324.156289 160.481032 
L 324.57039 158.920258 
L 324.98449 158.920258 
L 325.60564 156.579097 
L 326.43384 156.579097 
L 326.847941 155.018323 
L 327.054991 155.018323 
L 327.262041 154.237935 
L 327.469091 154.237935 
L 327.883191 152.677161 
L 328.504341 152.677161 
L 328.711391 151.896774 
L 328.918442 151.896774 
L 329.125492 151.116387 
L 329.746642 151.116387 
L 329.953692 150.336 
L 330.367792 150.336 
L 330.574842 149.555613 
L 330.988942 149.555613 
L 331.195993 148.775226 
L 332.024193 148.775226 
L 332.438293 147.214452 
L 333.059443 147.214452 
L 333.266494 146.434065 
L 333.473544 146.434065 
L 333.680594 144.87329 
L 334.508794 144.87329 
L 334.715844 143.312516 
L 334.922894 143.312516 
L 335.129944 142.532129 
L 335.336994 142.532129 
L 335.544045 141.751742 
L 335.958145 141.751742 
L 336.579295 139.410581 
L 337.821596 139.410581 
L 338.028646 138.630194 
L 338.649796 138.630194 
L 338.856846 137.849806 
L 339.270946 137.849806 
L 339.685046 135.508645 
L 340.513247 135.508645 
L 340.720297 134.728258 
L 341.134397 134.728258 
L 341.341447 133.947871 
L 341.548497 133.947871 
L 341.755547 133.167484 
L 342.790798 133.167484 
L 343.204898 131.60671 
L 343.618998 131.60671 
L 343.826048 130.826323 
L 344.240148 130.826323 
L 344.654249 129.265548 
L 345.068349 129.265548 
L 345.275399 128.485161 
L 346.103599 128.485161 
L 346.517699 126.924387 
L 346.72475 126.924387 
L 346.9318 126.144 
L 347.13885 126.144 
L 347.3459 125.363613 
L 347.76 125.363613 
L 347.96705 124.583226 
L 348.1741 124.583226 
L 348.38115 123.802839 
L 349.209351 123.802839 
L 349.416401 123.022452 
L 350.037551 123.022452 
L 350.658701 120.68129 
L 351.486902 120.68129 
L 351.693952 119.120516 
L 352.108052 119.120516 
L 352.315102 118.340129 
L 353.350353 118.340129 
L 353.557403 117.559742 
L 353.764453 117.559742 
L 353.971503 116.779355 
L 354.592653 116.779355 
L 354.799703 115.218581 
L 355.420853 115.218581 
L 355.627904 114.438194 
L 356.456104 114.438194 
L 356.870204 112.877419 
L 357.491354 112.877419 
L 357.905455 111.316645 
L 358.733655 111.316645 
L 358.940705 110.536258 
L 360.390056 110.536258 
L 360.597106 109.755871 
L 360.804156 109.755871 
L 361.011206 108.975484 
L 361.218256 108.975484 
L 361.632356 107.41471 
L 361.839406 107.41471 
L 362.253506 105.853935 
L 362.874657 105.853935 
L 363.081707 105.073548 
L 363.702857 105.073548 
L 363.909907 104.293161 
L 364.738108 104.293161 
L 364.945158 102.732387 
L 365.773358 102.732387 
L 366.187458 101.171613 
L 366.394508 101.171613 
L 366.808609 99.610839 
L 367.222709 99.610839 
L 367.636809 98.050065 
L 368.465009 98.050065 
L 368.672059 97.269677 
L 369.08616 97.269677 
L 369.70731 94.928516 
L 370.12141 94.928516 
L 370.53551 93.367742 
L 370.94961 93.367742 
L 371.15666 92.587355 
L 371.363711 92.587355 
L 371.570761 91.806968 
L 372.191911 91.806968 
L 372.398961 91.026581 
L 372.813061 91.026581 
L 373.020111 90.246194 
L 373.434212 90.246194 
L 373.641262 89.465806 
L 373.848312 89.465806 
L 374.055362 88.685419 
L 374.469462 88.685419 
L 374.676512 87.905032 
L 375.090612 87.905032 
L 375.297662 87.124645 
L 376.539963 87.124645 
L 376.747013 86.344258 
L 376.954063 83.22271 
L 377.368163 83.22271 
L 377.575213 82.442323 
L 377.782263 82.442323 
L 377.989314 81.661935 
L 378.196364 81.661935 
L 378.610464 80.101161 
L 379.438664 80.101161 
L 379.645714 79.320774 
L 379.852764 79.320774 
L 380.059814 78.540387 
L 380.266865 78.540387 
L 380.473915 77.76 
L 381.302115 77.76 
L 381.509165 76.199226 
L 382.337365 76.199226 
L 382.751466 74.638452 
L 383.165566 74.638452 
L 383.372616 73.858065 
L 383.786716 73.858065 
L 383.993766 73.077677 
L 384.407866 73.077677 
L 384.614917 72.29729 
L 384.821967 72.29729 
L 385.029017 71.516903 
L 385.857217 71.516903 
L 386.064267 70.736516 
L 386.478367 70.736516 
L 386.892468 69.175742 
L 387.513618 69.175742 
L 387.720668 68.395355 
L 388.548868 68.395355 
L 388.755918 67.614968 
L 389.170019 67.614968 
L 389.584119 66.054194 
L 390.619369 66.054194 
L 390.826419 65.273806 
L 391.44757 65.273806 
L 392.06872 62.932645 
L 392.68987 62.932645 
L 392.89692 62.152258 
L 394.139221 62.152258 
L 394.346271 60.591484 
L 395.174471 60.591484 
L 395.381521 59.03071 
L 396.002672 59.03071 
L 396.209722 58.250323 
L 396.623822 58.250323 
L 396.830872 57.469935 
L 397.037922 55.128774 
L 397.452022 55.128774 
L 397.659072 54.348387 
L 398.280223 54.348387 
L 398.487273 53.568 
L 398.487273 53.568 
" clip-path="url(#p5d08560689)" style="fill: none; stroke-dasharray: 1.85,0.8; stroke-dashoffset: 0; stroke: #bfbf00; stroke-width: 0.5"/>
   </g>
   <g id="patch_3">
    <path d="M 57.6 307.584 
L 57.6 41.472 
" style="fill: none; stroke: #000000; stroke-width: 0.8; stroke-linejoin: miter; stroke-linecap: square"/>
   </g>
   <g id="patch_4">
    <path d="M 414.72 307.584 
L 414.72 41.472 
" style="fill: none; stroke: #000000; stroke-width: 0.8; stroke-linejoin: miter; stroke-linecap: square"/>
   </g>
   <g id="patch_5">
    <path d="M 57.6 307.584 
L 414.72 307.584 
" style="fill: none; stroke: #000000; stroke-width: 0.8; stroke-linejoin: miter; stroke-linecap: square"/>
   </g>
   <g id="patch_6">
    <path d="M 57.6 41.472 
L 414.72 41.472 
" style="fill: none; stroke: #000000; stroke-width: 0.8; stroke-linejoin: miter; stroke-linecap: square"/>
   </g>
   <g id="text_18">
    <!-- count=1000, googlenet=125, resnet50=75, squeezenetv1=125, vgg19=75 -->
    <g transform="translate(38.16 35.472)scale(0.12 -0.12)">
     <defs>
      <path id="FangSong-63" d="M 2125 2125 
Q 2125 2200 2137 2225 
Q 2150 2250 2175 2325 
Q 2200 2425 2075 2562 
Q 1950 2700 1650 2700 
Q 1275 2700 1012 2337 
Q 750 1975 750 1375 
Q 750 825 975 487 
Q 1200 150 1725 150 
Q 2075 150 2312 375 
Q 2550 600 2650 900 
L 2775 850 
Q 2675 475 2400 212 
Q 2125 -50 1650 -50 
Q 1050 -50 700 325 
Q 350 700 350 1400 
Q 350 2025 725 2437 
Q 1100 2850 1700 2850 
Q 2125 2850 2362 2625 
Q 2600 2400 2600 2175 
Q 2600 2025 2537 1962 
Q 2475 1900 2350 1900 
Q 2250 1900 2187 1962 
Q 2125 2025 2125 2125 
z
" transform="scale(0.015625)"/>
      <path id="FangSong-6f" d="M 2875 1400 
Q 2875 775 2500 362 
Q 2125 -50 1575 -50 
Q 1000 -50 637 375 
Q 275 800 275 1400 
Q 275 1950 637 2400 
Q 1000 2850 1575 2850 
Q 2175 2850 2525 2400 
Q 2875 1950 2875 1400 
z
M 675 1375 
Q 675 725 937 412 
Q 1200 100 1575 100 
Q 2000 100 2237 437 
Q 2475 775 2475 1375 
Q 2475 2025 2212 2362 
Q 1950 2700 1575 2700 
Q 1225 2700 950 2362 
Q 675 2025 675 1375 
z
" transform="scale(0.015625)"/>
      <path id="FangSong-75" d="M 1425 225 
Q 1725 225 1937 375 
Q 2150 525 2250 850 
L 2250 2425 
Q 2250 2525 2200 2587 
Q 2150 2650 2025 2650 
L 1875 2650 
L 1875 2800 
L 2025 2800 
Q 2175 2800 2300 2825 
Q 2425 2850 2550 2950 
L 2600 2950 
L 2600 500 
Q 2600 400 2662 350 
Q 2725 300 2825 300 
L 2975 300 
L 2975 150 
L 2825 150 
Q 2700 150 2575 112 
Q 2450 75 2300 0 
L 2250 0 
L 2250 525 
Q 2125 250 1875 112 
Q 1625 -25 1300 -25 
Q 900 -25 700 200 
Q 500 425 500 925 
L 500 2425 
Q 500 2525 450 2587 
Q 400 2650 275 2650 
L 125 2650 
L 125 2800 
L 275 2800 
Q 425 2800 550 2825 
Q 675 2850 800 2950 
L 850 2950 
L 850 875 
Q 850 525 1000 375 
Q 1150 225 1425 225 
z
" transform="scale(0.015625)"/>
      <path id="FangSong-6e" d="M 175 0 
L 175 150 
L 300 150 
Q 425 150 475 200 
Q 525 250 525 350 
L 525 2500 
Q 525 2575 500 2612 
Q 475 2650 400 2650 
L 200 2650 
L 200 2800 
L 375 2800 
Q 500 2800 612 2825 
Q 725 2850 825 2925 
L 875 2925 
L 875 2350 
Q 1100 2600 1325 2725 
Q 1550 2850 1800 2850 
Q 2225 2850 2425 2625 
Q 2625 2400 2625 1950 
L 2625 350 
Q 2625 250 2687 200 
Q 2750 150 2850 150 
L 2975 150 
L 2975 0 
L 1925 0 
L 1925 150 
L 2050 150 
Q 2175 150 2225 200 
Q 2275 250 2275 350 
L 2275 2025 
Q 2275 2325 2150 2487 
Q 2025 2650 1775 2650 
Q 1550 2650 1312 2500 
Q 1075 2350 875 2075 
L 875 350 
Q 875 250 937 200 
Q 1000 150 1100 150 
L 1225 150 
L 1225 0 
L 175 0 
z
" transform="scale(0.015625)"/>
      <path id="FangSong-74" d="M 1475 800 
Q 1475 450 1600 325 
Q 1725 200 1975 200 
Q 2225 200 2375 362 
Q 2525 525 2575 825 
L 2700 775 
Q 2650 425 2437 200 
Q 2225 -25 1875 -25 
Q 1500 -25 1312 200 
Q 1125 425 1125 900 
L 1125 2650 
L 375 2650 
L 375 2800 
L 575 2800 
Q 875 2800 1062 2987 
Q 1250 3175 1300 3575 
L 1325 3775 
L 1475 3775 
L 1475 2800 
L 2475 2800 
L 2475 2650 
L 1475 2650 
L 1475 800 
z
" transform="scale(0.015625)"/>
      <path id="FangSong-3d" d="M 175 2725 
L 175 2950 
L 2950 2950 
L 2950 2725 
L 175 2725 
z
M 175 1450 
L 175 1675 
L 2950 1675 
L 2950 1450 
L 175 1450 
z
" transform="scale(0.015625)"/>
      <path id="FangSong-2c" d="M 1325 75 
Q 1200 25 1100 75 
Q 1000 125 962 237 
Q 925 350 925 437 
Q 925 525 987 612 
Q 1050 700 1150 737 
Q 1250 775 1425 725 
Q 1600 675 1650 500 
Q 1700 325 1662 150 
Q 1625 -25 1525 -200 
Q 1425 -375 1312 -475 
Q 1200 -575 1025 -675 
L 950 -575 
Q 1100 -450 1187 -312 
Q 1275 -175 1325 75 
z
" transform="scale(0.015625)"/>
      <path id="FangSong-20" transform="scale(0.015625)"/>
      <path id="FangSong-67" d="M 850 1875 
Q 850 1575 1025 1362 
Q 1200 1150 1500 1150 
Q 1825 1150 1987 1337 
Q 2150 1525 2150 1875 
Q 2150 2300 1962 2487 
Q 1775 2675 1500 2675 
Q 1225 2675 1037 2487 
Q 850 2300 850 1875 
z
M 2075 525 
Q 2450 475 2625 312 
Q 2800 150 2800 -125 
Q 2800 -500 2487 -725 
Q 2175 -950 1500 -950 
Q 975 -950 650 -737 
Q 325 -525 325 -250 
Q 325 -75 450 100 
Q 575 275 850 375 
Q 700 450 612 537 
Q 525 625 525 750 
Q 525 900 625 1012 
Q 725 1125 875 1200 
Q 725 1325 612 1500 
Q 500 1675 500 1875 
Q 500 2250 762 2537 
Q 1025 2825 1500 2825 
Q 1700 2825 1887 2775 
Q 2075 2725 2200 2600 
Q 2375 2725 2512 2787 
Q 2650 2850 2750 2850 
Q 2875 2850 2925 2762 
Q 2975 2675 2975 2600 
Q 2975 2500 2937 2437 
Q 2900 2375 2800 2375 
Q 2725 2375 2675 2412 
Q 2625 2450 2600 2525 
Q 2575 2600 2487 2587 
Q 2400 2575 2300 2500 
Q 2400 2400 2450 2225 
Q 2500 2050 2500 1875 
Q 2500 1575 2262 1287 
Q 2025 1000 1500 1000 
Q 1350 1000 1225 1037 
Q 1100 1075 1025 1125 
Q 925 1075 875 1000 
Q 825 925 825 875 
Q 825 775 875 725 
Q 925 675 1025 675 
Q 1350 625 1612 587 
Q 1875 550 2075 525 
z
M 1050 325 
Q 825 225 737 87 
Q 650 -50 650 -250 
Q 650 -450 875 -625 
Q 1100 -800 1550 -800 
Q 1975 -800 2225 -662 
Q 2475 -525 2475 -250 
Q 2475 -75 2412 25 
Q 2350 125 2225 150 
Q 1975 200 1675 237 
Q 1375 275 1050 325 
z
" transform="scale(0.015625)"/>
      <path id="FangSong-6c" d="M 900 4275 
Q 1125 4275 1325 4325 
Q 1525 4375 1700 4475 
L 1750 4475 
L 1750 350 
Q 1750 250 1812 200 
Q 1875 150 1975 150 
L 2550 150 
L 2550 0 
L 600 0 
L 600 150 
L 1175 150 
Q 1300 150 1350 200 
Q 1400 250 1400 350 
L 1400 3925 
Q 1400 4025 1350 4075 
Q 1300 4125 1175 4125 
L 625 4125 
L 625 4275 
L 900 4275 
z
" transform="scale(0.015625)"/>
      <path id="FangSong-65" d="M 2375 1550 
Q 2400 2100 2187 2387 
Q 1975 2675 1625 2675 
Q 1250 2675 1012 2375 
Q 775 2075 775 1550 
L 2375 1550 
z
M 775 1400 
Q 775 725 1037 437 
Q 1300 150 1725 150 
Q 2050 150 2275 337 
Q 2500 525 2600 800 
L 2725 750 
Q 2650 475 2387 212 
Q 2125 -50 1675 -50 
Q 1100 -50 737 325 
Q 375 700 375 1400 
Q 375 2025 737 2437 
Q 1100 2850 1625 2850 
Q 2100 2850 2450 2525 
Q 2800 2200 2800 1400 
L 775 1400 
z
" transform="scale(0.015625)"/>
      <path id="FangSong-35" d="M 1700 2750 
Q 2175 2750 2475 2387 
Q 2775 2025 2775 1425 
Q 2775 750 2462 350 
Q 2150 -50 1500 -50 
Q 1050 -50 700 212 
Q 350 475 350 850 
Q 350 1000 437 1112 
Q 525 1225 675 1225 
Q 825 1225 875 1125 
Q 925 1025 925 950 
Q 925 800 850 712 
Q 775 625 775 525 
Q 775 325 1012 225 
Q 1250 125 1525 125 
Q 1925 125 2137 450 
Q 2350 775 2350 1375 
Q 2350 1875 2162 2187 
Q 1975 2500 1600 2500 
Q 1325 2500 1125 2400 
Q 925 2300 750 1975 
L 525 2000 
L 650 4275 
L 2700 4275 
L 2625 3900 
L 825 3900 
L 725 2250 
Q 975 2600 1212 2675 
Q 1450 2750 1700 2750 
z
" transform="scale(0.015625)"/>
      <path id="FangSong-72" d="M 1250 2025 
Q 1500 2425 1787 2637 
Q 2075 2850 2375 2850 
Q 2625 2850 2762 2737 
Q 2900 2625 2900 2475 
Q 2900 2350 2837 2275 
Q 2775 2200 2650 2200 
Q 2525 2200 2462 2275 
Q 2400 2350 2425 2475 
Q 2425 2550 2400 2600 
Q 2375 2650 2250 2650 
Q 2050 2650 1762 2400 
Q 1475 2150 1250 1700 
L 1250 350 
Q 1250 250 1312 200 
Q 1375 150 1475 150 
L 2025 150 
L 2025 0 
L 175 0 
L 175 150 
L 675 150 
Q 800 150 850 200 
Q 900 250 900 350 
L 900 2425 
Q 900 2525 850 2587 
Q 800 2650 675 2650 
L 200 2650 
L 200 2800 
L 400 2800 
Q 575 2800 812 2837 
Q 1050 2875 1175 2925 
L 1250 2925 
L 1250 2025 
z
" transform="scale(0.015625)"/>
      <path id="FangSong-73" d="M 600 2075 
Q 600 2450 887 2650 
Q 1175 2850 1575 2850 
Q 1800 2850 2000 2787 
Q 2200 2725 2275 2725 
Q 2350 2725 2400 2750 
Q 2450 2775 2525 2850 
L 2625 2025 
L 2475 2000 
Q 2375 2325 2137 2512 
Q 1900 2700 1600 2700 
Q 1275 2700 1087 2575 
Q 900 2450 900 2225 
Q 900 2025 987 1912 
Q 1075 1800 1300 1750 
Q 1475 1675 1737 1587 
Q 2000 1500 2225 1400 
Q 2425 1300 2562 1137 
Q 2700 975 2700 775 
Q 2700 400 2437 187 
Q 2175 -25 1675 -25 
Q 1350 -25 1187 37 
Q 1025 100 925 100 
Q 850 100 762 62 
Q 675 25 575 -25 
L 500 900 
L 650 925 
Q 725 525 975 325 
Q 1225 125 1675 125 
Q 2025 125 2212 250 
Q 2400 375 2400 625 
Q 2400 800 2300 912 
Q 2200 1025 2100 1075 
Q 1850 1175 1550 1287 
Q 1250 1400 1025 1500 
Q 800 1600 700 1750 
Q 600 1900 600 2075 
z
" transform="scale(0.015625)"/>
      <path id="FangSong-37" d="M 2800 4100 
Q 2275 3250 1962 2437 
Q 1650 1625 1650 1025 
Q 1650 925 1662 737 
Q 1675 550 1675 300 
Q 1675 100 1612 25 
Q 1550 -50 1400 -50 
Q 1275 -50 1187 37 
Q 1100 125 1100 350 
Q 1100 825 1312 1525 
Q 1525 2225 2450 3900 
L 1200 3900 
Q 925 3900 762 3725 
Q 600 3550 525 3200 
L 375 3225 
L 550 4275 
L 2800 4275 
L 2800 4100 
z
" transform="scale(0.015625)"/>
      <path id="FangSong-71" d="M 2250 2150 
Q 2150 2375 1975 2512 
Q 1800 2650 1550 2650 
Q 1200 2650 950 2350 
Q 700 2050 700 1325 
Q 700 700 912 437 
Q 1125 175 1450 175 
Q 1725 175 1937 300 
Q 2150 425 2250 725 
L 2250 2150 
z
M 2600 -550 
Q 2600 -675 2662 -725 
Q 2725 -775 2825 -775 
L 2975 -775 
L 2975 -925 
L 1825 -925 
L 1825 -775 
L 2025 -775 
Q 2150 -775 2200 -725 
Q 2250 -675 2250 -550 
L 2250 375 
Q 2100 175 1887 75 
Q 1675 -25 1375 -25 
Q 950 -25 625 337 
Q 300 700 300 1400 
Q 300 2075 675 2450 
Q 1050 2825 1475 2825 
Q 1750 2825 1937 2725 
Q 2125 2625 2275 2475 
L 2500 2800 
L 2600 2800 
L 2600 -550 
z
" transform="scale(0.015625)"/>
      <path id="FangSong-7a" d="M 2725 975 
L 2550 0 
L 400 0 
L 400 125 
L 2125 2650 
L 1200 2650 
Q 975 2650 825 2487 
Q 675 2325 575 1925 
L 425 1950 
L 525 2800 
L 2575 2800 
L 2575 2725 
L 825 150 
L 1775 150 
Q 2100 150 2287 350 
Q 2475 550 2575 1000 
L 2725 975 
z
" transform="scale(0.015625)"/>
      <path id="FangSong-76" d="M 1600 -25 
L 1450 -25 
L 600 2425 
Q 575 2525 500 2587 
Q 425 2650 325 2650 
L 200 2650 
L 200 2800 
L 1275 2800 
L 1275 2650 
L 1175 2650 
Q 1025 2650 987 2575 
Q 950 2500 1000 2325 
L 1600 575 
L 1650 575 
L 2250 2300 
Q 2325 2475 2262 2562 
Q 2200 2650 2050 2650 
L 2000 2650 
L 2000 2800 
L 2900 2800 
L 2900 2650 
L 2850 2650 
Q 2700 2650 2612 2562 
Q 2525 2475 2450 2300 
L 1600 -25 
z
" transform="scale(0.015625)"/>
      <path id="FangSong-39" d="M 675 2950 
Q 675 2400 887 2112 
Q 1100 1825 1425 1825 
Q 1800 1825 2075 2175 
Q 2350 2525 2350 2825 
Q 2350 3425 2150 3787 
Q 1950 4150 1500 4150 
Q 1075 4150 875 3812 
Q 675 3475 675 2950 
z
M 1350 1600 
Q 850 1600 550 1912 
Q 250 2225 250 2925 
Q 250 3525 575 3925 
Q 900 4325 1500 4325 
Q 2125 4325 2475 3825 
Q 2825 3325 2825 2375 
Q 2825 1325 2412 637 
Q 2000 -50 1275 -50 
Q 950 -50 712 100 
Q 475 250 475 500 
Q 475 600 537 700 
Q 600 800 750 800 
Q 900 800 950 687 
Q 1000 575 1000 425 
Q 1000 325 1025 262 
Q 1050 200 1075 175 
Q 1100 150 1162 137 
Q 1225 125 1300 125 
Q 1750 125 2025 625 
Q 2300 1125 2350 2300 
Q 2225 2000 1975 1800 
Q 1725 1600 1350 1600 
z
" transform="scale(0.015625)"/>
     </defs>
     <use xlink:href="#FangSong-63"/>
     <use xlink:href="#FangSong-6f" x="50"/>
     <use xlink:href="#FangSong-75" x="100"/>
     <use xlink:href="#FangSong-6e" x="150"/>
     <use xlink:href="#FangSong-74" x="200"/>
     <use xlink:href="#FangSong-3d" x="250"/>
     <use xlink:href="#FangSong-31" x="300"/>
     <use xlink:href="#FangSong-30" x="350"/>
     <use xlink:href="#FangSong-30" x="400"/>
     <use xlink:href="#FangSong-30" x="450"/>
     <use xlink:href="#FangSong-2c" x="500"/>
     <use xlink:href="#FangSong-20" x="550"/>
     <use xlink:href="#FangSong-67" x="600"/>
     <use xlink:href="#FangSong-6f" x="650"/>
     <use xlink:href="#FangSong-6f" x="700"/>
     <use xlink:href="#FangSong-67" x="750"/>
     <use xlink:href="#FangSong-6c" x="800"/>
     <use xlink:href="#FangSong-65" x="850"/>
     <use xlink:href="#FangSong-6e" x="900"/>
     <use xlink:href="#FangSong-65" x="950"/>
     <use xlink:href="#FangSong-74" x="1000"/>
     <use xlink:href="#FangSong-3d" x="1050"/>
     <use xlink:href="#FangSong-31" x="1100"/>
     <use xlink:href="#FangSong-32" x="1150"/>
     <use xlink:href="#FangSong-35" x="1200"/>
     <use xlink:href="#FangSong-2c" x="1250"/>
     <use xlink:href="#FangSong-20" x="1300"/>
     <use xlink:href="#FangSong-72" x="1350"/>
     <use xlink:href="#FangSong-65" x="1400"/>
     <use xlink:href="#FangSong-73" x="1450"/>
     <use xlink:href="#FangSong-6e" x="1500"/>
     <use xlink:href="#FangSong-65" x="1550"/>
     <use xlink:href="#FangSong-74" x="1600"/>
     <use xlink:href="#FangSong-35" x="1650"/>
     <use xlink:href="#FangSong-30" x="1700"/>
     <use xlink:href="#FangSong-3d" x="1750"/>
     <use xlink:href="#FangSong-37" x="1800"/>
     <use xlink:href="#FangSong-35" x="1850"/>
     <use xlink:href="#FangSong-2c" x="1900"/>
     <use xlink:href="#FangSong-20" x="1950"/>
     <use xlink:href="#FangSong-73" x="2000"/>
     <use xlink:href="#FangSong-71" x="2050"/>
     <use xlink:href="#FangSong-75" x="2100"/>
     <use xlink:href="#FangSong-65" x="2150"/>
     <use xlink:href="#FangSong-65" x="2200"/>
     <use xlink:href="#FangSong-7a" x="2250"/>
     <use xlink:href="#FangSong-65" x="2300"/>
     <use xlink:href="#FangSong-6e" x="2350"/>
     <use xlink:href="#FangSong-65" x="2400"/>
     <use xlink:href="#FangSong-74" x="2450"/>
     <use xlink:href="#FangSong-76" x="2500"/>
     <use xlink:href="#FangSong-31" x="2550"/>
     <use xlink:href="#FangSong-3d" x="2600"/>
     <use xlink:href="#FangSong-31" x="2650"/>
     <use xlink:href="#FangSong-32" x="2700"/>
     <use xlink:href="#FangSong-35" x="2750"/>
     <use xlink:href="#FangSong-2c" x="2800"/>
     <use xlink:href="#FangSong-20" x="2850"/>
     <use xlink:href="#FangSong-76" x="2900"/>
     <use xlink:href="#FangSong-67" x="2950"/>
     <use xlink:href="#FangSong-67" x="3000"/>
     <use xlink:href="#FangSong-31" x="3050"/>
     <use xlink:href="#FangSong-39" x="3100"/>
     <use xlink:href="#FangSong-3d" x="3150"/>
     <use xlink:href="#FangSong-37" x="3200"/>
     <use xlink:href="#FangSong-35" x="3250"/>
    </g>
   </g>
   <g id="legend_1">
    <g id="patch_7">
     <path d="M 315.72 302.584 
L 407.72 302.584 
Q 409.72 302.584 409.72 300.584 
L 409.72 234.279312 
Q 409.72 232.279312 407.72 232.279312 
L 315.72 232.279312 
Q 313.72 232.279312 313.72 234.279312 
L 313.72 300.584 
Q 313.72 302.584 315.72 302.584 
z
" style="fill: #ffffff; opacity: 0.8; stroke: #cccccc; stroke-linejoin: miter"/>
    </g>
    <g id="line2d_21">
     <path d="M 317.72 239.779312 
L 327.72 239.779312 
L 337.72 239.779312 
" style="fill: none; stroke: #ff0000; stroke-linecap: square"/>
    </g>
    <g id="text_19">
     <!-- total -->
     <g transform="translate(345.72 243.279312)scale(0.1 -0.1)">
      <defs>
       <path id="FangSong-61" d="M 1200 -25 
Q 750 -25 500 187 
Q 250 400 250 675 
Q 250 1125 637 1412 
Q 1025 1700 2175 1825 
L 2175 2125 
Q 2175 2375 2062 2537 
Q 1950 2700 1550 2700 
Q 1125 2700 950 2562 
Q 775 2425 825 2275 
Q 875 2175 825 2075 
Q 775 1975 625 1975 
Q 525 1975 462 2037 
Q 400 2100 400 2225 
Q 400 2450 725 2650 
Q 1050 2850 1525 2850 
Q 2025 2850 2275 2662 
Q 2525 2475 2525 2125 
L 2525 475 
Q 2525 275 2562 237 
Q 2600 200 2700 200 
Q 2825 200 2875 312 
Q 2925 425 2925 625 
L 3050 625 
Q 3050 275 2925 137 
Q 2800 0 2600 0 
Q 2425 0 2325 75 
Q 2225 150 2175 325 
Q 1925 150 1712 62 
Q 1500 -25 1200 -25 
z
M 675 750 
Q 675 525 812 337 
Q 950 150 1250 150 
Q 1475 150 1700 237 
Q 1925 325 2175 500 
L 2175 1675 
Q 1325 1575 1000 1337 
Q 675 1100 675 750 
z
" transform="scale(0.015625)"/>
      </defs>
      <use xlink:href="#FangSong-74"/>
      <use xlink:href="#FangSong-6f" x="50"/>
      <use xlink:href="#FangSong-74" x="100"/>
      <use xlink:href="#FangSong-61" x="150"/>
      <use xlink:href="#FangSong-6c" x="200"/>
     </g>
    </g>
    <g id="line2d_22">
     <path d="M 317.72 253.224625 
L 327.72 253.224625 
L 337.72 253.224625 
" style="fill: none; stroke-dasharray: 1.85,0.8; stroke-dashoffset: 0; stroke: #008000; stroke-width: 0.5"/>
    </g>
    <g id="text_20">
     <!-- squeezenetv1 -->
     <g transform="translate(345.72 256.724625)scale(0.1 -0.1)">
      <use xlink:href="#FangSong-73"/>
      <use xlink:href="#FangSong-71" x="50"/>
      <use xlink:href="#FangSong-75" x="100"/>
      <use xlink:href="#FangSong-65" x="150"/>
      <use xlink:href="#FangSong-65" x="200"/>
      <use xlink:href="#FangSong-7a" x="250"/>
      <use xlink:href="#FangSong-65" x="300"/>
      <use xlink:href="#FangSong-6e" x="350"/>
      <use xlink:href="#FangSong-65" x="400"/>
      <use xlink:href="#FangSong-74" x="450"/>
      <use xlink:href="#FangSong-76" x="500"/>
      <use xlink:href="#FangSong-31" x="550"/>
     </g>
    </g>
    <g id="line2d_23">
     <path d="M 317.72 266.669937 
L 327.72 266.669937 
L 337.72 266.669937 
" style="fill: none; stroke-dasharray: 1.85,0.8; stroke-dashoffset: 0; stroke: #0000ff; stroke-width: 0.5"/>
    </g>
    <g id="text_21">
     <!-- googlenet -->
     <g transform="translate(345.72 270.169937)scale(0.1 -0.1)">
      <use xlink:href="#FangSong-67"/>
      <use xlink:href="#FangSong-6f" x="50"/>
      <use xlink:href="#FangSong-6f" x="100"/>
      <use xlink:href="#FangSong-67" x="150"/>
      <use xlink:href="#FangSong-6c" x="200"/>
      <use xlink:href="#FangSong-65" x="250"/>
      <use xlink:href="#FangSong-6e" x="300"/>
      <use xlink:href="#FangSong-65" x="350"/>
      <use xlink:href="#FangSong-74" x="400"/>
     </g>
    </g>
    <g id="line2d_24">
     <path d="M 317.72 280.154312 
L 327.72 280.154312 
L 337.72 280.154312 
" style="fill: none; stroke-dasharray: 1.85,0.8; stroke-dashoffset: 0; stroke: #bf00bf; stroke-width: 0.5"/>
    </g>
    <g id="text_22">
     <!-- resnet50 -->
     <g transform="translate(345.72 283.654312)scale(0.1 -0.1)">
      <use xlink:href="#FangSong-72"/>
      <use xlink:href="#FangSong-65" x="50"/>
      <use xlink:href="#FangSong-73" x="100"/>
      <use xlink:href="#FangSong-6e" x="150"/>
      <use xlink:href="#FangSong-65" x="200"/>
      <use xlink:href="#FangSong-74" x="250"/>
      <use xlink:href="#FangSong-35" x="300"/>
      <use xlink:href="#FangSong-30" x="350"/>
     </g>
    </g>
    <g id="line2d_25">
     <path d="M 317.72 293.599625 
L 327.72 293.599625 
L 337.72 293.599625 
" style="fill: none; stroke-dasharray: 1.85,0.8; stroke-dashoffset: 0; stroke: #bfbf00; stroke-width: 0.5"/>
    </g>
    <g id="text_23">
     <!-- vgg19 -->
     <g transform="translate(345.72 297.099625)scale(0.1 -0.1)">
      <use xlink:href="#FangSong-76"/>
      <use xlink:href="#FangSong-67" x="50"/>
      <use xlink:href="#FangSong-67" x="100"/>
      <use xlink:href="#FangSong-31" x="150"/>
      <use xlink:href="#FangSong-39" x="200"/>
     </g>
    </g>
   </g>
  </g>
 </g>
 <defs>
  <clipPath id="p5d08560689">
   <rect x="57.6" y="41.472" width="357.12" height="266.112"/>
  </clipPath>
 </defs>
</svg>
