<?xml version="1.0" encoding="utf-8" standalone="no"?>
<!DOCTYPE svg PUBLIC "-//W3C//DTD SVG 1.1//EN"
  "http://www.w3.org/Graphics/SVG/1.1/DTD/svg11.dtd">
<svg xmlns:xlink="http://www.w3.org/1999/xlink" width="460.8pt" height="345.6pt" viewBox="0 0 460.8 345.6" xmlns="http://www.w3.org/2000/svg" version="1.1">
 <metadata>
  <rdf:RDF xmlns:dc="http://purl.org/dc/elements/1.1/" xmlns:cc="http://creativecommons.org/ns#" xmlns:rdf="http://www.w3.org/1999/02/22-rdf-syntax-ns#">
   <cc:Work>
    <dc:type rdf:resource="http://purl.org/dc/dcmitype/StillImage"/>
    <dc:date>2023-01-17T16:26:35.906225</dc:date>
    <dc:format>image/svg+xml</dc:format>
    <dc:creator>
     <cc:Agent>
      <dc:title>Matplotlib v3.5.2, https://matplotlib.org/</dc:title>
     </cc:Agent>
    </dc:creator>
   </cc:Work>
  </rdf:RDF>
 </metadata>
 <defs>
  <style type="text/css">*{stroke-linejoin: round; stroke-linecap: butt}</style>
 </defs>
 <g id="figure_1">
  <g id="patch_1">
   <path d="M 0 345.6 
L 460.8 345.6 
L 460.8 0 
L 0 0 
z
" style="fill: #ffffff"/>
  </g>
  <g id="axes_1">
   <g id="patch_2">
    <path d="M 57.6 307.584 
L 414.72 307.584 
L 414.72 41.472 
L 57.6 41.472 
z
" style="fill: #ffffff"/>
   </g>
   <g id="matplotlib.axis_1">
    <g id="xtick_1">
     <g id="line2d_1">
      <defs>
       <path id="m472811c3eb" d="M 0 0 
L 0 3.5 
" style="stroke: #000000; stroke-width: 0.8"/>
      </defs>
      <g>
       <use xlink:href="#m472811c3eb" x="71.610588" y="307.584" style="stroke: #000000; stroke-width: 0.8"/>
      </g>
     </g>
     <g id="text_1">
      <!-- 0 -->
      <g transform="translate(69.110588 321.576187)scale(0.1 -0.1)">
       <defs>
        <path id="FangSong-30" d="M 1575 4125 
Q 1225 4125 987 3587 
Q 750 3050 750 2150 
Q 750 1200 987 675 
Q 1225 150 1575 150 
Q 1950 150 2162 675 
Q 2375 1200 2375 2150 
Q 2375 3050 2175 3587 
Q 1975 4125 1575 4125 
z
M 1575 -50 
Q 1025 -50 650 525 
Q 275 1100 275 2150 
Q 275 3125 637 3725 
Q 1000 4325 1575 4325 
Q 2125 4325 2487 3750 
Q 2850 3175 2850 2150 
Q 2850 1125 2487 537 
Q 2125 -50 1575 -50 
z
" transform="scale(0.015625)"/>
       </defs>
       <use xlink:href="#FangSong-30"/>
      </g>
     </g>
    </g>
    <g id="xtick_2">
     <g id="line2d_2">
      <g>
       <use xlink:href="#m472811c3eb" x="116.053373" y="307.584" style="stroke: #000000; stroke-width: 0.8"/>
      </g>
     </g>
     <g id="text_2">
      <!-- 20 -->
      <g transform="translate(111.053373 321.576187)scale(0.1 -0.1)">
       <defs>
        <path id="FangSong-32" d="M 2300 3225 
Q 2300 3675 2100 3912 
Q 1900 4150 1500 4150 
Q 1200 4150 987 3987 
Q 775 3825 775 3575 
Q 775 3425 862 3325 
Q 950 3225 950 3125 
Q 950 3000 887 2937 
Q 825 2875 700 2875 
Q 550 2875 462 2962 
Q 375 3050 375 3250 
Q 375 3775 750 4050 
Q 1125 4325 1550 4325 
Q 2150 4325 2437 4025 
Q 2725 3725 2725 3275 
Q 2725 2975 2587 2675 
Q 2450 2375 2150 2100 
Q 1425 1400 1037 962 
Q 650 525 575 375 
L 2050 375 
Q 2275 375 2425 550 
Q 2575 725 2625 1075 
L 2775 1075 
L 2625 0 
L 300 0 
L 300 325 
Q 425 550 712 900 
Q 1000 1250 1475 1725 
Q 1900 2150 2100 2525 
Q 2300 2900 2300 3225 
z
" transform="scale(0.015625)"/>
       </defs>
       <use xlink:href="#FangSong-32"/>
       <use xlink:href="#FangSong-30" x="50"/>
      </g>
     </g>
    </g>
    <g id="xtick_3">
     <g id="line2d_3">
      <g>
       <use xlink:href="#m472811c3eb" x="160.496158" y="307.584" style="stroke: #000000; stroke-width: 0.8"/>
      </g>
     </g>
     <g id="text_3">
      <!-- 40 -->
      <g transform="translate(155.496158 321.576187)scale(0.1 -0.1)">
       <defs>
        <path id="FangSong-34" d="M 2275 475 
Q 2275 300 2375 225 
Q 2475 150 2650 150 
L 2875 150 
L 2875 0 
L 1225 0 
L 1225 150 
L 1500 150 
Q 1700 150 1787 225 
Q 1875 300 1875 475 
L 1875 1300 
L 200 1300 
L 200 1425 
L 2025 4325 
L 2275 4325 
L 2275 1450 
L 2950 1450 
L 2950 1300 
L 2275 1300 
L 2275 475 
z
M 1850 3700 
L 425 1450 
L 1875 1450 
L 1875 3700 
L 1850 3700 
z
" transform="scale(0.015625)"/>
       </defs>
       <use xlink:href="#FangSong-34"/>
       <use xlink:href="#FangSong-30" x="50"/>
      </g>
     </g>
    </g>
    <g id="xtick_4">
     <g id="line2d_4">
      <g>
       <use xlink:href="#m472811c3eb" x="204.938943" y="307.584" style="stroke: #000000; stroke-width: 0.8"/>
      </g>
     </g>
     <g id="text_4">
      <!-- 60 -->
      <g transform="translate(199.938943 321.576187)scale(0.1 -0.1)">
       <defs>
        <path id="FangSong-36" d="M 750 1700 
Q 750 950 1012 537 
Q 1275 125 1650 125 
Q 2025 125 2225 400 
Q 2425 675 2425 1425 
Q 2425 1925 2212 2200 
Q 2000 2475 1700 2475 
Q 1425 2475 1187 2312 
Q 950 2150 750 1700 
z
M 1725 2725 
Q 2325 2725 2587 2325 
Q 2850 1925 2850 1425 
Q 2850 675 2487 312 
Q 2125 -50 1650 -50 
Q 975 -50 625 462 
Q 275 975 275 1950 
Q 275 3100 700 3712 
Q 1125 4325 1850 4325 
Q 2200 4325 2412 4125 
Q 2625 3925 2625 3775 
Q 2625 3625 2562 3550 
Q 2500 3475 2350 3475 
Q 2225 3475 2162 3537 
Q 2100 3600 2100 3725 
Q 2100 3775 2112 3825 
Q 2125 3875 2125 3925 
Q 2125 4025 2050 4087 
Q 1975 4150 1775 4150 
Q 1350 4150 1050 3762 
Q 750 3375 750 2075 
Q 900 2400 1162 2562 
Q 1425 2725 1725 2725 
z
" transform="scale(0.015625)"/>
       </defs>
       <use xlink:href="#FangSong-36"/>
       <use xlink:href="#FangSong-30" x="50"/>
      </g>
     </g>
    </g>
    <g id="xtick_5">
     <g id="line2d_5">
      <g>
       <use xlink:href="#m472811c3eb" x="249.381729" y="307.584" style="stroke: #000000; stroke-width: 0.8"/>
      </g>
     </g>
     <g id="text_5">
      <!-- 80 -->
      <g transform="translate(244.381729 321.576187)scale(0.1 -0.1)">
       <defs>
        <path id="FangSong-38" d="M 600 1025 
Q 600 625 862 375 
Q 1125 125 1525 125 
Q 2000 125 2212 375 
Q 2425 625 2425 1000 
Q 2425 1325 2125 1625 
Q 1825 1925 1225 2175 
Q 925 1975 762 1675 
Q 600 1375 600 1025 
z
M 2800 1075 
Q 2800 600 2450 275 
Q 2100 -50 1525 -50 
Q 1000 -50 625 275 
Q 250 600 250 1025 
Q 250 1450 462 1750 
Q 675 2050 1075 2275 
Q 725 2450 537 2712 
Q 350 2975 350 3300 
Q 350 3725 675 4025 
Q 1000 4325 1575 4325 
Q 2100 4325 2425 4025 
Q 2750 3725 2750 3300 
Q 2750 3000 2562 2737 
Q 2375 2475 1975 2275 
Q 2400 2025 2600 1725 
Q 2800 1425 2800 1075 
z
M 2400 3275 
Q 2400 3625 2200 3887 
Q 2000 4150 1575 4150 
Q 1100 4150 900 3900 
Q 700 3650 700 3375 
Q 700 3100 987 2837 
Q 1275 2575 1800 2375 
Q 2100 2525 2250 2750 
Q 2400 2975 2400 3275 
z
" transform="scale(0.015625)"/>
       </defs>
       <use xlink:href="#FangSong-38"/>
       <use xlink:href="#FangSong-30" x="50"/>
      </g>
     </g>
    </g>
    <g id="xtick_6">
     <g id="line2d_6">
      <g>
       <use xlink:href="#m472811c3eb" x="293.824514" y="307.584" style="stroke: #000000; stroke-width: 0.8"/>
      </g>
     </g>
     <g id="text_6">
      <!-- 100 -->
      <g transform="translate(286.324514 321.576187)scale(0.1 -0.1)">
       <defs>
        <path id="FangSong-31" d="M 1800 4350 
L 1800 550 
Q 1800 350 1925 250 
Q 2050 150 2275 150 
L 2525 150 
L 2525 0 
L 700 0 
L 700 150 
L 925 150 
Q 1175 150 1287 250 
Q 1400 350 1400 550 
L 1400 3575 
Q 1400 3675 1337 3737 
Q 1275 3800 1150 3800 
L 700 3800 
L 700 3950 
L 925 3950 
Q 1225 3950 1412 4050 
Q 1600 4150 1700 4350 
L 1800 4350 
z
" transform="scale(0.015625)"/>
       </defs>
       <use xlink:href="#FangSong-31"/>
       <use xlink:href="#FangSong-30" x="50"/>
       <use xlink:href="#FangSong-30" x="100"/>
      </g>
     </g>
    </g>
    <g id="xtick_7">
     <g id="line2d_7">
      <g>
       <use xlink:href="#m472811c3eb" x="338.267299" y="307.584" style="stroke: #000000; stroke-width: 0.8"/>
      </g>
     </g>
     <g id="text_7">
      <!-- 120 -->
      <g transform="translate(330.767299 321.576187)scale(0.1 -0.1)">
       <use xlink:href="#FangSong-31"/>
       <use xlink:href="#FangSong-32" x="50"/>
       <use xlink:href="#FangSong-30" x="100"/>
      </g>
     </g>
    </g>
    <g id="xtick_8">
     <g id="line2d_8">
      <g>
       <use xlink:href="#m472811c3eb" x="382.710084" y="307.584" style="stroke: #000000; stroke-width: 0.8"/>
      </g>
     </g>
     <g id="text_8">
      <!-- 140 -->
      <g transform="translate(375.210084 321.576187)scale(0.1 -0.1)">
       <use xlink:href="#FangSong-31"/>
       <use xlink:href="#FangSong-34" x="50"/>
       <use xlink:href="#FangSong-30" x="100"/>
      </g>
     </g>
    </g>
    <g id="text_9">
     <!-- 响应比 -->
     <g transform="translate(221.16 334.873062)scale(0.1 -0.1)">
      <defs>
       <path id="FangSong-54cd" d="M 2700 -200 
Q 2725 -650 2625 -525 
L 2375 -125 
Q 2500 50 2475 350 
L 2500 3200 
Q 2500 3625 2425 4100 
L 2500 4125 
L 2725 3575 
L 3300 3625 
Q 3550 4225 3675 4637 
Q 3800 5050 3700 5150 
L 3775 5200 
L 4125 4750 
Q 4050 4800 3900 4512 
Q 3750 4225 3500 3650 
L 5275 3850 
L 5425 4125 
L 5725 3850 
L 5575 3650 
Q 5500 -175 5175 -675 
Q 4800 -275 4175 250 
L 4225 350 
L 5050 -175 
Q 5275 525 5325 3625 
L 2725 3325 
L 2700 -200 
z
M 725 3250 
Q 725 3575 625 3925 
L 725 3975 
L 950 3525 
L 1750 3650 
L 1875 3875 
L 2175 3650 
L 2000 3450 
L 1925 2175 
L 2125 1950 
L 1000 1800 
Q 1025 1275 900 1350 
L 650 1750 
Q 775 1850 750 2150 
L 725 3250 
z
M 3550 1250 
Q 3575 950 3500 875 
L 3225 1200 
Q 3300 1350 3300 1525 
L 3275 2325 
Q 3275 2700 3200 2875 
L 3275 2925 
L 3500 2625 
L 4350 2725 
L 4500 2925 
L 4775 2675 
L 4600 2475 
L 4525 1575 
L 4750 1400 
L 3550 1250 
z
M 975 3275 
L 1000 2050 
L 1675 2150 
L 1775 3425 
L 975 3275 
z
M 4350 2475 
L 3500 2375 
L 3525 1500 
L 4275 1575 
L 4350 2475 
z
" transform="scale(0.015625)"/>
       <path id="FangSong-5e94" d="M 1625 4400 
L 1800 3800 
Q 5075 4050 5200 4175 
L 5525 3850 
Q 5200 3900 1825 3550 
Q 1775 2450 1675 1825 
Q 1575 1200 1312 612 
Q 1050 25 500 -600 
L 425 -525 
Q 850 50 1100 675 
Q 1350 1300 1425 1862 
Q 1500 2425 1550 3150 
Q 1600 3875 1550 4375 
L 1625 4400 
z
M 4725 3175 
L 5100 2725 
Q 5000 2800 4750 2112 
Q 4500 1425 4000 150 
Q 5425 225 5400 275 
L 5725 0 
Q 5425 0 3687 -112 
Q 1950 -225 1725 -275 
L 1350 25 
Q 2150 0 3800 125 
Q 4300 1500 4525 2200 
Q 4750 2900 4650 3125 
L 4725 3175 
z
M 2900 1150 
Q 2800 975 2650 725 
Q 2450 1625 2175 2550 
L 2275 2575 
Q 2600 1850 2900 1150 
z
M 3775 1550 
Q 3675 1350 3525 1150 
Q 3475 1600 3075 3050 
L 3150 3075 
Q 3475 2300 3775 1550 
z
M 3500 4100 
Q 3275 4675 3000 5225 
L 3075 5275 
Q 3375 4900 3700 4525 
Q 3600 4325 3500 4100 
z
" transform="scale(0.015625)"/>
       <path id="FangSong-6bd4" d="M 3500 2125 
Q 3925 2425 4487 2975 
Q 5050 3525 4950 3750 
L 5025 3775 
L 5250 3225 
Q 5175 3250 4875 3000 
Q 4575 2750 4287 2525 
Q 4000 2300 3500 1900 
L 3500 575 
Q 3475 -100 4150 -100 
L 4800 -100 
Q 5275 -100 5375 12 
Q 5475 125 5450 1350 
L 5575 1350 
Q 5600 825 5637 412 
Q 5675 0 5800 -175 
Q 5375 -325 4800 -325 
L 4150 -325 
Q 3225 -350 3275 550 
L 3275 4300 
Q 3275 4875 3150 5150 
L 3200 5200 
L 3625 4850 
Q 3475 4825 3500 4250 
L 3500 2125 
z
M 1500 2575 
Q 1900 2625 2337 2712 
Q 2775 2800 2800 2850 
L 3075 2600 
Q 2875 2575 2350 2475 
Q 1825 2375 1775 2325 
L 1500 2525 
L 1500 150 
L 2925 1075 
L 2975 1025 
Q 1550 -75 1375 -350 
L 1200 0 
Q 1275 75 1275 350 
L 1275 3925 
Q 1275 4475 1150 4750 
L 1200 4800 
L 1625 4400 
Q 1475 4375 1500 3925 
L 1500 2575 
z
" transform="scale(0.015625)"/>
      </defs>
      <use xlink:href="#FangSong-54cd"/>
      <use xlink:href="#FangSong-5e94" x="100"/>
      <use xlink:href="#FangSong-6bd4" x="200"/>
     </g>
    </g>
   </g>
   <g id="matplotlib.axis_2">
    <g id="ytick_1">
     <g id="line2d_9">
      <defs>
       <path id="ma1876636f0" d="M 0 0 
L -3.5 0 
" style="stroke: #000000; stroke-width: 0.8"/>
      </defs>
      <g>
       <use xlink:href="#ma1876636f0" x="57.6" y="295.488" style="stroke: #000000; stroke-width: 0.8"/>
      </g>
     </g>
     <g id="text_10">
      <!-- 0% -->
      <g transform="translate(40.6 298.984094)scale(0.1 -0.1)">
       <defs>
        <path id="FangSong-25" d="M 725 4150 
Q 575 4150 475 3950 
Q 375 3750 375 3200 
Q 375 2575 487 2387 
Q 600 2200 725 2200 
Q 900 2200 987 2425 
Q 1075 2650 1075 3200 
Q 1075 3650 1012 3900 
Q 950 4150 725 4150 
z
M 1400 3175 
Q 1400 2725 1250 2387 
Q 1100 2050 725 2050 
Q 425 2050 237 2350 
Q 50 2650 50 3175 
Q 50 3725 250 4025 
Q 450 4325 725 4325 
Q 1025 4325 1212 4012 
Q 1400 3700 1400 3175 
z
M 2700 1100 
Q 2700 1525 2625 1800 
Q 2550 2075 2350 2075 
Q 2200 2075 2100 1837 
Q 2000 1600 2000 1100 
Q 2000 475 2112 300 
Q 2225 125 2350 125 
Q 2525 125 2612 337 
Q 2700 550 2700 1100 
z
M 3025 1075 
Q 3025 575 2850 262 
Q 2675 -50 2350 -50 
Q 2075 -50 1875 262 
Q 1675 575 1675 1075 
Q 1675 1625 1875 1937 
Q 2075 2250 2350 2250 
Q 2650 2250 2837 1925 
Q 3025 1600 3025 1075 
z
M 2500 4250 
L 700 -50 
L 550 25 
L 2325 4325 
L 2500 4250 
z
" transform="scale(0.015625)"/>
       </defs>
       <use xlink:href="#FangSong-30"/>
       <use xlink:href="#FangSong-25" x="50"/>
      </g>
     </g>
    </g>
    <g id="ytick_2">
     <g id="line2d_10">
      <g>
       <use xlink:href="#ma1876636f0" x="57.6" y="247.104" style="stroke: #000000; stroke-width: 0.8"/>
      </g>
     </g>
     <g id="text_11">
      <!-- 20% -->
      <g transform="translate(35.6 250.600094)scale(0.1 -0.1)">
       <use xlink:href="#FangSong-32"/>
       <use xlink:href="#FangSong-30" x="50"/>
       <use xlink:href="#FangSong-25" x="100"/>
      </g>
     </g>
    </g>
    <g id="ytick_3">
     <g id="line2d_11">
      <g>
       <use xlink:href="#ma1876636f0" x="57.6" y="198.72" style="stroke: #000000; stroke-width: 0.8"/>
      </g>
     </g>
     <g id="text_12">
      <!-- 40% -->
      <g transform="translate(35.6 202.216094)scale(0.1 -0.1)">
       <use xlink:href="#FangSong-34"/>
       <use xlink:href="#FangSong-30" x="50"/>
       <use xlink:href="#FangSong-25" x="100"/>
      </g>
     </g>
    </g>
    <g id="ytick_4">
     <g id="line2d_12">
      <g>
       <use xlink:href="#ma1876636f0" x="57.6" y="150.336" style="stroke: #000000; stroke-width: 0.8"/>
      </g>
     </g>
     <g id="text_13">
      <!-- 60% -->
      <g transform="translate(35.6 153.832094)scale(0.1 -0.1)">
       <use xlink:href="#FangSong-36"/>
       <use xlink:href="#FangSong-30" x="50"/>
       <use xlink:href="#FangSong-25" x="100"/>
      </g>
     </g>
    </g>
    <g id="ytick_5">
     <g id="line2d_13">
      <g>
       <use xlink:href="#ma1876636f0" x="57.6" y="101.952" style="stroke: #000000; stroke-width: 0.8"/>
      </g>
     </g>
     <g id="text_14">
      <!-- 80% -->
      <g transform="translate(35.6 105.448094)scale(0.1 -0.1)">
       <use xlink:href="#FangSong-38"/>
       <use xlink:href="#FangSong-30" x="50"/>
       <use xlink:href="#FangSong-25" x="100"/>
      </g>
     </g>
    </g>
    <g id="ytick_6">
     <g id="line2d_14">
      <g>
       <use xlink:href="#ma1876636f0" x="57.6" y="53.568" style="stroke: #000000; stroke-width: 0.8"/>
      </g>
     </g>
     <g id="text_15">
      <!-- 100% -->
      <g transform="translate(30.6 57.064094)scale(0.1 -0.1)">
       <use xlink:href="#FangSong-31"/>
       <use xlink:href="#FangSong-30" x="50"/>
       <use xlink:href="#FangSong-30" x="100"/>
       <use xlink:href="#FangSong-25" x="150"/>
      </g>
     </g>
    </g>
    <g id="text_16">
     <!-- 累计完成比例 -->
     <g transform="translate(25.154688 204.528)rotate(-90)scale(0.1 -0.1)">
      <defs>
       <path id="FangSong-7d2f" d="M 4525 4975 
L 4700 5225 
L 5000 4950 
L 4825 4775 
L 4625 3550 
L 4850 3300 
L 3175 3150 
L 3375 2975 
Q 3200 2925 2862 2725 
Q 2525 2525 2075 2275 
L 3475 2500 
Q 3750 2675 3900 2800 
Q 4050 2925 4100 3075 
L 4175 3100 
L 4325 2700 
Q 4200 2675 3500 2237 
Q 2800 1800 2275 1550 
L 4375 1825 
L 3900 2175 
L 4000 2275 
Q 4625 1900 4950 1725 
Q 4975 1475 4925 1225 
Q 4800 1375 4500 1675 
L 3250 1475 
L 3525 1300 
Q 3375 1200 3375 875 
L 3375 25 
Q 3375 -325 3225 -625 
Q 2975 -325 2400 150 
L 2450 250 
L 3050 -75 
Q 3150 -125 3150 0 
L 3150 925 
Q 3150 1300 3125 1450 
Q 1875 1275 1575 1175 
L 1325 1425 
L 1850 1550 
Q 2175 1700 3250 2300 
Q 2075 2100 1875 2000 
L 1575 2250 
L 1800 2300 
Q 2150 2475 3025 3125 
L 2000 3025 
Q 2000 2675 1950 2700 
Q 1900 2725 1650 3025 
Q 1725 3250 1725 3425 
L 1650 4400 
Q 1625 4675 1525 4950 
L 1625 5000 
L 1875 4675 
L 4525 4975 
z
M 3150 3375 
L 3150 3875 
Q 2525 3800 2400 3725 
L 2100 3975 
Q 2500 3975 3150 4075 
L 3150 4600 
L 1900 4450 
L 1975 3250 
L 3150 3375 
z
M 3375 4100 
Q 3950 4175 4025 4225 
L 4275 4000 
Q 3950 3975 3375 3900 
L 3375 3400 
L 4400 3500 
L 4575 4750 
L 3375 4600 
L 3375 4100 
z
M 5450 -75 
Q 4975 325 3875 1025 
L 3950 1125 
Q 4850 700 5350 500 
Q 5425 250 5450 -75 
z
M 800 -250 
Q 1350 75 1825 500 
Q 2300 925 2325 1125 
L 2400 1150 
L 2550 725 
Q 2425 700 2075 425 
Q 1725 150 875 -350 
L 800 -250 
z
" transform="scale(0.015625)"/>
       <path id="FangSong-8ba1" d="M 4075 4200 
Q 4100 4825 3900 5100 
L 3975 5150 
L 4450 4725 
Q 4275 4600 4300 4200 
L 4275 3000 
Q 5525 3200 5575 3250 
L 5950 2950 
Q 5725 2975 4275 2800 
L 4250 -425 
Q 4250 -700 4150 -575 
L 3875 -150 
Q 4050 50 4025 300 
L 4050 2750 
Q 2975 2625 2900 2575 
L 2525 2825 
Q 2850 2825 4050 2975 
L 4075 4200 
z
M 1775 3250 
L 2100 2950 
L 1900 2750 
L 1875 550 
L 2825 1250 
L 2875 1175 
Q 1875 250 1750 -25 
L 1525 275 
Q 1625 375 1650 625 
L 1675 2775 
Q 900 2625 750 2550 
L 425 2800 
Q 850 2825 1650 3000 
L 1775 3250 
z
M 2025 3800 
Q 1825 4300 1325 4950 
L 1375 5025 
Q 1925 4575 2175 4300 
Q 2125 4000 2025 3800 
z
" transform="scale(0.015625)"/>
       <path id="FangSong-5b8c" d="M 5375 2050 
Q 4925 2050 3550 1950 
L 3850 1750 
Q 3725 1600 3700 1375 
L 3675 275 
Q 3650 -125 4075 -175 
L 4925 -175 
Q 5300 -150 5312 62 
Q 5325 275 5325 1025 
L 5425 1025 
Q 5450 750 5475 337 
Q 5500 -75 5700 -275 
Q 5400 -375 5000 -400 
L 4075 -400 
Q 3425 -350 3425 150 
L 3475 1450 
Q 3475 1775 3425 1925 
L 2675 1850 
L 2875 1650 
Q 2750 1550 2600 1200 
Q 2450 850 2025 312 
Q 1600 -225 600 -675 
L 550 -575 
Q 1525 -100 1987 625 
Q 2450 1350 2525 1850 
Q 1550 1775 1500 1725 
L 1150 2025 
Q 1625 2025 3212 2150 
Q 4800 2275 5000 2350 
L 5375 2050 
z
M 1650 3650 
Q 1550 3125 1325 2875 
L 1150 3250 
Q 1450 3425 1575 4400 
L 1675 4400 
L 1675 3900 
L 5025 4150 
L 5175 4400 
L 5525 4075 
Q 5375 4050 4725 3250 
L 4650 3325 
L 4975 3900 
L 1650 3650 
z
M 4475 2975 
Q 4225 2975 3412 2875 
Q 2600 2775 2400 2725 
L 2050 2975 
Q 2575 2975 3200 3075 
Q 3825 3175 4150 3225 
L 4475 2975 
z
M 3550 4575 
Q 3475 4350 3300 4150 
Q 3225 4475 2900 5200 
L 2975 5250 
Q 3350 4825 3550 4575 
z
" transform="scale(0.015625)"/>
       <path id="FangSong-6210" d="M 5575 975 
Q 5600 -150 5750 -625 
Q 4650 -225 4000 1075 
Q 3625 650 2975 225 
L 2925 325 
Q 3525 825 3900 1300 
Q 3600 2275 3500 3300 
L 1875 3125 
Q 1875 2625 1825 2100 
L 2725 2250 
L 2875 2475 
L 3175 2225 
L 3000 2050 
Q 2850 475 2575 -125 
Q 2225 400 1825 775 
L 1875 850 
L 2475 400 
Q 2650 875 2750 2000 
L 1825 1850 
Q 1675 250 600 -650 
L 525 -600 
Q 1250 250 1425 987 
Q 1600 1725 1625 2612 
Q 1650 3500 1550 3800 
L 1625 3825 
L 1850 3350 
L 3450 3525 
Q 3400 4150 3375 4562 
Q 3350 4975 3225 5200 
L 3275 5225 
L 3725 4900 
Q 3625 4925 3637 4575 
Q 3650 4225 3675 3550 
Q 4900 3700 5050 3775 
L 5325 3475 
Q 4775 3475 3725 3325 
Q 3775 2425 4075 1525 
Q 4500 2025 4687 2325 
Q 4875 2625 4800 2850 
L 4875 2875 
L 5125 2325 
Q 5075 2400 4850 2125 
Q 4625 1850 4150 1275 
Q 4625 225 5425 -125 
L 5475 975 
L 5575 975 
z
M 4100 5000 
Q 4525 4700 4875 4450 
Q 4825 4250 4750 4025 
Q 4400 4525 4025 4950 
L 4100 5000 
z
" transform="scale(0.015625)"/>
       <path id="FangSong-4f8b" d="M 3050 2000 
Q 3025 1800 2975 1600 
Q 2775 1900 2525 2250 
Q 2300 1875 2025 1550 
L 1925 1625 
Q 2675 2725 2975 3975 
Q 2475 3925 2375 3875 
L 2050 4125 
Q 2375 4125 3162 4225 
Q 3950 4325 4100 4450 
L 4350 4125 
Q 4050 4150 3100 3975 
L 3300 3700 
Q 3200 3675 3125 3525 
Q 3050 3375 2925 3050 
L 3625 3150 
L 3775 3350 
L 4050 3075 
L 3875 2900 
Q 3300 825 1850 -225 
L 1800 -100 
Q 3100 975 3625 2900 
Q 3150 2825 3025 2775 
L 2875 2925 
Q 2775 2675 2575 2350 
Q 2900 2125 3050 2000 
z
M 1275 -150 
Q 1425 25 1400 225 
L 1450 3425 
Q 1025 2800 475 2225 
L 400 2325 
Q 875 2850 1450 3887 
Q 2025 4925 1925 5150 
L 2000 5175 
L 2250 4700 
Q 2200 4725 2062 4475 
Q 1925 4225 1675 3800 
L 1625 -325 
Q 1650 -675 1525 -600 
L 1275 -150 
z
M 5475 250 
Q 5475 -300 5300 -650 
Q 4900 -100 4300 375 
L 4350 475 
L 5200 -75 
Q 5250 250 5250 575 
L 5250 4350 
Q 5275 4950 5100 5150 
L 5175 5225 
L 5600 4850 
Q 5450 4775 5475 4325 
L 5475 250 
z
M 4300 1525 
Q 4400 1650 4400 1900 
L 4400 3075 
Q 4425 3525 4300 3750 
L 4350 3800 
L 4725 3450 
Q 4600 3350 4625 3025 
L 4625 1375 
Q 4625 1050 4550 1125 
L 4300 1525 
z
" transform="scale(0.015625)"/>
      </defs>
      <use xlink:href="#FangSong-7d2f"/>
      <use xlink:href="#FangSong-8ba1" x="100"/>
      <use xlink:href="#FangSong-5b8c" x="200"/>
      <use xlink:href="#FangSong-6210" x="300"/>
      <use xlink:href="#FangSong-6bd4" x="400"/>
      <use xlink:href="#FangSong-4f8b" x="500"/>
     </g>
    </g>
   </g>
   <g id="line2d_15">
    <path d="M 73.832727 295.488 
L 74.054941 295.24608 
L 74.277155 294.52032 
L 74.499369 294.2784 
L 74.721583 290.89152 
L 75.166011 274.68288 
L 76.27708 227.7504 
L 76.943722 198.72 
L 77.38815 182.02752 
L 77.832578 166.30272 
L 78.721434 147.67488 
L 79.388075 137.75616 
L 79.610289 135.09504 
L 80.054717 133.15968 
L 80.499145 131.95008 
L 81.165787 128.32128 
L 82.276856 128.32128 
L 82.49907 128.07936 
L 82.721284 128.07936 
L 82.943498 127.83744 
L 84.054568 127.83744 
L 84.276782 127.59552 
L 84.943424 127.59552 
L 85.165637 127.3536 
L 86.721135 127.3536 
L 86.943349 127.11168 
L 87.609991 127.11168 
L 87.832205 126.86976 
L 89.609916 126.86976 
L 89.83213 126.62784 
L 90.498772 126.62784 
L 90.720986 126.38592 
L 92.498697 126.38592 
L 92.720911 126.144 
L 93.831981 126.144 
L 94.054195 125.90208 
L 96.276334 125.90208 
L 96.498548 125.66016 
L 96.942976 125.66016 
L 97.165189 125.41824 
L 99.387329 125.41824 
L 99.609543 125.17632 
L 100.498398 125.17632 
L 100.720612 124.9344 
L 103.387179 124.9344 
L 103.609393 124.69248 
L 106.27596 124.69248 
L 106.498174 124.45056 
L 107.609244 124.45056 
L 107.831458 124.20864 
L 109.831383 124.20864 
L 110.053597 123.96672 
L 111.164667 123.96672 
L 111.386881 123.7248 
L 111.609095 123.7248 
L 111.831309 123.48288 
L 112.720164 123.48288 
L 112.942378 123.24096 
L 114.72009 123.24096 
L 115.386731 122.5152 
L 116.275587 122.5152 
L 116.497801 122.27328 
L 118.71994 122.27328 
L 118.942154 122.03136 
L 119.386582 122.03136 
L 119.608796 121.78944 
L 121.608721 121.78944 
L 121.830935 121.54752 
L 123.608647 121.54752 
L 123.830861 121.3056 
L 124.275288 121.3056 
L 124.497502 121.06368 
L 124.719716 121.06368 
L 124.94193 120.82176 
L 126.497428 120.82176 
L 126.719642 120.57984 
L 127.164069 120.57984 
L 127.386283 120.33792 
L 127.608497 120.33792 
L 128.052925 119.61216 
L 128.941781 119.61216 
L 129.163995 119.37024 
L 131.830562 119.37024 
L 132.052776 119.12832 
L 132.941632 119.12832 
L 133.163845 118.8864 
L 134.941557 118.8864 
L 135.163771 118.64448 
L 136.497054 118.64448 
L 136.719268 118.40256 
L 137.38591 118.40256 
L 137.608124 118.16064 
L 138.719194 118.16064 
L 138.941408 117.91872 
L 140.274691 117.91872 
L 140.496905 117.6768 
L 140.719119 117.6768 
L 140.941333 117.43488 
L 143.163472 117.43488 
L 143.385686 117.19296 
L 143.830114 117.19296 
L 144.052328 116.95104 
L 146.274467 116.95104 
L 146.496681 116.70912 
L 146.718895 116.70912 
L 146.941109 116.4672 
L 149.385462 116.4672 
L 149.607676 116.22528 
L 150.718746 116.22528 
L 150.940959 115.98336 
L 152.496457 115.98336 
L 152.718671 115.74144 
L 153.385313 115.74144 
L 153.607527 115.49952 
L 156.274094 115.49952 
L 156.718522 115.01568 
L 157.607377 115.01568 
L 157.829591 114.77376 
L 160.05173 114.77376 
L 160.273944 114.53184 
L 160.940586 114.53184 
L 161.385014 114.048 
L 162.718298 114.048 
L 162.940511 113.80608 
L 163.162725 113.80608 
L 163.384939 113.56416 
L 164.940437 113.56416 
L 165.162651 113.32224 
L 165.607079 113.32224 
L 165.829293 113.08032 
L 167.829218 113.08032 
L 168.051432 112.8384 
L 168.940287 112.8384 
L 169.162501 112.35456 
L 170.940213 112.35456 
L 171.384641 111.87072 
L 173.162352 111.87072 
L 173.384566 111.6288 
L 174.495636 111.6288 
L 174.71785 111.38688 
L 175.606705 111.38688 
L 175.828919 111.14496 
L 178.273272 111.14496 
L 178.7177 110.66112 
L 180.050984 110.66112 
L 180.273198 110.17728 
L 182.273123 110.17728 
L 182.495337 109.93536 
L 183.384193 109.93536 
L 184.050834 109.2096 
L 185.828546 109.2096 
L 186.05076 108.96768 
L 186.717402 108.96768 
L 186.939615 108.72576 
L 189.828396 108.72576 
L 190.05061 108.48384 
L 190.495038 108.48384 
L 190.717252 108.24192 
L 192.494964 108.24192 
L 192.717178 108 
L 193.606033 108 
L 193.828247 107.75808 
L 195.605959 107.75808 
L 195.828172 107.51616 
L 197.38367 107.51616 
L 197.605884 107.27424 
L 199.828023 107.27424 
L 200.050237 107.03232 
L 201.161307 107.03232 
L 201.383521 106.7904 
L 201.827948 106.7904 
L 202.050162 106.54848 
L 204.272302 106.54848 
L 204.494516 106.30656 
L 204.938943 106.30656 
L 205.161157 106.06464 
L 206.494441 106.06464 
L 206.716655 105.82272 
L 207.827724 105.82272 
L 208.049938 105.5808 
L 208.938794 105.5808 
L 209.161008 105.33888 
L 210.494292 105.33888 
L 210.938719 104.85504 
L 212.049789 104.85504 
L 212.272003 104.61312 
L 214.271928 104.61312 
L 214.494142 104.3712 
L 215.605212 104.3712 
L 215.827426 104.12928 
L 217.160709 104.12928 
L 217.382923 103.88736 
L 218.271779 103.88736 
L 218.493993 103.64544 
L 220.493918 103.64544 
L 220.716132 103.40352 
L 220.938346 103.40352 
L 221.16056 103.1616 
L 222.938271 103.1616 
L 223.160485 102.91968 
L 225.160411 102.91968 
L 225.382625 102.67776 
L 226.049266 102.67776 
L 226.27148 102.43584 
L 228.049192 102.43584 
L 228.271406 102.19392 
L 230.049117 102.19392 
L 230.271331 101.952 
L 230.493545 101.952 
L 230.715759 101.71008 
L 231.382401 101.71008 
L 231.604615 101.46816 
L 232.271256 101.46816 
L 232.49347 101.22624 
L 234.715609 101.22624 
L 234.937823 100.98432 
L 236.271107 100.98432 
L 236.493321 100.7424 
L 236.715535 100.7424 
L 236.937749 100.50048 
L 238.937674 100.50048 
L 239.159888 100.25856 
L 240.270958 100.25856 
L 240.493172 100.01664 
L 242.715311 100.01664 
L 243.159739 99.5328 
L 245.381878 99.5328 
L 245.604092 99.29088 
L 246.270734 99.29088 
L 246.492948 99.04896 
L 247.826231 99.04896 
L 248.048445 98.80704 
L 250.492798 98.80704 
L 250.715012 98.56512 
L 251.15944 98.56512 
L 251.381654 98.3232 
L 254.270435 98.3232 
L 254.714863 97.83936 
L 255.381505 97.83936 
L 255.603718 97.59744 
L 258.048072 97.59744 
L 258.270286 97.35552 
L 259.159141 97.35552 
L 259.381355 97.1136 
L 260.047997 97.1136 
L 260.270211 96.62976 
L 262.047922 96.62976 
L 262.270136 96.38784 
L 262.936778 96.38784 
L 263.158992 96.14592 
L 264.936703 96.14592 
L 265.158917 95.904 
L 267.60327 95.904 
L 267.825484 95.66208 
L 269.158768 95.66208 
L 269.380982 95.42016 
L 269.82541 95.42016 
L 270.047624 95.17824 
L 270.492052 95.17824 
L 270.714265 94.93632 
L 272.269763 94.93632 
L 272.491977 94.6944 
L 273.380833 94.6944 
L 273.603046 94.45248 
L 275.825186 94.45248 
L 276.0474 94.21056 
L 278.713967 94.21056 
L 278.936181 93.96864 
L 281.380534 93.96864 
L 281.602748 93.72672 
L 282.047176 93.72672 
L 282.26939 93.4848 
L 283.380459 93.4848 
L 283.602673 93.24288 
L 284.491529 93.24288 
L 284.713743 93.00096 
L 286.935882 93.00096 
L 287.158096 92.75904 
L 289.380235 92.75904 
L 289.602449 92.51712 
L 289.824663 92.51712 
L 290.046877 92.2752 
L 292.269016 92.2752 
L 292.49123 92.03328 
L 292.935658 92.03328 
L 293.157872 91.79136 
L 293.824514 91.79136 
L 294.046728 91.30752 
L 296.046653 91.30752 
L 296.268867 91.0656 
L 297.379937 91.0656 
L 297.60215 90.82368 
L 300.268718 90.82368 
L 300.490931 90.58176 
L 302.935285 90.58176 
L 303.157499 90.33984 
L 304.712996 90.33984 
L 304.93521 90.09792 
L 306.935135 90.09792 
L 307.157349 89.856 
L 307.823991 89.856 
L 308.046205 89.61408 
L 308.268419 89.61408 
L 308.490633 89.13024 
L 310.712772 89.13024 
L 310.934986 88.88832 
L 311.379414 88.88832 
L 311.601628 88.40448 
L 312.26827 88.40448 
L 312.490483 88.16256 
L 312.712697 88.16256 
L 312.934911 87.92064 
L 313.157125 87.92064 
L 313.379339 87.67872 
L 314.268195 87.67872 
L 314.490409 87.4368 
L 314.712623 87.4368 
L 314.934837 87.19488 
L 315.601478 87.19488 
L 316.045906 86.71104 
L 316.26812 86.71104 
L 316.490334 86.46912 
L 316.712548 86.46912 
L 316.934762 86.2272 
L 317.601404 86.2272 
L 318.045832 85.74336 
L 318.490259 85.74336 
L 318.712473 85.50144 
L 319.156901 85.50144 
L 319.379115 85.25952 
L 319.601329 85.25952 
L 319.823543 85.0176 
L 320.045757 85.0176 
L 320.267971 84.77568 
L 320.712399 84.77568 
L 320.934613 84.53376 
L 321.823468 84.53376 
L 322.045682 84.29184 
L 322.267896 84.29184 
L 322.712324 83.808 
L 323.60118 83.808 
L 323.823394 83.56608 
L 324.267822 83.56608 
L 324.490035 83.32416 
L 324.934463 83.32416 
L 325.378891 82.84032 
L 326.267747 82.84032 
L 326.489961 82.5984 
L 326.712175 82.5984 
L 326.934389 82.35648 
L 327.156603 82.35648 
L 327.823244 81.63072 
L 328.045458 81.63072 
L 328.267672 81.3888 
L 328.7121 81.3888 
L 328.934314 81.14688 
L 329.156528 81.14688 
L 329.378742 80.90496 
L 329.600956 80.90496 
L 329.82317 80.66304 
L 330.267598 80.66304 
L 330.489811 80.42112 
L 330.712025 80.42112 
L 331.156453 79.93728 
L 331.378667 79.93728 
L 331.600881 79.69536 
L 332.934165 79.69536 
L 333.378592 79.21152 
L 334.045234 79.21152 
L 334.267448 78.9696 
L 334.711876 78.9696 
L 334.93409 78.72768 
L 336.04516 78.72768 
L 336.267374 78.48576 
L 336.711801 78.48576 
L 336.934015 78.24384 
L 337.156229 77.51808 
L 338.489513 77.51808 
L 338.933941 77.03424 
L 339.378368 77.03424 
L 339.822796 76.5504 
L 340.489438 76.5504 
L 340.711652 76.30848 
L 341.378294 76.30848 
L 341.600508 76.06656 
L 342.711577 76.06656 
L 342.933791 75.58272 
L 343.822647 75.58272 
L 344.044861 75.3408 
L 345.155931 75.3408 
L 345.600358 74.85696 
L 346.267 74.85696 
L 346.711428 74.37312 
L 347.155856 74.37312 
L 348.044712 73.40544 
L 348.933567 73.40544 
L 349.155781 73.16352 
L 349.822423 73.16352 
L 350.266851 72.67968 
L 351.600134 72.67968 
L 352.044562 72.19584 
L 352.933418 72.19584 
L 353.155632 71.95392 
L 353.60006 71.95392 
L 354.044488 71.47008 
L 354.933343 71.47008 
L 355.155557 70.98624 
L 355.822199 70.98624 
L 356.266627 70.5024 
L 357.822124 70.5024 
L 358.044338 70.26048 
L 358.71098 70.26048 
L 358.933194 70.01856 
L 359.82205 70.01856 
L 360.044264 69.77664 
L 360.266478 69.77664 
L 360.488691 69.53472 
L 360.710905 69.53472 
L 360.933119 69.2928 
L 361.377547 69.2928 
L 362.044189 68.56704 
L 362.710831 68.56704 
L 362.933045 68.32512 
L 363.377472 68.32512 
L 363.599686 68.0832 
L 364.044114 68.0832 
L 364.266328 67.84128 
L 364.93297 67.84128 
L 365.377398 67.35744 
L 366.04404 67.35744 
L 366.266254 67.11552 
L 366.488467 67.11552 
L 366.710681 66.8736 
L 366.932895 66.8736 
L 367.155109 66.63168 
L 367.377323 66.63168 
L 367.599537 66.38976 
L 368.043965 66.38976 
L 368.266179 65.90592 
L 368.932821 65.90592 
L 369.155035 65.664 
L 369.377248 65.664 
L 369.599462 65.42208 
L 370.266104 65.42208 
L 370.488318 64.93824 
L 370.710532 64.93824 
L 370.932746 64.69632 
L 371.377174 64.69632 
L 371.821602 64.21248 
L 372.710457 64.21248 
L 372.932671 63.97056 
L 373.377099 63.97056 
L 373.821527 63.48672 
L 374.265955 63.48672 
L 374.488169 63.2448 
L 375.377024 63.2448 
L 375.821452 62.76096 
L 377.154736 62.76096 
L 377.37695 62.51904 
L 378.265805 62.51904 
L 379.154661 61.55136 
L 379.376875 61.55136 
L 379.821303 61.06752 
L 380.265731 61.06752 
L 380.487945 60.8256 
L 380.932373 60.8256 
L 381.154587 60.34176 
L 381.821228 60.34176 
L 382.265656 59.85792 
L 382.710084 59.85792 
L 383.154512 59.37408 
L 384.265581 59.37408 
L 384.710009 58.89024 
L 385.154437 58.89024 
L 385.376651 58.64832 
L 385.821079 58.64832 
L 386.043293 58.4064 
L 386.487721 58.4064 
L 386.709935 57.92256 
L 387.376576 57.92256 
L 387.59879 57.43872 
L 388.487646 57.43872 
L 388.70986 57.1968 
L 389.376502 57.1968 
L 389.82093 56.71296 
L 390.265357 56.71296 
L 390.487571 56.47104 
L 390.931999 56.47104 
L 391.154213 56.22912 
L 391.598641 56.22912 
L 391.820855 55.9872 
L 392.931925 55.9872 
L 393.154139 55.74528 
L 393.376352 55.74528 
L 393.598566 55.50336 
L 393.82078 55.50336 
L 394.042994 55.26144 
L 394.709636 55.26144 
L 394.93185 55.01952 
L 395.376278 55.01952 
L 395.598492 54.7776 
L 396.487347 54.7776 
L 396.709561 54.53568 
L 396.931775 54.53568 
L 397.153989 54.29376 
L 397.598417 54.29376 
L 398.042845 53.80992 
L 398.265059 53.80992 
L 398.487273 53.568 
L 398.487273 53.568 
" clip-path="url(#p3d463cac70)" style="fill: none; stroke: #ff0000; stroke-linecap: square"/>
   </g>
   <g id="line2d_16">
    <path d="M 73.832727 295.488 
L 74.054941 294.19431 
L 74.277155 291.60693 
L 74.499369 291.60693 
L 74.721583 285.138481 
L 76.721508 173.881155 
L 76.943722 172.587465 
L 77.165936 164.825326 
L 78.277006 100.140834 
L 78.49922 93.672385 
L 78.721434 83.322866 
L 79.165861 75.560727 
L 79.610289 61.330139 
L 79.832503 60.036449 
L 80.276931 60.036449 
L 80.499145 58.742759 
L 80.721359 56.15538 
L 80.943573 56.15538 
L 81.165787 53.568 
L 398.487273 53.568 
L 398.487273 53.568 
" clip-path="url(#p3d463cac70)" style="fill: none; stroke-dasharray: 1.85,0.8; stroke-dashoffset: 0; stroke: #008000; stroke-width: 0.5"/>
   </g>
   <g id="line2d_17">
    <path d="M 73.832727 295.488 
L 74.054941 295.488 
L 74.499369 292.928 
L 74.721583 290.368 
L 74.943797 281.408 
L 75.388225 255.808 
L 75.832653 236.608 
L 76.27708 208.448 
L 76.499294 205.888 
L 77.165936 175.168 
L 77.610364 149.568 
L 78.054792 136.768 
L 78.721434 111.168 
L 79.165861 93.248 
L 79.610289 80.448 
L 80.054717 71.488 
L 80.721359 62.528 
L 80.943573 53.568 
L 398.487273 53.568 
L 398.487273 53.568 
" clip-path="url(#p3d463cac70)" style="fill: none; stroke-dasharray: 1.85,0.8; stroke-dashoffset: 0; stroke: #0000ff; stroke-width: 0.5"/>
   </g>
   <g id="line2d_18">
    <path d="M 73.832727 295.488 
L 74.499369 295.488 
L 74.943797 282.348575 
L 75.610439 239.065764 
L 76.054867 204.284933 
L 76.27708 189.599693 
L 76.943722 123.902569 
L 78.054792 73.663591 
L 78.277006 68.25324 
L 78.49922 66.707425 
L 78.943648 58.978351 
L 79.165861 58.205444 
L 79.610289 53.568 
L 398.487273 53.568 
L 398.487273 53.568 
" clip-path="url(#p3d463cac70)" style="fill: none; stroke-dasharray: 1.85,0.8; stroke-dashoffset: 0; stroke: #bf00bf; stroke-width: 0.5"/>
   </g>
   <g id="line2d_19">
    <path d="M 73.832727 295.488 
L 78.277006 295.488 
L 78.49922 294.710122 
L 80.943573 294.710122 
L 81.165787 293.932244 
L 82.276856 293.932244 
L 82.49907 293.154367 
L 82.721284 293.154367 
L 82.943498 292.376489 
L 84.054568 292.376489 
L 84.276782 291.598611 
L 84.943424 291.598611 
L 85.165637 290.820733 
L 86.721135 290.820733 
L 86.943349 290.042855 
L 87.609991 290.042855 
L 87.832205 289.264977 
L 89.609916 289.264977 
L 89.83213 288.4871 
L 90.498772 288.4871 
L 90.720986 287.709222 
L 92.498697 287.709222 
L 92.720911 286.931344 
L 93.831981 286.931344 
L 94.054195 286.153466 
L 96.276334 286.153466 
L 96.498548 285.375588 
L 96.942976 285.375588 
L 97.165189 284.597711 
L 99.387329 284.597711 
L 99.609543 283.819833 
L 100.498398 283.819833 
L 100.720612 283.041955 
L 103.387179 283.041955 
L 103.609393 282.264077 
L 106.27596 282.264077 
L 106.498174 281.486199 
L 107.609244 281.486199 
L 107.831458 280.708322 
L 109.831383 280.708322 
L 110.053597 279.930444 
L 111.164667 279.930444 
L 111.386881 279.152566 
L 111.609095 279.152566 
L 111.831309 278.374688 
L 112.720164 278.374688 
L 112.942378 277.59681 
L 114.72009 277.59681 
L 115.386731 275.263177 
L 116.275587 275.263177 
L 116.497801 274.485299 
L 118.71994 274.485299 
L 118.942154 273.707421 
L 119.386582 273.707421 
L 119.608796 272.929543 
L 121.608721 272.929543 
L 121.830935 272.151666 
L 123.608647 272.151666 
L 123.830861 271.373788 
L 124.275288 271.373788 
L 124.497502 270.59591 
L 124.719716 270.59591 
L 124.94193 269.818032 
L 126.497428 269.818032 
L 126.719642 269.040154 
L 127.164069 269.040154 
L 127.386283 268.262277 
L 127.608497 268.262277 
L 128.052925 265.928643 
L 128.941781 265.928643 
L 129.163995 265.150765 
L 131.830562 265.150765 
L 132.052776 264.372887 
L 132.941632 264.372887 
L 133.163845 263.59501 
L 134.941557 263.59501 
L 135.163771 262.817132 
L 136.497054 262.817132 
L 136.719268 262.039254 
L 137.38591 262.039254 
L 137.608124 261.261376 
L 138.719194 261.261376 
L 138.941408 260.483498 
L 140.274691 260.483498 
L 140.496905 259.705621 
L 140.719119 259.705621 
L 140.941333 258.927743 
L 143.163472 258.927743 
L 143.385686 258.149865 
L 143.830114 258.149865 
L 144.052328 257.371987 
L 146.274467 257.371987 
L 146.496681 256.594109 
L 146.718895 256.594109 
L 146.941109 255.816232 
L 149.385462 255.816232 
L 149.607676 255.038354 
L 150.718746 255.038354 
L 150.940959 254.260476 
L 152.496457 254.260476 
L 152.718671 253.482598 
L 153.385313 253.482598 
L 153.607527 252.70472 
L 156.274094 252.70472 
L 156.718522 251.148965 
L 157.607377 251.148965 
L 157.829591 250.371087 
L 160.05173 250.371087 
L 160.273944 249.593209 
L 160.940586 249.593209 
L 161.385014 248.037453 
L 162.718298 248.037453 
L 162.940511 247.259576 
L 163.162725 247.259576 
L 163.384939 246.481698 
L 164.940437 246.481698 
L 165.162651 245.70382 
L 165.607079 245.70382 
L 165.829293 244.925942 
L 167.829218 244.925942 
L 168.051432 244.148064 
L 168.940287 244.148064 
L 169.162501 242.592309 
L 170.940213 242.592309 
L 171.384641 241.036553 
L 173.162352 241.036553 
L 173.384566 240.258675 
L 174.495636 240.258675 
L 174.71785 239.480797 
L 175.606705 239.480797 
L 175.828919 238.70292 
L 178.273272 238.70292 
L 178.7177 237.147164 
L 180.050984 237.147164 
L 180.273198 235.591408 
L 182.273123 235.591408 
L 182.495337 234.813531 
L 183.384193 234.813531 
L 184.050834 232.479897 
L 185.828546 232.479897 
L 186.05076 231.702019 
L 186.717402 231.702019 
L 186.939615 230.924141 
L 189.828396 230.924141 
L 190.05061 230.146264 
L 190.495038 230.146264 
L 190.717252 229.368386 
L 192.494964 229.368386 
L 192.717178 228.590508 
L 193.606033 228.590508 
L 193.828247 227.81263 
L 195.605959 227.81263 
L 195.828172 227.034752 
L 197.38367 227.034752 
L 197.605884 226.256875 
L 199.828023 226.256875 
L 200.050237 225.478997 
L 201.161307 225.478997 
L 201.383521 224.701119 
L 201.827948 224.701119 
L 202.050162 223.923241 
L 204.272302 223.923241 
L 204.494516 223.145363 
L 204.938943 223.145363 
L 205.161157 222.367486 
L 206.494441 222.367486 
L 206.716655 221.589608 
L 207.827724 221.589608 
L 208.049938 220.81173 
L 208.938794 220.81173 
L 209.161008 220.033852 
L 210.494292 220.033852 
L 210.938719 218.478096 
L 212.049789 218.478096 
L 212.272003 217.700219 
L 214.271928 217.700219 
L 214.494142 216.922341 
L 215.605212 216.922341 
L 215.827426 216.144463 
L 217.160709 216.144463 
L 217.382923 215.366585 
L 218.271779 215.366585 
L 218.493993 214.588707 
L 220.493918 214.588707 
L 220.716132 213.81083 
L 220.938346 213.81083 
L 221.16056 213.032952 
L 222.938271 213.032952 
L 223.160485 212.255074 
L 225.160411 212.255074 
L 225.382625 211.477196 
L 226.049266 211.477196 
L 226.27148 210.699318 
L 228.049192 210.699318 
L 228.271406 209.921441 
L 230.049117 209.921441 
L 230.271331 209.143563 
L 230.493545 209.143563 
L 230.715759 208.365685 
L 231.382401 208.365685 
L 231.604615 207.587807 
L 232.271256 207.587807 
L 232.49347 206.809929 
L 234.715609 206.809929 
L 234.937823 206.032051 
L 236.271107 206.032051 
L 236.493321 205.254174 
L 236.715535 205.254174 
L 236.937749 204.476296 
L 238.937674 204.476296 
L 239.159888 203.698418 
L 240.270958 203.698418 
L 240.493172 202.92054 
L 242.715311 202.92054 
L 243.159739 201.364785 
L 245.381878 201.364785 
L 245.604092 200.586907 
L 246.270734 200.586907 
L 246.492948 199.809029 
L 247.826231 199.809029 
L 248.048445 199.031151 
L 250.492798 199.031151 
L 250.715012 198.253273 
L 251.15944 198.253273 
L 251.381654 197.475395 
L 254.270435 197.475395 
L 254.714863 195.91964 
L 255.381505 195.91964 
L 255.603718 195.141762 
L 258.048072 195.141762 
L 258.270286 194.363884 
L 259.159141 194.363884 
L 259.381355 193.586006 
L 260.047997 193.586006 
L 260.270211 192.030251 
L 262.047922 192.030251 
L 262.270136 191.252373 
L 262.936778 191.252373 
L 263.158992 190.474495 
L 264.936703 190.474495 
L 265.158917 189.696617 
L 267.60327 189.696617 
L 267.825484 188.91874 
L 269.158768 188.91874 
L 269.380982 188.140862 
L 269.82541 188.140862 
L 270.047624 187.362984 
L 270.492052 187.362984 
L 270.714265 186.585106 
L 272.269763 186.585106 
L 272.491977 185.807228 
L 273.380833 185.807228 
L 273.603046 185.02935 
L 275.825186 185.02935 
L 276.0474 184.251473 
L 278.713967 184.251473 
L 278.936181 183.473595 
L 281.380534 183.473595 
L 281.602748 182.695717 
L 282.047176 182.695717 
L 282.26939 181.917839 
L 283.380459 181.917839 
L 283.602673 181.139961 
L 284.491529 181.139961 
L 284.713743 180.362084 
L 286.935882 180.362084 
L 287.158096 179.584206 
L 289.380235 179.584206 
L 289.602449 178.806328 
L 289.824663 178.806328 
L 290.046877 178.02845 
L 292.269016 178.02845 
L 292.49123 177.250572 
L 292.935658 177.250572 
L 293.157872 176.472695 
L 293.824514 176.472695 
L 294.046728 174.916939 
L 296.046653 174.916939 
L 296.268867 174.139061 
L 297.379937 174.139061 
L 297.60215 173.361183 
L 300.268718 173.361183 
L 300.490931 172.583305 
L 302.935285 172.583305 
L 303.157499 171.805428 
L 304.712996 171.805428 
L 304.93521 171.02755 
L 306.935135 171.02755 
L 307.157349 170.249672 
L 307.823991 170.249672 
L 308.046205 169.471794 
L 308.268419 169.471794 
L 308.490633 167.916039 
L 310.712772 167.916039 
L 310.934986 167.138161 
L 311.379414 167.138161 
L 311.601628 165.582405 
L 312.26827 165.582405 
L 312.490483 164.804527 
L 312.712697 164.804527 
L 312.934911 164.02665 
L 313.157125 164.02665 
L 313.379339 163.248772 
L 314.268195 163.248772 
L 314.490409 162.470894 
L 314.712623 162.470894 
L 314.934837 161.693016 
L 315.601478 161.693016 
L 316.045906 160.13726 
L 316.26812 160.13726 
L 316.490334 159.359383 
L 316.712548 159.359383 
L 316.934762 158.581505 
L 317.601404 158.581505 
L 318.045832 157.025749 
L 318.490259 157.025749 
L 318.712473 156.247871 
L 319.156901 156.247871 
L 319.379115 155.469994 
L 319.601329 155.469994 
L 319.823543 154.692116 
L 320.045757 154.692116 
L 320.267971 153.914238 
L 320.712399 153.914238 
L 320.934613 153.13636 
L 321.823468 153.13636 
L 322.045682 152.358482 
L 322.267896 152.358482 
L 322.712324 150.802727 
L 323.60118 150.802727 
L 323.823394 150.024849 
L 324.267822 150.024849 
L 324.490035 149.246971 
L 324.934463 149.246971 
L 325.378891 147.691215 
L 326.267747 147.691215 
L 326.489961 146.913338 
L 326.712175 146.913338 
L 326.934389 146.13546 
L 327.156603 146.13546 
L 327.823244 143.801826 
L 328.045458 143.801826 
L 328.267672 143.023949 
L 328.7121 143.023949 
L 328.934314 142.246071 
L 329.156528 142.246071 
L 329.378742 141.468193 
L 329.600956 141.468193 
L 329.82317 140.690315 
L 330.267598 140.690315 
L 330.489811 139.912437 
L 330.712025 139.912437 
L 331.156453 138.356682 
L 331.378667 138.356682 
L 331.600881 137.578804 
L 332.934165 137.578804 
L 333.378592 136.023048 
L 334.045234 136.023048 
L 334.267448 135.24517 
L 334.711876 135.24517 
L 334.93409 134.467293 
L 336.04516 134.467293 
L 336.267374 133.689415 
L 336.711801 133.689415 
L 336.934015 132.911537 
L 337.156229 130.577904 
L 338.489513 130.577904 
L 338.933941 129.022148 
L 339.378368 129.022148 
L 339.822796 127.466392 
L 340.489438 127.466392 
L 340.711652 126.688514 
L 341.378294 126.688514 
L 341.600508 125.910637 
L 342.711577 125.910637 
L 342.933791 124.354881 
L 343.822647 124.354881 
L 344.044861 123.577003 
L 345.155931 123.577003 
L 345.600358 122.021248 
L 346.267 122.021248 
L 346.711428 120.465492 
L 347.155856 120.465492 
L 348.044712 117.353981 
L 348.933567 117.353981 
L 349.155781 116.576103 
L 349.822423 116.576103 
L 350.266851 115.020347 
L 351.600134 115.020347 
L 352.044562 113.464592 
L 352.933418 113.464592 
L 353.155632 112.686714 
L 353.60006 112.686714 
L 354.044488 111.130958 
L 354.933343 111.130958 
L 355.155557 109.575203 
L 355.822199 109.575203 
L 356.266627 108.019447 
L 357.822124 108.019447 
L 358.044338 107.241569 
L 358.71098 107.241569 
L 358.933194 106.463691 
L 359.82205 106.463691 
L 360.044264 105.685814 
L 360.266478 105.685814 
L 360.488691 104.907936 
L 360.710905 104.907936 
L 360.933119 104.130058 
L 361.377547 104.130058 
L 362.044189 101.796424 
L 362.710831 101.796424 
L 362.933045 101.018547 
L 363.377472 101.018547 
L 363.599686 100.240669 
L 364.044114 100.240669 
L 364.266328 99.462791 
L 364.93297 99.462791 
L 365.377398 97.907035 
L 366.04404 97.907035 
L 366.266254 97.129158 
L 366.488467 97.129158 
L 366.710681 96.35128 
L 366.932895 96.35128 
L 367.155109 95.573402 
L 367.377323 95.573402 
L 367.599537 94.795524 
L 368.043965 94.795524 
L 368.266179 93.239768 
L 368.932821 93.239768 
L 369.155035 92.461891 
L 369.377248 92.461891 
L 369.599462 91.684013 
L 370.266104 91.684013 
L 370.488318 90.128257 
L 370.710532 90.128257 
L 370.932746 89.350379 
L 371.377174 89.350379 
L 371.821602 87.794624 
L 372.710457 87.794624 
L 372.932671 87.016746 
L 373.377099 87.016746 
L 373.821527 85.46099 
L 374.265955 85.46099 
L 374.488169 84.683113 
L 375.377024 84.683113 
L 375.821452 83.127357 
L 377.154736 83.127357 
L 377.37695 82.349479 
L 378.265805 82.349479 
L 379.154661 79.237968 
L 379.376875 79.237968 
L 379.821303 77.682212 
L 380.265731 77.682212 
L 380.487945 76.904334 
L 380.932373 76.904334 
L 381.154587 75.348579 
L 381.821228 75.348579 
L 382.265656 73.792823 
L 382.710084 73.792823 
L 383.154512 72.237068 
L 384.265581 72.237068 
L 384.710009 70.681312 
L 385.154437 70.681312 
L 385.376651 69.903434 
L 385.821079 69.903434 
L 386.043293 69.125556 
L 386.487721 69.125556 
L 386.709935 67.569801 
L 387.376576 67.569801 
L 387.59879 66.014045 
L 388.487646 66.014045 
L 388.70986 65.236167 
L 389.376502 65.236167 
L 389.82093 63.680412 
L 390.265357 63.680412 
L 390.487571 62.902534 
L 390.931999 62.902534 
L 391.154213 62.124656 
L 391.598641 62.124656 
L 391.820855 61.346778 
L 392.931925 61.346778 
L 393.154139 60.5689 
L 393.376352 60.5689 
L 393.598566 59.791023 
L 393.82078 59.791023 
L 394.042994 59.013145 
L 394.709636 59.013145 
L 394.93185 58.235267 
L 395.376278 58.235267 
L 395.598492 57.457389 
L 396.487347 57.457389 
L 396.709561 56.679511 
L 396.931775 56.679511 
L 397.153989 55.901633 
L 397.598417 55.901633 
L 398.042845 54.345878 
L 398.265059 54.345878 
L 398.487273 53.568 
L 398.487273 53.568 
" clip-path="url(#p3d463cac70)" style="fill: none; stroke-dasharray: 1.85,0.8; stroke-dashoffset: 0; stroke: #bfbf00; stroke-width: 0.5"/>
   </g>
   <g id="patch_3">
    <path d="M 57.6 307.584 
L 57.6 41.472 
" style="fill: none; stroke: #000000; stroke-width: 0.8; stroke-linejoin: miter; stroke-linecap: square"/>
   </g>
   <g id="patch_4">
    <path d="M 414.72 307.584 
L 414.72 41.472 
" style="fill: none; stroke: #000000; stroke-width: 0.8; stroke-linejoin: miter; stroke-linecap: square"/>
   </g>
   <g id="patch_5">
    <path d="M 57.6 307.584 
L 414.72 307.584 
" style="fill: none; stroke: #000000; stroke-width: 0.8; stroke-linejoin: miter; stroke-linecap: square"/>
   </g>
   <g id="patch_6">
    <path d="M 57.6 41.472 
L 414.72 41.472 
" style="fill: none; stroke: #000000; stroke-width: 0.8; stroke-linejoin: miter; stroke-linecap: square"/>
   </g>
   <g id="text_17">
    <!-- count=1000, googlenet=125, resnet50=75, squeezenetv1=125, vgg19=75 -->
    <g transform="translate(38.16 35.472)scale(0.12 -0.12)">
     <defs>
      <path id="FangSong-63" d="M 2125 2125 
Q 2125 2200 2137 2225 
Q 2150 2250 2175 2325 
Q 2200 2425 2075 2562 
Q 1950 2700 1650 2700 
Q 1275 2700 1012 2337 
Q 750 1975 750 1375 
Q 750 825 975 487 
Q 1200 150 1725 150 
Q 2075 150 2312 375 
Q 2550 600 2650 900 
L 2775 850 
Q 2675 475 2400 212 
Q 2125 -50 1650 -50 
Q 1050 -50 700 325 
Q 350 700 350 1400 
Q 350 2025 725 2437 
Q 1100 2850 1700 2850 
Q 2125 2850 2362 2625 
Q 2600 2400 2600 2175 
Q 2600 2025 2537 1962 
Q 2475 1900 2350 1900 
Q 2250 1900 2187 1962 
Q 2125 2025 2125 2125 
z
" transform="scale(0.015625)"/>
      <path id="FangSong-6f" d="M 2875 1400 
Q 2875 775 2500 362 
Q 2125 -50 1575 -50 
Q 1000 -50 637 375 
Q 275 800 275 1400 
Q 275 1950 637 2400 
Q 1000 2850 1575 2850 
Q 2175 2850 2525 2400 
Q 2875 1950 2875 1400 
z
M 675 1375 
Q 675 725 937 412 
Q 1200 100 1575 100 
Q 2000 100 2237 437 
Q 2475 775 2475 1375 
Q 2475 2025 2212 2362 
Q 1950 2700 1575 2700 
Q 1225 2700 950 2362 
Q 675 2025 675 1375 
z
" transform="scale(0.015625)"/>
      <path id="FangSong-75" d="M 1425 225 
Q 1725 225 1937 375 
Q 2150 525 2250 850 
L 2250 2425 
Q 2250 2525 2200 2587 
Q 2150 2650 2025 2650 
L 1875 2650 
L 1875 2800 
L 2025 2800 
Q 2175 2800 2300 2825 
Q 2425 2850 2550 2950 
L 2600 2950 
L 2600 500 
Q 2600 400 2662 350 
Q 2725 300 2825 300 
L 2975 300 
L 2975 150 
L 2825 150 
Q 2700 150 2575 112 
Q 2450 75 2300 0 
L 2250 0 
L 2250 525 
Q 2125 250 1875 112 
Q 1625 -25 1300 -25 
Q 900 -25 700 200 
Q 500 425 500 925 
L 500 2425 
Q 500 2525 450 2587 
Q 400 2650 275 2650 
L 125 2650 
L 125 2800 
L 275 2800 
Q 425 2800 550 2825 
Q 675 2850 800 2950 
L 850 2950 
L 850 875 
Q 850 525 1000 375 
Q 1150 225 1425 225 
z
" transform="scale(0.015625)"/>
      <path id="FangSong-6e" d="M 175 0 
L 175 150 
L 300 150 
Q 425 150 475 200 
Q 525 250 525 350 
L 525 2500 
Q 525 2575 500 2612 
Q 475 2650 400 2650 
L 200 2650 
L 200 2800 
L 375 2800 
Q 500 2800 612 2825 
Q 725 2850 825 2925 
L 875 2925 
L 875 2350 
Q 1100 2600 1325 2725 
Q 1550 2850 1800 2850 
Q 2225 2850 2425 2625 
Q 2625 2400 2625 1950 
L 2625 350 
Q 2625 250 2687 200 
Q 2750 150 2850 150 
L 2975 150 
L 2975 0 
L 1925 0 
L 1925 150 
L 2050 150 
Q 2175 150 2225 200 
Q 2275 250 2275 350 
L 2275 2025 
Q 2275 2325 2150 2487 
Q 2025 2650 1775 2650 
Q 1550 2650 1312 2500 
Q 1075 2350 875 2075 
L 875 350 
Q 875 250 937 200 
Q 1000 150 1100 150 
L 1225 150 
L 1225 0 
L 175 0 
z
" transform="scale(0.015625)"/>
      <path id="FangSong-74" d="M 1475 800 
Q 1475 450 1600 325 
Q 1725 200 1975 200 
Q 2225 200 2375 362 
Q 2525 525 2575 825 
L 2700 775 
Q 2650 425 2437 200 
Q 2225 -25 1875 -25 
Q 1500 -25 1312 200 
Q 1125 425 1125 900 
L 1125 2650 
L 375 2650 
L 375 2800 
L 575 2800 
Q 875 2800 1062 2987 
Q 1250 3175 1300 3575 
L 1325 3775 
L 1475 3775 
L 1475 2800 
L 2475 2800 
L 2475 2650 
L 1475 2650 
L 1475 800 
z
" transform="scale(0.015625)"/>
      <path id="FangSong-3d" d="M 175 2725 
L 175 2950 
L 2950 2950 
L 2950 2725 
L 175 2725 
z
M 175 1450 
L 175 1675 
L 2950 1675 
L 2950 1450 
L 175 1450 
z
" transform="scale(0.015625)"/>
      <path id="FangSong-2c" d="M 1325 75 
Q 1200 25 1100 75 
Q 1000 125 962 237 
Q 925 350 925 437 
Q 925 525 987 612 
Q 1050 700 1150 737 
Q 1250 775 1425 725 
Q 1600 675 1650 500 
Q 1700 325 1662 150 
Q 1625 -25 1525 -200 
Q 1425 -375 1312 -475 
Q 1200 -575 1025 -675 
L 950 -575 
Q 1100 -450 1187 -312 
Q 1275 -175 1325 75 
z
" transform="scale(0.015625)"/>
      <path id="FangSong-20" transform="scale(0.015625)"/>
      <path id="FangSong-67" d="M 850 1875 
Q 850 1575 1025 1362 
Q 1200 1150 1500 1150 
Q 1825 1150 1987 1337 
Q 2150 1525 2150 1875 
Q 2150 2300 1962 2487 
Q 1775 2675 1500 2675 
Q 1225 2675 1037 2487 
Q 850 2300 850 1875 
z
M 2075 525 
Q 2450 475 2625 312 
Q 2800 150 2800 -125 
Q 2800 -500 2487 -725 
Q 2175 -950 1500 -950 
Q 975 -950 650 -737 
Q 325 -525 325 -250 
Q 325 -75 450 100 
Q 575 275 850 375 
Q 700 450 612 537 
Q 525 625 525 750 
Q 525 900 625 1012 
Q 725 1125 875 1200 
Q 725 1325 612 1500 
Q 500 1675 500 1875 
Q 500 2250 762 2537 
Q 1025 2825 1500 2825 
Q 1700 2825 1887 2775 
Q 2075 2725 2200 2600 
Q 2375 2725 2512 2787 
Q 2650 2850 2750 2850 
Q 2875 2850 2925 2762 
Q 2975 2675 2975 2600 
Q 2975 2500 2937 2437 
Q 2900 2375 2800 2375 
Q 2725 2375 2675 2412 
Q 2625 2450 2600 2525 
Q 2575 2600 2487 2587 
Q 2400 2575 2300 2500 
Q 2400 2400 2450 2225 
Q 2500 2050 2500 1875 
Q 2500 1575 2262 1287 
Q 2025 1000 1500 1000 
Q 1350 1000 1225 1037 
Q 1100 1075 1025 1125 
Q 925 1075 875 1000 
Q 825 925 825 875 
Q 825 775 875 725 
Q 925 675 1025 675 
Q 1350 625 1612 587 
Q 1875 550 2075 525 
z
M 1050 325 
Q 825 225 737 87 
Q 650 -50 650 -250 
Q 650 -450 875 -625 
Q 1100 -800 1550 -800 
Q 1975 -800 2225 -662 
Q 2475 -525 2475 -250 
Q 2475 -75 2412 25 
Q 2350 125 2225 150 
Q 1975 200 1675 237 
Q 1375 275 1050 325 
z
" transform="scale(0.015625)"/>
      <path id="FangSong-6c" d="M 900 4275 
Q 1125 4275 1325 4325 
Q 1525 4375 1700 4475 
L 1750 4475 
L 1750 350 
Q 1750 250 1812 200 
Q 1875 150 1975 150 
L 2550 150 
L 2550 0 
L 600 0 
L 600 150 
L 1175 150 
Q 1300 150 1350 200 
Q 1400 250 1400 350 
L 1400 3925 
Q 1400 4025 1350 4075 
Q 1300 4125 1175 4125 
L 625 4125 
L 625 4275 
L 900 4275 
z
" transform="scale(0.015625)"/>
      <path id="FangSong-65" d="M 2375 1550 
Q 2400 2100 2187 2387 
Q 1975 2675 1625 2675 
Q 1250 2675 1012 2375 
Q 775 2075 775 1550 
L 2375 1550 
z
M 775 1400 
Q 775 725 1037 437 
Q 1300 150 1725 150 
Q 2050 150 2275 337 
Q 2500 525 2600 800 
L 2725 750 
Q 2650 475 2387 212 
Q 2125 -50 1675 -50 
Q 1100 -50 737 325 
Q 375 700 375 1400 
Q 375 2025 737 2437 
Q 1100 2850 1625 2850 
Q 2100 2850 2450 2525 
Q 2800 2200 2800 1400 
L 775 1400 
z
" transform="scale(0.015625)"/>
      <path id="FangSong-35" d="M 1700 2750 
Q 2175 2750 2475 2387 
Q 2775 2025 2775 1425 
Q 2775 750 2462 350 
Q 2150 -50 1500 -50 
Q 1050 -50 700 212 
Q 350 475 350 850 
Q 350 1000 437 1112 
Q 525 1225 675 1225 
Q 825 1225 875 1125 
Q 925 1025 925 950 
Q 925 800 850 712 
Q 775 625 775 525 
Q 775 325 1012 225 
Q 1250 125 1525 125 
Q 1925 125 2137 450 
Q 2350 775 2350 1375 
Q 2350 1875 2162 2187 
Q 1975 2500 1600 2500 
Q 1325 2500 1125 2400 
Q 925 2300 750 1975 
L 525 2000 
L 650 4275 
L 2700 4275 
L 2625 3900 
L 825 3900 
L 725 2250 
Q 975 2600 1212 2675 
Q 1450 2750 1700 2750 
z
" transform="scale(0.015625)"/>
      <path id="FangSong-72" d="M 1250 2025 
Q 1500 2425 1787 2637 
Q 2075 2850 2375 2850 
Q 2625 2850 2762 2737 
Q 2900 2625 2900 2475 
Q 2900 2350 2837 2275 
Q 2775 2200 2650 2200 
Q 2525 2200 2462 2275 
Q 2400 2350 2425 2475 
Q 2425 2550 2400 2600 
Q 2375 2650 2250 2650 
Q 2050 2650 1762 2400 
Q 1475 2150 1250 1700 
L 1250 350 
Q 1250 250 1312 200 
Q 1375 150 1475 150 
L 2025 150 
L 2025 0 
L 175 0 
L 175 150 
L 675 150 
Q 800 150 850 200 
Q 900 250 900 350 
L 900 2425 
Q 900 2525 850 2587 
Q 800 2650 675 2650 
L 200 2650 
L 200 2800 
L 400 2800 
Q 575 2800 812 2837 
Q 1050 2875 1175 2925 
L 1250 2925 
L 1250 2025 
z
" transform="scale(0.015625)"/>
      <path id="FangSong-73" d="M 600 2075 
Q 600 2450 887 2650 
Q 1175 2850 1575 2850 
Q 1800 2850 2000 2787 
Q 2200 2725 2275 2725 
Q 2350 2725 2400 2750 
Q 2450 2775 2525 2850 
L 2625 2025 
L 2475 2000 
Q 2375 2325 2137 2512 
Q 1900 2700 1600 2700 
Q 1275 2700 1087 2575 
Q 900 2450 900 2225 
Q 900 2025 987 1912 
Q 1075 1800 1300 1750 
Q 1475 1675 1737 1587 
Q 2000 1500 2225 1400 
Q 2425 1300 2562 1137 
Q 2700 975 2700 775 
Q 2700 400 2437 187 
Q 2175 -25 1675 -25 
Q 1350 -25 1187 37 
Q 1025 100 925 100 
Q 850 100 762 62 
Q 675 25 575 -25 
L 500 900 
L 650 925 
Q 725 525 975 325 
Q 1225 125 1675 125 
Q 2025 125 2212 250 
Q 2400 375 2400 625 
Q 2400 800 2300 912 
Q 2200 1025 2100 1075 
Q 1850 1175 1550 1287 
Q 1250 1400 1025 1500 
Q 800 1600 700 1750 
Q 600 1900 600 2075 
z
" transform="scale(0.015625)"/>
      <path id="FangSong-37" d="M 2800 4100 
Q 2275 3250 1962 2437 
Q 1650 1625 1650 1025 
Q 1650 925 1662 737 
Q 1675 550 1675 300 
Q 1675 100 1612 25 
Q 1550 -50 1400 -50 
Q 1275 -50 1187 37 
Q 1100 125 1100 350 
Q 1100 825 1312 1525 
Q 1525 2225 2450 3900 
L 1200 3900 
Q 925 3900 762 3725 
Q 600 3550 525 3200 
L 375 3225 
L 550 4275 
L 2800 4275 
L 2800 4100 
z
" transform="scale(0.015625)"/>
      <path id="FangSong-71" d="M 2250 2150 
Q 2150 2375 1975 2512 
Q 1800 2650 1550 2650 
Q 1200 2650 950 2350 
Q 700 2050 700 1325 
Q 700 700 912 437 
Q 1125 175 1450 175 
Q 1725 175 1937 300 
Q 2150 425 2250 725 
L 2250 2150 
z
M 2600 -550 
Q 2600 -675 2662 -725 
Q 2725 -775 2825 -775 
L 2975 -775 
L 2975 -925 
L 1825 -925 
L 1825 -775 
L 2025 -775 
Q 2150 -775 2200 -725 
Q 2250 -675 2250 -550 
L 2250 375 
Q 2100 175 1887 75 
Q 1675 -25 1375 -25 
Q 950 -25 625 337 
Q 300 700 300 1400 
Q 300 2075 675 2450 
Q 1050 2825 1475 2825 
Q 1750 2825 1937 2725 
Q 2125 2625 2275 2475 
L 2500 2800 
L 2600 2800 
L 2600 -550 
z
" transform="scale(0.015625)"/>
      <path id="FangSong-7a" d="M 2725 975 
L 2550 0 
L 400 0 
L 400 125 
L 2125 2650 
L 1200 2650 
Q 975 2650 825 2487 
Q 675 2325 575 1925 
L 425 1950 
L 525 2800 
L 2575 2800 
L 2575 2725 
L 825 150 
L 1775 150 
Q 2100 150 2287 350 
Q 2475 550 2575 1000 
L 2725 975 
z
" transform="scale(0.015625)"/>
      <path id="FangSong-76" d="M 1600 -25 
L 1450 -25 
L 600 2425 
Q 575 2525 500 2587 
Q 425 2650 325 2650 
L 200 2650 
L 200 2800 
L 1275 2800 
L 1275 2650 
L 1175 2650 
Q 1025 2650 987 2575 
Q 950 2500 1000 2325 
L 1600 575 
L 1650 575 
L 2250 2300 
Q 2325 2475 2262 2562 
Q 2200 2650 2050 2650 
L 2000 2650 
L 2000 2800 
L 2900 2800 
L 2900 2650 
L 2850 2650 
Q 2700 2650 2612 2562 
Q 2525 2475 2450 2300 
L 1600 -25 
z
" transform="scale(0.015625)"/>
      <path id="FangSong-39" d="M 675 2950 
Q 675 2400 887 2112 
Q 1100 1825 1425 1825 
Q 1800 1825 2075 2175 
Q 2350 2525 2350 2825 
Q 2350 3425 2150 3787 
Q 1950 4150 1500 4150 
Q 1075 4150 875 3812 
Q 675 3475 675 2950 
z
M 1350 1600 
Q 850 1600 550 1912 
Q 250 2225 250 2925 
Q 250 3525 575 3925 
Q 900 4325 1500 4325 
Q 2125 4325 2475 3825 
Q 2825 3325 2825 2375 
Q 2825 1325 2412 637 
Q 2000 -50 1275 -50 
Q 950 -50 712 100 
Q 475 250 475 500 
Q 475 600 537 700 
Q 600 800 750 800 
Q 900 800 950 687 
Q 1000 575 1000 425 
Q 1000 325 1025 262 
Q 1050 200 1075 175 
Q 1100 150 1162 137 
Q 1225 125 1300 125 
Q 1750 125 2025 625 
Q 2300 1125 2350 2300 
Q 2225 2000 1975 1800 
Q 1725 1600 1350 1600 
z
" transform="scale(0.015625)"/>
     </defs>
     <use xlink:href="#FangSong-63"/>
     <use xlink:href="#FangSong-6f" x="50"/>
     <use xlink:href="#FangSong-75" x="100"/>
     <use xlink:href="#FangSong-6e" x="150"/>
     <use xlink:href="#FangSong-74" x="200"/>
     <use xlink:href="#FangSong-3d" x="250"/>
     <use xlink:href="#FangSong-31" x="300"/>
     <use xlink:href="#FangSong-30" x="350"/>
     <use xlink:href="#FangSong-30" x="400"/>
     <use xlink:href="#FangSong-30" x="450"/>
     <use xlink:href="#FangSong-2c" x="500"/>
     <use xlink:href="#FangSong-20" x="550"/>
     <use xlink:href="#FangSong-67" x="600"/>
     <use xlink:href="#FangSong-6f" x="650"/>
     <use xlink:href="#FangSong-6f" x="700"/>
     <use xlink:href="#FangSong-67" x="750"/>
     <use xlink:href="#FangSong-6c" x="800"/>
     <use xlink:href="#FangSong-65" x="850"/>
     <use xlink:href="#FangSong-6e" x="900"/>
     <use xlink:href="#FangSong-65" x="950"/>
     <use xlink:href="#FangSong-74" x="1000"/>
     <use xlink:href="#FangSong-3d" x="1050"/>
     <use xlink:href="#FangSong-31" x="1100"/>
     <use xlink:href="#FangSong-32" x="1150"/>
     <use xlink:href="#FangSong-35" x="1200"/>
     <use xlink:href="#FangSong-2c" x="1250"/>
     <use xlink:href="#FangSong-20" x="1300"/>
     <use xlink:href="#FangSong-72" x="1350"/>
     <use xlink:href="#FangSong-65" x="1400"/>
     <use xlink:href="#FangSong-73" x="1450"/>
     <use xlink:href="#FangSong-6e" x="1500"/>
     <use xlink:href="#FangSong-65" x="1550"/>
     <use xlink:href="#FangSong-74" x="1600"/>
     <use xlink:href="#FangSong-35" x="1650"/>
     <use xlink:href="#FangSong-30" x="1700"/>
     <use xlink:href="#FangSong-3d" x="1750"/>
     <use xlink:href="#FangSong-37" x="1800"/>
     <use xlink:href="#FangSong-35" x="1850"/>
     <use xlink:href="#FangSong-2c" x="1900"/>
     <use xlink:href="#FangSong-20" x="1950"/>
     <use xlink:href="#FangSong-73" x="2000"/>
     <use xlink:href="#FangSong-71" x="2050"/>
     <use xlink:href="#FangSong-75" x="2100"/>
     <use xlink:href="#FangSong-65" x="2150"/>
     <use xlink:href="#FangSong-65" x="2200"/>
     <use xlink:href="#FangSong-7a" x="2250"/>
     <use xlink:href="#FangSong-65" x="2300"/>
     <use xlink:href="#FangSong-6e" x="2350"/>
     <use xlink:href="#FangSong-65" x="2400"/>
     <use xlink:href="#FangSong-74" x="2450"/>
     <use xlink:href="#FangSong-76" x="2500"/>
     <use xlink:href="#FangSong-31" x="2550"/>
     <use xlink:href="#FangSong-3d" x="2600"/>
     <use xlink:href="#FangSong-31" x="2650"/>
     <use xlink:href="#FangSong-32" x="2700"/>
     <use xlink:href="#FangSong-35" x="2750"/>
     <use xlink:href="#FangSong-2c" x="2800"/>
     <use xlink:href="#FangSong-20" x="2850"/>
     <use xlink:href="#FangSong-76" x="2900"/>
     <use xlink:href="#FangSong-67" x="2950"/>
     <use xlink:href="#FangSong-67" x="3000"/>
     <use xlink:href="#FangSong-31" x="3050"/>
     <use xlink:href="#FangSong-39" x="3100"/>
     <use xlink:href="#FangSong-3d" x="3150"/>
     <use xlink:href="#FangSong-37" x="3200"/>
     <use xlink:href="#FangSong-35" x="3250"/>
    </g>
   </g>
   <g id="legend_1">
    <g id="patch_7">
     <path d="M 315.72 302.584 
L 407.72 302.584 
Q 409.72 302.584 409.72 300.584 
L 409.72 234.279312 
Q 409.72 232.279312 407.72 232.279312 
L 315.72 232.279312 
Q 313.72 232.279312 313.72 234.279312 
L 313.72 300.584 
Q 313.72 302.584 315.72 302.584 
z
" style="fill: #ffffff; opacity: 0.8; stroke: #cccccc; stroke-linejoin: miter"/>
    </g>
    <g id="line2d_20">
     <path d="M 317.72 239.779312 
L 327.72 239.779312 
L 337.72 239.779312 
" style="fill: none; stroke: #ff0000; stroke-linecap: square"/>
    </g>
    <g id="text_18">
     <!-- total -->
     <g transform="translate(345.72 243.279312)scale(0.1 -0.1)">
      <defs>
       <path id="FangSong-61" d="M 1200 -25 
Q 750 -25 500 187 
Q 250 400 250 675 
Q 250 1125 637 1412 
Q 1025 1700 2175 1825 
L 2175 2125 
Q 2175 2375 2062 2537 
Q 1950 2700 1550 2700 
Q 1125 2700 950 2562 
Q 775 2425 825 2275 
Q 875 2175 825 2075 
Q 775 1975 625 1975 
Q 525 1975 462 2037 
Q 400 2100 400 2225 
Q 400 2450 725 2650 
Q 1050 2850 1525 2850 
Q 2025 2850 2275 2662 
Q 2525 2475 2525 2125 
L 2525 475 
Q 2525 275 2562 237 
Q 2600 200 2700 200 
Q 2825 200 2875 312 
Q 2925 425 2925 625 
L 3050 625 
Q 3050 275 2925 137 
Q 2800 0 2600 0 
Q 2425 0 2325 75 
Q 2225 150 2175 325 
Q 1925 150 1712 62 
Q 1500 -25 1200 -25 
z
M 675 750 
Q 675 525 812 337 
Q 950 150 1250 150 
Q 1475 150 1700 237 
Q 1925 325 2175 500 
L 2175 1675 
Q 1325 1575 1000 1337 
Q 675 1100 675 750 
z
" transform="scale(0.015625)"/>
      </defs>
      <use xlink:href="#FangSong-74"/>
      <use xlink:href="#FangSong-6f" x="50"/>
      <use xlink:href="#FangSong-74" x="100"/>
      <use xlink:href="#FangSong-61" x="150"/>
      <use xlink:href="#FangSong-6c" x="200"/>
     </g>
    </g>
    <g id="line2d_21">
     <path d="M 317.72 253.224625 
L 327.72 253.224625 
L 337.72 253.224625 
" style="fill: none; stroke-dasharray: 1.85,0.8; stroke-dashoffset: 0; stroke: #008000; stroke-width: 0.5"/>
    </g>
    <g id="text_19">
     <!-- googlenet -->
     <g transform="translate(345.72 256.724625)scale(0.1 -0.1)">
      <use xlink:href="#FangSong-67"/>
      <use xlink:href="#FangSong-6f" x="50"/>
      <use xlink:href="#FangSong-6f" x="100"/>
      <use xlink:href="#FangSong-67" x="150"/>
      <use xlink:href="#FangSong-6c" x="200"/>
      <use xlink:href="#FangSong-65" x="250"/>
      <use xlink:href="#FangSong-6e" x="300"/>
      <use xlink:href="#FangSong-65" x="350"/>
      <use xlink:href="#FangSong-74" x="400"/>
     </g>
    </g>
    <g id="line2d_22">
     <path d="M 317.72 266.709 
L 327.72 266.709 
L 337.72 266.709 
" style="fill: none; stroke-dasharray: 1.85,0.8; stroke-dashoffset: 0; stroke: #0000ff; stroke-width: 0.5"/>
    </g>
    <g id="text_20">
     <!-- squeezenetv1 -->
     <g transform="translate(345.72 270.209)scale(0.1 -0.1)">
      <use xlink:href="#FangSong-73"/>
      <use xlink:href="#FangSong-71" x="50"/>
      <use xlink:href="#FangSong-75" x="100"/>
      <use xlink:href="#FangSong-65" x="150"/>
      <use xlink:href="#FangSong-65" x="200"/>
      <use xlink:href="#FangSong-7a" x="250"/>
      <use xlink:href="#FangSong-65" x="300"/>
      <use xlink:href="#FangSong-6e" x="350"/>
      <use xlink:href="#FangSong-65" x="400"/>
      <use xlink:href="#FangSong-74" x="450"/>
      <use xlink:href="#FangSong-76" x="500"/>
      <use xlink:href="#FangSong-31" x="550"/>
     </g>
    </g>
    <g id="line2d_23">
     <path d="M 317.72 280.154312 
L 327.72 280.154312 
L 337.72 280.154312 
" style="fill: none; stroke-dasharray: 1.85,0.8; stroke-dashoffset: 0; stroke: #bf00bf; stroke-width: 0.5"/>
    </g>
    <g id="text_21">
     <!-- resnet50 -->
     <g transform="translate(345.72 283.654312)scale(0.1 -0.1)">
      <use xlink:href="#FangSong-72"/>
      <use xlink:href="#FangSong-65" x="50"/>
      <use xlink:href="#FangSong-73" x="100"/>
      <use xlink:href="#FangSong-6e" x="150"/>
      <use xlink:href="#FangSong-65" x="200"/>
      <use xlink:href="#FangSong-74" x="250"/>
      <use xlink:href="#FangSong-35" x="300"/>
      <use xlink:href="#FangSong-30" x="350"/>
     </g>
    </g>
    <g id="line2d_24">
     <path d="M 317.72 293.599625 
L 327.72 293.599625 
L 337.72 293.599625 
" style="fill: none; stroke-dasharray: 1.85,0.8; stroke-dashoffset: 0; stroke: #bfbf00; stroke-width: 0.5"/>
    </g>
    <g id="text_22">
     <!-- vgg19 -->
     <g transform="translate(345.72 297.099625)scale(0.1 -0.1)">
      <use xlink:href="#FangSong-76"/>
      <use xlink:href="#FangSong-67" x="50"/>
      <use xlink:href="#FangSong-67" x="100"/>
      <use xlink:href="#FangSong-31" x="150"/>
      <use xlink:href="#FangSong-39" x="200"/>
     </g>
    </g>
   </g>
  </g>
 </g>
 <defs>
  <clipPath id="p3d463cac70">
   <rect x="57.6" y="41.472" width="357.12" height="266.112"/>
  </clipPath>
 </defs>
</svg>
