<?xml version="1.0" encoding="utf-8" standalone="no"?>
<!DOCTYPE svg PUBLIC "-//W3C//DTD SVG 1.1//EN"
  "http://www.w3.org/Graphics/SVG/1.1/DTD/svg11.dtd">
<svg xmlns:xlink="http://www.w3.org/1999/xlink" width="460.8pt" height="345.6pt" viewBox="0 0 460.8 345.6" xmlns="http://www.w3.org/2000/svg" version="1.1">
 <metadata>
  <rdf:RDF xmlns:dc="http://purl.org/dc/elements/1.1/" xmlns:cc="http://creativecommons.org/ns#" xmlns:rdf="http://www.w3.org/1999/02/22-rdf-syntax-ns#">
   <cc:Work>
    <dc:type rdf:resource="http://purl.org/dc/dcmitype/StillImage"/>
    <dc:date>2022-11-15T04:26:23.877123</dc:date>
    <dc:format>image/svg+xml</dc:format>
    <dc:creator>
     <cc:Agent>
      <dc:title>Matplotlib v3.5.2, https://matplotlib.org/</dc:title>
     </cc:Agent>
    </dc:creator>
   </cc:Work>
  </rdf:RDF>
 </metadata>
 <defs>
  <style type="text/css">*{stroke-linejoin: round; stroke-linecap: butt}</style>
 </defs>
 <g id="figure_1">
  <g id="patch_1">
   <path d="M 0 345.6 
L 460.8 345.6 
L 460.8 0 
L 0 0 
z
" style="fill: #ffffff"/>
  </g>
  <g id="axes_1">
   <g id="patch_2">
    <path d="M 57.6 307.584 
L 414.72 307.584 
L 414.72 41.472 
L 57.6 41.472 
z
" style="fill: #ffffff"/>
   </g>
   <g id="matplotlib.axis_1">
    <g id="xtick_1">
     <g id="line2d_1">
      <defs>
       <path id="m617fac2bc3" d="M 0 0 
L 0 3.5 
" style="stroke: #000000; stroke-width: 0.8"/>
      </defs>
      <g>
       <use xlink:href="#m617fac2bc3" x="100.014545" y="307.584" style="stroke: #000000; stroke-width: 0.8"/>
      </g>
     </g>
     <g id="text_1">
      <!-- 2 -->
      <g transform="translate(97.514545 321.576187)scale(0.1 -0.1)">
       <defs>
        <path id="FangSong-32" d="M 2300 3225 
Q 2300 3675 2100 3912 
Q 1900 4150 1500 4150 
Q 1200 4150 987 3987 
Q 775 3825 775 3575 
Q 775 3425 862 3325 
Q 950 3225 950 3125 
Q 950 3000 887 2937 
Q 825 2875 700 2875 
Q 550 2875 462 2962 
Q 375 3050 375 3250 
Q 375 3775 750 4050 
Q 1125 4325 1550 4325 
Q 2150 4325 2437 4025 
Q 2725 3725 2725 3275 
Q 2725 2975 2587 2675 
Q 2450 2375 2150 2100 
Q 1425 1400 1037 962 
Q 650 525 575 375 
L 2050 375 
Q 2275 375 2425 550 
Q 2575 725 2625 1075 
L 2775 1075 
L 2625 0 
L 300 0 
L 300 325 
Q 425 550 712 900 
Q 1000 1250 1475 1725 
Q 1900 2150 2100 2525 
Q 2300 2900 2300 3225 
z
" transform="scale(0.015625)"/>
       </defs>
       <use xlink:href="#FangSong-32"/>
      </g>
     </g>
    </g>
    <g id="xtick_2">
     <g id="line2d_2">
      <g>
       <use xlink:href="#m617fac2bc3" x="152.378182" y="307.584" style="stroke: #000000; stroke-width: 0.8"/>
      </g>
     </g>
     <g id="text_2">
      <!-- 4 -->
      <g transform="translate(149.878182 321.576187)scale(0.1 -0.1)">
       <defs>
        <path id="FangSong-34" d="M 2275 475 
Q 2275 300 2375 225 
Q 2475 150 2650 150 
L 2875 150 
L 2875 0 
L 1225 0 
L 1225 150 
L 1500 150 
Q 1700 150 1787 225 
Q 1875 300 1875 475 
L 1875 1300 
L 200 1300 
L 200 1425 
L 2025 4325 
L 2275 4325 
L 2275 1450 
L 2950 1450 
L 2950 1300 
L 2275 1300 
L 2275 475 
z
M 1850 3700 
L 425 1450 
L 1875 1450 
L 1875 3700 
L 1850 3700 
z
" transform="scale(0.015625)"/>
       </defs>
       <use xlink:href="#FangSong-34"/>
      </g>
     </g>
    </g>
    <g id="xtick_3">
     <g id="line2d_3">
      <g>
       <use xlink:href="#m617fac2bc3" x="204.741818" y="307.584" style="stroke: #000000; stroke-width: 0.8"/>
      </g>
     </g>
     <g id="text_3">
      <!-- 6 -->
      <g transform="translate(202.241818 321.576187)scale(0.1 -0.1)">
       <defs>
        <path id="FangSong-36" d="M 750 1700 
Q 750 950 1012 537 
Q 1275 125 1650 125 
Q 2025 125 2225 400 
Q 2425 675 2425 1425 
Q 2425 1925 2212 2200 
Q 2000 2475 1700 2475 
Q 1425 2475 1187 2312 
Q 950 2150 750 1700 
z
M 1725 2725 
Q 2325 2725 2587 2325 
Q 2850 1925 2850 1425 
Q 2850 675 2487 312 
Q 2125 -50 1650 -50 
Q 975 -50 625 462 
Q 275 975 275 1950 
Q 275 3100 700 3712 
Q 1125 4325 1850 4325 
Q 2200 4325 2412 4125 
Q 2625 3925 2625 3775 
Q 2625 3625 2562 3550 
Q 2500 3475 2350 3475 
Q 2225 3475 2162 3537 
Q 2100 3600 2100 3725 
Q 2100 3775 2112 3825 
Q 2125 3875 2125 3925 
Q 2125 4025 2050 4087 
Q 1975 4150 1775 4150 
Q 1350 4150 1050 3762 
Q 750 3375 750 2075 
Q 900 2400 1162 2562 
Q 1425 2725 1725 2725 
z
" transform="scale(0.015625)"/>
       </defs>
       <use xlink:href="#FangSong-36"/>
      </g>
     </g>
    </g>
    <g id="xtick_4">
     <g id="line2d_4">
      <g>
       <use xlink:href="#m617fac2bc3" x="257.105455" y="307.584" style="stroke: #000000; stroke-width: 0.8"/>
      </g>
     </g>
     <g id="text_4">
      <!-- 8 -->
      <g transform="translate(254.605455 321.576187)scale(0.1 -0.1)">
       <defs>
        <path id="FangSong-38" d="M 600 1025 
Q 600 625 862 375 
Q 1125 125 1525 125 
Q 2000 125 2212 375 
Q 2425 625 2425 1000 
Q 2425 1325 2125 1625 
Q 1825 1925 1225 2175 
Q 925 1975 762 1675 
Q 600 1375 600 1025 
z
M 2800 1075 
Q 2800 600 2450 275 
Q 2100 -50 1525 -50 
Q 1000 -50 625 275 
Q 250 600 250 1025 
Q 250 1450 462 1750 
Q 675 2050 1075 2275 
Q 725 2450 537 2712 
Q 350 2975 350 3300 
Q 350 3725 675 4025 
Q 1000 4325 1575 4325 
Q 2100 4325 2425 4025 
Q 2750 3725 2750 3300 
Q 2750 3000 2562 2737 
Q 2375 2475 1975 2275 
Q 2400 2025 2600 1725 
Q 2800 1425 2800 1075 
z
M 2400 3275 
Q 2400 3625 2200 3887 
Q 2000 4150 1575 4150 
Q 1100 4150 900 3900 
Q 700 3650 700 3375 
Q 700 3100 987 2837 
Q 1275 2575 1800 2375 
Q 2100 2525 2250 2750 
Q 2400 2975 2400 3275 
z
" transform="scale(0.015625)"/>
       </defs>
       <use xlink:href="#FangSong-38"/>
      </g>
     </g>
    </g>
    <g id="xtick_5">
     <g id="line2d_5">
      <g>
       <use xlink:href="#m617fac2bc3" x="309.469091" y="307.584" style="stroke: #000000; stroke-width: 0.8"/>
      </g>
     </g>
     <g id="text_5">
      <!-- 10 -->
      <g transform="translate(304.469091 321.576187)scale(0.1 -0.1)">
       <defs>
        <path id="FangSong-31" d="M 1800 4350 
L 1800 550 
Q 1800 350 1925 250 
Q 2050 150 2275 150 
L 2525 150 
L 2525 0 
L 700 0 
L 700 150 
L 925 150 
Q 1175 150 1287 250 
Q 1400 350 1400 550 
L 1400 3575 
Q 1400 3675 1337 3737 
Q 1275 3800 1150 3800 
L 700 3800 
L 700 3950 
L 925 3950 
Q 1225 3950 1412 4050 
Q 1600 4150 1700 4350 
L 1800 4350 
z
" transform="scale(0.015625)"/>
        <path id="FangSong-30" d="M 1575 4125 
Q 1225 4125 987 3587 
Q 750 3050 750 2150 
Q 750 1200 987 675 
Q 1225 150 1575 150 
Q 1950 150 2162 675 
Q 2375 1200 2375 2150 
Q 2375 3050 2175 3587 
Q 1975 4125 1575 4125 
z
M 1575 -50 
Q 1025 -50 650 525 
Q 275 1100 275 2150 
Q 275 3125 637 3725 
Q 1000 4325 1575 4325 
Q 2125 4325 2487 3750 
Q 2850 3175 2850 2150 
Q 2850 1125 2487 537 
Q 2125 -50 1575 -50 
z
" transform="scale(0.015625)"/>
       </defs>
       <use xlink:href="#FangSong-31"/>
       <use xlink:href="#FangSong-30" x="50"/>
      </g>
     </g>
    </g>
    <g id="xtick_6">
     <g id="line2d_6">
      <g>
       <use xlink:href="#m617fac2bc3" x="361.832727" y="307.584" style="stroke: #000000; stroke-width: 0.8"/>
      </g>
     </g>
     <g id="text_6">
      <!-- 12 -->
      <g transform="translate(356.832727 321.576187)scale(0.1 -0.1)">
       <use xlink:href="#FangSong-31"/>
       <use xlink:href="#FangSong-32" x="50"/>
      </g>
     </g>
    </g>
    <g id="xtick_7">
     <g id="line2d_7">
      <g>
       <use xlink:href="#m617fac2bc3" x="414.196364" y="307.584" style="stroke: #000000; stroke-width: 0.8"/>
      </g>
     </g>
     <g id="text_7">
      <!-- 14 -->
      <g transform="translate(409.196364 321.576187)scale(0.1 -0.1)">
       <use xlink:href="#FangSong-31"/>
       <use xlink:href="#FangSong-34" x="50"/>
      </g>
     </g>
    </g>
    <g id="text_8">
     <!-- 响应比 -->
     <g transform="translate(221.16 334.873062)scale(0.1 -0.1)">
      <defs>
       <path id="FangSong-54cd" d="M 2700 -200 
Q 2725 -650 2625 -525 
L 2375 -125 
Q 2500 50 2475 350 
L 2500 3200 
Q 2500 3625 2425 4100 
L 2500 4125 
L 2725 3575 
L 3300 3625 
Q 3550 4225 3675 4637 
Q 3800 5050 3700 5150 
L 3775 5200 
L 4125 4750 
Q 4050 4800 3900 4512 
Q 3750 4225 3500 3650 
L 5275 3850 
L 5425 4125 
L 5725 3850 
L 5575 3650 
Q 5500 -175 5175 -675 
Q 4800 -275 4175 250 
L 4225 350 
L 5050 -175 
Q 5275 525 5325 3625 
L 2725 3325 
L 2700 -200 
z
M 725 3250 
Q 725 3575 625 3925 
L 725 3975 
L 950 3525 
L 1750 3650 
L 1875 3875 
L 2175 3650 
L 2000 3450 
L 1925 2175 
L 2125 1950 
L 1000 1800 
Q 1025 1275 900 1350 
L 650 1750 
Q 775 1850 750 2150 
L 725 3250 
z
M 3550 1250 
Q 3575 950 3500 875 
L 3225 1200 
Q 3300 1350 3300 1525 
L 3275 2325 
Q 3275 2700 3200 2875 
L 3275 2925 
L 3500 2625 
L 4350 2725 
L 4500 2925 
L 4775 2675 
L 4600 2475 
L 4525 1575 
L 4750 1400 
L 3550 1250 
z
M 975 3275 
L 1000 2050 
L 1675 2150 
L 1775 3425 
L 975 3275 
z
M 4350 2475 
L 3500 2375 
L 3525 1500 
L 4275 1575 
L 4350 2475 
z
" transform="scale(0.015625)"/>
       <path id="FangSong-5e94" d="M 1625 4400 
L 1800 3800 
Q 5075 4050 5200 4175 
L 5525 3850 
Q 5200 3900 1825 3550 
Q 1775 2450 1675 1825 
Q 1575 1200 1312 612 
Q 1050 25 500 -600 
L 425 -525 
Q 850 50 1100 675 
Q 1350 1300 1425 1862 
Q 1500 2425 1550 3150 
Q 1600 3875 1550 4375 
L 1625 4400 
z
M 4725 3175 
L 5100 2725 
Q 5000 2800 4750 2112 
Q 4500 1425 4000 150 
Q 5425 225 5400 275 
L 5725 0 
Q 5425 0 3687 -112 
Q 1950 -225 1725 -275 
L 1350 25 
Q 2150 0 3800 125 
Q 4300 1500 4525 2200 
Q 4750 2900 4650 3125 
L 4725 3175 
z
M 2900 1150 
Q 2800 975 2650 725 
Q 2450 1625 2175 2550 
L 2275 2575 
Q 2600 1850 2900 1150 
z
M 3775 1550 
Q 3675 1350 3525 1150 
Q 3475 1600 3075 3050 
L 3150 3075 
Q 3475 2300 3775 1550 
z
M 3500 4100 
Q 3275 4675 3000 5225 
L 3075 5275 
Q 3375 4900 3700 4525 
Q 3600 4325 3500 4100 
z
" transform="scale(0.015625)"/>
       <path id="FangSong-6bd4" d="M 3500 2125 
Q 3925 2425 4487 2975 
Q 5050 3525 4950 3750 
L 5025 3775 
L 5250 3225 
Q 5175 3250 4875 3000 
Q 4575 2750 4287 2525 
Q 4000 2300 3500 1900 
L 3500 575 
Q 3475 -100 4150 -100 
L 4800 -100 
Q 5275 -100 5375 12 
Q 5475 125 5450 1350 
L 5575 1350 
Q 5600 825 5637 412 
Q 5675 0 5800 -175 
Q 5375 -325 4800 -325 
L 4150 -325 
Q 3225 -350 3275 550 
L 3275 4300 
Q 3275 4875 3150 5150 
L 3200 5200 
L 3625 4850 
Q 3475 4825 3500 4250 
L 3500 2125 
z
M 1500 2575 
Q 1900 2625 2337 2712 
Q 2775 2800 2800 2850 
L 3075 2600 
Q 2875 2575 2350 2475 
Q 1825 2375 1775 2325 
L 1500 2525 
L 1500 150 
L 2925 1075 
L 2975 1025 
Q 1550 -75 1375 -350 
L 1200 0 
Q 1275 75 1275 350 
L 1275 3925 
Q 1275 4475 1150 4750 
L 1200 4800 
L 1625 4400 
Q 1475 4375 1500 3925 
L 1500 2575 
z
" transform="scale(0.015625)"/>
      </defs>
      <use xlink:href="#FangSong-54cd"/>
      <use xlink:href="#FangSong-5e94" x="100"/>
      <use xlink:href="#FangSong-6bd4" x="200"/>
     </g>
    </g>
   </g>
   <g id="matplotlib.axis_2">
    <g id="ytick_1">
     <g id="line2d_8">
      <defs>
       <path id="mb23e2139db" d="M 0 0 
L -3.5 0 
" style="stroke: #000000; stroke-width: 0.8"/>
      </defs>
      <g>
       <use xlink:href="#mb23e2139db" x="57.6" y="295.488" style="stroke: #000000; stroke-width: 0.8"/>
      </g>
     </g>
     <g id="text_9">
      <!-- 0% -->
      <g transform="translate(40.6 298.984094)scale(0.1 -0.1)">
       <defs>
        <path id="FangSong-25" d="M 725 4150 
Q 575 4150 475 3950 
Q 375 3750 375 3200 
Q 375 2575 487 2387 
Q 600 2200 725 2200 
Q 900 2200 987 2425 
Q 1075 2650 1075 3200 
Q 1075 3650 1012 3900 
Q 950 4150 725 4150 
z
M 1400 3175 
Q 1400 2725 1250 2387 
Q 1100 2050 725 2050 
Q 425 2050 237 2350 
Q 50 2650 50 3175 
Q 50 3725 250 4025 
Q 450 4325 725 4325 
Q 1025 4325 1212 4012 
Q 1400 3700 1400 3175 
z
M 2700 1100 
Q 2700 1525 2625 1800 
Q 2550 2075 2350 2075 
Q 2200 2075 2100 1837 
Q 2000 1600 2000 1100 
Q 2000 475 2112 300 
Q 2225 125 2350 125 
Q 2525 125 2612 337 
Q 2700 550 2700 1100 
z
M 3025 1075 
Q 3025 575 2850 262 
Q 2675 -50 2350 -50 
Q 2075 -50 1875 262 
Q 1675 575 1675 1075 
Q 1675 1625 1875 1937 
Q 2075 2250 2350 2250 
Q 2650 2250 2837 1925 
Q 3025 1600 3025 1075 
z
M 2500 4250 
L 700 -50 
L 550 25 
L 2325 4325 
L 2500 4250 
z
" transform="scale(0.015625)"/>
       </defs>
       <use xlink:href="#FangSong-30"/>
       <use xlink:href="#FangSong-25" x="50"/>
      </g>
     </g>
    </g>
    <g id="ytick_2">
     <g id="line2d_9">
      <g>
       <use xlink:href="#mb23e2139db" x="57.6" y="247.104" style="stroke: #000000; stroke-width: 0.8"/>
      </g>
     </g>
     <g id="text_10">
      <!-- 20% -->
      <g transform="translate(35.6 250.600094)scale(0.1 -0.1)">
       <use xlink:href="#FangSong-32"/>
       <use xlink:href="#FangSong-30" x="50"/>
       <use xlink:href="#FangSong-25" x="100"/>
      </g>
     </g>
    </g>
    <g id="ytick_3">
     <g id="line2d_10">
      <g>
       <use xlink:href="#mb23e2139db" x="57.6" y="198.72" style="stroke: #000000; stroke-width: 0.8"/>
      </g>
     </g>
     <g id="text_11">
      <!-- 40% -->
      <g transform="translate(35.6 202.216094)scale(0.1 -0.1)">
       <use xlink:href="#FangSong-34"/>
       <use xlink:href="#FangSong-30" x="50"/>
       <use xlink:href="#FangSong-25" x="100"/>
      </g>
     </g>
    </g>
    <g id="ytick_4">
     <g id="line2d_11">
      <g>
       <use xlink:href="#mb23e2139db" x="57.6" y="150.336" style="stroke: #000000; stroke-width: 0.8"/>
      </g>
     </g>
     <g id="text_12">
      <!-- 60% -->
      <g transform="translate(35.6 153.832094)scale(0.1 -0.1)">
       <use xlink:href="#FangSong-36"/>
       <use xlink:href="#FangSong-30" x="50"/>
       <use xlink:href="#FangSong-25" x="100"/>
      </g>
     </g>
    </g>
    <g id="ytick_5">
     <g id="line2d_12">
      <g>
       <use xlink:href="#mb23e2139db" x="57.6" y="101.952" style="stroke: #000000; stroke-width: 0.8"/>
      </g>
     </g>
     <g id="text_13">
      <!-- 80% -->
      <g transform="translate(35.6 105.448094)scale(0.1 -0.1)">
       <use xlink:href="#FangSong-38"/>
       <use xlink:href="#FangSong-30" x="50"/>
       <use xlink:href="#FangSong-25" x="100"/>
      </g>
     </g>
    </g>
    <g id="ytick_6">
     <g id="line2d_13">
      <g>
       <use xlink:href="#mb23e2139db" x="57.6" y="53.568" style="stroke: #000000; stroke-width: 0.8"/>
      </g>
     </g>
     <g id="text_14">
      <!-- 100% -->
      <g transform="translate(30.6 57.064094)scale(0.1 -0.1)">
       <use xlink:href="#FangSong-31"/>
       <use xlink:href="#FangSong-30" x="50"/>
       <use xlink:href="#FangSong-30" x="100"/>
       <use xlink:href="#FangSong-25" x="150"/>
      </g>
     </g>
    </g>
    <g id="text_15">
     <!-- 累计完成比例 -->
     <g transform="translate(25.154688 204.528)rotate(-90)scale(0.1 -0.1)">
      <defs>
       <path id="FangSong-7d2f" d="M 4525 4975 
L 4700 5225 
L 5000 4950 
L 4825 4775 
L 4625 3550 
L 4850 3300 
L 3175 3150 
L 3375 2975 
Q 3200 2925 2862 2725 
Q 2525 2525 2075 2275 
L 3475 2500 
Q 3750 2675 3900 2800 
Q 4050 2925 4100 3075 
L 4175 3100 
L 4325 2700 
Q 4200 2675 3500 2237 
Q 2800 1800 2275 1550 
L 4375 1825 
L 3900 2175 
L 4000 2275 
Q 4625 1900 4950 1725 
Q 4975 1475 4925 1225 
Q 4800 1375 4500 1675 
L 3250 1475 
L 3525 1300 
Q 3375 1200 3375 875 
L 3375 25 
Q 3375 -325 3225 -625 
Q 2975 -325 2400 150 
L 2450 250 
L 3050 -75 
Q 3150 -125 3150 0 
L 3150 925 
Q 3150 1300 3125 1450 
Q 1875 1275 1575 1175 
L 1325 1425 
L 1850 1550 
Q 2175 1700 3250 2300 
Q 2075 2100 1875 2000 
L 1575 2250 
L 1800 2300 
Q 2150 2475 3025 3125 
L 2000 3025 
Q 2000 2675 1950 2700 
Q 1900 2725 1650 3025 
Q 1725 3250 1725 3425 
L 1650 4400 
Q 1625 4675 1525 4950 
L 1625 5000 
L 1875 4675 
L 4525 4975 
z
M 3150 3375 
L 3150 3875 
Q 2525 3800 2400 3725 
L 2100 3975 
Q 2500 3975 3150 4075 
L 3150 4600 
L 1900 4450 
L 1975 3250 
L 3150 3375 
z
M 3375 4100 
Q 3950 4175 4025 4225 
L 4275 4000 
Q 3950 3975 3375 3900 
L 3375 3400 
L 4400 3500 
L 4575 4750 
L 3375 4600 
L 3375 4100 
z
M 5450 -75 
Q 4975 325 3875 1025 
L 3950 1125 
Q 4850 700 5350 500 
Q 5425 250 5450 -75 
z
M 800 -250 
Q 1350 75 1825 500 
Q 2300 925 2325 1125 
L 2400 1150 
L 2550 725 
Q 2425 700 2075 425 
Q 1725 150 875 -350 
L 800 -250 
z
" transform="scale(0.015625)"/>
       <path id="FangSong-8ba1" d="M 4075 4200 
Q 4100 4825 3900 5100 
L 3975 5150 
L 4450 4725 
Q 4275 4600 4300 4200 
L 4275 3000 
Q 5525 3200 5575 3250 
L 5950 2950 
Q 5725 2975 4275 2800 
L 4250 -425 
Q 4250 -700 4150 -575 
L 3875 -150 
Q 4050 50 4025 300 
L 4050 2750 
Q 2975 2625 2900 2575 
L 2525 2825 
Q 2850 2825 4050 2975 
L 4075 4200 
z
M 1775 3250 
L 2100 2950 
L 1900 2750 
L 1875 550 
L 2825 1250 
L 2875 1175 
Q 1875 250 1750 -25 
L 1525 275 
Q 1625 375 1650 625 
L 1675 2775 
Q 900 2625 750 2550 
L 425 2800 
Q 850 2825 1650 3000 
L 1775 3250 
z
M 2025 3800 
Q 1825 4300 1325 4950 
L 1375 5025 
Q 1925 4575 2175 4300 
Q 2125 4000 2025 3800 
z
" transform="scale(0.015625)"/>
       <path id="FangSong-5b8c" d="M 5375 2050 
Q 4925 2050 3550 1950 
L 3850 1750 
Q 3725 1600 3700 1375 
L 3675 275 
Q 3650 -125 4075 -175 
L 4925 -175 
Q 5300 -150 5312 62 
Q 5325 275 5325 1025 
L 5425 1025 
Q 5450 750 5475 337 
Q 5500 -75 5700 -275 
Q 5400 -375 5000 -400 
L 4075 -400 
Q 3425 -350 3425 150 
L 3475 1450 
Q 3475 1775 3425 1925 
L 2675 1850 
L 2875 1650 
Q 2750 1550 2600 1200 
Q 2450 850 2025 312 
Q 1600 -225 600 -675 
L 550 -575 
Q 1525 -100 1987 625 
Q 2450 1350 2525 1850 
Q 1550 1775 1500 1725 
L 1150 2025 
Q 1625 2025 3212 2150 
Q 4800 2275 5000 2350 
L 5375 2050 
z
M 1650 3650 
Q 1550 3125 1325 2875 
L 1150 3250 
Q 1450 3425 1575 4400 
L 1675 4400 
L 1675 3900 
L 5025 4150 
L 5175 4400 
L 5525 4075 
Q 5375 4050 4725 3250 
L 4650 3325 
L 4975 3900 
L 1650 3650 
z
M 4475 2975 
Q 4225 2975 3412 2875 
Q 2600 2775 2400 2725 
L 2050 2975 
Q 2575 2975 3200 3075 
Q 3825 3175 4150 3225 
L 4475 2975 
z
M 3550 4575 
Q 3475 4350 3300 4150 
Q 3225 4475 2900 5200 
L 2975 5250 
Q 3350 4825 3550 4575 
z
" transform="scale(0.015625)"/>
       <path id="FangSong-6210" d="M 5575 975 
Q 5600 -150 5750 -625 
Q 4650 -225 4000 1075 
Q 3625 650 2975 225 
L 2925 325 
Q 3525 825 3900 1300 
Q 3600 2275 3500 3300 
L 1875 3125 
Q 1875 2625 1825 2100 
L 2725 2250 
L 2875 2475 
L 3175 2225 
L 3000 2050 
Q 2850 475 2575 -125 
Q 2225 400 1825 775 
L 1875 850 
L 2475 400 
Q 2650 875 2750 2000 
L 1825 1850 
Q 1675 250 600 -650 
L 525 -600 
Q 1250 250 1425 987 
Q 1600 1725 1625 2612 
Q 1650 3500 1550 3800 
L 1625 3825 
L 1850 3350 
L 3450 3525 
Q 3400 4150 3375 4562 
Q 3350 4975 3225 5200 
L 3275 5225 
L 3725 4900 
Q 3625 4925 3637 4575 
Q 3650 4225 3675 3550 
Q 4900 3700 5050 3775 
L 5325 3475 
Q 4775 3475 3725 3325 
Q 3775 2425 4075 1525 
Q 4500 2025 4687 2325 
Q 4875 2625 4800 2850 
L 4875 2875 
L 5125 2325 
Q 5075 2400 4850 2125 
Q 4625 1850 4150 1275 
Q 4625 225 5425 -125 
L 5475 975 
L 5575 975 
z
M 4100 5000 
Q 4525 4700 4875 4450 
Q 4825 4250 4750 4025 
Q 4400 4525 4025 4950 
L 4100 5000 
z
" transform="scale(0.015625)"/>
       <path id="FangSong-4f8b" d="M 3050 2000 
Q 3025 1800 2975 1600 
Q 2775 1900 2525 2250 
Q 2300 1875 2025 1550 
L 1925 1625 
Q 2675 2725 2975 3975 
Q 2475 3925 2375 3875 
L 2050 4125 
Q 2375 4125 3162 4225 
Q 3950 4325 4100 4450 
L 4350 4125 
Q 4050 4150 3100 3975 
L 3300 3700 
Q 3200 3675 3125 3525 
Q 3050 3375 2925 3050 
L 3625 3150 
L 3775 3350 
L 4050 3075 
L 3875 2900 
Q 3300 825 1850 -225 
L 1800 -100 
Q 3100 975 3625 2900 
Q 3150 2825 3025 2775 
L 2875 2925 
Q 2775 2675 2575 2350 
Q 2900 2125 3050 2000 
z
M 1275 -150 
Q 1425 25 1400 225 
L 1450 3425 
Q 1025 2800 475 2225 
L 400 2325 
Q 875 2850 1450 3887 
Q 2025 4925 1925 5150 
L 2000 5175 
L 2250 4700 
Q 2200 4725 2062 4475 
Q 1925 4225 1675 3800 
L 1625 -325 
Q 1650 -675 1525 -600 
L 1275 -150 
z
M 5475 250 
Q 5475 -300 5300 -650 
Q 4900 -100 4300 375 
L 4350 475 
L 5200 -75 
Q 5250 250 5250 575 
L 5250 4350 
Q 5275 4950 5100 5150 
L 5175 5225 
L 5600 4850 
Q 5450 4775 5475 4325 
L 5475 250 
z
M 4300 1525 
Q 4400 1650 4400 1900 
L 4400 3075 
Q 4425 3525 4300 3750 
L 4350 3800 
L 4725 3450 
Q 4600 3350 4625 3025 
L 4625 1375 
Q 4625 1050 4550 1125 
L 4300 1525 
z
" transform="scale(0.015625)"/>
      </defs>
      <use xlink:href="#FangSong-7d2f"/>
      <use xlink:href="#FangSong-8ba1" x="100"/>
      <use xlink:href="#FangSong-5b8c" x="200"/>
      <use xlink:href="#FangSong-6210" x="300"/>
      <use xlink:href="#FangSong-6bd4" x="400"/>
      <use xlink:href="#FangSong-4f8b" x="500"/>
     </g>
    </g>
   </g>
   <g id="line2d_14">
    <path d="M 73.832727 295.488 
L 76.450909 262.34496 
L 79.069091 203.80032 
L 81.687273 160.0128 
L 84.305455 150.81984 
L 86.923636 139.4496 
L 89.541818 132.67584 
L 92.16 125.66016 
L 94.778182 105.33888 
L 97.396364 96.87168 
L 100.014545 89.13024 
L 102.632727 84.77568 
L 105.250909 78.72768 
L 107.869091 75.82464 
L 110.487273 73.64736 
L 113.105455 70.74432 
L 115.723636 69.53472 
L 118.341818 67.35744 
L 120.96 66.14784 
L 123.578182 65.18016 
L 126.196364 64.21248 
L 128.814545 62.27712 
L 131.432727 61.55136 
L 134.050909 59.13216 
L 136.669091 58.16448 
L 139.287273 56.71296 
L 141.905455 55.9872 
L 144.523636 55.74528 
L 147.141818 55.01952 
L 149.76 54.05184 
L 152.378182 53.80992 
L 154.996364 53.568 
L 157.614545 53.568 
L 160.232727 53.568 
L 162.850909 53.568 
L 165.469091 53.568 
L 168.087273 53.568 
L 170.705455 53.568 
L 173.323636 53.568 
L 175.941818 53.568 
L 178.56 53.568 
L 181.178182 53.568 
L 183.796364 53.568 
L 186.414545 53.568 
L 189.032727 53.568 
L 191.650909 53.568 
L 194.269091 53.568 
L 196.887273 53.568 
L 199.505455 53.568 
L 202.123636 53.568 
L 204.741818 53.568 
L 207.36 53.568 
L 209.978182 53.568 
L 212.596364 53.568 
L 215.214545 53.568 
L 217.832727 53.568 
L 220.450909 53.568 
L 223.069091 53.568 
L 225.687273 53.568 
L 228.305455 53.568 
L 230.923636 53.568 
L 233.541818 53.568 
L 236.16 53.568 
L 238.778182 53.568 
L 241.396364 53.568 
L 244.014545 53.568 
L 246.632727 53.568 
L 249.250909 53.568 
L 251.869091 53.568 
L 254.487273 53.568 
L 257.105455 53.568 
L 259.723636 53.568 
L 262.341818 53.568 
L 264.96 53.568 
L 267.578182 53.568 
L 270.196364 53.568 
L 272.814545 53.568 
L 275.432727 53.568 
L 278.050909 53.568 
L 280.669091 53.568 
L 283.287273 53.568 
L 285.905455 53.568 
L 288.523636 53.568 
L 291.141818 53.568 
L 293.76 53.568 
L 296.378182 53.568 
L 298.996364 53.568 
L 301.614545 53.568 
L 304.232727 53.568 
L 306.850909 53.568 
L 309.469091 53.568 
L 312.087273 53.568 
L 314.705455 53.568 
L 317.323636 53.568 
L 319.941818 53.568 
L 322.56 53.568 
L 325.178182 53.568 
L 327.796364 53.568 
L 330.414545 53.568 
L 333.032727 53.568 
L 335.650909 53.568 
L 338.269091 53.568 
L 340.887273 53.568 
L 343.505455 53.568 
L 346.123636 53.568 
L 348.741818 53.568 
L 351.36 53.568 
L 353.978182 53.568 
L 356.596364 53.568 
L 359.214545 53.568 
L 361.832727 53.568 
L 364.450909 53.568 
L 367.069091 53.568 
L 369.687273 53.568 
L 372.305455 53.568 
L 374.923636 53.568 
L 377.541818 53.568 
L 380.16 53.568 
L 382.778182 53.568 
L 385.396364 53.568 
L 388.014545 53.568 
L 390.632727 53.568 
L 393.250909 53.568 
L 395.869091 53.568 
L 398.487273 53.568 
" clip-path="url(#p6022398e1f)" style="fill: none; stroke: #ff0000; stroke-width: 0.5; stroke-linecap: square"/>
   </g>
   <g id="line2d_15">
    <path d="M 73.832727 295.488 
L 76.450909 201.62304 
L 79.069091 125.66016 
L 81.687273 111.87072 
L 84.305455 107.03232 
L 86.923636 103.40352 
L 89.541818 99.29088 
L 92.16 97.1136 
L 94.778182 95.42016 
L 97.396364 93.72672 
L 100.014545 92.75904 
L 102.632727 91.0656 
L 105.250909 88.6464 
L 107.869091 87.19488 
L 110.487273 85.74336 
L 113.105455 84.29184 
L 115.723636 83.32416 
L 118.341818 82.35648 
L 120.96 81.3888 
L 123.578182 79.93728 
L 126.196364 78.48576 
L 128.814545 76.30848 
L 131.432727 75.3408 
L 134.050909 73.40544 
L 136.669091 71.47008 
L 139.287273 70.5024 
L 141.905455 67.84128 
L 144.523636 67.84128 
L 147.141818 67.59936 
L 149.76 66.8736 
L 152.378182 66.63168 
L 154.996364 65.90592 
L 157.614545 65.90592 
L 160.232727 65.42208 
L 162.850909 65.42208 
L 165.469091 65.18016 
L 168.087273 65.18016 
L 170.705455 65.18016 
L 173.323636 63.72864 
L 175.941818 63.48672 
L 178.56 63.2448 
L 181.178182 63.00288 
L 183.796364 62.27712 
L 186.414545 62.27712 
L 189.032727 61.79328 
L 191.650909 61.79328 
L 194.269091 61.30944 
L 196.887273 60.8256 
L 199.505455 60.8256 
L 202.123636 60.8256 
L 204.741818 60.58368 
L 207.36 60.34176 
L 209.978182 59.85792 
L 212.596364 59.37408 
L 215.214545 58.64832 
L 217.832727 58.4064 
L 220.450909 58.16448 
L 223.069091 57.68064 
L 225.687273 57.1968 
L 228.305455 57.1968 
L 230.923636 56.71296 
L 233.541818 56.47104 
L 236.16 56.22912 
L 238.778182 55.74528 
L 241.396364 55.26144 
L 244.014545 55.01952 
L 246.632727 54.53568 
L 249.250909 54.53568 
L 251.869091 54.29376 
L 254.487273 53.80992 
L 257.105455 53.80992 
L 259.723636 53.80992 
L 262.341818 53.80992 
L 264.96 53.568 
L 267.578182 53.568 
L 270.196364 53.568 
L 272.814545 53.568 
L 275.432727 53.568 
L 278.050909 53.568 
L 280.669091 53.568 
L 283.287273 53.568 
L 285.905455 53.568 
L 288.523636 53.568 
L 291.141818 53.568 
L 293.76 53.568 
L 296.378182 53.568 
L 298.996364 53.568 
L 301.614545 53.568 
L 304.232727 53.568 
L 306.850909 53.568 
L 309.469091 53.568 
L 312.087273 53.568 
L 314.705455 53.568 
L 317.323636 53.568 
L 319.941818 53.568 
L 322.56 53.568 
L 325.178182 53.568 
L 327.796364 53.568 
L 330.414545 53.568 
L 333.032727 53.568 
L 335.650909 53.568 
L 338.269091 53.568 
L 340.887273 53.568 
L 343.505455 53.568 
L 346.123636 53.568 
L 348.741818 53.568 
L 351.36 53.568 
L 353.978182 53.568 
L 356.596364 53.568 
L 359.214545 53.568 
L 361.832727 53.568 
L 364.450909 53.568 
L 367.069091 53.568 
L 369.687273 53.568 
L 372.305455 53.568 
L 374.923636 53.568 
L 377.541818 53.568 
L 380.16 53.568 
L 382.778182 53.568 
L 385.396364 53.568 
L 388.014545 53.568 
L 390.632727 53.568 
L 393.250909 53.568 
L 395.869091 53.568 
L 398.487273 53.568 
" clip-path="url(#p6022398e1f)" style="fill: none; stroke-dasharray: 1.85,0.8; stroke-dashoffset: 0; stroke: #008000; stroke-width: 0.5"/>
   </g>
   <g id="line2d_16">
    <path d="M 73.832727 295.488 
L 76.450909 213.2352 
L 79.069091 151.30368 
L 81.687273 109.93536 
L 84.305455 103.88736 
L 86.923636 100.7424 
L 89.541818 98.08128 
L 92.16 96.38784 
L 94.778182 94.21056 
L 97.396364 93.00096 
L 100.014545 91.79136 
L 102.632727 90.58176 
L 105.250909 88.88832 
L 107.869091 87.67872 
L 110.487273 87.4368 
L 113.105455 86.46912 
L 115.723636 85.74336 
L 118.341818 83.32416 
L 120.96 81.87264 
L 123.578182 80.42112 
L 126.196364 78.72768 
L 128.814545 77.03424 
L 131.432727 76.5504 
L 134.050909 75.3408 
L 136.669091 73.88928 
L 139.287273 72.19584 
L 141.905455 70.98624 
L 144.523636 70.74432 
L 147.141818 70.5024 
L 149.76 70.26048 
L 152.378182 69.77664 
L 154.996364 69.53472 
L 157.614545 68.80896 
L 160.232727 68.80896 
L 162.850909 68.0832 
L 165.469091 68.0832 
L 168.087273 67.59936 
L 170.705455 67.11552 
L 173.323636 66.63168 
L 175.941818 66.38976 
L 178.56 65.90592 
L 181.178182 65.42208 
L 183.796364 65.42208 
L 186.414545 65.42208 
L 189.032727 64.93824 
L 191.650909 64.93824 
L 194.269091 64.4544 
L 196.887273 63.97056 
L 199.505455 63.48672 
L 202.123636 63.2448 
L 204.741818 63.00288 
L 207.36 63.00288 
L 209.978182 62.76096 
L 212.596364 62.27712 
L 215.214545 61.30944 
L 217.832727 60.8256 
L 220.450909 60.09984 
L 223.069091 58.64832 
L 225.687273 58.64832 
L 228.305455 58.4064 
L 230.923636 58.16448 
L 233.541818 57.92256 
L 236.16 57.43872 
L 238.778182 57.43872 
L 241.396364 56.71296 
L 244.014545 56.47104 
L 246.632727 56.47104 
L 249.250909 56.22912 
L 251.869091 55.50336 
L 254.487273 54.7776 
L 257.105455 54.7776 
L 259.723636 54.7776 
L 262.341818 54.7776 
L 264.96 54.7776 
L 267.578182 54.7776 
L 270.196364 54.7776 
L 272.814545 54.7776 
L 275.432727 54.7776 
L 278.050909 54.7776 
L 280.669091 54.7776 
L 283.287273 54.7776 
L 285.905455 54.7776 
L 288.523636 54.29376 
L 291.141818 54.05184 
L 293.76 54.05184 
L 296.378182 54.05184 
L 298.996364 53.80992 
L 301.614545 53.80992 
L 304.232727 53.80992 
L 306.850909 53.80992 
L 309.469091 53.80992 
L 312.087273 53.80992 
L 314.705455 53.80992 
L 317.323636 53.80992 
L 319.941818 53.80992 
L 322.56 53.80992 
L 325.178182 53.80992 
L 327.796364 53.80992 
L 330.414545 53.80992 
L 333.032727 53.80992 
L 335.650909 53.80992 
L 338.269091 53.80992 
L 340.887273 53.80992 
L 343.505455 53.80992 
L 346.123636 53.568 
L 348.741818 53.568 
L 351.36 53.568 
L 353.978182 53.568 
L 356.596364 53.568 
L 359.214545 53.568 
L 361.832727 53.568 
L 364.450909 53.568 
L 367.069091 53.568 
L 369.687273 53.568 
L 372.305455 53.568 
L 374.923636 53.568 
L 377.541818 53.568 
L 380.16 53.568 
L 382.778182 53.568 
L 385.396364 53.568 
L 388.014545 53.568 
L 390.632727 53.568 
L 393.250909 53.568 
L 395.869091 53.568 
L 398.487273 53.568 
" clip-path="url(#p6022398e1f)" style="fill: none; stroke-dasharray: 1.85,0.8; stroke-dashoffset: 0; stroke: #0000ff; stroke-width: 0.5"/>
   </g>
   <g id="line2d_17">
    <path d="M 73.832727 295.488 
L 76.450909 294.03648 
L 79.069091 200.65536 
L 81.687273 157.83552 
L 84.305455 145.98144 
L 86.923636 139.69152 
L 89.541818 132.67584 
L 92.16 123.96672 
L 94.778182 107.51616 
L 97.396364 100.7424 
L 100.014545 95.17824 
L 102.632727 88.88832 
L 105.250909 82.84032 
L 107.869091 79.93728 
L 110.487273 76.06656 
L 113.105455 73.64736 
L 115.723636 71.95392 
L 118.341818 69.2928 
L 120.96 68.56704 
L 123.578182 66.38976 
L 126.196364 65.42208 
L 128.814545 63.72864 
L 131.432727 62.0352 
L 134.050909 60.09984 
L 136.669091 58.89024 
L 139.287273 57.92256 
L 141.905455 57.1968 
L 144.523636 56.22912 
L 147.141818 56.22912 
L 149.76 55.26144 
L 152.378182 55.01952 
L 154.996364 54.29376 
L 157.614545 53.568 
L 160.232727 53.568 
L 162.850909 53.568 
L 165.469091 53.568 
L 168.087273 53.568 
L 170.705455 53.568 
L 173.323636 53.568 
L 175.941818 53.568 
L 178.56 53.568 
L 181.178182 53.568 
L 183.796364 53.568 
L 186.414545 53.568 
L 189.032727 53.568 
L 191.650909 53.568 
L 194.269091 53.568 
L 196.887273 53.568 
L 199.505455 53.568 
L 202.123636 53.568 
L 204.741818 53.568 
L 207.36 53.568 
L 209.978182 53.568 
L 212.596364 53.568 
L 215.214545 53.568 
L 217.832727 53.568 
L 220.450909 53.568 
L 223.069091 53.568 
L 225.687273 53.568 
L 228.305455 53.568 
L 230.923636 53.568 
L 233.541818 53.568 
L 236.16 53.568 
L 238.778182 53.568 
L 241.396364 53.568 
L 244.014545 53.568 
L 246.632727 53.568 
L 249.250909 53.568 
L 251.869091 53.568 
L 254.487273 53.568 
L 257.105455 53.568 
L 259.723636 53.568 
L 262.341818 53.568 
L 264.96 53.568 
L 267.578182 53.568 
L 270.196364 53.568 
L 272.814545 53.568 
L 275.432727 53.568 
L 278.050909 53.568 
L 280.669091 53.568 
L 283.287273 53.568 
L 285.905455 53.568 
L 288.523636 53.568 
L 291.141818 53.568 
L 293.76 53.568 
L 296.378182 53.568 
L 298.996364 53.568 
L 301.614545 53.568 
L 304.232727 53.568 
L 306.850909 53.568 
L 309.469091 53.568 
L 312.087273 53.568 
L 314.705455 53.568 
L 317.323636 53.568 
L 319.941818 53.568 
L 322.56 53.568 
L 325.178182 53.568 
L 327.796364 53.568 
L 330.414545 53.568 
L 333.032727 53.568 
L 335.650909 53.568 
L 338.269091 53.568 
L 340.887273 53.568 
L 343.505455 53.568 
L 346.123636 53.568 
L 348.741818 53.568 
L 351.36 53.568 
L 353.978182 53.568 
L 356.596364 53.568 
L 359.214545 53.568 
L 361.832727 53.568 
L 364.450909 53.568 
L 367.069091 53.568 
L 369.687273 53.568 
L 372.305455 53.568 
L 374.923636 53.568 
L 377.541818 53.568 
L 380.16 53.568 
L 382.778182 53.568 
L 385.396364 53.568 
L 388.014545 53.568 
L 390.632727 53.568 
L 393.250909 53.568 
L 395.869091 53.568 
L 398.487273 53.568 
" clip-path="url(#p6022398e1f)" style="fill: none; stroke-dasharray: 1.85,0.8; stroke-dashoffset: 0; stroke: #bf00bf; stroke-width: 0.5"/>
   </g>
   <g id="line2d_18">
    <path d="M 73.832727 295.488 
L 76.450909 218.31552 
L 79.069091 140.90112 
L 81.687273 125.66016 
L 84.305455 121.06368 
L 86.923636 119.37024 
L 89.541818 117.91872 
L 92.16 116.95104 
L 94.778182 114.77376 
L 97.396364 112.35456 
L 100.014545 111.14496 
L 102.632727 110.4192 
L 105.250909 110.17728 
L 107.869091 107.75808 
L 110.487273 106.54848 
L 113.105455 105.5808 
L 115.723636 102.43584 
L 118.341818 99.77472 
L 120.96 97.83936 
L 123.578182 97.35552 
L 126.196364 97.1136 
L 128.814545 96.38784 
L 131.432727 94.6944 
L 134.050909 93.00096 
L 136.669091 90.58176 
L 139.287273 88.6464 
L 141.905455 86.95296 
L 144.523636 84.77568 
L 147.141818 80.42112 
L 149.76 76.79232 
L 152.378182 75.3408 
L 154.996364 74.37312 
L 157.614545 74.1312 
L 160.232727 73.16352 
L 162.850909 72.9216 
L 165.469091 72.43776 
L 168.087273 72.43776 
L 170.705455 71.95392 
L 173.323636 71.95392 
L 175.941818 71.47008 
L 178.56 71.47008 
L 181.178182 70.98624 
L 183.796364 70.5024 
L 186.414545 70.01856 
L 189.032727 69.2928 
L 191.650909 69.05088 
L 194.269091 68.80896 
L 196.887273 68.32512 
L 199.505455 68.0832 
L 202.123636 67.35744 
L 204.741818 66.63168 
L 207.36 66.38976 
L 209.978182 65.664 
L 212.596364 65.42208 
L 215.214545 64.93824 
L 217.832727 64.21248 
L 220.450909 63.97056 
L 223.069091 63.72864 
L 225.687273 63.48672 
L 228.305455 63.00288 
L 230.923636 62.76096 
L 233.541818 62.0352 
L 236.16 60.8256 
L 238.778182 60.8256 
L 241.396364 59.85792 
L 244.014545 59.37408 
L 246.632727 58.64832 
L 249.250909 58.16448 
L 251.869091 57.43872 
L 254.487273 56.95488 
L 257.105455 56.71296 
L 259.723636 56.47104 
L 262.341818 56.47104 
L 264.96 56.22912 
L 267.578182 55.9872 
L 270.196364 55.9872 
L 272.814545 55.9872 
L 275.432727 55.9872 
L 278.050909 55.50336 
L 280.669091 55.26144 
L 283.287273 55.26144 
L 285.905455 55.26144 
L 288.523636 54.7776 
L 291.141818 54.53568 
L 293.76 54.53568 
L 296.378182 54.53568 
L 298.996364 54.53568 
L 301.614545 54.29376 
L 304.232727 54.29376 
L 306.850909 54.29376 
L 309.469091 54.05184 
L 312.087273 54.05184 
L 314.705455 54.05184 
L 317.323636 54.05184 
L 319.941818 54.05184 
L 322.56 54.05184 
L 325.178182 54.05184 
L 327.796364 54.05184 
L 330.414545 54.05184 
L 333.032727 54.05184 
L 335.650909 54.05184 
L 338.269091 54.05184 
L 340.887273 54.05184 
L 343.505455 54.05184 
L 346.123636 54.05184 
L 348.741818 54.05184 
L 351.36 54.05184 
L 353.978182 54.05184 
L 356.596364 54.05184 
L 359.214545 53.80992 
L 361.832727 53.80992 
L 364.450909 53.80992 
L 367.069091 53.80992 
L 369.687273 53.80992 
L 372.305455 53.80992 
L 374.923636 53.80992 
L 377.541818 53.80992 
L 380.16 53.80992 
L 382.778182 53.80992 
L 385.396364 53.80992 
L 388.014545 53.80992 
L 390.632727 53.80992 
L 393.250909 53.80992 
L 395.869091 53.80992 
L 398.487273 53.568 
" clip-path="url(#p6022398e1f)" style="fill: none; stroke-dasharray: 1.85,0.8; stroke-dashoffset: 0; stroke: #bfbf00; stroke-width: 0.5"/>
   </g>
   <g id="patch_3">
    <path d="M 57.6 307.584 
L 57.6 41.472 
" style="fill: none; stroke: #000000; stroke-width: 0.8; stroke-linejoin: miter; stroke-linecap: square"/>
   </g>
   <g id="patch_4">
    <path d="M 414.72 307.584 
L 414.72 41.472 
" style="fill: none; stroke: #000000; stroke-width: 0.8; stroke-linejoin: miter; stroke-linecap: square"/>
   </g>
   <g id="patch_5">
    <path d="M 57.6 307.584 
L 414.72 307.584 
" style="fill: none; stroke: #000000; stroke-width: 0.8; stroke-linejoin: miter; stroke-linecap: square"/>
   </g>
   <g id="patch_6">
    <path d="M 57.6 41.472 
L 414.72 41.472 
" style="fill: none; stroke: #000000; stroke-width: 0.8; stroke-linejoin: miter; stroke-linecap: square"/>
   </g>
   <g id="legend_1">
    <g id="patch_7">
     <path d="M 335.72 302.584 
L 407.72 302.584 
Q 409.72 302.584 409.72 300.584 
L 409.72 234.357437 
Q 409.72 232.357437 407.72 232.357437 
L 335.72 232.357437 
Q 333.72 232.357437 333.72 234.357437 
L 333.72 300.584 
Q 333.72 302.584 335.72 302.584 
z
" style="fill: #ffffff; opacity: 0.8; stroke: #cccccc; stroke-linejoin: miter"/>
    </g>
    <g id="line2d_19">
     <path d="M 337.72 239.857437 
L 347.72 239.857437 
L 357.72 239.857437 
" style="fill: none; stroke: #ff0000; stroke-width: 0.5; stroke-linecap: square"/>
    </g>
    <g id="text_16">
     <!-- DLIR -->
     <g transform="translate(365.72 243.357437)scale(0.1 -0.1)">
      <defs>
       <path id="FangSong-44" d="M 2475 2175 
Q 2475 3250 2150 3687 
Q 1825 4125 1250 4125 
Q 1075 4125 987 4075 
Q 900 4025 900 3925 
L 900 350 
Q 900 250 975 200 
Q 1050 150 1175 150 
Q 1725 150 2100 562 
Q 2475 975 2475 2175 
z
M 500 3925 
Q 500 4025 450 4075 
Q 400 4125 275 4125 
L 125 4125 
L 125 4275 
L 1250 4275 
Q 2025 4275 2487 3775 
Q 2950 3275 2950 2225 
Q 2950 1075 2500 537 
Q 2050 0 1175 0 
L 100 0 
L 100 150 
L 275 150 
Q 400 150 450 200 
Q 500 250 500 350 
L 500 3925 
z
" transform="scale(0.015625)"/>
       <path id="FangSong-4c" d="M 975 350 
Q 975 250 1037 200 
Q 1100 150 1200 150 
L 1875 150 
Q 2225 150 2475 362 
Q 2725 575 2850 1025 
L 2975 975 
L 2750 0 
L 175 0 
L 175 150 
L 350 150 
Q 475 150 525 200 
Q 575 250 575 350 
L 575 3925 
Q 575 4025 525 4075 
Q 475 4125 350 4125 
L 200 4125 
L 200 4275 
L 1375 4275 
L 1375 4125 
L 1200 4125 
Q 1100 4125 1037 4075 
Q 975 4025 975 3925 
L 975 350 
z
" transform="scale(0.015625)"/>
       <path id="FangSong-49" d="M 575 4125 
L 575 4275 
L 2575 4275 
L 2575 4125 
L 2000 4125 
Q 1900 4125 1837 4075 
Q 1775 4025 1775 3925 
L 1775 350 
Q 1775 250 1837 200 
Q 1900 150 2000 150 
L 2575 150 
L 2575 0 
L 575 0 
L 575 150 
L 1150 150 
Q 1275 150 1325 200 
Q 1375 250 1375 350 
L 1375 3925 
Q 1375 4025 1325 4075 
Q 1275 4125 1150 4125 
L 575 4125 
z
" transform="scale(0.015625)"/>
       <path id="FangSong-52" d="M 2800 3275 
Q 2800 2775 2525 2500 
Q 2250 2225 1900 2175 
L 2650 325 
Q 2700 225 2762 187 
Q 2825 150 2900 150 
L 3050 150 
L 3050 0 
L 2350 0 
L 1525 2150 
L 950 2150 
L 950 350 
Q 950 250 1012 200 
Q 1075 150 1175 150 
L 1325 150 
L 1325 0 
L 175 0 
L 175 150 
L 325 150 
Q 450 150 500 200 
Q 550 250 550 350 
L 550 3925 
Q 550 4025 500 4075 
Q 450 4125 325 4125 
L 175 4125 
L 175 4275 
L 1600 4275 
Q 2175 4275 2487 4025 
Q 2800 3775 2800 3275 
z
M 950 2300 
L 1500 2300 
Q 1875 2300 2125 2525 
Q 2375 2750 2375 3225 
Q 2375 3650 2150 3887 
Q 1925 4125 1450 4125 
L 1175 4125 
Q 1075 4125 1012 4075 
Q 950 4025 950 3925 
L 950 2300 
z
" transform="scale(0.015625)"/>
      </defs>
      <use xlink:href="#FangSong-44"/>
      <use xlink:href="#FangSong-4c" x="50"/>
      <use xlink:href="#FangSong-49" x="100"/>
      <use xlink:href="#FangSong-52" x="150"/>
     </g>
    </g>
    <g id="line2d_20">
     <path d="M 337.72 253.30275 
L 347.72 253.30275 
L 357.72 253.30275 
" style="fill: none; stroke-dasharray: 1.85,0.8; stroke-dashoffset: 0; stroke: #008000; stroke-width: 0.5"/>
    </g>
    <g id="text_17">
     <!-- BNST -->
     <g transform="translate(365.72 256.80275)scale(0.1 -0.1)">
      <defs>
       <path id="FangSong-42" d="M 75 0 
L 75 150 
L 275 150 
Q 400 150 450 200 
Q 500 250 500 350 
L 500 3925 
Q 500 4025 450 4075 
Q 400 4125 275 4125 
L 125 4125 
L 125 4275 
L 1575 4275 
Q 2175 4275 2462 4037 
Q 2750 3800 2750 3300 
Q 2750 2950 2600 2725 
Q 2450 2500 1975 2325 
Q 2550 2150 2750 1825 
Q 2950 1500 2950 1100 
Q 2950 600 2600 300 
Q 2250 0 1650 0 
L 75 0 
z
M 1575 150 
Q 2000 150 2237 412 
Q 2475 675 2475 1150 
Q 2475 1700 2225 1962 
Q 1975 2225 1475 2225 
L 900 2225 
L 900 350 
Q 900 250 962 200 
Q 1025 150 1125 150 
L 1575 150 
z
M 2325 3300 
Q 2325 3750 2075 3937 
Q 1825 4125 1425 4125 
L 1125 4125 
Q 1025 4125 962 4075 
Q 900 4025 900 3925 
L 900 2375 
L 1550 2375 
Q 1825 2375 2075 2600 
Q 2325 2825 2325 3300 
z
" transform="scale(0.015625)"/>
       <path id="FangSong-4e" d="M 2500 1000 
L 2550 1000 
L 2550 3925 
Q 2550 4025 2500 4075 
Q 2450 4125 2325 4125 
L 2125 4125 
L 2125 4275 
L 3125 4275 
L 3125 4125 
L 2925 4125 
Q 2825 4125 2762 4075 
Q 2700 4025 2700 3925 
L 2700 0 
L 2550 0 
L 650 3725 
L 600 3725 
L 600 350 
Q 600 250 662 200 
Q 725 150 825 150 
L 1025 150 
L 1025 0 
L 25 0 
L 25 150 
L 225 150 
Q 350 150 400 200 
Q 450 250 450 350 
L 450 3925 
Q 450 4025 400 4075 
Q 350 4125 225 4125 
L 75 4125 
L 75 4275 
L 800 4275 
L 2500 1000 
z
" transform="scale(0.015625)"/>
       <path id="FangSong-53" d="M 1475 2050 
Q 800 2350 550 2575 
Q 300 2800 300 3275 
Q 300 3650 612 3987 
Q 925 4325 1500 4325 
Q 1750 4325 1975 4237 
Q 2200 4150 2300 4150 
Q 2375 4150 2437 4187 
Q 2500 4225 2550 4325 
L 2650 3300 
L 2525 3250 
Q 2300 3775 2062 3962 
Q 1825 4150 1450 4150 
Q 975 4150 800 3887 
Q 625 3625 625 3325 
Q 625 3050 787 2887 
Q 950 2725 1675 2400 
Q 2275 2150 2537 1837 
Q 2800 1525 2800 1100 
Q 2800 650 2487 300 
Q 2175 -50 1575 -50 
Q 1325 -50 1112 37 
Q 900 125 775 125 
Q 700 125 625 75 
Q 550 25 450 -50 
L 250 1175 
L 400 1225 
Q 575 600 887 362 
Q 1200 125 1600 125 
Q 2025 125 2237 375 
Q 2450 625 2450 1100 
Q 2450 1350 2212 1587 
Q 1975 1825 1475 2050 
z
" transform="scale(0.015625)"/>
       <path id="FangSong-54" d="M 2200 0 
L 900 0 
L 900 150 
L 1125 150 
Q 1250 150 1300 200 
Q 1350 250 1350 350 
L 1350 3850 
Q 1350 4050 1325 4075 
Q 1300 4100 1125 4100 
Q 775 4100 637 3975 
Q 500 3850 300 3300 
L 150 3325 
L 375 4275 
L 2750 4275 
L 2950 3325 
L 2825 3300 
Q 2625 3825 2512 3962 
Q 2400 4100 2050 4100 
Q 1800 4100 1775 4075 
Q 1750 4050 1750 3825 
L 1750 350 
Q 1750 250 1812 200 
Q 1875 150 1975 150 
L 2200 150 
L 2200 0 
z
" transform="scale(0.015625)"/>
      </defs>
      <use xlink:href="#FangSong-42"/>
      <use xlink:href="#FangSong-4e" x="50"/>
      <use xlink:href="#FangSong-53" x="100"/>
      <use xlink:href="#FangSong-54" x="150"/>
     </g>
    </g>
    <g id="line2d_21">
     <path d="M 337.72 266.748062 
L 347.72 266.748062 
L 357.72 266.748062 
" style="fill: none; stroke-dasharray: 1.85,0.8; stroke-dashoffset: 0; stroke: #0000ff; stroke-width: 0.5"/>
    </g>
    <g id="text_18">
     <!-- FIFO -->
     <g transform="translate(365.72 270.248062)scale(0.1 -0.1)">
      <defs>
       <path id="FangSong-46" d="M 1325 150 
L 1325 0 
L 125 0 
L 125 150 
L 300 150 
Q 425 150 475 200 
Q 525 250 525 350 
L 525 3925 
Q 525 4025 475 4075 
Q 425 4125 300 4125 
L 150 4125 
L 150 4275 
L 2750 4275 
L 3050 3375 
L 2925 3325 
Q 2725 3725 2450 3925 
Q 2175 4125 1850 4125 
L 1150 4125 
Q 1050 4125 987 4075 
Q 925 4025 925 3925 
L 925 2325 
L 1750 2325 
Q 2000 2325 2112 2437 
Q 2225 2550 2225 2800 
L 2225 2925 
L 2375 2925 
L 2375 1475 
L 2225 1475 
L 2225 1575 
Q 2225 1875 2112 2025 
Q 2000 2175 1750 2175 
L 925 2175 
L 925 350 
Q 925 250 987 200 
Q 1050 150 1150 150 
L 1325 150 
z
" transform="scale(0.015625)"/>
       <path id="FangSong-4f" d="M 675 2150 
Q 675 1075 937 587 
Q 1200 100 1600 100 
Q 2025 100 2275 562 
Q 2525 1025 2525 2150 
Q 2525 3050 2312 3600 
Q 2100 4150 1600 4150 
Q 1175 4150 925 3650 
Q 675 3150 675 2150 
z
M 3000 2150 
Q 3000 1125 2600 537 
Q 2200 -50 1600 -50 
Q 1025 -50 612 550 
Q 200 1150 200 2150 
Q 200 3125 587 3725 
Q 975 4325 1600 4325 
Q 2250 4325 2625 3687 
Q 3000 3050 3000 2150 
z
" transform="scale(0.015625)"/>
      </defs>
      <use xlink:href="#FangSong-46"/>
      <use xlink:href="#FangSong-49" x="50"/>
      <use xlink:href="#FangSong-46" x="100"/>
      <use xlink:href="#FangSong-4f" x="150"/>
     </g>
    </g>
    <g id="line2d_22">
     <path d="M 337.72 280.193375 
L 347.72 280.193375 
L 357.72 280.193375 
" style="fill: none; stroke-dasharray: 1.85,0.8; stroke-dashoffset: 0; stroke: #bf00bf; stroke-width: 0.5"/>
    </g>
    <g id="text_19">
     <!-- OYST -->
     <g transform="translate(365.72 283.693375)scale(0.1 -0.1)">
      <defs>
       <path id="FangSong-59" d="M 2350 3825 
Q 2375 3975 2312 4050 
Q 2250 4125 2075 4125 
L 2025 4125 
L 2025 4275 
L 3000 4275 
L 3000 4125 
L 2925 4125 
Q 2800 4125 2700 4037 
Q 2600 3950 2525 3775 
L 1750 1800 
L 1750 350 
Q 1750 250 1812 200 
Q 1875 150 1975 150 
L 2200 150 
L 2200 0 
L 900 0 
L 900 150 
L 1125 150 
Q 1250 150 1300 200 
Q 1350 250 1350 350 
L 1350 1650 
L 500 3850 
Q 450 3975 375 4050 
Q 300 4125 175 4125 
L 125 4125 
L 125 4275 
L 1225 4275 
L 1225 4125 
L 1075 4125 
Q 925 4125 900 4050 
Q 875 3975 925 3825 
L 1600 1975 
L 1650 1975 
L 2350 3825 
z
" transform="scale(0.015625)"/>
      </defs>
      <use xlink:href="#FangSong-4f"/>
      <use xlink:href="#FangSong-59" x="50"/>
      <use xlink:href="#FangSong-53" x="100"/>
      <use xlink:href="#FangSong-54" x="150"/>
     </g>
    </g>
    <g id="line2d_23">
     <path d="M 337.72 293.638687 
L 347.72 293.638687 
L 357.72 293.638687 
" style="fill: none; stroke-dasharray: 1.85,0.8; stroke-dashoffset: 0; stroke: #bfbf00; stroke-width: 0.5"/>
    </g>
    <g id="text_20">
     <!-- PARALLEL -->
     <g transform="translate(365.72 297.138687)scale(0.1 -0.1)">
      <defs>
       <path id="FangSong-50" d="M 925 2000 
L 925 350 
Q 925 250 987 200 
Q 1050 150 1150 150 
L 1325 150 
L 1325 0 
L 125 0 
L 125 150 
L 300 150 
Q 425 150 475 200 
Q 525 250 525 350 
L 525 3925 
Q 525 4025 475 4075 
Q 425 4125 300 4125 
L 150 4125 
L 150 4275 
L 1625 4275 
Q 2250 4275 2587 3962 
Q 2925 3650 2925 3175 
Q 2925 2600 2562 2300 
Q 2200 2000 1700 2000 
L 925 2000 
z
M 1550 2150 
Q 1925 2150 2212 2375 
Q 2500 2600 2500 3150 
Q 2500 3650 2262 3887 
Q 2025 4125 1500 4125 
L 1150 4125 
Q 1050 4125 987 4075 
Q 925 4025 925 3925 
L 925 2150 
L 1550 2150 
z
" transform="scale(0.015625)"/>
       <path id="FangSong-41" d="M 2000 1600 
L 875 1600 
L 650 650 
Q 600 425 650 287 
Q 700 150 875 150 
L 950 150 
L 950 0 
L 25 0 
L 25 150 
L 100 150 
Q 200 150 275 212 
Q 350 275 375 425 
L 1350 4250 
L 1725 4375 
L 2675 425 
Q 2725 275 2800 212 
Q 2875 150 2975 150 
L 3050 150 
L 3050 0 
L 1975 0 
L 1975 150 
L 2075 150 
Q 2225 150 2262 237 
Q 2300 325 2250 500 
L 2000 1600 
z
M 1475 3825 
L 1450 3825 
L 925 1750 
L 1975 1750 
L 1475 3825 
z
" transform="scale(0.015625)"/>
       <path id="FangSong-45" d="M 175 4125 
L 175 4275 
L 2625 4275 
L 2900 3425 
L 2775 3375 
Q 2575 3750 2350 3937 
Q 2125 4125 1850 4125 
L 1150 4125 
Q 1050 4125 987 4075 
Q 925 4025 925 3925 
L 925 2375 
L 1650 2375 
Q 1900 2375 2012 2500 
Q 2125 2625 2125 2875 
L 2125 3025 
L 2275 3025 
L 2275 1550 
L 2125 1550 
L 2125 1650 
Q 2125 1925 2012 2075 
Q 1900 2225 1650 2225 
L 925 2225 
L 925 350 
Q 925 250 987 200 
Q 1050 150 1150 150 
L 1800 150 
Q 2175 150 2437 362 
Q 2700 575 2850 1025 
L 2975 975 
L 2700 0 
L 150 0 
L 150 150 
L 300 150 
Q 425 150 475 200 
Q 525 250 525 350 
L 525 3925 
Q 525 4025 475 4075 
Q 425 4125 300 4125 
L 175 4125 
z
" transform="scale(0.015625)"/>
      </defs>
      <use xlink:href="#FangSong-50"/>
      <use xlink:href="#FangSong-41" x="50"/>
      <use xlink:href="#FangSong-52" x="100"/>
      <use xlink:href="#FangSong-41" x="150"/>
      <use xlink:href="#FangSong-4c" x="200"/>
      <use xlink:href="#FangSong-4c" x="250"/>
      <use xlink:href="#FangSong-45" x="300"/>
      <use xlink:href="#FangSong-4c" x="350"/>
     </g>
    </g>
   </g>
  </g>
 </g>
 <defs>
  <clipPath id="p6022398e1f">
   <rect x="57.6" y="41.472" width="357.12" height="266.112"/>
  </clipPath>
 </defs>
</svg>
