<?xml version="1.0" encoding="utf-8" standalone="no"?>
<!DOCTYPE svg PUBLIC "-//W3C//DTD SVG 1.1//EN"
  "http://www.w3.org/Graphics/SVG/1.1/DTD/svg11.dtd">
<svg xmlns:xlink="http://www.w3.org/1999/xlink" width="460.8pt" height="345.6pt" viewBox="0 0 460.8 345.6" xmlns="http://www.w3.org/2000/svg" version="1.1">
 <metadata>
  <rdf:RDF xmlns:dc="http://purl.org/dc/elements/1.1/" xmlns:cc="http://creativecommons.org/ns#" xmlns:rdf="http://www.w3.org/1999/02/22-rdf-syntax-ns#">
   <cc:Work>
    <dc:type rdf:resource="http://purl.org/dc/dcmitype/StillImage"/>
    <dc:date>2022-12-24T05:58:49.424108</dc:date>
    <dc:format>image/svg+xml</dc:format>
    <dc:creator>
     <cc:Agent>
      <dc:title>Matplotlib v3.5.2, https://matplotlib.org/</dc:title>
     </cc:Agent>
    </dc:creator>
   </cc:Work>
  </rdf:RDF>
 </metadata>
 <defs>
  <style type="text/css">*{stroke-linejoin: round; stroke-linecap: butt}</style>
 </defs>
 <g id="figure_1">
  <g id="patch_1">
   <path d="M 0 345.6 
L 460.8 345.6 
L 460.8 0 
L 0 0 
z
" style="fill: #ffffff"/>
  </g>
  <g id="axes_1">
   <g id="patch_2">
    <path d="M 57.6 307.584 
L 414.72 307.584 
L 414.72 41.472 
L 57.6 41.472 
z
" style="fill: #ffffff"/>
   </g>
   <g id="matplotlib.axis_1">
    <g id="xtick_1">
     <g id="line2d_1">
      <defs>
       <path id="m0ec470018b" d="M 0 0 
L 0 3.5 
" style="stroke: #000000; stroke-width: 0.8"/>
      </defs>
      <g>
       <use xlink:href="#m0ec470018b" x="70.382626" y="307.584" style="stroke: #000000; stroke-width: 0.8"/>
      </g>
     </g>
     <g id="text_1">
      <!-- 0 -->
      <g transform="translate(67.882626 321.576187)scale(0.1 -0.1)">
       <defs>
        <path id="FangSong-30" d="M 1575 4125 
Q 1225 4125 987 3587 
Q 750 3050 750 2150 
Q 750 1200 987 675 
Q 1225 150 1575 150 
Q 1950 150 2162 675 
Q 2375 1200 2375 2150 
Q 2375 3050 2175 3587 
Q 1975 4125 1575 4125 
z
M 1575 -50 
Q 1025 -50 650 525 
Q 275 1100 275 2150 
Q 275 3125 637 3725 
Q 1000 4325 1575 4325 
Q 2125 4325 2487 3750 
Q 2850 3175 2850 2150 
Q 2850 1125 2487 537 
Q 2125 -50 1575 -50 
z
" transform="scale(0.015625)"/>
       </defs>
       <use xlink:href="#FangSong-30"/>
      </g>
     </g>
    </g>
    <g id="xtick_2">
     <g id="line2d_2">
      <g>
       <use xlink:href="#m0ec470018b" x="139.384655" y="307.584" style="stroke: #000000; stroke-width: 0.8"/>
      </g>
     </g>
     <g id="text_2">
      <!-- 20 -->
      <g transform="translate(134.384655 321.576187)scale(0.1 -0.1)">
       <defs>
        <path id="FangSong-32" d="M 2300 3225 
Q 2300 3675 2100 3912 
Q 1900 4150 1500 4150 
Q 1200 4150 987 3987 
Q 775 3825 775 3575 
Q 775 3425 862 3325 
Q 950 3225 950 3125 
Q 950 3000 887 2937 
Q 825 2875 700 2875 
Q 550 2875 462 2962 
Q 375 3050 375 3250 
Q 375 3775 750 4050 
Q 1125 4325 1550 4325 
Q 2150 4325 2437 4025 
Q 2725 3725 2725 3275 
Q 2725 2975 2587 2675 
Q 2450 2375 2150 2100 
Q 1425 1400 1037 962 
Q 650 525 575 375 
L 2050 375 
Q 2275 375 2425 550 
Q 2575 725 2625 1075 
L 2775 1075 
L 2625 0 
L 300 0 
L 300 325 
Q 425 550 712 900 
Q 1000 1250 1475 1725 
Q 1900 2150 2100 2525 
Q 2300 2900 2300 3225 
z
" transform="scale(0.015625)"/>
       </defs>
       <use xlink:href="#FangSong-32"/>
       <use xlink:href="#FangSong-30" x="50"/>
      </g>
     </g>
    </g>
    <g id="xtick_3">
     <g id="line2d_3">
      <g>
       <use xlink:href="#m0ec470018b" x="208.386683" y="307.584" style="stroke: #000000; stroke-width: 0.8"/>
      </g>
     </g>
     <g id="text_3">
      <!-- 40 -->
      <g transform="translate(203.386683 321.576187)scale(0.1 -0.1)">
       <defs>
        <path id="FangSong-34" d="M 2275 475 
Q 2275 300 2375 225 
Q 2475 150 2650 150 
L 2875 150 
L 2875 0 
L 1225 0 
L 1225 150 
L 1500 150 
Q 1700 150 1787 225 
Q 1875 300 1875 475 
L 1875 1300 
L 200 1300 
L 200 1425 
L 2025 4325 
L 2275 4325 
L 2275 1450 
L 2950 1450 
L 2950 1300 
L 2275 1300 
L 2275 475 
z
M 1850 3700 
L 425 1450 
L 1875 1450 
L 1875 3700 
L 1850 3700 
z
" transform="scale(0.015625)"/>
       </defs>
       <use xlink:href="#FangSong-34"/>
       <use xlink:href="#FangSong-30" x="50"/>
      </g>
     </g>
    </g>
    <g id="xtick_4">
     <g id="line2d_4">
      <g>
       <use xlink:href="#m0ec470018b" x="277.388712" y="307.584" style="stroke: #000000; stroke-width: 0.8"/>
      </g>
     </g>
     <g id="text_4">
      <!-- 60 -->
      <g transform="translate(272.388712 321.576187)scale(0.1 -0.1)">
       <defs>
        <path id="FangSong-36" d="M 750 1700 
Q 750 950 1012 537 
Q 1275 125 1650 125 
Q 2025 125 2225 400 
Q 2425 675 2425 1425 
Q 2425 1925 2212 2200 
Q 2000 2475 1700 2475 
Q 1425 2475 1187 2312 
Q 950 2150 750 1700 
z
M 1725 2725 
Q 2325 2725 2587 2325 
Q 2850 1925 2850 1425 
Q 2850 675 2487 312 
Q 2125 -50 1650 -50 
Q 975 -50 625 462 
Q 275 975 275 1950 
Q 275 3100 700 3712 
Q 1125 4325 1850 4325 
Q 2200 4325 2412 4125 
Q 2625 3925 2625 3775 
Q 2625 3625 2562 3550 
Q 2500 3475 2350 3475 
Q 2225 3475 2162 3537 
Q 2100 3600 2100 3725 
Q 2100 3775 2112 3825 
Q 2125 3875 2125 3925 
Q 2125 4025 2050 4087 
Q 1975 4150 1775 4150 
Q 1350 4150 1050 3762 
Q 750 3375 750 2075 
Q 900 2400 1162 2562 
Q 1425 2725 1725 2725 
z
" transform="scale(0.015625)"/>
       </defs>
       <use xlink:href="#FangSong-36"/>
       <use xlink:href="#FangSong-30" x="50"/>
      </g>
     </g>
    </g>
    <g id="xtick_5">
     <g id="line2d_5">
      <g>
       <use xlink:href="#m0ec470018b" x="346.390741" y="307.584" style="stroke: #000000; stroke-width: 0.8"/>
      </g>
     </g>
     <g id="text_5">
      <!-- 80 -->
      <g transform="translate(341.390741 321.576187)scale(0.1 -0.1)">
       <defs>
        <path id="FangSong-38" d="M 600 1025 
Q 600 625 862 375 
Q 1125 125 1525 125 
Q 2000 125 2212 375 
Q 2425 625 2425 1000 
Q 2425 1325 2125 1625 
Q 1825 1925 1225 2175 
Q 925 1975 762 1675 
Q 600 1375 600 1025 
z
M 2800 1075 
Q 2800 600 2450 275 
Q 2100 -50 1525 -50 
Q 1000 -50 625 275 
Q 250 600 250 1025 
Q 250 1450 462 1750 
Q 675 2050 1075 2275 
Q 725 2450 537 2712 
Q 350 2975 350 3300 
Q 350 3725 675 4025 
Q 1000 4325 1575 4325 
Q 2100 4325 2425 4025 
Q 2750 3725 2750 3300 
Q 2750 3000 2562 2737 
Q 2375 2475 1975 2275 
Q 2400 2025 2600 1725 
Q 2800 1425 2800 1075 
z
M 2400 3275 
Q 2400 3625 2200 3887 
Q 2000 4150 1575 4150 
Q 1100 4150 900 3900 
Q 700 3650 700 3375 
Q 700 3100 987 2837 
Q 1275 2575 1800 2375 
Q 2100 2525 2250 2750 
Q 2400 2975 2400 3275 
z
" transform="scale(0.015625)"/>
       </defs>
       <use xlink:href="#FangSong-38"/>
       <use xlink:href="#FangSong-30" x="50"/>
      </g>
     </g>
    </g>
    <g id="text_6">
     <!-- 响应比 -->
     <g transform="translate(221.16 334.873062)scale(0.1 -0.1)">
      <defs>
       <path id="FangSong-54cd" d="M 2700 -200 
Q 2725 -650 2625 -525 
L 2375 -125 
Q 2500 50 2475 350 
L 2500 3200 
Q 2500 3625 2425 4100 
L 2500 4125 
L 2725 3575 
L 3300 3625 
Q 3550 4225 3675 4637 
Q 3800 5050 3700 5150 
L 3775 5200 
L 4125 4750 
Q 4050 4800 3900 4512 
Q 3750 4225 3500 3650 
L 5275 3850 
L 5425 4125 
L 5725 3850 
L 5575 3650 
Q 5500 -175 5175 -675 
Q 4800 -275 4175 250 
L 4225 350 
L 5050 -175 
Q 5275 525 5325 3625 
L 2725 3325 
L 2700 -200 
z
M 725 3250 
Q 725 3575 625 3925 
L 725 3975 
L 950 3525 
L 1750 3650 
L 1875 3875 
L 2175 3650 
L 2000 3450 
L 1925 2175 
L 2125 1950 
L 1000 1800 
Q 1025 1275 900 1350 
L 650 1750 
Q 775 1850 750 2150 
L 725 3250 
z
M 3550 1250 
Q 3575 950 3500 875 
L 3225 1200 
Q 3300 1350 3300 1525 
L 3275 2325 
Q 3275 2700 3200 2875 
L 3275 2925 
L 3500 2625 
L 4350 2725 
L 4500 2925 
L 4775 2675 
L 4600 2475 
L 4525 1575 
L 4750 1400 
L 3550 1250 
z
M 975 3275 
L 1000 2050 
L 1675 2150 
L 1775 3425 
L 975 3275 
z
M 4350 2475 
L 3500 2375 
L 3525 1500 
L 4275 1575 
L 4350 2475 
z
" transform="scale(0.015625)"/>
       <path id="FangSong-5e94" d="M 1625 4400 
L 1800 3800 
Q 5075 4050 5200 4175 
L 5525 3850 
Q 5200 3900 1825 3550 
Q 1775 2450 1675 1825 
Q 1575 1200 1312 612 
Q 1050 25 500 -600 
L 425 -525 
Q 850 50 1100 675 
Q 1350 1300 1425 1862 
Q 1500 2425 1550 3150 
Q 1600 3875 1550 4375 
L 1625 4400 
z
M 4725 3175 
L 5100 2725 
Q 5000 2800 4750 2112 
Q 4500 1425 4000 150 
Q 5425 225 5400 275 
L 5725 0 
Q 5425 0 3687 -112 
Q 1950 -225 1725 -275 
L 1350 25 
Q 2150 0 3800 125 
Q 4300 1500 4525 2200 
Q 4750 2900 4650 3125 
L 4725 3175 
z
M 2900 1150 
Q 2800 975 2650 725 
Q 2450 1625 2175 2550 
L 2275 2575 
Q 2600 1850 2900 1150 
z
M 3775 1550 
Q 3675 1350 3525 1150 
Q 3475 1600 3075 3050 
L 3150 3075 
Q 3475 2300 3775 1550 
z
M 3500 4100 
Q 3275 4675 3000 5225 
L 3075 5275 
Q 3375 4900 3700 4525 
Q 3600 4325 3500 4100 
z
" transform="scale(0.015625)"/>
       <path id="FangSong-6bd4" d="M 3500 2125 
Q 3925 2425 4487 2975 
Q 5050 3525 4950 3750 
L 5025 3775 
L 5250 3225 
Q 5175 3250 4875 3000 
Q 4575 2750 4287 2525 
Q 4000 2300 3500 1900 
L 3500 575 
Q 3475 -100 4150 -100 
L 4800 -100 
Q 5275 -100 5375 12 
Q 5475 125 5450 1350 
L 5575 1350 
Q 5600 825 5637 412 
Q 5675 0 5800 -175 
Q 5375 -325 4800 -325 
L 4150 -325 
Q 3225 -350 3275 550 
L 3275 4300 
Q 3275 4875 3150 5150 
L 3200 5200 
L 3625 4850 
Q 3475 4825 3500 4250 
L 3500 2125 
z
M 1500 2575 
Q 1900 2625 2337 2712 
Q 2775 2800 2800 2850 
L 3075 2600 
Q 2875 2575 2350 2475 
Q 1825 2375 1775 2325 
L 1500 2525 
L 1500 150 
L 2925 1075 
L 2975 1025 
Q 1550 -75 1375 -350 
L 1200 0 
Q 1275 75 1275 350 
L 1275 3925 
Q 1275 4475 1150 4750 
L 1200 4800 
L 1625 4400 
Q 1475 4375 1500 3925 
L 1500 2575 
z
" transform="scale(0.015625)"/>
      </defs>
      <use xlink:href="#FangSong-54cd"/>
      <use xlink:href="#FangSong-5e94" x="100"/>
      <use xlink:href="#FangSong-6bd4" x="200"/>
     </g>
    </g>
   </g>
   <g id="matplotlib.axis_2">
    <g id="ytick_1">
     <g id="line2d_6">
      <defs>
       <path id="m9ad6dde033" d="M 0 0 
L -3.5 0 
" style="stroke: #000000; stroke-width: 0.8"/>
      </defs>
      <g>
       <use xlink:href="#m9ad6dde033" x="57.6" y="295.488" style="stroke: #000000; stroke-width: 0.8"/>
      </g>
     </g>
     <g id="text_7">
      <!-- 0% -->
      <g transform="translate(40.6 298.984094)scale(0.1 -0.1)">
       <defs>
        <path id="FangSong-25" d="M 725 4150 
Q 575 4150 475 3950 
Q 375 3750 375 3200 
Q 375 2575 487 2387 
Q 600 2200 725 2200 
Q 900 2200 987 2425 
Q 1075 2650 1075 3200 
Q 1075 3650 1012 3900 
Q 950 4150 725 4150 
z
M 1400 3175 
Q 1400 2725 1250 2387 
Q 1100 2050 725 2050 
Q 425 2050 237 2350 
Q 50 2650 50 3175 
Q 50 3725 250 4025 
Q 450 4325 725 4325 
Q 1025 4325 1212 4012 
Q 1400 3700 1400 3175 
z
M 2700 1100 
Q 2700 1525 2625 1800 
Q 2550 2075 2350 2075 
Q 2200 2075 2100 1837 
Q 2000 1600 2000 1100 
Q 2000 475 2112 300 
Q 2225 125 2350 125 
Q 2525 125 2612 337 
Q 2700 550 2700 1100 
z
M 3025 1075 
Q 3025 575 2850 262 
Q 2675 -50 2350 -50 
Q 2075 -50 1875 262 
Q 1675 575 1675 1075 
Q 1675 1625 1875 1937 
Q 2075 2250 2350 2250 
Q 2650 2250 2837 1925 
Q 3025 1600 3025 1075 
z
M 2500 4250 
L 700 -50 
L 550 25 
L 2325 4325 
L 2500 4250 
z
" transform="scale(0.015625)"/>
       </defs>
       <use xlink:href="#FangSong-30"/>
       <use xlink:href="#FangSong-25" x="50"/>
      </g>
     </g>
    </g>
    <g id="ytick_2">
     <g id="line2d_7">
      <g>
       <use xlink:href="#m9ad6dde033" x="57.6" y="247.104" style="stroke: #000000; stroke-width: 0.8"/>
      </g>
     </g>
     <g id="text_8">
      <!-- 20% -->
      <g transform="translate(35.6 250.600094)scale(0.1 -0.1)">
       <use xlink:href="#FangSong-32"/>
       <use xlink:href="#FangSong-30" x="50"/>
       <use xlink:href="#FangSong-25" x="100"/>
      </g>
     </g>
    </g>
    <g id="ytick_3">
     <g id="line2d_8">
      <g>
       <use xlink:href="#m9ad6dde033" x="57.6" y="198.72" style="stroke: #000000; stroke-width: 0.8"/>
      </g>
     </g>
     <g id="text_9">
      <!-- 40% -->
      <g transform="translate(35.6 202.216094)scale(0.1 -0.1)">
       <use xlink:href="#FangSong-34"/>
       <use xlink:href="#FangSong-30" x="50"/>
       <use xlink:href="#FangSong-25" x="100"/>
      </g>
     </g>
    </g>
    <g id="ytick_4">
     <g id="line2d_9">
      <g>
       <use xlink:href="#m9ad6dde033" x="57.6" y="150.336" style="stroke: #000000; stroke-width: 0.8"/>
      </g>
     </g>
     <g id="text_10">
      <!-- 60% -->
      <g transform="translate(35.6 153.832094)scale(0.1 -0.1)">
       <use xlink:href="#FangSong-36"/>
       <use xlink:href="#FangSong-30" x="50"/>
       <use xlink:href="#FangSong-25" x="100"/>
      </g>
     </g>
    </g>
    <g id="ytick_5">
     <g id="line2d_10">
      <g>
       <use xlink:href="#m9ad6dde033" x="57.6" y="101.952" style="stroke: #000000; stroke-width: 0.8"/>
      </g>
     </g>
     <g id="text_11">
      <!-- 80% -->
      <g transform="translate(35.6 105.448094)scale(0.1 -0.1)">
       <use xlink:href="#FangSong-38"/>
       <use xlink:href="#FangSong-30" x="50"/>
       <use xlink:href="#FangSong-25" x="100"/>
      </g>
     </g>
    </g>
    <g id="ytick_6">
     <g id="line2d_11">
      <g>
       <use xlink:href="#m9ad6dde033" x="57.6" y="53.568" style="stroke: #000000; stroke-width: 0.8"/>
      </g>
     </g>
     <g id="text_12">
      <!-- 100% -->
      <g transform="translate(30.6 57.064094)scale(0.1 -0.1)">
       <defs>
        <path id="FangSong-31" d="M 1800 4350 
L 1800 550 
Q 1800 350 1925 250 
Q 2050 150 2275 150 
L 2525 150 
L 2525 0 
L 700 0 
L 700 150 
L 925 150 
Q 1175 150 1287 250 
Q 1400 350 1400 550 
L 1400 3575 
Q 1400 3675 1337 3737 
Q 1275 3800 1150 3800 
L 700 3800 
L 700 3950 
L 925 3950 
Q 1225 3950 1412 4050 
Q 1600 4150 1700 4350 
L 1800 4350 
z
" transform="scale(0.015625)"/>
       </defs>
       <use xlink:href="#FangSong-31"/>
       <use xlink:href="#FangSong-30" x="50"/>
       <use xlink:href="#FangSong-30" x="100"/>
       <use xlink:href="#FangSong-25" x="150"/>
      </g>
     </g>
    </g>
    <g id="text_13">
     <!-- 累计完成比例 -->
     <g transform="translate(25.154688 204.528)rotate(-90)scale(0.1 -0.1)">
      <defs>
       <path id="FangSong-7d2f" d="M 4525 4975 
L 4700 5225 
L 5000 4950 
L 4825 4775 
L 4625 3550 
L 4850 3300 
L 3175 3150 
L 3375 2975 
Q 3200 2925 2862 2725 
Q 2525 2525 2075 2275 
L 3475 2500 
Q 3750 2675 3900 2800 
Q 4050 2925 4100 3075 
L 4175 3100 
L 4325 2700 
Q 4200 2675 3500 2237 
Q 2800 1800 2275 1550 
L 4375 1825 
L 3900 2175 
L 4000 2275 
Q 4625 1900 4950 1725 
Q 4975 1475 4925 1225 
Q 4800 1375 4500 1675 
L 3250 1475 
L 3525 1300 
Q 3375 1200 3375 875 
L 3375 25 
Q 3375 -325 3225 -625 
Q 2975 -325 2400 150 
L 2450 250 
L 3050 -75 
Q 3150 -125 3150 0 
L 3150 925 
Q 3150 1300 3125 1450 
Q 1875 1275 1575 1175 
L 1325 1425 
L 1850 1550 
Q 2175 1700 3250 2300 
Q 2075 2100 1875 2000 
L 1575 2250 
L 1800 2300 
Q 2150 2475 3025 3125 
L 2000 3025 
Q 2000 2675 1950 2700 
Q 1900 2725 1650 3025 
Q 1725 3250 1725 3425 
L 1650 4400 
Q 1625 4675 1525 4950 
L 1625 5000 
L 1875 4675 
L 4525 4975 
z
M 3150 3375 
L 3150 3875 
Q 2525 3800 2400 3725 
L 2100 3975 
Q 2500 3975 3150 4075 
L 3150 4600 
L 1900 4450 
L 1975 3250 
L 3150 3375 
z
M 3375 4100 
Q 3950 4175 4025 4225 
L 4275 4000 
Q 3950 3975 3375 3900 
L 3375 3400 
L 4400 3500 
L 4575 4750 
L 3375 4600 
L 3375 4100 
z
M 5450 -75 
Q 4975 325 3875 1025 
L 3950 1125 
Q 4850 700 5350 500 
Q 5425 250 5450 -75 
z
M 800 -250 
Q 1350 75 1825 500 
Q 2300 925 2325 1125 
L 2400 1150 
L 2550 725 
Q 2425 700 2075 425 
Q 1725 150 875 -350 
L 800 -250 
z
" transform="scale(0.015625)"/>
       <path id="FangSong-8ba1" d="M 4075 4200 
Q 4100 4825 3900 5100 
L 3975 5150 
L 4450 4725 
Q 4275 4600 4300 4200 
L 4275 3000 
Q 5525 3200 5575 3250 
L 5950 2950 
Q 5725 2975 4275 2800 
L 4250 -425 
Q 4250 -700 4150 -575 
L 3875 -150 
Q 4050 50 4025 300 
L 4050 2750 
Q 2975 2625 2900 2575 
L 2525 2825 
Q 2850 2825 4050 2975 
L 4075 4200 
z
M 1775 3250 
L 2100 2950 
L 1900 2750 
L 1875 550 
L 2825 1250 
L 2875 1175 
Q 1875 250 1750 -25 
L 1525 275 
Q 1625 375 1650 625 
L 1675 2775 
Q 900 2625 750 2550 
L 425 2800 
Q 850 2825 1650 3000 
L 1775 3250 
z
M 2025 3800 
Q 1825 4300 1325 4950 
L 1375 5025 
Q 1925 4575 2175 4300 
Q 2125 4000 2025 3800 
z
" transform="scale(0.015625)"/>
       <path id="FangSong-5b8c" d="M 5375 2050 
Q 4925 2050 3550 1950 
L 3850 1750 
Q 3725 1600 3700 1375 
L 3675 275 
Q 3650 -125 4075 -175 
L 4925 -175 
Q 5300 -150 5312 62 
Q 5325 275 5325 1025 
L 5425 1025 
Q 5450 750 5475 337 
Q 5500 -75 5700 -275 
Q 5400 -375 5000 -400 
L 4075 -400 
Q 3425 -350 3425 150 
L 3475 1450 
Q 3475 1775 3425 1925 
L 2675 1850 
L 2875 1650 
Q 2750 1550 2600 1200 
Q 2450 850 2025 312 
Q 1600 -225 600 -675 
L 550 -575 
Q 1525 -100 1987 625 
Q 2450 1350 2525 1850 
Q 1550 1775 1500 1725 
L 1150 2025 
Q 1625 2025 3212 2150 
Q 4800 2275 5000 2350 
L 5375 2050 
z
M 1650 3650 
Q 1550 3125 1325 2875 
L 1150 3250 
Q 1450 3425 1575 4400 
L 1675 4400 
L 1675 3900 
L 5025 4150 
L 5175 4400 
L 5525 4075 
Q 5375 4050 4725 3250 
L 4650 3325 
L 4975 3900 
L 1650 3650 
z
M 4475 2975 
Q 4225 2975 3412 2875 
Q 2600 2775 2400 2725 
L 2050 2975 
Q 2575 2975 3200 3075 
Q 3825 3175 4150 3225 
L 4475 2975 
z
M 3550 4575 
Q 3475 4350 3300 4150 
Q 3225 4475 2900 5200 
L 2975 5250 
Q 3350 4825 3550 4575 
z
" transform="scale(0.015625)"/>
       <path id="FangSong-6210" d="M 5575 975 
Q 5600 -150 5750 -625 
Q 4650 -225 4000 1075 
Q 3625 650 2975 225 
L 2925 325 
Q 3525 825 3900 1300 
Q 3600 2275 3500 3300 
L 1875 3125 
Q 1875 2625 1825 2100 
L 2725 2250 
L 2875 2475 
L 3175 2225 
L 3000 2050 
Q 2850 475 2575 -125 
Q 2225 400 1825 775 
L 1875 850 
L 2475 400 
Q 2650 875 2750 2000 
L 1825 1850 
Q 1675 250 600 -650 
L 525 -600 
Q 1250 250 1425 987 
Q 1600 1725 1625 2612 
Q 1650 3500 1550 3800 
L 1625 3825 
L 1850 3350 
L 3450 3525 
Q 3400 4150 3375 4562 
Q 3350 4975 3225 5200 
L 3275 5225 
L 3725 4900 
Q 3625 4925 3637 4575 
Q 3650 4225 3675 3550 
Q 4900 3700 5050 3775 
L 5325 3475 
Q 4775 3475 3725 3325 
Q 3775 2425 4075 1525 
Q 4500 2025 4687 2325 
Q 4875 2625 4800 2850 
L 4875 2875 
L 5125 2325 
Q 5075 2400 4850 2125 
Q 4625 1850 4150 1275 
Q 4625 225 5425 -125 
L 5475 975 
L 5575 975 
z
M 4100 5000 
Q 4525 4700 4875 4450 
Q 4825 4250 4750 4025 
Q 4400 4525 4025 4950 
L 4100 5000 
z
" transform="scale(0.015625)"/>
       <path id="FangSong-4f8b" d="M 3050 2000 
Q 3025 1800 2975 1600 
Q 2775 1900 2525 2250 
Q 2300 1875 2025 1550 
L 1925 1625 
Q 2675 2725 2975 3975 
Q 2475 3925 2375 3875 
L 2050 4125 
Q 2375 4125 3162 4225 
Q 3950 4325 4100 4450 
L 4350 4125 
Q 4050 4150 3100 3975 
L 3300 3700 
Q 3200 3675 3125 3525 
Q 3050 3375 2925 3050 
L 3625 3150 
L 3775 3350 
L 4050 3075 
L 3875 2900 
Q 3300 825 1850 -225 
L 1800 -100 
Q 3100 975 3625 2900 
Q 3150 2825 3025 2775 
L 2875 2925 
Q 2775 2675 2575 2350 
Q 2900 2125 3050 2000 
z
M 1275 -150 
Q 1425 25 1400 225 
L 1450 3425 
Q 1025 2800 475 2225 
L 400 2325 
Q 875 2850 1450 3887 
Q 2025 4925 1925 5150 
L 2000 5175 
L 2250 4700 
Q 2200 4725 2062 4475 
Q 1925 4225 1675 3800 
L 1625 -325 
Q 1650 -675 1525 -600 
L 1275 -150 
z
M 5475 250 
Q 5475 -300 5300 -650 
Q 4900 -100 4300 375 
L 4350 475 
L 5200 -75 
Q 5250 250 5250 575 
L 5250 4350 
Q 5275 4950 5100 5150 
L 5175 5225 
L 5600 4850 
Q 5450 4775 5475 4325 
L 5475 250 
z
M 4300 1525 
Q 4400 1650 4400 1900 
L 4400 3075 
Q 4425 3525 4300 3750 
L 4350 3800 
L 4725 3450 
Q 4600 3350 4625 3025 
L 4625 1375 
Q 4625 1050 4550 1125 
L 4300 1525 
z
" transform="scale(0.015625)"/>
      </defs>
      <use xlink:href="#FangSong-7d2f"/>
      <use xlink:href="#FangSong-8ba1" x="100"/>
      <use xlink:href="#FangSong-5b8c" x="200"/>
      <use xlink:href="#FangSong-6210" x="300"/>
      <use xlink:href="#FangSong-6bd4" x="400"/>
      <use xlink:href="#FangSong-4f8b" x="500"/>
     </g>
    </g>
   </g>
   <g id="line2d_12">
    <path d="M 73.832727 295.488 
L 74.177737 295.488 
L 74.522748 294.2784 
L 74.867758 292.58496 
L 75.212768 289.68192 
L 76.937819 265.48992 
L 77.627839 252.18432 
L 80.04291 216.38016 
L 81.07794 206.21952 
L 81.42295 201.62304 
L 82.112971 196.05888 
L 83.148001 185.65632 
L 83.493011 184.2048 
L 84.528042 177.18912 
L 85.563072 166.78656 
L 85.908082 164.8512 
L 86.253092 164.12544 
L 86.943113 158.8032 
L 87.288123 157.5936 
L 90.393214 134.12736 
L 90.738224 133.15968 
L 91.428245 126.86976 
L 92.118265 122.5152 
L 92.808285 118.8864 
L 95.568366 100.01664 
L 95.913376 98.08128 
L 96.258387 96.87168 
L 96.948407 95.42016 
L 97.293417 95.17824 
L 99.708488 90.33984 
L 100.053498 89.856 
L 100.398508 88.6464 
L 101.088529 87.4368 
L 101.433539 86.95296 
L 102.813579 84.29184 
L 103.15859 84.29184 
L 103.5036 83.56608 
L 103.84861 83.32416 
L 104.19362 83.32416 
L 104.53863 82.35648 
L 104.88364 82.35648 
L 105.22865 82.11456 
L 105.573661 81.63072 
L 105.918671 81.63072 
L 106.263681 81.3888 
L 106.608691 81.3888 
L 106.953701 81.14688 
L 107.988732 81.14688 
L 108.678752 80.66304 
L 109.713782 80.66304 
L 110.058792 80.42112 
L 110.403803 79.93728 
L 111.093823 79.45344 
L 111.783843 79.45344 
L 112.473863 78.9696 
L 113.508894 78.9696 
L 113.853904 78.72768 
L 115.578955 78.72768 
L 115.923965 78.48576 
L 116.613985 78.48576 
L 116.958995 78.24384 
L 117.649016 78.24384 
L 117.994026 78.00192 
L 118.684046 78.00192 
L 119.029056 77.76 
L 119.719076 77.76 
L 120.064087 77.51808 
L 120.409097 77.51808 
L 120.754107 77.03424 
L 121.444127 77.03424 
L 121.789137 76.79232 
L 122.134147 76.79232 
L 122.479158 76.5504 
L 123.169178 76.5504 
L 123.514188 76.06656 
L 124.549218 76.06656 
L 124.894229 75.82464 
L 125.584249 74.85696 
L 125.929259 74.85696 
L 126.274269 74.61504 
L 126.619279 74.61504 
L 127.3093 74.1312 
L 127.65431 73.64736 
L 127.99932 73.64736 
L 128.34433 72.9216 
L 128.68934 72.9216 
L 129.03435 72.19584 
L 129.37936 72.19584 
L 129.724371 71.712 
L 130.069381 71.712 
L 130.414391 71.47008 
L 130.759401 71.47008 
L 131.104411 70.98624 
L 131.449421 70.98624 
L 132.139442 70.5024 
L 132.829462 70.5024 
L 133.174472 70.26048 
L 133.519482 69.77664 
L 134.554513 69.05088 
L 134.899523 69.05088 
L 135.244533 68.80896 
L 135.934553 68.80896 
L 136.279563 68.56704 
L 136.624573 68.56704 
L 136.969584 68.32512 
L 137.314594 67.84128 
L 138.349624 67.84128 
L 139.039644 67.35744 
L 139.384655 67.35744 
L 139.729665 67.11552 
L 140.074675 66.63168 
L 141.109705 65.90592 
L 141.454715 65.90592 
L 141.799726 65.664 
L 142.144736 65.664 
L 143.869786 64.4544 
L 144.904817 64.4544 
L 145.249827 63.97056 
L 145.594837 63.97056 
L 145.939847 63.72864 
L 146.284858 63.2448 
L 146.629868 63.00288 
L 146.974878 61.79328 
L 147.664898 60.8256 
L 148.009908 59.37408 
L 148.699929 57.1968 
L 149.044939 56.95488 
L 149.389949 56.47104 
L 149.734959 56.22912 
L 150.079969 55.74528 
L 150.424979 55.74528 
L 150.769989 55.26144 
L 151.80502 54.53568 
L 152.84005 54.53568 
L 153.875081 53.80992 
L 155.600131 53.80992 
L 155.945142 53.568 
L 398.487273 53.568 
L 398.487273 53.568 
" clip-path="url(#p1703ec5cef)" style="fill: none; stroke: #ff0000; stroke-linecap: square"/>
   </g>
   <g id="line2d_13">
    <path d="M 73.832727 295.488 
L 74.177737 280.24704 
L 74.867758 263.55456 
L 75.212768 256.29696 
L 75.902788 238.6368 
L 81.42295 151.30368 
L 82.802991 142.35264 
L 83.838021 130.25664 
L 84.528042 124.9344 
L 84.873052 121.54752 
L 86.253092 113.56416 
L 86.943113 108 
L 87.288123 107.03232 
L 87.978143 103.1616 
L 88.668163 96.14592 
L 89.013174 94.6944 
L 89.703194 91.0656 
L 90.048204 88.16256 
L 90.738224 84.77568 
L 91.428245 79.21152 
L 92.118265 76.06656 
L 93.498305 70.98624 
L 94.533336 65.42208 
L 94.878346 64.93824 
L 95.568366 60.8256 
L 95.913376 60.09984 
L 96.948407 55.26144 
L 97.638427 54.05184 
L 97.983437 54.05184 
L 98.673458 53.568 
L 398.487273 53.568 
L 398.487273 53.568 
" clip-path="url(#p1703ec5cef)" style="fill: none; stroke-dasharray: 1.85,0.8; stroke-dashoffset: 0; stroke: #008000; stroke-width: 0.5"/>
   </g>
   <g id="line2d_14">
    <path d="M 73.832727 295.488 
L 74.522748 268.63488 
L 75.902788 242.02368 
L 76.247798 237.18528 
L 76.592808 234.28224 
L 77.282829 229.92768 
L 77.627839 226.5408 
L 78.317859 223.87968 
L 78.662869 221.46048 
L 79.007879 218.0736 
L 79.35289 216.864 
L 80.04291 210.816 
L 80.73293 206.46144 
L 81.07794 201.62304 
L 81.42295 198.72 
L 81.767961 194.84928 
L 82.112971 188.55936 
L 82.457981 185.89824 
L 84.183032 168.48 
L 84.873052 164.60928 
L 85.218062 163.88352 
L 85.563072 161.46432 
L 86.253092 155.41632 
L 86.598103 154.44864 
L 87.288123 149.1264 
L 87.633133 146.94912 
L 88.668163 143.56224 
L 90.738224 139.20768 
L 91.083234 137.51424 
L 91.428245 137.0304 
L 92.118265 133.64352 
L 92.808285 132.43392 
L 93.153295 130.9824 
L 93.498305 130.49856 
L 93.843316 129.53088 
L 94.188326 129.04704 
L 94.878346 126.144 
L 95.223356 125.66016 
L 95.568366 124.45056 
L 95.913376 124.20864 
L 96.258387 122.99904 
L 96.603397 122.27328 
L 96.948407 121.06368 
L 97.293417 120.82176 
L 97.638427 119.37024 
L 97.983437 118.64448 
L 99.018468 115.2576 
L 99.363478 114.28992 
L 99.708488 112.59648 
L 100.053498 112.11264 
L 100.398508 111.87072 
L 100.743519 109.93536 
L 101.088529 109.2096 
L 101.433539 107.75808 
L 102.123559 107.27424 
L 102.813579 105.5808 
L 103.15859 105.33888 
L 104.53863 101.46816 
L 105.22865 100.50048 
L 105.573661 100.25856 
L 105.918671 99.77472 
L 106.263681 99.04896 
L 106.608691 98.80704 
L 106.953701 98.3232 
L 107.298711 98.08128 
L 107.643721 98.08128 
L 107.988732 97.83936 
L 108.333742 97.83936 
L 108.678752 97.59744 
L 109.023762 97.59744 
L 109.368772 97.35552 
L 109.713782 96.62976 
L 110.058792 96.38784 
L 110.403803 95.904 
L 110.748813 95.904 
L 111.093823 95.66208 
L 111.438833 95.66208 
L 111.783843 95.42016 
L 112.128853 95.42016 
L 112.818874 94.93632 
L 113.508894 94.93632 
L 113.853904 94.21056 
L 114.198914 93.96864 
L 114.888934 93.96864 
L 115.233945 93.00096 
L 115.578955 92.51712 
L 115.923965 92.2752 
L 116.268975 91.79136 
L 117.304005 91.79136 
L 117.649016 91.0656 
L 117.994026 90.82368 
L 118.339036 90.82368 
L 118.684046 90.58176 
L 119.029056 90.09792 
L 119.374066 90.09792 
L 119.719076 89.61408 
L 120.409097 89.61408 
L 120.754107 88.88832 
L 121.099117 88.6464 
L 121.444127 88.6464 
L 121.789137 88.40448 
L 122.134147 88.40448 
L 122.479158 88.16256 
L 122.824168 88.16256 
L 123.169178 87.92064 
L 123.514188 87.19488 
L 124.204208 87.19488 
L 124.894229 86.2272 
L 125.239239 85.98528 
L 125.584249 85.50144 
L 126.274269 85.0176 
L 126.619279 85.0176 
L 126.964289 84.29184 
L 127.65431 84.29184 
L 127.99932 83.56608 
L 128.68934 83.08224 
L 129.03435 83.08224 
L 129.37936 82.5984 
L 129.724371 82.35648 
L 130.069381 82.35648 
L 130.414391 82.11456 
L 131.104411 81.14688 
L 131.449421 80.1792 
L 132.139442 80.1792 
L 132.484452 79.45344 
L 133.174472 78.9696 
L 133.519482 78.9696 
L 133.864492 78.72768 
L 134.209502 78.72768 
L 134.554513 78.24384 
L 134.899523 78.24384 
L 135.244533 77.76 
L 135.589543 77.76 
L 136.279563 76.79232 
L 136.624573 76.5504 
L 136.969584 76.06656 
L 137.659604 75.58272 
L 138.349624 74.61504 
L 138.694634 74.61504 
L 139.039644 74.1312 
L 139.384655 73.88928 
L 139.729665 73.88928 
L 140.074675 73.64736 
L 140.764695 73.64736 
L 141.109705 72.67968 
L 141.799726 72.19584 
L 142.489746 70.98624 
L 142.834756 70.5024 
L 143.869786 69.77664 
L 144.214797 69.05088 
L 144.904817 69.05088 
L 145.939847 67.11552 
L 146.284858 66.63168 
L 146.629868 66.63168 
L 146.974878 66.14784 
L 147.319888 65.90592 
L 147.664898 65.42208 
L 148.009908 65.42208 
L 148.354918 65.18016 
L 148.699929 64.69632 
L 149.389949 63.00288 
L 149.734959 62.51904 
L 150.079969 62.27712 
L 150.424979 61.79328 
L 150.769989 61.06752 
L 151.115 61.06752 
L 154.220091 58.89024 
L 154.565101 58.4064 
L 155.945142 57.43872 
L 156.290152 57.43872 
L 156.635162 57.1968 
L 156.980172 57.1968 
L 157.670192 56.71296 
L 158.360213 56.71296 
L 158.705223 56.47104 
L 159.740253 56.47104 
L 160.085263 56.22912 
L 162.845344 56.22912 
L 163.190355 55.9872 
L 167.330476 55.9872 
L 167.675486 55.50336 
L 169.745547 55.50336 
L 170.435568 55.01952 
L 171.470598 55.01952 
L 171.815608 54.7776 
L 173.540659 54.7776 
L 173.885669 54.53568 
L 174.230679 54.53568 
L 174.575689 54.29376 
L 175.61072 54.29376 
L 175.95573 54.05184 
L 176.99076 54.05184 
L 177.33577 53.568 
L 398.487273 53.568 
L 398.487273 53.568 
" clip-path="url(#p1703ec5cef)" style="fill: none; stroke-dasharray: 1.85,0.8; stroke-dashoffset: 0; stroke: #0000ff; stroke-width: 0.5"/>
   </g>
   <g id="line2d_15">
    <path d="M 73.832727 295.488 
L 74.177737 295.24608 
L 74.522748 294.52032 
L 74.867758 293.31072 
L 75.557778 286.05312 
L 75.902788 280.73088 
L 76.592808 260.89344 
L 77.972849 230.89536 
L 80.38792 175.49568 
L 82.457981 141.14304 
L 82.802991 138.48192 
L 83.148001 134.36928 
L 83.493011 132.192 
L 83.838021 131.46624 
L 84.183032 130.25664 
L 84.528042 127.83744 
L 85.218062 126.62784 
L 86.943113 126.62784 
L 87.288123 126.38592 
L 87.978143 126.38592 
L 88.323153 126.144 
L 88.668163 126.144 
L 89.013174 125.90208 
L 90.048204 125.90208 
L 90.393214 125.66016 
L 91.773255 125.66016 
L 92.118265 125.41824 
L 93.153295 125.41824 
L 93.498305 125.17632 
L 94.188326 125.17632 
L 94.533336 124.9344 
L 95.913376 124.9344 
L 96.258387 124.69248 
L 99.018468 124.69248 
L 99.363478 124.45056 
L 100.743519 124.45056 
L 101.088529 124.20864 
L 102.813579 124.20864 
L 103.15859 123.96672 
L 103.84861 123.96672 
L 104.19362 123.7248 
L 104.88364 123.7248 
L 105.22865 123.48288 
L 107.988732 123.48288 
L 108.333742 123.24096 
L 109.368772 123.24096 
L 109.713782 122.99904 
L 110.058792 122.99904 
L 110.748813 122.5152 
L 112.473863 122.5152 
L 112.818874 122.27328 
L 113.163884 122.27328 
L 113.508894 122.03136 
L 114.543924 122.03136 
L 114.888934 121.78944 
L 115.233945 121.78944 
L 115.578955 121.54752 
L 116.958995 121.54752 
L 117.304005 121.3056 
L 117.649016 121.3056 
L 117.994026 121.06368 
L 119.029056 121.06368 
L 119.374066 120.82176 
L 119.719076 120.82176 
L 120.064087 120.57984 
L 121.789137 120.57984 
L 122.479158 120.096 
L 123.514188 120.096 
L 123.859198 119.85408 
L 124.549218 119.85408 
L 124.894229 119.61216 
L 125.239239 119.61216 
L 125.584249 119.37024 
L 128.34433 119.37024 
L 129.03435 118.8864 
L 129.724371 118.8864 
L 130.069381 118.64448 
L 131.449421 118.64448 
L 131.794431 118.40256 
L 132.139442 118.40256 
L 132.484452 118.16064 
L 134.899523 118.16064 
L 135.244533 117.91872 
L 137.314594 117.91872 
L 138.004614 117.43488 
L 138.694634 117.43488 
L 139.039644 117.19296 
L 139.384655 117.19296 
L 139.729665 116.70912 
L 140.419685 116.70912 
L 140.764695 116.4672 
L 141.454715 116.4672 
L 141.799726 116.22528 
L 142.489746 116.22528 
L 142.834756 115.74144 
L 143.524776 115.74144 
L 143.869786 115.49952 
L 144.214797 115.49952 
L 144.559807 115.2576 
L 145.249827 115.2576 
L 145.594837 115.01568 
L 147.664898 115.01568 
L 148.354918 114.53184 
L 149.044939 114.53184 
L 150.424979 113.56416 
L 151.115 112.59648 
L 151.46001 112.35456 
L 151.80502 112.35456 
L 152.15003 111.87072 
L 153.530071 111.87072 
L 153.875081 111.6288 
L 155.255121 111.6288 
L 155.600131 111.38688 
L 156.980172 111.38688 
L 157.325182 111.14496 
L 159.395243 111.14496 
L 159.740253 110.90304 
L 161.120294 110.90304 
L 161.465304 110.66112 
L 162.500334 110.66112 
L 162.845344 110.4192 
L 164.570395 110.4192 
L 165.260415 109.93536 
L 166.295446 109.93536 
L 166.640456 109.69344 
L 167.330476 109.69344 
L 167.675486 109.45152 
L 168.020497 109.45152 
L 168.710517 108.96768 
L 171.125588 108.96768 
L 171.470598 108.48384 
L 173.540659 108.48384 
L 174.230679 108 
L 174.920699 108 
L 175.26571 107.75808 
L 175.95573 107.75808 
L 176.30074 107.51616 
L 178.370801 107.51616 
L 178.715811 107.27424 
L 179.750841 107.27424 
L 180.440862 106.7904 
L 181.820902 106.7904 
L 182.510923 106.30656 
L 183.545953 106.30656 
L 183.890963 106.06464 
L 184.580983 106.06464 
L 184.925994 105.82272 
L 186.306034 105.82272 
L 186.651044 105.5808 
L 187.341065 105.5808 
L 187.686075 105.33888 
L 188.031085 105.33888 
L 188.376095 104.85504 
L 190.446156 104.85504 
L 190.791166 104.61312 
L 191.136176 104.61312 
L 191.481186 104.12928 
L 192.171207 104.12928 
L 192.516217 103.88736 
L 194.586278 103.88736 
L 194.931288 103.64544 
L 195.276298 103.1616 
L 198.381389 103.1616 
L 198.726399 102.91968 
L 200.10644 102.91968 
L 200.45145 102.43584 
L 200.79646 102.43584 
L 201.486481 101.952 
L 203.211531 101.952 
L 203.556541 101.71008 
L 203.901552 101.71008 
L 204.246562 101.46816 
L 204.591572 101.46816 
L 204.936582 101.22624 
L 207.006643 101.22624 
L 207.351653 100.98432 
L 209.076704 100.98432 
L 209.766724 100.50048 
L 211.146765 100.50048 
L 211.491775 100.25856 
L 212.871815 100.25856 
L 213.216825 100.01664 
L 214.596866 100.01664 
L 215.286886 99.5328 
L 216.666927 99.5328 
L 217.011937 99.29088 
L 217.356947 99.29088 
L 218.046967 98.80704 
L 219.772018 98.80704 
L 220.117028 98.56512 
L 221.497069 98.56512 
L 221.842079 98.3232 
L 223.91214 98.3232 
L 224.25715 98.08128 
L 224.94717 98.08128 
L 225.637191 97.59744 
L 227.362241 97.59744 
L 227.707251 97.35552 
L 228.397272 97.35552 
L 228.742282 97.1136 
L 229.087292 97.1136 
L 229.432302 96.87168 
L 230.122322 96.87168 
L 230.467333 96.62976 
L 230.812343 96.62976 
L 231.157353 96.38784 
L 232.882404 96.38784 
L 233.227414 96.14592 
L 233.917434 96.14592 
L 234.607454 95.66208 
L 236.332505 95.66208 
L 236.677515 95.42016 
L 238.057556 95.42016 
L 238.747576 94.93632 
L 239.092586 94.93632 
L 239.437596 94.6944 
L 241.162647 94.6944 
L 241.507657 94.45248 
L 243.232708 94.45248 
L 243.577718 93.96864 
L 245.302769 93.96864 
L 245.647779 93.72672 
L 246.337799 93.72672 
L 246.682809 93.4848 
L 247.02782 93.4848 
L 247.71784 93.00096 
L 248.75287 93.00096 
L 249.09788 92.75904 
L 249.787901 92.75904 
L 250.477921 92.2752 
L 252.202972 92.2752 
L 252.892992 91.79136 
L 253.238002 91.30752 
L 255.308063 91.30752 
L 255.653073 91.0656 
L 257.033114 91.0656 
L 257.723134 90.58176 
L 259.448185 90.58176 
L 259.793195 90.33984 
L 261.518246 90.33984 
L 261.863256 90.09792 
L 262.898286 90.09792 
L 263.243296 89.61408 
L 263.588306 89.61408 
L 263.933317 89.37216 
L 266.003377 89.37216 
L 266.348388 89.13024 
L 267.728428 89.13024 
L 268.073438 88.88832 
L 269.108469 88.88832 
L 269.798489 88.40448 
L 270.488509 88.40448 
L 270.833519 88.16256 
L 272.21356 88.16256 
L 272.55857 87.92064 
L 273.938611 87.92064 
L 274.283621 87.67872 
L 275.663661 87.67872 
L 276.008672 87.4368 
L 278.078732 87.4368 
L 278.423743 87.19488 
L 279.113763 87.19488 
L 279.458773 86.95296 
L 280.838814 86.95296 
L 281.183824 86.46912 
L 283.598895 86.46912 
L 283.943905 86.2272 
L 284.633925 86.2272 
L 284.978935 85.98528 
L 285.323946 85.98528 
L 285.668956 85.74336 
L 287.048996 85.74336 
L 287.394006 85.50144 
L 289.119057 85.50144 
L 289.464067 85.25952 
L 290.154088 85.25952 
L 290.499098 85.0176 
L 290.844108 85.0176 
L 291.189118 84.77568 
L 292.914169 84.77568 
L 293.259179 84.53376 
L 293.604189 84.04992 
L 293.949199 84.04992 
L 294.294209 83.808 
L 294.639219 83.808 
L 294.98423 83.56608 
L 296.70928 83.56608 
L 297.399301 83.08224 
L 298.089321 83.08224 
L 298.434331 82.84032 
L 300.159382 82.84032 
L 300.849402 82.35648 
L 301.884432 82.35648 
L 302.229443 82.11456 
L 305.334534 82.11456 
L 305.679544 81.63072 
L 306.024554 81.3888 
L 308.094615 81.3888 
L 308.439625 81.14688 
L 309.474656 81.14688 
L 309.819666 80.90496 
L 310.164676 80.90496 
L 310.854696 80.42112 
L 311.544716 80.42112 
L 311.889727 80.1792 
L 312.579747 80.1792 
L 312.924757 79.69536 
L 314.994818 79.69536 
L 315.684838 79.21152 
L 316.719869 79.21152 
L 317.064879 78.9696 
L 317.754899 78.9696 
L 318.099909 78.48576 
L 318.789929 78.48576 
L 319.13494 78.24384 
L 319.47995 78.24384 
L 319.82496 78.00192 
L 320.16997 78.00192 
L 320.51498 77.76 
L 320.85999 77.27616 
L 321.550011 77.27616 
L 321.895021 77.03424 
L 322.240031 77.03424 
L 322.585041 76.5504 
L 323.275061 76.5504 
L 323.965082 76.06656 
L 325.690132 76.06656 
L 326.380153 75.58272 
L 327.760193 75.58272 
L 328.105203 75.3408 
L 328.795224 75.3408 
L 329.140234 75.09888 
L 330.175264 75.09888 
L 330.520274 74.61504 
L 331.555305 74.61504 
L 332.245325 74.1312 
L 332.935345 74.1312 
L 333.625366 73.64736 
L 333.970376 73.64736 
L 334.660396 73.16352 
L 335.695427 73.16352 
L 336.385447 72.67968 
L 337.075467 72.67968 
L 337.420477 72.19584 
L 338.110498 72.19584 
L 338.800518 71.712 
L 339.145528 71.712 
L 339.490538 71.47008 
L 340.180558 71.47008 
L 340.870579 70.98624 
L 341.560599 70.98624 
L 341.905609 70.74432 
L 342.94064 70.74432 
L 343.28565 70.5024 
L 344.32068 70.5024 
L 344.66569 70.26048 
L 345.0107 70.26048 
L 345.700721 69.77664 
L 346.390741 69.77664 
L 346.735751 69.53472 
L 347.770782 69.53472 
L 348.115792 69.05088 
L 350.185853 69.05088 
L 350.530863 68.80896 
L 350.875873 68.80896 
L 351.220883 68.32512 
L 352.255913 67.59936 
L 353.290944 67.59936 
L 353.635954 67.35744 
L 353.980964 67.35744 
L 354.325974 67.11552 
L 354.670984 67.11552 
L 355.015995 66.63168 
L 355.361005 66.63168 
L 355.706015 66.38976 
L 356.741045 66.38976 
L 357.086055 65.90592 
L 357.431066 65.90592 
L 357.776076 65.664 
L 358.121086 65.664 
L 358.466096 65.42208 
L 359.156116 65.42208 
L 360.536157 64.4544 
L 361.571187 64.4544 
L 362.606218 63.72864 
L 363.296238 63.72864 
L 363.641248 63.48672 
L 363.986258 63.48672 
L 364.331268 63.2448 
L 365.021289 63.2448 
L 365.366299 63.00288 
L 366.056319 63.00288 
L 366.401329 62.76096 
L 367.09135 62.76096 
L 367.43636 62.51904 
L 367.78137 62.0352 
L 368.12638 61.79328 
L 369.16141 61.79328 
L 369.506421 61.55136 
L 370.196441 61.55136 
L 370.541451 61.06752 
L 371.576481 61.06752 
L 371.921492 60.8256 
L 372.956522 60.8256 
L 373.646542 60.34176 
L 374.681573 60.34176 
L 375.026583 60.09984 
L 376.061613 60.09984 
L 376.751634 59.616 
L 378.476684 59.616 
L 378.821695 59.37408 
L 379.166705 59.37408 
L 379.511715 59.13216 
L 381.581776 59.13216 
L 381.926786 58.89024 
L 382.271796 58.89024 
L 382.616806 58.64832 
L 382.961816 58.64832 
L 383.306826 58.4064 
L 383.996847 58.4064 
L 384.341857 58.16448 
L 384.686867 58.16448 
L 385.031877 57.92256 
L 385.376887 57.92256 
L 385.721897 57.68064 
L 386.411918 57.68064 
L 387.791958 56.71296 
L 388.481979 56.71296 
L 389.171999 56.22912 
L 389.517009 56.22912 
L 389.862019 55.9872 
L 390.89705 55.9872 
L 391.24206 55.74528 
L 391.58707 55.74528 
L 391.93208 55.50336 
L 392.27709 55.50336 
L 392.96711 55.01952 
L 393.657131 55.01952 
L 394.002141 54.7776 
L 394.347151 54.7776 
L 394.692161 54.53568 
L 395.727192 54.53568 
L 396.072202 54.29376 
L 396.762222 54.29376 
L 397.107232 54.05184 
L 397.797252 54.05184 
L 398.487273 53.568 
L 398.487273 53.568 
" clip-path="url(#p1703ec5cef)" style="fill: none; stroke-dasharray: 1.85,0.8; stroke-dashoffset: 0; stroke: #bf00bf; stroke-width: 0.5"/>
   </g>
   <g id="line2d_16">
    <path d="M 73.832727 295.488 
L 74.177737 260.65152 
L 74.867758 225.3312 
L 75.557778 209.84832 
L 76.937819 189.76896 
L 78.317859 176.70528 
L 78.662869 174.528 
L 79.007879 173.3184 
L 79.6979 166.54464 
L 80.73293 159.28704 
L 81.07794 157.35168 
L 82.112971 147.43296 
L 83.493011 133.4016 
L 83.838021 131.70816 
L 84.183032 128.80512 
L 84.873052 124.9344 
L 85.218062 121.3056 
L 85.563072 120.096 
L 86.598103 114.77376 
L 86.943113 113.80608 
L 87.288123 110.17728 
L 87.633133 108.96768 
L 87.978143 108.24192 
L 88.323153 106.30656 
L 88.668163 105.5808 
L 89.703194 101.46816 
L 90.393214 100.25856 
L 91.428245 93.24288 
L 91.773255 92.75904 
L 92.118265 92.51712 
L 92.463275 91.79136 
L 92.808285 89.13024 
L 93.153295 87.92064 
L 93.498305 87.4368 
L 94.533336 83.56608 
L 94.878346 80.90496 
L 95.568366 79.21152 
L 95.913376 77.76 
L 96.948407 71.712 
L 97.638427 70.01856 
L 97.983437 69.53472 
L 98.328447 68.0832 
L 98.673458 67.84128 
L 99.018468 67.35744 
L 100.743519 63.72864 
L 101.088529 63.48672 
L 101.433539 63.48672 
L 101.778549 63.00288 
L 102.123559 62.76096 
L 103.15859 61.30944 
L 103.5036 61.30944 
L 103.84861 61.06752 
L 104.19362 60.34176 
L 104.53863 60.34176 
L 105.918671 59.37408 
L 106.263681 58.89024 
L 106.953701 58.89024 
L 107.643721 58.4064 
L 108.678752 58.4064 
L 109.023762 57.92256 
L 110.058792 57.92256 
L 110.748813 57.43872 
L 111.093823 56.95488 
L 112.128853 56.22912 
L 113.853904 56.22912 
L 114.198914 55.9872 
L 115.233945 55.9872 
L 115.578955 55.74528 
L 115.923965 55.74528 
L 116.613985 55.26144 
L 117.649016 55.26144 
L 117.994026 55.01952 
L 122.134147 55.01952 
L 122.479158 54.7776 
L 124.549218 54.7776 
L 124.894229 54.53568 
L 126.964289 54.53568 
L 127.3093 54.29376 
L 132.139442 54.29376 
L 132.484452 54.05184 
L 132.829462 54.05184 
L 133.174472 53.80992 
L 140.764695 53.80992 
L 141.109705 53.568 
L 398.487273 53.568 
L 398.487273 53.568 
" clip-path="url(#p1703ec5cef)" style="fill: none; stroke-dasharray: 1.85,0.8; stroke-dashoffset: 0; stroke: #bfbf00; stroke-width: 0.5"/>
   </g>
   <g id="line2d_17">
    <path d="M 73.832727 295.488 
L 74.522748 244.92672 
L 75.212768 220.97664 
L 75.557778 212.99328 
L 75.902788 208.63872 
L 76.937819 200.89728 
L 78.317859 195.33312 
L 79.6979 183.72096 
L 80.04291 181.30176 
L 80.38792 177.67296 
L 81.767961 173.56032 
L 82.802991 164.8512 
L 83.148001 162.19008 
L 83.838021 153.72288 
L 84.183032 151.5456 
L 84.873052 145.01376 
L 86.598103 136.78848 
L 87.633133 133.15968 
L 87.978143 130.49856 
L 89.013174 127.11168 
L 89.703194 124.9344 
L 90.048204 122.99904 
L 90.393214 122.5152 
L 92.118265 117.91872 
L 92.463275 117.19296 
L 93.843316 108.72576 
L 94.188326 107.27424 
L 94.878346 103.40352 
L 95.223356 102.43584 
L 95.568366 100.98432 
L 95.913376 97.35552 
L 96.258387 95.904 
L 96.603397 94.93632 
L 96.948407 92.51712 
L 97.983437 89.37216 
L 98.328447 87.92064 
L 98.673458 87.19488 
L 99.018468 85.25952 
L 100.398508 80.42112 
L 101.433539 75.58272 
L 102.123559 73.88928 
L 102.468569 72.67968 
L 102.813579 70.98624 
L 103.15859 70.01856 
L 103.5036 69.77664 
L 103.84861 68.80896 
L 104.53863 67.84128 
L 105.573661 65.42208 
L 105.918671 64.21248 
L 106.263681 63.97056 
L 106.953701 62.51904 
L 107.298711 62.27712 
L 107.643721 62.27712 
L 107.988732 61.79328 
L 109.023762 59.85792 
L 109.368772 59.616 
L 110.748813 59.616 
L 112.473863 58.4064 
L 112.818874 57.92256 
L 113.508894 57.92256 
L 113.853904 57.68064 
L 114.888934 57.68064 
L 115.578955 57.1968 
L 116.958995 57.1968 
L 117.304005 56.95488 
L 117.649016 56.95488 
L 118.339036 56.47104 
L 119.029056 56.47104 
L 119.374066 56.22912 
L 120.409097 56.22912 
L 120.754107 55.9872 
L 121.099117 55.9872 
L 121.789137 55.50336 
L 124.894229 55.50336 
L 125.239239 55.26144 
L 125.929259 54.29376 
L 126.964289 54.29376 
L 127.3093 54.05184 
L 127.65431 54.05184 
L 127.99932 53.80992 
L 131.449421 53.80992 
L 131.794431 53.568 
L 398.487273 53.568 
L 398.487273 53.568 
" clip-path="url(#p1703ec5cef)" style="fill: none; stroke-dasharray: 1.85,0.8; stroke-dashoffset: 0; stroke: #000000; stroke-width: 0.5"/>
   </g>
   <g id="patch_3">
    <path d="M 57.6 307.584 
L 57.6 41.472 
" style="fill: none; stroke: #000000; stroke-width: 0.8; stroke-linejoin: miter; stroke-linecap: square"/>
   </g>
   <g id="patch_4">
    <path d="M 414.72 307.584 
L 414.72 41.472 
" style="fill: none; stroke: #000000; stroke-width: 0.8; stroke-linejoin: miter; stroke-linecap: square"/>
   </g>
   <g id="patch_5">
    <path d="M 57.6 307.584 
L 414.72 307.584 
" style="fill: none; stroke: #000000; stroke-width: 0.8; stroke-linejoin: miter; stroke-linecap: square"/>
   </g>
   <g id="patch_6">
    <path d="M 57.6 41.472 
L 414.72 41.472 
" style="fill: none; stroke: #000000; stroke-width: 0.8; stroke-linejoin: miter; stroke-linecap: square"/>
   </g>
   <g id="text_14">
    <!-- count=1000, googlenet=125, resnet50=125, squeezenetv1=75, vgg19=75 -->
    <g transform="translate(38.16 35.472)scale(0.12 -0.12)">
     <defs>
      <path id="FangSong-63" d="M 2125 2125 
Q 2125 2200 2137 2225 
Q 2150 2250 2175 2325 
Q 2200 2425 2075 2562 
Q 1950 2700 1650 2700 
Q 1275 2700 1012 2337 
Q 750 1975 750 1375 
Q 750 825 975 487 
Q 1200 150 1725 150 
Q 2075 150 2312 375 
Q 2550 600 2650 900 
L 2775 850 
Q 2675 475 2400 212 
Q 2125 -50 1650 -50 
Q 1050 -50 700 325 
Q 350 700 350 1400 
Q 350 2025 725 2437 
Q 1100 2850 1700 2850 
Q 2125 2850 2362 2625 
Q 2600 2400 2600 2175 
Q 2600 2025 2537 1962 
Q 2475 1900 2350 1900 
Q 2250 1900 2187 1962 
Q 2125 2025 2125 2125 
z
" transform="scale(0.015625)"/>
      <path id="FangSong-6f" d="M 2875 1400 
Q 2875 775 2500 362 
Q 2125 -50 1575 -50 
Q 1000 -50 637 375 
Q 275 800 275 1400 
Q 275 1950 637 2400 
Q 1000 2850 1575 2850 
Q 2175 2850 2525 2400 
Q 2875 1950 2875 1400 
z
M 675 1375 
Q 675 725 937 412 
Q 1200 100 1575 100 
Q 2000 100 2237 437 
Q 2475 775 2475 1375 
Q 2475 2025 2212 2362 
Q 1950 2700 1575 2700 
Q 1225 2700 950 2362 
Q 675 2025 675 1375 
z
" transform="scale(0.015625)"/>
      <path id="FangSong-75" d="M 1425 225 
Q 1725 225 1937 375 
Q 2150 525 2250 850 
L 2250 2425 
Q 2250 2525 2200 2587 
Q 2150 2650 2025 2650 
L 1875 2650 
L 1875 2800 
L 2025 2800 
Q 2175 2800 2300 2825 
Q 2425 2850 2550 2950 
L 2600 2950 
L 2600 500 
Q 2600 400 2662 350 
Q 2725 300 2825 300 
L 2975 300 
L 2975 150 
L 2825 150 
Q 2700 150 2575 112 
Q 2450 75 2300 0 
L 2250 0 
L 2250 525 
Q 2125 250 1875 112 
Q 1625 -25 1300 -25 
Q 900 -25 700 200 
Q 500 425 500 925 
L 500 2425 
Q 500 2525 450 2587 
Q 400 2650 275 2650 
L 125 2650 
L 125 2800 
L 275 2800 
Q 425 2800 550 2825 
Q 675 2850 800 2950 
L 850 2950 
L 850 875 
Q 850 525 1000 375 
Q 1150 225 1425 225 
z
" transform="scale(0.015625)"/>
      <path id="FangSong-6e" d="M 175 0 
L 175 150 
L 300 150 
Q 425 150 475 200 
Q 525 250 525 350 
L 525 2500 
Q 525 2575 500 2612 
Q 475 2650 400 2650 
L 200 2650 
L 200 2800 
L 375 2800 
Q 500 2800 612 2825 
Q 725 2850 825 2925 
L 875 2925 
L 875 2350 
Q 1100 2600 1325 2725 
Q 1550 2850 1800 2850 
Q 2225 2850 2425 2625 
Q 2625 2400 2625 1950 
L 2625 350 
Q 2625 250 2687 200 
Q 2750 150 2850 150 
L 2975 150 
L 2975 0 
L 1925 0 
L 1925 150 
L 2050 150 
Q 2175 150 2225 200 
Q 2275 250 2275 350 
L 2275 2025 
Q 2275 2325 2150 2487 
Q 2025 2650 1775 2650 
Q 1550 2650 1312 2500 
Q 1075 2350 875 2075 
L 875 350 
Q 875 250 937 200 
Q 1000 150 1100 150 
L 1225 150 
L 1225 0 
L 175 0 
z
" transform="scale(0.015625)"/>
      <path id="FangSong-74" d="M 1475 800 
Q 1475 450 1600 325 
Q 1725 200 1975 200 
Q 2225 200 2375 362 
Q 2525 525 2575 825 
L 2700 775 
Q 2650 425 2437 200 
Q 2225 -25 1875 -25 
Q 1500 -25 1312 200 
Q 1125 425 1125 900 
L 1125 2650 
L 375 2650 
L 375 2800 
L 575 2800 
Q 875 2800 1062 2987 
Q 1250 3175 1300 3575 
L 1325 3775 
L 1475 3775 
L 1475 2800 
L 2475 2800 
L 2475 2650 
L 1475 2650 
L 1475 800 
z
" transform="scale(0.015625)"/>
      <path id="FangSong-3d" d="M 175 2725 
L 175 2950 
L 2950 2950 
L 2950 2725 
L 175 2725 
z
M 175 1450 
L 175 1675 
L 2950 1675 
L 2950 1450 
L 175 1450 
z
" transform="scale(0.015625)"/>
      <path id="FangSong-2c" d="M 1325 75 
Q 1200 25 1100 75 
Q 1000 125 962 237 
Q 925 350 925 437 
Q 925 525 987 612 
Q 1050 700 1150 737 
Q 1250 775 1425 725 
Q 1600 675 1650 500 
Q 1700 325 1662 150 
Q 1625 -25 1525 -200 
Q 1425 -375 1312 -475 
Q 1200 -575 1025 -675 
L 950 -575 
Q 1100 -450 1187 -312 
Q 1275 -175 1325 75 
z
" transform="scale(0.015625)"/>
      <path id="FangSong-20" transform="scale(0.015625)"/>
      <path id="FangSong-67" d="M 850 1875 
Q 850 1575 1025 1362 
Q 1200 1150 1500 1150 
Q 1825 1150 1987 1337 
Q 2150 1525 2150 1875 
Q 2150 2300 1962 2487 
Q 1775 2675 1500 2675 
Q 1225 2675 1037 2487 
Q 850 2300 850 1875 
z
M 2075 525 
Q 2450 475 2625 312 
Q 2800 150 2800 -125 
Q 2800 -500 2487 -725 
Q 2175 -950 1500 -950 
Q 975 -950 650 -737 
Q 325 -525 325 -250 
Q 325 -75 450 100 
Q 575 275 850 375 
Q 700 450 612 537 
Q 525 625 525 750 
Q 525 900 625 1012 
Q 725 1125 875 1200 
Q 725 1325 612 1500 
Q 500 1675 500 1875 
Q 500 2250 762 2537 
Q 1025 2825 1500 2825 
Q 1700 2825 1887 2775 
Q 2075 2725 2200 2600 
Q 2375 2725 2512 2787 
Q 2650 2850 2750 2850 
Q 2875 2850 2925 2762 
Q 2975 2675 2975 2600 
Q 2975 2500 2937 2437 
Q 2900 2375 2800 2375 
Q 2725 2375 2675 2412 
Q 2625 2450 2600 2525 
Q 2575 2600 2487 2587 
Q 2400 2575 2300 2500 
Q 2400 2400 2450 2225 
Q 2500 2050 2500 1875 
Q 2500 1575 2262 1287 
Q 2025 1000 1500 1000 
Q 1350 1000 1225 1037 
Q 1100 1075 1025 1125 
Q 925 1075 875 1000 
Q 825 925 825 875 
Q 825 775 875 725 
Q 925 675 1025 675 
Q 1350 625 1612 587 
Q 1875 550 2075 525 
z
M 1050 325 
Q 825 225 737 87 
Q 650 -50 650 -250 
Q 650 -450 875 -625 
Q 1100 -800 1550 -800 
Q 1975 -800 2225 -662 
Q 2475 -525 2475 -250 
Q 2475 -75 2412 25 
Q 2350 125 2225 150 
Q 1975 200 1675 237 
Q 1375 275 1050 325 
z
" transform="scale(0.015625)"/>
      <path id="FangSong-6c" d="M 900 4275 
Q 1125 4275 1325 4325 
Q 1525 4375 1700 4475 
L 1750 4475 
L 1750 350 
Q 1750 250 1812 200 
Q 1875 150 1975 150 
L 2550 150 
L 2550 0 
L 600 0 
L 600 150 
L 1175 150 
Q 1300 150 1350 200 
Q 1400 250 1400 350 
L 1400 3925 
Q 1400 4025 1350 4075 
Q 1300 4125 1175 4125 
L 625 4125 
L 625 4275 
L 900 4275 
z
" transform="scale(0.015625)"/>
      <path id="FangSong-65" d="M 2375 1550 
Q 2400 2100 2187 2387 
Q 1975 2675 1625 2675 
Q 1250 2675 1012 2375 
Q 775 2075 775 1550 
L 2375 1550 
z
M 775 1400 
Q 775 725 1037 437 
Q 1300 150 1725 150 
Q 2050 150 2275 337 
Q 2500 525 2600 800 
L 2725 750 
Q 2650 475 2387 212 
Q 2125 -50 1675 -50 
Q 1100 -50 737 325 
Q 375 700 375 1400 
Q 375 2025 737 2437 
Q 1100 2850 1625 2850 
Q 2100 2850 2450 2525 
Q 2800 2200 2800 1400 
L 775 1400 
z
" transform="scale(0.015625)"/>
      <path id="FangSong-35" d="M 1700 2750 
Q 2175 2750 2475 2387 
Q 2775 2025 2775 1425 
Q 2775 750 2462 350 
Q 2150 -50 1500 -50 
Q 1050 -50 700 212 
Q 350 475 350 850 
Q 350 1000 437 1112 
Q 525 1225 675 1225 
Q 825 1225 875 1125 
Q 925 1025 925 950 
Q 925 800 850 712 
Q 775 625 775 525 
Q 775 325 1012 225 
Q 1250 125 1525 125 
Q 1925 125 2137 450 
Q 2350 775 2350 1375 
Q 2350 1875 2162 2187 
Q 1975 2500 1600 2500 
Q 1325 2500 1125 2400 
Q 925 2300 750 1975 
L 525 2000 
L 650 4275 
L 2700 4275 
L 2625 3900 
L 825 3900 
L 725 2250 
Q 975 2600 1212 2675 
Q 1450 2750 1700 2750 
z
" transform="scale(0.015625)"/>
      <path id="FangSong-72" d="M 1250 2025 
Q 1500 2425 1787 2637 
Q 2075 2850 2375 2850 
Q 2625 2850 2762 2737 
Q 2900 2625 2900 2475 
Q 2900 2350 2837 2275 
Q 2775 2200 2650 2200 
Q 2525 2200 2462 2275 
Q 2400 2350 2425 2475 
Q 2425 2550 2400 2600 
Q 2375 2650 2250 2650 
Q 2050 2650 1762 2400 
Q 1475 2150 1250 1700 
L 1250 350 
Q 1250 250 1312 200 
Q 1375 150 1475 150 
L 2025 150 
L 2025 0 
L 175 0 
L 175 150 
L 675 150 
Q 800 150 850 200 
Q 900 250 900 350 
L 900 2425 
Q 900 2525 850 2587 
Q 800 2650 675 2650 
L 200 2650 
L 200 2800 
L 400 2800 
Q 575 2800 812 2837 
Q 1050 2875 1175 2925 
L 1250 2925 
L 1250 2025 
z
" transform="scale(0.015625)"/>
      <path id="FangSong-73" d="M 600 2075 
Q 600 2450 887 2650 
Q 1175 2850 1575 2850 
Q 1800 2850 2000 2787 
Q 2200 2725 2275 2725 
Q 2350 2725 2400 2750 
Q 2450 2775 2525 2850 
L 2625 2025 
L 2475 2000 
Q 2375 2325 2137 2512 
Q 1900 2700 1600 2700 
Q 1275 2700 1087 2575 
Q 900 2450 900 2225 
Q 900 2025 987 1912 
Q 1075 1800 1300 1750 
Q 1475 1675 1737 1587 
Q 2000 1500 2225 1400 
Q 2425 1300 2562 1137 
Q 2700 975 2700 775 
Q 2700 400 2437 187 
Q 2175 -25 1675 -25 
Q 1350 -25 1187 37 
Q 1025 100 925 100 
Q 850 100 762 62 
Q 675 25 575 -25 
L 500 900 
L 650 925 
Q 725 525 975 325 
Q 1225 125 1675 125 
Q 2025 125 2212 250 
Q 2400 375 2400 625 
Q 2400 800 2300 912 
Q 2200 1025 2100 1075 
Q 1850 1175 1550 1287 
Q 1250 1400 1025 1500 
Q 800 1600 700 1750 
Q 600 1900 600 2075 
z
" transform="scale(0.015625)"/>
      <path id="FangSong-71" d="M 2250 2150 
Q 2150 2375 1975 2512 
Q 1800 2650 1550 2650 
Q 1200 2650 950 2350 
Q 700 2050 700 1325 
Q 700 700 912 437 
Q 1125 175 1450 175 
Q 1725 175 1937 300 
Q 2150 425 2250 725 
L 2250 2150 
z
M 2600 -550 
Q 2600 -675 2662 -725 
Q 2725 -775 2825 -775 
L 2975 -775 
L 2975 -925 
L 1825 -925 
L 1825 -775 
L 2025 -775 
Q 2150 -775 2200 -725 
Q 2250 -675 2250 -550 
L 2250 375 
Q 2100 175 1887 75 
Q 1675 -25 1375 -25 
Q 950 -25 625 337 
Q 300 700 300 1400 
Q 300 2075 675 2450 
Q 1050 2825 1475 2825 
Q 1750 2825 1937 2725 
Q 2125 2625 2275 2475 
L 2500 2800 
L 2600 2800 
L 2600 -550 
z
" transform="scale(0.015625)"/>
      <path id="FangSong-7a" d="M 2725 975 
L 2550 0 
L 400 0 
L 400 125 
L 2125 2650 
L 1200 2650 
Q 975 2650 825 2487 
Q 675 2325 575 1925 
L 425 1950 
L 525 2800 
L 2575 2800 
L 2575 2725 
L 825 150 
L 1775 150 
Q 2100 150 2287 350 
Q 2475 550 2575 1000 
L 2725 975 
z
" transform="scale(0.015625)"/>
      <path id="FangSong-76" d="M 1600 -25 
L 1450 -25 
L 600 2425 
Q 575 2525 500 2587 
Q 425 2650 325 2650 
L 200 2650 
L 200 2800 
L 1275 2800 
L 1275 2650 
L 1175 2650 
Q 1025 2650 987 2575 
Q 950 2500 1000 2325 
L 1600 575 
L 1650 575 
L 2250 2300 
Q 2325 2475 2262 2562 
Q 2200 2650 2050 2650 
L 2000 2650 
L 2000 2800 
L 2900 2800 
L 2900 2650 
L 2850 2650 
Q 2700 2650 2612 2562 
Q 2525 2475 2450 2300 
L 1600 -25 
z
" transform="scale(0.015625)"/>
      <path id="FangSong-37" d="M 2800 4100 
Q 2275 3250 1962 2437 
Q 1650 1625 1650 1025 
Q 1650 925 1662 737 
Q 1675 550 1675 300 
Q 1675 100 1612 25 
Q 1550 -50 1400 -50 
Q 1275 -50 1187 37 
Q 1100 125 1100 350 
Q 1100 825 1312 1525 
Q 1525 2225 2450 3900 
L 1200 3900 
Q 925 3900 762 3725 
Q 600 3550 525 3200 
L 375 3225 
L 550 4275 
L 2800 4275 
L 2800 4100 
z
" transform="scale(0.015625)"/>
      <path id="FangSong-39" d="M 675 2950 
Q 675 2400 887 2112 
Q 1100 1825 1425 1825 
Q 1800 1825 2075 2175 
Q 2350 2525 2350 2825 
Q 2350 3425 2150 3787 
Q 1950 4150 1500 4150 
Q 1075 4150 875 3812 
Q 675 3475 675 2950 
z
M 1350 1600 
Q 850 1600 550 1912 
Q 250 2225 250 2925 
Q 250 3525 575 3925 
Q 900 4325 1500 4325 
Q 2125 4325 2475 3825 
Q 2825 3325 2825 2375 
Q 2825 1325 2412 637 
Q 2000 -50 1275 -50 
Q 950 -50 712 100 
Q 475 250 475 500 
Q 475 600 537 700 
Q 600 800 750 800 
Q 900 800 950 687 
Q 1000 575 1000 425 
Q 1000 325 1025 262 
Q 1050 200 1075 175 
Q 1100 150 1162 137 
Q 1225 125 1300 125 
Q 1750 125 2025 625 
Q 2300 1125 2350 2300 
Q 2225 2000 1975 1800 
Q 1725 1600 1350 1600 
z
" transform="scale(0.015625)"/>
     </defs>
     <use xlink:href="#FangSong-63"/>
     <use xlink:href="#FangSong-6f" x="50"/>
     <use xlink:href="#FangSong-75" x="100"/>
     <use xlink:href="#FangSong-6e" x="150"/>
     <use xlink:href="#FangSong-74" x="200"/>
     <use xlink:href="#FangSong-3d" x="250"/>
     <use xlink:href="#FangSong-31" x="300"/>
     <use xlink:href="#FangSong-30" x="350"/>
     <use xlink:href="#FangSong-30" x="400"/>
     <use xlink:href="#FangSong-30" x="450"/>
     <use xlink:href="#FangSong-2c" x="500"/>
     <use xlink:href="#FangSong-20" x="550"/>
     <use xlink:href="#FangSong-67" x="600"/>
     <use xlink:href="#FangSong-6f" x="650"/>
     <use xlink:href="#FangSong-6f" x="700"/>
     <use xlink:href="#FangSong-67" x="750"/>
     <use xlink:href="#FangSong-6c" x="800"/>
     <use xlink:href="#FangSong-65" x="850"/>
     <use xlink:href="#FangSong-6e" x="900"/>
     <use xlink:href="#FangSong-65" x="950"/>
     <use xlink:href="#FangSong-74" x="1000"/>
     <use xlink:href="#FangSong-3d" x="1050"/>
     <use xlink:href="#FangSong-31" x="1100"/>
     <use xlink:href="#FangSong-32" x="1150"/>
     <use xlink:href="#FangSong-35" x="1200"/>
     <use xlink:href="#FangSong-2c" x="1250"/>
     <use xlink:href="#FangSong-20" x="1300"/>
     <use xlink:href="#FangSong-72" x="1350"/>
     <use xlink:href="#FangSong-65" x="1400"/>
     <use xlink:href="#FangSong-73" x="1450"/>
     <use xlink:href="#FangSong-6e" x="1500"/>
     <use xlink:href="#FangSong-65" x="1550"/>
     <use xlink:href="#FangSong-74" x="1600"/>
     <use xlink:href="#FangSong-35" x="1650"/>
     <use xlink:href="#FangSong-30" x="1700"/>
     <use xlink:href="#FangSong-3d" x="1750"/>
     <use xlink:href="#FangSong-31" x="1800"/>
     <use xlink:href="#FangSong-32" x="1850"/>
     <use xlink:href="#FangSong-35" x="1900"/>
     <use xlink:href="#FangSong-2c" x="1950"/>
     <use xlink:href="#FangSong-20" x="2000"/>
     <use xlink:href="#FangSong-73" x="2050"/>
     <use xlink:href="#FangSong-71" x="2100"/>
     <use xlink:href="#FangSong-75" x="2150"/>
     <use xlink:href="#FangSong-65" x="2200"/>
     <use xlink:href="#FangSong-65" x="2250"/>
     <use xlink:href="#FangSong-7a" x="2300"/>
     <use xlink:href="#FangSong-65" x="2350"/>
     <use xlink:href="#FangSong-6e" x="2400"/>
     <use xlink:href="#FangSong-65" x="2450"/>
     <use xlink:href="#FangSong-74" x="2500"/>
     <use xlink:href="#FangSong-76" x="2550"/>
     <use xlink:href="#FangSong-31" x="2600"/>
     <use xlink:href="#FangSong-3d" x="2650"/>
     <use xlink:href="#FangSong-37" x="2700"/>
     <use xlink:href="#FangSong-35" x="2750"/>
     <use xlink:href="#FangSong-2c" x="2800"/>
     <use xlink:href="#FangSong-20" x="2850"/>
     <use xlink:href="#FangSong-76" x="2900"/>
     <use xlink:href="#FangSong-67" x="2950"/>
     <use xlink:href="#FangSong-67" x="3000"/>
     <use xlink:href="#FangSong-31" x="3050"/>
     <use xlink:href="#FangSong-39" x="3100"/>
     <use xlink:href="#FangSong-3d" x="3150"/>
     <use xlink:href="#FangSong-37" x="3200"/>
     <use xlink:href="#FangSong-35" x="3250"/>
    </g>
   </g>
   <g id="legend_1">
    <g id="patch_7">
     <path d="M 335.72 302.584 
L 407.72 302.584 
Q 409.72 302.584 409.72 300.584 
L 409.72 220.912125 
Q 409.72 218.912125 407.72 218.912125 
L 335.72 218.912125 
Q 333.72 218.912125 333.72 220.912125 
L 333.72 300.584 
Q 333.72 302.584 335.72 302.584 
z
" style="fill: #ffffff; opacity: 0.8; stroke: #cccccc; stroke-linejoin: miter"/>
    </g>
    <g id="line2d_18">
     <path d="M 337.72 226.412125 
L 347.72 226.412125 
L 357.72 226.412125 
" style="fill: none; stroke: #ff0000; stroke-linecap: square"/>
    </g>
    <g id="text_15">
     <!-- DLIR -->
     <g transform="translate(365.72 229.912125)scale(0.1 -0.1)">
      <defs>
       <path id="FangSong-44" d="M 2475 2175 
Q 2475 3250 2150 3687 
Q 1825 4125 1250 4125 
Q 1075 4125 987 4075 
Q 900 4025 900 3925 
L 900 350 
Q 900 250 975 200 
Q 1050 150 1175 150 
Q 1725 150 2100 562 
Q 2475 975 2475 2175 
z
M 500 3925 
Q 500 4025 450 4075 
Q 400 4125 275 4125 
L 125 4125 
L 125 4275 
L 1250 4275 
Q 2025 4275 2487 3775 
Q 2950 3275 2950 2225 
Q 2950 1075 2500 537 
Q 2050 0 1175 0 
L 100 0 
L 100 150 
L 275 150 
Q 400 150 450 200 
Q 500 250 500 350 
L 500 3925 
z
" transform="scale(0.015625)"/>
       <path id="FangSong-4c" d="M 975 350 
Q 975 250 1037 200 
Q 1100 150 1200 150 
L 1875 150 
Q 2225 150 2475 362 
Q 2725 575 2850 1025 
L 2975 975 
L 2750 0 
L 175 0 
L 175 150 
L 350 150 
Q 475 150 525 200 
Q 575 250 575 350 
L 575 3925 
Q 575 4025 525 4075 
Q 475 4125 350 4125 
L 200 4125 
L 200 4275 
L 1375 4275 
L 1375 4125 
L 1200 4125 
Q 1100 4125 1037 4075 
Q 975 4025 975 3925 
L 975 350 
z
" transform="scale(0.015625)"/>
       <path id="FangSong-49" d="M 575 4125 
L 575 4275 
L 2575 4275 
L 2575 4125 
L 2000 4125 
Q 1900 4125 1837 4075 
Q 1775 4025 1775 3925 
L 1775 350 
Q 1775 250 1837 200 
Q 1900 150 2000 150 
L 2575 150 
L 2575 0 
L 575 0 
L 575 150 
L 1150 150 
Q 1275 150 1325 200 
Q 1375 250 1375 350 
L 1375 3925 
Q 1375 4025 1325 4075 
Q 1275 4125 1150 4125 
L 575 4125 
z
" transform="scale(0.015625)"/>
       <path id="FangSong-52" d="M 2800 3275 
Q 2800 2775 2525 2500 
Q 2250 2225 1900 2175 
L 2650 325 
Q 2700 225 2762 187 
Q 2825 150 2900 150 
L 3050 150 
L 3050 0 
L 2350 0 
L 1525 2150 
L 950 2150 
L 950 350 
Q 950 250 1012 200 
Q 1075 150 1175 150 
L 1325 150 
L 1325 0 
L 175 0 
L 175 150 
L 325 150 
Q 450 150 500 200 
Q 550 250 550 350 
L 550 3925 
Q 550 4025 500 4075 
Q 450 4125 325 4125 
L 175 4125 
L 175 4275 
L 1600 4275 
Q 2175 4275 2487 4025 
Q 2800 3775 2800 3275 
z
M 950 2300 
L 1500 2300 
Q 1875 2300 2125 2525 
Q 2375 2750 2375 3225 
Q 2375 3650 2150 3887 
Q 1925 4125 1450 4125 
L 1175 4125 
Q 1075 4125 1012 4075 
Q 950 4025 950 3925 
L 950 2300 
z
" transform="scale(0.015625)"/>
      </defs>
      <use xlink:href="#FangSong-44"/>
      <use xlink:href="#FangSong-4c" x="50"/>
      <use xlink:href="#FangSong-49" x="100"/>
      <use xlink:href="#FangSong-52" x="150"/>
     </g>
    </g>
    <g id="line2d_19">
     <path d="M 337.72 239.857437 
L 347.72 239.857437 
L 357.72 239.857437 
" style="fill: none; stroke-dasharray: 1.85,0.8; stroke-dashoffset: 0; stroke: #008000; stroke-width: 0.5"/>
    </g>
    <g id="text_16">
     <!-- BNST -->
     <g transform="translate(365.72 243.357437)scale(0.1 -0.1)">
      <defs>
       <path id="FangSong-42" d="M 75 0 
L 75 150 
L 275 150 
Q 400 150 450 200 
Q 500 250 500 350 
L 500 3925 
Q 500 4025 450 4075 
Q 400 4125 275 4125 
L 125 4125 
L 125 4275 
L 1575 4275 
Q 2175 4275 2462 4037 
Q 2750 3800 2750 3300 
Q 2750 2950 2600 2725 
Q 2450 2500 1975 2325 
Q 2550 2150 2750 1825 
Q 2950 1500 2950 1100 
Q 2950 600 2600 300 
Q 2250 0 1650 0 
L 75 0 
z
M 1575 150 
Q 2000 150 2237 412 
Q 2475 675 2475 1150 
Q 2475 1700 2225 1962 
Q 1975 2225 1475 2225 
L 900 2225 
L 900 350 
Q 900 250 962 200 
Q 1025 150 1125 150 
L 1575 150 
z
M 2325 3300 
Q 2325 3750 2075 3937 
Q 1825 4125 1425 4125 
L 1125 4125 
Q 1025 4125 962 4075 
Q 900 4025 900 3925 
L 900 2375 
L 1550 2375 
Q 1825 2375 2075 2600 
Q 2325 2825 2325 3300 
z
" transform="scale(0.015625)"/>
       <path id="FangSong-4e" d="M 2500 1000 
L 2550 1000 
L 2550 3925 
Q 2550 4025 2500 4075 
Q 2450 4125 2325 4125 
L 2125 4125 
L 2125 4275 
L 3125 4275 
L 3125 4125 
L 2925 4125 
Q 2825 4125 2762 4075 
Q 2700 4025 2700 3925 
L 2700 0 
L 2550 0 
L 650 3725 
L 600 3725 
L 600 350 
Q 600 250 662 200 
Q 725 150 825 150 
L 1025 150 
L 1025 0 
L 25 0 
L 25 150 
L 225 150 
Q 350 150 400 200 
Q 450 250 450 350 
L 450 3925 
Q 450 4025 400 4075 
Q 350 4125 225 4125 
L 75 4125 
L 75 4275 
L 800 4275 
L 2500 1000 
z
" transform="scale(0.015625)"/>
       <path id="FangSong-53" d="M 1475 2050 
Q 800 2350 550 2575 
Q 300 2800 300 3275 
Q 300 3650 612 3987 
Q 925 4325 1500 4325 
Q 1750 4325 1975 4237 
Q 2200 4150 2300 4150 
Q 2375 4150 2437 4187 
Q 2500 4225 2550 4325 
L 2650 3300 
L 2525 3250 
Q 2300 3775 2062 3962 
Q 1825 4150 1450 4150 
Q 975 4150 800 3887 
Q 625 3625 625 3325 
Q 625 3050 787 2887 
Q 950 2725 1675 2400 
Q 2275 2150 2537 1837 
Q 2800 1525 2800 1100 
Q 2800 650 2487 300 
Q 2175 -50 1575 -50 
Q 1325 -50 1112 37 
Q 900 125 775 125 
Q 700 125 625 75 
Q 550 25 450 -50 
L 250 1175 
L 400 1225 
Q 575 600 887 362 
Q 1200 125 1600 125 
Q 2025 125 2237 375 
Q 2450 625 2450 1100 
Q 2450 1350 2212 1587 
Q 1975 1825 1475 2050 
z
" transform="scale(0.015625)"/>
       <path id="FangSong-54" d="M 2200 0 
L 900 0 
L 900 150 
L 1125 150 
Q 1250 150 1300 200 
Q 1350 250 1350 350 
L 1350 3850 
Q 1350 4050 1325 4075 
Q 1300 4100 1125 4100 
Q 775 4100 637 3975 
Q 500 3850 300 3300 
L 150 3325 
L 375 4275 
L 2750 4275 
L 2950 3325 
L 2825 3300 
Q 2625 3825 2512 3962 
Q 2400 4100 2050 4100 
Q 1800 4100 1775 4075 
Q 1750 4050 1750 3825 
L 1750 350 
Q 1750 250 1812 200 
Q 1875 150 1975 150 
L 2200 150 
L 2200 0 
z
" transform="scale(0.015625)"/>
      </defs>
      <use xlink:href="#FangSong-42"/>
      <use xlink:href="#FangSong-4e" x="50"/>
      <use xlink:href="#FangSong-53" x="100"/>
      <use xlink:href="#FangSong-54" x="150"/>
     </g>
    </g>
    <g id="line2d_20">
     <path d="M 337.72 253.30275 
L 347.72 253.30275 
L 357.72 253.30275 
" style="fill: none; stroke-dasharray: 1.85,0.8; stroke-dashoffset: 0; stroke: #0000ff; stroke-width: 0.5"/>
    </g>
    <g id="text_17">
     <!-- FIFO -->
     <g transform="translate(365.72 256.80275)scale(0.1 -0.1)">
      <defs>
       <path id="FangSong-46" d="M 1325 150 
L 1325 0 
L 125 0 
L 125 150 
L 300 150 
Q 425 150 475 200 
Q 525 250 525 350 
L 525 3925 
Q 525 4025 475 4075 
Q 425 4125 300 4125 
L 150 4125 
L 150 4275 
L 2750 4275 
L 3050 3375 
L 2925 3325 
Q 2725 3725 2450 3925 
Q 2175 4125 1850 4125 
L 1150 4125 
Q 1050 4125 987 4075 
Q 925 4025 925 3925 
L 925 2325 
L 1750 2325 
Q 2000 2325 2112 2437 
Q 2225 2550 2225 2800 
L 2225 2925 
L 2375 2925 
L 2375 1475 
L 2225 1475 
L 2225 1575 
Q 2225 1875 2112 2025 
Q 2000 2175 1750 2175 
L 925 2175 
L 925 350 
Q 925 250 987 200 
Q 1050 150 1150 150 
L 1325 150 
z
" transform="scale(0.015625)"/>
       <path id="FangSong-4f" d="M 675 2150 
Q 675 1075 937 587 
Q 1200 100 1600 100 
Q 2025 100 2275 562 
Q 2525 1025 2525 2150 
Q 2525 3050 2312 3600 
Q 2100 4150 1600 4150 
Q 1175 4150 925 3650 
Q 675 3150 675 2150 
z
M 3000 2150 
Q 3000 1125 2600 537 
Q 2200 -50 1600 -50 
Q 1025 -50 612 550 
Q 200 1150 200 2150 
Q 200 3125 587 3725 
Q 975 4325 1600 4325 
Q 2250 4325 2625 3687 
Q 3000 3050 3000 2150 
z
" transform="scale(0.015625)"/>
      </defs>
      <use xlink:href="#FangSong-46"/>
      <use xlink:href="#FangSong-49" x="50"/>
      <use xlink:href="#FangSong-46" x="100"/>
      <use xlink:href="#FangSong-4f" x="150"/>
     </g>
    </g>
    <g id="line2d_21">
     <path d="M 337.72 266.748062 
L 347.72 266.748062 
L 357.72 266.748062 
" style="fill: none; stroke-dasharray: 1.85,0.8; stroke-dashoffset: 0; stroke: #bf00bf; stroke-width: 0.5"/>
    </g>
    <g id="text_18">
     <!-- OYST -->
     <g transform="translate(365.72 270.248062)scale(0.1 -0.1)">
      <defs>
       <path id="FangSong-59" d="M 2350 3825 
Q 2375 3975 2312 4050 
Q 2250 4125 2075 4125 
L 2025 4125 
L 2025 4275 
L 3000 4275 
L 3000 4125 
L 2925 4125 
Q 2800 4125 2700 4037 
Q 2600 3950 2525 3775 
L 1750 1800 
L 1750 350 
Q 1750 250 1812 200 
Q 1875 150 1975 150 
L 2200 150 
L 2200 0 
L 900 0 
L 900 150 
L 1125 150 
Q 1250 150 1300 200 
Q 1350 250 1350 350 
L 1350 1650 
L 500 3850 
Q 450 3975 375 4050 
Q 300 4125 175 4125 
L 125 4125 
L 125 4275 
L 1225 4275 
L 1225 4125 
L 1075 4125 
Q 925 4125 900 4050 
Q 875 3975 925 3825 
L 1600 1975 
L 1650 1975 
L 2350 3825 
z
" transform="scale(0.015625)"/>
      </defs>
      <use xlink:href="#FangSong-4f"/>
      <use xlink:href="#FangSong-59" x="50"/>
      <use xlink:href="#FangSong-53" x="100"/>
      <use xlink:href="#FangSong-54" x="150"/>
     </g>
    </g>
    <g id="line2d_22">
     <path d="M 337.72 280.193375 
L 347.72 280.193375 
L 357.72 280.193375 
" style="fill: none; stroke-dasharray: 1.85,0.8; stroke-dashoffset: 0; stroke: #bfbf00; stroke-width: 0.5"/>
    </g>
    <g id="text_19">
     <!-- MPS -->
     <g transform="translate(365.72 283.693375)scale(0.1 -0.1)">
      <defs>
       <path id="FangSong-4d" d="M 2775 350 
Q 2775 250 2837 200 
Q 2900 150 3000 150 
L 3100 150 
L 3100 0 
L 2025 0 
L 2025 150 
L 2150 150 
Q 2275 150 2325 200 
Q 2375 250 2375 350 
L 2375 3625 
L 2325 3625 
L 1475 0 
L 1325 0 
L 550 3550 
L 500 3550 
L 500 350 
Q 500 250 562 200 
Q 625 150 725 150 
L 800 150 
L 800 0 
L 50 0 
L 50 150 
L 125 150 
Q 250 150 300 200 
Q 350 250 350 350 
L 350 3925 
Q 350 4025 300 4075 
Q 250 4125 125 4125 
L 25 4125 
L 25 4275 
L 750 4275 
L 1475 925 
L 1525 925 
L 2300 4275 
L 3100 4275 
L 3100 4125 
L 3000 4125 
Q 2900 4125 2837 4075 
Q 2775 4025 2775 3925 
L 2775 350 
z
" transform="scale(0.015625)"/>
       <path id="FangSong-50" d="M 925 2000 
L 925 350 
Q 925 250 987 200 
Q 1050 150 1150 150 
L 1325 150 
L 1325 0 
L 125 0 
L 125 150 
L 300 150 
Q 425 150 475 200 
Q 525 250 525 350 
L 525 3925 
Q 525 4025 475 4075 
Q 425 4125 300 4125 
L 150 4125 
L 150 4275 
L 1625 4275 
Q 2250 4275 2587 3962 
Q 2925 3650 2925 3175 
Q 2925 2600 2562 2300 
Q 2200 2000 1700 2000 
L 925 2000 
z
M 1550 2150 
Q 1925 2150 2212 2375 
Q 2500 2600 2500 3150 
Q 2500 3650 2262 3887 
Q 2025 4125 1500 4125 
L 1150 4125 
Q 1050 4125 987 4075 
Q 925 4025 925 3925 
L 925 2150 
L 1550 2150 
z
" transform="scale(0.015625)"/>
      </defs>
      <use xlink:href="#FangSong-4d"/>
      <use xlink:href="#FangSong-50" x="50"/>
      <use xlink:href="#FangSong-53" x="100"/>
     </g>
    </g>
    <g id="line2d_23">
     <path d="M 337.72 293.638687 
L 347.72 293.638687 
L 357.72 293.638687 
" style="fill: none; stroke-dasharray: 1.85,0.8; stroke-dashoffset: 0; stroke: #000000; stroke-width: 0.5"/>
    </g>
    <g id="text_20">
     <!-- PARALLEL -->
     <g transform="translate(365.72 297.138687)scale(0.1 -0.1)">
      <defs>
       <path id="FangSong-41" d="M 2000 1600 
L 875 1600 
L 650 650 
Q 600 425 650 287 
Q 700 150 875 150 
L 950 150 
L 950 0 
L 25 0 
L 25 150 
L 100 150 
Q 200 150 275 212 
Q 350 275 375 425 
L 1350 4250 
L 1725 4375 
L 2675 425 
Q 2725 275 2800 212 
Q 2875 150 2975 150 
L 3050 150 
L 3050 0 
L 1975 0 
L 1975 150 
L 2075 150 
Q 2225 150 2262 237 
Q 2300 325 2250 500 
L 2000 1600 
z
M 1475 3825 
L 1450 3825 
L 925 1750 
L 1975 1750 
L 1475 3825 
z
" transform="scale(0.015625)"/>
       <path id="FangSong-45" d="M 175 4125 
L 175 4275 
L 2625 4275 
L 2900 3425 
L 2775 3375 
Q 2575 3750 2350 3937 
Q 2125 4125 1850 4125 
L 1150 4125 
Q 1050 4125 987 4075 
Q 925 4025 925 3925 
L 925 2375 
L 1650 2375 
Q 1900 2375 2012 2500 
Q 2125 2625 2125 2875 
L 2125 3025 
L 2275 3025 
L 2275 1550 
L 2125 1550 
L 2125 1650 
Q 2125 1925 2012 2075 
Q 1900 2225 1650 2225 
L 925 2225 
L 925 350 
Q 925 250 987 200 
Q 1050 150 1150 150 
L 1800 150 
Q 2175 150 2437 362 
Q 2700 575 2850 1025 
L 2975 975 
L 2700 0 
L 150 0 
L 150 150 
L 300 150 
Q 425 150 475 200 
Q 525 250 525 350 
L 525 3925 
Q 525 4025 475 4075 
Q 425 4125 300 4125 
L 175 4125 
z
" transform="scale(0.015625)"/>
      </defs>
      <use xlink:href="#FangSong-50"/>
      <use xlink:href="#FangSong-41" x="50"/>
      <use xlink:href="#FangSong-52" x="100"/>
      <use xlink:href="#FangSong-41" x="150"/>
      <use xlink:href="#FangSong-4c" x="200"/>
      <use xlink:href="#FangSong-4c" x="250"/>
      <use xlink:href="#FangSong-45" x="300"/>
      <use xlink:href="#FangSong-4c" x="350"/>
     </g>
    </g>
   </g>
  </g>
 </g>
 <defs>
  <clipPath id="p1703ec5cef">
   <rect x="57.6" y="41.472" width="357.12" height="266.112"/>
  </clipPath>
 </defs>
</svg>
