<?xml version="1.0" encoding="utf-8" standalone="no"?>
<!DOCTYPE svg PUBLIC "-//W3C//DTD SVG 1.1//EN"
  "http://www.w3.org/Graphics/SVG/1.1/DTD/svg11.dtd">
<svg xmlns:xlink="http://www.w3.org/1999/xlink" width="460.8pt" height="345.6pt" viewBox="0 0 460.8 345.6" xmlns="http://www.w3.org/2000/svg" version="1.1">
 <metadata>
  <rdf:RDF xmlns:dc="http://purl.org/dc/elements/1.1/" xmlns:cc="http://creativecommons.org/ns#" xmlns:rdf="http://www.w3.org/1999/02/22-rdf-syntax-ns#">
   <cc:Work>
    <dc:type rdf:resource="http://purl.org/dc/dcmitype/StillImage"/>
    <dc:date>2022-11-17T04:01:29.153362</dc:date>
    <dc:format>image/svg+xml</dc:format>
    <dc:creator>
     <cc:Agent>
      <dc:title>Matplotlib v3.5.2, https://matplotlib.org/</dc:title>
     </cc:Agent>
    </dc:creator>
   </cc:Work>
  </rdf:RDF>
 </metadata>
 <defs>
  <style type="text/css">*{stroke-linejoin: round; stroke-linecap: butt}</style>
 </defs>
 <g id="figure_1">
  <g id="patch_1">
   <path d="M 0 345.6 
L 460.8 345.6 
L 460.8 0 
L 0 0 
z
" style="fill: #ffffff"/>
  </g>
  <g id="axes_1">
   <g id="patch_2">
    <path d="M 57.6 307.584 
L 414.72 307.584 
L 414.72 41.472 
L 57.6 41.472 
z
" style="fill: #ffffff"/>
   </g>
   <g id="matplotlib.axis_1">
    <g id="xtick_1">
     <g id="line2d_1">
      <defs>
       <path id="me781f02e8e" d="M 0 0 
L 0 3.5 
" style="stroke: #000000; stroke-width: 0.8"/>
      </defs>
      <g>
       <use xlink:href="#me781f02e8e" x="70.530036" y="307.584" style="stroke: #000000; stroke-width: 0.8"/>
      </g>
     </g>
     <g id="text_1">
      <!-- 0 -->
      <g transform="translate(68.030036 321.576187)scale(0.1 -0.1)">
       <defs>
        <path id="FangSong-30" d="M 1575 4125 
Q 1225 4125 987 3587 
Q 750 3050 750 2150 
Q 750 1200 987 675 
Q 1225 150 1575 150 
Q 1950 150 2162 675 
Q 2375 1200 2375 2150 
Q 2375 3050 2175 3587 
Q 1975 4125 1575 4125 
z
M 1575 -50 
Q 1025 -50 650 525 
Q 275 1100 275 2150 
Q 275 3125 637 3725 
Q 1000 4325 1575 4325 
Q 2125 4325 2487 3750 
Q 2850 3175 2850 2150 
Q 2850 1125 2487 537 
Q 2125 -50 1575 -50 
z
" transform="scale(0.015625)"/>
       </defs>
       <use xlink:href="#FangSong-30"/>
      </g>
     </g>
    </g>
    <g id="xtick_2">
     <g id="line2d_2">
      <g>
       <use xlink:href="#me781f02e8e" x="136.58386" y="307.584" style="stroke: #000000; stroke-width: 0.8"/>
      </g>
     </g>
     <g id="text_2">
      <!-- 20 -->
      <g transform="translate(131.58386 321.576187)scale(0.1 -0.1)">
       <defs>
        <path id="FangSong-32" d="M 2300 3225 
Q 2300 3675 2100 3912 
Q 1900 4150 1500 4150 
Q 1200 4150 987 3987 
Q 775 3825 775 3575 
Q 775 3425 862 3325 
Q 950 3225 950 3125 
Q 950 3000 887 2937 
Q 825 2875 700 2875 
Q 550 2875 462 2962 
Q 375 3050 375 3250 
Q 375 3775 750 4050 
Q 1125 4325 1550 4325 
Q 2150 4325 2437 4025 
Q 2725 3725 2725 3275 
Q 2725 2975 2587 2675 
Q 2450 2375 2150 2100 
Q 1425 1400 1037 962 
Q 650 525 575 375 
L 2050 375 
Q 2275 375 2425 550 
Q 2575 725 2625 1075 
L 2775 1075 
L 2625 0 
L 300 0 
L 300 325 
Q 425 550 712 900 
Q 1000 1250 1475 1725 
Q 1900 2150 2100 2525 
Q 2300 2900 2300 3225 
z
" transform="scale(0.015625)"/>
       </defs>
       <use xlink:href="#FangSong-32"/>
       <use xlink:href="#FangSong-30" x="50"/>
      </g>
     </g>
    </g>
    <g id="xtick_3">
     <g id="line2d_3">
      <g>
       <use xlink:href="#me781f02e8e" x="202.637684" y="307.584" style="stroke: #000000; stroke-width: 0.8"/>
      </g>
     </g>
     <g id="text_3">
      <!-- 40 -->
      <g transform="translate(197.637684 321.576187)scale(0.1 -0.1)">
       <defs>
        <path id="FangSong-34" d="M 2275 475 
Q 2275 300 2375 225 
Q 2475 150 2650 150 
L 2875 150 
L 2875 0 
L 1225 0 
L 1225 150 
L 1500 150 
Q 1700 150 1787 225 
Q 1875 300 1875 475 
L 1875 1300 
L 200 1300 
L 200 1425 
L 2025 4325 
L 2275 4325 
L 2275 1450 
L 2950 1450 
L 2950 1300 
L 2275 1300 
L 2275 475 
z
M 1850 3700 
L 425 1450 
L 1875 1450 
L 1875 3700 
L 1850 3700 
z
" transform="scale(0.015625)"/>
       </defs>
       <use xlink:href="#FangSong-34"/>
       <use xlink:href="#FangSong-30" x="50"/>
      </g>
     </g>
    </g>
    <g id="xtick_4">
     <g id="line2d_4">
      <g>
       <use xlink:href="#me781f02e8e" x="268.691508" y="307.584" style="stroke: #000000; stroke-width: 0.8"/>
      </g>
     </g>
     <g id="text_4">
      <!-- 60 -->
      <g transform="translate(263.691508 321.576187)scale(0.1 -0.1)">
       <defs>
        <path id="FangSong-36" d="M 750 1700 
Q 750 950 1012 537 
Q 1275 125 1650 125 
Q 2025 125 2225 400 
Q 2425 675 2425 1425 
Q 2425 1925 2212 2200 
Q 2000 2475 1700 2475 
Q 1425 2475 1187 2312 
Q 950 2150 750 1700 
z
M 1725 2725 
Q 2325 2725 2587 2325 
Q 2850 1925 2850 1425 
Q 2850 675 2487 312 
Q 2125 -50 1650 -50 
Q 975 -50 625 462 
Q 275 975 275 1950 
Q 275 3100 700 3712 
Q 1125 4325 1850 4325 
Q 2200 4325 2412 4125 
Q 2625 3925 2625 3775 
Q 2625 3625 2562 3550 
Q 2500 3475 2350 3475 
Q 2225 3475 2162 3537 
Q 2100 3600 2100 3725 
Q 2100 3775 2112 3825 
Q 2125 3875 2125 3925 
Q 2125 4025 2050 4087 
Q 1975 4150 1775 4150 
Q 1350 4150 1050 3762 
Q 750 3375 750 2075 
Q 900 2400 1162 2562 
Q 1425 2725 1725 2725 
z
" transform="scale(0.015625)"/>
       </defs>
       <use xlink:href="#FangSong-36"/>
       <use xlink:href="#FangSong-30" x="50"/>
      </g>
     </g>
    </g>
    <g id="xtick_5">
     <g id="line2d_5">
      <g>
       <use xlink:href="#me781f02e8e" x="334.745332" y="307.584" style="stroke: #000000; stroke-width: 0.8"/>
      </g>
     </g>
     <g id="text_5">
      <!-- 80 -->
      <g transform="translate(329.745332 321.576187)scale(0.1 -0.1)">
       <defs>
        <path id="FangSong-38" d="M 600 1025 
Q 600 625 862 375 
Q 1125 125 1525 125 
Q 2000 125 2212 375 
Q 2425 625 2425 1000 
Q 2425 1325 2125 1625 
Q 1825 1925 1225 2175 
Q 925 1975 762 1675 
Q 600 1375 600 1025 
z
M 2800 1075 
Q 2800 600 2450 275 
Q 2100 -50 1525 -50 
Q 1000 -50 625 275 
Q 250 600 250 1025 
Q 250 1450 462 1750 
Q 675 2050 1075 2275 
Q 725 2450 537 2712 
Q 350 2975 350 3300 
Q 350 3725 675 4025 
Q 1000 4325 1575 4325 
Q 2100 4325 2425 4025 
Q 2750 3725 2750 3300 
Q 2750 3000 2562 2737 
Q 2375 2475 1975 2275 
Q 2400 2025 2600 1725 
Q 2800 1425 2800 1075 
z
M 2400 3275 
Q 2400 3625 2200 3887 
Q 2000 4150 1575 4150 
Q 1100 4150 900 3900 
Q 700 3650 700 3375 
Q 700 3100 987 2837 
Q 1275 2575 1800 2375 
Q 2100 2525 2250 2750 
Q 2400 2975 2400 3275 
z
" transform="scale(0.015625)"/>
       </defs>
       <use xlink:href="#FangSong-38"/>
       <use xlink:href="#FangSong-30" x="50"/>
      </g>
     </g>
    </g>
    <g id="xtick_6">
     <g id="line2d_6">
      <g>
       <use xlink:href="#me781f02e8e" x="400.799157" y="307.584" style="stroke: #000000; stroke-width: 0.8"/>
      </g>
     </g>
     <g id="text_6">
      <!-- 100 -->
      <g transform="translate(393.299157 321.576187)scale(0.1 -0.1)">
       <defs>
        <path id="FangSong-31" d="M 1800 4350 
L 1800 550 
Q 1800 350 1925 250 
Q 2050 150 2275 150 
L 2525 150 
L 2525 0 
L 700 0 
L 700 150 
L 925 150 
Q 1175 150 1287 250 
Q 1400 350 1400 550 
L 1400 3575 
Q 1400 3675 1337 3737 
Q 1275 3800 1150 3800 
L 700 3800 
L 700 3950 
L 925 3950 
Q 1225 3950 1412 4050 
Q 1600 4150 1700 4350 
L 1800 4350 
z
" transform="scale(0.015625)"/>
       </defs>
       <use xlink:href="#FangSong-31"/>
       <use xlink:href="#FangSong-30" x="50"/>
       <use xlink:href="#FangSong-30" x="100"/>
      </g>
     </g>
    </g>
    <g id="text_7">
     <!-- 响应比 -->
     <g transform="translate(221.16 334.873062)scale(0.1 -0.1)">
      <defs>
       <path id="FangSong-54cd" d="M 2700 -200 
Q 2725 -650 2625 -525 
L 2375 -125 
Q 2500 50 2475 350 
L 2500 3200 
Q 2500 3625 2425 4100 
L 2500 4125 
L 2725 3575 
L 3300 3625 
Q 3550 4225 3675 4637 
Q 3800 5050 3700 5150 
L 3775 5200 
L 4125 4750 
Q 4050 4800 3900 4512 
Q 3750 4225 3500 3650 
L 5275 3850 
L 5425 4125 
L 5725 3850 
L 5575 3650 
Q 5500 -175 5175 -675 
Q 4800 -275 4175 250 
L 4225 350 
L 5050 -175 
Q 5275 525 5325 3625 
L 2725 3325 
L 2700 -200 
z
M 725 3250 
Q 725 3575 625 3925 
L 725 3975 
L 950 3525 
L 1750 3650 
L 1875 3875 
L 2175 3650 
L 2000 3450 
L 1925 2175 
L 2125 1950 
L 1000 1800 
Q 1025 1275 900 1350 
L 650 1750 
Q 775 1850 750 2150 
L 725 3250 
z
M 3550 1250 
Q 3575 950 3500 875 
L 3225 1200 
Q 3300 1350 3300 1525 
L 3275 2325 
Q 3275 2700 3200 2875 
L 3275 2925 
L 3500 2625 
L 4350 2725 
L 4500 2925 
L 4775 2675 
L 4600 2475 
L 4525 1575 
L 4750 1400 
L 3550 1250 
z
M 975 3275 
L 1000 2050 
L 1675 2150 
L 1775 3425 
L 975 3275 
z
M 4350 2475 
L 3500 2375 
L 3525 1500 
L 4275 1575 
L 4350 2475 
z
" transform="scale(0.015625)"/>
       <path id="FangSong-5e94" d="M 1625 4400 
L 1800 3800 
Q 5075 4050 5200 4175 
L 5525 3850 
Q 5200 3900 1825 3550 
Q 1775 2450 1675 1825 
Q 1575 1200 1312 612 
Q 1050 25 500 -600 
L 425 -525 
Q 850 50 1100 675 
Q 1350 1300 1425 1862 
Q 1500 2425 1550 3150 
Q 1600 3875 1550 4375 
L 1625 4400 
z
M 4725 3175 
L 5100 2725 
Q 5000 2800 4750 2112 
Q 4500 1425 4000 150 
Q 5425 225 5400 275 
L 5725 0 
Q 5425 0 3687 -112 
Q 1950 -225 1725 -275 
L 1350 25 
Q 2150 0 3800 125 
Q 4300 1500 4525 2200 
Q 4750 2900 4650 3125 
L 4725 3175 
z
M 2900 1150 
Q 2800 975 2650 725 
Q 2450 1625 2175 2550 
L 2275 2575 
Q 2600 1850 2900 1150 
z
M 3775 1550 
Q 3675 1350 3525 1150 
Q 3475 1600 3075 3050 
L 3150 3075 
Q 3475 2300 3775 1550 
z
M 3500 4100 
Q 3275 4675 3000 5225 
L 3075 5275 
Q 3375 4900 3700 4525 
Q 3600 4325 3500 4100 
z
" transform="scale(0.015625)"/>
       <path id="FangSong-6bd4" d="M 3500 2125 
Q 3925 2425 4487 2975 
Q 5050 3525 4950 3750 
L 5025 3775 
L 5250 3225 
Q 5175 3250 4875 3000 
Q 4575 2750 4287 2525 
Q 4000 2300 3500 1900 
L 3500 575 
Q 3475 -100 4150 -100 
L 4800 -100 
Q 5275 -100 5375 12 
Q 5475 125 5450 1350 
L 5575 1350 
Q 5600 825 5637 412 
Q 5675 0 5800 -175 
Q 5375 -325 4800 -325 
L 4150 -325 
Q 3225 -350 3275 550 
L 3275 4300 
Q 3275 4875 3150 5150 
L 3200 5200 
L 3625 4850 
Q 3475 4825 3500 4250 
L 3500 2125 
z
M 1500 2575 
Q 1900 2625 2337 2712 
Q 2775 2800 2800 2850 
L 3075 2600 
Q 2875 2575 2350 2475 
Q 1825 2375 1775 2325 
L 1500 2525 
L 1500 150 
L 2925 1075 
L 2975 1025 
Q 1550 -75 1375 -350 
L 1200 0 
Q 1275 75 1275 350 
L 1275 3925 
Q 1275 4475 1150 4750 
L 1200 4800 
L 1625 4400 
Q 1475 4375 1500 3925 
L 1500 2575 
z
" transform="scale(0.015625)"/>
      </defs>
      <use xlink:href="#FangSong-54cd"/>
      <use xlink:href="#FangSong-5e94" x="100"/>
      <use xlink:href="#FangSong-6bd4" x="200"/>
     </g>
    </g>
   </g>
   <g id="matplotlib.axis_2">
    <g id="ytick_1">
     <g id="line2d_7">
      <defs>
       <path id="m1c931c9665" d="M 0 0 
L -3.5 0 
" style="stroke: #000000; stroke-width: 0.8"/>
      </defs>
      <g>
       <use xlink:href="#m1c931c9665" x="57.6" y="295.488" style="stroke: #000000; stroke-width: 0.8"/>
      </g>
     </g>
     <g id="text_8">
      <!-- 0% -->
      <g transform="translate(40.6 298.984094)scale(0.1 -0.1)">
       <defs>
        <path id="FangSong-25" d="M 725 4150 
Q 575 4150 475 3950 
Q 375 3750 375 3200 
Q 375 2575 487 2387 
Q 600 2200 725 2200 
Q 900 2200 987 2425 
Q 1075 2650 1075 3200 
Q 1075 3650 1012 3900 
Q 950 4150 725 4150 
z
M 1400 3175 
Q 1400 2725 1250 2387 
Q 1100 2050 725 2050 
Q 425 2050 237 2350 
Q 50 2650 50 3175 
Q 50 3725 250 4025 
Q 450 4325 725 4325 
Q 1025 4325 1212 4012 
Q 1400 3700 1400 3175 
z
M 2700 1100 
Q 2700 1525 2625 1800 
Q 2550 2075 2350 2075 
Q 2200 2075 2100 1837 
Q 2000 1600 2000 1100 
Q 2000 475 2112 300 
Q 2225 125 2350 125 
Q 2525 125 2612 337 
Q 2700 550 2700 1100 
z
M 3025 1075 
Q 3025 575 2850 262 
Q 2675 -50 2350 -50 
Q 2075 -50 1875 262 
Q 1675 575 1675 1075 
Q 1675 1625 1875 1937 
Q 2075 2250 2350 2250 
Q 2650 2250 2837 1925 
Q 3025 1600 3025 1075 
z
M 2500 4250 
L 700 -50 
L 550 25 
L 2325 4325 
L 2500 4250 
z
" transform="scale(0.015625)"/>
       </defs>
       <use xlink:href="#FangSong-30"/>
       <use xlink:href="#FangSong-25" x="50"/>
      </g>
     </g>
    </g>
    <g id="ytick_2">
     <g id="line2d_8">
      <g>
       <use xlink:href="#m1c931c9665" x="57.6" y="247.104" style="stroke: #000000; stroke-width: 0.8"/>
      </g>
     </g>
     <g id="text_9">
      <!-- 20% -->
      <g transform="translate(35.6 250.600094)scale(0.1 -0.1)">
       <use xlink:href="#FangSong-32"/>
       <use xlink:href="#FangSong-30" x="50"/>
       <use xlink:href="#FangSong-25" x="100"/>
      </g>
     </g>
    </g>
    <g id="ytick_3">
     <g id="line2d_9">
      <g>
       <use xlink:href="#m1c931c9665" x="57.6" y="198.72" style="stroke: #000000; stroke-width: 0.8"/>
      </g>
     </g>
     <g id="text_10">
      <!-- 40% -->
      <g transform="translate(35.6 202.216094)scale(0.1 -0.1)">
       <use xlink:href="#FangSong-34"/>
       <use xlink:href="#FangSong-30" x="50"/>
       <use xlink:href="#FangSong-25" x="100"/>
      </g>
     </g>
    </g>
    <g id="ytick_4">
     <g id="line2d_10">
      <g>
       <use xlink:href="#m1c931c9665" x="57.6" y="150.336" style="stroke: #000000; stroke-width: 0.8"/>
      </g>
     </g>
     <g id="text_11">
      <!-- 60% -->
      <g transform="translate(35.6 153.832094)scale(0.1 -0.1)">
       <use xlink:href="#FangSong-36"/>
       <use xlink:href="#FangSong-30" x="50"/>
       <use xlink:href="#FangSong-25" x="100"/>
      </g>
     </g>
    </g>
    <g id="ytick_5">
     <g id="line2d_11">
      <g>
       <use xlink:href="#m1c931c9665" x="57.6" y="101.952" style="stroke: #000000; stroke-width: 0.8"/>
      </g>
     </g>
     <g id="text_12">
      <!-- 80% -->
      <g transform="translate(35.6 105.448094)scale(0.1 -0.1)">
       <use xlink:href="#FangSong-38"/>
       <use xlink:href="#FangSong-30" x="50"/>
       <use xlink:href="#FangSong-25" x="100"/>
      </g>
     </g>
    </g>
    <g id="ytick_6">
     <g id="line2d_12">
      <g>
       <use xlink:href="#m1c931c9665" x="57.6" y="53.568" style="stroke: #000000; stroke-width: 0.8"/>
      </g>
     </g>
     <g id="text_13">
      <!-- 100% -->
      <g transform="translate(30.6 57.064094)scale(0.1 -0.1)">
       <use xlink:href="#FangSong-31"/>
       <use xlink:href="#FangSong-30" x="50"/>
       <use xlink:href="#FangSong-30" x="100"/>
       <use xlink:href="#FangSong-25" x="150"/>
      </g>
     </g>
    </g>
    <g id="text_14">
     <!-- 累计完成比例 -->
     <g transform="translate(25.154688 204.528)rotate(-90)scale(0.1 -0.1)">
      <defs>
       <path id="FangSong-7d2f" d="M 4525 4975 
L 4700 5225 
L 5000 4950 
L 4825 4775 
L 4625 3550 
L 4850 3300 
L 3175 3150 
L 3375 2975 
Q 3200 2925 2862 2725 
Q 2525 2525 2075 2275 
L 3475 2500 
Q 3750 2675 3900 2800 
Q 4050 2925 4100 3075 
L 4175 3100 
L 4325 2700 
Q 4200 2675 3500 2237 
Q 2800 1800 2275 1550 
L 4375 1825 
L 3900 2175 
L 4000 2275 
Q 4625 1900 4950 1725 
Q 4975 1475 4925 1225 
Q 4800 1375 4500 1675 
L 3250 1475 
L 3525 1300 
Q 3375 1200 3375 875 
L 3375 25 
Q 3375 -325 3225 -625 
Q 2975 -325 2400 150 
L 2450 250 
L 3050 -75 
Q 3150 -125 3150 0 
L 3150 925 
Q 3150 1300 3125 1450 
Q 1875 1275 1575 1175 
L 1325 1425 
L 1850 1550 
Q 2175 1700 3250 2300 
Q 2075 2100 1875 2000 
L 1575 2250 
L 1800 2300 
Q 2150 2475 3025 3125 
L 2000 3025 
Q 2000 2675 1950 2700 
Q 1900 2725 1650 3025 
Q 1725 3250 1725 3425 
L 1650 4400 
Q 1625 4675 1525 4950 
L 1625 5000 
L 1875 4675 
L 4525 4975 
z
M 3150 3375 
L 3150 3875 
Q 2525 3800 2400 3725 
L 2100 3975 
Q 2500 3975 3150 4075 
L 3150 4600 
L 1900 4450 
L 1975 3250 
L 3150 3375 
z
M 3375 4100 
Q 3950 4175 4025 4225 
L 4275 4000 
Q 3950 3975 3375 3900 
L 3375 3400 
L 4400 3500 
L 4575 4750 
L 3375 4600 
L 3375 4100 
z
M 5450 -75 
Q 4975 325 3875 1025 
L 3950 1125 
Q 4850 700 5350 500 
Q 5425 250 5450 -75 
z
M 800 -250 
Q 1350 75 1825 500 
Q 2300 925 2325 1125 
L 2400 1150 
L 2550 725 
Q 2425 700 2075 425 
Q 1725 150 875 -350 
L 800 -250 
z
" transform="scale(0.015625)"/>
       <path id="FangSong-8ba1" d="M 4075 4200 
Q 4100 4825 3900 5100 
L 3975 5150 
L 4450 4725 
Q 4275 4600 4300 4200 
L 4275 3000 
Q 5525 3200 5575 3250 
L 5950 2950 
Q 5725 2975 4275 2800 
L 4250 -425 
Q 4250 -700 4150 -575 
L 3875 -150 
Q 4050 50 4025 300 
L 4050 2750 
Q 2975 2625 2900 2575 
L 2525 2825 
Q 2850 2825 4050 2975 
L 4075 4200 
z
M 1775 3250 
L 2100 2950 
L 1900 2750 
L 1875 550 
L 2825 1250 
L 2875 1175 
Q 1875 250 1750 -25 
L 1525 275 
Q 1625 375 1650 625 
L 1675 2775 
Q 900 2625 750 2550 
L 425 2800 
Q 850 2825 1650 3000 
L 1775 3250 
z
M 2025 3800 
Q 1825 4300 1325 4950 
L 1375 5025 
Q 1925 4575 2175 4300 
Q 2125 4000 2025 3800 
z
" transform="scale(0.015625)"/>
       <path id="FangSong-5b8c" d="M 5375 2050 
Q 4925 2050 3550 1950 
L 3850 1750 
Q 3725 1600 3700 1375 
L 3675 275 
Q 3650 -125 4075 -175 
L 4925 -175 
Q 5300 -150 5312 62 
Q 5325 275 5325 1025 
L 5425 1025 
Q 5450 750 5475 337 
Q 5500 -75 5700 -275 
Q 5400 -375 5000 -400 
L 4075 -400 
Q 3425 -350 3425 150 
L 3475 1450 
Q 3475 1775 3425 1925 
L 2675 1850 
L 2875 1650 
Q 2750 1550 2600 1200 
Q 2450 850 2025 312 
Q 1600 -225 600 -675 
L 550 -575 
Q 1525 -100 1987 625 
Q 2450 1350 2525 1850 
Q 1550 1775 1500 1725 
L 1150 2025 
Q 1625 2025 3212 2150 
Q 4800 2275 5000 2350 
L 5375 2050 
z
M 1650 3650 
Q 1550 3125 1325 2875 
L 1150 3250 
Q 1450 3425 1575 4400 
L 1675 4400 
L 1675 3900 
L 5025 4150 
L 5175 4400 
L 5525 4075 
Q 5375 4050 4725 3250 
L 4650 3325 
L 4975 3900 
L 1650 3650 
z
M 4475 2975 
Q 4225 2975 3412 2875 
Q 2600 2775 2400 2725 
L 2050 2975 
Q 2575 2975 3200 3075 
Q 3825 3175 4150 3225 
L 4475 2975 
z
M 3550 4575 
Q 3475 4350 3300 4150 
Q 3225 4475 2900 5200 
L 2975 5250 
Q 3350 4825 3550 4575 
z
" transform="scale(0.015625)"/>
       <path id="FangSong-6210" d="M 5575 975 
Q 5600 -150 5750 -625 
Q 4650 -225 4000 1075 
Q 3625 650 2975 225 
L 2925 325 
Q 3525 825 3900 1300 
Q 3600 2275 3500 3300 
L 1875 3125 
Q 1875 2625 1825 2100 
L 2725 2250 
L 2875 2475 
L 3175 2225 
L 3000 2050 
Q 2850 475 2575 -125 
Q 2225 400 1825 775 
L 1875 850 
L 2475 400 
Q 2650 875 2750 2000 
L 1825 1850 
Q 1675 250 600 -650 
L 525 -600 
Q 1250 250 1425 987 
Q 1600 1725 1625 2612 
Q 1650 3500 1550 3800 
L 1625 3825 
L 1850 3350 
L 3450 3525 
Q 3400 4150 3375 4562 
Q 3350 4975 3225 5200 
L 3275 5225 
L 3725 4900 
Q 3625 4925 3637 4575 
Q 3650 4225 3675 3550 
Q 4900 3700 5050 3775 
L 5325 3475 
Q 4775 3475 3725 3325 
Q 3775 2425 4075 1525 
Q 4500 2025 4687 2325 
Q 4875 2625 4800 2850 
L 4875 2875 
L 5125 2325 
Q 5075 2400 4850 2125 
Q 4625 1850 4150 1275 
Q 4625 225 5425 -125 
L 5475 975 
L 5575 975 
z
M 4100 5000 
Q 4525 4700 4875 4450 
Q 4825 4250 4750 4025 
Q 4400 4525 4025 4950 
L 4100 5000 
z
" transform="scale(0.015625)"/>
       <path id="FangSong-4f8b" d="M 3050 2000 
Q 3025 1800 2975 1600 
Q 2775 1900 2525 2250 
Q 2300 1875 2025 1550 
L 1925 1625 
Q 2675 2725 2975 3975 
Q 2475 3925 2375 3875 
L 2050 4125 
Q 2375 4125 3162 4225 
Q 3950 4325 4100 4450 
L 4350 4125 
Q 4050 4150 3100 3975 
L 3300 3700 
Q 3200 3675 3125 3525 
Q 3050 3375 2925 3050 
L 3625 3150 
L 3775 3350 
L 4050 3075 
L 3875 2900 
Q 3300 825 1850 -225 
L 1800 -100 
Q 3100 975 3625 2900 
Q 3150 2825 3025 2775 
L 2875 2925 
Q 2775 2675 2575 2350 
Q 2900 2125 3050 2000 
z
M 1275 -150 
Q 1425 25 1400 225 
L 1450 3425 
Q 1025 2800 475 2225 
L 400 2325 
Q 875 2850 1450 3887 
Q 2025 4925 1925 5150 
L 2000 5175 
L 2250 4700 
Q 2200 4725 2062 4475 
Q 1925 4225 1675 3800 
L 1625 -325 
Q 1650 -675 1525 -600 
L 1275 -150 
z
M 5475 250 
Q 5475 -300 5300 -650 
Q 4900 -100 4300 375 
L 4350 475 
L 5200 -75 
Q 5250 250 5250 575 
L 5250 4350 
Q 5275 4950 5100 5150 
L 5175 5225 
L 5600 4850 
Q 5450 4775 5475 4325 
L 5475 250 
z
M 4300 1525 
Q 4400 1650 4400 1900 
L 4400 3075 
Q 4425 3525 4300 3750 
L 4350 3800 
L 4725 3450 
Q 4600 3350 4625 3025 
L 4625 1375 
Q 4625 1050 4550 1125 
L 4300 1525 
z
" transform="scale(0.015625)"/>
      </defs>
      <use xlink:href="#FangSong-7d2f"/>
      <use xlink:href="#FangSong-8ba1" x="100"/>
      <use xlink:href="#FangSong-5b8c" x="200"/>
      <use xlink:href="#FangSong-6210" x="300"/>
      <use xlink:href="#FangSong-6bd4" x="400"/>
      <use xlink:href="#FangSong-4f8b" x="500"/>
     </g>
    </g>
   </g>
   <g id="line2d_13">
    <path d="M 73.832727 295.488 
L 74.162996 295.00416 
L 74.493266 294.2784 
L 74.823535 292.82688 
L 75.484073 285.56928 
L 76.144611 273.7152 
L 76.47488 264.28032 
L 77.795957 238.6368 
L 78.456495 223.39584 
L 80.768379 169.44768 
L 81.098648 165.33504 
L 81.428917 159.77088 
L 82.419724 150.09408 
L 83.080263 141.38496 
L 84.07107 135.8208 
L 84.401339 134.6112 
L 84.731608 134.12736 
L 85.392146 132.192 
L 86.052685 132.192 
L 87.043492 131.46624 
L 89.025107 131.46624 
L 89.355376 131.22432 
L 89.685645 131.22432 
L 90.015914 130.9824 
L 91.006722 130.9824 
L 91.336991 130.74048 
L 92.658067 130.74048 
L 92.988336 130.49856 
L 93.318605 130.01472 
L 93.648875 130.01472 
L 93.979144 129.53088 
L 94.639682 129.53088 
L 94.969951 129.28896 
L 95.30022 129.28896 
L 95.960758 128.80512 
L 96.291027 128.80512 
L 96.621297 128.5632 
L 96.951566 128.5632 
L 97.281835 128.32128 
L 97.942373 128.32128 
L 98.272642 127.83744 
L 99.593719 127.83744 
L 99.923988 127.59552 
L 100.254257 127.11168 
L 100.584526 126.38592 
L 101.575333 125.66016 
L 102.235872 124.69248 
L 102.566141 124.69248 
L 103.226679 124.20864 
L 103.887217 124.20864 
L 104.217486 123.96672 
L 104.547755 123.96672 
L 105.208294 123.48288 
L 105.538563 123.48288 
L 105.868832 123.24096 
L 106.199101 123.24096 
L 106.52937 122.75712 
L 107.520178 122.75712 
L 108.510985 122.03136 
L 108.841254 122.03136 
L 109.171523 121.78944 
L 110.4926 121.78944 
L 110.822869 121.3056 
L 111.483407 120.82176 
L 112.804483 120.82176 
L 113.134753 120.57984 
L 113.795291 120.57984 
L 114.12556 120.096 
L 114.786098 120.096 
L 115.116367 119.85408 
L 115.776906 119.85408 
L 117.097982 118.8864 
L 119.079597 118.8864 
L 119.409866 118.40256 
L 120.070404 118.40256 
L 120.400673 118.16064 
L 121.391481 118.16064 
L 122.052019 117.6768 
L 123.373095 117.6768 
L 123.703364 117.43488 
L 124.033634 117.43488 
L 124.363903 116.70912 
L 124.694172 116.70912 
L 125.35471 116.22528 
L 126.015248 116.22528 
L 127.006056 115.49952 
L 127.666594 115.49952 
L 127.996863 115.2576 
L 128.657401 115.2576 
L 128.98767 115.01568 
L 129.31794 115.01568 
L 129.648209 114.77376 
L 131.299554 114.77376 
L 131.629823 114.53184 
L 133.281169 114.53184 
L 133.611438 114.048 
L 134.271976 113.56416 
L 134.602245 113.08032 
L 134.932515 113.08032 
L 135.593053 112.59648 
L 135.923322 112.11264 
L 136.58386 112.11264 
L 136.914129 111.87072 
L 137.574668 111.87072 
L 137.904937 111.6288 
L 139.886551 111.6288 
L 140.54709 111.14496 
L 141.207628 111.14496 
L 141.537897 110.90304 
L 142.198435 110.90304 
L 142.528704 110.66112 
L 145.170857 110.66112 
L 145.501126 110.4192 
L 146.491934 110.4192 
L 147.152472 109.93536 
L 147.81301 109.93536 
L 148.143279 109.69344 
L 148.473549 109.69344 
L 148.803818 109.45152 
L 149.464356 109.45152 
L 149.794625 108.96768 
L 150.785432 108.96768 
L 151.115701 108.72576 
L 153.757854 108.72576 
L 154.088124 108.24192 
L 155.078931 108.24192 
L 155.4092 108 
L 156.069738 108 
L 156.730277 107.51616 
L 158.051353 107.51616 
L 158.381622 107.27424 
L 160.363237 107.27424 
L 160.693506 107.03232 
L 162.014582 107.03232 
L 162.344852 106.7904 
L 163.00539 106.7904 
L 163.335659 106.54848 
L 164.326466 106.54848 
L 164.656735 106.06464 
L 165.317274 106.06464 
L 165.647543 105.82272 
L 166.308081 105.82272 
L 166.63835 105.5808 
L 167.959427 105.5808 
L 168.289696 105.33888 
L 170.27131 105.33888 
L 170.60158 105.09696 
L 171.262118 105.09696 
L 171.592387 104.85504 
L 173.574002 104.85504 
L 173.904271 104.3712 
L 175.555616 104.3712 
L 175.885886 104.12928 
L 176.216155 104.12928 
L 176.546424 103.88736 
L 177.206962 103.88736 
L 177.537231 103.64544 
L 178.197769 103.64544 
L 178.528038 103.40352 
L 179.518846 103.40352 
L 179.849115 103.1616 
L 181.500461 103.1616 
L 181.83073 102.91968 
L 182.491268 102.91968 
L 183.151806 102.43584 
L 184.803152 102.43584 
L 185.133421 102.19392 
L 185.793959 102.19392 
L 186.124228 101.952 
L 187.445305 101.952 
L 187.775574 101.71008 
L 188.105843 101.71008 
L 188.436112 101.46816 
L 189.09665 101.46816 
L 189.426919 101.22624 
L 189.757189 101.22624 
L 190.087458 100.98432 
L 191.408534 100.98432 
L 191.738803 100.7424 
L 193.720418 100.7424 
L 194.050687 100.50048 
L 195.702033 100.50048 
L 196.032302 100.25856 
L 196.69284 100.25856 
L 197.023109 100.01664 
L 197.353378 100.01664 
L 197.683647 99.77472 
L 199.004724 99.77472 
L 199.334993 99.5328 
L 201.977146 99.5328 
L 202.307415 99.29088 
L 202.967953 99.29088 
L 203.628492 98.80704 
L 204.619299 98.80704 
L 204.949568 98.56512 
L 206.270645 98.56512 
L 206.600914 98.3232 
L 207.92199 98.3232 
L 208.252259 98.08128 
L 208.582528 98.08128 
L 208.912798 97.83936 
L 209.903605 97.83936 
L 210.233874 97.59744 
L 212.215489 97.59744 
L 212.545758 97.35552 
L 213.536565 97.35552 
L 213.866834 97.1136 
L 214.857642 97.1136 
L 215.51818 96.62976 
L 216.508987 96.62976 
L 216.839256 96.38784 
L 218.160333 96.38784 
L 218.490602 96.14592 
L 219.15114 96.14592 
L 219.481409 95.904 
L 221.132755 95.904 
L 221.463024 95.66208 
L 222.123562 95.66208 
L 222.453831 95.42016 
L 223.774908 95.42016 
L 224.105177 95.17824 
L 226.086792 95.17824 
L 226.417061 94.93632 
L 226.74733 94.93632 
L 227.077599 94.6944 
L 227.738137 94.6944 
L 228.068407 94.45248 
L 228.728945 94.45248 
L 229.059214 94.21056 
L 232.361905 94.21056 
L 232.692174 93.96864 
L 233.352712 93.96864 
L 233.682982 93.72672 
L 234.34352 93.72672 
L 235.004058 93.24288 
L 236.325135 93.24288 
L 236.655404 93.00096 
L 238.306749 93.00096 
L 238.637018 92.75904 
L 238.967288 92.75904 
L 239.297557 92.51712 
L 239.627826 92.51712 
L 239.958095 92.2752 
L 241.93971 92.2752 
L 243.260786 91.30752 
L 245.242401 91.30752 
L 245.57267 91.0656 
L 247.224016 91.0656 
L 247.554285 90.58176 
L 250.196438 90.58176 
L 250.526707 90.33984 
L 252.838591 90.33984 
L 253.16886 90.09792 
L 253.829398 90.09792 
L 254.159667 89.61408 
L 254.489936 89.37216 
L 256.141282 89.37216 
L 256.471551 89.13024 
L 258.122897 89.13024 
L 258.453166 88.88832 
L 259.774242 88.88832 
L 260.104511 88.6464 
L 261.425588 88.6464 
L 261.755857 88.40448 
L 262.746664 88.40448 
L 263.407202 87.92064 
L 265.058548 87.92064 
L 265.388817 87.67872 
L 266.049355 87.67872 
L 266.379625 87.4368 
L 269.021777 87.4368 
L 269.352047 87.19488 
L 271.66393 87.19488 
L 272.324469 86.71104 
L 272.985007 86.71104 
L 273.315276 86.46912 
L 275.296891 86.46912 
L 275.62716 86.2272 
L 276.617967 86.2272 
L 276.948236 85.98528 
L 279.590389 85.98528 
L 280.250928 85.50144 
L 283.553619 85.50144 
L 284.214157 85.0176 
L 286.85631 85.0176 
L 287.186579 84.77568 
L 287.847117 84.77568 
L 288.177386 84.53376 
L 289.168194 84.53376 
L 289.828732 84.04992 
L 290.48927 84.04992 
L 291.149809 83.56608 
L 294.4525 83.56608 
L 295.113038 83.08224 
L 295.773576 83.08224 
L 296.103845 82.84032 
L 298.08546 82.84032 
L 298.415729 82.5984 
L 299.736806 82.5984 
L 300.397344 82.11456 
L 301.71842 82.11456 
L 302.04869 81.87264 
L 303.369766 81.87264 
L 303.700035 81.63072 
L 305.68165 81.63072 
L 306.011919 81.3888 
L 306.672457 81.3888 
L 307.002726 81.14688 
L 309.644879 81.14688 
L 309.975148 80.90496 
L 312.287032 80.90496 
L 312.617301 80.66304 
L 313.608109 80.66304 
L 313.938378 80.42112 
L 315.589723 80.42112 
L 315.919993 80.1792 
L 316.250262 80.1792 
L 316.580531 79.69536 
L 318.231876 79.69536 
L 318.562146 79.45344 
L 318.892415 79.45344 
L 319.222684 78.72768 
L 319.883222 78.72768 
L 320.213491 78.48576 
L 320.874029 78.48576 
L 321.534568 78.00192 
L 322.525375 78.00192 
L 322.855644 77.76 
L 323.846451 77.76 
L 324.176721 77.51808 
L 324.837259 77.51808 
L 325.497797 77.03424 
L 325.828066 77.03424 
L 326.158335 76.79232 
L 327.479412 76.79232 
L 328.470219 76.06656 
L 329.130757 76.06656 
L 329.461027 75.82464 
L 331.112372 75.82464 
L 331.442641 75.3408 
L 331.77291 75.3408 
L 332.10318 75.09888 
L 333.093987 75.09888 
L 333.754525 74.61504 
L 334.084794 74.61504 
L 334.415063 74.37312 
L 335.075602 74.37312 
L 335.405871 74.1312 
L 336.066409 74.1312 
L 336.396678 73.88928 
L 336.726947 73.88928 
L 337.057216 73.64736 
L 338.048024 73.64736 
L 338.378293 73.16352 
L 339.038831 72.67968 
L 340.029638 72.67968 
L 340.359908 72.19584 
L 340.690177 71.95392 
L 341.020446 71.95392 
L 341.350715 71.712 
L 342.341522 71.712 
L 342.671791 71.22816 
L 343.00206 71.22816 
L 343.662599 70.74432 
L 344.323137 70.74432 
L 344.653406 70.5024 
L 345.313944 70.5024 
L 345.644213 70.26048 
L 346.96529 70.26048 
L 347.295559 70.01856 
L 347.625828 70.01856 
L 347.956097 69.77664 
L 349.277174 69.77664 
L 349.607443 69.2928 
L 350.267981 69.2928 
L 351.258788 68.56704 
L 351.919327 68.56704 
L 352.249596 68.32512 
L 352.910134 68.32512 
L 353.240403 68.0832 
L 353.900941 68.0832 
L 354.56148 67.59936 
L 355.222018 67.59936 
L 355.552287 67.35744 
L 356.543094 67.35744 
L 356.873364 66.8736 
L 358.19444 66.8736 
L 358.854978 66.38976 
L 359.515517 66.38976 
L 360.506324 65.664 
L 361.166862 65.664 
L 361.8274 65.18016 
L 362.818208 65.18016 
L 363.148477 64.69632 
L 364.139284 64.69632 
L 364.799822 64.21248 
L 365.460361 64.21248 
L 365.79063 63.72864 
L 366.120899 63.72864 
L 366.781437 63.2448 
L 367.772245 63.2448 
L 368.102514 63.00288 
L 368.432783 63.00288 
L 368.763052 62.76096 
L 369.093321 62.76096 
L 369.42359 62.51904 
L 370.414397 62.51904 
L 370.744667 62.27712 
L 371.405205 62.27712 
L 372.065743 61.79328 
L 372.396012 61.79328 
L 373.05655 61.30944 
L 373.717089 61.30944 
L 374.377627 60.8256 
L 375.038165 60.8256 
L 375.368434 60.58368 
L 375.698703 60.58368 
L 376.028973 60.34176 
L 376.689511 60.34176 
L 377.01978 60.09984 
L 378.340856 60.09984 
L 378.671125 59.85792 
L 380.983009 59.85792 
L 381.313278 59.616 
L 381.643548 59.616 
L 381.973817 59.37408 
L 382.634355 59.37408 
L 382.964624 59.13216 
L 383.625162 59.13216 
L 384.285701 58.64832 
L 385.606777 58.64832 
L 386.267315 58.16448 
L 386.597584 58.16448 
L 386.927854 57.68064 
L 387.918661 57.68064 
L 388.24893 57.43872 
L 388.909468 57.43872 
L 389.239737 57.1968 
L 389.570006 57.1968 
L 390.230545 56.71296 
L 391.551621 56.71296 
L 391.88189 56.47104 
L 392.212159 55.9872 
L 393.533236 55.9872 
L 393.863505 55.74528 
L 394.193774 55.74528 
L 394.524043 55.50336 
L 394.854312 55.50336 
L 395.514851 55.01952 
L 395.84512 54.53568 
L 396.175389 54.53568 
L 397.166196 53.80992 
L 398.157004 53.80992 
L 398.487273 53.568 
L 398.487273 53.568 
" clip-path="url(#p0c2e1bdff6)" style="fill: none; stroke: #ff0000; stroke-linecap: square"/>
   </g>
   <g id="line2d_14">
    <path d="M 73.832727 295.488 
L 74.493266 293.947108 
L 75.153804 283.931312 
L 76.144611 261.588382 
L 76.805149 241.55679 
L 77.465688 229.229656 
L 77.795957 221.525197 
L 78.456495 199.182268 
L 79.117033 174.528 
L 79.447302 165.28265 
L 79.777571 152.18507 
L 80.107841 149.103287 
L 80.43811 139.08749 
L 80.768379 124.449019 
L 82.089455 92.090293 
L 82.419724 89.00851 
L 83.080263 75.140484 
L 83.410532 73.599592 
L 84.07107 68.206471 
L 84.401339 65.895134 
L 84.731608 65.124688 
L 97.942373 65.124688 
L 98.272642 64.354242 
L 99.593719 64.354242 
L 100.584526 62.042904 
L 100.914795 62.042904 
L 101.245064 61.272459 
L 103.887217 61.272459 
L 104.217486 60.502013 
L 104.878025 60.502013 
L 105.208294 59.731567 
L 106.199101 59.731567 
L 106.52937 58.961121 
L 108.180716 58.961121 
L 108.510985 58.190675 
L 110.822869 58.190675 
L 111.153138 57.420229 
L 113.795291 57.420229 
L 114.12556 56.649783 
L 114.786098 56.649783 
L 115.116367 55.879338 
L 119.079597 55.879338 
L 119.409866 55.108892 
L 124.033634 55.108892 
L 124.363903 54.338446 
L 126.015248 54.338446 
L 126.345517 53.568 
L 398.487273 53.568 
L 398.487273 53.568 
" clip-path="url(#p0c2e1bdff6)" style="fill: none; stroke-dasharray: 1.85,0.8; stroke-dashoffset: 0; stroke: #008000; stroke-width: 0.5"/>
   </g>
   <g id="line2d_15">
    <path d="M 73.832727 295.488 
L 74.162996 294.19431 
L 74.493266 291.60693 
L 74.823535 291.60693 
L 75.153804 285.138481 
L 75.484073 281.257412 
L 77.135418 220.453989 
L 77.465688 204.929711 
L 78.456495 191.992813 
L 78.786764 185.524364 
L 79.117033 175.174845 
L 79.777571 148.007358 
L 80.107841 140.245219 
L 80.768379 118.252492 
L 81.098648 114.371422 
L 81.428917 107.902973 
L 82.089455 98.847144 
L 82.419724 92.378695 
L 82.749994 89.791316 
L 83.080263 84.616556 
L 83.740801 79.441797 
L 84.07107 74.267037 
L 84.731608 71.679658 
L 85.061877 69.092278 
L 85.392146 65.211209 
L 94.639682 65.211209 
L 94.969951 63.917519 
L 100.584526 63.917519 
L 100.914795 62.623829 
L 101.245064 62.623829 
L 101.575333 61.330139 
L 101.905603 61.330139 
L 102.235872 60.036449 
L 102.89641 60.036449 
L 103.226679 58.742759 
L 107.850447 58.742759 
L 108.180716 57.44907 
L 110.4926 57.44907 
L 110.822869 56.15538 
L 115.776906 56.15538 
L 116.107175 54.86169 
L 125.024441 54.86169 
L 125.35471 53.568 
L 398.487273 53.568 
L 398.487273 53.568 
" clip-path="url(#p0c2e1bdff6)" style="fill: none; stroke-dasharray: 1.85,0.8; stroke-dashoffset: 0; stroke: #0000ff; stroke-width: 0.5"/>
   </g>
   <g id="line2d_16">
    <path d="M 73.832727 295.488 
L 74.823535 295.488 
L 75.153804 294.710122 
L 78.126226 294.710122 
L 79.117033 288.4871 
L 79.447302 287.709222 
L 80.107841 283.041955 
L 80.43811 282.264077 
L 80.768379 282.264077 
L 81.098648 281.486199 
L 86.713223 281.486199 
L 87.043492 280.708322 
L 89.025107 280.708322 
L 89.355376 279.930444 
L 91.006722 279.930444 
L 91.336991 279.152566 
L 92.658067 279.152566 
L 93.318605 277.59681 
L 95.30022 277.59681 
L 95.960758 276.041055 
L 96.291027 276.041055 
L 96.621297 275.263177 
L 96.951566 275.263177 
L 97.281835 274.485299 
L 97.942373 274.485299 
L 98.272642 273.707421 
L 99.923988 273.707421 
L 100.584526 272.151666 
L 101.575333 272.151666 
L 101.905603 270.59591 
L 102.235872 269.818032 
L 102.566141 269.818032 
L 102.89641 269.040154 
L 104.547755 269.040154 
L 104.878025 268.262277 
L 105.538563 268.262277 
L 105.868832 267.484399 
L 106.199101 267.484399 
L 106.52937 266.706521 
L 107.520178 266.706521 
L 107.850447 265.928643 
L 108.841254 265.928643 
L 109.171523 265.150765 
L 110.4926 265.150765 
L 110.822869 264.372887 
L 111.153138 264.372887 
L 111.483407 263.59501 
L 112.804483 263.59501 
L 113.134753 262.817132 
L 113.795291 262.817132 
L 114.12556 262.039254 
L 116.107175 262.039254 
L 116.767713 260.483498 
L 119.079597 260.483498 
L 119.409866 259.705621 
L 120.070404 259.705621 
L 120.400673 258.927743 
L 121.391481 258.927743 
L 122.052019 257.371987 
L 123.373095 257.371987 
L 123.703364 256.594109 
L 124.033634 256.594109 
L 124.363903 255.038354 
L 124.694172 255.038354 
L 125.024441 254.260476 
L 126.345517 254.260476 
L 127.006056 252.70472 
L 127.666594 252.70472 
L 127.996863 251.926842 
L 128.657401 251.926842 
L 128.98767 251.148965 
L 129.31794 251.148965 
L 129.648209 250.371087 
L 131.299554 250.371087 
L 131.629823 249.593209 
L 133.281169 249.593209 
L 133.611438 248.037453 
L 134.271976 246.481698 
L 134.602245 244.925942 
L 134.932515 244.925942 
L 135.593053 243.370186 
L 135.923322 241.814431 
L 136.58386 241.814431 
L 136.914129 241.036553 
L 137.574668 241.036553 
L 137.904937 240.258675 
L 139.886551 240.258675 
L 140.54709 238.70292 
L 141.207628 238.70292 
L 141.537897 237.925042 
L 142.198435 237.925042 
L 142.528704 237.147164 
L 145.170857 237.147164 
L 145.501126 236.369286 
L 146.491934 236.369286 
L 147.152472 234.813531 
L 147.81301 234.813531 
L 148.143279 234.035653 
L 148.473549 234.035653 
L 148.803818 233.257775 
L 149.464356 233.257775 
L 149.794625 231.702019 
L 150.785432 231.702019 
L 151.115701 230.924141 
L 153.757854 230.924141 
L 154.088124 229.368386 
L 155.078931 229.368386 
L 155.4092 228.590508 
L 156.069738 228.590508 
L 156.730277 227.034752 
L 158.051353 227.034752 
L 158.381622 226.256875 
L 160.363237 226.256875 
L 160.693506 225.478997 
L 162.014582 225.478997 
L 162.344852 224.701119 
L 163.00539 224.701119 
L 163.335659 223.923241 
L 164.326466 223.923241 
L 164.656735 222.367486 
L 165.317274 222.367486 
L 165.647543 221.589608 
L 166.308081 221.589608 
L 166.63835 220.81173 
L 167.959427 220.81173 
L 168.289696 220.033852 
L 170.27131 220.033852 
L 170.60158 219.255974 
L 171.262118 219.255974 
L 171.592387 218.478096 
L 173.574002 218.478096 
L 173.904271 216.922341 
L 175.555616 216.922341 
L 175.885886 216.144463 
L 176.216155 216.144463 
L 176.546424 215.366585 
L 177.206962 215.366585 
L 177.537231 214.588707 
L 178.197769 214.588707 
L 178.528038 213.81083 
L 179.518846 213.81083 
L 179.849115 213.032952 
L 181.500461 213.032952 
L 181.83073 212.255074 
L 182.491268 212.255074 
L 183.151806 210.699318 
L 184.803152 210.699318 
L 185.133421 209.921441 
L 185.793959 209.921441 
L 186.124228 209.143563 
L 187.445305 209.143563 
L 187.775574 208.365685 
L 188.105843 208.365685 
L 188.436112 207.587807 
L 189.09665 207.587807 
L 189.426919 206.809929 
L 189.757189 206.809929 
L 190.087458 206.032051 
L 191.408534 206.032051 
L 191.738803 205.254174 
L 193.720418 205.254174 
L 194.050687 204.476296 
L 195.702033 204.476296 
L 196.032302 203.698418 
L 196.69284 203.698418 
L 197.023109 202.92054 
L 197.353378 202.92054 
L 197.683647 202.142662 
L 199.004724 202.142662 
L 199.334993 201.364785 
L 201.977146 201.364785 
L 202.307415 200.586907 
L 202.967953 200.586907 
L 203.628492 199.031151 
L 204.619299 199.031151 
L 204.949568 198.253273 
L 206.270645 198.253273 
L 206.600914 197.475395 
L 207.92199 197.475395 
L 208.252259 196.697518 
L 208.582528 196.697518 
L 208.912798 195.91964 
L 209.903605 195.91964 
L 210.233874 195.141762 
L 212.215489 195.141762 
L 212.545758 194.363884 
L 213.536565 194.363884 
L 213.866834 193.586006 
L 214.857642 193.586006 
L 215.51818 192.030251 
L 216.508987 192.030251 
L 216.839256 191.252373 
L 218.160333 191.252373 
L 218.490602 190.474495 
L 219.15114 190.474495 
L 219.481409 189.696617 
L 221.132755 189.696617 
L 221.463024 188.91874 
L 222.123562 188.91874 
L 222.453831 188.140862 
L 223.774908 188.140862 
L 224.105177 187.362984 
L 226.086792 187.362984 
L 226.417061 186.585106 
L 226.74733 186.585106 
L 227.077599 185.807228 
L 227.738137 185.807228 
L 228.068407 185.02935 
L 228.728945 185.02935 
L 229.059214 184.251473 
L 232.361905 184.251473 
L 232.692174 183.473595 
L 233.352712 183.473595 
L 233.682982 182.695717 
L 234.34352 182.695717 
L 235.004058 181.139961 
L 236.325135 181.139961 
L 236.655404 180.362084 
L 238.306749 180.362084 
L 238.637018 179.584206 
L 238.967288 179.584206 
L 239.297557 178.806328 
L 239.627826 178.806328 
L 239.958095 178.02845 
L 241.93971 178.02845 
L 243.260786 174.916939 
L 245.242401 174.916939 
L 245.57267 174.139061 
L 247.224016 174.139061 
L 247.554285 172.583305 
L 250.196438 172.583305 
L 250.526707 171.805428 
L 252.838591 171.805428 
L 253.16886 171.02755 
L 253.829398 171.02755 
L 254.159667 169.471794 
L 254.489936 168.693916 
L 256.141282 168.693916 
L 256.471551 167.916039 
L 258.122897 167.916039 
L 258.453166 167.138161 
L 259.774242 167.138161 
L 260.104511 166.360283 
L 261.425588 166.360283 
L 261.755857 165.582405 
L 262.746664 165.582405 
L 263.407202 164.02665 
L 265.058548 164.02665 
L 265.388817 163.248772 
L 266.049355 163.248772 
L 266.379625 162.470894 
L 269.021777 162.470894 
L 269.352047 161.693016 
L 271.66393 161.693016 
L 272.324469 160.13726 
L 272.985007 160.13726 
L 273.315276 159.359383 
L 275.296891 159.359383 
L 275.62716 158.581505 
L 276.617967 158.581505 
L 276.948236 157.803627 
L 279.590389 157.803627 
L 280.250928 156.247871 
L 283.553619 156.247871 
L 284.214157 154.692116 
L 286.85631 154.692116 
L 287.186579 153.914238 
L 287.847117 153.914238 
L 288.177386 153.13636 
L 289.168194 153.13636 
L 289.828732 151.580605 
L 290.48927 151.580605 
L 291.149809 150.024849 
L 294.4525 150.024849 
L 295.113038 148.469093 
L 295.773576 148.469093 
L 296.103845 147.691215 
L 298.08546 147.691215 
L 298.415729 146.913338 
L 299.736806 146.913338 
L 300.397344 145.357582 
L 301.71842 145.357582 
L 302.04869 144.579704 
L 303.369766 144.579704 
L 303.700035 143.801826 
L 305.68165 143.801826 
L 306.011919 143.023949 
L 306.672457 143.023949 
L 307.002726 142.246071 
L 309.644879 142.246071 
L 309.975148 141.468193 
L 312.287032 141.468193 
L 312.617301 140.690315 
L 313.608109 140.690315 
L 313.938378 139.912437 
L 315.589723 139.912437 
L 315.919993 139.134559 
L 316.250262 139.134559 
L 316.580531 137.578804 
L 318.231876 137.578804 
L 318.562146 136.800926 
L 318.892415 136.800926 
L 319.222684 134.467293 
L 319.883222 134.467293 
L 320.213491 133.689415 
L 320.874029 133.689415 
L 321.534568 132.133659 
L 322.525375 132.133659 
L 322.855644 131.355781 
L 323.846451 131.355781 
L 324.176721 130.577904 
L 324.837259 130.577904 
L 325.497797 129.022148 
L 325.828066 129.022148 
L 326.158335 128.24427 
L 327.479412 128.24427 
L 328.470219 125.910637 
L 329.130757 125.910637 
L 329.461027 125.132759 
L 331.112372 125.132759 
L 331.442641 123.577003 
L 331.77291 123.577003 
L 332.10318 122.799125 
L 333.093987 122.799125 
L 333.754525 121.24337 
L 334.084794 121.24337 
L 334.415063 120.465492 
L 335.075602 120.465492 
L 335.405871 119.687614 
L 336.066409 119.687614 
L 336.396678 118.909736 
L 336.726947 118.909736 
L 337.057216 118.131859 
L 338.048024 118.131859 
L 338.378293 116.576103 
L 339.038831 115.020347 
L 340.029638 115.020347 
L 340.359908 113.464592 
L 340.690177 112.686714 
L 341.020446 112.686714 
L 341.350715 111.908836 
L 342.341522 111.908836 
L 342.671791 110.35308 
L 343.00206 110.35308 
L 343.662599 108.797325 
L 344.323137 108.797325 
L 344.653406 108.019447 
L 345.313944 108.019447 
L 345.644213 107.241569 
L 346.96529 107.241569 
L 347.295559 106.463691 
L 347.625828 106.463691 
L 347.956097 105.685814 
L 349.277174 105.685814 
L 349.607443 104.130058 
L 350.267981 104.130058 
L 351.258788 101.796424 
L 351.919327 101.796424 
L 352.249596 101.018547 
L 352.910134 101.018547 
L 353.240403 100.240669 
L 353.900941 100.240669 
L 354.56148 98.684913 
L 355.222018 98.684913 
L 355.552287 97.907035 
L 356.543094 97.907035 
L 356.873364 96.35128 
L 358.19444 96.35128 
L 358.854978 94.795524 
L 359.515517 94.795524 
L 360.506324 92.461891 
L 361.166862 92.461891 
L 361.8274 90.906135 
L 362.818208 90.906135 
L 363.148477 89.350379 
L 364.139284 89.350379 
L 364.799822 87.794624 
L 365.460361 87.794624 
L 365.79063 86.238868 
L 366.120899 86.238868 
L 366.781437 84.683113 
L 367.772245 84.683113 
L 368.102514 83.905235 
L 368.432783 83.905235 
L 368.763052 83.127357 
L 369.093321 83.127357 
L 369.42359 82.349479 
L 370.414397 82.349479 
L 370.744667 81.571601 
L 371.405205 81.571601 
L 372.065743 80.015846 
L 372.396012 80.015846 
L 373.05655 78.46009 
L 373.717089 78.46009 
L 374.377627 76.904334 
L 375.038165 76.904334 
L 375.368434 76.126457 
L 375.698703 76.126457 
L 376.028973 75.348579 
L 376.689511 75.348579 
L 377.01978 74.570701 
L 378.340856 74.570701 
L 378.671125 73.792823 
L 380.983009 73.792823 
L 381.313278 73.014945 
L 381.643548 73.014945 
L 381.973817 72.237068 
L 382.634355 72.237068 
L 382.964624 71.45919 
L 383.625162 71.45919 
L 384.285701 69.903434 
L 385.606777 69.903434 
L 386.267315 68.347678 
L 386.597584 68.347678 
L 386.927854 66.791923 
L 387.918661 66.791923 
L 388.24893 66.014045 
L 388.909468 66.014045 
L 389.239737 65.236167 
L 389.570006 65.236167 
L 390.230545 63.680412 
L 391.551621 63.680412 
L 391.88189 62.902534 
L 392.212159 61.346778 
L 393.533236 61.346778 
L 393.863505 60.5689 
L 394.193774 60.5689 
L 394.524043 59.791023 
L 394.854312 59.791023 
L 395.514851 58.235267 
L 395.84512 56.679511 
L 396.175389 56.679511 
L 397.166196 54.345878 
L 398.157004 54.345878 
L 398.487273 53.568 
L 398.487273 53.568 
" clip-path="url(#p0c2e1bdff6)" style="fill: none; stroke-dasharray: 1.85,0.8; stroke-dashoffset: 0; stroke: #bf00bf; stroke-width: 0.5"/>
   </g>
   <g id="line2d_17">
    <path d="M 73.832727 295.488 
L 75.153804 295.488 
L 75.814342 281.333106 
L 76.144611 273.612255 
L 76.47488 258.170553 
L 76.805149 253.023319 
L 77.465688 235.008 
L 78.126226 186.109277 
L 78.456495 180.962043 
L 78.786764 173.241191 
L 79.447302 147.505021 
L 80.768379 108.900766 
L 81.098648 106.327149 
L 81.428917 97.319489 
L 81.759186 97.319489 
L 82.089455 96.032681 
L 82.419724 92.172255 
L 83.410532 71.583319 
L 84.401339 67.722894 
L 84.731608 67.722894 
L 85.061877 65.149277 
L 85.392146 63.862468 
L 86.052685 63.862468 
L 86.713223 61.288851 
L 89.685645 61.288851 
L 90.015914 60.002043 
L 92.988336 60.002043 
L 93.318605 58.715234 
L 93.648875 58.715234 
L 93.979144 56.141617 
L 100.254257 56.141617 
L 100.584526 54.854809 
L 116.767713 54.854809 
L 117.097982 53.568 
L 398.487273 53.568 
L 398.487273 53.568 
" clip-path="url(#p0c2e1bdff6)" style="fill: none; stroke-dasharray: 1.85,0.8; stroke-dashoffset: 0; stroke: #bfbf00; stroke-width: 0.5"/>
   </g>
   <g id="patch_3">
    <path d="M 57.6 307.584 
L 57.6 41.472 
" style="fill: none; stroke: #000000; stroke-width: 0.8; stroke-linejoin: miter; stroke-linecap: square"/>
   </g>
   <g id="patch_4">
    <path d="M 414.72 307.584 
L 414.72 41.472 
" style="fill: none; stroke: #000000; stroke-width: 0.8; stroke-linejoin: miter; stroke-linecap: square"/>
   </g>
   <g id="patch_5">
    <path d="M 57.6 307.584 
L 414.72 307.584 
" style="fill: none; stroke: #000000; stroke-width: 0.8; stroke-linejoin: miter; stroke-linecap: square"/>
   </g>
   <g id="patch_6">
    <path d="M 57.6 41.472 
L 414.72 41.472 
" style="fill: none; stroke: #000000; stroke-width: 0.8; stroke-linejoin: miter; stroke-linecap: square"/>
   </g>
   <g id="text_15">
    <!-- count=1000, googlenet=125, resnet50=125, squeezenetv1=75, vgg19=75 -->
    <g transform="translate(38.16 35.472)scale(0.12 -0.12)">
     <defs>
      <path id="FangSong-63" d="M 2125 2125 
Q 2125 2200 2137 2225 
Q 2150 2250 2175 2325 
Q 2200 2425 2075 2562 
Q 1950 2700 1650 2700 
Q 1275 2700 1012 2337 
Q 750 1975 750 1375 
Q 750 825 975 487 
Q 1200 150 1725 150 
Q 2075 150 2312 375 
Q 2550 600 2650 900 
L 2775 850 
Q 2675 475 2400 212 
Q 2125 -50 1650 -50 
Q 1050 -50 700 325 
Q 350 700 350 1400 
Q 350 2025 725 2437 
Q 1100 2850 1700 2850 
Q 2125 2850 2362 2625 
Q 2600 2400 2600 2175 
Q 2600 2025 2537 1962 
Q 2475 1900 2350 1900 
Q 2250 1900 2187 1962 
Q 2125 2025 2125 2125 
z
" transform="scale(0.015625)"/>
      <path id="FangSong-6f" d="M 2875 1400 
Q 2875 775 2500 362 
Q 2125 -50 1575 -50 
Q 1000 -50 637 375 
Q 275 800 275 1400 
Q 275 1950 637 2400 
Q 1000 2850 1575 2850 
Q 2175 2850 2525 2400 
Q 2875 1950 2875 1400 
z
M 675 1375 
Q 675 725 937 412 
Q 1200 100 1575 100 
Q 2000 100 2237 437 
Q 2475 775 2475 1375 
Q 2475 2025 2212 2362 
Q 1950 2700 1575 2700 
Q 1225 2700 950 2362 
Q 675 2025 675 1375 
z
" transform="scale(0.015625)"/>
      <path id="FangSong-75" d="M 1425 225 
Q 1725 225 1937 375 
Q 2150 525 2250 850 
L 2250 2425 
Q 2250 2525 2200 2587 
Q 2150 2650 2025 2650 
L 1875 2650 
L 1875 2800 
L 2025 2800 
Q 2175 2800 2300 2825 
Q 2425 2850 2550 2950 
L 2600 2950 
L 2600 500 
Q 2600 400 2662 350 
Q 2725 300 2825 300 
L 2975 300 
L 2975 150 
L 2825 150 
Q 2700 150 2575 112 
Q 2450 75 2300 0 
L 2250 0 
L 2250 525 
Q 2125 250 1875 112 
Q 1625 -25 1300 -25 
Q 900 -25 700 200 
Q 500 425 500 925 
L 500 2425 
Q 500 2525 450 2587 
Q 400 2650 275 2650 
L 125 2650 
L 125 2800 
L 275 2800 
Q 425 2800 550 2825 
Q 675 2850 800 2950 
L 850 2950 
L 850 875 
Q 850 525 1000 375 
Q 1150 225 1425 225 
z
" transform="scale(0.015625)"/>
      <path id="FangSong-6e" d="M 175 0 
L 175 150 
L 300 150 
Q 425 150 475 200 
Q 525 250 525 350 
L 525 2500 
Q 525 2575 500 2612 
Q 475 2650 400 2650 
L 200 2650 
L 200 2800 
L 375 2800 
Q 500 2800 612 2825 
Q 725 2850 825 2925 
L 875 2925 
L 875 2350 
Q 1100 2600 1325 2725 
Q 1550 2850 1800 2850 
Q 2225 2850 2425 2625 
Q 2625 2400 2625 1950 
L 2625 350 
Q 2625 250 2687 200 
Q 2750 150 2850 150 
L 2975 150 
L 2975 0 
L 1925 0 
L 1925 150 
L 2050 150 
Q 2175 150 2225 200 
Q 2275 250 2275 350 
L 2275 2025 
Q 2275 2325 2150 2487 
Q 2025 2650 1775 2650 
Q 1550 2650 1312 2500 
Q 1075 2350 875 2075 
L 875 350 
Q 875 250 937 200 
Q 1000 150 1100 150 
L 1225 150 
L 1225 0 
L 175 0 
z
" transform="scale(0.015625)"/>
      <path id="FangSong-74" d="M 1475 800 
Q 1475 450 1600 325 
Q 1725 200 1975 200 
Q 2225 200 2375 362 
Q 2525 525 2575 825 
L 2700 775 
Q 2650 425 2437 200 
Q 2225 -25 1875 -25 
Q 1500 -25 1312 200 
Q 1125 425 1125 900 
L 1125 2650 
L 375 2650 
L 375 2800 
L 575 2800 
Q 875 2800 1062 2987 
Q 1250 3175 1300 3575 
L 1325 3775 
L 1475 3775 
L 1475 2800 
L 2475 2800 
L 2475 2650 
L 1475 2650 
L 1475 800 
z
" transform="scale(0.015625)"/>
      <path id="FangSong-3d" d="M 175 2725 
L 175 2950 
L 2950 2950 
L 2950 2725 
L 175 2725 
z
M 175 1450 
L 175 1675 
L 2950 1675 
L 2950 1450 
L 175 1450 
z
" transform="scale(0.015625)"/>
      <path id="FangSong-2c" d="M 1325 75 
Q 1200 25 1100 75 
Q 1000 125 962 237 
Q 925 350 925 437 
Q 925 525 987 612 
Q 1050 700 1150 737 
Q 1250 775 1425 725 
Q 1600 675 1650 500 
Q 1700 325 1662 150 
Q 1625 -25 1525 -200 
Q 1425 -375 1312 -475 
Q 1200 -575 1025 -675 
L 950 -575 
Q 1100 -450 1187 -312 
Q 1275 -175 1325 75 
z
" transform="scale(0.015625)"/>
      <path id="FangSong-20" transform="scale(0.015625)"/>
      <path id="FangSong-67" d="M 850 1875 
Q 850 1575 1025 1362 
Q 1200 1150 1500 1150 
Q 1825 1150 1987 1337 
Q 2150 1525 2150 1875 
Q 2150 2300 1962 2487 
Q 1775 2675 1500 2675 
Q 1225 2675 1037 2487 
Q 850 2300 850 1875 
z
M 2075 525 
Q 2450 475 2625 312 
Q 2800 150 2800 -125 
Q 2800 -500 2487 -725 
Q 2175 -950 1500 -950 
Q 975 -950 650 -737 
Q 325 -525 325 -250 
Q 325 -75 450 100 
Q 575 275 850 375 
Q 700 450 612 537 
Q 525 625 525 750 
Q 525 900 625 1012 
Q 725 1125 875 1200 
Q 725 1325 612 1500 
Q 500 1675 500 1875 
Q 500 2250 762 2537 
Q 1025 2825 1500 2825 
Q 1700 2825 1887 2775 
Q 2075 2725 2200 2600 
Q 2375 2725 2512 2787 
Q 2650 2850 2750 2850 
Q 2875 2850 2925 2762 
Q 2975 2675 2975 2600 
Q 2975 2500 2937 2437 
Q 2900 2375 2800 2375 
Q 2725 2375 2675 2412 
Q 2625 2450 2600 2525 
Q 2575 2600 2487 2587 
Q 2400 2575 2300 2500 
Q 2400 2400 2450 2225 
Q 2500 2050 2500 1875 
Q 2500 1575 2262 1287 
Q 2025 1000 1500 1000 
Q 1350 1000 1225 1037 
Q 1100 1075 1025 1125 
Q 925 1075 875 1000 
Q 825 925 825 875 
Q 825 775 875 725 
Q 925 675 1025 675 
Q 1350 625 1612 587 
Q 1875 550 2075 525 
z
M 1050 325 
Q 825 225 737 87 
Q 650 -50 650 -250 
Q 650 -450 875 -625 
Q 1100 -800 1550 -800 
Q 1975 -800 2225 -662 
Q 2475 -525 2475 -250 
Q 2475 -75 2412 25 
Q 2350 125 2225 150 
Q 1975 200 1675 237 
Q 1375 275 1050 325 
z
" transform="scale(0.015625)"/>
      <path id="FangSong-6c" d="M 900 4275 
Q 1125 4275 1325 4325 
Q 1525 4375 1700 4475 
L 1750 4475 
L 1750 350 
Q 1750 250 1812 200 
Q 1875 150 1975 150 
L 2550 150 
L 2550 0 
L 600 0 
L 600 150 
L 1175 150 
Q 1300 150 1350 200 
Q 1400 250 1400 350 
L 1400 3925 
Q 1400 4025 1350 4075 
Q 1300 4125 1175 4125 
L 625 4125 
L 625 4275 
L 900 4275 
z
" transform="scale(0.015625)"/>
      <path id="FangSong-65" d="M 2375 1550 
Q 2400 2100 2187 2387 
Q 1975 2675 1625 2675 
Q 1250 2675 1012 2375 
Q 775 2075 775 1550 
L 2375 1550 
z
M 775 1400 
Q 775 725 1037 437 
Q 1300 150 1725 150 
Q 2050 150 2275 337 
Q 2500 525 2600 800 
L 2725 750 
Q 2650 475 2387 212 
Q 2125 -50 1675 -50 
Q 1100 -50 737 325 
Q 375 700 375 1400 
Q 375 2025 737 2437 
Q 1100 2850 1625 2850 
Q 2100 2850 2450 2525 
Q 2800 2200 2800 1400 
L 775 1400 
z
" transform="scale(0.015625)"/>
      <path id="FangSong-35" d="M 1700 2750 
Q 2175 2750 2475 2387 
Q 2775 2025 2775 1425 
Q 2775 750 2462 350 
Q 2150 -50 1500 -50 
Q 1050 -50 700 212 
Q 350 475 350 850 
Q 350 1000 437 1112 
Q 525 1225 675 1225 
Q 825 1225 875 1125 
Q 925 1025 925 950 
Q 925 800 850 712 
Q 775 625 775 525 
Q 775 325 1012 225 
Q 1250 125 1525 125 
Q 1925 125 2137 450 
Q 2350 775 2350 1375 
Q 2350 1875 2162 2187 
Q 1975 2500 1600 2500 
Q 1325 2500 1125 2400 
Q 925 2300 750 1975 
L 525 2000 
L 650 4275 
L 2700 4275 
L 2625 3900 
L 825 3900 
L 725 2250 
Q 975 2600 1212 2675 
Q 1450 2750 1700 2750 
z
" transform="scale(0.015625)"/>
      <path id="FangSong-72" d="M 1250 2025 
Q 1500 2425 1787 2637 
Q 2075 2850 2375 2850 
Q 2625 2850 2762 2737 
Q 2900 2625 2900 2475 
Q 2900 2350 2837 2275 
Q 2775 2200 2650 2200 
Q 2525 2200 2462 2275 
Q 2400 2350 2425 2475 
Q 2425 2550 2400 2600 
Q 2375 2650 2250 2650 
Q 2050 2650 1762 2400 
Q 1475 2150 1250 1700 
L 1250 350 
Q 1250 250 1312 200 
Q 1375 150 1475 150 
L 2025 150 
L 2025 0 
L 175 0 
L 175 150 
L 675 150 
Q 800 150 850 200 
Q 900 250 900 350 
L 900 2425 
Q 900 2525 850 2587 
Q 800 2650 675 2650 
L 200 2650 
L 200 2800 
L 400 2800 
Q 575 2800 812 2837 
Q 1050 2875 1175 2925 
L 1250 2925 
L 1250 2025 
z
" transform="scale(0.015625)"/>
      <path id="FangSong-73" d="M 600 2075 
Q 600 2450 887 2650 
Q 1175 2850 1575 2850 
Q 1800 2850 2000 2787 
Q 2200 2725 2275 2725 
Q 2350 2725 2400 2750 
Q 2450 2775 2525 2850 
L 2625 2025 
L 2475 2000 
Q 2375 2325 2137 2512 
Q 1900 2700 1600 2700 
Q 1275 2700 1087 2575 
Q 900 2450 900 2225 
Q 900 2025 987 1912 
Q 1075 1800 1300 1750 
Q 1475 1675 1737 1587 
Q 2000 1500 2225 1400 
Q 2425 1300 2562 1137 
Q 2700 975 2700 775 
Q 2700 400 2437 187 
Q 2175 -25 1675 -25 
Q 1350 -25 1187 37 
Q 1025 100 925 100 
Q 850 100 762 62 
Q 675 25 575 -25 
L 500 900 
L 650 925 
Q 725 525 975 325 
Q 1225 125 1675 125 
Q 2025 125 2212 250 
Q 2400 375 2400 625 
Q 2400 800 2300 912 
Q 2200 1025 2100 1075 
Q 1850 1175 1550 1287 
Q 1250 1400 1025 1500 
Q 800 1600 700 1750 
Q 600 1900 600 2075 
z
" transform="scale(0.015625)"/>
      <path id="FangSong-71" d="M 2250 2150 
Q 2150 2375 1975 2512 
Q 1800 2650 1550 2650 
Q 1200 2650 950 2350 
Q 700 2050 700 1325 
Q 700 700 912 437 
Q 1125 175 1450 175 
Q 1725 175 1937 300 
Q 2150 425 2250 725 
L 2250 2150 
z
M 2600 -550 
Q 2600 -675 2662 -725 
Q 2725 -775 2825 -775 
L 2975 -775 
L 2975 -925 
L 1825 -925 
L 1825 -775 
L 2025 -775 
Q 2150 -775 2200 -725 
Q 2250 -675 2250 -550 
L 2250 375 
Q 2100 175 1887 75 
Q 1675 -25 1375 -25 
Q 950 -25 625 337 
Q 300 700 300 1400 
Q 300 2075 675 2450 
Q 1050 2825 1475 2825 
Q 1750 2825 1937 2725 
Q 2125 2625 2275 2475 
L 2500 2800 
L 2600 2800 
L 2600 -550 
z
" transform="scale(0.015625)"/>
      <path id="FangSong-7a" d="M 2725 975 
L 2550 0 
L 400 0 
L 400 125 
L 2125 2650 
L 1200 2650 
Q 975 2650 825 2487 
Q 675 2325 575 1925 
L 425 1950 
L 525 2800 
L 2575 2800 
L 2575 2725 
L 825 150 
L 1775 150 
Q 2100 150 2287 350 
Q 2475 550 2575 1000 
L 2725 975 
z
" transform="scale(0.015625)"/>
      <path id="FangSong-76" d="M 1600 -25 
L 1450 -25 
L 600 2425 
Q 575 2525 500 2587 
Q 425 2650 325 2650 
L 200 2650 
L 200 2800 
L 1275 2800 
L 1275 2650 
L 1175 2650 
Q 1025 2650 987 2575 
Q 950 2500 1000 2325 
L 1600 575 
L 1650 575 
L 2250 2300 
Q 2325 2475 2262 2562 
Q 2200 2650 2050 2650 
L 2000 2650 
L 2000 2800 
L 2900 2800 
L 2900 2650 
L 2850 2650 
Q 2700 2650 2612 2562 
Q 2525 2475 2450 2300 
L 1600 -25 
z
" transform="scale(0.015625)"/>
      <path id="FangSong-37" d="M 2800 4100 
Q 2275 3250 1962 2437 
Q 1650 1625 1650 1025 
Q 1650 925 1662 737 
Q 1675 550 1675 300 
Q 1675 100 1612 25 
Q 1550 -50 1400 -50 
Q 1275 -50 1187 37 
Q 1100 125 1100 350 
Q 1100 825 1312 1525 
Q 1525 2225 2450 3900 
L 1200 3900 
Q 925 3900 762 3725 
Q 600 3550 525 3200 
L 375 3225 
L 550 4275 
L 2800 4275 
L 2800 4100 
z
" transform="scale(0.015625)"/>
      <path id="FangSong-39" d="M 675 2950 
Q 675 2400 887 2112 
Q 1100 1825 1425 1825 
Q 1800 1825 2075 2175 
Q 2350 2525 2350 2825 
Q 2350 3425 2150 3787 
Q 1950 4150 1500 4150 
Q 1075 4150 875 3812 
Q 675 3475 675 2950 
z
M 1350 1600 
Q 850 1600 550 1912 
Q 250 2225 250 2925 
Q 250 3525 575 3925 
Q 900 4325 1500 4325 
Q 2125 4325 2475 3825 
Q 2825 3325 2825 2375 
Q 2825 1325 2412 637 
Q 2000 -50 1275 -50 
Q 950 -50 712 100 
Q 475 250 475 500 
Q 475 600 537 700 
Q 600 800 750 800 
Q 900 800 950 687 
Q 1000 575 1000 425 
Q 1000 325 1025 262 
Q 1050 200 1075 175 
Q 1100 150 1162 137 
Q 1225 125 1300 125 
Q 1750 125 2025 625 
Q 2300 1125 2350 2300 
Q 2225 2000 1975 1800 
Q 1725 1600 1350 1600 
z
" transform="scale(0.015625)"/>
     </defs>
     <use xlink:href="#FangSong-63"/>
     <use xlink:href="#FangSong-6f" x="50"/>
     <use xlink:href="#FangSong-75" x="100"/>
     <use xlink:href="#FangSong-6e" x="150"/>
     <use xlink:href="#FangSong-74" x="200"/>
     <use xlink:href="#FangSong-3d" x="250"/>
     <use xlink:href="#FangSong-31" x="300"/>
     <use xlink:href="#FangSong-30" x="350"/>
     <use xlink:href="#FangSong-30" x="400"/>
     <use xlink:href="#FangSong-30" x="450"/>
     <use xlink:href="#FangSong-2c" x="500"/>
     <use xlink:href="#FangSong-20" x="550"/>
     <use xlink:href="#FangSong-67" x="600"/>
     <use xlink:href="#FangSong-6f" x="650"/>
     <use xlink:href="#FangSong-6f" x="700"/>
     <use xlink:href="#FangSong-67" x="750"/>
     <use xlink:href="#FangSong-6c" x="800"/>
     <use xlink:href="#FangSong-65" x="850"/>
     <use xlink:href="#FangSong-6e" x="900"/>
     <use xlink:href="#FangSong-65" x="950"/>
     <use xlink:href="#FangSong-74" x="1000"/>
     <use xlink:href="#FangSong-3d" x="1050"/>
     <use xlink:href="#FangSong-31" x="1100"/>
     <use xlink:href="#FangSong-32" x="1150"/>
     <use xlink:href="#FangSong-35" x="1200"/>
     <use xlink:href="#FangSong-2c" x="1250"/>
     <use xlink:href="#FangSong-20" x="1300"/>
     <use xlink:href="#FangSong-72" x="1350"/>
     <use xlink:href="#FangSong-65" x="1400"/>
     <use xlink:href="#FangSong-73" x="1450"/>
     <use xlink:href="#FangSong-6e" x="1500"/>
     <use xlink:href="#FangSong-65" x="1550"/>
     <use xlink:href="#FangSong-74" x="1600"/>
     <use xlink:href="#FangSong-35" x="1650"/>
     <use xlink:href="#FangSong-30" x="1700"/>
     <use xlink:href="#FangSong-3d" x="1750"/>
     <use xlink:href="#FangSong-31" x="1800"/>
     <use xlink:href="#FangSong-32" x="1850"/>
     <use xlink:href="#FangSong-35" x="1900"/>
     <use xlink:href="#FangSong-2c" x="1950"/>
     <use xlink:href="#FangSong-20" x="2000"/>
     <use xlink:href="#FangSong-73" x="2050"/>
     <use xlink:href="#FangSong-71" x="2100"/>
     <use xlink:href="#FangSong-75" x="2150"/>
     <use xlink:href="#FangSong-65" x="2200"/>
     <use xlink:href="#FangSong-65" x="2250"/>
     <use xlink:href="#FangSong-7a" x="2300"/>
     <use xlink:href="#FangSong-65" x="2350"/>
     <use xlink:href="#FangSong-6e" x="2400"/>
     <use xlink:href="#FangSong-65" x="2450"/>
     <use xlink:href="#FangSong-74" x="2500"/>
     <use xlink:href="#FangSong-76" x="2550"/>
     <use xlink:href="#FangSong-31" x="2600"/>
     <use xlink:href="#FangSong-3d" x="2650"/>
     <use xlink:href="#FangSong-37" x="2700"/>
     <use xlink:href="#FangSong-35" x="2750"/>
     <use xlink:href="#FangSong-2c" x="2800"/>
     <use xlink:href="#FangSong-20" x="2850"/>
     <use xlink:href="#FangSong-76" x="2900"/>
     <use xlink:href="#FangSong-67" x="2950"/>
     <use xlink:href="#FangSong-67" x="3000"/>
     <use xlink:href="#FangSong-31" x="3050"/>
     <use xlink:href="#FangSong-39" x="3100"/>
     <use xlink:href="#FangSong-3d" x="3150"/>
     <use xlink:href="#FangSong-37" x="3200"/>
     <use xlink:href="#FangSong-35" x="3250"/>
    </g>
   </g>
   <g id="legend_1">
    <g id="patch_7">
     <path d="M 315.72 302.584 
L 407.72 302.584 
Q 409.72 302.584 409.72 300.584 
L 409.72 234.279312 
Q 409.72 232.279312 407.72 232.279312 
L 315.72 232.279312 
Q 313.72 232.279312 313.72 234.279312 
L 313.72 300.584 
Q 313.72 302.584 315.72 302.584 
z
" style="fill: #ffffff; opacity: 0.8; stroke: #cccccc; stroke-linejoin: miter"/>
    </g>
    <g id="line2d_18">
     <path d="M 317.72 239.779312 
L 327.72 239.779312 
L 337.72 239.779312 
" style="fill: none; stroke: #ff0000; stroke-linecap: square"/>
    </g>
    <g id="text_16">
     <!-- total -->
     <g transform="translate(345.72 243.279312)scale(0.1 -0.1)">
      <defs>
       <path id="FangSong-61" d="M 1200 -25 
Q 750 -25 500 187 
Q 250 400 250 675 
Q 250 1125 637 1412 
Q 1025 1700 2175 1825 
L 2175 2125 
Q 2175 2375 2062 2537 
Q 1950 2700 1550 2700 
Q 1125 2700 950 2562 
Q 775 2425 825 2275 
Q 875 2175 825 2075 
Q 775 1975 625 1975 
Q 525 1975 462 2037 
Q 400 2100 400 2225 
Q 400 2450 725 2650 
Q 1050 2850 1525 2850 
Q 2025 2850 2275 2662 
Q 2525 2475 2525 2125 
L 2525 475 
Q 2525 275 2562 237 
Q 2600 200 2700 200 
Q 2825 200 2875 312 
Q 2925 425 2925 625 
L 3050 625 
Q 3050 275 2925 137 
Q 2800 0 2600 0 
Q 2425 0 2325 75 
Q 2225 150 2175 325 
Q 1925 150 1712 62 
Q 1500 -25 1200 -25 
z
M 675 750 
Q 675 525 812 337 
Q 950 150 1250 150 
Q 1475 150 1700 237 
Q 1925 325 2175 500 
L 2175 1675 
Q 1325 1575 1000 1337 
Q 675 1100 675 750 
z
" transform="scale(0.015625)"/>
      </defs>
      <use xlink:href="#FangSong-74"/>
      <use xlink:href="#FangSong-6f" x="50"/>
      <use xlink:href="#FangSong-74" x="100"/>
      <use xlink:href="#FangSong-61" x="150"/>
      <use xlink:href="#FangSong-6c" x="200"/>
     </g>
    </g>
    <g id="line2d_19">
     <path d="M 317.72 253.224625 
L 327.72 253.224625 
L 337.72 253.224625 
" style="fill: none; stroke-dasharray: 1.85,0.8; stroke-dashoffset: 0; stroke: #008000; stroke-width: 0.5"/>
    </g>
    <g id="text_17">
     <!-- squeezenetv1 -->
     <g transform="translate(345.72 256.724625)scale(0.1 -0.1)">
      <use xlink:href="#FangSong-73"/>
      <use xlink:href="#FangSong-71" x="50"/>
      <use xlink:href="#FangSong-75" x="100"/>
      <use xlink:href="#FangSong-65" x="150"/>
      <use xlink:href="#FangSong-65" x="200"/>
      <use xlink:href="#FangSong-7a" x="250"/>
      <use xlink:href="#FangSong-65" x="300"/>
      <use xlink:href="#FangSong-6e" x="350"/>
      <use xlink:href="#FangSong-65" x="400"/>
      <use xlink:href="#FangSong-74" x="450"/>
      <use xlink:href="#FangSong-76" x="500"/>
      <use xlink:href="#FangSong-31" x="550"/>
     </g>
    </g>
    <g id="line2d_20">
     <path d="M 317.72 266.669937 
L 327.72 266.669937 
L 337.72 266.669937 
" style="fill: none; stroke-dasharray: 1.85,0.8; stroke-dashoffset: 0; stroke: #0000ff; stroke-width: 0.5"/>
    </g>
    <g id="text_18">
     <!-- googlenet -->
     <g transform="translate(345.72 270.169937)scale(0.1 -0.1)">
      <use xlink:href="#FangSong-67"/>
      <use xlink:href="#FangSong-6f" x="50"/>
      <use xlink:href="#FangSong-6f" x="100"/>
      <use xlink:href="#FangSong-67" x="150"/>
      <use xlink:href="#FangSong-6c" x="200"/>
      <use xlink:href="#FangSong-65" x="250"/>
      <use xlink:href="#FangSong-6e" x="300"/>
      <use xlink:href="#FangSong-65" x="350"/>
      <use xlink:href="#FangSong-74" x="400"/>
     </g>
    </g>
    <g id="line2d_21">
     <path d="M 317.72 280.154312 
L 327.72 280.154312 
L 337.72 280.154312 
" style="fill: none; stroke-dasharray: 1.85,0.8; stroke-dashoffset: 0; stroke: #bf00bf; stroke-width: 0.5"/>
    </g>
    <g id="text_19">
     <!-- vgg19 -->
     <g transform="translate(345.72 283.654312)scale(0.1 -0.1)">
      <use xlink:href="#FangSong-76"/>
      <use xlink:href="#FangSong-67" x="50"/>
      <use xlink:href="#FangSong-67" x="100"/>
      <use xlink:href="#FangSong-31" x="150"/>
      <use xlink:href="#FangSong-39" x="200"/>
     </g>
    </g>
    <g id="line2d_22">
     <path d="M 317.72 293.638687 
L 327.72 293.638687 
L 337.72 293.638687 
" style="fill: none; stroke-dasharray: 1.85,0.8; stroke-dashoffset: 0; stroke: #bfbf00; stroke-width: 0.5"/>
    </g>
    <g id="text_20">
     <!-- resnet50 -->
     <g transform="translate(345.72 297.138687)scale(0.1 -0.1)">
      <use xlink:href="#FangSong-72"/>
      <use xlink:href="#FangSong-65" x="50"/>
      <use xlink:href="#FangSong-73" x="100"/>
      <use xlink:href="#FangSong-6e" x="150"/>
      <use xlink:href="#FangSong-65" x="200"/>
      <use xlink:href="#FangSong-74" x="250"/>
      <use xlink:href="#FangSong-35" x="300"/>
      <use xlink:href="#FangSong-30" x="350"/>
     </g>
    </g>
   </g>
  </g>
 </g>
 <defs>
  <clipPath id="p0c2e1bdff6">
   <rect x="57.6" y="41.472" width="357.12" height="266.112"/>
  </clipPath>
 </defs>
</svg>
