<?xml version="1.0" encoding="utf-8" standalone="no"?>
<!DOCTYPE svg PUBLIC "-//W3C//DTD SVG 1.1//EN"
  "http://www.w3.org/Graphics/SVG/1.1/DTD/svg11.dtd">
<svg xmlns:xlink="http://www.w3.org/1999/xlink" width="460.8pt" height="345.6pt" viewBox="0 0 460.8 345.6" xmlns="http://www.w3.org/2000/svg" version="1.1">
 <metadata>
  <rdf:RDF xmlns:dc="http://purl.org/dc/elements/1.1/" xmlns:cc="http://creativecommons.org/ns#" xmlns:rdf="http://www.w3.org/1999/02/22-rdf-syntax-ns#">
   <cc:Work>
    <dc:type rdf:resource="http://purl.org/dc/dcmitype/StillImage"/>
    <dc:date>2022-11-17T04:01:27.820119</dc:date>
    <dc:format>image/svg+xml</dc:format>
    <dc:creator>
     <cc:Agent>
      <dc:title>Matplotlib v3.5.2, https://matplotlib.org/</dc:title>
     </cc:Agent>
    </dc:creator>
   </cc:Work>
  </rdf:RDF>
 </metadata>
 <defs>
  <style type="text/css">*{stroke-linejoin: round; stroke-linecap: butt}</style>
 </defs>
 <g id="figure_1">
  <g id="patch_1">
   <path d="M 0 345.6 
L 460.8 345.6 
L 460.8 0 
L 0 0 
z
" style="fill: #ffffff"/>
  </g>
  <g id="axes_1">
   <g id="patch_2">
    <path d="M 57.6 307.584 
L 414.72 307.584 
L 414.72 41.472 
L 57.6 41.472 
z
" style="fill: #ffffff"/>
   </g>
   <g id="matplotlib.axis_1">
    <g id="xtick_1">
     <g id="line2d_1">
      <defs>
       <path id="mee68a17c90" d="M 0 0 
L 0 3.5 
" style="stroke: #000000; stroke-width: 0.8"/>
      </defs>
      <g>
       <use xlink:href="#mee68a17c90" x="72.585016" y="307.584" style="stroke: #000000; stroke-width: 0.8"/>
      </g>
     </g>
     <g id="text_1">
      <!-- 0 -->
      <g transform="translate(70.085016 321.576187)scale(0.1 -0.1)">
       <defs>
        <path id="FangSong-30" d="M 1575 4125 
Q 1225 4125 987 3587 
Q 750 3050 750 2150 
Q 750 1200 987 675 
Q 1225 150 1575 150 
Q 1950 150 2162 675 
Q 2375 1200 2375 2150 
Q 2375 3050 2175 3587 
Q 1975 4125 1575 4125 
z
M 1575 -50 
Q 1025 -50 650 525 
Q 275 1100 275 2150 
Q 275 3125 637 3725 
Q 1000 4325 1575 4325 
Q 2125 4325 2487 3750 
Q 2850 3175 2850 2150 
Q 2850 1125 2487 537 
Q 2125 -50 1575 -50 
z
" transform="scale(0.015625)"/>
       </defs>
       <use xlink:href="#FangSong-30"/>
      </g>
     </g>
    </g>
    <g id="xtick_2">
     <g id="line2d_2">
      <g>
       <use xlink:href="#mee68a17c90" x="134.970593" y="307.584" style="stroke: #000000; stroke-width: 0.8"/>
      </g>
     </g>
     <g id="text_2">
      <!-- 50 -->
      <g transform="translate(129.970593 321.576187)scale(0.1 -0.1)">
       <defs>
        <path id="FangSong-35" d="M 1700 2750 
Q 2175 2750 2475 2387 
Q 2775 2025 2775 1425 
Q 2775 750 2462 350 
Q 2150 -50 1500 -50 
Q 1050 -50 700 212 
Q 350 475 350 850 
Q 350 1000 437 1112 
Q 525 1225 675 1225 
Q 825 1225 875 1125 
Q 925 1025 925 950 
Q 925 800 850 712 
Q 775 625 775 525 
Q 775 325 1012 225 
Q 1250 125 1525 125 
Q 1925 125 2137 450 
Q 2350 775 2350 1375 
Q 2350 1875 2162 2187 
Q 1975 2500 1600 2500 
Q 1325 2500 1125 2400 
Q 925 2300 750 1975 
L 525 2000 
L 650 4275 
L 2700 4275 
L 2625 3900 
L 825 3900 
L 725 2250 
Q 975 2600 1212 2675 
Q 1450 2750 1700 2750 
z
" transform="scale(0.015625)"/>
       </defs>
       <use xlink:href="#FangSong-35"/>
       <use xlink:href="#FangSong-30" x="50"/>
      </g>
     </g>
    </g>
    <g id="xtick_3">
     <g id="line2d_3">
      <g>
       <use xlink:href="#mee68a17c90" x="197.356171" y="307.584" style="stroke: #000000; stroke-width: 0.8"/>
      </g>
     </g>
     <g id="text_3">
      <!-- 100 -->
      <g transform="translate(189.856171 321.576187)scale(0.1 -0.1)">
       <defs>
        <path id="FangSong-31" d="M 1800 4350 
L 1800 550 
Q 1800 350 1925 250 
Q 2050 150 2275 150 
L 2525 150 
L 2525 0 
L 700 0 
L 700 150 
L 925 150 
Q 1175 150 1287 250 
Q 1400 350 1400 550 
L 1400 3575 
Q 1400 3675 1337 3737 
Q 1275 3800 1150 3800 
L 700 3800 
L 700 3950 
L 925 3950 
Q 1225 3950 1412 4050 
Q 1600 4150 1700 4350 
L 1800 4350 
z
" transform="scale(0.015625)"/>
       </defs>
       <use xlink:href="#FangSong-31"/>
       <use xlink:href="#FangSong-30" x="50"/>
       <use xlink:href="#FangSong-30" x="100"/>
      </g>
     </g>
    </g>
    <g id="xtick_4">
     <g id="line2d_4">
      <g>
       <use xlink:href="#mee68a17c90" x="259.741748" y="307.584" style="stroke: #000000; stroke-width: 0.8"/>
      </g>
     </g>
     <g id="text_4">
      <!-- 150 -->
      <g transform="translate(252.241748 321.576187)scale(0.1 -0.1)">
       <use xlink:href="#FangSong-31"/>
       <use xlink:href="#FangSong-35" x="50"/>
       <use xlink:href="#FangSong-30" x="100"/>
      </g>
     </g>
    </g>
    <g id="xtick_5">
     <g id="line2d_5">
      <g>
       <use xlink:href="#mee68a17c90" x="322.127326" y="307.584" style="stroke: #000000; stroke-width: 0.8"/>
      </g>
     </g>
     <g id="text_5">
      <!-- 200 -->
      <g transform="translate(314.627326 321.576187)scale(0.1 -0.1)">
       <defs>
        <path id="FangSong-32" d="M 2300 3225 
Q 2300 3675 2100 3912 
Q 1900 4150 1500 4150 
Q 1200 4150 987 3987 
Q 775 3825 775 3575 
Q 775 3425 862 3325 
Q 950 3225 950 3125 
Q 950 3000 887 2937 
Q 825 2875 700 2875 
Q 550 2875 462 2962 
Q 375 3050 375 3250 
Q 375 3775 750 4050 
Q 1125 4325 1550 4325 
Q 2150 4325 2437 4025 
Q 2725 3725 2725 3275 
Q 2725 2975 2587 2675 
Q 2450 2375 2150 2100 
Q 1425 1400 1037 962 
Q 650 525 575 375 
L 2050 375 
Q 2275 375 2425 550 
Q 2575 725 2625 1075 
L 2775 1075 
L 2625 0 
L 300 0 
L 300 325 
Q 425 550 712 900 
Q 1000 1250 1475 1725 
Q 1900 2150 2100 2525 
Q 2300 2900 2300 3225 
z
" transform="scale(0.015625)"/>
       </defs>
       <use xlink:href="#FangSong-32"/>
       <use xlink:href="#FangSong-30" x="50"/>
       <use xlink:href="#FangSong-30" x="100"/>
      </g>
     </g>
    </g>
    <g id="xtick_6">
     <g id="line2d_6">
      <g>
       <use xlink:href="#mee68a17c90" x="384.512903" y="307.584" style="stroke: #000000; stroke-width: 0.8"/>
      </g>
     </g>
     <g id="text_6">
      <!-- 250 -->
      <g transform="translate(377.012903 321.576187)scale(0.1 -0.1)">
       <use xlink:href="#FangSong-32"/>
       <use xlink:href="#FangSong-35" x="50"/>
       <use xlink:href="#FangSong-30" x="100"/>
      </g>
     </g>
    </g>
    <g id="text_7">
     <!-- 响应比 -->
     <g transform="translate(221.16 334.873062)scale(0.1 -0.1)">
      <defs>
       <path id="FangSong-54cd" d="M 2700 -200 
Q 2725 -650 2625 -525 
L 2375 -125 
Q 2500 50 2475 350 
L 2500 3200 
Q 2500 3625 2425 4100 
L 2500 4125 
L 2725 3575 
L 3300 3625 
Q 3550 4225 3675 4637 
Q 3800 5050 3700 5150 
L 3775 5200 
L 4125 4750 
Q 4050 4800 3900 4512 
Q 3750 4225 3500 3650 
L 5275 3850 
L 5425 4125 
L 5725 3850 
L 5575 3650 
Q 5500 -175 5175 -675 
Q 4800 -275 4175 250 
L 4225 350 
L 5050 -175 
Q 5275 525 5325 3625 
L 2725 3325 
L 2700 -200 
z
M 725 3250 
Q 725 3575 625 3925 
L 725 3975 
L 950 3525 
L 1750 3650 
L 1875 3875 
L 2175 3650 
L 2000 3450 
L 1925 2175 
L 2125 1950 
L 1000 1800 
Q 1025 1275 900 1350 
L 650 1750 
Q 775 1850 750 2150 
L 725 3250 
z
M 3550 1250 
Q 3575 950 3500 875 
L 3225 1200 
Q 3300 1350 3300 1525 
L 3275 2325 
Q 3275 2700 3200 2875 
L 3275 2925 
L 3500 2625 
L 4350 2725 
L 4500 2925 
L 4775 2675 
L 4600 2475 
L 4525 1575 
L 4750 1400 
L 3550 1250 
z
M 975 3275 
L 1000 2050 
L 1675 2150 
L 1775 3425 
L 975 3275 
z
M 4350 2475 
L 3500 2375 
L 3525 1500 
L 4275 1575 
L 4350 2475 
z
" transform="scale(0.015625)"/>
       <path id="FangSong-5e94" d="M 1625 4400 
L 1800 3800 
Q 5075 4050 5200 4175 
L 5525 3850 
Q 5200 3900 1825 3550 
Q 1775 2450 1675 1825 
Q 1575 1200 1312 612 
Q 1050 25 500 -600 
L 425 -525 
Q 850 50 1100 675 
Q 1350 1300 1425 1862 
Q 1500 2425 1550 3150 
Q 1600 3875 1550 4375 
L 1625 4400 
z
M 4725 3175 
L 5100 2725 
Q 5000 2800 4750 2112 
Q 4500 1425 4000 150 
Q 5425 225 5400 275 
L 5725 0 
Q 5425 0 3687 -112 
Q 1950 -225 1725 -275 
L 1350 25 
Q 2150 0 3800 125 
Q 4300 1500 4525 2200 
Q 4750 2900 4650 3125 
L 4725 3175 
z
M 2900 1150 
Q 2800 975 2650 725 
Q 2450 1625 2175 2550 
L 2275 2575 
Q 2600 1850 2900 1150 
z
M 3775 1550 
Q 3675 1350 3525 1150 
Q 3475 1600 3075 3050 
L 3150 3075 
Q 3475 2300 3775 1550 
z
M 3500 4100 
Q 3275 4675 3000 5225 
L 3075 5275 
Q 3375 4900 3700 4525 
Q 3600 4325 3500 4100 
z
" transform="scale(0.015625)"/>
       <path id="FangSong-6bd4" d="M 3500 2125 
Q 3925 2425 4487 2975 
Q 5050 3525 4950 3750 
L 5025 3775 
L 5250 3225 
Q 5175 3250 4875 3000 
Q 4575 2750 4287 2525 
Q 4000 2300 3500 1900 
L 3500 575 
Q 3475 -100 4150 -100 
L 4800 -100 
Q 5275 -100 5375 12 
Q 5475 125 5450 1350 
L 5575 1350 
Q 5600 825 5637 412 
Q 5675 0 5800 -175 
Q 5375 -325 4800 -325 
L 4150 -325 
Q 3225 -350 3275 550 
L 3275 4300 
Q 3275 4875 3150 5150 
L 3200 5200 
L 3625 4850 
Q 3475 4825 3500 4250 
L 3500 2125 
z
M 1500 2575 
Q 1900 2625 2337 2712 
Q 2775 2800 2800 2850 
L 3075 2600 
Q 2875 2575 2350 2475 
Q 1825 2375 1775 2325 
L 1500 2525 
L 1500 150 
L 2925 1075 
L 2975 1025 
Q 1550 -75 1375 -350 
L 1200 0 
Q 1275 75 1275 350 
L 1275 3925 
Q 1275 4475 1150 4750 
L 1200 4800 
L 1625 4400 
Q 1475 4375 1500 3925 
L 1500 2575 
z
" transform="scale(0.015625)"/>
      </defs>
      <use xlink:href="#FangSong-54cd"/>
      <use xlink:href="#FangSong-5e94" x="100"/>
      <use xlink:href="#FangSong-6bd4" x="200"/>
     </g>
    </g>
   </g>
   <g id="matplotlib.axis_2">
    <g id="ytick_1">
     <g id="line2d_7">
      <defs>
       <path id="m695e599090" d="M 0 0 
L -3.5 0 
" style="stroke: #000000; stroke-width: 0.8"/>
      </defs>
      <g>
       <use xlink:href="#m695e599090" x="57.6" y="295.488" style="stroke: #000000; stroke-width: 0.8"/>
      </g>
     </g>
     <g id="text_8">
      <!-- 0% -->
      <g transform="translate(40.6 298.984094)scale(0.1 -0.1)">
       <defs>
        <path id="FangSong-25" d="M 725 4150 
Q 575 4150 475 3950 
Q 375 3750 375 3200 
Q 375 2575 487 2387 
Q 600 2200 725 2200 
Q 900 2200 987 2425 
Q 1075 2650 1075 3200 
Q 1075 3650 1012 3900 
Q 950 4150 725 4150 
z
M 1400 3175 
Q 1400 2725 1250 2387 
Q 1100 2050 725 2050 
Q 425 2050 237 2350 
Q 50 2650 50 3175 
Q 50 3725 250 4025 
Q 450 4325 725 4325 
Q 1025 4325 1212 4012 
Q 1400 3700 1400 3175 
z
M 2700 1100 
Q 2700 1525 2625 1800 
Q 2550 2075 2350 2075 
Q 2200 2075 2100 1837 
Q 2000 1600 2000 1100 
Q 2000 475 2112 300 
Q 2225 125 2350 125 
Q 2525 125 2612 337 
Q 2700 550 2700 1100 
z
M 3025 1075 
Q 3025 575 2850 262 
Q 2675 -50 2350 -50 
Q 2075 -50 1875 262 
Q 1675 575 1675 1075 
Q 1675 1625 1875 1937 
Q 2075 2250 2350 2250 
Q 2650 2250 2837 1925 
Q 3025 1600 3025 1075 
z
M 2500 4250 
L 700 -50 
L 550 25 
L 2325 4325 
L 2500 4250 
z
" transform="scale(0.015625)"/>
       </defs>
       <use xlink:href="#FangSong-30"/>
       <use xlink:href="#FangSong-25" x="50"/>
      </g>
     </g>
    </g>
    <g id="ytick_2">
     <g id="line2d_8">
      <g>
       <use xlink:href="#m695e599090" x="57.6" y="247.104" style="stroke: #000000; stroke-width: 0.8"/>
      </g>
     </g>
     <g id="text_9">
      <!-- 20% -->
      <g transform="translate(35.6 250.600094)scale(0.1 -0.1)">
       <use xlink:href="#FangSong-32"/>
       <use xlink:href="#FangSong-30" x="50"/>
       <use xlink:href="#FangSong-25" x="100"/>
      </g>
     </g>
    </g>
    <g id="ytick_3">
     <g id="line2d_9">
      <g>
       <use xlink:href="#m695e599090" x="57.6" y="198.72" style="stroke: #000000; stroke-width: 0.8"/>
      </g>
     </g>
     <g id="text_10">
      <!-- 40% -->
      <g transform="translate(35.6 202.216094)scale(0.1 -0.1)">
       <defs>
        <path id="FangSong-34" d="M 2275 475 
Q 2275 300 2375 225 
Q 2475 150 2650 150 
L 2875 150 
L 2875 0 
L 1225 0 
L 1225 150 
L 1500 150 
Q 1700 150 1787 225 
Q 1875 300 1875 475 
L 1875 1300 
L 200 1300 
L 200 1425 
L 2025 4325 
L 2275 4325 
L 2275 1450 
L 2950 1450 
L 2950 1300 
L 2275 1300 
L 2275 475 
z
M 1850 3700 
L 425 1450 
L 1875 1450 
L 1875 3700 
L 1850 3700 
z
" transform="scale(0.015625)"/>
       </defs>
       <use xlink:href="#FangSong-34"/>
       <use xlink:href="#FangSong-30" x="50"/>
       <use xlink:href="#FangSong-25" x="100"/>
      </g>
     </g>
    </g>
    <g id="ytick_4">
     <g id="line2d_10">
      <g>
       <use xlink:href="#m695e599090" x="57.6" y="150.336" style="stroke: #000000; stroke-width: 0.8"/>
      </g>
     </g>
     <g id="text_11">
      <!-- 60% -->
      <g transform="translate(35.6 153.832094)scale(0.1 -0.1)">
       <defs>
        <path id="FangSong-36" d="M 750 1700 
Q 750 950 1012 537 
Q 1275 125 1650 125 
Q 2025 125 2225 400 
Q 2425 675 2425 1425 
Q 2425 1925 2212 2200 
Q 2000 2475 1700 2475 
Q 1425 2475 1187 2312 
Q 950 2150 750 1700 
z
M 1725 2725 
Q 2325 2725 2587 2325 
Q 2850 1925 2850 1425 
Q 2850 675 2487 312 
Q 2125 -50 1650 -50 
Q 975 -50 625 462 
Q 275 975 275 1950 
Q 275 3100 700 3712 
Q 1125 4325 1850 4325 
Q 2200 4325 2412 4125 
Q 2625 3925 2625 3775 
Q 2625 3625 2562 3550 
Q 2500 3475 2350 3475 
Q 2225 3475 2162 3537 
Q 2100 3600 2100 3725 
Q 2100 3775 2112 3825 
Q 2125 3875 2125 3925 
Q 2125 4025 2050 4087 
Q 1975 4150 1775 4150 
Q 1350 4150 1050 3762 
Q 750 3375 750 2075 
Q 900 2400 1162 2562 
Q 1425 2725 1725 2725 
z
" transform="scale(0.015625)"/>
       </defs>
       <use xlink:href="#FangSong-36"/>
       <use xlink:href="#FangSong-30" x="50"/>
       <use xlink:href="#FangSong-25" x="100"/>
      </g>
     </g>
    </g>
    <g id="ytick_5">
     <g id="line2d_11">
      <g>
       <use xlink:href="#m695e599090" x="57.6" y="101.952" style="stroke: #000000; stroke-width: 0.8"/>
      </g>
     </g>
     <g id="text_12">
      <!-- 80% -->
      <g transform="translate(35.6 105.448094)scale(0.1 -0.1)">
       <defs>
        <path id="FangSong-38" d="M 600 1025 
Q 600 625 862 375 
Q 1125 125 1525 125 
Q 2000 125 2212 375 
Q 2425 625 2425 1000 
Q 2425 1325 2125 1625 
Q 1825 1925 1225 2175 
Q 925 1975 762 1675 
Q 600 1375 600 1025 
z
M 2800 1075 
Q 2800 600 2450 275 
Q 2100 -50 1525 -50 
Q 1000 -50 625 275 
Q 250 600 250 1025 
Q 250 1450 462 1750 
Q 675 2050 1075 2275 
Q 725 2450 537 2712 
Q 350 2975 350 3300 
Q 350 3725 675 4025 
Q 1000 4325 1575 4325 
Q 2100 4325 2425 4025 
Q 2750 3725 2750 3300 
Q 2750 3000 2562 2737 
Q 2375 2475 1975 2275 
Q 2400 2025 2600 1725 
Q 2800 1425 2800 1075 
z
M 2400 3275 
Q 2400 3625 2200 3887 
Q 2000 4150 1575 4150 
Q 1100 4150 900 3900 
Q 700 3650 700 3375 
Q 700 3100 987 2837 
Q 1275 2575 1800 2375 
Q 2100 2525 2250 2750 
Q 2400 2975 2400 3275 
z
" transform="scale(0.015625)"/>
       </defs>
       <use xlink:href="#FangSong-38"/>
       <use xlink:href="#FangSong-30" x="50"/>
       <use xlink:href="#FangSong-25" x="100"/>
      </g>
     </g>
    </g>
    <g id="ytick_6">
     <g id="line2d_12">
      <g>
       <use xlink:href="#m695e599090" x="57.6" y="53.568" style="stroke: #000000; stroke-width: 0.8"/>
      </g>
     </g>
     <g id="text_13">
      <!-- 100% -->
      <g transform="translate(30.6 57.064094)scale(0.1 -0.1)">
       <use xlink:href="#FangSong-31"/>
       <use xlink:href="#FangSong-30" x="50"/>
       <use xlink:href="#FangSong-30" x="100"/>
       <use xlink:href="#FangSong-25" x="150"/>
      </g>
     </g>
    </g>
    <g id="text_14">
     <!-- 累计完成比例 -->
     <g transform="translate(25.154688 204.528)rotate(-90)scale(0.1 -0.1)">
      <defs>
       <path id="FangSong-7d2f" d="M 4525 4975 
L 4700 5225 
L 5000 4950 
L 4825 4775 
L 4625 3550 
L 4850 3300 
L 3175 3150 
L 3375 2975 
Q 3200 2925 2862 2725 
Q 2525 2525 2075 2275 
L 3475 2500 
Q 3750 2675 3900 2800 
Q 4050 2925 4100 3075 
L 4175 3100 
L 4325 2700 
Q 4200 2675 3500 2237 
Q 2800 1800 2275 1550 
L 4375 1825 
L 3900 2175 
L 4000 2275 
Q 4625 1900 4950 1725 
Q 4975 1475 4925 1225 
Q 4800 1375 4500 1675 
L 3250 1475 
L 3525 1300 
Q 3375 1200 3375 875 
L 3375 25 
Q 3375 -325 3225 -625 
Q 2975 -325 2400 150 
L 2450 250 
L 3050 -75 
Q 3150 -125 3150 0 
L 3150 925 
Q 3150 1300 3125 1450 
Q 1875 1275 1575 1175 
L 1325 1425 
L 1850 1550 
Q 2175 1700 3250 2300 
Q 2075 2100 1875 2000 
L 1575 2250 
L 1800 2300 
Q 2150 2475 3025 3125 
L 2000 3025 
Q 2000 2675 1950 2700 
Q 1900 2725 1650 3025 
Q 1725 3250 1725 3425 
L 1650 4400 
Q 1625 4675 1525 4950 
L 1625 5000 
L 1875 4675 
L 4525 4975 
z
M 3150 3375 
L 3150 3875 
Q 2525 3800 2400 3725 
L 2100 3975 
Q 2500 3975 3150 4075 
L 3150 4600 
L 1900 4450 
L 1975 3250 
L 3150 3375 
z
M 3375 4100 
Q 3950 4175 4025 4225 
L 4275 4000 
Q 3950 3975 3375 3900 
L 3375 3400 
L 4400 3500 
L 4575 4750 
L 3375 4600 
L 3375 4100 
z
M 5450 -75 
Q 4975 325 3875 1025 
L 3950 1125 
Q 4850 700 5350 500 
Q 5425 250 5450 -75 
z
M 800 -250 
Q 1350 75 1825 500 
Q 2300 925 2325 1125 
L 2400 1150 
L 2550 725 
Q 2425 700 2075 425 
Q 1725 150 875 -350 
L 800 -250 
z
" transform="scale(0.015625)"/>
       <path id="FangSong-8ba1" d="M 4075 4200 
Q 4100 4825 3900 5100 
L 3975 5150 
L 4450 4725 
Q 4275 4600 4300 4200 
L 4275 3000 
Q 5525 3200 5575 3250 
L 5950 2950 
Q 5725 2975 4275 2800 
L 4250 -425 
Q 4250 -700 4150 -575 
L 3875 -150 
Q 4050 50 4025 300 
L 4050 2750 
Q 2975 2625 2900 2575 
L 2525 2825 
Q 2850 2825 4050 2975 
L 4075 4200 
z
M 1775 3250 
L 2100 2950 
L 1900 2750 
L 1875 550 
L 2825 1250 
L 2875 1175 
Q 1875 250 1750 -25 
L 1525 275 
Q 1625 375 1650 625 
L 1675 2775 
Q 900 2625 750 2550 
L 425 2800 
Q 850 2825 1650 3000 
L 1775 3250 
z
M 2025 3800 
Q 1825 4300 1325 4950 
L 1375 5025 
Q 1925 4575 2175 4300 
Q 2125 4000 2025 3800 
z
" transform="scale(0.015625)"/>
       <path id="FangSong-5b8c" d="M 5375 2050 
Q 4925 2050 3550 1950 
L 3850 1750 
Q 3725 1600 3700 1375 
L 3675 275 
Q 3650 -125 4075 -175 
L 4925 -175 
Q 5300 -150 5312 62 
Q 5325 275 5325 1025 
L 5425 1025 
Q 5450 750 5475 337 
Q 5500 -75 5700 -275 
Q 5400 -375 5000 -400 
L 4075 -400 
Q 3425 -350 3425 150 
L 3475 1450 
Q 3475 1775 3425 1925 
L 2675 1850 
L 2875 1650 
Q 2750 1550 2600 1200 
Q 2450 850 2025 312 
Q 1600 -225 600 -675 
L 550 -575 
Q 1525 -100 1987 625 
Q 2450 1350 2525 1850 
Q 1550 1775 1500 1725 
L 1150 2025 
Q 1625 2025 3212 2150 
Q 4800 2275 5000 2350 
L 5375 2050 
z
M 1650 3650 
Q 1550 3125 1325 2875 
L 1150 3250 
Q 1450 3425 1575 4400 
L 1675 4400 
L 1675 3900 
L 5025 4150 
L 5175 4400 
L 5525 4075 
Q 5375 4050 4725 3250 
L 4650 3325 
L 4975 3900 
L 1650 3650 
z
M 4475 2975 
Q 4225 2975 3412 2875 
Q 2600 2775 2400 2725 
L 2050 2975 
Q 2575 2975 3200 3075 
Q 3825 3175 4150 3225 
L 4475 2975 
z
M 3550 4575 
Q 3475 4350 3300 4150 
Q 3225 4475 2900 5200 
L 2975 5250 
Q 3350 4825 3550 4575 
z
" transform="scale(0.015625)"/>
       <path id="FangSong-6210" d="M 5575 975 
Q 5600 -150 5750 -625 
Q 4650 -225 4000 1075 
Q 3625 650 2975 225 
L 2925 325 
Q 3525 825 3900 1300 
Q 3600 2275 3500 3300 
L 1875 3125 
Q 1875 2625 1825 2100 
L 2725 2250 
L 2875 2475 
L 3175 2225 
L 3000 2050 
Q 2850 475 2575 -125 
Q 2225 400 1825 775 
L 1875 850 
L 2475 400 
Q 2650 875 2750 2000 
L 1825 1850 
Q 1675 250 600 -650 
L 525 -600 
Q 1250 250 1425 987 
Q 1600 1725 1625 2612 
Q 1650 3500 1550 3800 
L 1625 3825 
L 1850 3350 
L 3450 3525 
Q 3400 4150 3375 4562 
Q 3350 4975 3225 5200 
L 3275 5225 
L 3725 4900 
Q 3625 4925 3637 4575 
Q 3650 4225 3675 3550 
Q 4900 3700 5050 3775 
L 5325 3475 
Q 4775 3475 3725 3325 
Q 3775 2425 4075 1525 
Q 4500 2025 4687 2325 
Q 4875 2625 4800 2850 
L 4875 2875 
L 5125 2325 
Q 5075 2400 4850 2125 
Q 4625 1850 4150 1275 
Q 4625 225 5425 -125 
L 5475 975 
L 5575 975 
z
M 4100 5000 
Q 4525 4700 4875 4450 
Q 4825 4250 4750 4025 
Q 4400 4525 4025 4950 
L 4100 5000 
z
" transform="scale(0.015625)"/>
       <path id="FangSong-4f8b" d="M 3050 2000 
Q 3025 1800 2975 1600 
Q 2775 1900 2525 2250 
Q 2300 1875 2025 1550 
L 1925 1625 
Q 2675 2725 2975 3975 
Q 2475 3925 2375 3875 
L 2050 4125 
Q 2375 4125 3162 4225 
Q 3950 4325 4100 4450 
L 4350 4125 
Q 4050 4150 3100 3975 
L 3300 3700 
Q 3200 3675 3125 3525 
Q 3050 3375 2925 3050 
L 3625 3150 
L 3775 3350 
L 4050 3075 
L 3875 2900 
Q 3300 825 1850 -225 
L 1800 -100 
Q 3100 975 3625 2900 
Q 3150 2825 3025 2775 
L 2875 2925 
Q 2775 2675 2575 2350 
Q 2900 2125 3050 2000 
z
M 1275 -150 
Q 1425 25 1400 225 
L 1450 3425 
Q 1025 2800 475 2225 
L 400 2325 
Q 875 2850 1450 3887 
Q 2025 4925 1925 5150 
L 2000 5175 
L 2250 4700 
Q 2200 4725 2062 4475 
Q 1925 4225 1675 3800 
L 1625 -325 
Q 1650 -675 1525 -600 
L 1275 -150 
z
M 5475 250 
Q 5475 -300 5300 -650 
Q 4900 -100 4300 375 
L 4350 475 
L 5200 -75 
Q 5250 250 5250 575 
L 5250 4350 
Q 5275 4950 5100 5150 
L 5175 5225 
L 5600 4850 
Q 5450 4775 5475 4325 
L 5475 250 
z
M 4300 1525 
Q 4400 1650 4400 1900 
L 4400 3075 
Q 4425 3525 4300 3750 
L 4350 3800 
L 4725 3450 
Q 4600 3350 4625 3025 
L 4625 1375 
Q 4625 1050 4550 1125 
L 4300 1525 
z
" transform="scale(0.015625)"/>
      </defs>
      <use xlink:href="#FangSong-7d2f"/>
      <use xlink:href="#FangSong-8ba1" x="100"/>
      <use xlink:href="#FangSong-5b8c" x="200"/>
      <use xlink:href="#FangSong-6210" x="300"/>
      <use xlink:href="#FangSong-6bd4" x="400"/>
      <use xlink:href="#FangSong-4f8b" x="500"/>
     </g>
    </g>
   </g>
   <g id="line2d_13">
    <path d="M 73.832727 295.488 
L 73.957498 295.488 
L 74.581354 294.03648 
L 75.20521 291.61728 
L 75.329981 291.61728 
L 75.829066 290.89152 
L 75.953837 290.89152 
L 76.32815 289.68192 
L 76.827235 288.47232 
L 78.44926 282.42432 
L 78.574031 282.42432 
L 78.823573 281.94048 
L 79.073116 280.9728 
L 79.322658 280.24704 
L 79.696972 276.86016 
L 81.069454 269.36064 
L 81.194225 269.36064 
L 81.318997 268.63488 
L 81.443768 268.63488 
L 81.818081 267.90912 
L 82.067624 266.69952 
L 82.317166 266.4576 
L 82.441937 266.4576 
L 82.566708 266.21568 
L 82.941022 264.28032 
L 83.81442 262.58688 
L 84.063962 260.16768 
L 84.563047 258.47424 
L 85.186902 257.02272 
L 85.810758 253.63584 
L 86.0603 253.63584 
L 86.309843 252.91008 
L 86.559385 251.9424 
L 86.808927 251.9424 
L 87.308012 250.7328 
L 87.432783 250.24896 
L 87.557554 250.24896 
L 88.18141 248.07168 
L 88.430952 247.58784 
L 88.680495 246.13632 
L 89.054808 244.92672 
L 89.429122 244.44288 
L 89.553893 244.44288 
L 90.052977 242.74944 
L 90.926376 241.056 
L 91.799774 235.008 
L 92.174087 234.04032 
L 92.673172 232.34688 
L 93.172256 231.13728 
L 93.671341 228.47616 
L 94.419968 226.78272 
L 94.66951 225.57312 
L 94.794281 225.57312 
L 95.168595 224.60544 
L 95.917222 221.7024 
L 96.041993 221.7024 
L 96.915391 219.76704 
L 97.164933 218.31552 
L 97.289704 218.31552 
L 98.163103 216.38016 
L 98.412645 215.6544 
L 98.537416 215.6544 
L 100.408983 211.78368 
L 100.783297 210.57408 
L 100.908068 210.57408 
L 101.656695 208.88064 
L 101.906237 208.15488 
L 102.031008 208.15488 
L 102.280551 207.91296 
L 102.530093 207.91296 
L 102.779635 207.1872 
L 103.528262 205.49376 
L 103.902576 204.04224 
L 104.027347 204.04224 
L 104.775974 202.83264 
L 104.900745 202.83264 
L 106.397999 199.68768 
L 106.647541 198.96192 
L 106.897083 198.23616 
L 107.146626 197.02656 
L 107.271397 197.02656 
L 107.520939 195.81696 
L 108.144795 194.84928 
L 108.269566 194.84928 
L 108.519108 194.12352 
L 108.64388 193.8816 
L 108.893422 192.91392 
L 109.392506 192.18816 
L 109.517278 192.18816 
L 109.642049 191.94624 
L 109.76682 191.22048 
L 109.891591 191.22048 
L 110.016362 190.73664 
L 110.141133 190.73664 
L 111.264074 188.31744 
L 111.763158 186.624 
L 111.88793 186.624 
L 112.387014 184.93056 
L 112.511785 184.93056 
L 112.636556 184.2048 
L 112.761328 184.2048 
L 113.135641 182.9952 
L 113.260412 182.9952 
L 113.509955 182.26944 
L 113.634726 181.54368 
L 114.009039 181.54368 
L 114.258582 180.81792 
L 114.383353 180.576 
L 114.757666 178.64064 
L 115.880607 176.22144 
L 116.130149 175.25376 
L 116.25492 175.01184 
L 116.504462 173.80224 
L 116.629233 173.80224 
L 117.003547 172.1088 
L 117.627403 170.65728 
L 118.251258 168.23808 
L 118.500801 168.23808 
L 118.750343 167.51232 
L 118.875114 167.02848 
L 119.374199 167.02848 
L 119.623741 166.0608 
L 119.748512 166.0608 
L 120.247597 164.36736 
L 120.372368 164.36736 
L 120.996224 160.98048 
L 121.495309 160.25472 
L 121.744851 160.25472 
L 121.994393 159.52896 
L 122.243935 159.52896 
L 122.867791 158.31936 
L 122.992562 157.35168 
L 123.117334 157.35168 
L 123.242105 157.10976 
L 123.366876 156.384 
L 123.990732 156.384 
L 124.240274 156.14208 
L 124.489816 156.14208 
L 124.86413 154.69056 
L 125.363214 154.69056 
L 125.612757 154.44864 
L 125.862299 154.44864 
L 126.486155 153.48096 
L 126.610926 153.48096 
L 126.985239 152.99712 
L 127.11001 152.99712 
L 127.484324 152.51328 
L 127.733866 152.51328 
L 127.858637 152.02944 
L 128.232951 152.02944 
L 128.732035 151.30368 
L 129.106349 151.30368 
L 129.480662 150.81984 
L 129.605434 150.81984 
L 131.601772 147.19104 
L 131.726543 147.19104 
L 132.47517 145.98144 
L 132.599941 145.98144 
L 132.974255 145.4976 
L 133.598111 145.4976 
L 133.722882 145.01376 
L 134.097195 145.01376 
L 134.221966 144.52992 
L 134.845822 144.52992 
L 135.220136 144.04608 
L 135.344907 144.04608 
L 135.594449 143.80416 
L 135.968762 143.80416 
L 136.343076 143.32032 
L 136.467847 143.32032 
L 136.717389 143.0784 
L 136.842161 143.0784 
L 137.091703 142.83648 
L 137.216474 142.83648 
L 137.590788 142.35264 
L 137.715559 142.35264 
L 137.965101 142.11072 
L 138.089872 142.11072 
L 138.713728 141.14304 
L 139.587126 141.14304 
L 139.711897 140.6592 
L 140.460524 140.6592 
L 140.834838 140.17536 
L 141.333922 140.17536 
L 141.583464 139.93344 
L 142.456863 139.93344 
L 142.831176 139.4496 
L 142.955947 139.4496 
L 143.205489 139.20768 
L 143.829345 139.20768 
L 143.954116 138.72384 
L 144.078888 138.72384 
L 144.32843 138.48192 
L 144.827514 138.48192 
L 145.077057 138.24 
L 145.201828 138.24 
L 145.45137 137.99808 
L 145.700913 137.99808 
L 145.950455 137.75616 
L 146.324768 137.75616 
L 146.574311 137.51424 
L 147.073395 137.51424 
L 147.57248 136.78848 
L 147.697251 136.78848 
L 148.071565 136.30464 
L 148.321107 136.30464 
L 148.445878 135.57888 
L 148.69542 135.57888 
L 148.944963 135.33696 
L 149.069734 135.33696 
L 149.319276 135.09504 
L 149.943132 135.09504 
L 150.192674 134.85312 
L 150.81653 134.85312 
L 151.440386 133.88544 
L 151.93947 133.88544 
L 152.189013 133.64352 
L 152.688097 133.64352 
L 153.187182 132.91776 
L 153.561495 132.91776 
L 153.811038 132.67584 
L 153.935809 132.67584 
L 154.434893 131.95008 
L 154.684436 131.95008 
L 154.933978 131.70816 
L 155.308292 131.70816 
L 156.056918 130.49856 
L 156.306461 130.49856 
L 156.556003 130.25664 
L 156.680774 130.25664 
L 157.179859 129.53088 
L 157.30463 129.53088 
L 157.803715 128.80512 
L 157.928486 128.80512 
L 158.302799 127.59552 
L 159.051426 127.59552 
L 159.300968 127.3536 
L 159.42574 127.3536 
L 159.550511 126.86976 
L 159.800053 126.86976 
L 160.049595 126.62784 
L 160.174367 126.62784 
L 160.673451 125.90208 
L 161.546849 125.90208 
L 161.796392 125.66016 
L 162.295476 125.66016 
L 163.168874 124.20864 
L 163.418417 124.20864 
L 163.79273 123.7248 
L 164.416586 123.7248 
L 164.666128 122.99904 
L 164.790899 122.5152 
L 165.539526 122.5152 
L 165.789069 122.27328 
L 166.662467 122.27328 
L 167.161551 121.54752 
L 167.286322 121.54752 
L 167.785407 120.82176 
L 168.284492 120.82176 
L 168.908347 119.85408 
L 169.407432 119.85408 
L 169.781746 119.37024 
L 169.906517 119.37024 
L 170.156059 119.12832 
L 170.904686 119.12832 
L 171.154228 118.8864 
L 171.278999 118.8864 
L 171.902855 117.91872 
L 172.526711 117.91872 
L 173.025796 117.19296 
L 173.52488 117.19296 
L 174.148736 116.22528 
L 174.398278 116.22528 
L 174.647821 115.98336 
L 175.022134 115.98336 
L 175.271676 115.74144 
L 176.145074 115.74144 
L 176.644159 115.01568 
L 176.76893 115.01568 
L 177.018473 114.77376 
L 177.143244 114.77376 
L 177.517557 114.28992 
L 177.767099 114.28992 
L 178.016642 114.048 
L 178.266184 114.048 
L 178.515726 113.32224 
L 178.765269 113.32224 
L 179.139582 112.35456 
L 179.264353 111.6288 
L 179.389124 111.6288 
L 179.513896 111.14496 
L 179.638667 111.14496 
L 179.888209 110.90304 
L 180.01298 110.90304 
L 180.262523 110.66112 
L 180.387294 110.66112 
L 180.886378 109.93536 
L 181.011149 109.93536 
L 181.759776 108.72576 
L 181.884548 108.72576 
L 182.13409 108.48384 
L 182.383632 108.48384 
L 182.633174 108.24192 
L 182.757946 108.24192 
L 183.25703 107.51616 
L 183.631344 107.51616 
L 183.880886 106.54848 
L 185.003826 106.54848 
L 185.37814 106.06464 
L 185.502911 106.06464 
L 186.126767 105.09696 
L 186.376309 105.09696 
L 186.875394 104.3712 
L 187.000165 104.3712 
L 187.49925 103.64544 
L 187.624021 103.64544 
L 188.247876 102.67776 
L 189.246046 102.67776 
L 189.370817 102.19392 
L 189.620359 102.19392 
L 189.994673 101.71008 
L 190.7433 101.71008 
L 191.491926 100.50048 
L 191.86624 100.50048 
L 192.490096 99.5328 
L 192.739638 99.5328 
L 192.98918 99.29088 
L 193.238723 99.29088 
L 193.488265 99.04896 
L 193.613036 99.04896 
L 193.862578 98.80704 
L 194.361663 98.80704 
L 194.486434 98.3232 
L 194.735977 98.3232 
L 194.985519 98.08128 
L 195.11029 98.08128 
L 195.235061 97.59744 
L 195.734146 97.59744 
L 195.858917 97.1136 
L 196.108459 97.1136 
L 196.358002 96.87168 
L 196.857086 96.87168 
L 197.855255 95.17824 
L 198.104798 95.17824 
L 198.35434 94.93632 
L 199.352509 94.93632 
L 199.726823 94.45248 
L 199.851594 94.45248 
L 200.101136 94.21056 
L 200.350678 94.21056 
L 200.849763 93.4848 
L 201.348848 93.4848 
L 201.59839 93.24288 
L 202.222246 93.24288 
L 202.471788 93.00096 
L 202.846102 93.00096 
L 203.095644 92.75904 
L 203.469957 92.75904 
L 203.7195 92.51712 
L 204.717669 92.51712 
L 204.967211 92.2752 
L 206.090152 92.2752 
L 206.339694 92.03328 
L 207.088321 92.03328 
L 207.337863 91.79136 
L 207.462634 91.79136 
L 207.836948 91.30752 
L 209.583744 91.30752 
L 209.833286 91.0656 
L 210.082829 91.0656 
L 210.332371 90.82368 
L 211.080998 90.82368 
L 211.33054 90.58176 
L 212.453481 90.58176 
L 212.703023 90.33984 
L 213.825963 90.33984 
L 214.325048 89.61408 
L 214.948904 89.61408 
L 215.198446 89.37216 
L 215.947073 89.37216 
L 216.196615 89.13024 
L 216.6957 89.13024 
L 216.945242 88.88832 
L 217.693869 88.88832 
L 217.943411 88.6464 
L 218.317725 88.6464 
L 218.567267 88.40448 
L 218.941581 88.40448 
L 219.191123 88.16256 
L 219.440665 88.16256 
L 219.690208 87.92064 
L 221.686546 87.92064 
L 221.936088 87.67872 
L 222.809486 87.67872 
L 222.934258 87.19488 
L 223.1838 87.19488 
L 223.558113 86.71104 
L 223.932427 86.71104 
L 224.181969 86.46912 
L 228.424188 86.46912 
L 228.673731 86.2272 
L 229.796671 86.2272 
L 230.046213 85.98528 
L 230.295756 85.98528 
L 230.545298 85.74336 
L 233.539806 85.74336 
L 233.789348 85.50144 
L 234.03889 85.50144 
L 234.413204 85.0176 
L 235.03706 85.0176 
L 235.286602 84.77568 
L 237.28294 84.77568 
L 237.532483 84.53376 
L 240.152677 84.53376 
L 240.402219 84.29184 
L 241.026075 84.29184 
L 241.275617 84.04992 
L 241.400389 84.04992 
L 241.649931 83.808 
L 244.270125 83.808 
L 244.519667 83.56608 
L 245.268294 83.56608 
L 245.767379 82.84032 
L 246.141692 82.84032 
L 246.391235 82.5984 
L 249.510514 82.5984 
L 249.635285 82.11456 
L 250.383912 82.11456 
L 250.633454 81.87264 
L 251.382081 81.87264 
L 251.631623 81.63072 
L 252.005937 81.63072 
L 252.255479 81.3888 
L 253.253648 81.3888 
L 253.378419 80.90496 
L 253.503191 80.90496 
L 253.752733 80.66304 
L 254.750902 80.66304 
L 255.000444 80.42112 
L 258.119723 80.42112 
L 258.494037 79.93728 
L 258.618808 79.93728 
L 258.86835 79.69536 
L 262.985798 79.69536 
L 263.235341 79.45344 
L 264.607823 79.45344 
L 264.857366 79.21152 
L 265.106908 79.21152 
L 265.35645 78.9696 
L 267.228018 78.9696 
L 267.352789 78.48576 
L 269.099585 78.48576 
L 269.349127 78.24384 
L 270.347296 78.24384 
L 270.596839 78.00192 
L 271.470237 78.00192 
L 271.719779 77.76 
L 272.343635 77.76 
L 272.593177 77.51808 
L 272.967491 77.51808 
L 273.217033 77.27616 
L 273.840889 77.27616 
L 274.090431 77.03424 
L 275.338143 77.03424 
L 275.587685 76.79232 
L 275.712456 76.79232 
L 275.961998 76.5504 
L 277.833566 76.5504 
L 278.083108 76.30848 
L 278.33265 76.30848 
L 278.582193 76.06656 
L 279.954675 76.06656 
L 280.204218 75.82464 
L 281.202387 75.82464 
L 281.451929 75.58272 
L 281.951014 75.58272 
L 282.200556 75.3408 
L 282.57487 75.3408 
L 282.824412 75.09888 
L 286.193233 75.09888 
L 286.442775 74.85696 
L 286.692318 74.85696 
L 286.94186 74.61504 
L 289.811597 74.61504 
L 290.310681 73.88928 
L 290.684995 73.88928 
L 290.934537 73.64736 
L 292.182249 73.64736 
L 292.30702 73.16352 
L 293.305189 73.16352 
L 293.679502 72.67968 
L 294.552901 72.67968 
L 294.927214 72.19584 
L 295.176756 72.19584 
L 295.426299 71.95392 
L 297.173095 71.95392 
L 297.422637 71.712 
L 298.420806 71.712 
L 298.670349 71.47008 
L 298.919891 71.47008 
L 299.169433 71.22816 
L 299.294204 71.22816 
L 299.543747 70.98624 
L 299.91806 70.98624 
L 300.167603 70.74432 
L 301.041001 70.74432 
L 301.290543 70.5024 
L 301.415314 70.5024 
L 301.664856 70.26048 
L 301.789628 70.26048 
L 302.163941 69.77664 
L 302.787797 69.77664 
L 303.037339 69.53472 
L 304.285051 69.53472 
L 304.409822 69.05088 
L 305.033678 69.05088 
L 305.28322 68.80896 
L 309.026355 68.80896 
L 309.275897 68.56704 
L 309.400668 68.56704 
L 309.774981 68.0832 
L 311.272235 68.0832 
L 311.397006 67.59936 
L 314.391514 67.59936 
L 314.765828 67.11552 
L 315.389683 67.11552 
L 315.639226 66.8736 
L 316.13831 66.8736 
L 316.263082 66.38976 
L 316.387853 66.38976 
L 316.512624 65.90592 
L 318.508962 65.90592 
L 318.758505 65.664 
L 320.130987 65.664 
L 320.38053 65.42208 
L 323.250266 65.42208 
L 323.499809 65.18016 
L 323.998893 65.18016 
L 324.248435 64.93824 
L 324.497978 64.93824 
L 324.74752 64.69632 
L 326.494316 64.69632 
L 326.993401 63.97056 
L 328.740197 63.97056 
L 328.989739 63.72864 
L 330.861307 63.72864 
L 331.110849 63.48672 
L 331.734705 63.48672 
L 331.984247 63.2448 
L 332.608103 63.2448 
L 332.857645 63.00288 
L 334.354899 63.00288 
L 334.604441 62.76096 
L 336.975093 62.76096 
L 337.099864 62.27712 
L 337.349407 62.27712 
L 337.598949 62.0352 
L 338.222805 62.0352 
L 338.472347 61.79328 
L 339.470516 61.79328 
L 339.84483 61.30944 
L 340.718228 61.30944 
L 340.96777 61.06752 
L 343.213651 61.06752 
L 343.463193 60.8256 
L 344.21182 60.8256 
L 344.461363 60.58368 
L 345.459532 60.58368 
L 345.709074 60.34176 
L 346.083388 60.34176 
L 346.33293 60.09984 
L 348.953124 60.09984 
L 349.202666 59.85792 
L 350.824691 59.85792 
L 351.074234 59.616 
L 353.070572 59.616 
L 353.195343 59.13216 
L 353.444886 59.13216 
L 353.694428 58.89024 
L 354.318284 58.89024 
L 354.567826 58.64832 
L 355.690767 58.64832 
L 355.940309 58.4064 
L 357.687105 58.4064 
L 357.936647 58.16448 
L 358.061418 58.16448 
L 358.310961 57.92256 
L 359.558672 57.92256 
L 359.808215 57.68064 
L 362.428409 57.68064 
L 362.677951 57.43872 
L 363.301807 57.43872 
L 363.551349 57.1968 
L 364.799061 57.1968 
L 365.048603 56.95488 
L 366.046772 56.95488 
L 366.296315 56.71296 
L 367.793569 56.71296 
L 368.043111 56.47104 
L 372.160559 56.47104 
L 372.410101 56.22912 
L 377.775261 56.22912 
L 378.024803 55.9872 
L 378.523888 55.9872 
L 378.77343 55.74528 
L 381.019311 55.74528 
L 381.268853 55.50336 
L 383.265192 55.50336 
L 383.514734 55.26144 
L 385.635844 55.26144 
L 385.885386 55.01952 
L 387.133098 55.01952 
L 387.38264 54.7776 
L 389.378978 54.7776 
L 389.628521 54.53568 
L 390.377148 54.53568 
L 390.62669 54.29376 
L 393.246884 54.29376 
L 393.496427 54.05184 
L 397.863417 54.05184 
L 398.112959 53.80992 
L 398.362502 53.80992 
L 398.487273 53.568 
L 398.487273 53.568 
" clip-path="url(#p4cf37ddfb7)" style="fill: none; stroke: #ff0000; stroke-linecap: square"/>
   </g>
   <g id="line2d_14">
    <path d="M 73.832727 295.488 
L 73.957498 295.488 
L 74.08227 294.707613 
L 74.207041 294.707613 
L 74.456583 293.146839 
L 74.706125 289.244903 
L 74.830897 288.464516 
L 75.080439 284.562581 
L 75.20521 283.782194 
L 75.329981 283.782194 
L 75.579523 282.221419 
L 75.953837 282.221419 
L 76.203379 279.880258 
L 76.827235 275.978323 
L 77.076777 273.637161 
L 77.201548 272.856774 
L 77.32632 271.296 
L 77.451091 271.296 
L 77.575862 269.735226 
L 77.700633 269.735226 
L 78.074947 264.272516 
L 78.324489 264.272516 
L 78.44926 262.711742 
L 78.823573 262.711742 
L 78.948345 261.931355 
L 79.073116 261.931355 
L 79.322658 260.370581 
L 79.821743 247.884387 
L 80.445598 237.739355 
L 80.57037 236.178581 
L 80.695141 236.178581 
L 80.819912 233.837419 
L 80.944683 233.837419 
L 81.069454 233.057032 
L 81.194225 233.057032 
L 81.318997 230.715871 
L 81.443768 230.715871 
L 81.568539 229.935484 
L 81.818081 229.935484 
L 82.067624 226.813935 
L 82.81625 226.813935 
L 82.941022 226.033548 
L 83.065793 226.033548 
L 83.190564 225.253161 
L 83.315335 225.253161 
L 83.440106 223.692387 
L 83.564877 223.692387 
L 83.689649 222.131613 
L 83.81442 222.131613 
L 84.063962 215.888516 
L 84.188733 215.108129 
L 84.313504 215.108129 
L 84.438275 213.547355 
L 84.563047 213.547355 
L 84.687818 212.766968 
L 85.062131 212.766968 
L 85.561216 207.304258 
L 85.685987 207.304258 
L 85.810758 205.743484 
L 86.185072 205.743484 
L 86.309843 204.963097 
L 86.559385 202.621935 
L 86.808927 202.621935 
L 86.933699 201.841548 
L 87.05847 201.841548 
L 87.183241 201.061161 
L 87.432783 198.72 
L 87.682325 198.72 
L 87.807097 197.939613 
L 87.931868 197.939613 
L 88.056639 195.598452 
L 88.18141 195.598452 
L 88.306181 194.818065 
L 88.430952 194.818065 
L 88.555724 194.037677 
L 89.054808 188.574968 
L 89.30435 188.574968 
L 89.429122 187.794581 
L 89.553893 187.794581 
L 89.803435 186.233806 
L 89.928206 184.673032 
L 90.052977 184.673032 
L 90.177749 183.892645 
L 90.30252 183.892645 
L 90.427291 183.112258 
L 90.676833 183.112258 
L 90.801604 182.331871 
L 91.051147 179.99071 
L 91.175918 179.210323 
L 91.42546 179.210323 
L 91.799774 175.308387 
L 92.049316 173.747613 
L 92.298858 173.747613 
L 92.423629 172.186839 
L 92.797943 172.186839 
L 92.922714 171.406452 
L 93.047485 171.406452 
L 93.920883 161.261419 
L 94.295197 161.261419 
L 94.544739 158.920258 
L 94.66951 158.139871 
L 95.043824 158.139871 
L 95.418137 155.79871 
L 95.917222 150.336 
L 96.041993 150.336 
L 96.166764 149.555613 
L 96.416306 149.555613 
L 96.541077 148.775226 
L 96.79062 148.775226 
L 96.915391 147.994839 
L 97.164933 145.653677 
L 97.289704 145.653677 
L 97.414476 144.87329 
L 97.539247 144.87329 
L 97.664018 144.092903 
L 97.91356 144.092903 
L 98.163103 142.532129 
L 98.537416 142.532129 
L 98.662187 141.751742 
L 99.036501 141.751742 
L 99.161272 140.971355 
L 99.410814 140.971355 
L 99.535585 139.410581 
L 99.785128 139.410581 
L 99.909899 138.630194 
L 100.159441 138.630194 
L 100.408983 137.069419 
L 100.658526 134.728258 
L 101.531924 134.728258 
L 101.656695 133.947871 
L 101.781466 133.947871 
L 101.906237 133.167484 
L 102.654864 133.167484 
L 102.904406 131.60671 
L 103.153949 131.60671 
L 103.27872 130.826323 
L 103.528262 130.826323 
L 103.902576 128.485161 
L 104.027347 128.485161 
L 104.152118 127.704774 
L 104.276889 127.704774 
L 104.40166 126.924387 
L 104.526431 126.924387 
L 104.651203 126.144 
L 104.900745 126.144 
L 105.150287 124.583226 
L 105.39983 124.583226 
L 105.524601 123.802839 
L 105.649372 123.802839 
L 105.774143 123.022452 
L 106.023685 123.022452 
L 106.397999 120.68129 
L 106.647541 118.340129 
L 106.772312 117.559742 
L 106.897083 117.559742 
L 107.021855 115.218581 
L 107.271397 115.218581 
L 107.520939 112.877419 
L 107.770481 112.877419 
L 108.020024 111.316645 
L 108.269566 111.316645 
L 108.768651 108.195097 
L 109.018193 108.195097 
L 109.142964 107.41471 
L 109.642049 107.41471 
L 109.76682 105.853935 
L 110.265905 105.853935 
L 110.390676 105.073548 
L 111.139303 105.073548 
L 111.264074 104.293161 
L 111.638387 100.391226 
L 111.763158 99.610839 
L 111.88793 99.610839 
L 112.012701 98.830452 
L 112.137472 98.830452 
L 112.262243 98.050065 
L 112.511785 98.050065 
L 112.636556 97.269677 
L 112.886099 97.269677 
L 113.01087 96.48929 
L 113.260412 96.48929 
L 113.634726 94.148129 
L 114.009039 94.148129 
L 114.13381 93.367742 
L 114.383353 93.367742 
L 114.508124 91.806968 
L 114.632895 91.806968 
L 114.757666 90.246194 
L 114.882437 90.246194 
L 115.13198 88.685419 
L 115.506293 88.685419 
L 115.755835 86.344258 
L 115.880607 86.344258 
L 116.130149 83.22271 
L 116.25492 82.442323 
L 116.379691 80.881548 
L 116.629233 80.881548 
L 116.754005 80.101161 
L 116.878776 78.540387 
L 117.003547 78.540387 
L 117.128318 77.76 
L 117.253089 76.199226 
L 117.37786 76.199226 
L 117.502632 75.418839 
L 117.627403 75.418839 
L 117.752174 74.638452 
L 118.251258 69.175742 
L 118.625572 69.175742 
L 118.875114 67.614968 
L 119.374199 67.614968 
L 119.623741 66.054194 
L 119.998055 66.054194 
L 120.247597 64.493419 
L 120.372368 64.493419 
L 120.497139 63.713032 
L 120.746682 63.713032 
L 120.871453 62.932645 
L 121.120995 60.591484 
L 121.245766 59.811097 
L 121.744851 59.811097 
L 121.994393 58.250323 
L 122.243935 58.250323 
L 122.74302 55.128774 
L 122.867791 55.128774 
L 122.992562 54.348387 
L 123.117334 54.348387 
L 123.242105 53.568 
L 398.487273 53.568 
L 398.487273 53.568 
" clip-path="url(#p4cf37ddfb7)" style="fill: none; stroke-dasharray: 1.85,0.8; stroke-dashoffset: 0; stroke: #008000; stroke-width: 0.5"/>
   </g>
   <g id="line2d_15">
    <path d="M 73.832727 295.488 
L 75.080439 295.488 
L 75.20521 294.715093 
L 75.704295 294.715093 
L 75.829066 293.942185 
L 76.203379 293.942185 
L 76.32815 293.169278 
L 76.702464 293.169278 
L 76.827235 292.396371 
L 76.952006 292.396371 
L 77.076777 290.850556 
L 77.32632 290.850556 
L 77.451091 290.077649 
L 77.575862 290.077649 
L 77.700633 288.531834 
L 78.074947 288.531834 
L 78.324489 286.986019 
L 78.574031 286.986019 
L 78.823573 285.440204 
L 78.948345 283.89439 
L 79.073116 283.89439 
L 79.197887 283.121482 
L 79.946514 283.121482 
L 80.071285 282.348575 
L 80.445598 282.348575 
L 80.944683 279.256946 
L 81.69331 279.256946 
L 81.942852 277.711131 
L 82.067624 277.711131 
L 82.192395 276.938224 
L 82.441937 276.938224 
L 82.566708 276.165316 
L 82.941022 272.30078 
L 83.065793 271.527872 
L 83.440106 271.527872 
L 83.564877 270.754965 
L 83.81442 270.754965 
L 84.063962 269.20915 
L 84.188733 269.20915 
L 84.438275 267.663335 
L 84.687818 267.663335 
L 84.812589 266.890428 
L 85.186902 266.890428 
L 85.685987 263.798799 
L 86.0603 263.798799 
L 86.309843 262.252984 
L 87.05847 262.252984 
L 87.183241 261.480077 
L 87.308012 261.480077 
L 87.432783 260.707169 
L 87.557554 260.707169 
L 87.682325 259.934262 
L 87.807097 259.934262 
L 87.931868 258.388447 
L 88.430952 258.388447 
L 88.555724 256.842633 
L 89.054808 256.842633 
L 89.179579 256.069725 
L 89.553893 256.069725 
L 89.803435 254.523911 
L 90.30252 254.523911 
L 90.552062 252.978096 
L 90.926376 252.978096 
L 91.300689 247.567744 
L 91.675002 242.157393 
L 91.799774 240.611578 
L 92.049316 240.611578 
L 92.174087 239.838671 
L 92.298858 238.292856 
L 92.423629 238.292856 
L 92.797943 235.974134 
L 93.172256 235.974134 
L 93.297027 235.201227 
L 93.421799 235.201227 
L 93.671341 233.655412 
L 94.295197 233.655412 
L 94.419968 232.882505 
L 94.544739 231.33669 
L 94.794281 231.33669 
L 94.919052 230.563783 
L 95.168595 230.563783 
L 95.293366 229.790875 
L 95.542908 229.790875 
L 95.667679 229.017968 
L 96.291535 229.017968 
L 96.416306 228.245061 
L 96.665849 228.245061 
L 96.915391 226.699246 
L 97.040162 226.699246 
L 97.164933 225.153431 
L 97.539247 225.153431 
L 97.664018 224.380524 
L 98.038331 224.380524 
L 98.412645 222.061802 
L 98.911729 222.061802 
L 99.036501 221.288895 
L 99.410814 221.288895 
L 99.535585 220.515987 
L 99.785128 220.515987 
L 99.909899 219.74308 
L 100.533754 219.74308 
L 100.783297 218.197265 
L 101.15761 218.197265 
L 101.282381 217.424358 
L 101.407153 217.424358 
L 101.531924 216.65145 
L 101.781466 213.559821 
L 102.031008 213.559821 
L 102.155779 212.786914 
L 102.530093 212.786914 
L 102.654864 211.241099 
L 103.029178 211.241099 
L 103.153949 210.468192 
L 103.403491 210.468192 
L 103.653033 208.14947 
L 103.777804 207.376562 
L 104.40166 207.376562 
L 104.526431 206.603655 
L 105.898914 206.603655 
L 106.023685 205.830748 
L 106.148456 205.830748 
L 106.273228 205.05784 
L 106.772312 205.05784 
L 106.897083 204.284933 
L 107.520939 204.284933 
L 107.64571 203.512026 
L 108.269566 203.512026 
L 108.394337 202.739118 
L 108.768651 202.739118 
L 108.893422 201.966211 
L 109.267735 201.966211 
L 109.392506 201.193304 
L 109.517278 201.193304 
L 109.76682 199.647489 
L 109.891591 199.647489 
L 110.016362 198.874581 
L 110.640218 198.874581 
L 110.764989 198.101674 
L 110.88976 198.101674 
L 111.264074 195.782952 
L 111.513616 195.782952 
L 111.638387 195.010045 
L 112.511785 195.010045 
L 112.636556 194.237137 
L 112.761328 194.237137 
L 113.01087 192.691323 
L 113.385183 192.691323 
L 113.634726 191.145508 
L 114.009039 191.145508 
L 114.258582 189.599693 
L 114.508124 189.599693 
L 114.632895 188.826786 
L 114.757666 188.826786 
L 114.882437 188.053879 
L 115.256751 188.053879 
L 115.381522 186.508064 
L 116.379691 186.508064 
L 116.504462 185.735157 
L 116.629233 185.735157 
L 116.878776 182.643527 
L 117.627403 182.643527 
L 117.752174 181.87062 
L 118.126487 181.87062 
L 118.251258 181.097712 
L 118.625572 181.097712 
L 118.875114 179.551898 
L 119.374199 179.551898 
L 119.49897 178.77899 
L 119.748512 178.77899 
L 119.998055 177.233176 
L 120.122826 177.233176 
L 120.247597 176.460268 
L 120.372368 176.460268 
L 120.497139 175.687361 
L 120.746682 172.595732 
L 120.871453 172.595732 
L 120.996224 171.822824 
L 121.245766 171.822824 
L 121.370537 171.049917 
L 122.368707 171.049917 
L 122.493478 170.27701 
L 122.867791 170.27701 
L 122.992562 169.504102 
L 123.242105 169.504102 
L 123.366876 168.731195 
L 123.990732 168.731195 
L 124.115503 167.958288 
L 124.489816 167.958288 
L 124.739359 165.639565 
L 124.86413 164.866658 
L 125.363214 164.866658 
L 125.487985 164.093751 
L 125.98707 164.093751 
L 126.111841 162.547936 
L 126.361384 162.547936 
L 126.486155 161.775029 
L 127.11001 161.775029 
L 127.234782 161.002121 
L 127.733866 161.002121 
L 127.858637 159.456307 
L 128.357722 159.456307 
L 128.607264 157.910492 
L 129.106349 157.910492 
L 129.23112 157.137585 
L 129.355891 157.137585 
L 129.480662 156.364677 
L 129.605434 156.364677 
L 129.730205 155.59177 
L 130.104518 155.59177 
L 130.229289 154.818863 
L 130.478832 152.500141 
L 130.977916 149.408511 
L 131.102687 149.408511 
L 131.227459 148.635604 
L 131.35223 148.635604 
L 131.477001 147.862696 
L 131.726543 147.862696 
L 131.851314 147.089789 
L 132.100857 147.089789 
L 132.225628 146.316882 
L 132.599941 146.316882 
L 132.724712 145.543974 
L 134.097195 145.543974 
L 134.221966 144.771067 
L 134.845822 144.771067 
L 134.970593 143.99816 
L 135.095364 143.99816 
L 135.220136 143.225252 
L 135.344907 143.225252 
L 135.469678 142.452345 
L 135.968762 142.452345 
L 136.093534 141.679438 
L 136.842161 141.679438 
L 136.966932 140.90653 
L 137.466016 140.90653 
L 137.590788 140.133623 
L 138.464186 140.133623 
L 138.588957 138.587808 
L 140.460524 138.587808 
L 140.585295 137.814901 
L 140.710066 137.814901 
L 140.834838 137.041994 
L 142.456863 137.041994 
L 142.706405 135.496179 
L 142.955947 135.496179 
L 143.080718 134.723272 
L 143.829345 134.723272 
L 143.954116 133.950364 
L 144.078888 133.950364 
L 144.203659 133.177457 
L 146.324768 133.177457 
L 146.44954 132.40455 
L 147.447709 132.40455 
L 147.57248 131.631642 
L 147.946793 131.631642 
L 148.071565 130.858735 
L 148.321107 130.858735 
L 148.445878 129.31292 
L 149.069734 129.31292 
L 149.194505 128.540013 
L 149.943132 128.540013 
L 150.067903 127.767105 
L 151.066072 127.767105 
L 151.190843 126.994198 
L 152.688097 126.994198 
L 152.93764 125.448383 
L 153.935809 125.448383 
L 154.06058 124.675476 
L 155.433063 124.675476 
L 155.807376 122.356754 
L 156.306461 122.356754 
L 156.431232 121.583847 
L 156.680774 121.583847 
L 156.805545 120.810939 
L 156.930317 120.810939 
L 157.055088 120.038032 
L 157.554172 120.038032 
L 157.678943 119.265125 
L 157.928486 119.265125 
L 158.053257 118.492217 
L 158.178028 118.492217 
L 158.302799 117.71931 
L 159.051426 117.71931 
L 159.176197 116.946403 
L 159.42574 116.946403 
L 159.550511 115.400588 
L 159.800053 115.400588 
L 159.924824 114.627681 
L 160.174367 114.627681 
L 160.299138 113.854773 
L 160.423909 113.854773 
L 160.673451 112.308958 
L 161.546849 112.308958 
L 161.67162 111.536051 
L 162.545019 111.536051 
L 162.794561 109.217329 
L 163.418417 109.217329 
L 163.667959 107.671514 
L 164.541357 107.671514 
L 164.790899 106.1257 
L 165.539526 106.1257 
L 165.664297 105.352792 
L 166.662467 105.352792 
L 166.787238 104.579885 
L 167.03678 104.579885 
L 167.161551 103.806978 
L 167.286322 103.806978 
L 167.411094 103.03407 
L 167.535865 103.03407 
L 167.660636 102.261163 
L 168.534034 102.261163 
L 168.783576 100.715348 
L 171.528542 100.715348 
L 171.653313 99.942441 
L 172.651482 99.942441 
L 172.776253 99.169534 
L 173.52488 99.169534 
L 173.649651 98.396626 
L 173.899194 98.396626 
L 174.023965 97.623719 
L 174.398278 97.623719 
L 174.523049 96.850812 
L 175.022134 96.850812 
L 175.146905 96.077904 
L 176.394617 96.077904 
L 176.644159 94.532089 
L 176.76893 94.532089 
L 176.893701 93.759182 
L 177.767099 93.759182 
L 177.891871 92.986275 
L 178.266184 92.986275 
L 178.515726 91.44046 
L 178.765269 91.44046 
L 179.014811 89.894645 
L 179.139582 89.894645 
L 179.264353 88.348831 
L 179.389124 88.348831 
L 179.513896 87.575923 
L 179.638667 87.575923 
L 179.763438 86.803016 
L 180.387294 86.803016 
L 180.512065 86.030109 
L 180.636836 86.030109 
L 180.761607 85.257201 
L 181.011149 85.257201 
L 181.260692 83.711387 
L 181.385463 83.711387 
L 181.510234 82.938479 
L 181.635005 82.938479 
L 181.759776 82.165572 
L 181.884548 82.165572 
L 182.009319 81.392665 
L 182.383632 81.392665 
L 182.508403 80.619757 
L 182.757946 80.619757 
L 182.882717 79.84685 
L 183.132259 79.84685 
L 183.25703 79.073942 
L 183.631344 79.073942 
L 183.880886 76.75522 
L 185.003826 76.75522 
L 185.253369 75.209406 
L 185.877225 75.209406 
L 186.001996 74.436498 
L 186.376309 74.436498 
L 186.625851 72.890684 
L 186.750623 72.890684 
L 186.875394 72.117776 
L 187.000165 72.117776 
L 187.124936 71.344869 
L 187.249707 69.799054 
L 187.624021 69.799054 
L 187.873563 68.25324 
L 189.246046 68.25324 
L 189.370817 67.480332 
L 189.869901 67.480332 
L 189.994673 66.707425 
L 190.868071 66.707425 
L 190.992842 65.934518 
L 191.117613 65.934518 
L 191.242384 65.16161 
L 191.86624 65.16161 
L 191.991011 64.388703 
L 192.739638 64.388703 
L 192.864409 63.615796 
L 193.613036 63.615796 
L 193.737807 62.842888 
L 194.361663 62.842888 
L 194.486434 62.069981 
L 194.735977 62.069981 
L 194.860748 61.297073 
L 195.11029 61.297073 
L 195.235061 60.524166 
L 195.734146 60.524166 
L 195.858917 59.751259 
L 197.2314 59.751259 
L 197.480942 58.205444 
L 198.104798 58.205444 
L 198.229569 57.432537 
L 199.352509 57.432537 
L 199.47728 56.659629 
L 199.602052 56.659629 
L 199.726823 55.886722 
L 199.851594 55.886722 
L 199.976365 55.113815 
L 200.47545 55.113815 
L 200.600221 53.568 
L 398.487273 53.568 
L 398.487273 53.568 
" clip-path="url(#p4cf37ddfb7)" style="fill: none; stroke-dasharray: 1.85,0.8; stroke-dashoffset: 0; stroke: #0000ff; stroke-width: 0.5"/>
   </g>
   <g id="line2d_16">
    <path d="M 73.832727 295.488 
L 77.825404 295.488 
L 77.950175 294.201191 
L 78.948345 294.201191 
L 79.073116 292.914383 
L 80.57037 292.914383 
L 80.695141 291.627574 
L 80.944683 291.627574 
L 81.069454 289.053957 
L 82.691479 289.053957 
L 82.81625 287.767149 
L 84.063962 287.767149 
L 84.188733 286.48034 
L 84.438275 286.48034 
L 84.563047 285.193532 
L 84.687818 285.193532 
L 84.812589 283.906723 
L 86.434614 283.906723 
L 86.559385 282.619915 
L 87.557554 282.619915 
L 87.682325 281.333106 
L 87.807097 281.333106 
L 87.931868 280.046298 
L 88.430952 280.046298 
L 88.555724 278.759489 
L 89.678664 278.759489 
L 89.803435 277.472681 
L 91.42546 277.472681 
L 91.550231 276.185872 
L 92.049316 276.185872 
L 92.174087 274.899064 
L 92.298858 274.899064 
L 92.423629 273.612255 
L 92.797943 273.612255 
L 92.922714 272.325447 
L 95.043824 272.325447 
L 95.168595 271.038638 
L 95.792451 271.038638 
L 95.917222 269.75183 
L 96.541077 269.75183 
L 96.665849 268.465021 
L 96.915391 268.465021 
L 97.040162 267.178213 
L 97.664018 267.178213 
L 97.788789 265.891404 
L 99.036501 265.891404 
L 99.161272 264.604596 
L 99.785128 264.604596 
L 99.909899 263.317787 
L 100.908068 263.317787 
L 101.032839 262.030979 
L 103.153949 262.030979 
L 103.403491 259.457362 
L 103.653033 259.457362 
L 103.777804 258.170553 
L 105.275058 258.170553 
L 105.39983 255.596936 
L 105.649372 255.596936 
L 105.774143 254.310128 
L 106.897083 254.310128 
L 107.021855 253.023319 
L 107.271397 253.023319 
L 107.396168 251.736511 
L 107.770481 251.736511 
L 107.895253 250.449702 
L 108.64388 250.449702 
L 108.768651 247.876085 
L 109.891591 247.876085 
L 110.016362 246.589277 
L 110.141133 246.589277 
L 110.265905 245.302468 
L 111.139303 245.302468 
L 111.264074 244.01566 
L 112.012701 244.01566 
L 112.137472 242.728851 
L 112.387014 238.868426 
L 112.886099 238.868426 
L 113.01087 237.581617 
L 113.509955 237.581617 
L 113.634726 236.294809 
L 114.383353 236.294809 
L 114.508124 235.008 
L 114.632895 235.008 
L 114.757666 233.721191 
L 115.755835 233.721191 
L 115.880607 232.434383 
L 118.500801 232.434383 
L 118.625572 231.147574 
L 119.998055 231.147574 
L 120.122826 229.860766 
L 120.497139 229.860766 
L 120.62191 228.573957 
L 120.871453 228.573957 
L 120.996224 227.287149 
L 123.242105 227.287149 
L 123.366876 226.00034 
L 124.614587 226.00034 
L 124.739359 224.713532 
L 125.862299 224.713532 
L 125.98707 223.426723 
L 126.860468 223.426723 
L 126.985239 222.139915 
L 128.232951 222.139915 
L 128.357722 220.853106 
L 129.730205 220.853106 
L 129.979747 218.279489 
L 131.851314 218.279489 
L 131.976086 216.992681 
L 132.100857 216.992681 
L 132.225628 215.705872 
L 132.350399 215.705872 
L 132.47517 214.419064 
L 133.598111 214.419064 
L 133.722882 213.132255 
L 134.097195 213.132255 
L 134.221966 211.845447 
L 136.467847 211.845447 
L 136.592618 210.558638 
L 137.216474 210.558638 
L 137.341245 209.27183 
L 138.089872 209.27183 
L 138.339414 206.698213 
L 141.333922 206.698213 
L 141.458693 205.411404 
L 147.198166 205.411404 
L 147.322938 204.124596 
L 147.697251 204.124596 
L 147.822022 202.837787 
L 148.69542 202.837787 
L 148.820191 201.550979 
L 150.81653 201.550979 
L 150.941301 200.26417 
L 151.066072 200.26417 
L 151.190843 198.977362 
L 151.93947 198.977362 
L 152.064241 197.690553 
L 154.06058 197.690553 
L 154.310122 195.116936 
L 154.684436 195.116936 
L 154.809207 193.830128 
L 157.30463 193.830128 
L 157.429401 192.543319 
L 157.554172 192.543319 
L 157.678943 191.256511 
L 157.928486 191.256511 
L 158.053257 189.969702 
L 158.178028 189.969702 
L 158.302799 188.682894 
L 162.794561 188.682894 
L 163.044103 186.109277 
L 164.416586 186.109277 
L 164.541357 184.822468 
L 166.787238 184.822468 
L 166.912009 183.53566 
L 167.411094 183.53566 
L 167.535865 182.248851 
L 168.284492 182.248851 
L 168.409263 180.962043 
L 168.783576 180.962043 
L 168.908347 179.675234 
L 169.532203 179.675234 
L 169.656974 178.388426 
L 170.904686 178.388426 
L 171.029457 177.101617 
L 171.278999 177.101617 
L 171.528542 174.528 
L 173.649651 174.528 
L 173.899194 171.954383 
L 178.89004 171.954383 
L 179.014811 170.667574 
L 179.389124 170.667574 
L 179.513896 169.380766 
L 180.01298 169.380766 
L 180.137751 168.093957 
L 180.636836 168.093957 
L 180.761607 166.807149 
L 182.882717 166.807149 
L 183.007488 165.52034 
L 183.631344 165.52034 
L 183.756115 164.233532 
L 185.502911 164.233532 
L 185.627682 162.946723 
L 185.752453 162.946723 
L 185.877225 161.659915 
L 187.998334 161.659915 
L 188.123105 160.373106 
L 189.620359 160.373106 
L 189.74513 159.086298 
L 190.992842 159.086298 
L 191.117613 157.799489 
L 191.242384 157.799489 
L 191.367155 156.512681 
L 191.991011 156.512681 
L 192.115782 153.939064 
L 194.361663 153.939064 
L 194.486434 152.652255 
L 196.108459 152.652255 
L 196.23323 151.365447 
L 196.857086 151.365447 
L 197.106628 148.79183 
L 197.2314 148.79183 
L 197.356171 147.505021 
L 197.480942 147.505021 
L 197.605713 146.218213 
L 200.350678 146.218213 
L 200.47545 144.931404 
L 202.222246 144.931404 
L 202.347017 143.644596 
L 206.090152 143.644596 
L 206.214923 142.357787 
L 212.453481 142.357787 
L 212.578252 141.070979 
L 214.075506 141.070979 
L 214.200277 139.78417 
L 216.6957 139.78417 
L 216.820471 138.497362 
L 217.693869 138.497362 
L 217.81864 137.210553 
L 221.686546 137.210553 
L 221.811317 135.923745 
L 223.308571 135.923745 
L 223.433342 134.636936 
L 228.424188 134.636936 
L 228.54896 133.350128 
L 233.539806 133.350128 
L 233.664577 132.063319 
L 234.03889 132.063319 
L 234.163662 130.776511 
L 235.03706 130.776511 
L 235.161831 129.489702 
L 237.28294 129.489702 
L 237.407712 128.202894 
L 240.152677 128.202894 
L 240.277448 126.916085 
L 245.393065 126.916085 
L 245.517837 125.629277 
L 245.642608 125.629277 
L 245.767379 124.342468 
L 246.141692 124.342468 
L 246.266464 123.05566 
L 249.510514 123.05566 
L 249.635285 121.768851 
L 250.383912 121.768851 
L 250.508683 120.482043 
L 251.382081 120.482043 
L 251.506852 119.195234 
L 252.005937 119.195234 
L 252.130708 117.908426 
L 253.253648 117.908426 
L 253.378419 115.334809 
L 258.119723 115.334809 
L 258.369266 112.761191 
L 258.618808 112.761191 
L 258.743579 111.474383 
L 262.985798 111.474383 
L 263.110569 110.187574 
L 264.607823 110.187574 
L 264.732595 108.900766 
L 267.228018 108.900766 
L 267.352789 107.613957 
L 271.470237 107.613957 
L 271.595008 106.327149 
L 272.343635 106.327149 
L 272.468406 105.04034 
L 272.967491 105.04034 
L 273.092262 103.753532 
L 275.338143 103.753532 
L 275.462914 102.466723 
L 275.712456 102.466723 
L 275.837227 101.179915 
L 277.833566 101.179915 
L 277.958337 99.893106 
L 279.954675 99.893106 
L 280.079447 98.606298 
L 281.951014 98.606298 
L 282.075785 97.319489 
L 289.936368 97.319489 
L 290.061139 96.032681 
L 292.182249 96.032681 
L 292.30702 93.459064 
L 294.552901 93.459064 
L 294.677672 92.172255 
L 295.176756 92.172255 
L 295.301527 90.885447 
L 297.173095 90.885447 
L 297.297866 89.598638 
L 298.919891 89.598638 
L 299.044662 88.31183 
L 299.294204 88.31183 
L 299.418976 87.025021 
L 299.91806 87.025021 
L 300.042831 85.738213 
L 301.041001 85.738213 
L 301.165772 84.451404 
L 301.789628 84.451404 
L 301.914399 83.164596 
L 302.03917 83.164596 
L 302.163941 81.877787 
L 302.787797 81.877787 
L 302.912568 80.590979 
L 305.033678 80.590979 
L 305.158449 79.30417 
L 309.026355 79.30417 
L 309.151126 78.017362 
L 309.400668 78.017362 
L 309.525439 76.730553 
L 309.65021 76.730553 
L 309.774981 75.443745 
L 311.272235 75.443745 
L 311.397006 74.156936 
L 314.391514 74.156936 
L 314.516285 72.870128 
L 314.641057 72.870128 
L 314.765828 71.583319 
L 316.13831 71.583319 
L 316.263082 69.009702 
L 316.387853 69.009702 
L 316.512624 67.722894 
L 323.250266 67.722894 
L 323.375037 66.436085 
L 324.497978 66.436085 
L 324.622749 65.149277 
L 326.494316 65.149277 
L 326.619087 63.862468 
L 326.743859 63.862468 
L 326.86863 62.57566 
L 330.861307 62.57566 
L 330.986078 61.288851 
L 332.608103 61.288851 
L 332.732874 60.002043 
L 336.975093 60.002043 
L 337.099864 57.428426 
L 337.349407 57.428426 
L 337.474178 56.141617 
L 340.718228 56.141617 
L 340.842999 54.854809 
L 343.213651 54.854809 
L 343.338422 53.568 
L 398.487273 53.568 
L 398.487273 53.568 
" clip-path="url(#p4cf37ddfb7)" style="fill: none; stroke-dasharray: 1.85,0.8; stroke-dashoffset: 0; stroke: #bf00bf; stroke-width: 0.5"/>
   </g>
   <g id="line2d_17">
    <path d="M 73.832727 295.488 
L 79.322658 295.488 
L 79.447429 294.208 
L 80.57037 294.208 
L 80.695141 292.928 
L 81.568539 292.928 
L 81.69331 291.648 
L 82.566708 291.648 
L 82.691479 290.368 
L 84.93736 290.368 
L 85.062131 289.088 
L 85.311674 289.088 
L 85.561216 286.528 
L 85.685987 286.528 
L 85.810758 285.248 
L 88.306181 285.248 
L 88.430952 283.968 
L 90.926376 283.968 
L 91.051147 282.688 
L 93.920883 282.688 
L 94.045654 281.408 
L 94.544739 281.408 
L 94.66951 280.128 
L 95.043824 280.128 
L 95.168595 278.848 
L 96.665849 278.848 
L 96.79062 277.568 
L 97.414476 277.568 
L 97.539247 276.288 
L 98.163103 276.288 
L 98.287874 275.008 
L 98.662187 275.008 
L 98.786958 273.728 
L 99.161272 273.728 
L 99.286043 272.448 
L 99.909899 272.448 
L 100.03467 271.168 
L 100.159441 271.168 
L 100.284212 269.888 
L 101.282381 269.888 
L 101.407153 268.608 
L 104.526431 268.608 
L 104.651203 267.328 
L 105.275058 267.328 
L 105.39983 266.048 
L 106.772312 266.048 
L 106.897083 264.768 
L 107.021855 264.768 
L 107.146626 263.488 
L 107.396168 263.488 
L 107.520939 262.208 
L 108.893422 262.208 
L 109.018193 260.928 
L 110.515447 260.928 
L 110.640218 259.648 
L 110.764989 259.648 
L 110.88976 258.368 
L 111.88793 258.368 
L 112.012701 257.088 
L 112.511785 257.088 
L 112.636556 255.808 
L 112.761328 255.808 
L 112.886099 254.528 
L 114.258582 254.528 
L 114.383353 253.248 
L 114.508124 253.248 
L 114.632895 251.968 
L 115.381522 251.968 
L 115.506293 250.688 
L 116.25492 250.688 
L 116.379691 248.128 
L 117.253089 248.128 
L 117.37786 246.848 
L 117.502632 246.848 
L 117.627403 245.568 
L 119.49897 245.568 
L 119.623741 244.288 
L 119.748512 244.288 
L 119.873283 243.008 
L 120.372368 243.008 
L 120.62191 240.448 
L 121.744851 240.448 
L 121.869622 239.168 
L 122.867791 239.168 
L 122.992562 236.608 
L 123.242105 236.608 
L 123.366876 235.328 
L 124.614587 235.328 
L 124.739359 234.048 
L 126.610926 234.048 
L 126.735697 232.768 
L 127.359553 232.768 
L 127.484324 231.488 
L 129.730205 231.488 
L 129.854976 230.208 
L 131.477001 230.208 
L 131.601772 228.928 
L 132.849484 228.928 
L 132.974255 227.648 
L 133.598111 227.648 
L 133.722882 226.368 
L 136.093534 226.368 
L 136.218305 225.088 
L 137.715559 225.088 
L 137.84033 223.808 
L 139.587126 223.808 
L 139.711897 221.248 
L 143.829345 221.248 
L 143.954116 219.968 
L 144.827514 219.968 
L 144.952286 218.688 
L 145.201828 218.688 
L 145.326599 217.408 
L 145.700913 217.408 
L 145.825684 216.128 
L 147.073395 216.128 
L 147.198166 214.848 
L 148.321107 214.848 
L 148.445878 213.568 
L 151.315615 213.568 
L 151.440386 212.288 
L 152.93764 212.288 
L 153.062411 211.008 
L 153.561495 211.008 
L 153.686267 209.728 
L 155.308292 209.728 
L 155.433063 208.448 
L 155.807376 208.448 
L 155.932147 207.168 
L 157.055088 207.168 
L 157.179859 205.888 
L 158.053257 205.888 
L 158.178028 204.608 
L 162.295476 204.608 
L 162.420247 203.328 
L 164.541357 203.328 
L 164.790899 200.768 
L 169.407432 200.768 
L 169.532203 199.488 
L 169.906517 199.488 
L 170.031288 198.208 
L 171.653313 198.208 
L 171.778084 196.928 
L 172.526711 196.928 
L 172.776253 194.368 
L 176.145074 194.368 
L 176.269846 193.088 
L 177.143244 193.088 
L 177.392786 190.528 
L 178.266184 190.528 
L 178.390955 189.248 
L 179.014811 189.248 
L 179.264353 186.688 
L 181.260692 186.688 
L 181.385463 185.408 
L 185.877225 185.408 
L 186.001996 184.128 
L 187.873563 184.128 
L 187.998334 182.848 
L 189.246046 182.848 
L 189.370817 181.568 
L 190.7433 181.568 
L 190.868071 180.288 
L 192.365325 180.288 
L 192.490096 179.008 
L 193.238723 179.008 
L 193.363494 177.728 
L 195.11029 177.728 
L 195.235061 176.448 
L 195.734146 176.448 
L 195.858917 175.168 
L 197.356171 175.168 
L 197.480942 173.888 
L 201.348848 173.888 
L 201.473619 172.608 
L 202.846102 172.608 
L 202.970873 171.328 
L 203.469957 171.328 
L 203.594729 170.048 
L 204.717669 170.048 
L 204.84244 168.768 
L 207.088321 168.768 
L 207.213092 167.488 
L 207.462634 167.488 
L 207.587405 166.208 
L 207.712177 166.208 
L 207.836948 164.928 
L 209.583744 164.928 
L 209.708515 163.648 
L 210.082829 163.648 
L 210.2076 162.368 
L 211.080998 162.368 
L 211.205769 161.088 
L 213.825963 161.088 
L 214.075506 158.528 
L 214.948904 158.528 
L 215.073675 157.248 
L 215.947073 157.248 
L 216.071844 155.968 
L 218.317725 155.968 
L 218.442496 154.688 
L 218.941581 154.688 
L 219.066352 153.408 
L 219.440665 153.408 
L 219.565436 152.128 
L 222.809486 152.128 
L 222.934258 149.568 
L 223.1838 149.568 
L 223.308571 148.288 
L 223.932427 148.288 
L 224.057198 147.008 
L 229.796671 147.008 
L 229.921442 145.728 
L 230.295756 145.728 
L 230.420527 144.448 
L 234.163662 144.448 
L 234.288433 143.168 
L 241.026075 143.168 
L 241.150846 141.888 
L 241.400389 141.888 
L 241.52516 140.608 
L 244.270125 140.608 
L 244.394896 139.328 
L 245.268294 139.328 
L 245.393065 138.048 
L 249.510514 138.048 
L 249.635285 136.768 
L 253.503191 136.768 
L 253.627962 135.488 
L 254.750902 135.488 
L 254.875673 134.208 
L 265.106908 134.208 
L 265.231679 132.928 
L 267.228018 132.928 
L 267.352789 131.648 
L 269.099585 131.648 
L 269.224356 130.368 
L 270.347296 130.368 
L 270.472068 129.088 
L 273.840889 129.088 
L 273.96566 127.808 
L 278.33265 127.808 
L 278.457422 126.528 
L 281.202387 126.528 
L 281.327158 125.248 
L 282.57487 125.248 
L 282.699641 123.968 
L 286.193233 123.968 
L 286.318004 122.688 
L 286.692318 122.688 
L 286.817089 121.408 
L 289.811597 121.408 
L 290.061139 118.848 
L 290.684995 118.848 
L 290.809766 117.568 
L 293.305189 117.568 
L 293.554731 115.008 
L 294.677672 115.008 
L 294.802443 113.728 
L 298.420806 113.728 
L 298.545578 112.448 
L 301.415314 112.448 
L 301.540085 111.168 
L 304.285051 111.168 
L 304.409822 108.608 
L 311.272235 108.608 
L 311.397006 107.328 
L 315.389683 107.328 
L 315.514455 106.048 
L 316.387853 106.048 
L 316.512624 104.768 
L 318.508962 104.768 
L 318.633733 103.488 
L 320.130987 103.488 
L 320.255759 102.208 
L 323.998893 102.208 
L 324.123664 100.928 
L 326.743859 100.928 
L 326.86863 99.648 
L 328.740197 99.648 
L 328.864968 98.368 
L 331.734705 98.368 
L 331.859476 97.088 
L 334.354899 97.088 
L 334.47967 95.808 
L 338.222805 95.808 
L 338.347576 94.528 
L 339.470516 94.528 
L 339.720059 91.968 
L 344.21182 91.968 
L 344.336591 90.688 
L 345.459532 90.688 
L 345.584303 89.408 
L 346.083388 89.408 
L 346.208159 88.128 
L 348.953124 88.128 
L 349.077895 86.848 
L 350.824691 86.848 
L 350.949463 85.568 
L 353.070572 85.568 
L 353.195343 83.008 
L 353.444886 83.008 
L 353.569657 81.728 
L 354.318284 81.728 
L 354.443055 80.448 
L 355.690767 80.448 
L 355.815538 79.168 
L 357.687105 79.168 
L 357.811876 77.888 
L 358.061418 77.888 
L 358.18619 76.608 
L 359.558672 76.608 
L 359.683444 75.328 
L 362.428409 75.328 
L 362.55318 74.048 
L 363.301807 74.048 
L 363.426578 72.768 
L 364.799061 72.768 
L 364.923832 71.488 
L 366.046772 71.488 
L 366.171544 70.208 
L 367.793569 70.208 
L 367.91834 68.928 
L 372.160559 68.928 
L 372.28533 67.648 
L 377.775261 67.648 
L 377.900032 66.368 
L 378.523888 66.368 
L 378.648659 65.088 
L 381.019311 65.088 
L 381.144082 63.808 
L 383.265192 63.808 
L 383.389963 62.528 
L 385.635844 62.528 
L 385.760615 61.248 
L 387.133098 61.248 
L 387.257869 59.968 
L 389.378978 59.968 
L 389.50375 58.688 
L 390.377148 58.688 
L 390.501919 57.408 
L 393.246884 57.408 
L 393.371655 56.128 
L 397.863417 56.128 
L 397.988188 54.848 
L 398.362502 54.848 
L 398.487273 53.568 
L 398.487273 53.568 
" clip-path="url(#p4cf37ddfb7)" style="fill: none; stroke-dasharray: 1.85,0.8; stroke-dashoffset: 0; stroke: #bfbf00; stroke-width: 0.5"/>
   </g>
   <g id="patch_3">
    <path d="M 57.6 307.584 
L 57.6 41.472 
" style="fill: none; stroke: #000000; stroke-width: 0.8; stroke-linejoin: miter; stroke-linecap: square"/>
   </g>
   <g id="patch_4">
    <path d="M 414.72 307.584 
L 414.72 41.472 
" style="fill: none; stroke: #000000; stroke-width: 0.8; stroke-linejoin: miter; stroke-linecap: square"/>
   </g>
   <g id="patch_5">
    <path d="M 57.6 307.584 
L 414.72 307.584 
" style="fill: none; stroke: #000000; stroke-width: 0.8; stroke-linejoin: miter; stroke-linecap: square"/>
   </g>
   <g id="patch_6">
    <path d="M 57.6 41.472 
L 414.72 41.472 
" style="fill: none; stroke: #000000; stroke-width: 0.8; stroke-linejoin: miter; stroke-linecap: square"/>
   </g>
   <g id="text_15">
    <!-- count=1000, googlenet=125, resnet50=75, squeezenetv1=125, vgg19=75 -->
    <g transform="translate(38.16 35.472)scale(0.12 -0.12)">
     <defs>
      <path id="FangSong-63" d="M 2125 2125 
Q 2125 2200 2137 2225 
Q 2150 2250 2175 2325 
Q 2200 2425 2075 2562 
Q 1950 2700 1650 2700 
Q 1275 2700 1012 2337 
Q 750 1975 750 1375 
Q 750 825 975 487 
Q 1200 150 1725 150 
Q 2075 150 2312 375 
Q 2550 600 2650 900 
L 2775 850 
Q 2675 475 2400 212 
Q 2125 -50 1650 -50 
Q 1050 -50 700 325 
Q 350 700 350 1400 
Q 350 2025 725 2437 
Q 1100 2850 1700 2850 
Q 2125 2850 2362 2625 
Q 2600 2400 2600 2175 
Q 2600 2025 2537 1962 
Q 2475 1900 2350 1900 
Q 2250 1900 2187 1962 
Q 2125 2025 2125 2125 
z
" transform="scale(0.015625)"/>
      <path id="FangSong-6f" d="M 2875 1400 
Q 2875 775 2500 362 
Q 2125 -50 1575 -50 
Q 1000 -50 637 375 
Q 275 800 275 1400 
Q 275 1950 637 2400 
Q 1000 2850 1575 2850 
Q 2175 2850 2525 2400 
Q 2875 1950 2875 1400 
z
M 675 1375 
Q 675 725 937 412 
Q 1200 100 1575 100 
Q 2000 100 2237 437 
Q 2475 775 2475 1375 
Q 2475 2025 2212 2362 
Q 1950 2700 1575 2700 
Q 1225 2700 950 2362 
Q 675 2025 675 1375 
z
" transform="scale(0.015625)"/>
      <path id="FangSong-75" d="M 1425 225 
Q 1725 225 1937 375 
Q 2150 525 2250 850 
L 2250 2425 
Q 2250 2525 2200 2587 
Q 2150 2650 2025 2650 
L 1875 2650 
L 1875 2800 
L 2025 2800 
Q 2175 2800 2300 2825 
Q 2425 2850 2550 2950 
L 2600 2950 
L 2600 500 
Q 2600 400 2662 350 
Q 2725 300 2825 300 
L 2975 300 
L 2975 150 
L 2825 150 
Q 2700 150 2575 112 
Q 2450 75 2300 0 
L 2250 0 
L 2250 525 
Q 2125 250 1875 112 
Q 1625 -25 1300 -25 
Q 900 -25 700 200 
Q 500 425 500 925 
L 500 2425 
Q 500 2525 450 2587 
Q 400 2650 275 2650 
L 125 2650 
L 125 2800 
L 275 2800 
Q 425 2800 550 2825 
Q 675 2850 800 2950 
L 850 2950 
L 850 875 
Q 850 525 1000 375 
Q 1150 225 1425 225 
z
" transform="scale(0.015625)"/>
      <path id="FangSong-6e" d="M 175 0 
L 175 150 
L 300 150 
Q 425 150 475 200 
Q 525 250 525 350 
L 525 2500 
Q 525 2575 500 2612 
Q 475 2650 400 2650 
L 200 2650 
L 200 2800 
L 375 2800 
Q 500 2800 612 2825 
Q 725 2850 825 2925 
L 875 2925 
L 875 2350 
Q 1100 2600 1325 2725 
Q 1550 2850 1800 2850 
Q 2225 2850 2425 2625 
Q 2625 2400 2625 1950 
L 2625 350 
Q 2625 250 2687 200 
Q 2750 150 2850 150 
L 2975 150 
L 2975 0 
L 1925 0 
L 1925 150 
L 2050 150 
Q 2175 150 2225 200 
Q 2275 250 2275 350 
L 2275 2025 
Q 2275 2325 2150 2487 
Q 2025 2650 1775 2650 
Q 1550 2650 1312 2500 
Q 1075 2350 875 2075 
L 875 350 
Q 875 250 937 200 
Q 1000 150 1100 150 
L 1225 150 
L 1225 0 
L 175 0 
z
" transform="scale(0.015625)"/>
      <path id="FangSong-74" d="M 1475 800 
Q 1475 450 1600 325 
Q 1725 200 1975 200 
Q 2225 200 2375 362 
Q 2525 525 2575 825 
L 2700 775 
Q 2650 425 2437 200 
Q 2225 -25 1875 -25 
Q 1500 -25 1312 200 
Q 1125 425 1125 900 
L 1125 2650 
L 375 2650 
L 375 2800 
L 575 2800 
Q 875 2800 1062 2987 
Q 1250 3175 1300 3575 
L 1325 3775 
L 1475 3775 
L 1475 2800 
L 2475 2800 
L 2475 2650 
L 1475 2650 
L 1475 800 
z
" transform="scale(0.015625)"/>
      <path id="FangSong-3d" d="M 175 2725 
L 175 2950 
L 2950 2950 
L 2950 2725 
L 175 2725 
z
M 175 1450 
L 175 1675 
L 2950 1675 
L 2950 1450 
L 175 1450 
z
" transform="scale(0.015625)"/>
      <path id="FangSong-2c" d="M 1325 75 
Q 1200 25 1100 75 
Q 1000 125 962 237 
Q 925 350 925 437 
Q 925 525 987 612 
Q 1050 700 1150 737 
Q 1250 775 1425 725 
Q 1600 675 1650 500 
Q 1700 325 1662 150 
Q 1625 -25 1525 -200 
Q 1425 -375 1312 -475 
Q 1200 -575 1025 -675 
L 950 -575 
Q 1100 -450 1187 -312 
Q 1275 -175 1325 75 
z
" transform="scale(0.015625)"/>
      <path id="FangSong-20" transform="scale(0.015625)"/>
      <path id="FangSong-67" d="M 850 1875 
Q 850 1575 1025 1362 
Q 1200 1150 1500 1150 
Q 1825 1150 1987 1337 
Q 2150 1525 2150 1875 
Q 2150 2300 1962 2487 
Q 1775 2675 1500 2675 
Q 1225 2675 1037 2487 
Q 850 2300 850 1875 
z
M 2075 525 
Q 2450 475 2625 312 
Q 2800 150 2800 -125 
Q 2800 -500 2487 -725 
Q 2175 -950 1500 -950 
Q 975 -950 650 -737 
Q 325 -525 325 -250 
Q 325 -75 450 100 
Q 575 275 850 375 
Q 700 450 612 537 
Q 525 625 525 750 
Q 525 900 625 1012 
Q 725 1125 875 1200 
Q 725 1325 612 1500 
Q 500 1675 500 1875 
Q 500 2250 762 2537 
Q 1025 2825 1500 2825 
Q 1700 2825 1887 2775 
Q 2075 2725 2200 2600 
Q 2375 2725 2512 2787 
Q 2650 2850 2750 2850 
Q 2875 2850 2925 2762 
Q 2975 2675 2975 2600 
Q 2975 2500 2937 2437 
Q 2900 2375 2800 2375 
Q 2725 2375 2675 2412 
Q 2625 2450 2600 2525 
Q 2575 2600 2487 2587 
Q 2400 2575 2300 2500 
Q 2400 2400 2450 2225 
Q 2500 2050 2500 1875 
Q 2500 1575 2262 1287 
Q 2025 1000 1500 1000 
Q 1350 1000 1225 1037 
Q 1100 1075 1025 1125 
Q 925 1075 875 1000 
Q 825 925 825 875 
Q 825 775 875 725 
Q 925 675 1025 675 
Q 1350 625 1612 587 
Q 1875 550 2075 525 
z
M 1050 325 
Q 825 225 737 87 
Q 650 -50 650 -250 
Q 650 -450 875 -625 
Q 1100 -800 1550 -800 
Q 1975 -800 2225 -662 
Q 2475 -525 2475 -250 
Q 2475 -75 2412 25 
Q 2350 125 2225 150 
Q 1975 200 1675 237 
Q 1375 275 1050 325 
z
" transform="scale(0.015625)"/>
      <path id="FangSong-6c" d="M 900 4275 
Q 1125 4275 1325 4325 
Q 1525 4375 1700 4475 
L 1750 4475 
L 1750 350 
Q 1750 250 1812 200 
Q 1875 150 1975 150 
L 2550 150 
L 2550 0 
L 600 0 
L 600 150 
L 1175 150 
Q 1300 150 1350 200 
Q 1400 250 1400 350 
L 1400 3925 
Q 1400 4025 1350 4075 
Q 1300 4125 1175 4125 
L 625 4125 
L 625 4275 
L 900 4275 
z
" transform="scale(0.015625)"/>
      <path id="FangSong-65" d="M 2375 1550 
Q 2400 2100 2187 2387 
Q 1975 2675 1625 2675 
Q 1250 2675 1012 2375 
Q 775 2075 775 1550 
L 2375 1550 
z
M 775 1400 
Q 775 725 1037 437 
Q 1300 150 1725 150 
Q 2050 150 2275 337 
Q 2500 525 2600 800 
L 2725 750 
Q 2650 475 2387 212 
Q 2125 -50 1675 -50 
Q 1100 -50 737 325 
Q 375 700 375 1400 
Q 375 2025 737 2437 
Q 1100 2850 1625 2850 
Q 2100 2850 2450 2525 
Q 2800 2200 2800 1400 
L 775 1400 
z
" transform="scale(0.015625)"/>
      <path id="FangSong-72" d="M 1250 2025 
Q 1500 2425 1787 2637 
Q 2075 2850 2375 2850 
Q 2625 2850 2762 2737 
Q 2900 2625 2900 2475 
Q 2900 2350 2837 2275 
Q 2775 2200 2650 2200 
Q 2525 2200 2462 2275 
Q 2400 2350 2425 2475 
Q 2425 2550 2400 2600 
Q 2375 2650 2250 2650 
Q 2050 2650 1762 2400 
Q 1475 2150 1250 1700 
L 1250 350 
Q 1250 250 1312 200 
Q 1375 150 1475 150 
L 2025 150 
L 2025 0 
L 175 0 
L 175 150 
L 675 150 
Q 800 150 850 200 
Q 900 250 900 350 
L 900 2425 
Q 900 2525 850 2587 
Q 800 2650 675 2650 
L 200 2650 
L 200 2800 
L 400 2800 
Q 575 2800 812 2837 
Q 1050 2875 1175 2925 
L 1250 2925 
L 1250 2025 
z
" transform="scale(0.015625)"/>
      <path id="FangSong-73" d="M 600 2075 
Q 600 2450 887 2650 
Q 1175 2850 1575 2850 
Q 1800 2850 2000 2787 
Q 2200 2725 2275 2725 
Q 2350 2725 2400 2750 
Q 2450 2775 2525 2850 
L 2625 2025 
L 2475 2000 
Q 2375 2325 2137 2512 
Q 1900 2700 1600 2700 
Q 1275 2700 1087 2575 
Q 900 2450 900 2225 
Q 900 2025 987 1912 
Q 1075 1800 1300 1750 
Q 1475 1675 1737 1587 
Q 2000 1500 2225 1400 
Q 2425 1300 2562 1137 
Q 2700 975 2700 775 
Q 2700 400 2437 187 
Q 2175 -25 1675 -25 
Q 1350 -25 1187 37 
Q 1025 100 925 100 
Q 850 100 762 62 
Q 675 25 575 -25 
L 500 900 
L 650 925 
Q 725 525 975 325 
Q 1225 125 1675 125 
Q 2025 125 2212 250 
Q 2400 375 2400 625 
Q 2400 800 2300 912 
Q 2200 1025 2100 1075 
Q 1850 1175 1550 1287 
Q 1250 1400 1025 1500 
Q 800 1600 700 1750 
Q 600 1900 600 2075 
z
" transform="scale(0.015625)"/>
      <path id="FangSong-37" d="M 2800 4100 
Q 2275 3250 1962 2437 
Q 1650 1625 1650 1025 
Q 1650 925 1662 737 
Q 1675 550 1675 300 
Q 1675 100 1612 25 
Q 1550 -50 1400 -50 
Q 1275 -50 1187 37 
Q 1100 125 1100 350 
Q 1100 825 1312 1525 
Q 1525 2225 2450 3900 
L 1200 3900 
Q 925 3900 762 3725 
Q 600 3550 525 3200 
L 375 3225 
L 550 4275 
L 2800 4275 
L 2800 4100 
z
" transform="scale(0.015625)"/>
      <path id="FangSong-71" d="M 2250 2150 
Q 2150 2375 1975 2512 
Q 1800 2650 1550 2650 
Q 1200 2650 950 2350 
Q 700 2050 700 1325 
Q 700 700 912 437 
Q 1125 175 1450 175 
Q 1725 175 1937 300 
Q 2150 425 2250 725 
L 2250 2150 
z
M 2600 -550 
Q 2600 -675 2662 -725 
Q 2725 -775 2825 -775 
L 2975 -775 
L 2975 -925 
L 1825 -925 
L 1825 -775 
L 2025 -775 
Q 2150 -775 2200 -725 
Q 2250 -675 2250 -550 
L 2250 375 
Q 2100 175 1887 75 
Q 1675 -25 1375 -25 
Q 950 -25 625 337 
Q 300 700 300 1400 
Q 300 2075 675 2450 
Q 1050 2825 1475 2825 
Q 1750 2825 1937 2725 
Q 2125 2625 2275 2475 
L 2500 2800 
L 2600 2800 
L 2600 -550 
z
" transform="scale(0.015625)"/>
      <path id="FangSong-7a" d="M 2725 975 
L 2550 0 
L 400 0 
L 400 125 
L 2125 2650 
L 1200 2650 
Q 975 2650 825 2487 
Q 675 2325 575 1925 
L 425 1950 
L 525 2800 
L 2575 2800 
L 2575 2725 
L 825 150 
L 1775 150 
Q 2100 150 2287 350 
Q 2475 550 2575 1000 
L 2725 975 
z
" transform="scale(0.015625)"/>
      <path id="FangSong-76" d="M 1600 -25 
L 1450 -25 
L 600 2425 
Q 575 2525 500 2587 
Q 425 2650 325 2650 
L 200 2650 
L 200 2800 
L 1275 2800 
L 1275 2650 
L 1175 2650 
Q 1025 2650 987 2575 
Q 950 2500 1000 2325 
L 1600 575 
L 1650 575 
L 2250 2300 
Q 2325 2475 2262 2562 
Q 2200 2650 2050 2650 
L 2000 2650 
L 2000 2800 
L 2900 2800 
L 2900 2650 
L 2850 2650 
Q 2700 2650 2612 2562 
Q 2525 2475 2450 2300 
L 1600 -25 
z
" transform="scale(0.015625)"/>
      <path id="FangSong-39" d="M 675 2950 
Q 675 2400 887 2112 
Q 1100 1825 1425 1825 
Q 1800 1825 2075 2175 
Q 2350 2525 2350 2825 
Q 2350 3425 2150 3787 
Q 1950 4150 1500 4150 
Q 1075 4150 875 3812 
Q 675 3475 675 2950 
z
M 1350 1600 
Q 850 1600 550 1912 
Q 250 2225 250 2925 
Q 250 3525 575 3925 
Q 900 4325 1500 4325 
Q 2125 4325 2475 3825 
Q 2825 3325 2825 2375 
Q 2825 1325 2412 637 
Q 2000 -50 1275 -50 
Q 950 -50 712 100 
Q 475 250 475 500 
Q 475 600 537 700 
Q 600 800 750 800 
Q 900 800 950 687 
Q 1000 575 1000 425 
Q 1000 325 1025 262 
Q 1050 200 1075 175 
Q 1100 150 1162 137 
Q 1225 125 1300 125 
Q 1750 125 2025 625 
Q 2300 1125 2350 2300 
Q 2225 2000 1975 1800 
Q 1725 1600 1350 1600 
z
" transform="scale(0.015625)"/>
     </defs>
     <use xlink:href="#FangSong-63"/>
     <use xlink:href="#FangSong-6f" x="50"/>
     <use xlink:href="#FangSong-75" x="100"/>
     <use xlink:href="#FangSong-6e" x="150"/>
     <use xlink:href="#FangSong-74" x="200"/>
     <use xlink:href="#FangSong-3d" x="250"/>
     <use xlink:href="#FangSong-31" x="300"/>
     <use xlink:href="#FangSong-30" x="350"/>
     <use xlink:href="#FangSong-30" x="400"/>
     <use xlink:href="#FangSong-30" x="450"/>
     <use xlink:href="#FangSong-2c" x="500"/>
     <use xlink:href="#FangSong-20" x="550"/>
     <use xlink:href="#FangSong-67" x="600"/>
     <use xlink:href="#FangSong-6f" x="650"/>
     <use xlink:href="#FangSong-6f" x="700"/>
     <use xlink:href="#FangSong-67" x="750"/>
     <use xlink:href="#FangSong-6c" x="800"/>
     <use xlink:href="#FangSong-65" x="850"/>
     <use xlink:href="#FangSong-6e" x="900"/>
     <use xlink:href="#FangSong-65" x="950"/>
     <use xlink:href="#FangSong-74" x="1000"/>
     <use xlink:href="#FangSong-3d" x="1050"/>
     <use xlink:href="#FangSong-31" x="1100"/>
     <use xlink:href="#FangSong-32" x="1150"/>
     <use xlink:href="#FangSong-35" x="1200"/>
     <use xlink:href="#FangSong-2c" x="1250"/>
     <use xlink:href="#FangSong-20" x="1300"/>
     <use xlink:href="#FangSong-72" x="1350"/>
     <use xlink:href="#FangSong-65" x="1400"/>
     <use xlink:href="#FangSong-73" x="1450"/>
     <use xlink:href="#FangSong-6e" x="1500"/>
     <use xlink:href="#FangSong-65" x="1550"/>
     <use xlink:href="#FangSong-74" x="1600"/>
     <use xlink:href="#FangSong-35" x="1650"/>
     <use xlink:href="#FangSong-30" x="1700"/>
     <use xlink:href="#FangSong-3d" x="1750"/>
     <use xlink:href="#FangSong-37" x="1800"/>
     <use xlink:href="#FangSong-35" x="1850"/>
     <use xlink:href="#FangSong-2c" x="1900"/>
     <use xlink:href="#FangSong-20" x="1950"/>
     <use xlink:href="#FangSong-73" x="2000"/>
     <use xlink:href="#FangSong-71" x="2050"/>
     <use xlink:href="#FangSong-75" x="2100"/>
     <use xlink:href="#FangSong-65" x="2150"/>
     <use xlink:href="#FangSong-65" x="2200"/>
     <use xlink:href="#FangSong-7a" x="2250"/>
     <use xlink:href="#FangSong-65" x="2300"/>
     <use xlink:href="#FangSong-6e" x="2350"/>
     <use xlink:href="#FangSong-65" x="2400"/>
     <use xlink:href="#FangSong-74" x="2450"/>
     <use xlink:href="#FangSong-76" x="2500"/>
     <use xlink:href="#FangSong-31" x="2550"/>
     <use xlink:href="#FangSong-3d" x="2600"/>
     <use xlink:href="#FangSong-31" x="2650"/>
     <use xlink:href="#FangSong-32" x="2700"/>
     <use xlink:href="#FangSong-35" x="2750"/>
     <use xlink:href="#FangSong-2c" x="2800"/>
     <use xlink:href="#FangSong-20" x="2850"/>
     <use xlink:href="#FangSong-76" x="2900"/>
     <use xlink:href="#FangSong-67" x="2950"/>
     <use xlink:href="#FangSong-67" x="3000"/>
     <use xlink:href="#FangSong-31" x="3050"/>
     <use xlink:href="#FangSong-39" x="3100"/>
     <use xlink:href="#FangSong-3d" x="3150"/>
     <use xlink:href="#FangSong-37" x="3200"/>
     <use xlink:href="#FangSong-35" x="3250"/>
    </g>
   </g>
   <g id="legend_1">
    <g id="patch_7">
     <path d="M 315.72 302.584 
L 407.72 302.584 
Q 409.72 302.584 409.72 300.584 
L 409.72 234.279312 
Q 409.72 232.279312 407.72 232.279312 
L 315.72 232.279312 
Q 313.72 232.279312 313.72 234.279312 
L 313.72 300.584 
Q 313.72 302.584 315.72 302.584 
z
" style="fill: #ffffff; opacity: 0.8; stroke: #cccccc; stroke-linejoin: miter"/>
    </g>
    <g id="line2d_18">
     <path d="M 317.72 239.779312 
L 327.72 239.779312 
L 337.72 239.779312 
" style="fill: none; stroke: #ff0000; stroke-linecap: square"/>
    </g>
    <g id="text_16">
     <!-- total -->
     <g transform="translate(345.72 243.279312)scale(0.1 -0.1)">
      <defs>
       <path id="FangSong-61" d="M 1200 -25 
Q 750 -25 500 187 
Q 250 400 250 675 
Q 250 1125 637 1412 
Q 1025 1700 2175 1825 
L 2175 2125 
Q 2175 2375 2062 2537 
Q 1950 2700 1550 2700 
Q 1125 2700 950 2562 
Q 775 2425 825 2275 
Q 875 2175 825 2075 
Q 775 1975 625 1975 
Q 525 1975 462 2037 
Q 400 2100 400 2225 
Q 400 2450 725 2650 
Q 1050 2850 1525 2850 
Q 2025 2850 2275 2662 
Q 2525 2475 2525 2125 
L 2525 475 
Q 2525 275 2562 237 
Q 2600 200 2700 200 
Q 2825 200 2875 312 
Q 2925 425 2925 625 
L 3050 625 
Q 3050 275 2925 137 
Q 2800 0 2600 0 
Q 2425 0 2325 75 
Q 2225 150 2175 325 
Q 1925 150 1712 62 
Q 1500 -25 1200 -25 
z
M 675 750 
Q 675 525 812 337 
Q 950 150 1250 150 
Q 1475 150 1700 237 
Q 1925 325 2175 500 
L 2175 1675 
Q 1325 1575 1000 1337 
Q 675 1100 675 750 
z
" transform="scale(0.015625)"/>
      </defs>
      <use xlink:href="#FangSong-74"/>
      <use xlink:href="#FangSong-6f" x="50"/>
      <use xlink:href="#FangSong-74" x="100"/>
      <use xlink:href="#FangSong-61" x="150"/>
      <use xlink:href="#FangSong-6c" x="200"/>
     </g>
    </g>
    <g id="line2d_19">
     <path d="M 317.72 253.224625 
L 327.72 253.224625 
L 337.72 253.224625 
" style="fill: none; stroke-dasharray: 1.85,0.8; stroke-dashoffset: 0; stroke: #008000; stroke-width: 0.5"/>
    </g>
    <g id="text_17">
     <!-- vgg19 -->
     <g transform="translate(345.72 256.724625)scale(0.1 -0.1)">
      <use xlink:href="#FangSong-76"/>
      <use xlink:href="#FangSong-67" x="50"/>
      <use xlink:href="#FangSong-67" x="100"/>
      <use xlink:href="#FangSong-31" x="150"/>
      <use xlink:href="#FangSong-39" x="200"/>
     </g>
    </g>
    <g id="line2d_20">
     <path d="M 317.72 266.709 
L 327.72 266.709 
L 337.72 266.709 
" style="fill: none; stroke-dasharray: 1.85,0.8; stroke-dashoffset: 0; stroke: #0000ff; stroke-width: 0.5"/>
    </g>
    <g id="text_18">
     <!-- resnet50 -->
     <g transform="translate(345.72 270.209)scale(0.1 -0.1)">
      <use xlink:href="#FangSong-72"/>
      <use xlink:href="#FangSong-65" x="50"/>
      <use xlink:href="#FangSong-73" x="100"/>
      <use xlink:href="#FangSong-6e" x="150"/>
      <use xlink:href="#FangSong-65" x="200"/>
      <use xlink:href="#FangSong-74" x="250"/>
      <use xlink:href="#FangSong-35" x="300"/>
      <use xlink:href="#FangSong-30" x="350"/>
     </g>
    </g>
    <g id="line2d_21">
     <path d="M 317.72 280.154312 
L 327.72 280.154312 
L 337.72 280.154312 
" style="fill: none; stroke-dasharray: 1.85,0.8; stroke-dashoffset: 0; stroke: #bf00bf; stroke-width: 0.5"/>
    </g>
    <g id="text_19">
     <!-- googlenet -->
     <g transform="translate(345.72 283.654312)scale(0.1 -0.1)">
      <use xlink:href="#FangSong-67"/>
      <use xlink:href="#FangSong-6f" x="50"/>
      <use xlink:href="#FangSong-6f" x="100"/>
      <use xlink:href="#FangSong-67" x="150"/>
      <use xlink:href="#FangSong-6c" x="200"/>
      <use xlink:href="#FangSong-65" x="250"/>
      <use xlink:href="#FangSong-6e" x="300"/>
      <use xlink:href="#FangSong-65" x="350"/>
      <use xlink:href="#FangSong-74" x="400"/>
     </g>
    </g>
    <g id="line2d_22">
     <path d="M 317.72 293.638687 
L 327.72 293.638687 
L 337.72 293.638687 
" style="fill: none; stroke-dasharray: 1.85,0.8; stroke-dashoffset: 0; stroke: #bfbf00; stroke-width: 0.5"/>
    </g>
    <g id="text_20">
     <!-- squeezenetv1 -->
     <g transform="translate(345.72 297.138687)scale(0.1 -0.1)">
      <use xlink:href="#FangSong-73"/>
      <use xlink:href="#FangSong-71" x="50"/>
      <use xlink:href="#FangSong-75" x="100"/>
      <use xlink:href="#FangSong-65" x="150"/>
      <use xlink:href="#FangSong-65" x="200"/>
      <use xlink:href="#FangSong-7a" x="250"/>
      <use xlink:href="#FangSong-65" x="300"/>
      <use xlink:href="#FangSong-6e" x="350"/>
      <use xlink:href="#FangSong-65" x="400"/>
      <use xlink:href="#FangSong-74" x="450"/>
      <use xlink:href="#FangSong-76" x="500"/>
      <use xlink:href="#FangSong-31" x="550"/>
     </g>
    </g>
   </g>
  </g>
 </g>
 <defs>
  <clipPath id="p4cf37ddfb7">
   <rect x="57.6" y="41.472" width="357.12" height="266.112"/>
  </clipPath>
 </defs>
</svg>
