<?xml version="1.0" encoding="utf-8" standalone="no"?>
<!DOCTYPE svg PUBLIC "-//W3C//DTD SVG 1.1//EN"
  "http://www.w3.org/Graphics/SVG/1.1/DTD/svg11.dtd">
<svg xmlns:xlink="http://www.w3.org/1999/xlink" width="460.8pt" height="345.6pt" viewBox="0 0 460.8 345.6" xmlns="http://www.w3.org/2000/svg" version="1.1">
 <metadata>
  <rdf:RDF xmlns:dc="http://purl.org/dc/elements/1.1/" xmlns:cc="http://creativecommons.org/ns#" xmlns:rdf="http://www.w3.org/1999/02/22-rdf-syntax-ns#">
   <cc:Work>
    <dc:type rdf:resource="http://purl.org/dc/dcmitype/StillImage"/>
    <dc:date>2022-12-24T05:58:52.153150</dc:date>
    <dc:format>image/svg+xml</dc:format>
    <dc:creator>
     <cc:Agent>
      <dc:title>Matplotlib v3.5.2, https://matplotlib.org/</dc:title>
     </cc:Agent>
    </dc:creator>
   </cc:Work>
  </rdf:RDF>
 </metadata>
 <defs>
  <style type="text/css">*{stroke-linejoin: round; stroke-linecap: butt}</style>
 </defs>
 <g id="figure_1">
  <g id="patch_1">
   <path d="M 0 345.6 
L 460.8 345.6 
L 460.8 0 
L 0 0 
z
" style="fill: #ffffff"/>
  </g>
  <g id="axes_1">
   <g id="patch_2">
    <path d="M 57.6 307.584 
L 414.72 307.584 
L 414.72 41.472 
L 57.6 41.472 
z
" style="fill: #ffffff"/>
   </g>
   <g id="matplotlib.axis_1">
    <g id="xtick_1">
     <g id="line2d_1">
      <defs>
       <path id="m4caf570ae6" d="M 0 0 
L 0 3.5 
" style="stroke: #000000; stroke-width: 0.8"/>
      </defs>
      <g>
       <use xlink:href="#m4caf570ae6" x="70.595892" y="307.584" style="stroke: #000000; stroke-width: 0.8"/>
      </g>
     </g>
     <g id="text_1">
      <!-- 0 -->
      <g transform="translate(68.095892 321.576187)scale(0.1 -0.1)">
       <defs>
        <path id="FangSong-30" d="M 1575 4125 
Q 1225 4125 987 3587 
Q 750 3050 750 2150 
Q 750 1200 987 675 
Q 1225 150 1575 150 
Q 1950 150 2162 675 
Q 2375 1200 2375 2150 
Q 2375 3050 2175 3587 
Q 1975 4125 1575 4125 
z
M 1575 -50 
Q 1025 -50 650 525 
Q 275 1100 275 2150 
Q 275 3125 637 3725 
Q 1000 4325 1575 4325 
Q 2125 4325 2487 3750 
Q 2850 3175 2850 2150 
Q 2850 1125 2487 537 
Q 2125 -50 1575 -50 
z
" transform="scale(0.015625)"/>
       </defs>
       <use xlink:href="#FangSong-30"/>
      </g>
     </g>
    </g>
    <g id="xtick_2">
     <g id="line2d_2">
      <g>
       <use xlink:href="#m4caf570ae6" x="135.332591" y="307.584" style="stroke: #000000; stroke-width: 0.8"/>
      </g>
     </g>
     <g id="text_2">
      <!-- 20 -->
      <g transform="translate(130.332591 321.576187)scale(0.1 -0.1)">
       <defs>
        <path id="FangSong-32" d="M 2300 3225 
Q 2300 3675 2100 3912 
Q 1900 4150 1500 4150 
Q 1200 4150 987 3987 
Q 775 3825 775 3575 
Q 775 3425 862 3325 
Q 950 3225 950 3125 
Q 950 3000 887 2937 
Q 825 2875 700 2875 
Q 550 2875 462 2962 
Q 375 3050 375 3250 
Q 375 3775 750 4050 
Q 1125 4325 1550 4325 
Q 2150 4325 2437 4025 
Q 2725 3725 2725 3275 
Q 2725 2975 2587 2675 
Q 2450 2375 2150 2100 
Q 1425 1400 1037 962 
Q 650 525 575 375 
L 2050 375 
Q 2275 375 2425 550 
Q 2575 725 2625 1075 
L 2775 1075 
L 2625 0 
L 300 0 
L 300 325 
Q 425 550 712 900 
Q 1000 1250 1475 1725 
Q 1900 2150 2100 2525 
Q 2300 2900 2300 3225 
z
" transform="scale(0.015625)"/>
       </defs>
       <use xlink:href="#FangSong-32"/>
       <use xlink:href="#FangSong-30" x="50"/>
      </g>
     </g>
    </g>
    <g id="xtick_3">
     <g id="line2d_3">
      <g>
       <use xlink:href="#m4caf570ae6" x="200.06929" y="307.584" style="stroke: #000000; stroke-width: 0.8"/>
      </g>
     </g>
     <g id="text_3">
      <!-- 40 -->
      <g transform="translate(195.06929 321.576187)scale(0.1 -0.1)">
       <defs>
        <path id="FangSong-34" d="M 2275 475 
Q 2275 300 2375 225 
Q 2475 150 2650 150 
L 2875 150 
L 2875 0 
L 1225 0 
L 1225 150 
L 1500 150 
Q 1700 150 1787 225 
Q 1875 300 1875 475 
L 1875 1300 
L 200 1300 
L 200 1425 
L 2025 4325 
L 2275 4325 
L 2275 1450 
L 2950 1450 
L 2950 1300 
L 2275 1300 
L 2275 475 
z
M 1850 3700 
L 425 1450 
L 1875 1450 
L 1875 3700 
L 1850 3700 
z
" transform="scale(0.015625)"/>
       </defs>
       <use xlink:href="#FangSong-34"/>
       <use xlink:href="#FangSong-30" x="50"/>
      </g>
     </g>
    </g>
    <g id="xtick_4">
     <g id="line2d_4">
      <g>
       <use xlink:href="#m4caf570ae6" x="264.805989" y="307.584" style="stroke: #000000; stroke-width: 0.8"/>
      </g>
     </g>
     <g id="text_4">
      <!-- 60 -->
      <g transform="translate(259.805989 321.576187)scale(0.1 -0.1)">
       <defs>
        <path id="FangSong-36" d="M 750 1700 
Q 750 950 1012 537 
Q 1275 125 1650 125 
Q 2025 125 2225 400 
Q 2425 675 2425 1425 
Q 2425 1925 2212 2200 
Q 2000 2475 1700 2475 
Q 1425 2475 1187 2312 
Q 950 2150 750 1700 
z
M 1725 2725 
Q 2325 2725 2587 2325 
Q 2850 1925 2850 1425 
Q 2850 675 2487 312 
Q 2125 -50 1650 -50 
Q 975 -50 625 462 
Q 275 975 275 1950 
Q 275 3100 700 3712 
Q 1125 4325 1850 4325 
Q 2200 4325 2412 4125 
Q 2625 3925 2625 3775 
Q 2625 3625 2562 3550 
Q 2500 3475 2350 3475 
Q 2225 3475 2162 3537 
Q 2100 3600 2100 3725 
Q 2100 3775 2112 3825 
Q 2125 3875 2125 3925 
Q 2125 4025 2050 4087 
Q 1975 4150 1775 4150 
Q 1350 4150 1050 3762 
Q 750 3375 750 2075 
Q 900 2400 1162 2562 
Q 1425 2725 1725 2725 
z
" transform="scale(0.015625)"/>
       </defs>
       <use xlink:href="#FangSong-36"/>
       <use xlink:href="#FangSong-30" x="50"/>
      </g>
     </g>
    </g>
    <g id="xtick_5">
     <g id="line2d_5">
      <g>
       <use xlink:href="#m4caf570ae6" x="329.542688" y="307.584" style="stroke: #000000; stroke-width: 0.8"/>
      </g>
     </g>
     <g id="text_5">
      <!-- 80 -->
      <g transform="translate(324.542688 321.576187)scale(0.1 -0.1)">
       <defs>
        <path id="FangSong-38" d="M 600 1025 
Q 600 625 862 375 
Q 1125 125 1525 125 
Q 2000 125 2212 375 
Q 2425 625 2425 1000 
Q 2425 1325 2125 1625 
Q 1825 1925 1225 2175 
Q 925 1975 762 1675 
Q 600 1375 600 1025 
z
M 2800 1075 
Q 2800 600 2450 275 
Q 2100 -50 1525 -50 
Q 1000 -50 625 275 
Q 250 600 250 1025 
Q 250 1450 462 1750 
Q 675 2050 1075 2275 
Q 725 2450 537 2712 
Q 350 2975 350 3300 
Q 350 3725 675 4025 
Q 1000 4325 1575 4325 
Q 2100 4325 2425 4025 
Q 2750 3725 2750 3300 
Q 2750 3000 2562 2737 
Q 2375 2475 1975 2275 
Q 2400 2025 2600 1725 
Q 2800 1425 2800 1075 
z
M 2400 3275 
Q 2400 3625 2200 3887 
Q 2000 4150 1575 4150 
Q 1100 4150 900 3900 
Q 700 3650 700 3375 
Q 700 3100 987 2837 
Q 1275 2575 1800 2375 
Q 2100 2525 2250 2750 
Q 2400 2975 2400 3275 
z
" transform="scale(0.015625)"/>
       </defs>
       <use xlink:href="#FangSong-38"/>
       <use xlink:href="#FangSong-30" x="50"/>
      </g>
     </g>
    </g>
    <g id="xtick_6">
     <g id="line2d_6">
      <g>
       <use xlink:href="#m4caf570ae6" x="394.279387" y="307.584" style="stroke: #000000; stroke-width: 0.8"/>
      </g>
     </g>
     <g id="text_6">
      <!-- 100 -->
      <g transform="translate(386.779387 321.576187)scale(0.1 -0.1)">
       <defs>
        <path id="FangSong-31" d="M 1800 4350 
L 1800 550 
Q 1800 350 1925 250 
Q 2050 150 2275 150 
L 2525 150 
L 2525 0 
L 700 0 
L 700 150 
L 925 150 
Q 1175 150 1287 250 
Q 1400 350 1400 550 
L 1400 3575 
Q 1400 3675 1337 3737 
Q 1275 3800 1150 3800 
L 700 3800 
L 700 3950 
L 925 3950 
Q 1225 3950 1412 4050 
Q 1600 4150 1700 4350 
L 1800 4350 
z
" transform="scale(0.015625)"/>
       </defs>
       <use xlink:href="#FangSong-31"/>
       <use xlink:href="#FangSong-30" x="50"/>
       <use xlink:href="#FangSong-30" x="100"/>
      </g>
     </g>
    </g>
    <g id="text_7">
     <!-- 响应比 -->
     <g transform="translate(221.16 334.873062)scale(0.1 -0.1)">
      <defs>
       <path id="FangSong-54cd" d="M 2700 -200 
Q 2725 -650 2625 -525 
L 2375 -125 
Q 2500 50 2475 350 
L 2500 3200 
Q 2500 3625 2425 4100 
L 2500 4125 
L 2725 3575 
L 3300 3625 
Q 3550 4225 3675 4637 
Q 3800 5050 3700 5150 
L 3775 5200 
L 4125 4750 
Q 4050 4800 3900 4512 
Q 3750 4225 3500 3650 
L 5275 3850 
L 5425 4125 
L 5725 3850 
L 5575 3650 
Q 5500 -175 5175 -675 
Q 4800 -275 4175 250 
L 4225 350 
L 5050 -175 
Q 5275 525 5325 3625 
L 2725 3325 
L 2700 -200 
z
M 725 3250 
Q 725 3575 625 3925 
L 725 3975 
L 950 3525 
L 1750 3650 
L 1875 3875 
L 2175 3650 
L 2000 3450 
L 1925 2175 
L 2125 1950 
L 1000 1800 
Q 1025 1275 900 1350 
L 650 1750 
Q 775 1850 750 2150 
L 725 3250 
z
M 3550 1250 
Q 3575 950 3500 875 
L 3225 1200 
Q 3300 1350 3300 1525 
L 3275 2325 
Q 3275 2700 3200 2875 
L 3275 2925 
L 3500 2625 
L 4350 2725 
L 4500 2925 
L 4775 2675 
L 4600 2475 
L 4525 1575 
L 4750 1400 
L 3550 1250 
z
M 975 3275 
L 1000 2050 
L 1675 2150 
L 1775 3425 
L 975 3275 
z
M 4350 2475 
L 3500 2375 
L 3525 1500 
L 4275 1575 
L 4350 2475 
z
" transform="scale(0.015625)"/>
       <path id="FangSong-5e94" d="M 1625 4400 
L 1800 3800 
Q 5075 4050 5200 4175 
L 5525 3850 
Q 5200 3900 1825 3550 
Q 1775 2450 1675 1825 
Q 1575 1200 1312 612 
Q 1050 25 500 -600 
L 425 -525 
Q 850 50 1100 675 
Q 1350 1300 1425 1862 
Q 1500 2425 1550 3150 
Q 1600 3875 1550 4375 
L 1625 4400 
z
M 4725 3175 
L 5100 2725 
Q 5000 2800 4750 2112 
Q 4500 1425 4000 150 
Q 5425 225 5400 275 
L 5725 0 
Q 5425 0 3687 -112 
Q 1950 -225 1725 -275 
L 1350 25 
Q 2150 0 3800 125 
Q 4300 1500 4525 2200 
Q 4750 2900 4650 3125 
L 4725 3175 
z
M 2900 1150 
Q 2800 975 2650 725 
Q 2450 1625 2175 2550 
L 2275 2575 
Q 2600 1850 2900 1150 
z
M 3775 1550 
Q 3675 1350 3525 1150 
Q 3475 1600 3075 3050 
L 3150 3075 
Q 3475 2300 3775 1550 
z
M 3500 4100 
Q 3275 4675 3000 5225 
L 3075 5275 
Q 3375 4900 3700 4525 
Q 3600 4325 3500 4100 
z
" transform="scale(0.015625)"/>
       <path id="FangSong-6bd4" d="M 3500 2125 
Q 3925 2425 4487 2975 
Q 5050 3525 4950 3750 
L 5025 3775 
L 5250 3225 
Q 5175 3250 4875 3000 
Q 4575 2750 4287 2525 
Q 4000 2300 3500 1900 
L 3500 575 
Q 3475 -100 4150 -100 
L 4800 -100 
Q 5275 -100 5375 12 
Q 5475 125 5450 1350 
L 5575 1350 
Q 5600 825 5637 412 
Q 5675 0 5800 -175 
Q 5375 -325 4800 -325 
L 4150 -325 
Q 3225 -350 3275 550 
L 3275 4300 
Q 3275 4875 3150 5150 
L 3200 5200 
L 3625 4850 
Q 3475 4825 3500 4250 
L 3500 2125 
z
M 1500 2575 
Q 1900 2625 2337 2712 
Q 2775 2800 2800 2850 
L 3075 2600 
Q 2875 2575 2350 2475 
Q 1825 2375 1775 2325 
L 1500 2525 
L 1500 150 
L 2925 1075 
L 2975 1025 
Q 1550 -75 1375 -350 
L 1200 0 
Q 1275 75 1275 350 
L 1275 3925 
Q 1275 4475 1150 4750 
L 1200 4800 
L 1625 4400 
Q 1475 4375 1500 3925 
L 1500 2575 
z
" transform="scale(0.015625)"/>
      </defs>
      <use xlink:href="#FangSong-54cd"/>
      <use xlink:href="#FangSong-5e94" x="100"/>
      <use xlink:href="#FangSong-6bd4" x="200"/>
     </g>
    </g>
   </g>
   <g id="matplotlib.axis_2">
    <g id="ytick_1">
     <g id="line2d_7">
      <defs>
       <path id="m4c989a6d23" d="M 0 0 
L -3.5 0 
" style="stroke: #000000; stroke-width: 0.8"/>
      </defs>
      <g>
       <use xlink:href="#m4c989a6d23" x="57.6" y="295.488" style="stroke: #000000; stroke-width: 0.8"/>
      </g>
     </g>
     <g id="text_8">
      <!-- 0% -->
      <g transform="translate(40.6 298.984094)scale(0.1 -0.1)">
       <defs>
        <path id="FangSong-25" d="M 725 4150 
Q 575 4150 475 3950 
Q 375 3750 375 3200 
Q 375 2575 487 2387 
Q 600 2200 725 2200 
Q 900 2200 987 2425 
Q 1075 2650 1075 3200 
Q 1075 3650 1012 3900 
Q 950 4150 725 4150 
z
M 1400 3175 
Q 1400 2725 1250 2387 
Q 1100 2050 725 2050 
Q 425 2050 237 2350 
Q 50 2650 50 3175 
Q 50 3725 250 4025 
Q 450 4325 725 4325 
Q 1025 4325 1212 4012 
Q 1400 3700 1400 3175 
z
M 2700 1100 
Q 2700 1525 2625 1800 
Q 2550 2075 2350 2075 
Q 2200 2075 2100 1837 
Q 2000 1600 2000 1100 
Q 2000 475 2112 300 
Q 2225 125 2350 125 
Q 2525 125 2612 337 
Q 2700 550 2700 1100 
z
M 3025 1075 
Q 3025 575 2850 262 
Q 2675 -50 2350 -50 
Q 2075 -50 1875 262 
Q 1675 575 1675 1075 
Q 1675 1625 1875 1937 
Q 2075 2250 2350 2250 
Q 2650 2250 2837 1925 
Q 3025 1600 3025 1075 
z
M 2500 4250 
L 700 -50 
L 550 25 
L 2325 4325 
L 2500 4250 
z
" transform="scale(0.015625)"/>
       </defs>
       <use xlink:href="#FangSong-30"/>
       <use xlink:href="#FangSong-25" x="50"/>
      </g>
     </g>
    </g>
    <g id="ytick_2">
     <g id="line2d_8">
      <g>
       <use xlink:href="#m4c989a6d23" x="57.6" y="247.104" style="stroke: #000000; stroke-width: 0.8"/>
      </g>
     </g>
     <g id="text_9">
      <!-- 20% -->
      <g transform="translate(35.6 250.600094)scale(0.1 -0.1)">
       <use xlink:href="#FangSong-32"/>
       <use xlink:href="#FangSong-30" x="50"/>
       <use xlink:href="#FangSong-25" x="100"/>
      </g>
     </g>
    </g>
    <g id="ytick_3">
     <g id="line2d_9">
      <g>
       <use xlink:href="#m4c989a6d23" x="57.6" y="198.72" style="stroke: #000000; stroke-width: 0.8"/>
      </g>
     </g>
     <g id="text_10">
      <!-- 40% -->
      <g transform="translate(35.6 202.216094)scale(0.1 -0.1)">
       <use xlink:href="#FangSong-34"/>
       <use xlink:href="#FangSong-30" x="50"/>
       <use xlink:href="#FangSong-25" x="100"/>
      </g>
     </g>
    </g>
    <g id="ytick_4">
     <g id="line2d_10">
      <g>
       <use xlink:href="#m4c989a6d23" x="57.6" y="150.336" style="stroke: #000000; stroke-width: 0.8"/>
      </g>
     </g>
     <g id="text_11">
      <!-- 60% -->
      <g transform="translate(35.6 153.832094)scale(0.1 -0.1)">
       <use xlink:href="#FangSong-36"/>
       <use xlink:href="#FangSong-30" x="50"/>
       <use xlink:href="#FangSong-25" x="100"/>
      </g>
     </g>
    </g>
    <g id="ytick_5">
     <g id="line2d_11">
      <g>
       <use xlink:href="#m4c989a6d23" x="57.6" y="101.952" style="stroke: #000000; stroke-width: 0.8"/>
      </g>
     </g>
     <g id="text_12">
      <!-- 80% -->
      <g transform="translate(35.6 105.448094)scale(0.1 -0.1)">
       <use xlink:href="#FangSong-38"/>
       <use xlink:href="#FangSong-30" x="50"/>
       <use xlink:href="#FangSong-25" x="100"/>
      </g>
     </g>
    </g>
    <g id="ytick_6">
     <g id="line2d_12">
      <g>
       <use xlink:href="#m4c989a6d23" x="57.6" y="53.568" style="stroke: #000000; stroke-width: 0.8"/>
      </g>
     </g>
     <g id="text_13">
      <!-- 100% -->
      <g transform="translate(30.6 57.064094)scale(0.1 -0.1)">
       <use xlink:href="#FangSong-31"/>
       <use xlink:href="#FangSong-30" x="50"/>
       <use xlink:href="#FangSong-30" x="100"/>
       <use xlink:href="#FangSong-25" x="150"/>
      </g>
     </g>
    </g>
    <g id="text_14">
     <!-- 累计完成比例 -->
     <g transform="translate(25.154688 204.528)rotate(-90)scale(0.1 -0.1)">
      <defs>
       <path id="FangSong-7d2f" d="M 4525 4975 
L 4700 5225 
L 5000 4950 
L 4825 4775 
L 4625 3550 
L 4850 3300 
L 3175 3150 
L 3375 2975 
Q 3200 2925 2862 2725 
Q 2525 2525 2075 2275 
L 3475 2500 
Q 3750 2675 3900 2800 
Q 4050 2925 4100 3075 
L 4175 3100 
L 4325 2700 
Q 4200 2675 3500 2237 
Q 2800 1800 2275 1550 
L 4375 1825 
L 3900 2175 
L 4000 2275 
Q 4625 1900 4950 1725 
Q 4975 1475 4925 1225 
Q 4800 1375 4500 1675 
L 3250 1475 
L 3525 1300 
Q 3375 1200 3375 875 
L 3375 25 
Q 3375 -325 3225 -625 
Q 2975 -325 2400 150 
L 2450 250 
L 3050 -75 
Q 3150 -125 3150 0 
L 3150 925 
Q 3150 1300 3125 1450 
Q 1875 1275 1575 1175 
L 1325 1425 
L 1850 1550 
Q 2175 1700 3250 2300 
Q 2075 2100 1875 2000 
L 1575 2250 
L 1800 2300 
Q 2150 2475 3025 3125 
L 2000 3025 
Q 2000 2675 1950 2700 
Q 1900 2725 1650 3025 
Q 1725 3250 1725 3425 
L 1650 4400 
Q 1625 4675 1525 4950 
L 1625 5000 
L 1875 4675 
L 4525 4975 
z
M 3150 3375 
L 3150 3875 
Q 2525 3800 2400 3725 
L 2100 3975 
Q 2500 3975 3150 4075 
L 3150 4600 
L 1900 4450 
L 1975 3250 
L 3150 3375 
z
M 3375 4100 
Q 3950 4175 4025 4225 
L 4275 4000 
Q 3950 3975 3375 3900 
L 3375 3400 
L 4400 3500 
L 4575 4750 
L 3375 4600 
L 3375 4100 
z
M 5450 -75 
Q 4975 325 3875 1025 
L 3950 1125 
Q 4850 700 5350 500 
Q 5425 250 5450 -75 
z
M 800 -250 
Q 1350 75 1825 500 
Q 2300 925 2325 1125 
L 2400 1150 
L 2550 725 
Q 2425 700 2075 425 
Q 1725 150 875 -350 
L 800 -250 
z
" transform="scale(0.015625)"/>
       <path id="FangSong-8ba1" d="M 4075 4200 
Q 4100 4825 3900 5100 
L 3975 5150 
L 4450 4725 
Q 4275 4600 4300 4200 
L 4275 3000 
Q 5525 3200 5575 3250 
L 5950 2950 
Q 5725 2975 4275 2800 
L 4250 -425 
Q 4250 -700 4150 -575 
L 3875 -150 
Q 4050 50 4025 300 
L 4050 2750 
Q 2975 2625 2900 2575 
L 2525 2825 
Q 2850 2825 4050 2975 
L 4075 4200 
z
M 1775 3250 
L 2100 2950 
L 1900 2750 
L 1875 550 
L 2825 1250 
L 2875 1175 
Q 1875 250 1750 -25 
L 1525 275 
Q 1625 375 1650 625 
L 1675 2775 
Q 900 2625 750 2550 
L 425 2800 
Q 850 2825 1650 3000 
L 1775 3250 
z
M 2025 3800 
Q 1825 4300 1325 4950 
L 1375 5025 
Q 1925 4575 2175 4300 
Q 2125 4000 2025 3800 
z
" transform="scale(0.015625)"/>
       <path id="FangSong-5b8c" d="M 5375 2050 
Q 4925 2050 3550 1950 
L 3850 1750 
Q 3725 1600 3700 1375 
L 3675 275 
Q 3650 -125 4075 -175 
L 4925 -175 
Q 5300 -150 5312 62 
Q 5325 275 5325 1025 
L 5425 1025 
Q 5450 750 5475 337 
Q 5500 -75 5700 -275 
Q 5400 -375 5000 -400 
L 4075 -400 
Q 3425 -350 3425 150 
L 3475 1450 
Q 3475 1775 3425 1925 
L 2675 1850 
L 2875 1650 
Q 2750 1550 2600 1200 
Q 2450 850 2025 312 
Q 1600 -225 600 -675 
L 550 -575 
Q 1525 -100 1987 625 
Q 2450 1350 2525 1850 
Q 1550 1775 1500 1725 
L 1150 2025 
Q 1625 2025 3212 2150 
Q 4800 2275 5000 2350 
L 5375 2050 
z
M 1650 3650 
Q 1550 3125 1325 2875 
L 1150 3250 
Q 1450 3425 1575 4400 
L 1675 4400 
L 1675 3900 
L 5025 4150 
L 5175 4400 
L 5525 4075 
Q 5375 4050 4725 3250 
L 4650 3325 
L 4975 3900 
L 1650 3650 
z
M 4475 2975 
Q 4225 2975 3412 2875 
Q 2600 2775 2400 2725 
L 2050 2975 
Q 2575 2975 3200 3075 
Q 3825 3175 4150 3225 
L 4475 2975 
z
M 3550 4575 
Q 3475 4350 3300 4150 
Q 3225 4475 2900 5200 
L 2975 5250 
Q 3350 4825 3550 4575 
z
" transform="scale(0.015625)"/>
       <path id="FangSong-6210" d="M 5575 975 
Q 5600 -150 5750 -625 
Q 4650 -225 4000 1075 
Q 3625 650 2975 225 
L 2925 325 
Q 3525 825 3900 1300 
Q 3600 2275 3500 3300 
L 1875 3125 
Q 1875 2625 1825 2100 
L 2725 2250 
L 2875 2475 
L 3175 2225 
L 3000 2050 
Q 2850 475 2575 -125 
Q 2225 400 1825 775 
L 1875 850 
L 2475 400 
Q 2650 875 2750 2000 
L 1825 1850 
Q 1675 250 600 -650 
L 525 -600 
Q 1250 250 1425 987 
Q 1600 1725 1625 2612 
Q 1650 3500 1550 3800 
L 1625 3825 
L 1850 3350 
L 3450 3525 
Q 3400 4150 3375 4562 
Q 3350 4975 3225 5200 
L 3275 5225 
L 3725 4900 
Q 3625 4925 3637 4575 
Q 3650 4225 3675 3550 
Q 4900 3700 5050 3775 
L 5325 3475 
Q 4775 3475 3725 3325 
Q 3775 2425 4075 1525 
Q 4500 2025 4687 2325 
Q 4875 2625 4800 2850 
L 4875 2875 
L 5125 2325 
Q 5075 2400 4850 2125 
Q 4625 1850 4150 1275 
Q 4625 225 5425 -125 
L 5475 975 
L 5575 975 
z
M 4100 5000 
Q 4525 4700 4875 4450 
Q 4825 4250 4750 4025 
Q 4400 4525 4025 4950 
L 4100 5000 
z
" transform="scale(0.015625)"/>
       <path id="FangSong-4f8b" d="M 3050 2000 
Q 3025 1800 2975 1600 
Q 2775 1900 2525 2250 
Q 2300 1875 2025 1550 
L 1925 1625 
Q 2675 2725 2975 3975 
Q 2475 3925 2375 3875 
L 2050 4125 
Q 2375 4125 3162 4225 
Q 3950 4325 4100 4450 
L 4350 4125 
Q 4050 4150 3100 3975 
L 3300 3700 
Q 3200 3675 3125 3525 
Q 3050 3375 2925 3050 
L 3625 3150 
L 3775 3350 
L 4050 3075 
L 3875 2900 
Q 3300 825 1850 -225 
L 1800 -100 
Q 3100 975 3625 2900 
Q 3150 2825 3025 2775 
L 2875 2925 
Q 2775 2675 2575 2350 
Q 2900 2125 3050 2000 
z
M 1275 -150 
Q 1425 25 1400 225 
L 1450 3425 
Q 1025 2800 475 2225 
L 400 2325 
Q 875 2850 1450 3887 
Q 2025 4925 1925 5150 
L 2000 5175 
L 2250 4700 
Q 2200 4725 2062 4475 
Q 1925 4225 1675 3800 
L 1625 -325 
Q 1650 -675 1525 -600 
L 1275 -150 
z
M 5475 250 
Q 5475 -300 5300 -650 
Q 4900 -100 4300 375 
L 4350 475 
L 5200 -75 
Q 5250 250 5250 575 
L 5250 4350 
Q 5275 4950 5100 5150 
L 5175 5225 
L 5600 4850 
Q 5450 4775 5475 4325 
L 5475 250 
z
M 4300 1525 
Q 4400 1650 4400 1900 
L 4400 3075 
Q 4425 3525 4300 3750 
L 4350 3800 
L 4725 3450 
Q 4600 3350 4625 3025 
L 4625 1375 
Q 4625 1050 4550 1125 
L 4300 1525 
z
" transform="scale(0.015625)"/>
      </defs>
      <use xlink:href="#FangSong-7d2f"/>
      <use xlink:href="#FangSong-8ba1" x="100"/>
      <use xlink:href="#FangSong-5b8c" x="200"/>
      <use xlink:href="#FangSong-6210" x="300"/>
      <use xlink:href="#FangSong-6bd4" x="400"/>
      <use xlink:href="#FangSong-4f8b" x="500"/>
     </g>
    </g>
   </g>
   <g id="line2d_13">
    <path d="M 73.832727 295.488 
L 74.156411 295.488 
L 74.480094 295.24608 
L 74.803778 294.76224 
L 75.127461 292.10112 
L 75.451145 286.29504 
L 77.069562 245.16864 
L 78.040613 218.0736 
L 79.011663 193.39776 
L 80.630081 162.19008 
L 81.277448 152.51328 
L 81.924815 142.59456 
L 82.895865 133.64352 
L 83.219549 132.67584 
L 83.543232 132.192 
L 84.190599 130.01472 
L 84.514283 129.7728 
L 84.837966 129.7728 
L 85.16165 129.53088 
L 85.485333 129.04704 
L 85.809017 128.80512 
L 86.1327 128.80512 
L 86.780067 128.32128 
L 88.398485 128.32128 
L 88.722168 127.83744 
L 89.693219 127.83744 
L 90.016902 127.59552 
L 90.340586 127.59552 
L 90.664269 127.3536 
L 92.282686 127.3536 
L 92.60637 127.11168 
L 94.872154 127.11168 
L 95.519521 126.62784 
L 97.461622 126.62784 
L 97.785306 126.38592 
L 99.08004 126.38592 
L 99.403723 126.144 
L 100.698457 126.144 
L 101.022141 125.90208 
L 102.964242 125.90208 
L 103.287925 125.66016 
L 103.935292 125.66016 
L 104.258976 125.41824 
L 104.906343 125.41824 
L 105.55371 124.9344 
L 107.495811 124.9344 
L 108.143178 124.45056 
L 108.790545 124.45056 
L 109.437912 123.96672 
L 110.085279 123.96672 
L 110.408962 123.7248 
L 111.056329 123.7248 
L 111.380013 123.48288 
L 112.351063 123.48288 
L 112.674747 123.24096 
L 113.645797 123.24096 
L 114.293164 122.75712 
L 115.587898 122.75712 
L 115.911582 122.5152 
L 116.235265 122.5152 
L 116.882632 122.03136 
L 119.795784 122.03136 
L 120.119467 121.78944 
L 120.443151 121.78944 
L 120.766834 121.3056 
L 122.385252 121.3056 
L 122.708935 121.06368 
L 123.032619 121.06368 
L 123.356302 120.82176 
L 124.651036 120.82176 
L 124.974719 120.57984 
L 127.564187 120.57984 
L 128.211554 120.096 
L 130.153655 120.096 
L 130.801022 119.61216 
L 131.772073 119.61216 
L 132.095756 119.37024 
L 132.41944 119.37024 
L 132.743123 119.12832 
L 133.066807 118.64448 
L 133.714174 118.64448 
L 134.037857 118.40256 
L 134.361541 118.40256 
L 135.008908 117.91872 
L 136.627325 117.91872 
L 137.274692 117.43488 
L 138.245743 117.43488 
L 138.569426 117.19296 
L 140.187844 117.19296 
L 140.511527 116.95104 
L 140.835211 116.95104 
L 141.158894 116.4672 
L 141.482578 116.4672 
L 141.806261 116.22528 
L 143.100995 116.22528 
L 143.748362 115.01568 
L 144.395729 114.53184 
L 144.719413 114.53184 
L 145.043096 114.28992 
L 145.36678 114.28992 
L 145.690463 114.048 
L 148.279931 114.048 
L 148.603615 113.80608 
L 149.574665 113.80608 
L 150.222032 113.32224 
L 150.545716 113.32224 
L 150.869399 113.08032 
L 153.135184 113.08032 
L 153.458867 112.8384 
L 154.753601 112.8384 
L 155.077285 112.59648 
L 155.400968 112.59648 
L 156.048335 112.11264 
L 156.695702 112.11264 
L 157.343069 111.6288 
L 159.28517 111.6288 
L 159.608853 111.14496 
L 161.550954 111.14496 
L 161.874638 110.90304 
L 163.169372 110.90304 
L 163.493055 110.66112 
L 163.816739 110.66112 
L 164.464106 110.17728 
L 165.435156 110.17728 
L 165.75884 109.69344 
L 167.053574 109.69344 
L 167.377257 109.45152 
L 169.643042 109.45152 
L 169.966725 108.96768 
L 171.261459 108.96768 
L 171.585143 108.72576 
L 172.556193 108.72576 
L 172.879877 108.48384 
L 173.20356 108.48384 
L 173.850927 108 
L 175.145661 108 
L 175.469345 107.75808 
L 176.440395 107.75808 
L 176.764079 107.51616 
L 177.411446 107.51616 
L 177.735129 107.27424 
L 179.353547 107.27424 
L 179.67723 107.03232 
L 180.000914 107.03232 
L 180.324597 106.7904 
L 181.943015 106.7904 
L 182.590382 106.30656 
L 184.208799 106.30656 
L 184.856166 105.82272 
L 186.474584 105.82272 
L 186.798267 105.5808 
L 189.387735 105.5808 
L 189.711418 105.33888 
L 190.682469 105.33888 
L 191.006152 105.09696 
L 191.653519 105.09696 
L 192.62457 104.3712 
L 194.242987 104.3712 
L 194.566671 103.88736 
L 195.214038 103.88736 
L 195.537721 103.64544 
L 197.156139 103.64544 
L 197.479822 103.40352 
L 197.803506 103.40352 
L 198.127189 103.1616 
L 200.06929 103.1616 
L 200.392974 102.91968 
L 201.687708 102.91968 
L 202.011391 102.67776 
L 203.306125 102.67776 
L 203.629809 102.43584 
L 205.248226 102.43584 
L 205.895593 101.952 
L 206.54296 101.952 
L 206.866644 101.71008 
L 207.190327 101.71008 
L 207.514011 101.46816 
L 207.837694 101.46816 
L 208.161378 101.22624 
L 209.779795 101.22624 
L 210.103479 100.98432 
L 211.721896 100.98432 
L 212.04558 100.7424 
L 214.311364 100.7424 
L 214.635048 100.50048 
L 215.606098 100.50048 
L 215.929782 100.25856 
L 216.253465 100.25856 
L 216.577149 100.01664 
L 217.871883 100.01664 
L 218.195566 99.77472 
L 220.137667 99.77472 
L 220.46135 99.5328 
L 221.108717 99.5328 
L 221.432401 99.04896 
L 222.403451 99.04896 
L 222.727135 98.80704 
L 223.050818 98.80704 
L 223.374502 98.56512 
L 224.669236 98.56512 
L 224.992919 98.3232 
L 225.316603 98.3232 
L 225.640286 98.08128 
L 227.258704 98.08128 
L 227.582387 97.83936 
L 229.524488 97.83936 
L 229.848172 97.59744 
L 230.819222 97.59744 
L 231.142906 97.35552 
L 231.466589 97.35552 
L 231.790273 97.1136 
L 232.43764 97.1136 
L 232.761323 96.87168 
L 234.056057 96.87168 
L 234.703424 96.38784 
L 237.940259 96.38784 
L 239.234993 95.42016 
L 241.177094 95.42016 
L 241.500778 95.17824 
L 243.442879 95.17824 
L 244.090246 94.21056 
L 244.737613 94.21056 
L 245.38498 93.72672 
L 247.650764 93.72672 
L 247.974448 93.4848 
L 249.916549 93.4848 
L 250.240232 93.24288 
L 252.182333 93.24288 
L 252.506016 93.00096 
L 254.448117 93.00096 
L 254.771801 92.51712 
L 255.095484 92.51712 
L 255.419168 92.2752 
L 256.066535 92.2752 
L 256.390218 92.03328 
L 257.037585 92.03328 
L 257.361269 91.79136 
L 258.656003 91.79136 
L 258.979686 91.54944 
L 259.627053 91.54944 
L 260.27442 91.0656 
L 260.921787 91.0656 
L 261.245471 90.82368 
L 262.540205 90.82368 
L 262.863888 90.58176 
L 264.158622 90.58176 
L 264.482306 90.33984 
L 265.453356 90.33984 
L 266.100723 89.856 
L 267.719141 89.856 
L 268.042824 89.61408 
L 269.661242 89.61408 
L 269.984925 89.37216 
L 270.632292 89.37216 
L 270.955976 89.13024 
L 273.545444 89.13024 
L 273.869127 88.6464 
L 274.192811 88.40448 
L 275.811228 88.40448 
L 276.134912 88.16256 
L 277.105962 88.16256 
L 277.429646 87.92064 
L 278.72438 87.92064 
L 279.048063 87.67872 
L 279.69543 87.67872 
L 280.019114 87.4368 
L 281.313848 87.4368 
L 281.637531 87.19488 
L 281.961215 87.19488 
L 282.284898 86.95296 
L 282.932265 86.95296 
L 283.255949 86.46912 
L 283.903316 85.98528 
L 285.521733 85.98528 
L 285.845416 85.74336 
L 286.816467 85.74336 
L 287.14015 85.50144 
L 287.463834 85.50144 
L 287.787517 85.25952 
L 288.758568 85.25952 
L 289.082251 85.0176 
L 289.729618 85.0176 
L 290.376985 84.53376 
L 292.319086 84.53376 
L 292.64277 84.29184 
L 293.290137 84.29184 
L 293.61382 84.04992 
L 295.555921 84.04992 
L 295.879605 83.808 
L 298.145389 83.808 
L 298.469073 83.56608 
L 299.440123 83.56608 
L 299.763807 83.32416 
L 301.705908 83.32416 
L 302.029591 83.08224 
L 303.000642 83.08224 
L 303.324325 82.84032 
L 305.59011 82.84032 
L 305.913793 82.5984 
L 307.208527 82.5984 
L 307.532211 82.11456 
L 308.179578 82.11456 
L 308.503261 81.87264 
L 310.121679 81.87264 
L 310.445362 81.3888 
L 312.06378 81.3888 
L 312.387463 81.14688 
L 313.358514 81.14688 
L 314.005881 80.66304 
L 315.624298 80.66304 
L 315.947982 80.42112 
L 316.595348 80.42112 
L 316.919032 79.93728 
L 317.242715 79.93728 
L 317.566399 79.69536 
L 319.5085 79.69536 
L 319.832183 79.21152 
L 320.47955 79.21152 
L 320.803234 78.9696 
L 321.126917 78.9696 
L 321.450601 78.72768 
L 322.745335 78.72768 
L 323.069018 78.24384 
L 325.011119 78.24384 
L 325.658486 77.76 
L 326.629537 77.76 
L 327.276904 77.27616 
L 327.924271 77.27616 
L 328.247954 77.03424 
L 328.571638 77.03424 
L 328.895321 76.79232 
L 329.866372 76.79232 
L 330.190055 76.30848 
L 330.837422 76.30848 
L 331.161106 75.82464 
L 332.779523 75.82464 
L 333.42689 75.3408 
L 334.397941 75.3408 
L 334.721624 75.09888 
L 335.368991 75.09888 
L 335.692675 74.61504 
L 336.016358 74.37312 
L 336.987409 74.37312 
L 337.311092 73.88928 
L 337.958459 73.88928 
L 338.282143 73.64736 
L 339.253193 73.64736 
L 339.576877 73.16352 
L 340.224244 72.67968 
L 340.871611 72.67968 
L 341.195294 72.19584 
L 341.842661 72.19584 
L 342.166345 71.95392 
L 342.490028 71.95392 
L 342.813712 71.712 
L 344.432129 71.712 
L 344.755813 71.22816 
L 345.079496 70.98624 
L 345.726863 70.98624 
L 346.050547 70.74432 
L 346.37423 70.74432 
L 346.697914 70.26048 
L 347.021597 70.01856 
L 347.345281 70.01856 
L 347.992648 69.53472 
L 348.316331 69.53472 
L 348.640015 69.2928 
L 348.963698 69.2928 
L 349.287381 69.05088 
L 349.611065 69.05088 
L 350.258432 68.56704 
L 350.905799 68.56704 
L 351.229482 68.32512 
L 351.553166 68.32512 
L 352.200533 67.84128 
L 352.8479 67.84128 
L 353.171583 67.35744 
L 354.142634 67.35744 
L 354.466317 67.11552 
L 354.790001 67.11552 
L 355.113684 66.63168 
L 355.437368 66.38976 
L 356.732102 66.38976 
L 357.379469 65.90592 
L 358.026836 65.90592 
L 358.674203 65.42208 
L 359.32157 65.42208 
L 359.645253 65.18016 
L 359.968937 65.18016 
L 360.29262 64.93824 
L 361.263671 64.93824 
L 361.587354 64.69632 
L 362.234721 64.69632 
L 362.882088 64.21248 
L 364.824189 64.21248 
L 365.147873 63.97056 
L 365.471556 63.97056 
L 366.118923 63.48672 
L 366.76629 63.48672 
L 367.413657 63.00288 
L 368.384708 63.00288 
L 368.708391 62.76096 
L 369.032075 62.76096 
L 369.355758 62.51904 
L 369.679442 62.51904 
L 370.003125 62.27712 
L 371.297859 62.27712 
L 371.945226 61.79328 
L 372.916277 61.79328 
L 373.23996 61.55136 
L 373.563644 61.55136 
L 373.887327 61.30944 
L 374.534694 61.30944 
L 374.858378 61.06752 
L 375.829428 61.06752 
L 376.476795 60.58368 
L 376.800479 60.09984 
L 377.124162 59.85792 
L 378.095213 59.85792 
L 378.74258 59.37408 
L 379.389947 59.37408 
L 379.71363 59.13216 
L 380.684681 59.13216 
L 381.008364 58.89024 
L 381.979414 58.89024 
L 382.950465 58.16448 
L 383.274148 58.16448 
L 383.597832 57.92256 
L 384.245199 57.92256 
L 384.568882 57.68064 
L 385.539933 57.68064 
L 386.1873 57.1968 
L 387.482034 57.1968 
L 388.129401 56.71296 
L 389.747818 56.71296 
L 390.395185 56.22912 
L 390.718869 56.22912 
L 391.366236 55.74528 
L 391.689919 55.74528 
L 392.013603 55.50336 
L 393.308337 55.50336 
L 393.63202 55.26144 
L 393.955704 55.26144 
L 394.279387 54.7776 
L 394.926754 54.7776 
L 395.250438 54.53568 
L 396.221488 54.53568 
L 396.868855 54.05184 
L 397.516222 54.05184 
L 397.839906 53.80992 
L 398.163589 53.80992 
L 398.487273 53.568 
L 398.487273 53.568 
" clip-path="url(#pe436f1b1fe)" style="fill: none; stroke: #ff0000; stroke-linecap: square"/>
   </g>
   <g id="line2d_14">
    <path d="M 73.832727 295.488 
L 74.156411 295.488 
L 74.803778 293.496889 
L 75.127461 291.505778 
L 75.774828 275.576889 
L 76.098512 257.656889 
L 77.393246 216.839111 
L 77.716929 208.874667 
L 78.364296 186.972444 
L 78.68798 178.012444 
L 79.011663 162.083556 
L 79.335347 155.114667 
L 79.65903 145.159111 
L 79.982714 140.181333 
L 80.306397 131.221333 
L 80.953764 120.270222 
L 81.277448 109.319111 
L 81.601131 92.394667 
L 82.895865 61.532444 
L 83.543232 59.541333 
L 84.190599 53.568 
L 398.487273 53.568 
L 398.487273 53.568 
" clip-path="url(#pe436f1b1fe)" style="fill: none; stroke-dasharray: 1.85,0.8; stroke-dashoffset: 0; stroke: #008000; stroke-width: 0.5"/>
   </g>
   <g id="line2d_15">
    <path d="M 73.832727 295.488 
L 74.480094 295.488 
L 74.803778 294.488331 
L 75.127461 289.489983 
L 75.451145 282.492298 
L 75.774828 269.496595 
L 76.422195 251.502545 
L 76.745879 235.507835 
L 77.069562 225.51114 
L 77.716929 199.519736 
L 78.68798 169.529653 
L 79.011663 155.534281 
L 79.65903 138.539901 
L 79.982714 124.544529 
L 80.306397 115.547504 
L 80.630081 97.553455 
L 81.277448 82.558413 
L 81.924815 72.561719 
L 82.248498 69.562711 
L 82.572182 63.564694 
L 82.895865 62.565025 
L 83.219549 60.565686 
L 84.514283 56.567008 
L 84.837966 56.567008 
L 85.16165 55.567339 
L 85.485333 53.568 
L 398.487273 53.568 
L 398.487273 53.568 
" clip-path="url(#pe436f1b1fe)" style="fill: none; stroke-dasharray: 1.85,0.8; stroke-dashoffset: 0; stroke: #0000ff; stroke-width: 0.5"/>
   </g>
   <g id="line2d_16">
    <path d="M 73.832727 295.488 
L 74.803778 295.488 
L 75.127461 290.499959 
L 76.098512 251.842639 
L 76.422195 233.137485 
L 77.069562 210.691299 
L 77.716929 170.786969 
L 78.364296 134.62367 
L 79.011663 113.424495 
L 79.335347 99.707381 
L 80.306397 73.520165 
L 81.924815 54.81501 
L 82.248498 53.568 
L 398.487273 53.568 
L 398.487273 53.568 
" clip-path="url(#pe436f1b1fe)" style="fill: none; stroke-dasharray: 1.85,0.8; stroke-dashoffset: 0; stroke: #bf00bf; stroke-width: 0.5"/>
   </g>
   <g id="line2d_17">
    <path d="M 73.832727 295.488 
L 78.040613 295.488 
L 78.68798 293.98071 
L 80.630081 293.98071 
L 80.953764 293.227065 
L 81.601131 293.227065 
L 83.219549 289.458841 
L 83.543232 289.458841 
L 83.866916 288.705196 
L 85.485333 288.705196 
L 85.809017 287.951551 
L 86.1327 287.951551 
L 86.780067 286.444262 
L 88.398485 286.444262 
L 88.722168 284.936972 
L 89.693219 284.936972 
L 90.016902 284.183327 
L 90.340586 284.183327 
L 90.664269 283.429682 
L 92.282686 283.429682 
L 92.60637 282.676037 
L 94.872154 282.676037 
L 95.519521 281.168748 
L 97.461622 281.168748 
L 97.785306 280.415103 
L 99.08004 280.415103 
L 99.403723 279.661458 
L 100.698457 279.661458 
L 101.022141 278.907813 
L 102.964242 278.907813 
L 103.287925 278.154168 
L 103.935292 278.154168 
L 104.258976 277.400523 
L 104.906343 277.400523 
L 105.55371 275.893234 
L 107.495811 275.893234 
L 108.143178 274.385944 
L 108.790545 274.385944 
L 109.437912 272.878654 
L 110.085279 272.878654 
L 110.408962 272.125009 
L 111.056329 272.125009 
L 111.380013 271.371364 
L 112.351063 271.371364 
L 112.674747 270.61772 
L 113.645797 270.61772 
L 114.293164 269.11043 
L 115.587898 269.11043 
L 115.911582 268.356785 
L 116.235265 268.356785 
L 116.882632 266.849495 
L 119.795784 266.849495 
L 120.119467 266.09585 
L 120.443151 266.09585 
L 120.766834 264.588561 
L 122.385252 264.588561 
L 122.708935 263.834916 
L 123.032619 263.834916 
L 123.356302 263.081271 
L 124.651036 263.081271 
L 124.974719 262.327626 
L 127.564187 262.327626 
L 128.211554 260.820336 
L 130.153655 260.820336 
L 130.801022 259.313047 
L 131.772073 259.313047 
L 132.095756 258.559402 
L 132.41944 258.559402 
L 132.743123 257.805757 
L 133.066807 256.298467 
L 133.714174 256.298467 
L 134.037857 255.544822 
L 134.361541 255.544822 
L 135.008908 254.037533 
L 136.627325 254.037533 
L 137.274692 252.530243 
L 138.245743 252.530243 
L 138.569426 251.776598 
L 140.187844 251.776598 
L 140.511527 251.022953 
L 140.835211 251.022953 
L 141.158894 249.515664 
L 141.482578 249.515664 
L 141.806261 248.762019 
L 143.100995 248.762019 
L 143.748362 244.993794 
L 144.395729 243.486505 
L 144.719413 243.486505 
L 145.043096 242.73286 
L 145.36678 242.73286 
L 145.690463 241.979215 
L 148.279931 241.979215 
L 148.603615 241.22557 
L 149.574665 241.22557 
L 150.222032 239.71828 
L 150.545716 239.71828 
L 150.869399 238.964636 
L 153.135184 238.964636 
L 153.458867 238.210991 
L 154.753601 238.210991 
L 155.077285 237.457346 
L 155.400968 237.457346 
L 156.048335 235.950056 
L 156.695702 235.950056 
L 157.343069 234.442766 
L 159.28517 234.442766 
L 159.608853 232.935477 
L 161.550954 232.935477 
L 161.874638 232.181832 
L 163.169372 232.181832 
L 163.493055 231.428187 
L 163.816739 231.428187 
L 164.464106 229.920897 
L 165.435156 229.920897 
L 165.75884 228.413607 
L 167.053574 228.413607 
L 167.377257 227.659963 
L 169.643042 227.659963 
L 169.966725 226.152673 
L 171.261459 226.152673 
L 171.585143 225.399028 
L 172.556193 225.399028 
L 172.879877 224.645383 
L 173.20356 224.645383 
L 173.850927 223.138093 
L 175.145661 223.138093 
L 175.469345 222.384449 
L 176.440395 222.384449 
L 176.764079 221.630804 
L 177.411446 221.630804 
L 177.735129 220.877159 
L 179.353547 220.877159 
L 179.67723 220.123514 
L 180.000914 220.123514 
L 180.324597 219.369869 
L 181.943015 219.369869 
L 182.590382 217.862579 
L 184.208799 217.862579 
L 184.856166 216.35529 
L 186.474584 216.35529 
L 186.798267 215.601645 
L 189.387735 215.601645 
L 189.711418 214.848 
L 190.682469 214.848 
L 191.006152 214.094355 
L 191.653519 214.094355 
L 192.62457 211.833421 
L 194.242987 211.833421 
L 194.566671 210.326131 
L 195.214038 210.326131 
L 195.537721 209.572486 
L 197.156139 209.572486 
L 197.479822 208.818841 
L 197.803506 208.818841 
L 198.127189 208.065196 
L 200.06929 208.065196 
L 200.392974 207.311551 
L 201.687708 207.311551 
L 202.011391 206.557907 
L 203.306125 206.557907 
L 203.629809 205.804262 
L 205.248226 205.804262 
L 205.895593 204.296972 
L 206.54296 204.296972 
L 206.866644 203.543327 
L 207.190327 203.543327 
L 207.514011 202.789682 
L 207.837694 202.789682 
L 208.161378 202.036037 
L 209.779795 202.036037 
L 210.103479 201.282393 
L 211.721896 201.282393 
L 212.04558 200.528748 
L 214.311364 200.528748 
L 214.635048 199.775103 
L 215.606098 199.775103 
L 215.929782 199.021458 
L 216.253465 199.021458 
L 216.577149 198.267813 
L 217.871883 198.267813 
L 218.195566 197.514168 
L 220.137667 197.514168 
L 220.46135 196.760523 
L 221.108717 196.760523 
L 221.432401 195.253234 
L 222.403451 195.253234 
L 222.727135 194.499589 
L 223.050818 194.499589 
L 223.374502 193.745944 
L 224.669236 193.745944 
L 224.992919 192.992299 
L 225.316603 192.992299 
L 225.640286 192.238654 
L 227.258704 192.238654 
L 227.582387 191.485009 
L 229.524488 191.485009 
L 229.848172 190.731364 
L 230.819222 190.731364 
L 231.142906 189.97772 
L 231.466589 189.97772 
L 231.790273 189.224075 
L 232.43764 189.224075 
L 232.761323 188.47043 
L 234.056057 188.47043 
L 234.703424 186.96314 
L 237.940259 186.96314 
L 239.234993 183.948561 
L 241.177094 183.948561 
L 241.500778 183.194916 
L 243.442879 183.194916 
L 244.090246 180.180336 
L 244.737613 180.180336 
L 245.38498 178.673047 
L 247.650764 178.673047 
L 247.974448 177.919402 
L 249.916549 177.919402 
L 250.240232 177.165757 
L 252.182333 177.165757 
L 252.506016 176.412112 
L 254.448117 176.412112 
L 254.771801 174.904822 
L 255.095484 174.904822 
L 255.419168 174.151178 
L 256.066535 174.151178 
L 256.390218 173.397533 
L 257.037585 173.397533 
L 257.361269 172.643888 
L 258.656003 172.643888 
L 258.979686 171.890243 
L 259.627053 171.890243 
L 260.27442 170.382953 
L 260.921787 170.382953 
L 261.245471 169.629308 
L 262.540205 169.629308 
L 262.863888 168.875664 
L 264.158622 168.875664 
L 264.482306 168.122019 
L 265.453356 168.122019 
L 266.100723 166.614729 
L 267.719141 166.614729 
L 268.042824 165.861084 
L 269.661242 165.861084 
L 269.984925 165.107439 
L 270.632292 165.107439 
L 270.955976 164.353794 
L 273.545444 164.353794 
L 273.869127 162.846505 
L 274.192811 162.09286 
L 275.811228 162.09286 
L 276.134912 161.339215 
L 277.105962 161.339215 
L 277.429646 160.58557 
L 278.72438 160.58557 
L 279.048063 159.831925 
L 279.69543 159.831925 
L 280.019114 159.07828 
L 281.313848 159.07828 
L 281.637531 158.324636 
L 281.961215 158.324636 
L 282.284898 157.570991 
L 282.932265 157.570991 
L 283.255949 156.063701 
L 283.903316 154.556411 
L 285.521733 154.556411 
L 285.845416 153.802766 
L 286.816467 153.802766 
L 287.14015 153.049121 
L 287.463834 153.049121 
L 287.787517 152.295477 
L 288.758568 152.295477 
L 289.082251 151.541832 
L 289.729618 151.541832 
L 290.376985 150.034542 
L 292.319086 150.034542 
L 292.64277 149.280897 
L 293.290137 149.280897 
L 293.61382 148.527252 
L 295.555921 148.527252 
L 295.879605 147.773607 
L 298.145389 147.773607 
L 298.469073 147.019963 
L 299.440123 147.019963 
L 299.763807 146.266318 
L 301.705908 146.266318 
L 302.029591 145.512673 
L 303.000642 145.512673 
L 303.324325 144.759028 
L 305.59011 144.759028 
L 305.913793 144.005383 
L 307.208527 144.005383 
L 307.532211 142.498093 
L 308.179578 142.498093 
L 308.503261 141.744449 
L 310.121679 141.744449 
L 310.445362 140.237159 
L 312.06378 140.237159 
L 312.387463 139.483514 
L 313.358514 139.483514 
L 314.005881 137.976224 
L 315.624298 137.976224 
L 315.947982 137.222579 
L 316.595348 137.222579 
L 316.919032 135.71529 
L 317.242715 135.71529 
L 317.566399 134.961645 
L 319.5085 134.961645 
L 319.832183 133.454355 
L 320.47955 133.454355 
L 320.803234 132.70071 
L 321.126917 132.70071 
L 321.450601 131.947065 
L 322.745335 131.947065 
L 323.069018 130.439776 
L 325.011119 130.439776 
L 325.658486 128.932486 
L 326.629537 128.932486 
L 327.276904 127.425196 
L 327.924271 127.425196 
L 328.247954 126.671551 
L 328.571638 126.671551 
L 328.895321 125.917907 
L 329.866372 125.917907 
L 330.190055 124.410617 
L 330.837422 124.410617 
L 331.161106 122.903327 
L 332.779523 122.903327 
L 333.42689 121.396037 
L 334.397941 121.396037 
L 334.721624 120.642393 
L 335.368991 120.642393 
L 335.692675 119.135103 
L 336.016358 118.381458 
L 336.987409 118.381458 
L 337.311092 116.874168 
L 337.958459 116.874168 
L 338.282143 116.120523 
L 339.253193 116.120523 
L 339.576877 114.613234 
L 340.224244 113.105944 
L 340.871611 113.105944 
L 341.195294 111.598654 
L 341.842661 111.598654 
L 342.166345 110.845009 
L 342.490028 110.845009 
L 342.813712 110.091364 
L 344.432129 110.091364 
L 344.755813 108.584075 
L 345.079496 107.83043 
L 345.726863 107.83043 
L 346.050547 107.076785 
L 346.37423 107.076785 
L 346.697914 105.569495 
L 347.021597 104.81585 
L 347.345281 104.81585 
L 347.992648 103.308561 
L 348.316331 103.308561 
L 348.640015 102.554916 
L 348.963698 102.554916 
L 349.287381 101.801271 
L 349.611065 101.801271 
L 350.258432 100.293981 
L 350.905799 100.293981 
L 351.229482 99.540336 
L 351.553166 99.540336 
L 352.200533 98.033047 
L 352.8479 98.033047 
L 353.171583 96.525757 
L 354.142634 96.525757 
L 354.466317 95.772112 
L 354.790001 95.772112 
L 355.113684 94.264822 
L 355.437368 93.511178 
L 356.732102 93.511178 
L 357.379469 92.003888 
L 358.026836 92.003888 
L 358.674203 90.496598 
L 359.32157 90.496598 
L 359.645253 89.742953 
L 359.968937 89.742953 
L 360.29262 88.989308 
L 361.263671 88.989308 
L 361.587354 88.235664 
L 362.234721 88.235664 
L 362.882088 86.728374 
L 364.824189 86.728374 
L 365.147873 85.974729 
L 365.471556 85.974729 
L 366.118923 84.467439 
L 366.76629 84.467439 
L 367.413657 82.96015 
L 368.384708 82.96015 
L 368.708391 82.206505 
L 369.032075 82.206505 
L 369.355758 81.45286 
L 369.679442 81.45286 
L 370.003125 80.699215 
L 371.297859 80.699215 
L 371.945226 79.191925 
L 372.916277 79.191925 
L 373.23996 78.43828 
L 373.563644 78.43828 
L 373.887327 77.684636 
L 374.534694 77.684636 
L 374.858378 76.930991 
L 375.829428 76.930991 
L 376.476795 75.423701 
L 376.800479 73.916411 
L 377.124162 73.162766 
L 378.095213 73.162766 
L 378.74258 71.655477 
L 379.389947 71.655477 
L 379.71363 70.901832 
L 380.684681 70.901832 
L 381.008364 70.148187 
L 381.979414 70.148187 
L 382.950465 67.887252 
L 383.274148 67.887252 
L 383.597832 67.133607 
L 384.245199 67.133607 
L 384.568882 66.379963 
L 385.539933 66.379963 
L 386.1873 64.872673 
L 387.482034 64.872673 
L 388.129401 63.365383 
L 389.747818 63.365383 
L 390.395185 61.858093 
L 390.718869 61.858093 
L 391.366236 60.350804 
L 391.689919 60.350804 
L 392.013603 59.597159 
L 393.308337 59.597159 
L 393.63202 58.843514 
L 393.955704 58.843514 
L 394.279387 57.336224 
L 394.926754 57.336224 
L 395.250438 56.582579 
L 396.221488 56.582579 
L 396.868855 55.07529 
L 397.516222 55.07529 
L 397.839906 54.321645 
L 398.163589 54.321645 
L 398.487273 53.568 
L 398.487273 53.568 
" clip-path="url(#pe436f1b1fe)" style="fill: none; stroke-dasharray: 1.85,0.8; stroke-dashoffset: 0; stroke: #bfbf00; stroke-width: 0.5"/>
   </g>
   <g id="patch_3">
    <path d="M 57.6 307.584 
L 57.6 41.472 
" style="fill: none; stroke: #000000; stroke-width: 0.8; stroke-linejoin: miter; stroke-linecap: square"/>
   </g>
   <g id="patch_4">
    <path d="M 414.72 307.584 
L 414.72 41.472 
" style="fill: none; stroke: #000000; stroke-width: 0.8; stroke-linejoin: miter; stroke-linecap: square"/>
   </g>
   <g id="patch_5">
    <path d="M 57.6 307.584 
L 414.72 307.584 
" style="fill: none; stroke: #000000; stroke-width: 0.8; stroke-linejoin: miter; stroke-linecap: square"/>
   </g>
   <g id="patch_6">
    <path d="M 57.6 41.472 
L 414.72 41.472 
" style="fill: none; stroke: #000000; stroke-width: 0.8; stroke-linejoin: miter; stroke-linecap: square"/>
   </g>
   <g id="text_15">
    <!-- count=1000, googlenet=100, resnet50=125, squeezenetv1=100, vgg19=75 -->
    <g transform="translate(35.16 35.472)scale(0.12 -0.12)">
     <defs>
      <path id="FangSong-63" d="M 2125 2125 
Q 2125 2200 2137 2225 
Q 2150 2250 2175 2325 
Q 2200 2425 2075 2562 
Q 1950 2700 1650 2700 
Q 1275 2700 1012 2337 
Q 750 1975 750 1375 
Q 750 825 975 487 
Q 1200 150 1725 150 
Q 2075 150 2312 375 
Q 2550 600 2650 900 
L 2775 850 
Q 2675 475 2400 212 
Q 2125 -50 1650 -50 
Q 1050 -50 700 325 
Q 350 700 350 1400 
Q 350 2025 725 2437 
Q 1100 2850 1700 2850 
Q 2125 2850 2362 2625 
Q 2600 2400 2600 2175 
Q 2600 2025 2537 1962 
Q 2475 1900 2350 1900 
Q 2250 1900 2187 1962 
Q 2125 2025 2125 2125 
z
" transform="scale(0.015625)"/>
      <path id="FangSong-6f" d="M 2875 1400 
Q 2875 775 2500 362 
Q 2125 -50 1575 -50 
Q 1000 -50 637 375 
Q 275 800 275 1400 
Q 275 1950 637 2400 
Q 1000 2850 1575 2850 
Q 2175 2850 2525 2400 
Q 2875 1950 2875 1400 
z
M 675 1375 
Q 675 725 937 412 
Q 1200 100 1575 100 
Q 2000 100 2237 437 
Q 2475 775 2475 1375 
Q 2475 2025 2212 2362 
Q 1950 2700 1575 2700 
Q 1225 2700 950 2362 
Q 675 2025 675 1375 
z
" transform="scale(0.015625)"/>
      <path id="FangSong-75" d="M 1425 225 
Q 1725 225 1937 375 
Q 2150 525 2250 850 
L 2250 2425 
Q 2250 2525 2200 2587 
Q 2150 2650 2025 2650 
L 1875 2650 
L 1875 2800 
L 2025 2800 
Q 2175 2800 2300 2825 
Q 2425 2850 2550 2950 
L 2600 2950 
L 2600 500 
Q 2600 400 2662 350 
Q 2725 300 2825 300 
L 2975 300 
L 2975 150 
L 2825 150 
Q 2700 150 2575 112 
Q 2450 75 2300 0 
L 2250 0 
L 2250 525 
Q 2125 250 1875 112 
Q 1625 -25 1300 -25 
Q 900 -25 700 200 
Q 500 425 500 925 
L 500 2425 
Q 500 2525 450 2587 
Q 400 2650 275 2650 
L 125 2650 
L 125 2800 
L 275 2800 
Q 425 2800 550 2825 
Q 675 2850 800 2950 
L 850 2950 
L 850 875 
Q 850 525 1000 375 
Q 1150 225 1425 225 
z
" transform="scale(0.015625)"/>
      <path id="FangSong-6e" d="M 175 0 
L 175 150 
L 300 150 
Q 425 150 475 200 
Q 525 250 525 350 
L 525 2500 
Q 525 2575 500 2612 
Q 475 2650 400 2650 
L 200 2650 
L 200 2800 
L 375 2800 
Q 500 2800 612 2825 
Q 725 2850 825 2925 
L 875 2925 
L 875 2350 
Q 1100 2600 1325 2725 
Q 1550 2850 1800 2850 
Q 2225 2850 2425 2625 
Q 2625 2400 2625 1950 
L 2625 350 
Q 2625 250 2687 200 
Q 2750 150 2850 150 
L 2975 150 
L 2975 0 
L 1925 0 
L 1925 150 
L 2050 150 
Q 2175 150 2225 200 
Q 2275 250 2275 350 
L 2275 2025 
Q 2275 2325 2150 2487 
Q 2025 2650 1775 2650 
Q 1550 2650 1312 2500 
Q 1075 2350 875 2075 
L 875 350 
Q 875 250 937 200 
Q 1000 150 1100 150 
L 1225 150 
L 1225 0 
L 175 0 
z
" transform="scale(0.015625)"/>
      <path id="FangSong-74" d="M 1475 800 
Q 1475 450 1600 325 
Q 1725 200 1975 200 
Q 2225 200 2375 362 
Q 2525 525 2575 825 
L 2700 775 
Q 2650 425 2437 200 
Q 2225 -25 1875 -25 
Q 1500 -25 1312 200 
Q 1125 425 1125 900 
L 1125 2650 
L 375 2650 
L 375 2800 
L 575 2800 
Q 875 2800 1062 2987 
Q 1250 3175 1300 3575 
L 1325 3775 
L 1475 3775 
L 1475 2800 
L 2475 2800 
L 2475 2650 
L 1475 2650 
L 1475 800 
z
" transform="scale(0.015625)"/>
      <path id="FangSong-3d" d="M 175 2725 
L 175 2950 
L 2950 2950 
L 2950 2725 
L 175 2725 
z
M 175 1450 
L 175 1675 
L 2950 1675 
L 2950 1450 
L 175 1450 
z
" transform="scale(0.015625)"/>
      <path id="FangSong-2c" d="M 1325 75 
Q 1200 25 1100 75 
Q 1000 125 962 237 
Q 925 350 925 437 
Q 925 525 987 612 
Q 1050 700 1150 737 
Q 1250 775 1425 725 
Q 1600 675 1650 500 
Q 1700 325 1662 150 
Q 1625 -25 1525 -200 
Q 1425 -375 1312 -475 
Q 1200 -575 1025 -675 
L 950 -575 
Q 1100 -450 1187 -312 
Q 1275 -175 1325 75 
z
" transform="scale(0.015625)"/>
      <path id="FangSong-20" transform="scale(0.015625)"/>
      <path id="FangSong-67" d="M 850 1875 
Q 850 1575 1025 1362 
Q 1200 1150 1500 1150 
Q 1825 1150 1987 1337 
Q 2150 1525 2150 1875 
Q 2150 2300 1962 2487 
Q 1775 2675 1500 2675 
Q 1225 2675 1037 2487 
Q 850 2300 850 1875 
z
M 2075 525 
Q 2450 475 2625 312 
Q 2800 150 2800 -125 
Q 2800 -500 2487 -725 
Q 2175 -950 1500 -950 
Q 975 -950 650 -737 
Q 325 -525 325 -250 
Q 325 -75 450 100 
Q 575 275 850 375 
Q 700 450 612 537 
Q 525 625 525 750 
Q 525 900 625 1012 
Q 725 1125 875 1200 
Q 725 1325 612 1500 
Q 500 1675 500 1875 
Q 500 2250 762 2537 
Q 1025 2825 1500 2825 
Q 1700 2825 1887 2775 
Q 2075 2725 2200 2600 
Q 2375 2725 2512 2787 
Q 2650 2850 2750 2850 
Q 2875 2850 2925 2762 
Q 2975 2675 2975 2600 
Q 2975 2500 2937 2437 
Q 2900 2375 2800 2375 
Q 2725 2375 2675 2412 
Q 2625 2450 2600 2525 
Q 2575 2600 2487 2587 
Q 2400 2575 2300 2500 
Q 2400 2400 2450 2225 
Q 2500 2050 2500 1875 
Q 2500 1575 2262 1287 
Q 2025 1000 1500 1000 
Q 1350 1000 1225 1037 
Q 1100 1075 1025 1125 
Q 925 1075 875 1000 
Q 825 925 825 875 
Q 825 775 875 725 
Q 925 675 1025 675 
Q 1350 625 1612 587 
Q 1875 550 2075 525 
z
M 1050 325 
Q 825 225 737 87 
Q 650 -50 650 -250 
Q 650 -450 875 -625 
Q 1100 -800 1550 -800 
Q 1975 -800 2225 -662 
Q 2475 -525 2475 -250 
Q 2475 -75 2412 25 
Q 2350 125 2225 150 
Q 1975 200 1675 237 
Q 1375 275 1050 325 
z
" transform="scale(0.015625)"/>
      <path id="FangSong-6c" d="M 900 4275 
Q 1125 4275 1325 4325 
Q 1525 4375 1700 4475 
L 1750 4475 
L 1750 350 
Q 1750 250 1812 200 
Q 1875 150 1975 150 
L 2550 150 
L 2550 0 
L 600 0 
L 600 150 
L 1175 150 
Q 1300 150 1350 200 
Q 1400 250 1400 350 
L 1400 3925 
Q 1400 4025 1350 4075 
Q 1300 4125 1175 4125 
L 625 4125 
L 625 4275 
L 900 4275 
z
" transform="scale(0.015625)"/>
      <path id="FangSong-65" d="M 2375 1550 
Q 2400 2100 2187 2387 
Q 1975 2675 1625 2675 
Q 1250 2675 1012 2375 
Q 775 2075 775 1550 
L 2375 1550 
z
M 775 1400 
Q 775 725 1037 437 
Q 1300 150 1725 150 
Q 2050 150 2275 337 
Q 2500 525 2600 800 
L 2725 750 
Q 2650 475 2387 212 
Q 2125 -50 1675 -50 
Q 1100 -50 737 325 
Q 375 700 375 1400 
Q 375 2025 737 2437 
Q 1100 2850 1625 2850 
Q 2100 2850 2450 2525 
Q 2800 2200 2800 1400 
L 775 1400 
z
" transform="scale(0.015625)"/>
      <path id="FangSong-72" d="M 1250 2025 
Q 1500 2425 1787 2637 
Q 2075 2850 2375 2850 
Q 2625 2850 2762 2737 
Q 2900 2625 2900 2475 
Q 2900 2350 2837 2275 
Q 2775 2200 2650 2200 
Q 2525 2200 2462 2275 
Q 2400 2350 2425 2475 
Q 2425 2550 2400 2600 
Q 2375 2650 2250 2650 
Q 2050 2650 1762 2400 
Q 1475 2150 1250 1700 
L 1250 350 
Q 1250 250 1312 200 
Q 1375 150 1475 150 
L 2025 150 
L 2025 0 
L 175 0 
L 175 150 
L 675 150 
Q 800 150 850 200 
Q 900 250 900 350 
L 900 2425 
Q 900 2525 850 2587 
Q 800 2650 675 2650 
L 200 2650 
L 200 2800 
L 400 2800 
Q 575 2800 812 2837 
Q 1050 2875 1175 2925 
L 1250 2925 
L 1250 2025 
z
" transform="scale(0.015625)"/>
      <path id="FangSong-73" d="M 600 2075 
Q 600 2450 887 2650 
Q 1175 2850 1575 2850 
Q 1800 2850 2000 2787 
Q 2200 2725 2275 2725 
Q 2350 2725 2400 2750 
Q 2450 2775 2525 2850 
L 2625 2025 
L 2475 2000 
Q 2375 2325 2137 2512 
Q 1900 2700 1600 2700 
Q 1275 2700 1087 2575 
Q 900 2450 900 2225 
Q 900 2025 987 1912 
Q 1075 1800 1300 1750 
Q 1475 1675 1737 1587 
Q 2000 1500 2225 1400 
Q 2425 1300 2562 1137 
Q 2700 975 2700 775 
Q 2700 400 2437 187 
Q 2175 -25 1675 -25 
Q 1350 -25 1187 37 
Q 1025 100 925 100 
Q 850 100 762 62 
Q 675 25 575 -25 
L 500 900 
L 650 925 
Q 725 525 975 325 
Q 1225 125 1675 125 
Q 2025 125 2212 250 
Q 2400 375 2400 625 
Q 2400 800 2300 912 
Q 2200 1025 2100 1075 
Q 1850 1175 1550 1287 
Q 1250 1400 1025 1500 
Q 800 1600 700 1750 
Q 600 1900 600 2075 
z
" transform="scale(0.015625)"/>
      <path id="FangSong-35" d="M 1700 2750 
Q 2175 2750 2475 2387 
Q 2775 2025 2775 1425 
Q 2775 750 2462 350 
Q 2150 -50 1500 -50 
Q 1050 -50 700 212 
Q 350 475 350 850 
Q 350 1000 437 1112 
Q 525 1225 675 1225 
Q 825 1225 875 1125 
Q 925 1025 925 950 
Q 925 800 850 712 
Q 775 625 775 525 
Q 775 325 1012 225 
Q 1250 125 1525 125 
Q 1925 125 2137 450 
Q 2350 775 2350 1375 
Q 2350 1875 2162 2187 
Q 1975 2500 1600 2500 
Q 1325 2500 1125 2400 
Q 925 2300 750 1975 
L 525 2000 
L 650 4275 
L 2700 4275 
L 2625 3900 
L 825 3900 
L 725 2250 
Q 975 2600 1212 2675 
Q 1450 2750 1700 2750 
z
" transform="scale(0.015625)"/>
      <path id="FangSong-71" d="M 2250 2150 
Q 2150 2375 1975 2512 
Q 1800 2650 1550 2650 
Q 1200 2650 950 2350 
Q 700 2050 700 1325 
Q 700 700 912 437 
Q 1125 175 1450 175 
Q 1725 175 1937 300 
Q 2150 425 2250 725 
L 2250 2150 
z
M 2600 -550 
Q 2600 -675 2662 -725 
Q 2725 -775 2825 -775 
L 2975 -775 
L 2975 -925 
L 1825 -925 
L 1825 -775 
L 2025 -775 
Q 2150 -775 2200 -725 
Q 2250 -675 2250 -550 
L 2250 375 
Q 2100 175 1887 75 
Q 1675 -25 1375 -25 
Q 950 -25 625 337 
Q 300 700 300 1400 
Q 300 2075 675 2450 
Q 1050 2825 1475 2825 
Q 1750 2825 1937 2725 
Q 2125 2625 2275 2475 
L 2500 2800 
L 2600 2800 
L 2600 -550 
z
" transform="scale(0.015625)"/>
      <path id="FangSong-7a" d="M 2725 975 
L 2550 0 
L 400 0 
L 400 125 
L 2125 2650 
L 1200 2650 
Q 975 2650 825 2487 
Q 675 2325 575 1925 
L 425 1950 
L 525 2800 
L 2575 2800 
L 2575 2725 
L 825 150 
L 1775 150 
Q 2100 150 2287 350 
Q 2475 550 2575 1000 
L 2725 975 
z
" transform="scale(0.015625)"/>
      <path id="FangSong-76" d="M 1600 -25 
L 1450 -25 
L 600 2425 
Q 575 2525 500 2587 
Q 425 2650 325 2650 
L 200 2650 
L 200 2800 
L 1275 2800 
L 1275 2650 
L 1175 2650 
Q 1025 2650 987 2575 
Q 950 2500 1000 2325 
L 1600 575 
L 1650 575 
L 2250 2300 
Q 2325 2475 2262 2562 
Q 2200 2650 2050 2650 
L 2000 2650 
L 2000 2800 
L 2900 2800 
L 2900 2650 
L 2850 2650 
Q 2700 2650 2612 2562 
Q 2525 2475 2450 2300 
L 1600 -25 
z
" transform="scale(0.015625)"/>
      <path id="FangSong-39" d="M 675 2950 
Q 675 2400 887 2112 
Q 1100 1825 1425 1825 
Q 1800 1825 2075 2175 
Q 2350 2525 2350 2825 
Q 2350 3425 2150 3787 
Q 1950 4150 1500 4150 
Q 1075 4150 875 3812 
Q 675 3475 675 2950 
z
M 1350 1600 
Q 850 1600 550 1912 
Q 250 2225 250 2925 
Q 250 3525 575 3925 
Q 900 4325 1500 4325 
Q 2125 4325 2475 3825 
Q 2825 3325 2825 2375 
Q 2825 1325 2412 637 
Q 2000 -50 1275 -50 
Q 950 -50 712 100 
Q 475 250 475 500 
Q 475 600 537 700 
Q 600 800 750 800 
Q 900 800 950 687 
Q 1000 575 1000 425 
Q 1000 325 1025 262 
Q 1050 200 1075 175 
Q 1100 150 1162 137 
Q 1225 125 1300 125 
Q 1750 125 2025 625 
Q 2300 1125 2350 2300 
Q 2225 2000 1975 1800 
Q 1725 1600 1350 1600 
z
" transform="scale(0.015625)"/>
      <path id="FangSong-37" d="M 2800 4100 
Q 2275 3250 1962 2437 
Q 1650 1625 1650 1025 
Q 1650 925 1662 737 
Q 1675 550 1675 300 
Q 1675 100 1612 25 
Q 1550 -50 1400 -50 
Q 1275 -50 1187 37 
Q 1100 125 1100 350 
Q 1100 825 1312 1525 
Q 1525 2225 2450 3900 
L 1200 3900 
Q 925 3900 762 3725 
Q 600 3550 525 3200 
L 375 3225 
L 550 4275 
L 2800 4275 
L 2800 4100 
z
" transform="scale(0.015625)"/>
     </defs>
     <use xlink:href="#FangSong-63"/>
     <use xlink:href="#FangSong-6f" x="50"/>
     <use xlink:href="#FangSong-75" x="100"/>
     <use xlink:href="#FangSong-6e" x="150"/>
     <use xlink:href="#FangSong-74" x="200"/>
     <use xlink:href="#FangSong-3d" x="250"/>
     <use xlink:href="#FangSong-31" x="300"/>
     <use xlink:href="#FangSong-30" x="350"/>
     <use xlink:href="#FangSong-30" x="400"/>
     <use xlink:href="#FangSong-30" x="450"/>
     <use xlink:href="#FangSong-2c" x="500"/>
     <use xlink:href="#FangSong-20" x="550"/>
     <use xlink:href="#FangSong-67" x="600"/>
     <use xlink:href="#FangSong-6f" x="650"/>
     <use xlink:href="#FangSong-6f" x="700"/>
     <use xlink:href="#FangSong-67" x="750"/>
     <use xlink:href="#FangSong-6c" x="800"/>
     <use xlink:href="#FangSong-65" x="850"/>
     <use xlink:href="#FangSong-6e" x="900"/>
     <use xlink:href="#FangSong-65" x="950"/>
     <use xlink:href="#FangSong-74" x="1000"/>
     <use xlink:href="#FangSong-3d" x="1050"/>
     <use xlink:href="#FangSong-31" x="1100"/>
     <use xlink:href="#FangSong-30" x="1150"/>
     <use xlink:href="#FangSong-30" x="1200"/>
     <use xlink:href="#FangSong-2c" x="1250"/>
     <use xlink:href="#FangSong-20" x="1300"/>
     <use xlink:href="#FangSong-72" x="1350"/>
     <use xlink:href="#FangSong-65" x="1400"/>
     <use xlink:href="#FangSong-73" x="1450"/>
     <use xlink:href="#FangSong-6e" x="1500"/>
     <use xlink:href="#FangSong-65" x="1550"/>
     <use xlink:href="#FangSong-74" x="1600"/>
     <use xlink:href="#FangSong-35" x="1650"/>
     <use xlink:href="#FangSong-30" x="1700"/>
     <use xlink:href="#FangSong-3d" x="1750"/>
     <use xlink:href="#FangSong-31" x="1800"/>
     <use xlink:href="#FangSong-32" x="1850"/>
     <use xlink:href="#FangSong-35" x="1900"/>
     <use xlink:href="#FangSong-2c" x="1950"/>
     <use xlink:href="#FangSong-20" x="2000"/>
     <use xlink:href="#FangSong-73" x="2050"/>
     <use xlink:href="#FangSong-71" x="2100"/>
     <use xlink:href="#FangSong-75" x="2150"/>
     <use xlink:href="#FangSong-65" x="2200"/>
     <use xlink:href="#FangSong-65" x="2250"/>
     <use xlink:href="#FangSong-7a" x="2300"/>
     <use xlink:href="#FangSong-65" x="2350"/>
     <use xlink:href="#FangSong-6e" x="2400"/>
     <use xlink:href="#FangSong-65" x="2450"/>
     <use xlink:href="#FangSong-74" x="2500"/>
     <use xlink:href="#FangSong-76" x="2550"/>
     <use xlink:href="#FangSong-31" x="2600"/>
     <use xlink:href="#FangSong-3d" x="2650"/>
     <use xlink:href="#FangSong-31" x="2700"/>
     <use xlink:href="#FangSong-30" x="2750"/>
     <use xlink:href="#FangSong-30" x="2800"/>
     <use xlink:href="#FangSong-2c" x="2850"/>
     <use xlink:href="#FangSong-20" x="2900"/>
     <use xlink:href="#FangSong-76" x="2950"/>
     <use xlink:href="#FangSong-67" x="3000"/>
     <use xlink:href="#FangSong-67" x="3050"/>
     <use xlink:href="#FangSong-31" x="3100"/>
     <use xlink:href="#FangSong-39" x="3150"/>
     <use xlink:href="#FangSong-3d" x="3200"/>
     <use xlink:href="#FangSong-37" x="3250"/>
     <use xlink:href="#FangSong-35" x="3300"/>
    </g>
   </g>
   <g id="legend_1">
    <g id="patch_7">
     <path d="M 315.72 302.584 
L 407.72 302.584 
Q 409.72 302.584 409.72 300.584 
L 409.72 234.279312 
Q 409.72 232.279312 407.72 232.279312 
L 315.72 232.279312 
Q 313.72 232.279312 313.72 234.279312 
L 313.72 300.584 
Q 313.72 302.584 315.72 302.584 
z
" style="fill: #ffffff; opacity: 0.8; stroke: #cccccc; stroke-linejoin: miter"/>
    </g>
    <g id="line2d_18">
     <path d="M 317.72 239.779312 
L 327.72 239.779312 
L 337.72 239.779312 
" style="fill: none; stroke: #ff0000; stroke-linecap: square"/>
    </g>
    <g id="text_16">
     <!-- total -->
     <g transform="translate(345.72 243.279312)scale(0.1 -0.1)">
      <defs>
       <path id="FangSong-61" d="M 1200 -25 
Q 750 -25 500 187 
Q 250 400 250 675 
Q 250 1125 637 1412 
Q 1025 1700 2175 1825 
L 2175 2125 
Q 2175 2375 2062 2537 
Q 1950 2700 1550 2700 
Q 1125 2700 950 2562 
Q 775 2425 825 2275 
Q 875 2175 825 2075 
Q 775 1975 625 1975 
Q 525 1975 462 2037 
Q 400 2100 400 2225 
Q 400 2450 725 2650 
Q 1050 2850 1525 2850 
Q 2025 2850 2275 2662 
Q 2525 2475 2525 2125 
L 2525 475 
Q 2525 275 2562 237 
Q 2600 200 2700 200 
Q 2825 200 2875 312 
Q 2925 425 2925 625 
L 3050 625 
Q 3050 275 2925 137 
Q 2800 0 2600 0 
Q 2425 0 2325 75 
Q 2225 150 2175 325 
Q 1925 150 1712 62 
Q 1500 -25 1200 -25 
z
M 675 750 
Q 675 525 812 337 
Q 950 150 1250 150 
Q 1475 150 1700 237 
Q 1925 325 2175 500 
L 2175 1675 
Q 1325 1575 1000 1337 
Q 675 1100 675 750 
z
" transform="scale(0.015625)"/>
      </defs>
      <use xlink:href="#FangSong-74"/>
      <use xlink:href="#FangSong-6f" x="50"/>
      <use xlink:href="#FangSong-74" x="100"/>
      <use xlink:href="#FangSong-61" x="150"/>
      <use xlink:href="#FangSong-6c" x="200"/>
     </g>
    </g>
    <g id="line2d_19">
     <path d="M 317.72 253.224625 
L 327.72 253.224625 
L 337.72 253.224625 
" style="fill: none; stroke-dasharray: 1.85,0.8; stroke-dashoffset: 0; stroke: #008000; stroke-width: 0.5"/>
    </g>
    <g id="text_17">
     <!-- squeezenetv1 -->
     <g transform="translate(345.72 256.724625)scale(0.1 -0.1)">
      <use xlink:href="#FangSong-73"/>
      <use xlink:href="#FangSong-71" x="50"/>
      <use xlink:href="#FangSong-75" x="100"/>
      <use xlink:href="#FangSong-65" x="150"/>
      <use xlink:href="#FangSong-65" x="200"/>
      <use xlink:href="#FangSong-7a" x="250"/>
      <use xlink:href="#FangSong-65" x="300"/>
      <use xlink:href="#FangSong-6e" x="350"/>
      <use xlink:href="#FangSong-65" x="400"/>
      <use xlink:href="#FangSong-74" x="450"/>
      <use xlink:href="#FangSong-76" x="500"/>
      <use xlink:href="#FangSong-31" x="550"/>
     </g>
    </g>
    <g id="line2d_20">
     <path d="M 317.72 266.669937 
L 327.72 266.669937 
L 337.72 266.669937 
" style="fill: none; stroke-dasharray: 1.85,0.8; stroke-dashoffset: 0; stroke: #0000ff; stroke-width: 0.5"/>
    </g>
    <g id="text_18">
     <!-- googlenet -->
     <g transform="translate(345.72 270.169937)scale(0.1 -0.1)">
      <use xlink:href="#FangSong-67"/>
      <use xlink:href="#FangSong-6f" x="50"/>
      <use xlink:href="#FangSong-6f" x="100"/>
      <use xlink:href="#FangSong-67" x="150"/>
      <use xlink:href="#FangSong-6c" x="200"/>
      <use xlink:href="#FangSong-65" x="250"/>
      <use xlink:href="#FangSong-6e" x="300"/>
      <use xlink:href="#FangSong-65" x="350"/>
      <use xlink:href="#FangSong-74" x="400"/>
     </g>
    </g>
    <g id="line2d_21">
     <path d="M 317.72 280.154312 
L 327.72 280.154312 
L 337.72 280.154312 
" style="fill: none; stroke-dasharray: 1.85,0.8; stroke-dashoffset: 0; stroke: #bf00bf; stroke-width: 0.5"/>
    </g>
    <g id="text_19">
     <!-- resnet50 -->
     <g transform="translate(345.72 283.654312)scale(0.1 -0.1)">
      <use xlink:href="#FangSong-72"/>
      <use xlink:href="#FangSong-65" x="50"/>
      <use xlink:href="#FangSong-73" x="100"/>
      <use xlink:href="#FangSong-6e" x="150"/>
      <use xlink:href="#FangSong-65" x="200"/>
      <use xlink:href="#FangSong-74" x="250"/>
      <use xlink:href="#FangSong-35" x="300"/>
      <use xlink:href="#FangSong-30" x="350"/>
     </g>
    </g>
    <g id="line2d_22">
     <path d="M 317.72 293.599625 
L 327.72 293.599625 
L 337.72 293.599625 
" style="fill: none; stroke-dasharray: 1.85,0.8; stroke-dashoffset: 0; stroke: #bfbf00; stroke-width: 0.5"/>
    </g>
    <g id="text_20">
     <!-- vgg19 -->
     <g transform="translate(345.72 297.099625)scale(0.1 -0.1)">
      <use xlink:href="#FangSong-76"/>
      <use xlink:href="#FangSong-67" x="50"/>
      <use xlink:href="#FangSong-67" x="100"/>
      <use xlink:href="#FangSong-31" x="150"/>
      <use xlink:href="#FangSong-39" x="200"/>
     </g>
    </g>
   </g>
  </g>
 </g>
 <defs>
  <clipPath id="pe436f1b1fe">
   <rect x="57.6" y="41.472" width="357.12" height="266.112"/>
  </clipPath>
 </defs>
</svg>
