<?xml version="1.0" encoding="utf-8" standalone="no"?>
<!DOCTYPE svg PUBLIC "-//W3C//DTD SVG 1.1//EN"
  "http://www.w3.org/Graphics/SVG/1.1/DTD/svg11.dtd">
<svg xmlns:xlink="http://www.w3.org/1999/xlink" width="460.8pt" height="345.6pt" viewBox="0 0 460.8 345.6" xmlns="http://www.w3.org/2000/svg" version="1.1">
 <metadata>
  <rdf:RDF xmlns:dc="http://purl.org/dc/elements/1.1/" xmlns:cc="http://creativecommons.org/ns#" xmlns:rdf="http://www.w3.org/1999/02/22-rdf-syntax-ns#">
   <cc:Work>
    <dc:type rdf:resource="http://purl.org/dc/dcmitype/StillImage"/>
    <dc:date>2022-11-18T09:11:44.493742</dc:date>
    <dc:format>image/svg+xml</dc:format>
    <dc:creator>
     <cc:Agent>
      <dc:title>Matplotlib v3.5.2, https://matplotlib.org/</dc:title>
     </cc:Agent>
    </dc:creator>
   </cc:Work>
  </rdf:RDF>
 </metadata>
 <defs>
  <style type="text/css">*{stroke-linejoin: round; stroke-linecap: butt}</style>
 </defs>
 <g id="figure_1">
  <g id="patch_1">
   <path d="M 0 345.6 
L 460.8 345.6 
L 460.8 0 
L 0 0 
z
" style="fill: #ffffff"/>
  </g>
  <g id="axes_1">
   <g id="patch_2">
    <path d="M 57.6 307.584 
L 414.72 307.584 
L 414.72 41.472 
L 57.6 41.472 
z
" style="fill: #ffffff"/>
   </g>
   <g id="matplotlib.axis_1">
    <g id="xtick_1">
     <g id="line2d_1">
      <defs>
       <path id="m4c5194e313" d="M 0 0 
L 0 3.5 
" style="stroke: #000000; stroke-width: 0.8"/>
      </defs>
      <g>
       <use xlink:href="#m4c5194e313" x="71.610588" y="307.584" style="stroke: #000000; stroke-width: 0.8"/>
      </g>
     </g>
     <g id="text_1">
      <!-- 0 -->
      <g transform="translate(69.110588 321.576187)scale(0.1 -0.1)">
       <defs>
        <path id="FangSong-30" d="M 1575 4125 
Q 1225 4125 987 3587 
Q 750 3050 750 2150 
Q 750 1200 987 675 
Q 1225 150 1575 150 
Q 1950 150 2162 675 
Q 2375 1200 2375 2150 
Q 2375 3050 2175 3587 
Q 1975 4125 1575 4125 
z
M 1575 -50 
Q 1025 -50 650 525 
Q 275 1100 275 2150 
Q 275 3125 637 3725 
Q 1000 4325 1575 4325 
Q 2125 4325 2487 3750 
Q 2850 3175 2850 2150 
Q 2850 1125 2487 537 
Q 2125 -50 1575 -50 
z
" transform="scale(0.015625)"/>
       </defs>
       <use xlink:href="#FangSong-30"/>
      </g>
     </g>
    </g>
    <g id="xtick_2">
     <g id="line2d_2">
      <g>
       <use xlink:href="#m4c5194e313" x="116.053373" y="307.584" style="stroke: #000000; stroke-width: 0.8"/>
      </g>
     </g>
     <g id="text_2">
      <!-- 20 -->
      <g transform="translate(111.053373 321.576187)scale(0.1 -0.1)">
       <defs>
        <path id="FangSong-32" d="M 2300 3225 
Q 2300 3675 2100 3912 
Q 1900 4150 1500 4150 
Q 1200 4150 987 3987 
Q 775 3825 775 3575 
Q 775 3425 862 3325 
Q 950 3225 950 3125 
Q 950 3000 887 2937 
Q 825 2875 700 2875 
Q 550 2875 462 2962 
Q 375 3050 375 3250 
Q 375 3775 750 4050 
Q 1125 4325 1550 4325 
Q 2150 4325 2437 4025 
Q 2725 3725 2725 3275 
Q 2725 2975 2587 2675 
Q 2450 2375 2150 2100 
Q 1425 1400 1037 962 
Q 650 525 575 375 
L 2050 375 
Q 2275 375 2425 550 
Q 2575 725 2625 1075 
L 2775 1075 
L 2625 0 
L 300 0 
L 300 325 
Q 425 550 712 900 
Q 1000 1250 1475 1725 
Q 1900 2150 2100 2525 
Q 2300 2900 2300 3225 
z
" transform="scale(0.015625)"/>
       </defs>
       <use xlink:href="#FangSong-32"/>
       <use xlink:href="#FangSong-30" x="50"/>
      </g>
     </g>
    </g>
    <g id="xtick_3">
     <g id="line2d_3">
      <g>
       <use xlink:href="#m4c5194e313" x="160.496158" y="307.584" style="stroke: #000000; stroke-width: 0.8"/>
      </g>
     </g>
     <g id="text_3">
      <!-- 40 -->
      <g transform="translate(155.496158 321.576187)scale(0.1 -0.1)">
       <defs>
        <path id="FangSong-34" d="M 2275 475 
Q 2275 300 2375 225 
Q 2475 150 2650 150 
L 2875 150 
L 2875 0 
L 1225 0 
L 1225 150 
L 1500 150 
Q 1700 150 1787 225 
Q 1875 300 1875 475 
L 1875 1300 
L 200 1300 
L 200 1425 
L 2025 4325 
L 2275 4325 
L 2275 1450 
L 2950 1450 
L 2950 1300 
L 2275 1300 
L 2275 475 
z
M 1850 3700 
L 425 1450 
L 1875 1450 
L 1875 3700 
L 1850 3700 
z
" transform="scale(0.015625)"/>
       </defs>
       <use xlink:href="#FangSong-34"/>
       <use xlink:href="#FangSong-30" x="50"/>
      </g>
     </g>
    </g>
    <g id="xtick_4">
     <g id="line2d_4">
      <g>
       <use xlink:href="#m4c5194e313" x="204.938943" y="307.584" style="stroke: #000000; stroke-width: 0.8"/>
      </g>
     </g>
     <g id="text_4">
      <!-- 60 -->
      <g transform="translate(199.938943 321.576187)scale(0.1 -0.1)">
       <defs>
        <path id="FangSong-36" d="M 750 1700 
Q 750 950 1012 537 
Q 1275 125 1650 125 
Q 2025 125 2225 400 
Q 2425 675 2425 1425 
Q 2425 1925 2212 2200 
Q 2000 2475 1700 2475 
Q 1425 2475 1187 2312 
Q 950 2150 750 1700 
z
M 1725 2725 
Q 2325 2725 2587 2325 
Q 2850 1925 2850 1425 
Q 2850 675 2487 312 
Q 2125 -50 1650 -50 
Q 975 -50 625 462 
Q 275 975 275 1950 
Q 275 3100 700 3712 
Q 1125 4325 1850 4325 
Q 2200 4325 2412 4125 
Q 2625 3925 2625 3775 
Q 2625 3625 2562 3550 
Q 2500 3475 2350 3475 
Q 2225 3475 2162 3537 
Q 2100 3600 2100 3725 
Q 2100 3775 2112 3825 
Q 2125 3875 2125 3925 
Q 2125 4025 2050 4087 
Q 1975 4150 1775 4150 
Q 1350 4150 1050 3762 
Q 750 3375 750 2075 
Q 900 2400 1162 2562 
Q 1425 2725 1725 2725 
z
" transform="scale(0.015625)"/>
       </defs>
       <use xlink:href="#FangSong-36"/>
       <use xlink:href="#FangSong-30" x="50"/>
      </g>
     </g>
    </g>
    <g id="xtick_5">
     <g id="line2d_5">
      <g>
       <use xlink:href="#m4c5194e313" x="249.381729" y="307.584" style="stroke: #000000; stroke-width: 0.8"/>
      </g>
     </g>
     <g id="text_5">
      <!-- 80 -->
      <g transform="translate(244.381729 321.576187)scale(0.1 -0.1)">
       <defs>
        <path id="FangSong-38" d="M 600 1025 
Q 600 625 862 375 
Q 1125 125 1525 125 
Q 2000 125 2212 375 
Q 2425 625 2425 1000 
Q 2425 1325 2125 1625 
Q 1825 1925 1225 2175 
Q 925 1975 762 1675 
Q 600 1375 600 1025 
z
M 2800 1075 
Q 2800 600 2450 275 
Q 2100 -50 1525 -50 
Q 1000 -50 625 275 
Q 250 600 250 1025 
Q 250 1450 462 1750 
Q 675 2050 1075 2275 
Q 725 2450 537 2712 
Q 350 2975 350 3300 
Q 350 3725 675 4025 
Q 1000 4325 1575 4325 
Q 2100 4325 2425 4025 
Q 2750 3725 2750 3300 
Q 2750 3000 2562 2737 
Q 2375 2475 1975 2275 
Q 2400 2025 2600 1725 
Q 2800 1425 2800 1075 
z
M 2400 3275 
Q 2400 3625 2200 3887 
Q 2000 4150 1575 4150 
Q 1100 4150 900 3900 
Q 700 3650 700 3375 
Q 700 3100 987 2837 
Q 1275 2575 1800 2375 
Q 2100 2525 2250 2750 
Q 2400 2975 2400 3275 
z
" transform="scale(0.015625)"/>
       </defs>
       <use xlink:href="#FangSong-38"/>
       <use xlink:href="#FangSong-30" x="50"/>
      </g>
     </g>
    </g>
    <g id="xtick_6">
     <g id="line2d_6">
      <g>
       <use xlink:href="#m4c5194e313" x="293.824514" y="307.584" style="stroke: #000000; stroke-width: 0.8"/>
      </g>
     </g>
     <g id="text_6">
      <!-- 100 -->
      <g transform="translate(286.324514 321.576187)scale(0.1 -0.1)">
       <defs>
        <path id="FangSong-31" d="M 1800 4350 
L 1800 550 
Q 1800 350 1925 250 
Q 2050 150 2275 150 
L 2525 150 
L 2525 0 
L 700 0 
L 700 150 
L 925 150 
Q 1175 150 1287 250 
Q 1400 350 1400 550 
L 1400 3575 
Q 1400 3675 1337 3737 
Q 1275 3800 1150 3800 
L 700 3800 
L 700 3950 
L 925 3950 
Q 1225 3950 1412 4050 
Q 1600 4150 1700 4350 
L 1800 4350 
z
" transform="scale(0.015625)"/>
       </defs>
       <use xlink:href="#FangSong-31"/>
       <use xlink:href="#FangSong-30" x="50"/>
       <use xlink:href="#FangSong-30" x="100"/>
      </g>
     </g>
    </g>
    <g id="xtick_7">
     <g id="line2d_7">
      <g>
       <use xlink:href="#m4c5194e313" x="338.267299" y="307.584" style="stroke: #000000; stroke-width: 0.8"/>
      </g>
     </g>
     <g id="text_7">
      <!-- 120 -->
      <g transform="translate(330.767299 321.576187)scale(0.1 -0.1)">
       <use xlink:href="#FangSong-31"/>
       <use xlink:href="#FangSong-32" x="50"/>
       <use xlink:href="#FangSong-30" x="100"/>
      </g>
     </g>
    </g>
    <g id="xtick_8">
     <g id="line2d_8">
      <g>
       <use xlink:href="#m4c5194e313" x="382.710084" y="307.584" style="stroke: #000000; stroke-width: 0.8"/>
      </g>
     </g>
     <g id="text_8">
      <!-- 140 -->
      <g transform="translate(375.210084 321.576187)scale(0.1 -0.1)">
       <use xlink:href="#FangSong-31"/>
       <use xlink:href="#FangSong-34" x="50"/>
       <use xlink:href="#FangSong-30" x="100"/>
      </g>
     </g>
    </g>
    <g id="text_9">
     <!-- 响应比 -->
     <g transform="translate(221.16 334.873062)scale(0.1 -0.1)">
      <defs>
       <path id="FangSong-54cd" d="M 2700 -200 
Q 2725 -650 2625 -525 
L 2375 -125 
Q 2500 50 2475 350 
L 2500 3200 
Q 2500 3625 2425 4100 
L 2500 4125 
L 2725 3575 
L 3300 3625 
Q 3550 4225 3675 4637 
Q 3800 5050 3700 5150 
L 3775 5200 
L 4125 4750 
Q 4050 4800 3900 4512 
Q 3750 4225 3500 3650 
L 5275 3850 
L 5425 4125 
L 5725 3850 
L 5575 3650 
Q 5500 -175 5175 -675 
Q 4800 -275 4175 250 
L 4225 350 
L 5050 -175 
Q 5275 525 5325 3625 
L 2725 3325 
L 2700 -200 
z
M 725 3250 
Q 725 3575 625 3925 
L 725 3975 
L 950 3525 
L 1750 3650 
L 1875 3875 
L 2175 3650 
L 2000 3450 
L 1925 2175 
L 2125 1950 
L 1000 1800 
Q 1025 1275 900 1350 
L 650 1750 
Q 775 1850 750 2150 
L 725 3250 
z
M 3550 1250 
Q 3575 950 3500 875 
L 3225 1200 
Q 3300 1350 3300 1525 
L 3275 2325 
Q 3275 2700 3200 2875 
L 3275 2925 
L 3500 2625 
L 4350 2725 
L 4500 2925 
L 4775 2675 
L 4600 2475 
L 4525 1575 
L 4750 1400 
L 3550 1250 
z
M 975 3275 
L 1000 2050 
L 1675 2150 
L 1775 3425 
L 975 3275 
z
M 4350 2475 
L 3500 2375 
L 3525 1500 
L 4275 1575 
L 4350 2475 
z
" transform="scale(0.015625)"/>
       <path id="FangSong-5e94" d="M 1625 4400 
L 1800 3800 
Q 5075 4050 5200 4175 
L 5525 3850 
Q 5200 3900 1825 3550 
Q 1775 2450 1675 1825 
Q 1575 1200 1312 612 
Q 1050 25 500 -600 
L 425 -525 
Q 850 50 1100 675 
Q 1350 1300 1425 1862 
Q 1500 2425 1550 3150 
Q 1600 3875 1550 4375 
L 1625 4400 
z
M 4725 3175 
L 5100 2725 
Q 5000 2800 4750 2112 
Q 4500 1425 4000 150 
Q 5425 225 5400 275 
L 5725 0 
Q 5425 0 3687 -112 
Q 1950 -225 1725 -275 
L 1350 25 
Q 2150 0 3800 125 
Q 4300 1500 4525 2200 
Q 4750 2900 4650 3125 
L 4725 3175 
z
M 2900 1150 
Q 2800 975 2650 725 
Q 2450 1625 2175 2550 
L 2275 2575 
Q 2600 1850 2900 1150 
z
M 3775 1550 
Q 3675 1350 3525 1150 
Q 3475 1600 3075 3050 
L 3150 3075 
Q 3475 2300 3775 1550 
z
M 3500 4100 
Q 3275 4675 3000 5225 
L 3075 5275 
Q 3375 4900 3700 4525 
Q 3600 4325 3500 4100 
z
" transform="scale(0.015625)"/>
       <path id="FangSong-6bd4" d="M 3500 2125 
Q 3925 2425 4487 2975 
Q 5050 3525 4950 3750 
L 5025 3775 
L 5250 3225 
Q 5175 3250 4875 3000 
Q 4575 2750 4287 2525 
Q 4000 2300 3500 1900 
L 3500 575 
Q 3475 -100 4150 -100 
L 4800 -100 
Q 5275 -100 5375 12 
Q 5475 125 5450 1350 
L 5575 1350 
Q 5600 825 5637 412 
Q 5675 0 5800 -175 
Q 5375 -325 4800 -325 
L 4150 -325 
Q 3225 -350 3275 550 
L 3275 4300 
Q 3275 4875 3150 5150 
L 3200 5200 
L 3625 4850 
Q 3475 4825 3500 4250 
L 3500 2125 
z
M 1500 2575 
Q 1900 2625 2337 2712 
Q 2775 2800 2800 2850 
L 3075 2600 
Q 2875 2575 2350 2475 
Q 1825 2375 1775 2325 
L 1500 2525 
L 1500 150 
L 2925 1075 
L 2975 1025 
Q 1550 -75 1375 -350 
L 1200 0 
Q 1275 75 1275 350 
L 1275 3925 
Q 1275 4475 1150 4750 
L 1200 4800 
L 1625 4400 
Q 1475 4375 1500 3925 
L 1500 2575 
z
" transform="scale(0.015625)"/>
      </defs>
      <use xlink:href="#FangSong-54cd"/>
      <use xlink:href="#FangSong-5e94" x="100"/>
      <use xlink:href="#FangSong-6bd4" x="200"/>
     </g>
    </g>
   </g>
   <g id="matplotlib.axis_2">
    <g id="ytick_1">
     <g id="line2d_9">
      <defs>
       <path id="m433f035151" d="M 0 0 
L -3.5 0 
" style="stroke: #000000; stroke-width: 0.8"/>
      </defs>
      <g>
       <use xlink:href="#m433f035151" x="57.6" y="295.488" style="stroke: #000000; stroke-width: 0.8"/>
      </g>
     </g>
     <g id="text_10">
      <!-- 0% -->
      <g transform="translate(40.6 298.984094)scale(0.1 -0.1)">
       <defs>
        <path id="FangSong-25" d="M 725 4150 
Q 575 4150 475 3950 
Q 375 3750 375 3200 
Q 375 2575 487 2387 
Q 600 2200 725 2200 
Q 900 2200 987 2425 
Q 1075 2650 1075 3200 
Q 1075 3650 1012 3900 
Q 950 4150 725 4150 
z
M 1400 3175 
Q 1400 2725 1250 2387 
Q 1100 2050 725 2050 
Q 425 2050 237 2350 
Q 50 2650 50 3175 
Q 50 3725 250 4025 
Q 450 4325 725 4325 
Q 1025 4325 1212 4012 
Q 1400 3700 1400 3175 
z
M 2700 1100 
Q 2700 1525 2625 1800 
Q 2550 2075 2350 2075 
Q 2200 2075 2100 1837 
Q 2000 1600 2000 1100 
Q 2000 475 2112 300 
Q 2225 125 2350 125 
Q 2525 125 2612 337 
Q 2700 550 2700 1100 
z
M 3025 1075 
Q 3025 575 2850 262 
Q 2675 -50 2350 -50 
Q 2075 -50 1875 262 
Q 1675 575 1675 1075 
Q 1675 1625 1875 1937 
Q 2075 2250 2350 2250 
Q 2650 2250 2837 1925 
Q 3025 1600 3025 1075 
z
M 2500 4250 
L 700 -50 
L 550 25 
L 2325 4325 
L 2500 4250 
z
" transform="scale(0.015625)"/>
       </defs>
       <use xlink:href="#FangSong-30"/>
       <use xlink:href="#FangSong-25" x="50"/>
      </g>
     </g>
    </g>
    <g id="ytick_2">
     <g id="line2d_10">
      <g>
       <use xlink:href="#m433f035151" x="57.6" y="247.104" style="stroke: #000000; stroke-width: 0.8"/>
      </g>
     </g>
     <g id="text_11">
      <!-- 20% -->
      <g transform="translate(35.6 250.600094)scale(0.1 -0.1)">
       <use xlink:href="#FangSong-32"/>
       <use xlink:href="#FangSong-30" x="50"/>
       <use xlink:href="#FangSong-25" x="100"/>
      </g>
     </g>
    </g>
    <g id="ytick_3">
     <g id="line2d_11">
      <g>
       <use xlink:href="#m433f035151" x="57.6" y="198.72" style="stroke: #000000; stroke-width: 0.8"/>
      </g>
     </g>
     <g id="text_12">
      <!-- 40% -->
      <g transform="translate(35.6 202.216094)scale(0.1 -0.1)">
       <use xlink:href="#FangSong-34"/>
       <use xlink:href="#FangSong-30" x="50"/>
       <use xlink:href="#FangSong-25" x="100"/>
      </g>
     </g>
    </g>
    <g id="ytick_4">
     <g id="line2d_12">
      <g>
       <use xlink:href="#m433f035151" x="57.6" y="150.336" style="stroke: #000000; stroke-width: 0.8"/>
      </g>
     </g>
     <g id="text_13">
      <!-- 60% -->
      <g transform="translate(35.6 153.832094)scale(0.1 -0.1)">
       <use xlink:href="#FangSong-36"/>
       <use xlink:href="#FangSong-30" x="50"/>
       <use xlink:href="#FangSong-25" x="100"/>
      </g>
     </g>
    </g>
    <g id="ytick_5">
     <g id="line2d_13">
      <g>
       <use xlink:href="#m433f035151" x="57.6" y="101.952" style="stroke: #000000; stroke-width: 0.8"/>
      </g>
     </g>
     <g id="text_14">
      <!-- 80% -->
      <g transform="translate(35.6 105.448094)scale(0.1 -0.1)">
       <use xlink:href="#FangSong-38"/>
       <use xlink:href="#FangSong-30" x="50"/>
       <use xlink:href="#FangSong-25" x="100"/>
      </g>
     </g>
    </g>
    <g id="ytick_6">
     <g id="line2d_14">
      <g>
       <use xlink:href="#m433f035151" x="57.6" y="53.568" style="stroke: #000000; stroke-width: 0.8"/>
      </g>
     </g>
     <g id="text_15">
      <!-- 100% -->
      <g transform="translate(30.6 57.064094)scale(0.1 -0.1)">
       <use xlink:href="#FangSong-31"/>
       <use xlink:href="#FangSong-30" x="50"/>
       <use xlink:href="#FangSong-30" x="100"/>
       <use xlink:href="#FangSong-25" x="150"/>
      </g>
     </g>
    </g>
    <g id="text_16">
     <!-- 累计完成比例 -->
     <g transform="translate(25.154688 204.528)rotate(-90)scale(0.1 -0.1)">
      <defs>
       <path id="FangSong-7d2f" d="M 4525 4975 
L 4700 5225 
L 5000 4950 
L 4825 4775 
L 4625 3550 
L 4850 3300 
L 3175 3150 
L 3375 2975 
Q 3200 2925 2862 2725 
Q 2525 2525 2075 2275 
L 3475 2500 
Q 3750 2675 3900 2800 
Q 4050 2925 4100 3075 
L 4175 3100 
L 4325 2700 
Q 4200 2675 3500 2237 
Q 2800 1800 2275 1550 
L 4375 1825 
L 3900 2175 
L 4000 2275 
Q 4625 1900 4950 1725 
Q 4975 1475 4925 1225 
Q 4800 1375 4500 1675 
L 3250 1475 
L 3525 1300 
Q 3375 1200 3375 875 
L 3375 25 
Q 3375 -325 3225 -625 
Q 2975 -325 2400 150 
L 2450 250 
L 3050 -75 
Q 3150 -125 3150 0 
L 3150 925 
Q 3150 1300 3125 1450 
Q 1875 1275 1575 1175 
L 1325 1425 
L 1850 1550 
Q 2175 1700 3250 2300 
Q 2075 2100 1875 2000 
L 1575 2250 
L 1800 2300 
Q 2150 2475 3025 3125 
L 2000 3025 
Q 2000 2675 1950 2700 
Q 1900 2725 1650 3025 
Q 1725 3250 1725 3425 
L 1650 4400 
Q 1625 4675 1525 4950 
L 1625 5000 
L 1875 4675 
L 4525 4975 
z
M 3150 3375 
L 3150 3875 
Q 2525 3800 2400 3725 
L 2100 3975 
Q 2500 3975 3150 4075 
L 3150 4600 
L 1900 4450 
L 1975 3250 
L 3150 3375 
z
M 3375 4100 
Q 3950 4175 4025 4225 
L 4275 4000 
Q 3950 3975 3375 3900 
L 3375 3400 
L 4400 3500 
L 4575 4750 
L 3375 4600 
L 3375 4100 
z
M 5450 -75 
Q 4975 325 3875 1025 
L 3950 1125 
Q 4850 700 5350 500 
Q 5425 250 5450 -75 
z
M 800 -250 
Q 1350 75 1825 500 
Q 2300 925 2325 1125 
L 2400 1150 
L 2550 725 
Q 2425 700 2075 425 
Q 1725 150 875 -350 
L 800 -250 
z
" transform="scale(0.015625)"/>
       <path id="FangSong-8ba1" d="M 4075 4200 
Q 4100 4825 3900 5100 
L 3975 5150 
L 4450 4725 
Q 4275 4600 4300 4200 
L 4275 3000 
Q 5525 3200 5575 3250 
L 5950 2950 
Q 5725 2975 4275 2800 
L 4250 -425 
Q 4250 -700 4150 -575 
L 3875 -150 
Q 4050 50 4025 300 
L 4050 2750 
Q 2975 2625 2900 2575 
L 2525 2825 
Q 2850 2825 4050 2975 
L 4075 4200 
z
M 1775 3250 
L 2100 2950 
L 1900 2750 
L 1875 550 
L 2825 1250 
L 2875 1175 
Q 1875 250 1750 -25 
L 1525 275 
Q 1625 375 1650 625 
L 1675 2775 
Q 900 2625 750 2550 
L 425 2800 
Q 850 2825 1650 3000 
L 1775 3250 
z
M 2025 3800 
Q 1825 4300 1325 4950 
L 1375 5025 
Q 1925 4575 2175 4300 
Q 2125 4000 2025 3800 
z
" transform="scale(0.015625)"/>
       <path id="FangSong-5b8c" d="M 5375 2050 
Q 4925 2050 3550 1950 
L 3850 1750 
Q 3725 1600 3700 1375 
L 3675 275 
Q 3650 -125 4075 -175 
L 4925 -175 
Q 5300 -150 5312 62 
Q 5325 275 5325 1025 
L 5425 1025 
Q 5450 750 5475 337 
Q 5500 -75 5700 -275 
Q 5400 -375 5000 -400 
L 4075 -400 
Q 3425 -350 3425 150 
L 3475 1450 
Q 3475 1775 3425 1925 
L 2675 1850 
L 2875 1650 
Q 2750 1550 2600 1200 
Q 2450 850 2025 312 
Q 1600 -225 600 -675 
L 550 -575 
Q 1525 -100 1987 625 
Q 2450 1350 2525 1850 
Q 1550 1775 1500 1725 
L 1150 2025 
Q 1625 2025 3212 2150 
Q 4800 2275 5000 2350 
L 5375 2050 
z
M 1650 3650 
Q 1550 3125 1325 2875 
L 1150 3250 
Q 1450 3425 1575 4400 
L 1675 4400 
L 1675 3900 
L 5025 4150 
L 5175 4400 
L 5525 4075 
Q 5375 4050 4725 3250 
L 4650 3325 
L 4975 3900 
L 1650 3650 
z
M 4475 2975 
Q 4225 2975 3412 2875 
Q 2600 2775 2400 2725 
L 2050 2975 
Q 2575 2975 3200 3075 
Q 3825 3175 4150 3225 
L 4475 2975 
z
M 3550 4575 
Q 3475 4350 3300 4150 
Q 3225 4475 2900 5200 
L 2975 5250 
Q 3350 4825 3550 4575 
z
" transform="scale(0.015625)"/>
       <path id="FangSong-6210" d="M 5575 975 
Q 5600 -150 5750 -625 
Q 4650 -225 4000 1075 
Q 3625 650 2975 225 
L 2925 325 
Q 3525 825 3900 1300 
Q 3600 2275 3500 3300 
L 1875 3125 
Q 1875 2625 1825 2100 
L 2725 2250 
L 2875 2475 
L 3175 2225 
L 3000 2050 
Q 2850 475 2575 -125 
Q 2225 400 1825 775 
L 1875 850 
L 2475 400 
Q 2650 875 2750 2000 
L 1825 1850 
Q 1675 250 600 -650 
L 525 -600 
Q 1250 250 1425 987 
Q 1600 1725 1625 2612 
Q 1650 3500 1550 3800 
L 1625 3825 
L 1850 3350 
L 3450 3525 
Q 3400 4150 3375 4562 
Q 3350 4975 3225 5200 
L 3275 5225 
L 3725 4900 
Q 3625 4925 3637 4575 
Q 3650 4225 3675 3550 
Q 4900 3700 5050 3775 
L 5325 3475 
Q 4775 3475 3725 3325 
Q 3775 2425 4075 1525 
Q 4500 2025 4687 2325 
Q 4875 2625 4800 2850 
L 4875 2875 
L 5125 2325 
Q 5075 2400 4850 2125 
Q 4625 1850 4150 1275 
Q 4625 225 5425 -125 
L 5475 975 
L 5575 975 
z
M 4100 5000 
Q 4525 4700 4875 4450 
Q 4825 4250 4750 4025 
Q 4400 4525 4025 4950 
L 4100 5000 
z
" transform="scale(0.015625)"/>
       <path id="FangSong-4f8b" d="M 3050 2000 
Q 3025 1800 2975 1600 
Q 2775 1900 2525 2250 
Q 2300 1875 2025 1550 
L 1925 1625 
Q 2675 2725 2975 3975 
Q 2475 3925 2375 3875 
L 2050 4125 
Q 2375 4125 3162 4225 
Q 3950 4325 4100 4450 
L 4350 4125 
Q 4050 4150 3100 3975 
L 3300 3700 
Q 3200 3675 3125 3525 
Q 3050 3375 2925 3050 
L 3625 3150 
L 3775 3350 
L 4050 3075 
L 3875 2900 
Q 3300 825 1850 -225 
L 1800 -100 
Q 3100 975 3625 2900 
Q 3150 2825 3025 2775 
L 2875 2925 
Q 2775 2675 2575 2350 
Q 2900 2125 3050 2000 
z
M 1275 -150 
Q 1425 25 1400 225 
L 1450 3425 
Q 1025 2800 475 2225 
L 400 2325 
Q 875 2850 1450 3887 
Q 2025 4925 1925 5150 
L 2000 5175 
L 2250 4700 
Q 2200 4725 2062 4475 
Q 1925 4225 1675 3800 
L 1625 -325 
Q 1650 -675 1525 -600 
L 1275 -150 
z
M 5475 250 
Q 5475 -300 5300 -650 
Q 4900 -100 4300 375 
L 4350 475 
L 5200 -75 
Q 5250 250 5250 575 
L 5250 4350 
Q 5275 4950 5100 5150 
L 5175 5225 
L 5600 4850 
Q 5450 4775 5475 4325 
L 5475 250 
z
M 4300 1525 
Q 4400 1650 4400 1900 
L 4400 3075 
Q 4425 3525 4300 3750 
L 4350 3800 
L 4725 3450 
Q 4600 3350 4625 3025 
L 4625 1375 
Q 4625 1050 4550 1125 
L 4300 1525 
z
" transform="scale(0.015625)"/>
      </defs>
      <use xlink:href="#FangSong-7d2f"/>
      <use xlink:href="#FangSong-8ba1" x="100"/>
      <use xlink:href="#FangSong-5b8c" x="200"/>
      <use xlink:href="#FangSong-6210" x="300"/>
      <use xlink:href="#FangSong-6bd4" x="400"/>
      <use xlink:href="#FangSong-4f8b" x="500"/>
     </g>
    </g>
   </g>
   <g id="line2d_15">
    <path d="M 73.832727 295.488 
L 74.054941 295.488 
L 74.277155 295.24608 
L 74.499369 294.52032 
L 74.943797 289.92384 
L 75.166011 285.8112 
L 76.943722 238.6368 
L 77.38815 231.3792 
L 77.832578 223.15392 
L 78.49922 202.83264 
L 79.165861 190.73664 
L 80.054717 178.39872 
L 80.276931 176.46336 
L 81.165787 162.91584 
L 82.49907 148.88448 
L 83.165712 146.7072 
L 83.387926 145.4976 
L 83.61014 145.01376 
L 84.054568 143.32032 
L 84.498996 142.11072 
L 84.72121 140.90112 
L 84.943424 140.41728 
L 85.387851 138.24 
L 85.610065 137.51424 
L 86.054493 135.33696 
L 86.498921 133.4016 
L 86.721135 132.67584 
L 87.609991 128.32128 
L 88.72106 124.69248 
L 90.720986 124.69248 
L 90.9432 124.45056 
L 91.387627 124.45056 
L 91.609841 124.20864 
L 92.276483 124.20864 
L 92.720911 123.7248 
L 94.054195 123.7248 
L 94.276408 123.48288 
L 94.94305 123.48288 
L 95.609692 122.75712 
L 96.276334 122.75712 
L 96.498548 122.5152 
L 97.387403 122.5152 
L 97.609617 122.27328 
L 97.831831 122.27328 
L 98.054045 121.78944 
L 98.276259 121.78944 
L 98.942901 121.06368 
L 100.276184 121.06368 
L 100.720612 120.57984 
L 101.16504 120.57984 
L 101.387254 120.096 
L 102.053896 120.096 
L 102.27611 119.85408 
L 102.498324 119.85408 
L 102.720538 119.61216 
L 103.164965 119.61216 
L 103.387179 119.37024 
L 104.053821 119.37024 
L 104.276035 119.12832 
L 104.498249 119.12832 
L 104.720463 118.8864 
L 104.942677 118.8864 
L 105.164891 118.64448 
L 105.609319 118.64448 
L 106.053746 118.16064 
L 106.720388 118.16064 
L 106.942602 117.91872 
L 109.164741 117.91872 
L 109.831383 117.19296 
L 110.720239 115.49952 
L 110.942453 115.49952 
L 111.386881 115.01568 
L 111.831309 114.28992 
L 112.49795 113.56416 
L 112.942378 112.35456 
L 113.386806 111.87072 
L 113.60902 111.87072 
L 114.275662 111.14496 
L 116.053373 111.14496 
L 116.497801 110.66112 
L 116.942229 110.66112 
L 117.164443 110.4192 
L 118.497726 110.4192 
L 118.71994 110.17728 
L 119.164368 110.17728 
L 119.608796 109.69344 
L 119.83101 109.69344 
L 120.053224 109.45152 
L 121.164293 109.45152 
L 121.386507 108.96768 
L 121.830935 108.96768 
L 122.053149 108.72576 
L 123.608647 108.72576 
L 123.830861 108.48384 
L 124.053074 108.48384 
L 124.497502 108 
L 124.719716 108 
L 125.164144 107.51616 
L 125.608572 107.51616 
L 126.053 107.03232 
L 126.497428 107.03232 
L 127.608497 104.85504 
L 128.497353 104.85504 
L 128.719567 104.61312 
L 128.941781 104.61312 
L 129.386209 104.12928 
L 130.05285 104.12928 
L 130.275064 103.88736 
L 130.941706 103.88736 
L 131.16392 103.64544 
L 131.386134 103.1616 
L 131.830562 103.1616 
L 132.052776 102.91968 
L 132.27499 102.91968 
L 132.497204 102.43584 
L 132.719418 102.43584 
L 132.941632 101.952 
L 134.719343 101.952 
L 134.941557 101.71008 
L 135.163771 100.98432 
L 135.608199 100.98432 
L 135.830413 100.7424 
L 136.052626 100.7424 
L 136.27484 100.50048 
L 136.719268 100.50048 
L 137.163696 99.77472 
L 137.608124 99.29088 
L 138.719194 99.29088 
L 138.941408 99.04896 
L 139.163621 99.04896 
L 139.385835 98.80704 
L 139.830263 98.80704 
L 140.052477 98.56512 
L 140.274691 98.56512 
L 140.941333 97.83936 
L 141.385761 97.83936 
L 141.607975 97.59744 
L 141.830189 97.59744 
L 142.052402 97.35552 
L 142.49683 97.35552 
L 143.163472 96.62976 
L 144.274542 96.62976 
L 144.496756 96.14592 
L 144.71897 96.14592 
L 144.941183 95.904 
L 145.163397 95.904 
L 145.385611 95.66208 
L 145.830039 95.66208 
L 146.274467 95.17824 
L 146.496681 95.17824 
L 146.718895 94.93632 
L 146.941109 94.45248 
L 148.496606 94.45248 
L 148.71882 94.21056 
L 149.82989 94.21056 
L 150.496532 93.4848 
L 150.940959 92.75904 
L 152.052029 92.75904 
L 152.274243 92.51712 
L 152.940885 92.51712 
L 153.385313 91.54944 
L 154.274168 91.54944 
L 154.496382 91.30752 
L 154.94081 91.30752 
L 155.163024 91.0656 
L 155.829666 91.0656 
L 156.05188 90.58176 
L 157.162949 90.58176 
L 157.607377 90.09792 
L 158.051805 89.37216 
L 158.274019 89.37216 
L 158.496233 89.13024 
L 159.162875 89.13024 
L 159.385089 88.88832 
L 159.607303 88.88832 
L 160.05173 88.16256 
L 160.273944 88.16256 
L 160.718372 87.67872 
L 161.607228 87.67872 
L 161.829442 87.4368 
L 162.718298 87.4368 
L 162.940511 87.19488 
L 164.496009 87.19488 
L 164.940437 86.46912 
L 166.940362 86.46912 
L 167.38479 85.98528 
L 169.162501 85.98528 
L 169.384715 85.74336 
L 169.829143 85.74336 
L 170.051357 85.50144 
L 170.273571 85.50144 
L 170.495785 85.25952 
L 171.162427 85.25952 
L 171.384641 85.0176 
L 171.606855 85.0176 
L 171.829069 84.77568 
L 172.051282 84.77568 
L 172.49571 84.04992 
L 172.940138 84.04992 
L 173.384566 83.32416 
L 173.828994 82.84032 
L 174.940063 82.84032 
L 175.162277 82.35648 
L 175.384491 82.35648 
L 175.828919 81.87264 
L 176.939989 81.87264 
L 177.162203 81.63072 
L 177.384417 81.63072 
L 177.606631 81.3888 
L 178.051058 81.3888 
L 178.495486 80.66304 
L 178.7177 80.42112 
L 179.606556 80.42112 
L 180.273198 79.69536 
L 180.495412 79.69536 
L 180.939839 79.21152 
L 181.828695 79.21152 
L 182.050909 78.9696 
L 182.495337 78.9696 
L 182.939765 78.24384 
L 183.161979 78.24384 
L 183.384193 78.00192 
L 183.82862 78.00192 
L 184.050834 77.76 
L 184.273048 77.27616 
L 184.717476 77.27616 
L 185.161904 76.79232 
L 185.384118 76.79232 
L 185.828546 76.30848 
L 186.495188 76.30848 
L 186.717402 76.06656 
L 186.939615 76.06656 
L 187.161829 75.82464 
L 187.606257 75.82464 
L 187.828471 75.58272 
L 188.495113 75.58272 
L 188.717327 75.3408 
L 189.383969 75.3408 
L 189.606183 75.09888 
L 189.828396 75.09888 
L 190.05061 74.85696 
L 190.939466 74.85696 
L 191.16168 74.61504 
L 191.383894 74.61504 
L 191.606108 74.1312 
L 192.050536 74.1312 
L 192.27275 73.88928 
L 192.939391 73.88928 
L 193.161605 73.64736 
L 193.606033 73.64736 
L 193.828247 73.40544 
L 194.050461 73.40544 
L 194.272675 73.16352 
L 194.717103 73.16352 
L 194.939317 72.9216 
L 195.161531 72.9216 
L 195.383745 72.67968 
L 195.605959 72.67968 
L 195.828172 72.19584 
L 196.050386 72.19584 
L 196.2726 71.712 
L 196.717028 71.712 
L 197.38367 70.98624 
L 198.272526 70.98624 
L 198.49474 70.74432 
L 199.383595 70.74432 
L 199.828023 70.26048 
L 200.272451 70.26048 
L 200.716879 69.53472 
L 200.939093 69.2928 
L 201.161307 68.80896 
L 202.939018 68.80896 
L 204.050088 67.59936 
L 204.938943 67.59936 
L 205.161157 67.35744 
L 205.605585 66.63168 
L 205.827799 66.63168 
L 206.716655 65.664 
L 207.383297 65.664 
L 207.605511 65.42208 
L 208.272152 65.42208 
L 208.71658 64.93824 
L 209.605436 64.93824 
L 209.82765 64.21248 
L 210.272078 64.21248 
L 210.494292 63.97056 
L 210.716506 63.97056 
L 211.160933 63.48672 
L 211.827575 63.48672 
L 212.049789 63.2448 
L 212.494217 63.2448 
L 212.716431 63.00288 
L 213.160859 63.00288 
L 213.383073 62.76096 
L 213.8275 62.76096 
L 214.049714 62.51904 
L 214.271928 62.51904 
L 214.494142 62.27712 
L 215.160784 62.27712 
L 215.382998 61.79328 
L 216.716282 61.79328 
L 217.160709 61.30944 
L 217.382923 61.30944 
L 217.605137 60.58368 
L 217.827351 60.34176 
L 218.049565 60.34176 
L 218.271779 60.09984 
L 218.493993 60.09984 
L 218.716207 59.85792 
L 218.938421 59.85792 
L 219.160635 59.37408 
L 219.827276 59.37408 
L 220.271704 58.89024 
L 220.493918 58.89024 
L 220.716132 58.64832 
L 221.827202 58.64832 
L 222.049416 58.4064 
L 222.493844 58.4064 
L 222.716057 58.16448 
L 223.160485 58.16448 
L 223.604913 57.43872 
L 223.827127 57.43872 
L 224.049341 57.1968 
L 225.604839 57.1968 
L 225.827052 56.95488 
L 226.049266 56.95488 
L 227.160336 55.74528 
L 227.38255 55.74528 
L 227.604764 55.50336 
L 228.49362 55.50336 
L 228.715833 55.26144 
L 228.938047 54.53568 
L 229.826903 54.53568 
L 230.493545 53.80992 
L 230.937973 53.80992 
L 231.160187 53.568 
L 398.487273 53.568 
L 398.487273 53.568 
" clip-path="url(#p88630b6ed7)" style="fill: none; stroke: #ff0000; stroke-width: 0.5; stroke-linecap: square"/>
   </g>
   <g id="line2d_16">
    <path d="M 73.832727 295.488 
L 74.054941 295.00416 
L 74.721583 288.95616 
L 75.610439 268.39296 
L 75.832653 265.248 
L 77.165936 227.50848 
L 78.277006 200.17152 
L 79.165861 184.93056 
L 79.610289 176.22144 
L 80.054717 171.14112 
L 80.721359 161.46432 
L 81.388001 157.5936 
L 81.832429 153.23904 
L 82.49907 150.09408 
L 82.943498 147.9168 
L 83.387926 144.04608 
L 83.832354 140.6592 
L 84.276782 137.0304 
L 85.387851 132.67584 
L 85.832279 128.32128 
L 87.165563 119.12832 
L 87.387777 116.4672 
L 87.609991 115.74144 
L 87.832205 113.08032 
L 88.054419 112.11264 
L 88.498846 109.45152 
L 88.72106 108.72576 
L 89.165488 108.72576 
L 89.83213 107.27424 
L 90.276558 107.27424 
L 90.720986 106.06464 
L 91.387627 105.33888 
L 92.276483 102.43584 
L 92.498697 102.19392 
L 92.943125 101.46816 
L 93.165339 101.22624 
L 93.387553 101.22624 
L 93.831981 100.7424 
L 94.276408 100.7424 
L 94.498622 100.50048 
L 94.94305 100.50048 
L 95.165264 100.25856 
L 95.387478 99.5328 
L 95.831906 99.5328 
L 96.05412 98.80704 
L 96.276334 98.80704 
L 96.498548 98.56512 
L 97.609617 96.38784 
L 97.831831 96.38784 
L 98.054045 95.904 
L 98.276259 95.904 
L 98.942901 95.17824 
L 99.387329 94.45248 
L 99.609543 94.21056 
L 100.276184 94.21056 
L 100.498398 92.75904 
L 100.720612 92.75904 
L 101.16504 91.54944 
L 101.387254 90.82368 
L 101.609468 90.82368 
L 101.831682 90.09792 
L 102.27611 90.09792 
L 102.942752 88.16256 
L 104.720463 84.53376 
L 104.942677 84.29184 
L 105.164891 84.29184 
L 105.609319 83.56608 
L 105.831533 83.56608 
L 106.053746 83.32416 
L 106.498174 83.32416 
L 106.720388 83.08224 
L 106.942602 83.08224 
L 107.164816 82.84032 
L 107.38703 82.35648 
L 108.053672 82.35648 
L 108.4981 81.87264 
L 109.164741 81.87264 
L 109.386955 81.3888 
L 111.164667 81.3888 
L 111.386881 81.14688 
L 111.831309 81.14688 
L 112.053522 80.90496 
L 112.275736 80.90496 
L 112.49795 80.42112 
L 112.942378 80.42112 
L 113.386806 79.69536 
L 113.60902 79.45344 
L 113.831234 78.9696 
L 114.72009 78.9696 
L 114.942304 78.72768 
L 116.720015 78.72768 
L 116.942229 78.48576 
L 118.053298 78.48576 
L 118.275512 78.24384 
L 118.71994 77.51808 
L 119.164368 77.03424 
L 119.83101 77.03424 
L 120.275438 76.06656 
L 120.497652 76.06656 
L 120.719866 75.58272 
L 120.94208 75.58272 
L 121.164293 75.3408 
L 121.386507 75.3408 
L 121.608721 74.85696 
L 121.830935 74.85696 
L 122.719791 72.9216 
L 123.386433 72.9216 
L 123.608647 72.19584 
L 123.830861 72.19584 
L 124.275288 71.22816 
L 124.497502 71.22816 
L 124.94193 70.74432 
L 125.164144 70.74432 
L 125.830786 70.01856 
L 126.275214 70.01856 
L 126.497428 69.53472 
L 126.719642 69.53472 
L 126.941856 69.2928 
L 127.608497 69.2928 
L 128.052925 68.80896 
L 128.497353 68.80896 
L 128.719567 68.56704 
L 128.941781 68.56704 
L 129.386209 68.0832 
L 129.830637 68.0832 
L 130.497278 67.35744 
L 131.16392 67.35744 
L 131.830562 66.63168 
L 132.497204 66.63168 
L 132.719418 66.38976 
L 132.941632 65.664 
L 133.163845 65.42208 
L 133.386059 65.42208 
L 133.830487 64.93824 
L 134.052701 64.93824 
L 134.274915 64.69632 
L 134.719343 64.69632 
L 135.163771 63.97056 
L 135.830413 63.97056 
L 136.052626 63.00288 
L 136.719268 63.00288 
L 137.38591 62.27712 
L 137.608124 62.27712 
L 137.830338 62.0352 
L 138.274766 62.0352 
L 138.49698 61.30944 
L 138.719194 60.09984 
L 140.052477 57.43872 
L 140.274691 57.1968 
L 140.496905 57.1968 
L 140.941333 56.71296 
L 141.385761 55.26144 
L 141.607975 55.01952 
L 142.052402 54.29376 
L 142.274616 54.29376 
L 142.941258 53.568 
L 398.487273 53.568 
L 398.487273 53.568 
" clip-path="url(#p88630b6ed7)" style="fill: none; stroke-dasharray: 1.85,0.8; stroke-dashoffset: 0; stroke: #008000; stroke-width: 0.5"/>
   </g>
   <g id="line2d_17">
    <path d="M 73.832727 295.488 
L 74.054941 295.488 
L 74.277155 295.24608 
L 74.721583 295.24608 
L 74.943797 295.00416 
L 75.166011 294.03648 
L 75.388225 293.79456 
L 75.610439 292.82688 
L 75.832653 292.82688 
L 76.054867 292.10112 
L 76.499294 291.61728 
L 76.721508 291.13344 
L 77.38815 291.13344 
L 77.610364 290.40768 
L 78.054792 289.92384 
L 78.49922 289.19808 
L 78.943648 288.71424 
L 79.165861 287.98848 
L 79.610289 286.05312 
L 79.832503 286.05312 
L 80.276931 285.56928 
L 80.721359 282.90816 
L 81.610215 280.73088 
L 82.054643 279.27936 
L 82.276856 278.5536 
L 82.943498 274.19904 
L 83.165712 273.95712 
L 83.387926 271.53792 
L 83.832354 270.0864 
L 84.498996 269.36064 
L 84.72121 269.36064 
L 84.943424 269.11872 
L 85.165637 268.39296 
L 86.054493 263.79648 
L 86.498921 262.8288 
L 86.721135 261.37728 
L 86.943349 260.89344 
L 87.165563 260.89344 
L 87.387777 260.4096 
L 87.832205 258.23232 
L 88.276632 256.7808 
L 88.72106 255.5712 
L 89.165488 254.3616 
L 89.387702 253.39392 
L 89.609916 253.152 
L 90.054344 251.9424 
L 90.498772 249.76512 
L 90.720986 249.5232 
L 91.165413 248.07168 
L 91.387627 248.07168 
L 91.832055 246.13632 
L 92.054269 245.65248 
L 92.720911 240.33024 
L 92.943125 239.8464 
L 93.165339 238.15296 
L 93.387553 237.4272 
L 93.609767 236.2176 
L 94.054195 233.31456 
L 94.498622 232.34688 
L 94.720836 232.34688 
L 94.94305 232.10496 
L 95.165264 232.10496 
L 95.609692 230.89536 
L 95.831906 230.1696 
L 96.276334 229.68576 
L 96.942976 228.47616 
L 97.387403 227.99232 
L 97.831831 226.05696 
L 98.276259 225.57312 
L 98.498473 225.57312 
L 98.942901 225.08928 
L 99.387329 223.87968 
L 99.609543 223.87968 
L 99.831757 223.15392 
L 100.276184 222.67008 
L 100.498398 222.67008 
L 100.720612 222.18624 
L 101.609468 218.79936 
L 102.27611 216.62208 
L 102.498324 215.41248 
L 102.942752 214.92864 
L 103.831607 212.75136 
L 104.720463 209.36448 
L 104.942677 208.88064 
L 105.164891 208.88064 
L 105.609319 207.67104 
L 105.831533 207.67104 
L 106.053746 206.70336 
L 106.27596 205.00992 
L 106.720388 204.52608 
L 107.164816 203.07456 
L 107.609244 202.3488 
L 108.275886 201.62304 
L 108.4981 201.62304 
L 110.275811 197.99424 
L 110.720239 197.5104 
L 111.609095 195.81696 
L 111.831309 194.60736 
L 112.49795 193.8816 
L 113.164592 192.18816 
L 113.60902 188.55936 
L 114.275662 184.44672 
L 114.497876 183.72096 
L 114.72009 183.47904 
L 114.942304 182.51136 
L 115.164517 182.26944 
L 115.608945 181.05984 
L 116.720015 178.39872 
L 117.164443 176.9472 
L 117.386657 176.70528 
L 117.831085 175.25376 
L 118.053298 174.76992 
L 118.497726 172.83456 
L 118.71994 172.1088 
L 118.942154 172.1088 
L 119.164368 171.86688 
L 119.608796 170.65728 
L 120.053224 170.17344 
L 120.275438 170.17344 
L 121.608721 167.51232 
L 121.830935 167.2704 
L 122.942005 165.09312 
L 123.164219 164.8512 
L 124.275288 162.19008 
L 124.497502 161.46432 
L 124.719716 161.46432 
L 124.94193 160.73856 
L 125.164144 160.49664 
L 126.275214 158.31936 
L 126.719642 157.83552 
L 127.830711 155.65824 
L 128.275139 155.65824 
L 128.497353 154.69056 
L 129.163995 154.69056 
L 129.386209 153.9648 
L 129.608423 153.72288 
L 129.830637 153.23904 
L 130.05285 153.23904 
L 130.497278 152.51328 
L 130.719492 152.27136 
L 130.941706 152.27136 
L 131.16392 152.02944 
L 131.608348 152.02944 
L 132.052776 151.5456 
L 132.27499 151.5456 
L 132.497204 151.30368 
L 132.719418 151.30368 
L 132.941632 151.06176 
L 133.163845 151.06176 
L 133.830487 150.336 
L 134.052701 150.336 
L 134.274915 149.85216 
L 134.719343 149.85216 
L 135.163771 148.88448 
L 136.497054 148.88448 
L 136.719268 148.15872 
L 137.38591 147.43296 
L 137.608124 147.43296 
L 138.941408 145.98144 
L 139.163621 145.4976 
L 139.385835 145.4976 
L 140.052477 144.77184 
L 140.274691 144.77184 
L 141.163547 143.80416 
L 141.607975 143.80416 
L 142.052402 143.0784 
L 142.274616 143.0784 
L 142.719044 142.59456 
L 143.163472 141.8688 
L 144.052328 141.8688 
L 144.274542 141.38496 
L 144.496756 141.38496 
L 144.71897 141.14304 
L 144.941183 141.14304 
L 145.385611 140.6592 
L 146.052253 140.6592 
L 146.274467 140.41728 
L 146.718895 140.41728 
L 147.163323 139.93344 
L 148.052178 138.24 
L 148.496606 138.24 
L 148.71882 137.51424 
L 148.941034 137.27232 
L 149.163248 137.27232 
L 149.385462 136.78848 
L 150.052104 136.78848 
L 150.274318 136.30464 
L 150.718746 136.30464 
L 150.940959 136.06272 
L 151.163173 136.06272 
L 151.385387 135.8208 
L 151.607601 135.8208 
L 152.052029 135.33696 
L 152.496457 135.33696 
L 153.385313 133.64352 
L 153.607527 133.64352 
L 153.829741 133.4016 
L 154.274168 132.192 
L 154.496382 131.95008 
L 154.718596 131.95008 
L 154.94081 131.46624 
L 155.163024 131.46624 
L 155.385238 130.9824 
L 155.607452 130.9824 
L 155.829666 130.49856 
L 156.05188 130.49856 
L 156.274094 130.25664 
L 156.496308 130.25664 
L 157.162949 129.53088 
L 157.385163 129.04704 
L 157.607377 129.04704 
L 157.829591 128.5632 
L 158.051805 128.5632 
L 158.274019 128.32128 
L 158.718447 128.32128 
L 158.940661 128.07936 
L 159.162875 127.59552 
L 160.273944 127.59552 
L 160.940586 126.86976 
L 161.385014 126.86976 
L 161.607228 126.62784 
L 161.829442 126.62784 
L 162.27387 126.144 
L 162.496084 126.144 
L 162.718298 125.90208 
L 162.940511 125.41824 
L 163.162725 125.41824 
L 163.384939 125.17632 
L 164.051581 125.17632 
L 164.496009 124.69248 
L 164.718223 124.69248 
L 164.940437 124.45056 
L 165.607079 124.45056 
L 166.051506 123.96672 
L 166.495934 123.24096 
L 166.718148 122.99904 
L 166.940362 122.99904 
L 167.162576 122.27328 
L 167.607004 121.78944 
L 168.051432 121.06368 
L 168.273646 120.82176 
L 168.49586 120.82176 
L 168.718074 120.57984 
L 168.940287 120.57984 
L 170.051357 119.37024 
L 170.273571 119.37024 
L 170.940213 118.64448 
L 171.606855 117.43488 
L 171.829069 117.43488 
L 173.828994 112.8384 
L 174.273422 111.6288 
L 174.495636 111.14496 
L 174.71785 111.14496 
L 174.940063 110.4192 
L 175.384491 109.93536 
L 175.828919 108.72576 
L 176.051133 108.72576 
L 176.273347 108.48384 
L 177.384417 106.06464 
L 177.828845 106.06464 
L 178.273272 105.33888 
L 178.495486 105.33888 
L 178.7177 105.09696 
L 178.939914 105.09696 
L 179.384342 104.61312 
L 179.82877 104.61312 
L 180.050984 103.88736 
L 180.273198 103.64544 
L 180.717626 102.91968 
L 181.162053 102.43584 
L 181.606481 102.43584 
L 181.828695 102.19392 
L 182.495337 100.98432 
L 182.717551 100.98432 
L 182.939765 100.7424 
L 183.161979 100.25856 
L 184.050834 100.25856 
L 184.273048 100.01664 
L 185.161904 98.3232 
L 185.384118 98.08128 
L 185.828546 98.08128 
L 186.05076 97.83936 
L 186.272974 97.83936 
L 186.495188 97.59744 
L 186.717402 96.87168 
L 186.939615 96.87168 
L 187.384043 96.38784 
L 187.606257 95.904 
L 188.050685 95.904 
L 188.272899 95.66208 
L 188.495113 95.66208 
L 188.717327 95.17824 
L 189.606183 95.17824 
L 189.828396 94.6944 
L 190.272824 94.6944 
L 190.717252 93.96864 
L 192.717178 93.96864 
L 192.939391 93.72672 
L 194.494889 93.72672 
L 195.161531 93.00096 
L 196.717028 93.00096 
L 197.161456 92.51712 
L 197.38367 92.51712 
L 197.605884 92.2752 
L 199.161381 92.2752 
L 199.383595 92.03328 
L 200.050237 92.03328 
L 200.494665 91.54944 
L 200.716879 91.54944 
L 200.939093 91.30752 
L 201.383521 90.33984 
L 201.605735 90.33984 
L 201.827948 90.09792 
L 202.050162 90.09792 
L 202.49459 89.61408 
L 203.161232 89.61408 
L 203.383446 89.37216 
L 203.60566 89.37216 
L 203.827874 89.13024 
L 204.050088 88.6464 
L 204.272302 88.6464 
L 204.494516 88.40448 
L 204.71673 88.40448 
L 204.938943 88.16256 
L 205.383371 88.16256 
L 205.605585 87.67872 
L 205.827799 87.67872 
L 206.050013 87.4368 
L 206.938869 87.4368 
L 207.161083 87.19488 
L 208.494366 87.19488 
L 208.938794 86.71104 
L 209.82765 86.71104 
L 210.049864 86.46912 
L 210.716506 86.46912 
L 210.938719 86.2272 
L 211.605361 86.2272 
L 211.827575 85.98528 
L 215.160784 85.98528 
L 215.382998 85.74336 
L 216.716282 85.74336 
L 216.938495 85.25952 
L 219.160635 85.25952 
L 219.382849 85.0176 
L 220.04949 85.0176 
L 220.271704 84.77568 
L 222.716057 84.77568 
L 222.938271 84.53376 
L 225.160411 84.53376 
L 225.382625 84.29184 
L 226.27148 84.29184 
L 226.493694 84.04992 
L 226.715908 84.04992 
L 226.938122 83.808 
L 228.049192 83.808 
L 228.271406 83.56608 
L 229.160261 83.56608 
L 229.382475 83.32416 
L 229.604689 83.32416 
L 229.826903 83.08224 
L 231.826828 83.08224 
L 232.049042 82.84032 
L 232.937898 82.84032 
L 233.160112 82.5984 
L 233.826754 82.5984 
L 234.048968 82.35648 
L 235.382251 82.35648 
L 235.826679 81.87264 
L 238.048818 81.87264 
L 238.271032 81.63072 
L 240.493172 81.63072 
L 240.715385 81.14688 
L 241.826455 81.14688 
L 242.048669 80.90496 
L 242.493097 80.90496 
L 242.715311 80.66304 
L 244.270808 80.66304 
L 244.493022 80.42112 
L 247.604017 80.42112 
L 248.048445 79.69536 
L 248.492873 79.21152 
L 249.603943 79.21152 
L 249.826156 78.9696 
L 251.381654 78.9696 
L 251.603868 78.72768 
L 252.27051 78.72768 
L 252.492724 78.48576 
L 257.603644 78.48576 
L 257.825858 78.24384 
L 258.714713 78.24384 
L 259.381355 77.51808 
L 263.825634 77.51808 
L 264.047848 77.27616 
L 265.603345 77.27616 
L 265.825559 77.03424 
L 266.936629 77.03424 
L 267.158843 76.79232 
L 267.381057 76.79232 
L 267.60327 76.5504 
L 268.047698 76.5504 
L 268.269912 76.30848 
L 268.71434 76.30848 
L 268.936554 76.06656 
L 269.603196 76.06656 
L 269.82541 75.82464 
L 270.269838 75.82464 
L 270.492052 75.58272 
L 270.936479 75.58272 
L 271.158693 75.3408 
L 272.714191 75.3408 
L 272.936405 75.09888 
L 273.603046 75.09888 
L 273.82526 74.85696 
L 274.491902 74.85696 
L 274.93633 74.37312 
L 275.825186 74.37312 
L 276.269614 73.64736 
L 276.936255 73.64736 
L 277.158469 73.40544 
L 278.047325 73.40544 
L 278.269539 73.16352 
L 278.491753 73.16352 
L 278.713967 72.67968 
L 280.269464 72.67968 
L 280.491678 72.43776 
L 283.158245 72.43776 
L 283.380459 72.19584 
L 284.491529 72.19584 
L 284.713743 71.95392 
L 285.158171 71.95392 
L 285.380385 71.47008 
L 286.047026 71.47008 
L 286.26924 71.22816 
L 286.491454 71.22816 
L 286.935882 70.74432 
L 287.158096 70.74432 
L 287.38031 70.5024 
L 288.49138 70.5024 
L 288.713593 69.77664 
L 288.935807 69.53472 
L 290.046877 69.53472 
L 290.269091 69.2928 
L 290.713519 69.2928 
L 291.380161 68.56704 
L 291.824588 68.56704 
L 292.046802 68.32512 
L 292.269016 68.32512 
L 292.49123 68.0832 
L 292.935658 68.0832 
L 293.157872 67.84128 
L 293.6023 67.84128 
L 293.824514 67.59936 
L 294.491155 67.59936 
L 294.713369 67.35744 
L 295.380011 67.35744 
L 295.602225 67.11552 
L 295.824439 67.11552 
L 296.268867 66.63168 
L 296.713295 66.63168 
L 296.935509 66.14784 
L 297.824364 66.14784 
L 298.046578 65.90592 
L 299.157648 65.90592 
L 299.379862 65.664 
L 302.268643 65.664 
L 302.490857 65.42208 
L 303.379713 65.42208 
L 303.601926 65.18016 
L 304.046354 65.18016 
L 304.268568 64.69632 
L 304.712996 64.69632 
L 304.93521 64.4544 
L 305.824066 64.4544 
L 306.04628 64.21248 
L 307.601777 64.21248 
L 307.823991 63.97056 
L 308.046205 63.97056 
L 308.268419 63.72864 
L 311.379414 63.72864 
L 311.601628 63.48672 
L 313.157125 63.48672 
L 313.379339 63.2448 
L 314.045981 63.2448 
L 314.268195 63.00288 
L 316.490334 63.00288 
L 316.712548 62.76096 
L 317.156976 62.76096 
L 317.37919 62.51904 
L 318.045832 62.51904 
L 318.490259 62.0352 
L 321.379041 62.0352 
L 321.601254 61.79328 
L 322.934538 61.79328 
L 323.156752 61.55136 
L 324.045608 61.55136 
L 324.267822 61.30944 
L 324.712249 61.30944 
L 324.934463 61.06752 
L 328.267672 61.06752 
L 328.7121 60.34176 
L 329.156528 60.34176 
L 329.600956 59.85792 
L 330.267598 59.85792 
L 330.489811 59.616 
L 330.934239 59.616 
L 331.156453 59.37408 
L 333.378592 59.37408 
L 333.600806 58.89024 
L 333.82302 58.89024 
L 334.267448 58.4064 
L 334.93409 58.4064 
L 335.156304 58.16448 
L 335.600732 58.16448 
L 335.822946 57.92256 
L 336.934015 57.92256 
L 337.156229 57.68064 
L 337.378443 57.68064 
L 337.600657 57.43872 
L 339.600582 57.43872 
L 339.822796 57.1968 
L 340.267224 57.1968 
L 340.489438 56.95488 
L 341.600508 56.95488 
L 341.822722 56.71296 
L 342.044936 56.71296 
L 342.26715 56.47104 
L 342.489363 56.47104 
L 342.711577 56.22912 
L 343.156005 56.22912 
L 343.378219 55.9872 
L 345.822572 55.9872 
L 346.044786 55.74528 
L 347.155856 55.74528 
L 347.37807 55.50336 
L 348.711353 55.50336 
L 348.933567 55.26144 
L 352.266776 55.26144 
L 352.48899 55.01952 
L 354.711129 55.01952 
L 355.155557 54.53568 
L 360.266478 54.53568 
L 360.488691 54.29376 
L 361.155333 54.29376 
L 361.377547 54.05184 
L 370.266104 54.05184 
L 370.488318 53.80992 
L 371.599388 53.80992 
L 371.821602 53.568 
L 398.487273 53.568 
L 398.487273 53.568 
" clip-path="url(#p88630b6ed7)" style="fill: none; stroke-dasharray: 1.85,0.8; stroke-dashoffset: 0; stroke: #0000ff; stroke-width: 0.5"/>
   </g>
   <g id="line2d_18">
    <path d="M 73.832727 295.488 
L 74.054941 295.24608 
L 74.277155 294.52032 
L 74.499369 294.2784 
L 74.721583 290.89152 
L 75.166011 274.68288 
L 76.27708 227.7504 
L 76.943722 198.72 
L 77.38815 182.02752 
L 77.832578 166.30272 
L 78.721434 147.67488 
L 79.388075 137.75616 
L 79.610289 135.09504 
L 80.054717 133.15968 
L 80.499145 131.95008 
L 81.165787 128.32128 
L 82.276856 128.32128 
L 82.49907 128.07936 
L 82.721284 128.07936 
L 82.943498 127.83744 
L 84.054568 127.83744 
L 84.276782 127.59552 
L 84.943424 127.59552 
L 85.165637 127.3536 
L 86.721135 127.3536 
L 86.943349 127.11168 
L 87.609991 127.11168 
L 87.832205 126.86976 
L 89.609916 126.86976 
L 89.83213 126.62784 
L 90.498772 126.62784 
L 90.720986 126.38592 
L 92.498697 126.38592 
L 92.720911 126.144 
L 93.831981 126.144 
L 94.054195 125.90208 
L 96.276334 125.90208 
L 96.498548 125.66016 
L 96.942976 125.66016 
L 97.165189 125.41824 
L 99.387329 125.41824 
L 99.609543 125.17632 
L 100.498398 125.17632 
L 100.720612 124.9344 
L 103.387179 124.9344 
L 103.609393 124.69248 
L 106.27596 124.69248 
L 106.498174 124.45056 
L 107.609244 124.45056 
L 107.831458 124.20864 
L 109.831383 124.20864 
L 110.053597 123.96672 
L 111.164667 123.96672 
L 111.386881 123.7248 
L 111.609095 123.7248 
L 111.831309 123.48288 
L 112.720164 123.48288 
L 112.942378 123.24096 
L 114.72009 123.24096 
L 115.386731 122.5152 
L 116.275587 122.5152 
L 116.497801 122.27328 
L 118.71994 122.27328 
L 118.942154 122.03136 
L 119.386582 122.03136 
L 119.608796 121.78944 
L 121.608721 121.78944 
L 121.830935 121.54752 
L 123.608647 121.54752 
L 123.830861 121.3056 
L 124.275288 121.3056 
L 124.497502 121.06368 
L 124.719716 121.06368 
L 124.94193 120.82176 
L 126.497428 120.82176 
L 126.719642 120.57984 
L 127.164069 120.57984 
L 127.386283 120.33792 
L 127.608497 120.33792 
L 128.052925 119.61216 
L 128.941781 119.61216 
L 129.163995 119.37024 
L 131.830562 119.37024 
L 132.052776 119.12832 
L 132.941632 119.12832 
L 133.163845 118.8864 
L 134.941557 118.8864 
L 135.163771 118.64448 
L 136.497054 118.64448 
L 136.719268 118.40256 
L 137.38591 118.40256 
L 137.608124 118.16064 
L 138.719194 118.16064 
L 138.941408 117.91872 
L 140.274691 117.91872 
L 140.496905 117.6768 
L 140.719119 117.6768 
L 140.941333 117.43488 
L 143.163472 117.43488 
L 143.385686 117.19296 
L 143.830114 117.19296 
L 144.052328 116.95104 
L 146.274467 116.95104 
L 146.496681 116.70912 
L 146.718895 116.70912 
L 146.941109 116.4672 
L 149.385462 116.4672 
L 149.607676 116.22528 
L 150.718746 116.22528 
L 150.940959 115.98336 
L 152.496457 115.98336 
L 152.718671 115.74144 
L 153.385313 115.74144 
L 153.607527 115.49952 
L 156.274094 115.49952 
L 156.718522 115.01568 
L 157.607377 115.01568 
L 157.829591 114.77376 
L 160.05173 114.77376 
L 160.273944 114.53184 
L 160.940586 114.53184 
L 161.385014 114.048 
L 162.718298 114.048 
L 162.940511 113.80608 
L 163.162725 113.80608 
L 163.384939 113.56416 
L 164.940437 113.56416 
L 165.162651 113.32224 
L 165.607079 113.32224 
L 165.829293 113.08032 
L 167.829218 113.08032 
L 168.051432 112.8384 
L 168.940287 112.8384 
L 169.162501 112.35456 
L 170.940213 112.35456 
L 171.384641 111.87072 
L 173.162352 111.87072 
L 173.384566 111.6288 
L 174.495636 111.6288 
L 174.71785 111.38688 
L 175.606705 111.38688 
L 175.828919 111.14496 
L 178.273272 111.14496 
L 178.7177 110.66112 
L 180.050984 110.66112 
L 180.273198 110.17728 
L 182.273123 110.17728 
L 182.495337 109.93536 
L 183.384193 109.93536 
L 184.050834 109.2096 
L 185.828546 109.2096 
L 186.05076 108.96768 
L 186.717402 108.96768 
L 186.939615 108.72576 
L 189.828396 108.72576 
L 190.05061 108.48384 
L 190.495038 108.48384 
L 190.717252 108.24192 
L 192.494964 108.24192 
L 192.717178 108 
L 193.606033 108 
L 193.828247 107.75808 
L 195.605959 107.75808 
L 195.828172 107.51616 
L 197.38367 107.51616 
L 197.605884 107.27424 
L 199.828023 107.27424 
L 200.050237 107.03232 
L 201.161307 107.03232 
L 201.383521 106.7904 
L 201.827948 106.7904 
L 202.050162 106.54848 
L 204.272302 106.54848 
L 204.494516 106.30656 
L 204.938943 106.30656 
L 205.161157 106.06464 
L 206.494441 106.06464 
L 206.716655 105.82272 
L 207.827724 105.82272 
L 208.049938 105.5808 
L 208.938794 105.5808 
L 209.161008 105.33888 
L 210.494292 105.33888 
L 210.938719 104.85504 
L 212.049789 104.85504 
L 212.272003 104.61312 
L 214.271928 104.61312 
L 214.494142 104.3712 
L 215.605212 104.3712 
L 215.827426 104.12928 
L 217.160709 104.12928 
L 217.382923 103.88736 
L 218.271779 103.88736 
L 218.493993 103.64544 
L 220.493918 103.64544 
L 220.716132 103.40352 
L 220.938346 103.40352 
L 221.16056 103.1616 
L 222.938271 103.1616 
L 223.160485 102.91968 
L 225.160411 102.91968 
L 225.382625 102.67776 
L 226.049266 102.67776 
L 226.27148 102.43584 
L 228.049192 102.43584 
L 228.271406 102.19392 
L 230.049117 102.19392 
L 230.271331 101.952 
L 230.493545 101.952 
L 230.715759 101.71008 
L 231.382401 101.71008 
L 231.604615 101.46816 
L 232.271256 101.46816 
L 232.49347 101.22624 
L 234.715609 101.22624 
L 234.937823 100.98432 
L 236.271107 100.98432 
L 236.493321 100.7424 
L 236.715535 100.7424 
L 236.937749 100.50048 
L 238.937674 100.50048 
L 239.159888 100.25856 
L 240.270958 100.25856 
L 240.493172 100.01664 
L 242.715311 100.01664 
L 243.159739 99.5328 
L 245.381878 99.5328 
L 245.604092 99.29088 
L 246.270734 99.29088 
L 246.492948 99.04896 
L 247.826231 99.04896 
L 248.048445 98.80704 
L 250.492798 98.80704 
L 250.715012 98.56512 
L 251.15944 98.56512 
L 251.381654 98.3232 
L 254.270435 98.3232 
L 254.714863 97.83936 
L 255.381505 97.83936 
L 255.603718 97.59744 
L 258.048072 97.59744 
L 258.270286 97.35552 
L 259.159141 97.35552 
L 259.381355 97.1136 
L 260.047997 97.1136 
L 260.270211 96.62976 
L 262.047922 96.62976 
L 262.270136 96.38784 
L 262.936778 96.38784 
L 263.158992 96.14592 
L 264.936703 96.14592 
L 265.158917 95.904 
L 267.60327 95.904 
L 267.825484 95.66208 
L 269.158768 95.66208 
L 269.380982 95.42016 
L 269.82541 95.42016 
L 270.047624 95.17824 
L 270.492052 95.17824 
L 270.714265 94.93632 
L 272.269763 94.93632 
L 272.491977 94.6944 
L 273.380833 94.6944 
L 273.603046 94.45248 
L 275.825186 94.45248 
L 276.0474 94.21056 
L 278.713967 94.21056 
L 278.936181 93.96864 
L 281.380534 93.96864 
L 281.602748 93.72672 
L 282.047176 93.72672 
L 282.26939 93.4848 
L 283.380459 93.4848 
L 283.602673 93.24288 
L 284.491529 93.24288 
L 284.713743 93.00096 
L 286.935882 93.00096 
L 287.158096 92.75904 
L 289.380235 92.75904 
L 289.602449 92.51712 
L 289.824663 92.51712 
L 290.046877 92.2752 
L 292.269016 92.2752 
L 292.49123 92.03328 
L 292.935658 92.03328 
L 293.157872 91.79136 
L 293.824514 91.79136 
L 294.046728 91.30752 
L 296.046653 91.30752 
L 296.268867 91.0656 
L 297.379937 91.0656 
L 297.60215 90.82368 
L 300.268718 90.82368 
L 300.490931 90.58176 
L 302.935285 90.58176 
L 303.157499 90.33984 
L 304.712996 90.33984 
L 304.93521 90.09792 
L 306.935135 90.09792 
L 307.157349 89.856 
L 307.823991 89.856 
L 308.046205 89.61408 
L 308.268419 89.61408 
L 308.490633 89.13024 
L 310.712772 89.13024 
L 310.934986 88.88832 
L 311.379414 88.88832 
L 311.601628 88.40448 
L 312.26827 88.40448 
L 312.490483 88.16256 
L 312.712697 88.16256 
L 312.934911 87.92064 
L 313.157125 87.92064 
L 313.379339 87.67872 
L 314.268195 87.67872 
L 314.490409 87.4368 
L 314.712623 87.4368 
L 314.934837 87.19488 
L 315.601478 87.19488 
L 316.045906 86.71104 
L 316.26812 86.71104 
L 316.490334 86.46912 
L 316.712548 86.46912 
L 316.934762 86.2272 
L 317.601404 86.2272 
L 318.045832 85.74336 
L 318.490259 85.74336 
L 318.712473 85.50144 
L 319.156901 85.50144 
L 319.379115 85.25952 
L 319.601329 85.25952 
L 319.823543 85.0176 
L 320.045757 85.0176 
L 320.267971 84.77568 
L 320.712399 84.77568 
L 320.934613 84.53376 
L 321.823468 84.53376 
L 322.045682 84.29184 
L 322.267896 84.29184 
L 322.712324 83.808 
L 323.60118 83.808 
L 323.823394 83.56608 
L 324.267822 83.56608 
L 324.490035 83.32416 
L 324.934463 83.32416 
L 325.378891 82.84032 
L 326.267747 82.84032 
L 326.489961 82.5984 
L 326.712175 82.5984 
L 326.934389 82.35648 
L 327.156603 82.35648 
L 327.823244 81.63072 
L 328.045458 81.63072 
L 328.267672 81.3888 
L 328.7121 81.3888 
L 328.934314 81.14688 
L 329.156528 81.14688 
L 329.378742 80.90496 
L 329.600956 80.90496 
L 329.82317 80.66304 
L 330.267598 80.66304 
L 330.489811 80.42112 
L 330.712025 80.42112 
L 331.156453 79.93728 
L 331.378667 79.93728 
L 331.600881 79.69536 
L 332.934165 79.69536 
L 333.378592 79.21152 
L 334.045234 79.21152 
L 334.267448 78.9696 
L 334.711876 78.9696 
L 334.93409 78.72768 
L 336.04516 78.72768 
L 336.267374 78.48576 
L 336.711801 78.48576 
L 336.934015 78.24384 
L 337.156229 77.51808 
L 338.489513 77.51808 
L 338.933941 77.03424 
L 339.378368 77.03424 
L 339.822796 76.5504 
L 340.489438 76.5504 
L 340.711652 76.30848 
L 341.378294 76.30848 
L 341.600508 76.06656 
L 342.711577 76.06656 
L 342.933791 75.58272 
L 343.822647 75.58272 
L 344.044861 75.3408 
L 345.155931 75.3408 
L 345.600358 74.85696 
L 346.267 74.85696 
L 346.711428 74.37312 
L 347.155856 74.37312 
L 348.044712 73.40544 
L 348.933567 73.40544 
L 349.155781 73.16352 
L 349.822423 73.16352 
L 350.266851 72.67968 
L 351.600134 72.67968 
L 352.044562 72.19584 
L 352.933418 72.19584 
L 353.155632 71.95392 
L 353.60006 71.95392 
L 354.044488 71.47008 
L 354.933343 71.47008 
L 355.155557 70.98624 
L 355.822199 70.98624 
L 356.266627 70.5024 
L 357.822124 70.5024 
L 358.044338 70.26048 
L 358.71098 70.26048 
L 358.933194 70.01856 
L 359.82205 70.01856 
L 360.044264 69.77664 
L 360.266478 69.77664 
L 360.488691 69.53472 
L 360.710905 69.53472 
L 360.933119 69.2928 
L 361.377547 69.2928 
L 362.044189 68.56704 
L 362.710831 68.56704 
L 362.933045 68.32512 
L 363.377472 68.32512 
L 363.599686 68.0832 
L 364.044114 68.0832 
L 364.266328 67.84128 
L 364.93297 67.84128 
L 365.377398 67.35744 
L 366.04404 67.35744 
L 366.266254 67.11552 
L 366.488467 67.11552 
L 366.710681 66.8736 
L 366.932895 66.8736 
L 367.155109 66.63168 
L 367.377323 66.63168 
L 367.599537 66.38976 
L 368.043965 66.38976 
L 368.266179 65.90592 
L 368.932821 65.90592 
L 369.155035 65.664 
L 369.377248 65.664 
L 369.599462 65.42208 
L 370.266104 65.42208 
L 370.488318 64.93824 
L 370.710532 64.93824 
L 370.932746 64.69632 
L 371.377174 64.69632 
L 371.821602 64.21248 
L 372.710457 64.21248 
L 372.932671 63.97056 
L 373.377099 63.97056 
L 373.821527 63.48672 
L 374.265955 63.48672 
L 374.488169 63.2448 
L 375.377024 63.2448 
L 375.821452 62.76096 
L 377.154736 62.76096 
L 377.37695 62.51904 
L 378.265805 62.51904 
L 379.154661 61.55136 
L 379.376875 61.55136 
L 379.821303 61.06752 
L 380.265731 61.06752 
L 380.487945 60.8256 
L 380.932373 60.8256 
L 381.154587 60.34176 
L 381.821228 60.34176 
L 382.265656 59.85792 
L 382.710084 59.85792 
L 383.154512 59.37408 
L 384.265581 59.37408 
L 384.710009 58.89024 
L 385.154437 58.89024 
L 385.376651 58.64832 
L 385.821079 58.64832 
L 386.043293 58.4064 
L 386.487721 58.4064 
L 386.709935 57.92256 
L 387.376576 57.92256 
L 387.59879 57.43872 
L 388.487646 57.43872 
L 388.70986 57.1968 
L 389.376502 57.1968 
L 389.82093 56.71296 
L 390.265357 56.71296 
L 390.487571 56.47104 
L 390.931999 56.47104 
L 391.154213 56.22912 
L 391.598641 56.22912 
L 391.820855 55.9872 
L 392.931925 55.9872 
L 393.154139 55.74528 
L 393.376352 55.74528 
L 393.598566 55.50336 
L 393.82078 55.50336 
L 394.042994 55.26144 
L 394.709636 55.26144 
L 394.93185 55.01952 
L 395.376278 55.01952 
L 395.598492 54.7776 
L 396.487347 54.7776 
L 396.709561 54.53568 
L 396.931775 54.53568 
L 397.153989 54.29376 
L 397.598417 54.29376 
L 398.042845 53.80992 
L 398.265059 53.80992 
L 398.487273 53.568 
L 398.487273 53.568 
" clip-path="url(#p88630b6ed7)" style="fill: none; stroke-dasharray: 1.85,0.8; stroke-dashoffset: 0; stroke: #bf00bf; stroke-width: 0.5"/>
   </g>
   <g id="line2d_19">
    <path d="M 73.832727 295.488 
L 74.277155 271.05408 
L 75.166011 236.94336 
L 75.832653 221.7024 
L 76.054867 219.76704 
L 76.27708 216.13824 
L 76.721508 212.0256 
L 77.38815 205.9776 
L 77.610364 204.768 
L 78.054792 198.47808 
L 79.388075 186.14016 
L 80.943573 164.60928 
L 81.165787 162.91584 
L 81.610215 158.8032 
L 82.721284 149.85216 
L 82.943498 149.36832 
L 83.165712 147.19104 
L 83.387926 146.22336 
L 83.61014 143.32032 
L 83.832354 142.59456 
L 84.054568 139.69152 
L 84.498996 137.75616 
L 84.72121 137.75616 
L 85.832279 131.70816 
L 86.721135 124.69248 
L 87.165563 122.5152 
L 87.609991 118.40256 
L 88.054419 116.4672 
L 89.165488 108.24192 
L 89.83213 105.5808 
L 90.054344 105.09696 
L 90.276558 103.88736 
L 90.498772 103.88736 
L 90.9432 102.19392 
L 91.387627 100.25856 
L 91.609841 100.01664 
L 91.832055 99.5328 
L 92.498697 97.1136 
L 92.720911 96.38784 
L 92.943125 94.45248 
L 93.165339 93.72672 
L 93.831981 89.61408 
L 94.054195 88.88832 
L 94.94305 84.53376 
L 95.609692 82.35648 
L 96.05412 81.87264 
L 97.831831 74.61504 
L 98.054045 73.88928 
L 98.498473 73.88928 
L 98.942901 72.67968 
L 99.387329 72.67968 
L 99.609543 72.43776 
L 100.276184 70.98624 
L 100.498398 70.98624 
L 100.720612 70.5024 
L 100.942826 69.53472 
L 101.16504 69.53472 
L 101.831682 68.32512 
L 102.053896 68.32512 
L 102.27611 68.0832 
L 102.720538 66.63168 
L 102.942752 66.38976 
L 104.720463 62.51904 
L 104.942677 62.51904 
L 105.387105 61.30944 
L 105.609319 61.30944 
L 105.831533 61.06752 
L 106.27596 61.06752 
L 106.720388 60.34176 
L 107.164816 59.85792 
L 107.38703 59.85792 
L 107.831458 59.37408 
L 108.275886 59.37408 
L 108.4981 58.89024 
L 108.720314 58.89024 
L 109.386955 58.16448 
L 110.053597 58.16448 
L 110.275811 57.92256 
L 110.942453 57.92256 
L 111.386881 57.43872 
L 111.831309 57.43872 
L 112.053522 57.1968 
L 112.720164 57.1968 
L 112.942378 56.95488 
L 113.386806 56.95488 
L 113.831234 56.47104 
L 114.053448 56.47104 
L 114.275662 56.22912 
L 114.942304 56.22912 
L 115.164517 55.9872 
L 115.831159 55.9872 
L 116.053373 55.74528 
L 116.942229 55.74528 
L 117.164443 55.26144 
L 117.831085 55.26144 
L 118.053298 55.01952 
L 120.053224 55.01952 
L 120.275438 54.7776 
L 120.94208 54.7776 
L 121.164293 54.53568 
L 121.608721 54.53568 
L 121.830935 54.29376 
L 123.830861 54.29376 
L 124.053074 54.05184 
L 124.719716 54.05184 
L 124.94193 53.80992 
L 138.941408 53.80992 
L 139.163621 53.568 
L 398.487273 53.568 
L 398.487273 53.568 
" clip-path="url(#p88630b6ed7)" style="fill: none; stroke-dasharray: 1.85,0.8; stroke-dashoffset: 0; stroke: #bfbf00; stroke-width: 0.5"/>
   </g>
   <g id="patch_3">
    <path d="M 57.6 307.584 
L 57.6 41.472 
" style="fill: none; stroke: #000000; stroke-width: 0.8; stroke-linejoin: miter; stroke-linecap: square"/>
   </g>
   <g id="patch_4">
    <path d="M 414.72 307.584 
L 414.72 41.472 
" style="fill: none; stroke: #000000; stroke-width: 0.8; stroke-linejoin: miter; stroke-linecap: square"/>
   </g>
   <g id="patch_5">
    <path d="M 57.6 307.584 
L 414.72 307.584 
" style="fill: none; stroke: #000000; stroke-width: 0.8; stroke-linejoin: miter; stroke-linecap: square"/>
   </g>
   <g id="patch_6">
    <path d="M 57.6 41.472 
L 414.72 41.472 
" style="fill: none; stroke: #000000; stroke-width: 0.8; stroke-linejoin: miter; stroke-linecap: square"/>
   </g>
   <g id="text_17">
    <!-- count=1000, googlenet=125, resnet50=75, squeezenetv1=125, vgg19=75 -->
    <g transform="translate(38.16 35.472)scale(0.12 -0.12)">
     <defs>
      <path id="FangSong-63" d="M 2125 2125 
Q 2125 2200 2137 2225 
Q 2150 2250 2175 2325 
Q 2200 2425 2075 2562 
Q 1950 2700 1650 2700 
Q 1275 2700 1012 2337 
Q 750 1975 750 1375 
Q 750 825 975 487 
Q 1200 150 1725 150 
Q 2075 150 2312 375 
Q 2550 600 2650 900 
L 2775 850 
Q 2675 475 2400 212 
Q 2125 -50 1650 -50 
Q 1050 -50 700 325 
Q 350 700 350 1400 
Q 350 2025 725 2437 
Q 1100 2850 1700 2850 
Q 2125 2850 2362 2625 
Q 2600 2400 2600 2175 
Q 2600 2025 2537 1962 
Q 2475 1900 2350 1900 
Q 2250 1900 2187 1962 
Q 2125 2025 2125 2125 
z
" transform="scale(0.015625)"/>
      <path id="FangSong-6f" d="M 2875 1400 
Q 2875 775 2500 362 
Q 2125 -50 1575 -50 
Q 1000 -50 637 375 
Q 275 800 275 1400 
Q 275 1950 637 2400 
Q 1000 2850 1575 2850 
Q 2175 2850 2525 2400 
Q 2875 1950 2875 1400 
z
M 675 1375 
Q 675 725 937 412 
Q 1200 100 1575 100 
Q 2000 100 2237 437 
Q 2475 775 2475 1375 
Q 2475 2025 2212 2362 
Q 1950 2700 1575 2700 
Q 1225 2700 950 2362 
Q 675 2025 675 1375 
z
" transform="scale(0.015625)"/>
      <path id="FangSong-75" d="M 1425 225 
Q 1725 225 1937 375 
Q 2150 525 2250 850 
L 2250 2425 
Q 2250 2525 2200 2587 
Q 2150 2650 2025 2650 
L 1875 2650 
L 1875 2800 
L 2025 2800 
Q 2175 2800 2300 2825 
Q 2425 2850 2550 2950 
L 2600 2950 
L 2600 500 
Q 2600 400 2662 350 
Q 2725 300 2825 300 
L 2975 300 
L 2975 150 
L 2825 150 
Q 2700 150 2575 112 
Q 2450 75 2300 0 
L 2250 0 
L 2250 525 
Q 2125 250 1875 112 
Q 1625 -25 1300 -25 
Q 900 -25 700 200 
Q 500 425 500 925 
L 500 2425 
Q 500 2525 450 2587 
Q 400 2650 275 2650 
L 125 2650 
L 125 2800 
L 275 2800 
Q 425 2800 550 2825 
Q 675 2850 800 2950 
L 850 2950 
L 850 875 
Q 850 525 1000 375 
Q 1150 225 1425 225 
z
" transform="scale(0.015625)"/>
      <path id="FangSong-6e" d="M 175 0 
L 175 150 
L 300 150 
Q 425 150 475 200 
Q 525 250 525 350 
L 525 2500 
Q 525 2575 500 2612 
Q 475 2650 400 2650 
L 200 2650 
L 200 2800 
L 375 2800 
Q 500 2800 612 2825 
Q 725 2850 825 2925 
L 875 2925 
L 875 2350 
Q 1100 2600 1325 2725 
Q 1550 2850 1800 2850 
Q 2225 2850 2425 2625 
Q 2625 2400 2625 1950 
L 2625 350 
Q 2625 250 2687 200 
Q 2750 150 2850 150 
L 2975 150 
L 2975 0 
L 1925 0 
L 1925 150 
L 2050 150 
Q 2175 150 2225 200 
Q 2275 250 2275 350 
L 2275 2025 
Q 2275 2325 2150 2487 
Q 2025 2650 1775 2650 
Q 1550 2650 1312 2500 
Q 1075 2350 875 2075 
L 875 350 
Q 875 250 937 200 
Q 1000 150 1100 150 
L 1225 150 
L 1225 0 
L 175 0 
z
" transform="scale(0.015625)"/>
      <path id="FangSong-74" d="M 1475 800 
Q 1475 450 1600 325 
Q 1725 200 1975 200 
Q 2225 200 2375 362 
Q 2525 525 2575 825 
L 2700 775 
Q 2650 425 2437 200 
Q 2225 -25 1875 -25 
Q 1500 -25 1312 200 
Q 1125 425 1125 900 
L 1125 2650 
L 375 2650 
L 375 2800 
L 575 2800 
Q 875 2800 1062 2987 
Q 1250 3175 1300 3575 
L 1325 3775 
L 1475 3775 
L 1475 2800 
L 2475 2800 
L 2475 2650 
L 1475 2650 
L 1475 800 
z
" transform="scale(0.015625)"/>
      <path id="FangSong-3d" d="M 175 2725 
L 175 2950 
L 2950 2950 
L 2950 2725 
L 175 2725 
z
M 175 1450 
L 175 1675 
L 2950 1675 
L 2950 1450 
L 175 1450 
z
" transform="scale(0.015625)"/>
      <path id="FangSong-2c" d="M 1325 75 
Q 1200 25 1100 75 
Q 1000 125 962 237 
Q 925 350 925 437 
Q 925 525 987 612 
Q 1050 700 1150 737 
Q 1250 775 1425 725 
Q 1600 675 1650 500 
Q 1700 325 1662 150 
Q 1625 -25 1525 -200 
Q 1425 -375 1312 -475 
Q 1200 -575 1025 -675 
L 950 -575 
Q 1100 -450 1187 -312 
Q 1275 -175 1325 75 
z
" transform="scale(0.015625)"/>
      <path id="FangSong-20" transform="scale(0.015625)"/>
      <path id="FangSong-67" d="M 850 1875 
Q 850 1575 1025 1362 
Q 1200 1150 1500 1150 
Q 1825 1150 1987 1337 
Q 2150 1525 2150 1875 
Q 2150 2300 1962 2487 
Q 1775 2675 1500 2675 
Q 1225 2675 1037 2487 
Q 850 2300 850 1875 
z
M 2075 525 
Q 2450 475 2625 312 
Q 2800 150 2800 -125 
Q 2800 -500 2487 -725 
Q 2175 -950 1500 -950 
Q 975 -950 650 -737 
Q 325 -525 325 -250 
Q 325 -75 450 100 
Q 575 275 850 375 
Q 700 450 612 537 
Q 525 625 525 750 
Q 525 900 625 1012 
Q 725 1125 875 1200 
Q 725 1325 612 1500 
Q 500 1675 500 1875 
Q 500 2250 762 2537 
Q 1025 2825 1500 2825 
Q 1700 2825 1887 2775 
Q 2075 2725 2200 2600 
Q 2375 2725 2512 2787 
Q 2650 2850 2750 2850 
Q 2875 2850 2925 2762 
Q 2975 2675 2975 2600 
Q 2975 2500 2937 2437 
Q 2900 2375 2800 2375 
Q 2725 2375 2675 2412 
Q 2625 2450 2600 2525 
Q 2575 2600 2487 2587 
Q 2400 2575 2300 2500 
Q 2400 2400 2450 2225 
Q 2500 2050 2500 1875 
Q 2500 1575 2262 1287 
Q 2025 1000 1500 1000 
Q 1350 1000 1225 1037 
Q 1100 1075 1025 1125 
Q 925 1075 875 1000 
Q 825 925 825 875 
Q 825 775 875 725 
Q 925 675 1025 675 
Q 1350 625 1612 587 
Q 1875 550 2075 525 
z
M 1050 325 
Q 825 225 737 87 
Q 650 -50 650 -250 
Q 650 -450 875 -625 
Q 1100 -800 1550 -800 
Q 1975 -800 2225 -662 
Q 2475 -525 2475 -250 
Q 2475 -75 2412 25 
Q 2350 125 2225 150 
Q 1975 200 1675 237 
Q 1375 275 1050 325 
z
" transform="scale(0.015625)"/>
      <path id="FangSong-6c" d="M 900 4275 
Q 1125 4275 1325 4325 
Q 1525 4375 1700 4475 
L 1750 4475 
L 1750 350 
Q 1750 250 1812 200 
Q 1875 150 1975 150 
L 2550 150 
L 2550 0 
L 600 0 
L 600 150 
L 1175 150 
Q 1300 150 1350 200 
Q 1400 250 1400 350 
L 1400 3925 
Q 1400 4025 1350 4075 
Q 1300 4125 1175 4125 
L 625 4125 
L 625 4275 
L 900 4275 
z
" transform="scale(0.015625)"/>
      <path id="FangSong-65" d="M 2375 1550 
Q 2400 2100 2187 2387 
Q 1975 2675 1625 2675 
Q 1250 2675 1012 2375 
Q 775 2075 775 1550 
L 2375 1550 
z
M 775 1400 
Q 775 725 1037 437 
Q 1300 150 1725 150 
Q 2050 150 2275 337 
Q 2500 525 2600 800 
L 2725 750 
Q 2650 475 2387 212 
Q 2125 -50 1675 -50 
Q 1100 -50 737 325 
Q 375 700 375 1400 
Q 375 2025 737 2437 
Q 1100 2850 1625 2850 
Q 2100 2850 2450 2525 
Q 2800 2200 2800 1400 
L 775 1400 
z
" transform="scale(0.015625)"/>
      <path id="FangSong-35" d="M 1700 2750 
Q 2175 2750 2475 2387 
Q 2775 2025 2775 1425 
Q 2775 750 2462 350 
Q 2150 -50 1500 -50 
Q 1050 -50 700 212 
Q 350 475 350 850 
Q 350 1000 437 1112 
Q 525 1225 675 1225 
Q 825 1225 875 1125 
Q 925 1025 925 950 
Q 925 800 850 712 
Q 775 625 775 525 
Q 775 325 1012 225 
Q 1250 125 1525 125 
Q 1925 125 2137 450 
Q 2350 775 2350 1375 
Q 2350 1875 2162 2187 
Q 1975 2500 1600 2500 
Q 1325 2500 1125 2400 
Q 925 2300 750 1975 
L 525 2000 
L 650 4275 
L 2700 4275 
L 2625 3900 
L 825 3900 
L 725 2250 
Q 975 2600 1212 2675 
Q 1450 2750 1700 2750 
z
" transform="scale(0.015625)"/>
      <path id="FangSong-72" d="M 1250 2025 
Q 1500 2425 1787 2637 
Q 2075 2850 2375 2850 
Q 2625 2850 2762 2737 
Q 2900 2625 2900 2475 
Q 2900 2350 2837 2275 
Q 2775 2200 2650 2200 
Q 2525 2200 2462 2275 
Q 2400 2350 2425 2475 
Q 2425 2550 2400 2600 
Q 2375 2650 2250 2650 
Q 2050 2650 1762 2400 
Q 1475 2150 1250 1700 
L 1250 350 
Q 1250 250 1312 200 
Q 1375 150 1475 150 
L 2025 150 
L 2025 0 
L 175 0 
L 175 150 
L 675 150 
Q 800 150 850 200 
Q 900 250 900 350 
L 900 2425 
Q 900 2525 850 2587 
Q 800 2650 675 2650 
L 200 2650 
L 200 2800 
L 400 2800 
Q 575 2800 812 2837 
Q 1050 2875 1175 2925 
L 1250 2925 
L 1250 2025 
z
" transform="scale(0.015625)"/>
      <path id="FangSong-73" d="M 600 2075 
Q 600 2450 887 2650 
Q 1175 2850 1575 2850 
Q 1800 2850 2000 2787 
Q 2200 2725 2275 2725 
Q 2350 2725 2400 2750 
Q 2450 2775 2525 2850 
L 2625 2025 
L 2475 2000 
Q 2375 2325 2137 2512 
Q 1900 2700 1600 2700 
Q 1275 2700 1087 2575 
Q 900 2450 900 2225 
Q 900 2025 987 1912 
Q 1075 1800 1300 1750 
Q 1475 1675 1737 1587 
Q 2000 1500 2225 1400 
Q 2425 1300 2562 1137 
Q 2700 975 2700 775 
Q 2700 400 2437 187 
Q 2175 -25 1675 -25 
Q 1350 -25 1187 37 
Q 1025 100 925 100 
Q 850 100 762 62 
Q 675 25 575 -25 
L 500 900 
L 650 925 
Q 725 525 975 325 
Q 1225 125 1675 125 
Q 2025 125 2212 250 
Q 2400 375 2400 625 
Q 2400 800 2300 912 
Q 2200 1025 2100 1075 
Q 1850 1175 1550 1287 
Q 1250 1400 1025 1500 
Q 800 1600 700 1750 
Q 600 1900 600 2075 
z
" transform="scale(0.015625)"/>
      <path id="FangSong-37" d="M 2800 4100 
Q 2275 3250 1962 2437 
Q 1650 1625 1650 1025 
Q 1650 925 1662 737 
Q 1675 550 1675 300 
Q 1675 100 1612 25 
Q 1550 -50 1400 -50 
Q 1275 -50 1187 37 
Q 1100 125 1100 350 
Q 1100 825 1312 1525 
Q 1525 2225 2450 3900 
L 1200 3900 
Q 925 3900 762 3725 
Q 600 3550 525 3200 
L 375 3225 
L 550 4275 
L 2800 4275 
L 2800 4100 
z
" transform="scale(0.015625)"/>
      <path id="FangSong-71" d="M 2250 2150 
Q 2150 2375 1975 2512 
Q 1800 2650 1550 2650 
Q 1200 2650 950 2350 
Q 700 2050 700 1325 
Q 700 700 912 437 
Q 1125 175 1450 175 
Q 1725 175 1937 300 
Q 2150 425 2250 725 
L 2250 2150 
z
M 2600 -550 
Q 2600 -675 2662 -725 
Q 2725 -775 2825 -775 
L 2975 -775 
L 2975 -925 
L 1825 -925 
L 1825 -775 
L 2025 -775 
Q 2150 -775 2200 -725 
Q 2250 -675 2250 -550 
L 2250 375 
Q 2100 175 1887 75 
Q 1675 -25 1375 -25 
Q 950 -25 625 337 
Q 300 700 300 1400 
Q 300 2075 675 2450 
Q 1050 2825 1475 2825 
Q 1750 2825 1937 2725 
Q 2125 2625 2275 2475 
L 2500 2800 
L 2600 2800 
L 2600 -550 
z
" transform="scale(0.015625)"/>
      <path id="FangSong-7a" d="M 2725 975 
L 2550 0 
L 400 0 
L 400 125 
L 2125 2650 
L 1200 2650 
Q 975 2650 825 2487 
Q 675 2325 575 1925 
L 425 1950 
L 525 2800 
L 2575 2800 
L 2575 2725 
L 825 150 
L 1775 150 
Q 2100 150 2287 350 
Q 2475 550 2575 1000 
L 2725 975 
z
" transform="scale(0.015625)"/>
      <path id="FangSong-76" d="M 1600 -25 
L 1450 -25 
L 600 2425 
Q 575 2525 500 2587 
Q 425 2650 325 2650 
L 200 2650 
L 200 2800 
L 1275 2800 
L 1275 2650 
L 1175 2650 
Q 1025 2650 987 2575 
Q 950 2500 1000 2325 
L 1600 575 
L 1650 575 
L 2250 2300 
Q 2325 2475 2262 2562 
Q 2200 2650 2050 2650 
L 2000 2650 
L 2000 2800 
L 2900 2800 
L 2900 2650 
L 2850 2650 
Q 2700 2650 2612 2562 
Q 2525 2475 2450 2300 
L 1600 -25 
z
" transform="scale(0.015625)"/>
      <path id="FangSong-39" d="M 675 2950 
Q 675 2400 887 2112 
Q 1100 1825 1425 1825 
Q 1800 1825 2075 2175 
Q 2350 2525 2350 2825 
Q 2350 3425 2150 3787 
Q 1950 4150 1500 4150 
Q 1075 4150 875 3812 
Q 675 3475 675 2950 
z
M 1350 1600 
Q 850 1600 550 1912 
Q 250 2225 250 2925 
Q 250 3525 575 3925 
Q 900 4325 1500 4325 
Q 2125 4325 2475 3825 
Q 2825 3325 2825 2375 
Q 2825 1325 2412 637 
Q 2000 -50 1275 -50 
Q 950 -50 712 100 
Q 475 250 475 500 
Q 475 600 537 700 
Q 600 800 750 800 
Q 900 800 950 687 
Q 1000 575 1000 425 
Q 1000 325 1025 262 
Q 1050 200 1075 175 
Q 1100 150 1162 137 
Q 1225 125 1300 125 
Q 1750 125 2025 625 
Q 2300 1125 2350 2300 
Q 2225 2000 1975 1800 
Q 1725 1600 1350 1600 
z
" transform="scale(0.015625)"/>
     </defs>
     <use xlink:href="#FangSong-63"/>
     <use xlink:href="#FangSong-6f" x="50"/>
     <use xlink:href="#FangSong-75" x="100"/>
     <use xlink:href="#FangSong-6e" x="150"/>
     <use xlink:href="#FangSong-74" x="200"/>
     <use xlink:href="#FangSong-3d" x="250"/>
     <use xlink:href="#FangSong-31" x="300"/>
     <use xlink:href="#FangSong-30" x="350"/>
     <use xlink:href="#FangSong-30" x="400"/>
     <use xlink:href="#FangSong-30" x="450"/>
     <use xlink:href="#FangSong-2c" x="500"/>
     <use xlink:href="#FangSong-20" x="550"/>
     <use xlink:href="#FangSong-67" x="600"/>
     <use xlink:href="#FangSong-6f" x="650"/>
     <use xlink:href="#FangSong-6f" x="700"/>
     <use xlink:href="#FangSong-67" x="750"/>
     <use xlink:href="#FangSong-6c" x="800"/>
     <use xlink:href="#FangSong-65" x="850"/>
     <use xlink:href="#FangSong-6e" x="900"/>
     <use xlink:href="#FangSong-65" x="950"/>
     <use xlink:href="#FangSong-74" x="1000"/>
     <use xlink:href="#FangSong-3d" x="1050"/>
     <use xlink:href="#FangSong-31" x="1100"/>
     <use xlink:href="#FangSong-32" x="1150"/>
     <use xlink:href="#FangSong-35" x="1200"/>
     <use xlink:href="#FangSong-2c" x="1250"/>
     <use xlink:href="#FangSong-20" x="1300"/>
     <use xlink:href="#FangSong-72" x="1350"/>
     <use xlink:href="#FangSong-65" x="1400"/>
     <use xlink:href="#FangSong-73" x="1450"/>
     <use xlink:href="#FangSong-6e" x="1500"/>
     <use xlink:href="#FangSong-65" x="1550"/>
     <use xlink:href="#FangSong-74" x="1600"/>
     <use xlink:href="#FangSong-35" x="1650"/>
     <use xlink:href="#FangSong-30" x="1700"/>
     <use xlink:href="#FangSong-3d" x="1750"/>
     <use xlink:href="#FangSong-37" x="1800"/>
     <use xlink:href="#FangSong-35" x="1850"/>
     <use xlink:href="#FangSong-2c" x="1900"/>
     <use xlink:href="#FangSong-20" x="1950"/>
     <use xlink:href="#FangSong-73" x="2000"/>
     <use xlink:href="#FangSong-71" x="2050"/>
     <use xlink:href="#FangSong-75" x="2100"/>
     <use xlink:href="#FangSong-65" x="2150"/>
     <use xlink:href="#FangSong-65" x="2200"/>
     <use xlink:href="#FangSong-7a" x="2250"/>
     <use xlink:href="#FangSong-65" x="2300"/>
     <use xlink:href="#FangSong-6e" x="2350"/>
     <use xlink:href="#FangSong-65" x="2400"/>
     <use xlink:href="#FangSong-74" x="2450"/>
     <use xlink:href="#FangSong-76" x="2500"/>
     <use xlink:href="#FangSong-31" x="2550"/>
     <use xlink:href="#FangSong-3d" x="2600"/>
     <use xlink:href="#FangSong-31" x="2650"/>
     <use xlink:href="#FangSong-32" x="2700"/>
     <use xlink:href="#FangSong-35" x="2750"/>
     <use xlink:href="#FangSong-2c" x="2800"/>
     <use xlink:href="#FangSong-20" x="2850"/>
     <use xlink:href="#FangSong-76" x="2900"/>
     <use xlink:href="#FangSong-67" x="2950"/>
     <use xlink:href="#FangSong-67" x="3000"/>
     <use xlink:href="#FangSong-31" x="3050"/>
     <use xlink:href="#FangSong-39" x="3100"/>
     <use xlink:href="#FangSong-3d" x="3150"/>
     <use xlink:href="#FangSong-37" x="3200"/>
     <use xlink:href="#FangSong-35" x="3250"/>
    </g>
   </g>
   <g id="legend_1">
    <g id="patch_7">
     <path d="M 335.72 302.584 
L 407.72 302.584 
Q 409.72 302.584 409.72 300.584 
L 409.72 234.357437 
Q 409.72 232.357437 407.72 232.357437 
L 335.72 232.357437 
Q 333.72 232.357437 333.72 234.357437 
L 333.72 300.584 
Q 333.72 302.584 335.72 302.584 
z
" style="fill: #ffffff; opacity: 0.8; stroke: #cccccc; stroke-linejoin: miter"/>
    </g>
    <g id="line2d_20">
     <path d="M 337.72 239.857437 
L 347.72 239.857437 
L 357.72 239.857437 
" style="fill: none; stroke: #ff0000; stroke-width: 0.5; stroke-linecap: square"/>
    </g>
    <g id="text_18">
     <!-- DLIR -->
     <g transform="translate(365.72 243.357437)scale(0.1 -0.1)">
      <defs>
       <path id="FangSong-44" d="M 2475 2175 
Q 2475 3250 2150 3687 
Q 1825 4125 1250 4125 
Q 1075 4125 987 4075 
Q 900 4025 900 3925 
L 900 350 
Q 900 250 975 200 
Q 1050 150 1175 150 
Q 1725 150 2100 562 
Q 2475 975 2475 2175 
z
M 500 3925 
Q 500 4025 450 4075 
Q 400 4125 275 4125 
L 125 4125 
L 125 4275 
L 1250 4275 
Q 2025 4275 2487 3775 
Q 2950 3275 2950 2225 
Q 2950 1075 2500 537 
Q 2050 0 1175 0 
L 100 0 
L 100 150 
L 275 150 
Q 400 150 450 200 
Q 500 250 500 350 
L 500 3925 
z
" transform="scale(0.015625)"/>
       <path id="FangSong-4c" d="M 975 350 
Q 975 250 1037 200 
Q 1100 150 1200 150 
L 1875 150 
Q 2225 150 2475 362 
Q 2725 575 2850 1025 
L 2975 975 
L 2750 0 
L 175 0 
L 175 150 
L 350 150 
Q 475 150 525 200 
Q 575 250 575 350 
L 575 3925 
Q 575 4025 525 4075 
Q 475 4125 350 4125 
L 200 4125 
L 200 4275 
L 1375 4275 
L 1375 4125 
L 1200 4125 
Q 1100 4125 1037 4075 
Q 975 4025 975 3925 
L 975 350 
z
" transform="scale(0.015625)"/>
       <path id="FangSong-49" d="M 575 4125 
L 575 4275 
L 2575 4275 
L 2575 4125 
L 2000 4125 
Q 1900 4125 1837 4075 
Q 1775 4025 1775 3925 
L 1775 350 
Q 1775 250 1837 200 
Q 1900 150 2000 150 
L 2575 150 
L 2575 0 
L 575 0 
L 575 150 
L 1150 150 
Q 1275 150 1325 200 
Q 1375 250 1375 350 
L 1375 3925 
Q 1375 4025 1325 4075 
Q 1275 4125 1150 4125 
L 575 4125 
z
" transform="scale(0.015625)"/>
       <path id="FangSong-52" d="M 2800 3275 
Q 2800 2775 2525 2500 
Q 2250 2225 1900 2175 
L 2650 325 
Q 2700 225 2762 187 
Q 2825 150 2900 150 
L 3050 150 
L 3050 0 
L 2350 0 
L 1525 2150 
L 950 2150 
L 950 350 
Q 950 250 1012 200 
Q 1075 150 1175 150 
L 1325 150 
L 1325 0 
L 175 0 
L 175 150 
L 325 150 
Q 450 150 500 200 
Q 550 250 550 350 
L 550 3925 
Q 550 4025 500 4075 
Q 450 4125 325 4125 
L 175 4125 
L 175 4275 
L 1600 4275 
Q 2175 4275 2487 4025 
Q 2800 3775 2800 3275 
z
M 950 2300 
L 1500 2300 
Q 1875 2300 2125 2525 
Q 2375 2750 2375 3225 
Q 2375 3650 2150 3887 
Q 1925 4125 1450 4125 
L 1175 4125 
Q 1075 4125 1012 4075 
Q 950 4025 950 3925 
L 950 2300 
z
" transform="scale(0.015625)"/>
      </defs>
      <use xlink:href="#FangSong-44"/>
      <use xlink:href="#FangSong-4c" x="50"/>
      <use xlink:href="#FangSong-49" x="100"/>
      <use xlink:href="#FangSong-52" x="150"/>
     </g>
    </g>
    <g id="line2d_21">
     <path d="M 337.72 253.30275 
L 347.72 253.30275 
L 357.72 253.30275 
" style="fill: none; stroke-dasharray: 1.85,0.8; stroke-dashoffset: 0; stroke: #008000; stroke-width: 0.5"/>
    </g>
    <g id="text_19">
     <!-- BNST -->
     <g transform="translate(365.72 256.80275)scale(0.1 -0.1)">
      <defs>
       <path id="FangSong-42" d="M 75 0 
L 75 150 
L 275 150 
Q 400 150 450 200 
Q 500 250 500 350 
L 500 3925 
Q 500 4025 450 4075 
Q 400 4125 275 4125 
L 125 4125 
L 125 4275 
L 1575 4275 
Q 2175 4275 2462 4037 
Q 2750 3800 2750 3300 
Q 2750 2950 2600 2725 
Q 2450 2500 1975 2325 
Q 2550 2150 2750 1825 
Q 2950 1500 2950 1100 
Q 2950 600 2600 300 
Q 2250 0 1650 0 
L 75 0 
z
M 1575 150 
Q 2000 150 2237 412 
Q 2475 675 2475 1150 
Q 2475 1700 2225 1962 
Q 1975 2225 1475 2225 
L 900 2225 
L 900 350 
Q 900 250 962 200 
Q 1025 150 1125 150 
L 1575 150 
z
M 2325 3300 
Q 2325 3750 2075 3937 
Q 1825 4125 1425 4125 
L 1125 4125 
Q 1025 4125 962 4075 
Q 900 4025 900 3925 
L 900 2375 
L 1550 2375 
Q 1825 2375 2075 2600 
Q 2325 2825 2325 3300 
z
" transform="scale(0.015625)"/>
       <path id="FangSong-4e" d="M 2500 1000 
L 2550 1000 
L 2550 3925 
Q 2550 4025 2500 4075 
Q 2450 4125 2325 4125 
L 2125 4125 
L 2125 4275 
L 3125 4275 
L 3125 4125 
L 2925 4125 
Q 2825 4125 2762 4075 
Q 2700 4025 2700 3925 
L 2700 0 
L 2550 0 
L 650 3725 
L 600 3725 
L 600 350 
Q 600 250 662 200 
Q 725 150 825 150 
L 1025 150 
L 1025 0 
L 25 0 
L 25 150 
L 225 150 
Q 350 150 400 200 
Q 450 250 450 350 
L 450 3925 
Q 450 4025 400 4075 
Q 350 4125 225 4125 
L 75 4125 
L 75 4275 
L 800 4275 
L 2500 1000 
z
" transform="scale(0.015625)"/>
       <path id="FangSong-53" d="M 1475 2050 
Q 800 2350 550 2575 
Q 300 2800 300 3275 
Q 300 3650 612 3987 
Q 925 4325 1500 4325 
Q 1750 4325 1975 4237 
Q 2200 4150 2300 4150 
Q 2375 4150 2437 4187 
Q 2500 4225 2550 4325 
L 2650 3300 
L 2525 3250 
Q 2300 3775 2062 3962 
Q 1825 4150 1450 4150 
Q 975 4150 800 3887 
Q 625 3625 625 3325 
Q 625 3050 787 2887 
Q 950 2725 1675 2400 
Q 2275 2150 2537 1837 
Q 2800 1525 2800 1100 
Q 2800 650 2487 300 
Q 2175 -50 1575 -50 
Q 1325 -50 1112 37 
Q 900 125 775 125 
Q 700 125 625 75 
Q 550 25 450 -50 
L 250 1175 
L 400 1225 
Q 575 600 887 362 
Q 1200 125 1600 125 
Q 2025 125 2237 375 
Q 2450 625 2450 1100 
Q 2450 1350 2212 1587 
Q 1975 1825 1475 2050 
z
" transform="scale(0.015625)"/>
       <path id="FangSong-54" d="M 2200 0 
L 900 0 
L 900 150 
L 1125 150 
Q 1250 150 1300 200 
Q 1350 250 1350 350 
L 1350 3850 
Q 1350 4050 1325 4075 
Q 1300 4100 1125 4100 
Q 775 4100 637 3975 
Q 500 3850 300 3300 
L 150 3325 
L 375 4275 
L 2750 4275 
L 2950 3325 
L 2825 3300 
Q 2625 3825 2512 3962 
Q 2400 4100 2050 4100 
Q 1800 4100 1775 4075 
Q 1750 4050 1750 3825 
L 1750 350 
Q 1750 250 1812 200 
Q 1875 150 1975 150 
L 2200 150 
L 2200 0 
z
" transform="scale(0.015625)"/>
      </defs>
      <use xlink:href="#FangSong-42"/>
      <use xlink:href="#FangSong-4e" x="50"/>
      <use xlink:href="#FangSong-53" x="100"/>
      <use xlink:href="#FangSong-54" x="150"/>
     </g>
    </g>
    <g id="line2d_22">
     <path d="M 337.72 266.748062 
L 347.72 266.748062 
L 357.72 266.748062 
" style="fill: none; stroke-dasharray: 1.85,0.8; stroke-dashoffset: 0; stroke: #0000ff; stroke-width: 0.5"/>
    </g>
    <g id="text_20">
     <!-- FIFO -->
     <g transform="translate(365.72 270.248062)scale(0.1 -0.1)">
      <defs>
       <path id="FangSong-46" d="M 1325 150 
L 1325 0 
L 125 0 
L 125 150 
L 300 150 
Q 425 150 475 200 
Q 525 250 525 350 
L 525 3925 
Q 525 4025 475 4075 
Q 425 4125 300 4125 
L 150 4125 
L 150 4275 
L 2750 4275 
L 3050 3375 
L 2925 3325 
Q 2725 3725 2450 3925 
Q 2175 4125 1850 4125 
L 1150 4125 
Q 1050 4125 987 4075 
Q 925 4025 925 3925 
L 925 2325 
L 1750 2325 
Q 2000 2325 2112 2437 
Q 2225 2550 2225 2800 
L 2225 2925 
L 2375 2925 
L 2375 1475 
L 2225 1475 
L 2225 1575 
Q 2225 1875 2112 2025 
Q 2000 2175 1750 2175 
L 925 2175 
L 925 350 
Q 925 250 987 200 
Q 1050 150 1150 150 
L 1325 150 
z
" transform="scale(0.015625)"/>
       <path id="FangSong-4f" d="M 675 2150 
Q 675 1075 937 587 
Q 1200 100 1600 100 
Q 2025 100 2275 562 
Q 2525 1025 2525 2150 
Q 2525 3050 2312 3600 
Q 2100 4150 1600 4150 
Q 1175 4150 925 3650 
Q 675 3150 675 2150 
z
M 3000 2150 
Q 3000 1125 2600 537 
Q 2200 -50 1600 -50 
Q 1025 -50 612 550 
Q 200 1150 200 2150 
Q 200 3125 587 3725 
Q 975 4325 1600 4325 
Q 2250 4325 2625 3687 
Q 3000 3050 3000 2150 
z
" transform="scale(0.015625)"/>
      </defs>
      <use xlink:href="#FangSong-46"/>
      <use xlink:href="#FangSong-49" x="50"/>
      <use xlink:href="#FangSong-46" x="100"/>
      <use xlink:href="#FangSong-4f" x="150"/>
     </g>
    </g>
    <g id="line2d_23">
     <path d="M 337.72 280.193375 
L 347.72 280.193375 
L 357.72 280.193375 
" style="fill: none; stroke-dasharray: 1.85,0.8; stroke-dashoffset: 0; stroke: #bf00bf; stroke-width: 0.5"/>
    </g>
    <g id="text_21">
     <!-- OYST -->
     <g transform="translate(365.72 283.693375)scale(0.1 -0.1)">
      <defs>
       <path id="FangSong-59" d="M 2350 3825 
Q 2375 3975 2312 4050 
Q 2250 4125 2075 4125 
L 2025 4125 
L 2025 4275 
L 3000 4275 
L 3000 4125 
L 2925 4125 
Q 2800 4125 2700 4037 
Q 2600 3950 2525 3775 
L 1750 1800 
L 1750 350 
Q 1750 250 1812 200 
Q 1875 150 1975 150 
L 2200 150 
L 2200 0 
L 900 0 
L 900 150 
L 1125 150 
Q 1250 150 1300 200 
Q 1350 250 1350 350 
L 1350 1650 
L 500 3850 
Q 450 3975 375 4050 
Q 300 4125 175 4125 
L 125 4125 
L 125 4275 
L 1225 4275 
L 1225 4125 
L 1075 4125 
Q 925 4125 900 4050 
Q 875 3975 925 3825 
L 1600 1975 
L 1650 1975 
L 2350 3825 
z
" transform="scale(0.015625)"/>
      </defs>
      <use xlink:href="#FangSong-4f"/>
      <use xlink:href="#FangSong-59" x="50"/>
      <use xlink:href="#FangSong-53" x="100"/>
      <use xlink:href="#FangSong-54" x="150"/>
     </g>
    </g>
    <g id="line2d_24">
     <path d="M 337.72 293.638687 
L 347.72 293.638687 
L 357.72 293.638687 
" style="fill: none; stroke-dasharray: 1.85,0.8; stroke-dashoffset: 0; stroke: #bfbf00; stroke-width: 0.5"/>
    </g>
    <g id="text_22">
     <!-- PARALLEL -->
     <g transform="translate(365.72 297.138687)scale(0.1 -0.1)">
      <defs>
       <path id="FangSong-50" d="M 925 2000 
L 925 350 
Q 925 250 987 200 
Q 1050 150 1150 150 
L 1325 150 
L 1325 0 
L 125 0 
L 125 150 
L 300 150 
Q 425 150 475 200 
Q 525 250 525 350 
L 525 3925 
Q 525 4025 475 4075 
Q 425 4125 300 4125 
L 150 4125 
L 150 4275 
L 1625 4275 
Q 2250 4275 2587 3962 
Q 2925 3650 2925 3175 
Q 2925 2600 2562 2300 
Q 2200 2000 1700 2000 
L 925 2000 
z
M 1550 2150 
Q 1925 2150 2212 2375 
Q 2500 2600 2500 3150 
Q 2500 3650 2262 3887 
Q 2025 4125 1500 4125 
L 1150 4125 
Q 1050 4125 987 4075 
Q 925 4025 925 3925 
L 925 2150 
L 1550 2150 
z
" transform="scale(0.015625)"/>
       <path id="FangSong-41" d="M 2000 1600 
L 875 1600 
L 650 650 
Q 600 425 650 287 
Q 700 150 875 150 
L 950 150 
L 950 0 
L 25 0 
L 25 150 
L 100 150 
Q 200 150 275 212 
Q 350 275 375 425 
L 1350 4250 
L 1725 4375 
L 2675 425 
Q 2725 275 2800 212 
Q 2875 150 2975 150 
L 3050 150 
L 3050 0 
L 1975 0 
L 1975 150 
L 2075 150 
Q 2225 150 2262 237 
Q 2300 325 2250 500 
L 2000 1600 
z
M 1475 3825 
L 1450 3825 
L 925 1750 
L 1975 1750 
L 1475 3825 
z
" transform="scale(0.015625)"/>
       <path id="FangSong-45" d="M 175 4125 
L 175 4275 
L 2625 4275 
L 2900 3425 
L 2775 3375 
Q 2575 3750 2350 3937 
Q 2125 4125 1850 4125 
L 1150 4125 
Q 1050 4125 987 4075 
Q 925 4025 925 3925 
L 925 2375 
L 1650 2375 
Q 1900 2375 2012 2500 
Q 2125 2625 2125 2875 
L 2125 3025 
L 2275 3025 
L 2275 1550 
L 2125 1550 
L 2125 1650 
Q 2125 1925 2012 2075 
Q 1900 2225 1650 2225 
L 925 2225 
L 925 350 
Q 925 250 987 200 
Q 1050 150 1150 150 
L 1800 150 
Q 2175 150 2437 362 
Q 2700 575 2850 1025 
L 2975 975 
L 2700 0 
L 150 0 
L 150 150 
L 300 150 
Q 425 150 475 200 
Q 525 250 525 350 
L 525 3925 
Q 525 4025 475 4075 
Q 425 4125 300 4125 
L 175 4125 
z
" transform="scale(0.015625)"/>
      </defs>
      <use xlink:href="#FangSong-50"/>
      <use xlink:href="#FangSong-41" x="50"/>
      <use xlink:href="#FangSong-52" x="100"/>
      <use xlink:href="#FangSong-41" x="150"/>
      <use xlink:href="#FangSong-4c" x="200"/>
      <use xlink:href="#FangSong-4c" x="250"/>
      <use xlink:href="#FangSong-45" x="300"/>
      <use xlink:href="#FangSong-4c" x="350"/>
     </g>
    </g>
   </g>
  </g>
 </g>
 <defs>
  <clipPath id="p88630b6ed7">
   <rect x="57.6" y="41.472" width="357.12" height="266.112"/>
  </clipPath>
 </defs>
</svg>
