<?xml version="1.0" encoding="utf-8" standalone="no"?>
<!DOCTYPE svg PUBLIC "-//W3C//DTD SVG 1.1//EN"
  "http://www.w3.org/Graphics/SVG/1.1/DTD/svg11.dtd">
<svg xmlns:xlink="http://www.w3.org/1999/xlink" width="460.8pt" height="345.6pt" viewBox="0 0 460.8 345.6" xmlns="http://www.w3.org/2000/svg" version="1.1">
 <metadata>
  <rdf:RDF xmlns:dc="http://purl.org/dc/elements/1.1/" xmlns:cc="http://creativecommons.org/ns#" xmlns:rdf="http://www.w3.org/1999/02/22-rdf-syntax-ns#">
   <cc:Work>
    <dc:type rdf:resource="http://purl.org/dc/dcmitype/StillImage"/>
    <dc:date>2022-11-17T04:01:27.996162</dc:date>
    <dc:format>image/svg+xml</dc:format>
    <dc:creator>
     <cc:Agent>
      <dc:title>Matplotlib v3.5.2, https://matplotlib.org/</dc:title>
     </cc:Agent>
    </dc:creator>
   </cc:Work>
  </rdf:RDF>
 </metadata>
 <defs>
  <style type="text/css">*{stroke-linejoin: round; stroke-linecap: butt}</style>
 </defs>
 <g id="figure_1">
  <g id="patch_1">
   <path d="M 0 345.6 
L 460.8 345.6 
L 460.8 0 
L 0 0 
z
" style="fill: #ffffff"/>
  </g>
  <g id="axes_1">
   <g id="patch_2">
    <path d="M 57.6 307.584 
L 414.72 307.584 
L 414.72 41.472 
L 57.6 41.472 
z
" style="fill: #ffffff"/>
   </g>
   <g id="matplotlib.axis_1">
    <g id="xtick_1">
     <g id="line2d_1">
      <defs>
       <path id="m053bbb3f0d" d="M 0 0 
L 0 3.5 
" style="stroke: #000000; stroke-width: 0.8"/>
      </defs>
      <g>
       <use xlink:href="#m053bbb3f0d" x="67.528756" y="307.584" style="stroke: #000000; stroke-width: 0.8"/>
      </g>
     </g>
     <g id="text_1">
      <!-- 0 -->
      <g transform="translate(65.028756 321.576187)scale(0.1 -0.1)">
       <defs>
        <path id="FangSong-30" d="M 1575 4125 
Q 1225 4125 987 3587 
Q 750 3050 750 2150 
Q 750 1200 987 675 
Q 1225 150 1575 150 
Q 1950 150 2162 675 
Q 2375 1200 2375 2150 
Q 2375 3050 2175 3587 
Q 1975 4125 1575 4125 
z
M 1575 -50 
Q 1025 -50 650 525 
Q 275 1100 275 2150 
Q 275 3125 637 3725 
Q 1000 4325 1575 4325 
Q 2125 4325 2487 3750 
Q 2850 3175 2850 2150 
Q 2850 1125 2487 537 
Q 2125 -50 1575 -50 
z
" transform="scale(0.015625)"/>
       </defs>
       <use xlink:href="#FangSong-30"/>
      </g>
     </g>
    </g>
    <g id="xtick_2">
     <g id="line2d_2">
      <g>
       <use xlink:href="#m053bbb3f0d" x="130.568473" y="307.584" style="stroke: #000000; stroke-width: 0.8"/>
      </g>
     </g>
     <g id="text_2">
      <!-- 10 -->
      <g transform="translate(125.568473 321.576187)scale(0.1 -0.1)">
       <defs>
        <path id="FangSong-31" d="M 1800 4350 
L 1800 550 
Q 1800 350 1925 250 
Q 2050 150 2275 150 
L 2525 150 
L 2525 0 
L 700 0 
L 700 150 
L 925 150 
Q 1175 150 1287 250 
Q 1400 350 1400 550 
L 1400 3575 
Q 1400 3675 1337 3737 
Q 1275 3800 1150 3800 
L 700 3800 
L 700 3950 
L 925 3950 
Q 1225 3950 1412 4050 
Q 1600 4150 1700 4350 
L 1800 4350 
z
" transform="scale(0.015625)"/>
       </defs>
       <use xlink:href="#FangSong-31"/>
       <use xlink:href="#FangSong-30" x="50"/>
      </g>
     </g>
    </g>
    <g id="xtick_3">
     <g id="line2d_3">
      <g>
       <use xlink:href="#m053bbb3f0d" x="193.608191" y="307.584" style="stroke: #000000; stroke-width: 0.8"/>
      </g>
     </g>
     <g id="text_3">
      <!-- 20 -->
      <g transform="translate(188.608191 321.576187)scale(0.1 -0.1)">
       <defs>
        <path id="FangSong-32" d="M 2300 3225 
Q 2300 3675 2100 3912 
Q 1900 4150 1500 4150 
Q 1200 4150 987 3987 
Q 775 3825 775 3575 
Q 775 3425 862 3325 
Q 950 3225 950 3125 
Q 950 3000 887 2937 
Q 825 2875 700 2875 
Q 550 2875 462 2962 
Q 375 3050 375 3250 
Q 375 3775 750 4050 
Q 1125 4325 1550 4325 
Q 2150 4325 2437 4025 
Q 2725 3725 2725 3275 
Q 2725 2975 2587 2675 
Q 2450 2375 2150 2100 
Q 1425 1400 1037 962 
Q 650 525 575 375 
L 2050 375 
Q 2275 375 2425 550 
Q 2575 725 2625 1075 
L 2775 1075 
L 2625 0 
L 300 0 
L 300 325 
Q 425 550 712 900 
Q 1000 1250 1475 1725 
Q 1900 2150 2100 2525 
Q 2300 2900 2300 3225 
z
" transform="scale(0.015625)"/>
       </defs>
       <use xlink:href="#FangSong-32"/>
       <use xlink:href="#FangSong-30" x="50"/>
      </g>
     </g>
    </g>
    <g id="xtick_4">
     <g id="line2d_4">
      <g>
       <use xlink:href="#m053bbb3f0d" x="256.647908" y="307.584" style="stroke: #000000; stroke-width: 0.8"/>
      </g>
     </g>
     <g id="text_4">
      <!-- 30 -->
      <g transform="translate(251.647908 321.576187)scale(0.1 -0.1)">
       <defs>
        <path id="FangSong-33" d="M 2775 1150 
Q 2775 675 2425 312 
Q 2075 -50 1450 -50 
Q 1000 -50 675 200 
Q 350 450 350 775 
Q 350 925 450 1037 
Q 550 1150 650 1150 
Q 800 1150 862 1037 
Q 925 925 925 850 
Q 925 725 875 637 
Q 825 550 825 475 
Q 825 325 1012 225 
Q 1200 125 1425 125 
Q 1875 125 2100 387 
Q 2325 650 2325 1200 
Q 2325 1650 2087 1925 
Q 1850 2200 1200 2200 
L 1200 2375 
Q 1700 2375 1937 2612 
Q 2175 2850 2175 3275 
Q 2175 3625 1987 3887 
Q 1800 4150 1400 4150 
Q 1225 4150 1025 4062 
Q 825 3975 825 3775 
Q 825 3575 875 3525 
Q 925 3475 925 3400 
Q 925 3275 875 3200 
Q 825 3125 700 3125 
Q 600 3125 512 3200 
Q 425 3275 425 3475 
Q 425 3850 750 4087 
Q 1075 4325 1500 4325 
Q 2000 4325 2300 4012 
Q 2600 3700 2600 3350 
Q 2600 2975 2412 2712 
Q 2225 2450 1825 2325 
Q 2375 2125 2575 1800 
Q 2775 1475 2775 1150 
z
" transform="scale(0.015625)"/>
       </defs>
       <use xlink:href="#FangSong-33"/>
       <use xlink:href="#FangSong-30" x="50"/>
      </g>
     </g>
    </g>
    <g id="xtick_5">
     <g id="line2d_5">
      <g>
       <use xlink:href="#m053bbb3f0d" x="319.687626" y="307.584" style="stroke: #000000; stroke-width: 0.8"/>
      </g>
     </g>
     <g id="text_5">
      <!-- 40 -->
      <g transform="translate(314.687626 321.576187)scale(0.1 -0.1)">
       <defs>
        <path id="FangSong-34" d="M 2275 475 
Q 2275 300 2375 225 
Q 2475 150 2650 150 
L 2875 150 
L 2875 0 
L 1225 0 
L 1225 150 
L 1500 150 
Q 1700 150 1787 225 
Q 1875 300 1875 475 
L 1875 1300 
L 200 1300 
L 200 1425 
L 2025 4325 
L 2275 4325 
L 2275 1450 
L 2950 1450 
L 2950 1300 
L 2275 1300 
L 2275 475 
z
M 1850 3700 
L 425 1450 
L 1875 1450 
L 1875 3700 
L 1850 3700 
z
" transform="scale(0.015625)"/>
       </defs>
       <use xlink:href="#FangSong-34"/>
       <use xlink:href="#FangSong-30" x="50"/>
      </g>
     </g>
    </g>
    <g id="xtick_6">
     <g id="line2d_6">
      <g>
       <use xlink:href="#m053bbb3f0d" x="382.727343" y="307.584" style="stroke: #000000; stroke-width: 0.8"/>
      </g>
     </g>
     <g id="text_6">
      <!-- 50 -->
      <g transform="translate(377.727343 321.576187)scale(0.1 -0.1)">
       <defs>
        <path id="FangSong-35" d="M 1700 2750 
Q 2175 2750 2475 2387 
Q 2775 2025 2775 1425 
Q 2775 750 2462 350 
Q 2150 -50 1500 -50 
Q 1050 -50 700 212 
Q 350 475 350 850 
Q 350 1000 437 1112 
Q 525 1225 675 1225 
Q 825 1225 875 1125 
Q 925 1025 925 950 
Q 925 800 850 712 
Q 775 625 775 525 
Q 775 325 1012 225 
Q 1250 125 1525 125 
Q 1925 125 2137 450 
Q 2350 775 2350 1375 
Q 2350 1875 2162 2187 
Q 1975 2500 1600 2500 
Q 1325 2500 1125 2400 
Q 925 2300 750 1975 
L 525 2000 
L 650 4275 
L 2700 4275 
L 2625 3900 
L 825 3900 
L 725 2250 
Q 975 2600 1212 2675 
Q 1450 2750 1700 2750 
z
" transform="scale(0.015625)"/>
       </defs>
       <use xlink:href="#FangSong-35"/>
       <use xlink:href="#FangSong-30" x="50"/>
      </g>
     </g>
    </g>
    <g id="text_7">
     <!-- 响应比 -->
     <g transform="translate(221.16 334.873062)scale(0.1 -0.1)">
      <defs>
       <path id="FangSong-54cd" d="M 2700 -200 
Q 2725 -650 2625 -525 
L 2375 -125 
Q 2500 50 2475 350 
L 2500 3200 
Q 2500 3625 2425 4100 
L 2500 4125 
L 2725 3575 
L 3300 3625 
Q 3550 4225 3675 4637 
Q 3800 5050 3700 5150 
L 3775 5200 
L 4125 4750 
Q 4050 4800 3900 4512 
Q 3750 4225 3500 3650 
L 5275 3850 
L 5425 4125 
L 5725 3850 
L 5575 3650 
Q 5500 -175 5175 -675 
Q 4800 -275 4175 250 
L 4225 350 
L 5050 -175 
Q 5275 525 5325 3625 
L 2725 3325 
L 2700 -200 
z
M 725 3250 
Q 725 3575 625 3925 
L 725 3975 
L 950 3525 
L 1750 3650 
L 1875 3875 
L 2175 3650 
L 2000 3450 
L 1925 2175 
L 2125 1950 
L 1000 1800 
Q 1025 1275 900 1350 
L 650 1750 
Q 775 1850 750 2150 
L 725 3250 
z
M 3550 1250 
Q 3575 950 3500 875 
L 3225 1200 
Q 3300 1350 3300 1525 
L 3275 2325 
Q 3275 2700 3200 2875 
L 3275 2925 
L 3500 2625 
L 4350 2725 
L 4500 2925 
L 4775 2675 
L 4600 2475 
L 4525 1575 
L 4750 1400 
L 3550 1250 
z
M 975 3275 
L 1000 2050 
L 1675 2150 
L 1775 3425 
L 975 3275 
z
M 4350 2475 
L 3500 2375 
L 3525 1500 
L 4275 1575 
L 4350 2475 
z
" transform="scale(0.015625)"/>
       <path id="FangSong-5e94" d="M 1625 4400 
L 1800 3800 
Q 5075 4050 5200 4175 
L 5525 3850 
Q 5200 3900 1825 3550 
Q 1775 2450 1675 1825 
Q 1575 1200 1312 612 
Q 1050 25 500 -600 
L 425 -525 
Q 850 50 1100 675 
Q 1350 1300 1425 1862 
Q 1500 2425 1550 3150 
Q 1600 3875 1550 4375 
L 1625 4400 
z
M 4725 3175 
L 5100 2725 
Q 5000 2800 4750 2112 
Q 4500 1425 4000 150 
Q 5425 225 5400 275 
L 5725 0 
Q 5425 0 3687 -112 
Q 1950 -225 1725 -275 
L 1350 25 
Q 2150 0 3800 125 
Q 4300 1500 4525 2200 
Q 4750 2900 4650 3125 
L 4725 3175 
z
M 2900 1150 
Q 2800 975 2650 725 
Q 2450 1625 2175 2550 
L 2275 2575 
Q 2600 1850 2900 1150 
z
M 3775 1550 
Q 3675 1350 3525 1150 
Q 3475 1600 3075 3050 
L 3150 3075 
Q 3475 2300 3775 1550 
z
M 3500 4100 
Q 3275 4675 3000 5225 
L 3075 5275 
Q 3375 4900 3700 4525 
Q 3600 4325 3500 4100 
z
" transform="scale(0.015625)"/>
       <path id="FangSong-6bd4" d="M 3500 2125 
Q 3925 2425 4487 2975 
Q 5050 3525 4950 3750 
L 5025 3775 
L 5250 3225 
Q 5175 3250 4875 3000 
Q 4575 2750 4287 2525 
Q 4000 2300 3500 1900 
L 3500 575 
Q 3475 -100 4150 -100 
L 4800 -100 
Q 5275 -100 5375 12 
Q 5475 125 5450 1350 
L 5575 1350 
Q 5600 825 5637 412 
Q 5675 0 5800 -175 
Q 5375 -325 4800 -325 
L 4150 -325 
Q 3225 -350 3275 550 
L 3275 4300 
Q 3275 4875 3150 5150 
L 3200 5200 
L 3625 4850 
Q 3475 4825 3500 4250 
L 3500 2125 
z
M 1500 2575 
Q 1900 2625 2337 2712 
Q 2775 2800 2800 2850 
L 3075 2600 
Q 2875 2575 2350 2475 
Q 1825 2375 1775 2325 
L 1500 2525 
L 1500 150 
L 2925 1075 
L 2975 1025 
Q 1550 -75 1375 -350 
L 1200 0 
Q 1275 75 1275 350 
L 1275 3925 
Q 1275 4475 1150 4750 
L 1200 4800 
L 1625 4400 
Q 1475 4375 1500 3925 
L 1500 2575 
z
" transform="scale(0.015625)"/>
      </defs>
      <use xlink:href="#FangSong-54cd"/>
      <use xlink:href="#FangSong-5e94" x="100"/>
      <use xlink:href="#FangSong-6bd4" x="200"/>
     </g>
    </g>
   </g>
   <g id="matplotlib.axis_2">
    <g id="ytick_1">
     <g id="line2d_7">
      <defs>
       <path id="m47c2e48cb6" d="M 0 0 
L -3.5 0 
" style="stroke: #000000; stroke-width: 0.8"/>
      </defs>
      <g>
       <use xlink:href="#m47c2e48cb6" x="57.6" y="295.488" style="stroke: #000000; stroke-width: 0.8"/>
      </g>
     </g>
     <g id="text_8">
      <!-- 0% -->
      <g transform="translate(40.6 298.984094)scale(0.1 -0.1)">
       <defs>
        <path id="FangSong-25" d="M 725 4150 
Q 575 4150 475 3950 
Q 375 3750 375 3200 
Q 375 2575 487 2387 
Q 600 2200 725 2200 
Q 900 2200 987 2425 
Q 1075 2650 1075 3200 
Q 1075 3650 1012 3900 
Q 950 4150 725 4150 
z
M 1400 3175 
Q 1400 2725 1250 2387 
Q 1100 2050 725 2050 
Q 425 2050 237 2350 
Q 50 2650 50 3175 
Q 50 3725 250 4025 
Q 450 4325 725 4325 
Q 1025 4325 1212 4012 
Q 1400 3700 1400 3175 
z
M 2700 1100 
Q 2700 1525 2625 1800 
Q 2550 2075 2350 2075 
Q 2200 2075 2100 1837 
Q 2000 1600 2000 1100 
Q 2000 475 2112 300 
Q 2225 125 2350 125 
Q 2525 125 2612 337 
Q 2700 550 2700 1100 
z
M 3025 1075 
Q 3025 575 2850 262 
Q 2675 -50 2350 -50 
Q 2075 -50 1875 262 
Q 1675 575 1675 1075 
Q 1675 1625 1875 1937 
Q 2075 2250 2350 2250 
Q 2650 2250 2837 1925 
Q 3025 1600 3025 1075 
z
M 2500 4250 
L 700 -50 
L 550 25 
L 2325 4325 
L 2500 4250 
z
" transform="scale(0.015625)"/>
       </defs>
       <use xlink:href="#FangSong-30"/>
       <use xlink:href="#FangSong-25" x="50"/>
      </g>
     </g>
    </g>
    <g id="ytick_2">
     <g id="line2d_8">
      <g>
       <use xlink:href="#m47c2e48cb6" x="57.6" y="247.104" style="stroke: #000000; stroke-width: 0.8"/>
      </g>
     </g>
     <g id="text_9">
      <!-- 20% -->
      <g transform="translate(35.6 250.600094)scale(0.1 -0.1)">
       <use xlink:href="#FangSong-32"/>
       <use xlink:href="#FangSong-30" x="50"/>
       <use xlink:href="#FangSong-25" x="100"/>
      </g>
     </g>
    </g>
    <g id="ytick_3">
     <g id="line2d_9">
      <g>
       <use xlink:href="#m47c2e48cb6" x="57.6" y="198.72" style="stroke: #000000; stroke-width: 0.8"/>
      </g>
     </g>
     <g id="text_10">
      <!-- 40% -->
      <g transform="translate(35.6 202.216094)scale(0.1 -0.1)">
       <use xlink:href="#FangSong-34"/>
       <use xlink:href="#FangSong-30" x="50"/>
       <use xlink:href="#FangSong-25" x="100"/>
      </g>
     </g>
    </g>
    <g id="ytick_4">
     <g id="line2d_10">
      <g>
       <use xlink:href="#m47c2e48cb6" x="57.6" y="150.336" style="stroke: #000000; stroke-width: 0.8"/>
      </g>
     </g>
     <g id="text_11">
      <!-- 60% -->
      <g transform="translate(35.6 153.832094)scale(0.1 -0.1)">
       <defs>
        <path id="FangSong-36" d="M 750 1700 
Q 750 950 1012 537 
Q 1275 125 1650 125 
Q 2025 125 2225 400 
Q 2425 675 2425 1425 
Q 2425 1925 2212 2200 
Q 2000 2475 1700 2475 
Q 1425 2475 1187 2312 
Q 950 2150 750 1700 
z
M 1725 2725 
Q 2325 2725 2587 2325 
Q 2850 1925 2850 1425 
Q 2850 675 2487 312 
Q 2125 -50 1650 -50 
Q 975 -50 625 462 
Q 275 975 275 1950 
Q 275 3100 700 3712 
Q 1125 4325 1850 4325 
Q 2200 4325 2412 4125 
Q 2625 3925 2625 3775 
Q 2625 3625 2562 3550 
Q 2500 3475 2350 3475 
Q 2225 3475 2162 3537 
Q 2100 3600 2100 3725 
Q 2100 3775 2112 3825 
Q 2125 3875 2125 3925 
Q 2125 4025 2050 4087 
Q 1975 4150 1775 4150 
Q 1350 4150 1050 3762 
Q 750 3375 750 2075 
Q 900 2400 1162 2562 
Q 1425 2725 1725 2725 
z
" transform="scale(0.015625)"/>
       </defs>
       <use xlink:href="#FangSong-36"/>
       <use xlink:href="#FangSong-30" x="50"/>
       <use xlink:href="#FangSong-25" x="100"/>
      </g>
     </g>
    </g>
    <g id="ytick_5">
     <g id="line2d_11">
      <g>
       <use xlink:href="#m47c2e48cb6" x="57.6" y="101.952" style="stroke: #000000; stroke-width: 0.8"/>
      </g>
     </g>
     <g id="text_12">
      <!-- 80% -->
      <g transform="translate(35.6 105.448094)scale(0.1 -0.1)">
       <defs>
        <path id="FangSong-38" d="M 600 1025 
Q 600 625 862 375 
Q 1125 125 1525 125 
Q 2000 125 2212 375 
Q 2425 625 2425 1000 
Q 2425 1325 2125 1625 
Q 1825 1925 1225 2175 
Q 925 1975 762 1675 
Q 600 1375 600 1025 
z
M 2800 1075 
Q 2800 600 2450 275 
Q 2100 -50 1525 -50 
Q 1000 -50 625 275 
Q 250 600 250 1025 
Q 250 1450 462 1750 
Q 675 2050 1075 2275 
Q 725 2450 537 2712 
Q 350 2975 350 3300 
Q 350 3725 675 4025 
Q 1000 4325 1575 4325 
Q 2100 4325 2425 4025 
Q 2750 3725 2750 3300 
Q 2750 3000 2562 2737 
Q 2375 2475 1975 2275 
Q 2400 2025 2600 1725 
Q 2800 1425 2800 1075 
z
M 2400 3275 
Q 2400 3625 2200 3887 
Q 2000 4150 1575 4150 
Q 1100 4150 900 3900 
Q 700 3650 700 3375 
Q 700 3100 987 2837 
Q 1275 2575 1800 2375 
Q 2100 2525 2250 2750 
Q 2400 2975 2400 3275 
z
" transform="scale(0.015625)"/>
       </defs>
       <use xlink:href="#FangSong-38"/>
       <use xlink:href="#FangSong-30" x="50"/>
       <use xlink:href="#FangSong-25" x="100"/>
      </g>
     </g>
    </g>
    <g id="ytick_6">
     <g id="line2d_12">
      <g>
       <use xlink:href="#m47c2e48cb6" x="57.6" y="53.568" style="stroke: #000000; stroke-width: 0.8"/>
      </g>
     </g>
     <g id="text_13">
      <!-- 100% -->
      <g transform="translate(30.6 57.064094)scale(0.1 -0.1)">
       <use xlink:href="#FangSong-31"/>
       <use xlink:href="#FangSong-30" x="50"/>
       <use xlink:href="#FangSong-30" x="100"/>
       <use xlink:href="#FangSong-25" x="150"/>
      </g>
     </g>
    </g>
    <g id="text_14">
     <!-- 累计完成比例 -->
     <g transform="translate(25.154688 204.528)rotate(-90)scale(0.1 -0.1)">
      <defs>
       <path id="FangSong-7d2f" d="M 4525 4975 
L 4700 5225 
L 5000 4950 
L 4825 4775 
L 4625 3550 
L 4850 3300 
L 3175 3150 
L 3375 2975 
Q 3200 2925 2862 2725 
Q 2525 2525 2075 2275 
L 3475 2500 
Q 3750 2675 3900 2800 
Q 4050 2925 4100 3075 
L 4175 3100 
L 4325 2700 
Q 4200 2675 3500 2237 
Q 2800 1800 2275 1550 
L 4375 1825 
L 3900 2175 
L 4000 2275 
Q 4625 1900 4950 1725 
Q 4975 1475 4925 1225 
Q 4800 1375 4500 1675 
L 3250 1475 
L 3525 1300 
Q 3375 1200 3375 875 
L 3375 25 
Q 3375 -325 3225 -625 
Q 2975 -325 2400 150 
L 2450 250 
L 3050 -75 
Q 3150 -125 3150 0 
L 3150 925 
Q 3150 1300 3125 1450 
Q 1875 1275 1575 1175 
L 1325 1425 
L 1850 1550 
Q 2175 1700 3250 2300 
Q 2075 2100 1875 2000 
L 1575 2250 
L 1800 2300 
Q 2150 2475 3025 3125 
L 2000 3025 
Q 2000 2675 1950 2700 
Q 1900 2725 1650 3025 
Q 1725 3250 1725 3425 
L 1650 4400 
Q 1625 4675 1525 4950 
L 1625 5000 
L 1875 4675 
L 4525 4975 
z
M 3150 3375 
L 3150 3875 
Q 2525 3800 2400 3725 
L 2100 3975 
Q 2500 3975 3150 4075 
L 3150 4600 
L 1900 4450 
L 1975 3250 
L 3150 3375 
z
M 3375 4100 
Q 3950 4175 4025 4225 
L 4275 4000 
Q 3950 3975 3375 3900 
L 3375 3400 
L 4400 3500 
L 4575 4750 
L 3375 4600 
L 3375 4100 
z
M 5450 -75 
Q 4975 325 3875 1025 
L 3950 1125 
Q 4850 700 5350 500 
Q 5425 250 5450 -75 
z
M 800 -250 
Q 1350 75 1825 500 
Q 2300 925 2325 1125 
L 2400 1150 
L 2550 725 
Q 2425 700 2075 425 
Q 1725 150 875 -350 
L 800 -250 
z
" transform="scale(0.015625)"/>
       <path id="FangSong-8ba1" d="M 4075 4200 
Q 4100 4825 3900 5100 
L 3975 5150 
L 4450 4725 
Q 4275 4600 4300 4200 
L 4275 3000 
Q 5525 3200 5575 3250 
L 5950 2950 
Q 5725 2975 4275 2800 
L 4250 -425 
Q 4250 -700 4150 -575 
L 3875 -150 
Q 4050 50 4025 300 
L 4050 2750 
Q 2975 2625 2900 2575 
L 2525 2825 
Q 2850 2825 4050 2975 
L 4075 4200 
z
M 1775 3250 
L 2100 2950 
L 1900 2750 
L 1875 550 
L 2825 1250 
L 2875 1175 
Q 1875 250 1750 -25 
L 1525 275 
Q 1625 375 1650 625 
L 1675 2775 
Q 900 2625 750 2550 
L 425 2800 
Q 850 2825 1650 3000 
L 1775 3250 
z
M 2025 3800 
Q 1825 4300 1325 4950 
L 1375 5025 
Q 1925 4575 2175 4300 
Q 2125 4000 2025 3800 
z
" transform="scale(0.015625)"/>
       <path id="FangSong-5b8c" d="M 5375 2050 
Q 4925 2050 3550 1950 
L 3850 1750 
Q 3725 1600 3700 1375 
L 3675 275 
Q 3650 -125 4075 -175 
L 4925 -175 
Q 5300 -150 5312 62 
Q 5325 275 5325 1025 
L 5425 1025 
Q 5450 750 5475 337 
Q 5500 -75 5700 -275 
Q 5400 -375 5000 -400 
L 4075 -400 
Q 3425 -350 3425 150 
L 3475 1450 
Q 3475 1775 3425 1925 
L 2675 1850 
L 2875 1650 
Q 2750 1550 2600 1200 
Q 2450 850 2025 312 
Q 1600 -225 600 -675 
L 550 -575 
Q 1525 -100 1987 625 
Q 2450 1350 2525 1850 
Q 1550 1775 1500 1725 
L 1150 2025 
Q 1625 2025 3212 2150 
Q 4800 2275 5000 2350 
L 5375 2050 
z
M 1650 3650 
Q 1550 3125 1325 2875 
L 1150 3250 
Q 1450 3425 1575 4400 
L 1675 4400 
L 1675 3900 
L 5025 4150 
L 5175 4400 
L 5525 4075 
Q 5375 4050 4725 3250 
L 4650 3325 
L 4975 3900 
L 1650 3650 
z
M 4475 2975 
Q 4225 2975 3412 2875 
Q 2600 2775 2400 2725 
L 2050 2975 
Q 2575 2975 3200 3075 
Q 3825 3175 4150 3225 
L 4475 2975 
z
M 3550 4575 
Q 3475 4350 3300 4150 
Q 3225 4475 2900 5200 
L 2975 5250 
Q 3350 4825 3550 4575 
z
" transform="scale(0.015625)"/>
       <path id="FangSong-6210" d="M 5575 975 
Q 5600 -150 5750 -625 
Q 4650 -225 4000 1075 
Q 3625 650 2975 225 
L 2925 325 
Q 3525 825 3900 1300 
Q 3600 2275 3500 3300 
L 1875 3125 
Q 1875 2625 1825 2100 
L 2725 2250 
L 2875 2475 
L 3175 2225 
L 3000 2050 
Q 2850 475 2575 -125 
Q 2225 400 1825 775 
L 1875 850 
L 2475 400 
Q 2650 875 2750 2000 
L 1825 1850 
Q 1675 250 600 -650 
L 525 -600 
Q 1250 250 1425 987 
Q 1600 1725 1625 2612 
Q 1650 3500 1550 3800 
L 1625 3825 
L 1850 3350 
L 3450 3525 
Q 3400 4150 3375 4562 
Q 3350 4975 3225 5200 
L 3275 5225 
L 3725 4900 
Q 3625 4925 3637 4575 
Q 3650 4225 3675 3550 
Q 4900 3700 5050 3775 
L 5325 3475 
Q 4775 3475 3725 3325 
Q 3775 2425 4075 1525 
Q 4500 2025 4687 2325 
Q 4875 2625 4800 2850 
L 4875 2875 
L 5125 2325 
Q 5075 2400 4850 2125 
Q 4625 1850 4150 1275 
Q 4625 225 5425 -125 
L 5475 975 
L 5575 975 
z
M 4100 5000 
Q 4525 4700 4875 4450 
Q 4825 4250 4750 4025 
Q 4400 4525 4025 4950 
L 4100 5000 
z
" transform="scale(0.015625)"/>
       <path id="FangSong-4f8b" d="M 3050 2000 
Q 3025 1800 2975 1600 
Q 2775 1900 2525 2250 
Q 2300 1875 2025 1550 
L 1925 1625 
Q 2675 2725 2975 3975 
Q 2475 3925 2375 3875 
L 2050 4125 
Q 2375 4125 3162 4225 
Q 3950 4325 4100 4450 
L 4350 4125 
Q 4050 4150 3100 3975 
L 3300 3700 
Q 3200 3675 3125 3525 
Q 3050 3375 2925 3050 
L 3625 3150 
L 3775 3350 
L 4050 3075 
L 3875 2900 
Q 3300 825 1850 -225 
L 1800 -100 
Q 3100 975 3625 2900 
Q 3150 2825 3025 2775 
L 2875 2925 
Q 2775 2675 2575 2350 
Q 2900 2125 3050 2000 
z
M 1275 -150 
Q 1425 25 1400 225 
L 1450 3425 
Q 1025 2800 475 2225 
L 400 2325 
Q 875 2850 1450 3887 
Q 2025 4925 1925 5150 
L 2000 5175 
L 2250 4700 
Q 2200 4725 2062 4475 
Q 1925 4225 1675 3800 
L 1625 -325 
Q 1650 -675 1525 -600 
L 1275 -150 
z
M 5475 250 
Q 5475 -300 5300 -650 
Q 4900 -100 4300 375 
L 4350 475 
L 5200 -75 
Q 5250 250 5250 575 
L 5250 4350 
Q 5275 4950 5100 5150 
L 5175 5225 
L 5600 4850 
Q 5450 4775 5475 4325 
L 5475 250 
z
M 4300 1525 
Q 4400 1650 4400 1900 
L 4400 3075 
Q 4425 3525 4300 3750 
L 4350 3800 
L 4725 3450 
Q 4600 3350 4625 3025 
L 4625 1375 
Q 4625 1050 4550 1125 
L 4300 1525 
z
" transform="scale(0.015625)"/>
      </defs>
      <use xlink:href="#FangSong-7d2f"/>
      <use xlink:href="#FangSong-8ba1" x="100"/>
      <use xlink:href="#FangSong-5b8c" x="200"/>
      <use xlink:href="#FangSong-6210" x="300"/>
      <use xlink:href="#FangSong-6bd4" x="400"/>
      <use xlink:href="#FangSong-4f8b" x="500"/>
     </g>
    </g>
   </g>
   <g id="line2d_13">
    <path d="M 73.832727 295.488 
L 74.463124 291.61728 
L 75.093522 289.92384 
L 76.354316 279.52128 
L 77.61511 264.28032 
L 78.245508 260.65152 
L 78.875905 257.9904 
L 79.506302 253.152 
L 80.136699 250.7328 
L 80.767096 247.58784 
L 81.397493 242.99136 
L 83.288685 234.52416 
L 83.919082 232.83072 
L 85.179876 230.41152 
L 85.810274 227.7504 
L 87.071068 223.39584 
L 87.701465 222.42816 
L 88.962259 220.97664 
L 89.592657 219.52512 
L 90.223054 215.41248 
L 90.853451 212.75136 
L 91.483848 211.54176 
L 92.114245 208.88064 
L 92.744643 206.70336 
L 94.005437 201.62304 
L 94.635834 199.9296 
L 95.896628 194.84928 
L 96.527026 193.8816 
L 97.78782 192.91392 
L 98.418217 192.18816 
L 99.679011 190.2528 
L 100.309409 189.0432 
L 100.939806 186.86592 
L 101.570203 185.17248 
L 102.2006 183.96288 
L 102.830997 181.54368 
L 103.461395 180.81792 
L 104.722189 176.70528 
L 105.352586 175.7376 
L 105.982983 175.25376 
L 106.61338 173.80224 
L 107.243778 172.83456 
L 108.504572 170.41536 
L 109.134969 169.6896 
L 109.765366 168.48 
L 110.395763 167.02848 
L 111.026161 166.30272 
L 111.656558 166.0608 
L 112.917352 164.12544 
L 113.547749 163.6416 
L 114.178147 162.432 
L 114.808544 161.70624 
L 115.438941 160.73856 
L 116.069338 158.8032 
L 116.699735 157.83552 
L 117.96053 155.41632 
L 118.590927 154.69056 
L 119.221324 152.99712 
L 119.851721 152.7552 
L 121.112515 151.30368 
L 121.742913 150.336 
L 122.37331 148.40064 
L 123.003707 147.43296 
L 123.634104 146.7072 
L 124.264501 146.46528 
L 124.894898 145.98144 
L 125.525296 145.25568 
L 126.155693 144.77184 
L 127.416487 144.288 
L 128.046884 143.80416 
L 128.677282 143.0784 
L 129.307679 141.8688 
L 130.568473 138.96576 
L 131.19887 137.99808 
L 131.829267 136.30464 
L 132.459665 135.33696 
L 133.720459 133.88544 
L 134.350856 132.91776 
L 136.872445 130.9824 
L 137.502842 130.01472 
L 138.763636 130.01472 
L 140.024431 128.5632 
L 140.654828 127.3536 
L 142.546019 125.90208 
L 143.176417 124.69248 
L 143.806814 124.20864 
L 144.437211 123.96672 
L 145.698005 122.99904 
L 146.328402 122.75712 
L 147.589197 121.3056 
L 148.219594 120.82176 
L 148.849991 120.57984 
L 150.110786 119.12832 
L 150.741183 117.91872 
L 151.37158 117.43488 
L 152.001977 117.19296 
L 153.262771 116.22528 
L 153.893169 115.98336 
L 154.523566 114.77376 
L 155.153963 113.80608 
L 155.78436 113.08032 
L 156.414757 112.59648 
L 157.675552 110.66112 
L 158.305949 109.93536 
L 158.936346 109.45152 
L 159.566743 109.45152 
L 160.19714 108.48384 
L 160.827538 108.48384 
L 161.457935 108.24192 
L 162.088332 107.27424 
L 162.718729 106.7904 
L 163.349126 106.7904 
L 163.979523 106.30656 
L 164.609921 106.06464 
L 165.240318 105.33888 
L 165.870715 105.33888 
L 166.501112 104.85504 
L 167.131509 103.64544 
L 167.761906 103.1616 
L 168.392304 102.91968 
L 170.913892 100.98432 
L 172.174687 100.50048 
L 172.805084 99.29088 
L 173.435481 99.29088 
L 174.065878 98.80704 
L 175.326673 98.80704 
L 175.95707 98.3232 
L 176.587467 98.08128 
L 177.217864 98.08128 
L 177.848261 97.35552 
L 178.478658 96.38784 
L 179.109056 95.66208 
L 179.739453 95.17824 
L 180.36985 94.45248 
L 181.000247 93.96864 
L 181.630644 93.96864 
L 182.261041 93.72672 
L 182.891439 93.00096 
L 184.152233 93.00096 
L 184.78263 92.75904 
L 185.413027 92.75904 
L 186.043425 92.51712 
L 187.304219 92.51712 
L 187.934616 91.79136 
L 188.565013 91.54944 
L 190.456205 91.54944 
L 191.086602 91.0656 
L 192.347396 90.58176 
L 192.977793 89.856 
L 194.238588 88.88832 
L 194.868985 88.16256 
L 195.499382 87.92064 
L 196.129779 87.92064 
L 197.390574 87.4368 
L 198.020971 86.95296 
L 198.651368 86.95296 
L 199.912162 86.46912 
L 200.54256 86.46912 
L 201.172957 85.98528 
L 201.803354 85.25952 
L 202.433751 84.77568 
L 203.064148 84.53376 
L 204.324943 84.53376 
L 204.95534 84.29184 
L 205.585737 84.29184 
L 206.216134 84.04992 
L 206.846531 84.04992 
L 208.737723 83.32416 
L 212.520106 83.32416 
L 213.7809 82.84032 
L 214.411297 82.84032 
L 216.302489 82.11456 
L 220.715269 82.11456 
L 221.345666 81.63072 
L 223.867255 81.63072 
L 224.497652 81.3888 
L 225.128049 81.3888 
L 226.388844 80.90496 
L 228.910432 80.90496 
L 230.171227 80.42112 
L 230.801624 80.42112 
L 231.432021 80.1792 
L 232.062418 80.1792 
L 232.692816 79.93728 
L 233.323213 79.45344 
L 233.95361 79.21152 
L 236.475199 79.21152 
L 237.105596 78.9696 
L 238.36639 78.9696 
L 239.627184 78.48576 
L 242.148773 78.48576 
L 242.77917 78.24384 
L 248.452745 78.24384 
L 249.083142 78.00192 
L 251.604731 78.00192 
L 252.235128 77.51808 
L 253.495922 77.51808 
L 254.12632 77.27616 
L 254.756717 77.27616 
L 256.017511 76.79232 
L 257.908703 76.79232 
L 258.5391 76.30848 
L 259.169497 76.06656 
L 261.060688 76.06656 
L 261.691086 75.58272 
L 262.321483 75.58272 
L 263.582277 75.09888 
L 276.820618 75.09888 
L 277.451015 74.85696 
L 278.081412 74.37312 
L 279.972604 74.37312 
L 281.233398 73.88928 
L 285.646178 73.88928 
L 286.276575 73.64736 
L 293.841342 73.64736 
L 294.471739 73.40544 
L 296.993327 73.40544 
L 298.884519 72.67968 
L 300.145313 72.67968 
L 300.775711 72.43776 
L 304.558094 72.43776 
L 305.188491 72.19584 
L 310.231668 72.19584 
L 310.862065 71.95392 
L 315.274846 71.95392 
L 315.905243 71.47008 
L 322.209214 71.47008 
L 322.839612 70.98624 
L 324.100406 70.98624 
L 324.730803 70.74432 
L 329.773981 70.74432 
L 331.034775 70.26048 
L 333.556364 70.26048 
L 334.186761 70.01856 
L 337.969144 70.01856 
L 338.599541 69.77664 
L 345.53391 69.77664 
L 346.164307 69.53472 
L 348.685896 69.53472 
L 349.316293 68.80896 
L 350.577087 68.32512 
L 351.207485 68.32512 
L 351.837882 68.0832 
L 352.468279 68.0832 
L 353.729073 67.59936 
L 354.35947 66.8736 
L 356.250662 66.8736 
L 356.881059 66.38976 
L 357.511456 66.38976 
L 358.141853 66.14784 
L 361.924237 66.14784 
L 362.554634 65.90592 
L 363.185031 65.90592 
L 363.815428 65.664 
L 364.445825 65.664 
L 366.337017 64.93824 
L 366.967414 64.93824 
L 367.597811 64.69632 
L 368.228208 64.69632 
L 369.489003 64.21248 
L 370.1194 63.72864 
L 371.380194 63.72864 
L 372.640989 63.2448 
L 373.271386 62.0352 
L 373.901783 61.55136 
L 374.53218 61.30944 
L 375.162577 61.30944 
L 376.423372 60.8256 
L 377.684166 60.8256 
L 378.314563 60.09984 
L 378.94496 59.85792 
L 379.575357 59.37408 
L 380.205755 59.37408 
L 380.836152 59.13216 
L 382.096946 59.13216 
L 382.727343 58.64832 
L 383.988138 58.64832 
L 385.879329 57.92256 
L 386.509726 57.92256 
L 387.140124 57.68064 
L 387.770521 57.68064 
L 388.400918 56.95488 
L 389.031315 56.71296 
L 389.661712 55.9872 
L 390.292109 55.74528 
L 390.922507 55.01952 
L 393.444095 55.01952 
L 394.074492 54.7776 
L 395.335287 54.7776 
L 395.965684 54.29376 
L 396.596081 54.05184 
L 397.226478 54.05184 
L 398.487273 53.568 
L 398.487273 53.568 
" clip-path="url(#pb661a4fb77)" style="fill: none; stroke: #ff0000; stroke-linecap: square"/>
   </g>
   <g id="line2d_14">
    <path d="M 73.832727 295.488 
L 74.463124 283.782194 
L 75.093522 279.099871 
L 76.354316 245.543226 
L 77.61511 197.159226 
L 78.245508 185.453419 
L 78.875905 177.649548 
L 79.506302 165.163355 
L 80.136699 158.139871 
L 80.767096 147.994839 
L 81.397493 135.508645 
L 82.658288 116.779355 
L 83.288685 110.536258 
L 83.919082 107.41471 
L 84.549479 105.853935 
L 85.179876 105.073548 
L 85.810274 99.610839 
L 86.440671 98.050065 
L 87.071068 94.148129 
L 87.701465 91.026581 
L 88.331862 89.465806 
L 88.962259 89.465806 
L 89.592657 87.124645 
L 90.223054 82.442323 
L 90.853451 80.101161 
L 91.483848 76.979613 
L 92.114245 76.199226 
L 94.005437 69.175742 
L 95.266231 66.054194 
L 96.527026 66.054194 
L 97.157423 65.273806 
L 99.679011 65.273806 
L 102.2006 62.152258 
L 102.830997 60.591484 
L 103.461395 59.811097 
L 104.091792 58.250323 
L 104.722189 55.909161 
L 105.982983 55.909161 
L 107.874175 53.568 
L 398.487273 53.568 
L 398.487273 53.568 
" clip-path="url(#pb661a4fb77)" style="fill: none; stroke-dasharray: 1.85,0.8; stroke-dashoffset: 0; stroke: #008000; stroke-width: 0.5"/>
   </g>
   <g id="line2d_15">
    <path d="M 73.832727 295.488 
L 74.463124 294.715093 
L 78.245508 294.715093 
L 78.875905 293.942185 
L 79.506302 291.623463 
L 80.136699 290.850556 
L 80.767096 290.850556 
L 81.397493 288.531834 
L 82.027891 288.531834 
L 82.658288 287.758927 
L 84.549479 283.121482 
L 85.810274 276.938224 
L 86.440671 271.527872 
L 87.071068 268.436243 
L 87.701465 268.436243 
L 88.331862 267.663335 
L 88.962259 265.344613 
L 89.592657 263.798799 
L 90.853451 251.432281 
L 91.483848 250.659374 
L 92.114245 244.476115 
L 92.744643 240.611578 
L 94.005437 230.563783 
L 94.635834 228.245061 
L 95.266231 222.834709 
L 95.896628 215.105636 
L 96.527026 213.559821 
L 97.157423 212.786914 
L 97.78782 211.241099 
L 99.048614 206.603655 
L 99.679011 203.512026 
L 100.309409 201.966211 
L 101.570203 194.237137 
L 102.2006 191.918415 
L 102.830997 188.053879 
L 103.461395 186.508064 
L 104.091792 183.416435 
L 104.722189 178.77899 
L 105.982983 175.687361 
L 106.61338 173.368639 
L 107.243778 172.595732 
L 107.874175 171.049917 
L 108.504572 168.731195 
L 109.134969 167.958288 
L 109.765366 165.639565 
L 110.395763 164.866658 
L 111.026161 163.320843 
L 111.656558 162.547936 
L 112.286955 160.229214 
L 113.547749 158.683399 
L 114.808544 155.59177 
L 115.438941 152.500141 
L 116.069338 150.181419 
L 118.590927 147.089789 
L 119.221324 144.771067 
L 119.851721 144.771067 
L 121.742913 142.452345 
L 122.37331 140.90653 
L 123.003707 140.90653 
L 123.634104 140.133623 
L 124.894898 140.133623 
L 125.525296 139.360716 
L 126.155693 139.360716 
L 126.78609 138.587808 
L 128.046884 138.587808 
L 128.677282 137.041994 
L 129.307679 137.041994 
L 129.938076 135.496179 
L 130.568473 134.723272 
L 131.19887 133.177457 
L 132.459665 131.631642 
L 133.720459 131.631642 
L 134.350856 130.858735 
L 136.872445 130.858735 
L 137.502842 130.085827 
L 138.763636 130.085827 
L 140.024431 128.540013 
L 142.546019 128.540013 
L 143.176417 127.767105 
L 146.328402 127.767105 
L 146.9588 126.994198 
L 150.110786 126.994198 
L 150.741183 125.448383 
L 151.37158 124.675476 
L 153.262771 124.675476 
L 153.893169 123.902569 
L 156.414757 123.902569 
L 157.045154 123.129661 
L 158.305949 123.129661 
L 158.936346 122.356754 
L 167.131509 122.356754 
L 167.761906 121.583847 
L 170.913892 121.583847 
L 171.544289 120.810939 
L 178.478658 120.810939 
L 179.109056 119.265125 
L 192.977793 119.265125 
L 193.608191 118.492217 
L 206.846531 118.492217 
L 207.476929 117.71931 
L 228.910432 117.71931 
L 229.54083 116.946403 
L 232.062418 116.946403 
L 233.95361 114.627681 
L 236.475199 114.627681 
L 237.105596 113.854773 
L 238.996787 113.854773 
L 239.627184 113.081866 
L 251.604731 113.081866 
L 252.235128 112.308958 
L 253.495922 112.308958 
L 254.12632 111.536051 
L 257.908703 111.536051 
L 258.5391 110.763144 
L 262.95188 110.763144 
L 263.582277 109.990236 
L 279.972604 109.990236 
L 281.233398 108.444422 
L 293.841342 108.444422 
L 294.471739 107.671514 
L 296.993327 107.671514 
L 297.623725 106.898607 
L 315.274846 106.898607 
L 315.905243 106.1257 
L 324.100406 106.1257 
L 324.730803 105.352792 
L 329.773981 105.352792 
L 330.404378 104.579885 
L 337.969144 104.579885 
L 338.599541 103.806978 
L 345.53391 103.806978 
L 346.164307 103.03407 
L 348.685896 103.03407 
L 349.316293 101.488256 
L 350.577087 99.942441 
L 351.207485 99.942441 
L 351.837882 99.169534 
L 352.468279 99.169534 
L 353.729073 97.623719 
L 354.35947 95.304997 
L 356.250662 95.304997 
L 356.881059 93.759182 
L 357.511456 93.759182 
L 358.141853 92.986275 
L 361.924237 92.986275 
L 362.554634 92.213367 
L 363.185031 92.213367 
L 363.815428 91.44046 
L 364.445825 91.44046 
L 366.337017 89.121738 
L 366.967414 89.121738 
L 367.597811 88.348831 
L 368.228208 88.348831 
L 369.489003 86.803016 
L 370.1194 85.257201 
L 371.380194 85.257201 
L 372.640989 83.711387 
L 373.271386 79.84685 
L 373.901783 78.301035 
L 374.53218 77.528128 
L 375.162577 77.528128 
L 376.423372 75.982313 
L 377.684166 75.982313 
L 378.314563 73.663591 
L 378.94496 72.890684 
L 379.575357 71.344869 
L 380.205755 71.344869 
L 380.836152 70.571962 
L 382.096946 70.571962 
L 382.727343 69.026147 
L 383.988138 69.026147 
L 385.879329 66.707425 
L 386.509726 66.707425 
L 387.140124 65.934518 
L 387.770521 65.934518 
L 388.400918 63.615796 
L 389.031315 62.842888 
L 389.661712 61.297073 
L 390.292109 60.524166 
L 390.922507 58.205444 
L 393.444095 58.205444 
L 394.074492 57.432537 
L 395.335287 57.432537 
L 395.965684 55.886722 
L 396.596081 55.113815 
L 397.226478 55.113815 
L 398.487273 53.568 
L 398.487273 53.568 
" clip-path="url(#pb661a4fb77)" style="fill: none; stroke-dasharray: 1.85,0.8; stroke-dashoffset: 0; stroke: #0000ff; stroke-width: 0.5"/>
   </g>
   <g id="line2d_16">
    <path d="M 73.832727 295.488 
L 74.463124 295.488 
L 75.093522 294.208 
L 76.354316 294.208 
L 76.984713 292.928 
L 83.288685 292.928 
L 84.549479 290.368 
L 91.483848 290.368 
L 92.114245 289.088 
L 92.744643 289.088 
L 93.37504 286.528 
L 95.266231 286.528 
L 96.527026 283.968 
L 99.679011 283.968 
L 102.2006 278.848 
L 102.830997 276.288 
L 104.722189 276.288 
L 105.352586 275.008 
L 105.982983 275.008 
L 106.61338 272.448 
L 110.395763 264.768 
L 111.656558 264.768 
L 112.286955 263.488 
L 112.917352 260.928 
L 113.547749 260.928 
L 114.178147 258.368 
L 114.808544 257.088 
L 115.438941 257.088 
L 116.069338 255.808 
L 116.699735 255.808 
L 118.590927 251.968 
L 119.221324 246.848 
L 121.112515 246.848 
L 121.742913 244.288 
L 122.37331 240.448 
L 126.155693 232.768 
L 127.416487 232.768 
L 128.046884 230.208 
L 128.677282 230.208 
L 130.568473 222.528 
L 131.19887 222.528 
L 131.829267 217.408 
L 132.459665 213.568 
L 133.090062 213.568 
L 134.350856 208.448 
L 134.981253 207.168 
L 135.61165 204.608 
L 136.872445 204.608 
L 137.502842 203.328 
L 139.394034 203.328 
L 141.915622 198.208 
L 142.546019 195.648 
L 145.067608 190.528 
L 145.698005 187.968 
L 146.328402 187.968 
L 146.9588 185.408 
L 147.589197 184.128 
L 148.219594 184.128 
L 149.480388 181.568 
L 150.110786 177.728 
L 150.741183 176.448 
L 151.37158 176.448 
L 152.001977 175.168 
L 153.893169 175.168 
L 154.523566 172.608 
L 155.78436 170.048 
L 158.305949 159.808 
L 159.566743 159.808 
L 160.19714 158.528 
L 160.827538 158.528 
L 162.718729 154.688 
L 163.349126 154.688 
L 163.979523 152.128 
L 164.609921 152.128 
L 165.240318 150.848 
L 166.501112 150.848 
L 167.131509 147.008 
L 169.022701 143.168 
L 169.653098 140.608 
L 170.283495 140.608 
L 170.913892 139.328 
L 171.544289 139.328 
L 172.805084 136.768 
L 175.326673 136.768 
L 176.587467 134.208 
L 177.217864 134.208 
L 177.848261 132.928 
L 178.478658 130.368 
L 179.109056 130.368 
L 179.739453 129.088 
L 181.000247 123.968 
L 181.630644 123.968 
L 182.891439 121.408 
L 184.152233 121.408 
L 184.78263 120.128 
L 185.413027 120.128 
L 186.043425 118.848 
L 190.456205 118.848 
L 192.347396 115.008 
L 192.977793 112.448 
L 193.608191 111.168 
L 194.238588 108.608 
L 194.868985 104.768 
L 195.499382 103.488 
L 196.129779 103.488 
L 196.760177 102.208 
L 198.651368 102.208 
L 199.912162 99.648 
L 200.54256 99.648 
L 201.172957 98.368 
L 201.803354 95.808 
L 203.064148 93.248 
L 204.324943 93.248 
L 204.95534 91.968 
L 205.585737 91.968 
L 206.216134 90.688 
L 207.476929 90.688 
L 208.737723 88.128 
L 212.520106 88.128 
L 213.7809 85.568 
L 214.411297 85.568 
L 215.041695 84.288 
L 220.715269 84.288 
L 221.345666 83.008 
L 223.867255 83.008 
L 224.497652 81.728 
L 225.128049 81.728 
L 226.388844 79.168 
L 230.801624 79.168 
L 231.432021 77.888 
L 232.692816 77.888 
L 233.323213 76.608 
L 238.36639 76.608 
L 238.996787 75.328 
L 242.148773 75.328 
L 242.77917 74.048 
L 251.604731 74.048 
L 252.235128 72.768 
L 254.756717 72.768 
L 256.017511 70.208 
L 257.908703 70.208 
L 259.169497 67.648 
L 262.321483 67.648 
L 262.95188 66.368 
L 277.451015 66.368 
L 278.081412 65.088 
L 297.623725 65.088 
L 298.884519 62.528 
L 300.145313 62.528 
L 300.775711 61.248 
L 304.558094 61.248 
L 305.188491 59.968 
L 315.274846 59.968 
L 315.905243 58.688 
L 322.209214 58.688 
L 322.839612 57.408 
L 333.556364 57.408 
L 334.186761 56.128 
L 348.685896 56.128 
L 349.316293 54.848 
L 389.031315 54.848 
L 389.661712 53.568 
L 398.487273 53.568 
L 398.487273 53.568 
" clip-path="url(#pb661a4fb77)" style="fill: none; stroke-dasharray: 1.85,0.8; stroke-dashoffset: 0; stroke: #bf00bf; stroke-width: 0.5"/>
   </g>
   <g id="line2d_17">
    <path d="M 73.832727 295.488 
L 78.875905 295.488 
L 79.506302 294.201191 
L 88.962259 294.201191 
L 89.592657 292.914383 
L 90.223054 289.053957 
L 91.483848 289.053957 
L 92.744643 286.48034 
L 94.005437 286.48034 
L 94.635834 283.906723 
L 95.266231 282.619915 
L 95.896628 282.619915 
L 96.527026 281.333106 
L 98.418217 281.333106 
L 99.048614 280.046298 
L 99.679011 280.046298 
L 100.309409 278.759489 
L 100.939806 276.185872 
L 102.2006 276.185872 
L 102.830997 274.899064 
L 103.461395 274.899064 
L 104.091792 272.325447 
L 104.722189 272.325447 
L 105.352586 271.038638 
L 106.61338 271.038638 
L 109.765366 264.604596 
L 110.395763 259.457362 
L 111.026161 258.170553 
L 112.286955 258.170553 
L 114.178147 254.310128 
L 115.438941 254.310128 
L 116.069338 249.162894 
L 117.96053 237.581617 
L 118.590927 236.294809 
L 119.221324 236.294809 
L 119.851721 235.008 
L 121.112515 229.860766 
L 121.742913 228.573957 
L 123.003707 220.853106 
L 123.634104 219.566298 
L 124.264501 219.566298 
L 126.155693 215.705872 
L 126.78609 215.705872 
L 127.416487 214.419064 
L 128.046884 214.419064 
L 128.677282 213.132255 
L 129.307679 209.27183 
L 129.938076 206.698213 
L 130.568473 202.837787 
L 131.829267 197.690553 
L 132.459665 197.690553 
L 133.090062 193.830128 
L 134.981253 189.969702 
L 135.61165 189.969702 
L 137.502842 182.248851 
L 138.763636 182.248851 
L 139.394034 179.675234 
L 140.024431 178.388426 
L 140.654828 173.241191 
L 141.915622 170.667574 
L 142.546019 170.667574 
L 143.176417 166.807149 
L 143.806814 165.52034 
L 144.437211 165.52034 
L 145.067608 164.233532 
L 145.698005 164.233532 
L 146.328402 162.946723 
L 146.9588 162.946723 
L 148.219594 157.799489 
L 148.849991 157.799489 
L 149.480388 155.225872 
L 150.110786 155.225872 
L 150.741183 152.652255 
L 151.37158 151.365447 
L 152.001977 151.365447 
L 153.262771 146.218213 
L 153.893169 146.218213 
L 155.153963 138.497362 
L 155.78436 135.923745 
L 156.414757 135.923745 
L 157.045154 134.636936 
L 157.675552 132.063319 
L 158.936346 129.489702 
L 159.566743 129.489702 
L 160.19714 125.629277 
L 161.457935 125.629277 
L 162.088332 121.768851 
L 162.718729 120.482043 
L 163.979523 120.482043 
L 164.609921 119.195234 
L 165.240318 116.621617 
L 165.870715 116.621617 
L 167.131509 111.474383 
L 168.392304 111.474383 
L 169.022701 110.187574 
L 169.653098 110.187574 
L 170.283495 107.613957 
L 170.913892 106.327149 
L 172.174687 106.327149 
L 172.805084 101.179915 
L 173.435481 101.179915 
L 174.065878 98.606298 
L 175.326673 98.606298 
L 175.95707 97.319489 
L 177.217864 97.319489 
L 178.478658 92.172255 
L 180.36985 88.31183 
L 182.261041 88.31183 
L 182.891439 85.738213 
L 187.304219 85.738213 
L 187.934616 81.877787 
L 188.565013 80.590979 
L 190.456205 80.590979 
L 191.086602 79.30417 
L 192.347396 79.30417 
L 192.977793 78.017362 
L 196.760177 78.017362 
L 197.390574 76.730553 
L 198.020971 74.156936 
L 200.54256 74.156936 
L 202.433751 70.296511 
L 215.041695 70.296511 
L 216.302489 67.722894 
L 220.715269 67.722894 
L 221.345666 66.436085 
L 229.54083 66.436085 
L 230.171227 65.149277 
L 248.452745 65.149277 
L 249.083142 63.862468 
L 261.060688 63.862468 
L 261.691086 61.288851 
L 276.820618 61.288851 
L 278.081412 58.715234 
L 285.646178 58.715234 
L 286.276575 57.428426 
L 310.231668 57.428426 
L 310.862065 56.141617 
L 322.209214 56.141617 
L 322.839612 54.854809 
L 330.404378 54.854809 
L 331.034775 53.568 
L 398.487273 53.568 
L 398.487273 53.568 
" clip-path="url(#pb661a4fb77)" style="fill: none; stroke-dasharray: 1.85,0.8; stroke-dashoffset: 0; stroke: #bfbf00; stroke-width: 0.5"/>
   </g>
   <g id="patch_3">
    <path d="M 57.6 307.584 
L 57.6 41.472 
" style="fill: none; stroke: #000000; stroke-width: 0.8; stroke-linejoin: miter; stroke-linecap: square"/>
   </g>
   <g id="patch_4">
    <path d="M 414.72 307.584 
L 414.72 41.472 
" style="fill: none; stroke: #000000; stroke-width: 0.8; stroke-linejoin: miter; stroke-linecap: square"/>
   </g>
   <g id="patch_5">
    <path d="M 57.6 307.584 
L 414.72 307.584 
" style="fill: none; stroke: #000000; stroke-width: 0.8; stroke-linejoin: miter; stroke-linecap: square"/>
   </g>
   <g id="patch_6">
    <path d="M 57.6 41.472 
L 414.72 41.472 
" style="fill: none; stroke: #000000; stroke-width: 0.8; stroke-linejoin: miter; stroke-linecap: square"/>
   </g>
   <g id="text_15">
    <!-- count=1000, googlenet=125, resnet50=75, squeezenetv1=125, vgg19=75 -->
    <g transform="translate(38.16 35.472)scale(0.12 -0.12)">
     <defs>
      <path id="FangSong-63" d="M 2125 2125 
Q 2125 2200 2137 2225 
Q 2150 2250 2175 2325 
Q 2200 2425 2075 2562 
Q 1950 2700 1650 2700 
Q 1275 2700 1012 2337 
Q 750 1975 750 1375 
Q 750 825 975 487 
Q 1200 150 1725 150 
Q 2075 150 2312 375 
Q 2550 600 2650 900 
L 2775 850 
Q 2675 475 2400 212 
Q 2125 -50 1650 -50 
Q 1050 -50 700 325 
Q 350 700 350 1400 
Q 350 2025 725 2437 
Q 1100 2850 1700 2850 
Q 2125 2850 2362 2625 
Q 2600 2400 2600 2175 
Q 2600 2025 2537 1962 
Q 2475 1900 2350 1900 
Q 2250 1900 2187 1962 
Q 2125 2025 2125 2125 
z
" transform="scale(0.015625)"/>
      <path id="FangSong-6f" d="M 2875 1400 
Q 2875 775 2500 362 
Q 2125 -50 1575 -50 
Q 1000 -50 637 375 
Q 275 800 275 1400 
Q 275 1950 637 2400 
Q 1000 2850 1575 2850 
Q 2175 2850 2525 2400 
Q 2875 1950 2875 1400 
z
M 675 1375 
Q 675 725 937 412 
Q 1200 100 1575 100 
Q 2000 100 2237 437 
Q 2475 775 2475 1375 
Q 2475 2025 2212 2362 
Q 1950 2700 1575 2700 
Q 1225 2700 950 2362 
Q 675 2025 675 1375 
z
" transform="scale(0.015625)"/>
      <path id="FangSong-75" d="M 1425 225 
Q 1725 225 1937 375 
Q 2150 525 2250 850 
L 2250 2425 
Q 2250 2525 2200 2587 
Q 2150 2650 2025 2650 
L 1875 2650 
L 1875 2800 
L 2025 2800 
Q 2175 2800 2300 2825 
Q 2425 2850 2550 2950 
L 2600 2950 
L 2600 500 
Q 2600 400 2662 350 
Q 2725 300 2825 300 
L 2975 300 
L 2975 150 
L 2825 150 
Q 2700 150 2575 112 
Q 2450 75 2300 0 
L 2250 0 
L 2250 525 
Q 2125 250 1875 112 
Q 1625 -25 1300 -25 
Q 900 -25 700 200 
Q 500 425 500 925 
L 500 2425 
Q 500 2525 450 2587 
Q 400 2650 275 2650 
L 125 2650 
L 125 2800 
L 275 2800 
Q 425 2800 550 2825 
Q 675 2850 800 2950 
L 850 2950 
L 850 875 
Q 850 525 1000 375 
Q 1150 225 1425 225 
z
" transform="scale(0.015625)"/>
      <path id="FangSong-6e" d="M 175 0 
L 175 150 
L 300 150 
Q 425 150 475 200 
Q 525 250 525 350 
L 525 2500 
Q 525 2575 500 2612 
Q 475 2650 400 2650 
L 200 2650 
L 200 2800 
L 375 2800 
Q 500 2800 612 2825 
Q 725 2850 825 2925 
L 875 2925 
L 875 2350 
Q 1100 2600 1325 2725 
Q 1550 2850 1800 2850 
Q 2225 2850 2425 2625 
Q 2625 2400 2625 1950 
L 2625 350 
Q 2625 250 2687 200 
Q 2750 150 2850 150 
L 2975 150 
L 2975 0 
L 1925 0 
L 1925 150 
L 2050 150 
Q 2175 150 2225 200 
Q 2275 250 2275 350 
L 2275 2025 
Q 2275 2325 2150 2487 
Q 2025 2650 1775 2650 
Q 1550 2650 1312 2500 
Q 1075 2350 875 2075 
L 875 350 
Q 875 250 937 200 
Q 1000 150 1100 150 
L 1225 150 
L 1225 0 
L 175 0 
z
" transform="scale(0.015625)"/>
      <path id="FangSong-74" d="M 1475 800 
Q 1475 450 1600 325 
Q 1725 200 1975 200 
Q 2225 200 2375 362 
Q 2525 525 2575 825 
L 2700 775 
Q 2650 425 2437 200 
Q 2225 -25 1875 -25 
Q 1500 -25 1312 200 
Q 1125 425 1125 900 
L 1125 2650 
L 375 2650 
L 375 2800 
L 575 2800 
Q 875 2800 1062 2987 
Q 1250 3175 1300 3575 
L 1325 3775 
L 1475 3775 
L 1475 2800 
L 2475 2800 
L 2475 2650 
L 1475 2650 
L 1475 800 
z
" transform="scale(0.015625)"/>
      <path id="FangSong-3d" d="M 175 2725 
L 175 2950 
L 2950 2950 
L 2950 2725 
L 175 2725 
z
M 175 1450 
L 175 1675 
L 2950 1675 
L 2950 1450 
L 175 1450 
z
" transform="scale(0.015625)"/>
      <path id="FangSong-2c" d="M 1325 75 
Q 1200 25 1100 75 
Q 1000 125 962 237 
Q 925 350 925 437 
Q 925 525 987 612 
Q 1050 700 1150 737 
Q 1250 775 1425 725 
Q 1600 675 1650 500 
Q 1700 325 1662 150 
Q 1625 -25 1525 -200 
Q 1425 -375 1312 -475 
Q 1200 -575 1025 -675 
L 950 -575 
Q 1100 -450 1187 -312 
Q 1275 -175 1325 75 
z
" transform="scale(0.015625)"/>
      <path id="FangSong-20" transform="scale(0.015625)"/>
      <path id="FangSong-67" d="M 850 1875 
Q 850 1575 1025 1362 
Q 1200 1150 1500 1150 
Q 1825 1150 1987 1337 
Q 2150 1525 2150 1875 
Q 2150 2300 1962 2487 
Q 1775 2675 1500 2675 
Q 1225 2675 1037 2487 
Q 850 2300 850 1875 
z
M 2075 525 
Q 2450 475 2625 312 
Q 2800 150 2800 -125 
Q 2800 -500 2487 -725 
Q 2175 -950 1500 -950 
Q 975 -950 650 -737 
Q 325 -525 325 -250 
Q 325 -75 450 100 
Q 575 275 850 375 
Q 700 450 612 537 
Q 525 625 525 750 
Q 525 900 625 1012 
Q 725 1125 875 1200 
Q 725 1325 612 1500 
Q 500 1675 500 1875 
Q 500 2250 762 2537 
Q 1025 2825 1500 2825 
Q 1700 2825 1887 2775 
Q 2075 2725 2200 2600 
Q 2375 2725 2512 2787 
Q 2650 2850 2750 2850 
Q 2875 2850 2925 2762 
Q 2975 2675 2975 2600 
Q 2975 2500 2937 2437 
Q 2900 2375 2800 2375 
Q 2725 2375 2675 2412 
Q 2625 2450 2600 2525 
Q 2575 2600 2487 2587 
Q 2400 2575 2300 2500 
Q 2400 2400 2450 2225 
Q 2500 2050 2500 1875 
Q 2500 1575 2262 1287 
Q 2025 1000 1500 1000 
Q 1350 1000 1225 1037 
Q 1100 1075 1025 1125 
Q 925 1075 875 1000 
Q 825 925 825 875 
Q 825 775 875 725 
Q 925 675 1025 675 
Q 1350 625 1612 587 
Q 1875 550 2075 525 
z
M 1050 325 
Q 825 225 737 87 
Q 650 -50 650 -250 
Q 650 -450 875 -625 
Q 1100 -800 1550 -800 
Q 1975 -800 2225 -662 
Q 2475 -525 2475 -250 
Q 2475 -75 2412 25 
Q 2350 125 2225 150 
Q 1975 200 1675 237 
Q 1375 275 1050 325 
z
" transform="scale(0.015625)"/>
      <path id="FangSong-6c" d="M 900 4275 
Q 1125 4275 1325 4325 
Q 1525 4375 1700 4475 
L 1750 4475 
L 1750 350 
Q 1750 250 1812 200 
Q 1875 150 1975 150 
L 2550 150 
L 2550 0 
L 600 0 
L 600 150 
L 1175 150 
Q 1300 150 1350 200 
Q 1400 250 1400 350 
L 1400 3925 
Q 1400 4025 1350 4075 
Q 1300 4125 1175 4125 
L 625 4125 
L 625 4275 
L 900 4275 
z
" transform="scale(0.015625)"/>
      <path id="FangSong-65" d="M 2375 1550 
Q 2400 2100 2187 2387 
Q 1975 2675 1625 2675 
Q 1250 2675 1012 2375 
Q 775 2075 775 1550 
L 2375 1550 
z
M 775 1400 
Q 775 725 1037 437 
Q 1300 150 1725 150 
Q 2050 150 2275 337 
Q 2500 525 2600 800 
L 2725 750 
Q 2650 475 2387 212 
Q 2125 -50 1675 -50 
Q 1100 -50 737 325 
Q 375 700 375 1400 
Q 375 2025 737 2437 
Q 1100 2850 1625 2850 
Q 2100 2850 2450 2525 
Q 2800 2200 2800 1400 
L 775 1400 
z
" transform="scale(0.015625)"/>
      <path id="FangSong-72" d="M 1250 2025 
Q 1500 2425 1787 2637 
Q 2075 2850 2375 2850 
Q 2625 2850 2762 2737 
Q 2900 2625 2900 2475 
Q 2900 2350 2837 2275 
Q 2775 2200 2650 2200 
Q 2525 2200 2462 2275 
Q 2400 2350 2425 2475 
Q 2425 2550 2400 2600 
Q 2375 2650 2250 2650 
Q 2050 2650 1762 2400 
Q 1475 2150 1250 1700 
L 1250 350 
Q 1250 250 1312 200 
Q 1375 150 1475 150 
L 2025 150 
L 2025 0 
L 175 0 
L 175 150 
L 675 150 
Q 800 150 850 200 
Q 900 250 900 350 
L 900 2425 
Q 900 2525 850 2587 
Q 800 2650 675 2650 
L 200 2650 
L 200 2800 
L 400 2800 
Q 575 2800 812 2837 
Q 1050 2875 1175 2925 
L 1250 2925 
L 1250 2025 
z
" transform="scale(0.015625)"/>
      <path id="FangSong-73" d="M 600 2075 
Q 600 2450 887 2650 
Q 1175 2850 1575 2850 
Q 1800 2850 2000 2787 
Q 2200 2725 2275 2725 
Q 2350 2725 2400 2750 
Q 2450 2775 2525 2850 
L 2625 2025 
L 2475 2000 
Q 2375 2325 2137 2512 
Q 1900 2700 1600 2700 
Q 1275 2700 1087 2575 
Q 900 2450 900 2225 
Q 900 2025 987 1912 
Q 1075 1800 1300 1750 
Q 1475 1675 1737 1587 
Q 2000 1500 2225 1400 
Q 2425 1300 2562 1137 
Q 2700 975 2700 775 
Q 2700 400 2437 187 
Q 2175 -25 1675 -25 
Q 1350 -25 1187 37 
Q 1025 100 925 100 
Q 850 100 762 62 
Q 675 25 575 -25 
L 500 900 
L 650 925 
Q 725 525 975 325 
Q 1225 125 1675 125 
Q 2025 125 2212 250 
Q 2400 375 2400 625 
Q 2400 800 2300 912 
Q 2200 1025 2100 1075 
Q 1850 1175 1550 1287 
Q 1250 1400 1025 1500 
Q 800 1600 700 1750 
Q 600 1900 600 2075 
z
" transform="scale(0.015625)"/>
      <path id="FangSong-37" d="M 2800 4100 
Q 2275 3250 1962 2437 
Q 1650 1625 1650 1025 
Q 1650 925 1662 737 
Q 1675 550 1675 300 
Q 1675 100 1612 25 
Q 1550 -50 1400 -50 
Q 1275 -50 1187 37 
Q 1100 125 1100 350 
Q 1100 825 1312 1525 
Q 1525 2225 2450 3900 
L 1200 3900 
Q 925 3900 762 3725 
Q 600 3550 525 3200 
L 375 3225 
L 550 4275 
L 2800 4275 
L 2800 4100 
z
" transform="scale(0.015625)"/>
      <path id="FangSong-71" d="M 2250 2150 
Q 2150 2375 1975 2512 
Q 1800 2650 1550 2650 
Q 1200 2650 950 2350 
Q 700 2050 700 1325 
Q 700 700 912 437 
Q 1125 175 1450 175 
Q 1725 175 1937 300 
Q 2150 425 2250 725 
L 2250 2150 
z
M 2600 -550 
Q 2600 -675 2662 -725 
Q 2725 -775 2825 -775 
L 2975 -775 
L 2975 -925 
L 1825 -925 
L 1825 -775 
L 2025 -775 
Q 2150 -775 2200 -725 
Q 2250 -675 2250 -550 
L 2250 375 
Q 2100 175 1887 75 
Q 1675 -25 1375 -25 
Q 950 -25 625 337 
Q 300 700 300 1400 
Q 300 2075 675 2450 
Q 1050 2825 1475 2825 
Q 1750 2825 1937 2725 
Q 2125 2625 2275 2475 
L 2500 2800 
L 2600 2800 
L 2600 -550 
z
" transform="scale(0.015625)"/>
      <path id="FangSong-7a" d="M 2725 975 
L 2550 0 
L 400 0 
L 400 125 
L 2125 2650 
L 1200 2650 
Q 975 2650 825 2487 
Q 675 2325 575 1925 
L 425 1950 
L 525 2800 
L 2575 2800 
L 2575 2725 
L 825 150 
L 1775 150 
Q 2100 150 2287 350 
Q 2475 550 2575 1000 
L 2725 975 
z
" transform="scale(0.015625)"/>
      <path id="FangSong-76" d="M 1600 -25 
L 1450 -25 
L 600 2425 
Q 575 2525 500 2587 
Q 425 2650 325 2650 
L 200 2650 
L 200 2800 
L 1275 2800 
L 1275 2650 
L 1175 2650 
Q 1025 2650 987 2575 
Q 950 2500 1000 2325 
L 1600 575 
L 1650 575 
L 2250 2300 
Q 2325 2475 2262 2562 
Q 2200 2650 2050 2650 
L 2000 2650 
L 2000 2800 
L 2900 2800 
L 2900 2650 
L 2850 2650 
Q 2700 2650 2612 2562 
Q 2525 2475 2450 2300 
L 1600 -25 
z
" transform="scale(0.015625)"/>
      <path id="FangSong-39" d="M 675 2950 
Q 675 2400 887 2112 
Q 1100 1825 1425 1825 
Q 1800 1825 2075 2175 
Q 2350 2525 2350 2825 
Q 2350 3425 2150 3787 
Q 1950 4150 1500 4150 
Q 1075 4150 875 3812 
Q 675 3475 675 2950 
z
M 1350 1600 
Q 850 1600 550 1912 
Q 250 2225 250 2925 
Q 250 3525 575 3925 
Q 900 4325 1500 4325 
Q 2125 4325 2475 3825 
Q 2825 3325 2825 2375 
Q 2825 1325 2412 637 
Q 2000 -50 1275 -50 
Q 950 -50 712 100 
Q 475 250 475 500 
Q 475 600 537 700 
Q 600 800 750 800 
Q 900 800 950 687 
Q 1000 575 1000 425 
Q 1000 325 1025 262 
Q 1050 200 1075 175 
Q 1100 150 1162 137 
Q 1225 125 1300 125 
Q 1750 125 2025 625 
Q 2300 1125 2350 2300 
Q 2225 2000 1975 1800 
Q 1725 1600 1350 1600 
z
" transform="scale(0.015625)"/>
     </defs>
     <use xlink:href="#FangSong-63"/>
     <use xlink:href="#FangSong-6f" x="50"/>
     <use xlink:href="#FangSong-75" x="100"/>
     <use xlink:href="#FangSong-6e" x="150"/>
     <use xlink:href="#FangSong-74" x="200"/>
     <use xlink:href="#FangSong-3d" x="250"/>
     <use xlink:href="#FangSong-31" x="300"/>
     <use xlink:href="#FangSong-30" x="350"/>
     <use xlink:href="#FangSong-30" x="400"/>
     <use xlink:href="#FangSong-30" x="450"/>
     <use xlink:href="#FangSong-2c" x="500"/>
     <use xlink:href="#FangSong-20" x="550"/>
     <use xlink:href="#FangSong-67" x="600"/>
     <use xlink:href="#FangSong-6f" x="650"/>
     <use xlink:href="#FangSong-6f" x="700"/>
     <use xlink:href="#FangSong-67" x="750"/>
     <use xlink:href="#FangSong-6c" x="800"/>
     <use xlink:href="#FangSong-65" x="850"/>
     <use xlink:href="#FangSong-6e" x="900"/>
     <use xlink:href="#FangSong-65" x="950"/>
     <use xlink:href="#FangSong-74" x="1000"/>
     <use xlink:href="#FangSong-3d" x="1050"/>
     <use xlink:href="#FangSong-31" x="1100"/>
     <use xlink:href="#FangSong-32" x="1150"/>
     <use xlink:href="#FangSong-35" x="1200"/>
     <use xlink:href="#FangSong-2c" x="1250"/>
     <use xlink:href="#FangSong-20" x="1300"/>
     <use xlink:href="#FangSong-72" x="1350"/>
     <use xlink:href="#FangSong-65" x="1400"/>
     <use xlink:href="#FangSong-73" x="1450"/>
     <use xlink:href="#FangSong-6e" x="1500"/>
     <use xlink:href="#FangSong-65" x="1550"/>
     <use xlink:href="#FangSong-74" x="1600"/>
     <use xlink:href="#FangSong-35" x="1650"/>
     <use xlink:href="#FangSong-30" x="1700"/>
     <use xlink:href="#FangSong-3d" x="1750"/>
     <use xlink:href="#FangSong-37" x="1800"/>
     <use xlink:href="#FangSong-35" x="1850"/>
     <use xlink:href="#FangSong-2c" x="1900"/>
     <use xlink:href="#FangSong-20" x="1950"/>
     <use xlink:href="#FangSong-73" x="2000"/>
     <use xlink:href="#FangSong-71" x="2050"/>
     <use xlink:href="#FangSong-75" x="2100"/>
     <use xlink:href="#FangSong-65" x="2150"/>
     <use xlink:href="#FangSong-65" x="2200"/>
     <use xlink:href="#FangSong-7a" x="2250"/>
     <use xlink:href="#FangSong-65" x="2300"/>
     <use xlink:href="#FangSong-6e" x="2350"/>
     <use xlink:href="#FangSong-65" x="2400"/>
     <use xlink:href="#FangSong-74" x="2450"/>
     <use xlink:href="#FangSong-76" x="2500"/>
     <use xlink:href="#FangSong-31" x="2550"/>
     <use xlink:href="#FangSong-3d" x="2600"/>
     <use xlink:href="#FangSong-31" x="2650"/>
     <use xlink:href="#FangSong-32" x="2700"/>
     <use xlink:href="#FangSong-35" x="2750"/>
     <use xlink:href="#FangSong-2c" x="2800"/>
     <use xlink:href="#FangSong-20" x="2850"/>
     <use xlink:href="#FangSong-76" x="2900"/>
     <use xlink:href="#FangSong-67" x="2950"/>
     <use xlink:href="#FangSong-67" x="3000"/>
     <use xlink:href="#FangSong-31" x="3050"/>
     <use xlink:href="#FangSong-39" x="3100"/>
     <use xlink:href="#FangSong-3d" x="3150"/>
     <use xlink:href="#FangSong-37" x="3200"/>
     <use xlink:href="#FangSong-35" x="3250"/>
    </g>
   </g>
   <g id="legend_1">
    <g id="patch_7">
     <path d="M 315.72 302.584 
L 407.72 302.584 
Q 409.72 302.584 409.72 300.584 
L 409.72 234.279312 
Q 409.72 232.279312 407.72 232.279312 
L 315.72 232.279312 
Q 313.72 232.279312 313.72 234.279312 
L 313.72 300.584 
Q 313.72 302.584 315.72 302.584 
z
" style="fill: #ffffff; opacity: 0.8; stroke: #cccccc; stroke-linejoin: miter"/>
    </g>
    <g id="line2d_18">
     <path d="M 317.72 239.779312 
L 327.72 239.779312 
L 337.72 239.779312 
" style="fill: none; stroke: #ff0000; stroke-linecap: square"/>
    </g>
    <g id="text_16">
     <!-- total -->
     <g transform="translate(345.72 243.279312)scale(0.1 -0.1)">
      <defs>
       <path id="FangSong-61" d="M 1200 -25 
Q 750 -25 500 187 
Q 250 400 250 675 
Q 250 1125 637 1412 
Q 1025 1700 2175 1825 
L 2175 2125 
Q 2175 2375 2062 2537 
Q 1950 2700 1550 2700 
Q 1125 2700 950 2562 
Q 775 2425 825 2275 
Q 875 2175 825 2075 
Q 775 1975 625 1975 
Q 525 1975 462 2037 
Q 400 2100 400 2225 
Q 400 2450 725 2650 
Q 1050 2850 1525 2850 
Q 2025 2850 2275 2662 
Q 2525 2475 2525 2125 
L 2525 475 
Q 2525 275 2562 237 
Q 2600 200 2700 200 
Q 2825 200 2875 312 
Q 2925 425 2925 625 
L 3050 625 
Q 3050 275 2925 137 
Q 2800 0 2600 0 
Q 2425 0 2325 75 
Q 2225 150 2175 325 
Q 1925 150 1712 62 
Q 1500 -25 1200 -25 
z
M 675 750 
Q 675 525 812 337 
Q 950 150 1250 150 
Q 1475 150 1700 237 
Q 1925 325 2175 500 
L 2175 1675 
Q 1325 1575 1000 1337 
Q 675 1100 675 750 
z
" transform="scale(0.015625)"/>
      </defs>
      <use xlink:href="#FangSong-74"/>
      <use xlink:href="#FangSong-6f" x="50"/>
      <use xlink:href="#FangSong-74" x="100"/>
      <use xlink:href="#FangSong-61" x="150"/>
      <use xlink:href="#FangSong-6c" x="200"/>
     </g>
    </g>
    <g id="line2d_19">
     <path d="M 317.72 253.224625 
L 327.72 253.224625 
L 337.72 253.224625 
" style="fill: none; stroke-dasharray: 1.85,0.8; stroke-dashoffset: 0; stroke: #008000; stroke-width: 0.5"/>
    </g>
    <g id="text_17">
     <!-- vgg19 -->
     <g transform="translate(345.72 256.724625)scale(0.1 -0.1)">
      <use xlink:href="#FangSong-76"/>
      <use xlink:href="#FangSong-67" x="50"/>
      <use xlink:href="#FangSong-67" x="100"/>
      <use xlink:href="#FangSong-31" x="150"/>
      <use xlink:href="#FangSong-39" x="200"/>
     </g>
    </g>
    <g id="line2d_20">
     <path d="M 317.72 266.709 
L 327.72 266.709 
L 337.72 266.709 
" style="fill: none; stroke-dasharray: 1.85,0.8; stroke-dashoffset: 0; stroke: #0000ff; stroke-width: 0.5"/>
    </g>
    <g id="text_18">
     <!-- resnet50 -->
     <g transform="translate(345.72 270.209)scale(0.1 -0.1)">
      <use xlink:href="#FangSong-72"/>
      <use xlink:href="#FangSong-65" x="50"/>
      <use xlink:href="#FangSong-73" x="100"/>
      <use xlink:href="#FangSong-6e" x="150"/>
      <use xlink:href="#FangSong-65" x="200"/>
      <use xlink:href="#FangSong-74" x="250"/>
      <use xlink:href="#FangSong-35" x="300"/>
      <use xlink:href="#FangSong-30" x="350"/>
     </g>
    </g>
    <g id="line2d_21">
     <path d="M 317.72 280.154312 
L 327.72 280.154312 
L 337.72 280.154312 
" style="fill: none; stroke-dasharray: 1.85,0.8; stroke-dashoffset: 0; stroke: #bf00bf; stroke-width: 0.5"/>
    </g>
    <g id="text_19">
     <!-- squeezenetv1 -->
     <g transform="translate(345.72 283.654312)scale(0.1 -0.1)">
      <use xlink:href="#FangSong-73"/>
      <use xlink:href="#FangSong-71" x="50"/>
      <use xlink:href="#FangSong-75" x="100"/>
      <use xlink:href="#FangSong-65" x="150"/>
      <use xlink:href="#FangSong-65" x="200"/>
      <use xlink:href="#FangSong-7a" x="250"/>
      <use xlink:href="#FangSong-65" x="300"/>
      <use xlink:href="#FangSong-6e" x="350"/>
      <use xlink:href="#FangSong-65" x="400"/>
      <use xlink:href="#FangSong-74" x="450"/>
      <use xlink:href="#FangSong-76" x="500"/>
      <use xlink:href="#FangSong-31" x="550"/>
     </g>
    </g>
    <g id="line2d_22">
     <path d="M 317.72 293.599625 
L 327.72 293.599625 
L 337.72 293.599625 
" style="fill: none; stroke-dasharray: 1.85,0.8; stroke-dashoffset: 0; stroke: #bfbf00; stroke-width: 0.5"/>
    </g>
    <g id="text_20">
     <!-- googlenet -->
     <g transform="translate(345.72 297.099625)scale(0.1 -0.1)">
      <use xlink:href="#FangSong-67"/>
      <use xlink:href="#FangSong-6f" x="50"/>
      <use xlink:href="#FangSong-6f" x="100"/>
      <use xlink:href="#FangSong-67" x="150"/>
      <use xlink:href="#FangSong-6c" x="200"/>
      <use xlink:href="#FangSong-65" x="250"/>
      <use xlink:href="#FangSong-6e" x="300"/>
      <use xlink:href="#FangSong-65" x="350"/>
      <use xlink:href="#FangSong-74" x="400"/>
     </g>
    </g>
   </g>
  </g>
 </g>
 <defs>
  <clipPath id="pb661a4fb77">
   <rect x="57.6" y="41.472" width="357.12" height="266.112"/>
  </clipPath>
 </defs>
</svg>
