<?xml version="1.0" encoding="utf-8" standalone="no"?>
<!DOCTYPE svg PUBLIC "-//W3C//DTD SVG 1.1//EN"
  "http://www.w3.org/Graphics/SVG/1.1/DTD/svg11.dtd">
<svg xmlns:xlink="http://www.w3.org/1999/xlink" width="460.8pt" height="345.6pt" viewBox="0 0 460.8 345.6" xmlns="http://www.w3.org/2000/svg" version="1.1">
 <metadata>
  <rdf:RDF xmlns:dc="http://purl.org/dc/elements/1.1/" xmlns:cc="http://creativecommons.org/ns#" xmlns:rdf="http://www.w3.org/1999/02/22-rdf-syntax-ns#">
   <cc:Work>
    <dc:type rdf:resource="http://purl.org/dc/dcmitype/StillImage"/>
    <dc:date>2022-12-24T05:59:13.778551</dc:date>
    <dc:format>image/svg+xml</dc:format>
    <dc:creator>
     <cc:Agent>
      <dc:title>Matplotlib v3.5.2, https://matplotlib.org/</dc:title>
     </cc:Agent>
    </dc:creator>
   </cc:Work>
  </rdf:RDF>
 </metadata>
 <defs>
  <style type="text/css">*{stroke-linejoin: round; stroke-linecap: butt}</style>
 </defs>
 <g id="figure_1">
  <g id="patch_1">
   <path d="M 0 345.6 
L 460.8 345.6 
L 460.8 0 
L 0 0 
z
" style="fill: #ffffff"/>
  </g>
  <g id="axes_1">
   <g id="patch_2">
    <path d="M 57.6 307.584 
L 414.72 307.584 
L 414.72 41.472 
L 57.6 41.472 
z
" style="fill: #ffffff"/>
   </g>
   <g id="patch_3">
    <path d="M 73.832727 307.584 
L 103.346777 307.584 
L 103.346777 252.831319 
L 73.832727 252.831319 
z
" clip-path="url(#p57459a2c20)" style="fill: #ffa500"/>
   </g>
   <g id="patch_4">
    <path d="M 132.860826 307.584 
L 162.374876 307.584 
L 162.374876 188.876031 
L 132.860826 188.876031 
z
" clip-path="url(#p57459a2c20)" style="fill: #ffa500"/>
   </g>
   <g id="patch_5">
    <path d="M 191.888926 307.584 
L 221.402975 307.584 
L 221.402975 142.070855 
L 191.888926 142.070855 
z
" clip-path="url(#p57459a2c20)" style="fill: #ffa500"/>
   </g>
   <g id="patch_6">
    <path d="M 250.917025 307.584 
L 280.431074 307.584 
L 280.431074 254.123559 
L 250.917025 254.123559 
z
" clip-path="url(#p57459a2c20)" style="fill: #ffa500"/>
   </g>
   <g id="patch_7">
    <path d="M 309.945124 307.584 
L 339.459174 307.584 
L 339.459174 54.144 
L 309.945124 54.144 
z
" clip-path="url(#p57459a2c20)" style="fill: #ffa500"/>
   </g>
   <g id="patch_8">
    <path d="M 368.973223 307.584 
L 398.487273 307.584 
L 398.487273 99.735564 
L 368.973223 99.735564 
z
" clip-path="url(#p57459a2c20)" style="fill: #ffa500"/>
   </g>
   <g id="matplotlib.axis_1">
    <g id="xtick_1">
     <g id="line2d_1">
      <defs>
       <path id="ma977d8b6a8" d="M 0 0 
L 0 3.5 
" style="stroke: #000000; stroke-width: 0.8"/>
      </defs>
      <g>
       <use xlink:href="#ma977d8b6a8" x="88.589752" y="307.584" style="stroke: #000000; stroke-width: 0.8"/>
      </g>
     </g>
     <g id="text_1">
      <!-- DLIR -->
      <g transform="translate(78.589752 321.576187)scale(0.1 -0.1)">
       <defs>
        <path id="FangSong-44" d="M 2475 2175 
Q 2475 3250 2150 3687 
Q 1825 4125 1250 4125 
Q 1075 4125 987 4075 
Q 900 4025 900 3925 
L 900 350 
Q 900 250 975 200 
Q 1050 150 1175 150 
Q 1725 150 2100 562 
Q 2475 975 2475 2175 
z
M 500 3925 
Q 500 4025 450 4075 
Q 400 4125 275 4125 
L 125 4125 
L 125 4275 
L 1250 4275 
Q 2025 4275 2487 3775 
Q 2950 3275 2950 2225 
Q 2950 1075 2500 537 
Q 2050 0 1175 0 
L 100 0 
L 100 150 
L 275 150 
Q 400 150 450 200 
Q 500 250 500 350 
L 500 3925 
z
" transform="scale(0.015625)"/>
        <path id="FangSong-4c" d="M 975 350 
Q 975 250 1037 200 
Q 1100 150 1200 150 
L 1875 150 
Q 2225 150 2475 362 
Q 2725 575 2850 1025 
L 2975 975 
L 2750 0 
L 175 0 
L 175 150 
L 350 150 
Q 475 150 525 200 
Q 575 250 575 350 
L 575 3925 
Q 575 4025 525 4075 
Q 475 4125 350 4125 
L 200 4125 
L 200 4275 
L 1375 4275 
L 1375 4125 
L 1200 4125 
Q 1100 4125 1037 4075 
Q 975 4025 975 3925 
L 975 350 
z
" transform="scale(0.015625)"/>
        <path id="FangSong-49" d="M 575 4125 
L 575 4275 
L 2575 4275 
L 2575 4125 
L 2000 4125 
Q 1900 4125 1837 4075 
Q 1775 4025 1775 3925 
L 1775 350 
Q 1775 250 1837 200 
Q 1900 150 2000 150 
L 2575 150 
L 2575 0 
L 575 0 
L 575 150 
L 1150 150 
Q 1275 150 1325 200 
Q 1375 250 1375 350 
L 1375 3925 
Q 1375 4025 1325 4075 
Q 1275 4125 1150 4125 
L 575 4125 
z
" transform="scale(0.015625)"/>
        <path id="FangSong-52" d="M 2800 3275 
Q 2800 2775 2525 2500 
Q 2250 2225 1900 2175 
L 2650 325 
Q 2700 225 2762 187 
Q 2825 150 2900 150 
L 3050 150 
L 3050 0 
L 2350 0 
L 1525 2150 
L 950 2150 
L 950 350 
Q 950 250 1012 200 
Q 1075 150 1175 150 
L 1325 150 
L 1325 0 
L 175 0 
L 175 150 
L 325 150 
Q 450 150 500 200 
Q 550 250 550 350 
L 550 3925 
Q 550 4025 500 4075 
Q 450 4125 325 4125 
L 175 4125 
L 175 4275 
L 1600 4275 
Q 2175 4275 2487 4025 
Q 2800 3775 2800 3275 
z
M 950 2300 
L 1500 2300 
Q 1875 2300 2125 2525 
Q 2375 2750 2375 3225 
Q 2375 3650 2150 3887 
Q 1925 4125 1450 4125 
L 1175 4125 
Q 1075 4125 1012 4075 
Q 950 4025 950 3925 
L 950 2300 
z
" transform="scale(0.015625)"/>
       </defs>
       <use xlink:href="#FangSong-44"/>
       <use xlink:href="#FangSong-4c" x="50"/>
       <use xlink:href="#FangSong-49" x="100"/>
       <use xlink:href="#FangSong-52" x="150"/>
      </g>
     </g>
    </g>
    <g id="xtick_2">
     <g id="line2d_2">
      <g>
       <use xlink:href="#ma977d8b6a8" x="147.617851" y="307.584" style="stroke: #000000; stroke-width: 0.8"/>
      </g>
     </g>
     <g id="text_2">
      <!-- BNST -->
      <g transform="translate(137.617851 321.576187)scale(0.1 -0.1)">
       <defs>
        <path id="FangSong-42" d="M 75 0 
L 75 150 
L 275 150 
Q 400 150 450 200 
Q 500 250 500 350 
L 500 3925 
Q 500 4025 450 4075 
Q 400 4125 275 4125 
L 125 4125 
L 125 4275 
L 1575 4275 
Q 2175 4275 2462 4037 
Q 2750 3800 2750 3300 
Q 2750 2950 2600 2725 
Q 2450 2500 1975 2325 
Q 2550 2150 2750 1825 
Q 2950 1500 2950 1100 
Q 2950 600 2600 300 
Q 2250 0 1650 0 
L 75 0 
z
M 1575 150 
Q 2000 150 2237 412 
Q 2475 675 2475 1150 
Q 2475 1700 2225 1962 
Q 1975 2225 1475 2225 
L 900 2225 
L 900 350 
Q 900 250 962 200 
Q 1025 150 1125 150 
L 1575 150 
z
M 2325 3300 
Q 2325 3750 2075 3937 
Q 1825 4125 1425 4125 
L 1125 4125 
Q 1025 4125 962 4075 
Q 900 4025 900 3925 
L 900 2375 
L 1550 2375 
Q 1825 2375 2075 2600 
Q 2325 2825 2325 3300 
z
" transform="scale(0.015625)"/>
        <path id="FangSong-4e" d="M 2500 1000 
L 2550 1000 
L 2550 3925 
Q 2550 4025 2500 4075 
Q 2450 4125 2325 4125 
L 2125 4125 
L 2125 4275 
L 3125 4275 
L 3125 4125 
L 2925 4125 
Q 2825 4125 2762 4075 
Q 2700 4025 2700 3925 
L 2700 0 
L 2550 0 
L 650 3725 
L 600 3725 
L 600 350 
Q 600 250 662 200 
Q 725 150 825 150 
L 1025 150 
L 1025 0 
L 25 0 
L 25 150 
L 225 150 
Q 350 150 400 200 
Q 450 250 450 350 
L 450 3925 
Q 450 4025 400 4075 
Q 350 4125 225 4125 
L 75 4125 
L 75 4275 
L 800 4275 
L 2500 1000 
z
" transform="scale(0.015625)"/>
        <path id="FangSong-53" d="M 1475 2050 
Q 800 2350 550 2575 
Q 300 2800 300 3275 
Q 300 3650 612 3987 
Q 925 4325 1500 4325 
Q 1750 4325 1975 4237 
Q 2200 4150 2300 4150 
Q 2375 4150 2437 4187 
Q 2500 4225 2550 4325 
L 2650 3300 
L 2525 3250 
Q 2300 3775 2062 3962 
Q 1825 4150 1450 4150 
Q 975 4150 800 3887 
Q 625 3625 625 3325 
Q 625 3050 787 2887 
Q 950 2725 1675 2400 
Q 2275 2150 2537 1837 
Q 2800 1525 2800 1100 
Q 2800 650 2487 300 
Q 2175 -50 1575 -50 
Q 1325 -50 1112 37 
Q 900 125 775 125 
Q 700 125 625 75 
Q 550 25 450 -50 
L 250 1175 
L 400 1225 
Q 575 600 887 362 
Q 1200 125 1600 125 
Q 2025 125 2237 375 
Q 2450 625 2450 1100 
Q 2450 1350 2212 1587 
Q 1975 1825 1475 2050 
z
" transform="scale(0.015625)"/>
        <path id="FangSong-54" d="M 2200 0 
L 900 0 
L 900 150 
L 1125 150 
Q 1250 150 1300 200 
Q 1350 250 1350 350 
L 1350 3850 
Q 1350 4050 1325 4075 
Q 1300 4100 1125 4100 
Q 775 4100 637 3975 
Q 500 3850 300 3300 
L 150 3325 
L 375 4275 
L 2750 4275 
L 2950 3325 
L 2825 3300 
Q 2625 3825 2512 3962 
Q 2400 4100 2050 4100 
Q 1800 4100 1775 4075 
Q 1750 4050 1750 3825 
L 1750 350 
Q 1750 250 1812 200 
Q 1875 150 1975 150 
L 2200 150 
L 2200 0 
z
" transform="scale(0.015625)"/>
       </defs>
       <use xlink:href="#FangSong-42"/>
       <use xlink:href="#FangSong-4e" x="50"/>
       <use xlink:href="#FangSong-53" x="100"/>
       <use xlink:href="#FangSong-54" x="150"/>
      </g>
     </g>
    </g>
    <g id="xtick_3">
     <g id="line2d_3">
      <g>
       <use xlink:href="#ma977d8b6a8" x="206.64595" y="307.584" style="stroke: #000000; stroke-width: 0.8"/>
      </g>
     </g>
     <g id="text_3">
      <!-- FIFO -->
      <g transform="translate(196.64595 321.576187)scale(0.1 -0.1)">
       <defs>
        <path id="FangSong-46" d="M 1325 150 
L 1325 0 
L 125 0 
L 125 150 
L 300 150 
Q 425 150 475 200 
Q 525 250 525 350 
L 525 3925 
Q 525 4025 475 4075 
Q 425 4125 300 4125 
L 150 4125 
L 150 4275 
L 2750 4275 
L 3050 3375 
L 2925 3325 
Q 2725 3725 2450 3925 
Q 2175 4125 1850 4125 
L 1150 4125 
Q 1050 4125 987 4075 
Q 925 4025 925 3925 
L 925 2325 
L 1750 2325 
Q 2000 2325 2112 2437 
Q 2225 2550 2225 2800 
L 2225 2925 
L 2375 2925 
L 2375 1475 
L 2225 1475 
L 2225 1575 
Q 2225 1875 2112 2025 
Q 2000 2175 1750 2175 
L 925 2175 
L 925 350 
Q 925 250 987 200 
Q 1050 150 1150 150 
L 1325 150 
z
" transform="scale(0.015625)"/>
        <path id="FangSong-4f" d="M 675 2150 
Q 675 1075 937 587 
Q 1200 100 1600 100 
Q 2025 100 2275 562 
Q 2525 1025 2525 2150 
Q 2525 3050 2312 3600 
Q 2100 4150 1600 4150 
Q 1175 4150 925 3650 
Q 675 3150 675 2150 
z
M 3000 2150 
Q 3000 1125 2600 537 
Q 2200 -50 1600 -50 
Q 1025 -50 612 550 
Q 200 1150 200 2150 
Q 200 3125 587 3725 
Q 975 4325 1600 4325 
Q 2250 4325 2625 3687 
Q 3000 3050 3000 2150 
z
" transform="scale(0.015625)"/>
       </defs>
       <use xlink:href="#FangSong-46"/>
       <use xlink:href="#FangSong-49" x="50"/>
       <use xlink:href="#FangSong-46" x="100"/>
       <use xlink:href="#FangSong-4f" x="150"/>
      </g>
     </g>
    </g>
    <g id="xtick_4">
     <g id="line2d_4">
      <g>
       <use xlink:href="#ma977d8b6a8" x="265.67405" y="307.584" style="stroke: #000000; stroke-width: 0.8"/>
      </g>
     </g>
     <g id="text_4">
      <!-- OYST -->
      <g transform="translate(255.67405 321.576187)scale(0.1 -0.1)">
       <defs>
        <path id="FangSong-59" d="M 2350 3825 
Q 2375 3975 2312 4050 
Q 2250 4125 2075 4125 
L 2025 4125 
L 2025 4275 
L 3000 4275 
L 3000 4125 
L 2925 4125 
Q 2800 4125 2700 4037 
Q 2600 3950 2525 3775 
L 1750 1800 
L 1750 350 
Q 1750 250 1812 200 
Q 1875 150 1975 150 
L 2200 150 
L 2200 0 
L 900 0 
L 900 150 
L 1125 150 
Q 1250 150 1300 200 
Q 1350 250 1350 350 
L 1350 1650 
L 500 3850 
Q 450 3975 375 4050 
Q 300 4125 175 4125 
L 125 4125 
L 125 4275 
L 1225 4275 
L 1225 4125 
L 1075 4125 
Q 925 4125 900 4050 
Q 875 3975 925 3825 
L 1600 1975 
L 1650 1975 
L 2350 3825 
z
" transform="scale(0.015625)"/>
       </defs>
       <use xlink:href="#FangSong-4f"/>
       <use xlink:href="#FangSong-59" x="50"/>
       <use xlink:href="#FangSong-53" x="100"/>
       <use xlink:href="#FangSong-54" x="150"/>
      </g>
     </g>
    </g>
    <g id="xtick_5">
     <g id="line2d_5">
      <g>
       <use xlink:href="#ma977d8b6a8" x="324.702149" y="307.584" style="stroke: #000000; stroke-width: 0.8"/>
      </g>
     </g>
     <g id="text_5">
      <!-- MPS -->
      <g transform="translate(317.202149 321.576187)scale(0.1 -0.1)">
       <defs>
        <path id="FangSong-4d" d="M 2775 350 
Q 2775 250 2837 200 
Q 2900 150 3000 150 
L 3100 150 
L 3100 0 
L 2025 0 
L 2025 150 
L 2150 150 
Q 2275 150 2325 200 
Q 2375 250 2375 350 
L 2375 3625 
L 2325 3625 
L 1475 0 
L 1325 0 
L 550 3550 
L 500 3550 
L 500 350 
Q 500 250 562 200 
Q 625 150 725 150 
L 800 150 
L 800 0 
L 50 0 
L 50 150 
L 125 150 
Q 250 150 300 200 
Q 350 250 350 350 
L 350 3925 
Q 350 4025 300 4075 
Q 250 4125 125 4125 
L 25 4125 
L 25 4275 
L 750 4275 
L 1475 925 
L 1525 925 
L 2300 4275 
L 3100 4275 
L 3100 4125 
L 3000 4125 
Q 2900 4125 2837 4075 
Q 2775 4025 2775 3925 
L 2775 350 
z
" transform="scale(0.015625)"/>
        <path id="FangSong-50" d="M 925 2000 
L 925 350 
Q 925 250 987 200 
Q 1050 150 1150 150 
L 1325 150 
L 1325 0 
L 125 0 
L 125 150 
L 300 150 
Q 425 150 475 200 
Q 525 250 525 350 
L 525 3925 
Q 525 4025 475 4075 
Q 425 4125 300 4125 
L 150 4125 
L 150 4275 
L 1625 4275 
Q 2250 4275 2587 3962 
Q 2925 3650 2925 3175 
Q 2925 2600 2562 2300 
Q 2200 2000 1700 2000 
L 925 2000 
z
M 1550 2150 
Q 1925 2150 2212 2375 
Q 2500 2600 2500 3150 
Q 2500 3650 2262 3887 
Q 2025 4125 1500 4125 
L 1150 4125 
Q 1050 4125 987 4075 
Q 925 4025 925 3925 
L 925 2150 
L 1550 2150 
z
" transform="scale(0.015625)"/>
       </defs>
       <use xlink:href="#FangSong-4d"/>
       <use xlink:href="#FangSong-50" x="50"/>
       <use xlink:href="#FangSong-53" x="100"/>
      </g>
     </g>
    </g>
    <g id="xtick_6">
     <g id="line2d_6">
      <g>
       <use xlink:href="#ma977d8b6a8" x="383.730248" y="307.584" style="stroke: #000000; stroke-width: 0.8"/>
      </g>
     </g>
     <g id="text_6">
      <!-- PARALLEL -->
      <g transform="translate(363.730248 321.576187)scale(0.1 -0.1)">
       <defs>
        <path id="FangSong-41" d="M 2000 1600 
L 875 1600 
L 650 650 
Q 600 425 650 287 
Q 700 150 875 150 
L 950 150 
L 950 0 
L 25 0 
L 25 150 
L 100 150 
Q 200 150 275 212 
Q 350 275 375 425 
L 1350 4250 
L 1725 4375 
L 2675 425 
Q 2725 275 2800 212 
Q 2875 150 2975 150 
L 3050 150 
L 3050 0 
L 1975 0 
L 1975 150 
L 2075 150 
Q 2225 150 2262 237 
Q 2300 325 2250 500 
L 2000 1600 
z
M 1475 3825 
L 1450 3825 
L 925 1750 
L 1975 1750 
L 1475 3825 
z
" transform="scale(0.015625)"/>
        <path id="FangSong-45" d="M 175 4125 
L 175 4275 
L 2625 4275 
L 2900 3425 
L 2775 3375 
Q 2575 3750 2350 3937 
Q 2125 4125 1850 4125 
L 1150 4125 
Q 1050 4125 987 4075 
Q 925 4025 925 3925 
L 925 2375 
L 1650 2375 
Q 1900 2375 2012 2500 
Q 2125 2625 2125 2875 
L 2125 3025 
L 2275 3025 
L 2275 1550 
L 2125 1550 
L 2125 1650 
Q 2125 1925 2012 2075 
Q 1900 2225 1650 2225 
L 925 2225 
L 925 350 
Q 925 250 987 200 
Q 1050 150 1150 150 
L 1800 150 
Q 2175 150 2437 362 
Q 2700 575 2850 1025 
L 2975 975 
L 2700 0 
L 150 0 
L 150 150 
L 300 150 
Q 425 150 475 200 
Q 525 250 525 350 
L 525 3925 
Q 525 4025 475 4075 
Q 425 4125 300 4125 
L 175 4125 
z
" transform="scale(0.015625)"/>
       </defs>
       <use xlink:href="#FangSong-50"/>
       <use xlink:href="#FangSong-41" x="50"/>
       <use xlink:href="#FangSong-52" x="100"/>
       <use xlink:href="#FangSong-41" x="150"/>
       <use xlink:href="#FangSong-4c" x="200"/>
       <use xlink:href="#FangSong-4c" x="250"/>
       <use xlink:href="#FangSong-45" x="300"/>
       <use xlink:href="#FangSong-4c" x="350"/>
      </g>
     </g>
    </g>
   </g>
   <g id="matplotlib.axis_2">
    <g id="ytick_1">
     <g id="line2d_7">
      <defs>
       <path id="mec68823989" d="M 0 0 
L -3.5 0 
" style="stroke: #000000; stroke-width: 0.8"/>
      </defs>
      <g>
       <use xlink:href="#mec68823989" x="57.6" y="307.584" style="stroke: #000000; stroke-width: 0.8"/>
      </g>
     </g>
     <g id="text_7">
      <!-- 0 -->
      <g transform="translate(45.6 311.080094)scale(0.1 -0.1)">
       <defs>
        <path id="FangSong-30" d="M 1575 4125 
Q 1225 4125 987 3587 
Q 750 3050 750 2150 
Q 750 1200 987 675 
Q 1225 150 1575 150 
Q 1950 150 2162 675 
Q 2375 1200 2375 2150 
Q 2375 3050 2175 3587 
Q 1975 4125 1575 4125 
z
M 1575 -50 
Q 1025 -50 650 525 
Q 275 1100 275 2150 
Q 275 3125 637 3725 
Q 1000 4325 1575 4325 
Q 2125 4325 2487 3750 
Q 2850 3175 2850 2150 
Q 2850 1125 2487 537 
Q 2125 -50 1575 -50 
z
" transform="scale(0.015625)"/>
       </defs>
       <use xlink:href="#FangSong-30"/>
      </g>
     </g>
    </g>
    <g id="ytick_2">
     <g id="line2d_8">
      <g>
       <use xlink:href="#mec68823989" x="57.6" y="272.77289" style="stroke: #000000; stroke-width: 0.8"/>
      </g>
     </g>
     <g id="text_8">
      <!-- 2 -->
      <g transform="translate(45.6 276.268984)scale(0.1 -0.1)">
       <defs>
        <path id="FangSong-32" d="M 2300 3225 
Q 2300 3675 2100 3912 
Q 1900 4150 1500 4150 
Q 1200 4150 987 3987 
Q 775 3825 775 3575 
Q 775 3425 862 3325 
Q 950 3225 950 3125 
Q 950 3000 887 2937 
Q 825 2875 700 2875 
Q 550 2875 462 2962 
Q 375 3050 375 3250 
Q 375 3775 750 4050 
Q 1125 4325 1550 4325 
Q 2150 4325 2437 4025 
Q 2725 3725 2725 3275 
Q 2725 2975 2587 2675 
Q 2450 2375 2150 2100 
Q 1425 1400 1037 962 
Q 650 525 575 375 
L 2050 375 
Q 2275 375 2425 550 
Q 2575 725 2625 1075 
L 2775 1075 
L 2625 0 
L 300 0 
L 300 325 
Q 425 550 712 900 
Q 1000 1250 1475 1725 
Q 1900 2150 2100 2525 
Q 2300 2900 2300 3225 
z
" transform="scale(0.015625)"/>
       </defs>
       <use xlink:href="#FangSong-32"/>
      </g>
     </g>
    </g>
    <g id="ytick_3">
     <g id="line2d_9">
      <g>
       <use xlink:href="#mec68823989" x="57.6" y="237.961781" style="stroke: #000000; stroke-width: 0.8"/>
      </g>
     </g>
     <g id="text_9">
      <!-- 4 -->
      <g transform="translate(45.6 241.457875)scale(0.1 -0.1)">
       <defs>
        <path id="FangSong-34" d="M 2275 475 
Q 2275 300 2375 225 
Q 2475 150 2650 150 
L 2875 150 
L 2875 0 
L 1225 0 
L 1225 150 
L 1500 150 
Q 1700 150 1787 225 
Q 1875 300 1875 475 
L 1875 1300 
L 200 1300 
L 200 1425 
L 2025 4325 
L 2275 4325 
L 2275 1450 
L 2950 1450 
L 2950 1300 
L 2275 1300 
L 2275 475 
z
M 1850 3700 
L 425 1450 
L 1875 1450 
L 1875 3700 
L 1850 3700 
z
" transform="scale(0.015625)"/>
       </defs>
       <use xlink:href="#FangSong-34"/>
      </g>
     </g>
    </g>
    <g id="ytick_4">
     <g id="line2d_10">
      <g>
       <use xlink:href="#mec68823989" x="57.6" y="203.150671" style="stroke: #000000; stroke-width: 0.8"/>
      </g>
     </g>
     <g id="text_10">
      <!-- 6 -->
      <g transform="translate(45.6 206.646765)scale(0.1 -0.1)">
       <defs>
        <path id="FangSong-36" d="M 750 1700 
Q 750 950 1012 537 
Q 1275 125 1650 125 
Q 2025 125 2225 400 
Q 2425 675 2425 1425 
Q 2425 1925 2212 2200 
Q 2000 2475 1700 2475 
Q 1425 2475 1187 2312 
Q 950 2150 750 1700 
z
M 1725 2725 
Q 2325 2725 2587 2325 
Q 2850 1925 2850 1425 
Q 2850 675 2487 312 
Q 2125 -50 1650 -50 
Q 975 -50 625 462 
Q 275 975 275 1950 
Q 275 3100 700 3712 
Q 1125 4325 1850 4325 
Q 2200 4325 2412 4125 
Q 2625 3925 2625 3775 
Q 2625 3625 2562 3550 
Q 2500 3475 2350 3475 
Q 2225 3475 2162 3537 
Q 2100 3600 2100 3725 
Q 2100 3775 2112 3825 
Q 2125 3875 2125 3925 
Q 2125 4025 2050 4087 
Q 1975 4150 1775 4150 
Q 1350 4150 1050 3762 
Q 750 3375 750 2075 
Q 900 2400 1162 2562 
Q 1425 2725 1725 2725 
z
" transform="scale(0.015625)"/>
       </defs>
       <use xlink:href="#FangSong-36"/>
      </g>
     </g>
    </g>
    <g id="ytick_5">
     <g id="line2d_11">
      <g>
       <use xlink:href="#mec68823989" x="57.6" y="168.339562" style="stroke: #000000; stroke-width: 0.8"/>
      </g>
     </g>
     <g id="text_11">
      <!-- 8 -->
      <g transform="translate(45.6 171.835655)scale(0.1 -0.1)">
       <defs>
        <path id="FangSong-38" d="M 600 1025 
Q 600 625 862 375 
Q 1125 125 1525 125 
Q 2000 125 2212 375 
Q 2425 625 2425 1000 
Q 2425 1325 2125 1625 
Q 1825 1925 1225 2175 
Q 925 1975 762 1675 
Q 600 1375 600 1025 
z
M 2800 1075 
Q 2800 600 2450 275 
Q 2100 -50 1525 -50 
Q 1000 -50 625 275 
Q 250 600 250 1025 
Q 250 1450 462 1750 
Q 675 2050 1075 2275 
Q 725 2450 537 2712 
Q 350 2975 350 3300 
Q 350 3725 675 4025 
Q 1000 4325 1575 4325 
Q 2100 4325 2425 4025 
Q 2750 3725 2750 3300 
Q 2750 3000 2562 2737 
Q 2375 2475 1975 2275 
Q 2400 2025 2600 1725 
Q 2800 1425 2800 1075 
z
M 2400 3275 
Q 2400 3625 2200 3887 
Q 2000 4150 1575 4150 
Q 1100 4150 900 3900 
Q 700 3650 700 3375 
Q 700 3100 987 2837 
Q 1275 2575 1800 2375 
Q 2100 2525 2250 2750 
Q 2400 2975 2400 3275 
z
" transform="scale(0.015625)"/>
       </defs>
       <use xlink:href="#FangSong-38"/>
      </g>
     </g>
    </g>
    <g id="ytick_6">
     <g id="line2d_12">
      <g>
       <use xlink:href="#mec68823989" x="57.6" y="133.528452" style="stroke: #000000; stroke-width: 0.8"/>
      </g>
     </g>
     <g id="text_12">
      <!-- 10 -->
      <g transform="translate(40.6 137.024546)scale(0.1 -0.1)">
       <defs>
        <path id="FangSong-31" d="M 1800 4350 
L 1800 550 
Q 1800 350 1925 250 
Q 2050 150 2275 150 
L 2525 150 
L 2525 0 
L 700 0 
L 700 150 
L 925 150 
Q 1175 150 1287 250 
Q 1400 350 1400 550 
L 1400 3575 
Q 1400 3675 1337 3737 
Q 1275 3800 1150 3800 
L 700 3800 
L 700 3950 
L 925 3950 
Q 1225 3950 1412 4050 
Q 1600 4150 1700 4350 
L 1800 4350 
z
" transform="scale(0.015625)"/>
       </defs>
       <use xlink:href="#FangSong-31"/>
       <use xlink:href="#FangSong-30" x="50"/>
      </g>
     </g>
    </g>
    <g id="ytick_7">
     <g id="line2d_13">
      <g>
       <use xlink:href="#mec68823989" x="57.6" y="98.717342" style="stroke: #000000; stroke-width: 0.8"/>
      </g>
     </g>
     <g id="text_13">
      <!-- 12 -->
      <g transform="translate(40.6 102.213436)scale(0.1 -0.1)">
       <use xlink:href="#FangSong-31"/>
       <use xlink:href="#FangSong-32" x="50"/>
      </g>
     </g>
    </g>
    <g id="ytick_8">
     <g id="line2d_14">
      <g>
       <use xlink:href="#mec68823989" x="57.6" y="63.906233" style="stroke: #000000; stroke-width: 0.8"/>
      </g>
     </g>
     <g id="text_14">
      <!-- 14 -->
      <g transform="translate(40.6 67.402327)scale(0.1 -0.1)">
       <use xlink:href="#FangSong-31"/>
       <use xlink:href="#FangSong-34" x="50"/>
      </g>
     </g>
    </g>
    <g id="text_15">
     <!-- 最大响应比-1 -->
     <g transform="translate(35.154688 204.528)rotate(-90)scale(0.1 -0.1)">
      <defs>
       <path id="FangSong-6700" d="M 4925 -325 
Q 5000 -200 4250 750 
Q 3700 25 3025 -450 
Q 3025 -700 2925 -625 
L 2675 -250 
Q 2800 -100 2800 175 
L 2800 775 
Q 1325 150 1175 25 
L 775 275 
Q 1050 300 1575 500 
L 1575 2575 
Q 1025 2525 925 2475 
L 600 2775 
Q 1225 2775 3312 2950 
Q 5400 3125 5425 3200 
L 5750 2925 
Q 5375 2925 3025 2725 
L 3025 1050 
L 3475 1250 
L 3500 1125 
L 3025 875 
L 3025 -300 
Q 3575 150 4075 925 
Q 3925 1150 3737 1387 
Q 3550 1625 3400 1600 
L 3375 1675 
L 3750 1750 
Q 3750 1650 3837 1525 
Q 3925 1400 4175 1125 
Q 4425 1525 4650 2125 
Q 3675 1975 3500 1875 
L 3250 2175 
Q 3600 2175 4625 2350 
L 4800 2575 
L 5150 2325 
L 4950 2150 
Q 4675 1475 4350 925 
Q 4725 450 4862 287 
Q 5000 125 5125 25 
Q 5250 -75 5975 -125 
L 5975 -225 
L 4925 -325 
z
M 4525 5200 
L 4825 4925 
L 4625 4750 
L 4475 3750 
L 4700 3500 
L 2150 3300 
Q 2150 3100 2075 3125 
L 1850 3400 
Q 1950 3500 1925 3700 
L 1925 4550 
Q 1925 4900 1875 5125 
L 1975 5150 
L 2125 4775 
L 4375 4975 
L 4525 5200 
z
M 2150 4075 
L 2150 3550 
L 4250 3725 
L 4400 4750 
L 2150 4550 
L 2150 4150 
Q 2600 4175 3162 4237 
Q 3725 4300 3950 4375 
L 4100 4100 
Q 3825 4100 3300 4050 
Q 2775 4000 2400 3925 
L 2150 4075 
z
M 2800 2650 
L 1800 2575 
L 1800 2100 
Q 2525 2150 2550 2200 
L 2775 1975 
Q 2550 1975 1800 1850 
L 1800 1450 
Q 2375 1500 2475 1550 
L 2750 1350 
Q 2500 1350 1800 1225 
L 1800 600 
L 2800 925 
L 2800 2650 
z
" transform="scale(0.015625)"/>
       <path id="FangSong-5927" d="M 4625 -400 
Q 4650 -300 4287 412 
Q 3925 1125 3175 2675 
Q 2575 450 600 -650 
L 500 -550 
Q 2325 575 2925 2750 
Q 1300 2575 1200 2525 
L 925 2800 
Q 1275 2775 2975 2975 
Q 3125 3850 3162 4437 
Q 3200 5025 3075 5225 
L 3125 5275 
L 3525 4900 
Q 3450 4925 3425 4712 
Q 3400 4500 3362 4150 
Q 3325 3800 3250 3000 
Q 5300 3200 5325 3250 
L 5625 2975 
Q 5350 3000 3300 2775 
Q 4025 1350 4300 850 
Q 4575 350 4800 87 
Q 5025 -175 5925 -200 
L 5925 -325 
L 4625 -400 
z
" transform="scale(0.015625)"/>
       <path id="FangSong-54cd" d="M 2700 -200 
Q 2725 -650 2625 -525 
L 2375 -125 
Q 2500 50 2475 350 
L 2500 3200 
Q 2500 3625 2425 4100 
L 2500 4125 
L 2725 3575 
L 3300 3625 
Q 3550 4225 3675 4637 
Q 3800 5050 3700 5150 
L 3775 5200 
L 4125 4750 
Q 4050 4800 3900 4512 
Q 3750 4225 3500 3650 
L 5275 3850 
L 5425 4125 
L 5725 3850 
L 5575 3650 
Q 5500 -175 5175 -675 
Q 4800 -275 4175 250 
L 4225 350 
L 5050 -175 
Q 5275 525 5325 3625 
L 2725 3325 
L 2700 -200 
z
M 725 3250 
Q 725 3575 625 3925 
L 725 3975 
L 950 3525 
L 1750 3650 
L 1875 3875 
L 2175 3650 
L 2000 3450 
L 1925 2175 
L 2125 1950 
L 1000 1800 
Q 1025 1275 900 1350 
L 650 1750 
Q 775 1850 750 2150 
L 725 3250 
z
M 3550 1250 
Q 3575 950 3500 875 
L 3225 1200 
Q 3300 1350 3300 1525 
L 3275 2325 
Q 3275 2700 3200 2875 
L 3275 2925 
L 3500 2625 
L 4350 2725 
L 4500 2925 
L 4775 2675 
L 4600 2475 
L 4525 1575 
L 4750 1400 
L 3550 1250 
z
M 975 3275 
L 1000 2050 
L 1675 2150 
L 1775 3425 
L 975 3275 
z
M 4350 2475 
L 3500 2375 
L 3525 1500 
L 4275 1575 
L 4350 2475 
z
" transform="scale(0.015625)"/>
       <path id="FangSong-5e94" d="M 1625 4400 
L 1800 3800 
Q 5075 4050 5200 4175 
L 5525 3850 
Q 5200 3900 1825 3550 
Q 1775 2450 1675 1825 
Q 1575 1200 1312 612 
Q 1050 25 500 -600 
L 425 -525 
Q 850 50 1100 675 
Q 1350 1300 1425 1862 
Q 1500 2425 1550 3150 
Q 1600 3875 1550 4375 
L 1625 4400 
z
M 4725 3175 
L 5100 2725 
Q 5000 2800 4750 2112 
Q 4500 1425 4000 150 
Q 5425 225 5400 275 
L 5725 0 
Q 5425 0 3687 -112 
Q 1950 -225 1725 -275 
L 1350 25 
Q 2150 0 3800 125 
Q 4300 1500 4525 2200 
Q 4750 2900 4650 3125 
L 4725 3175 
z
M 2900 1150 
Q 2800 975 2650 725 
Q 2450 1625 2175 2550 
L 2275 2575 
Q 2600 1850 2900 1150 
z
M 3775 1550 
Q 3675 1350 3525 1150 
Q 3475 1600 3075 3050 
L 3150 3075 
Q 3475 2300 3775 1550 
z
M 3500 4100 
Q 3275 4675 3000 5225 
L 3075 5275 
Q 3375 4900 3700 4525 
Q 3600 4325 3500 4100 
z
" transform="scale(0.015625)"/>
       <path id="FangSong-6bd4" d="M 3500 2125 
Q 3925 2425 4487 2975 
Q 5050 3525 4950 3750 
L 5025 3775 
L 5250 3225 
Q 5175 3250 4875 3000 
Q 4575 2750 4287 2525 
Q 4000 2300 3500 1900 
L 3500 575 
Q 3475 -100 4150 -100 
L 4800 -100 
Q 5275 -100 5375 12 
Q 5475 125 5450 1350 
L 5575 1350 
Q 5600 825 5637 412 
Q 5675 0 5800 -175 
Q 5375 -325 4800 -325 
L 4150 -325 
Q 3225 -350 3275 550 
L 3275 4300 
Q 3275 4875 3150 5150 
L 3200 5200 
L 3625 4850 
Q 3475 4825 3500 4250 
L 3500 2125 
z
M 1500 2575 
Q 1900 2625 2337 2712 
Q 2775 2800 2800 2850 
L 3075 2600 
Q 2875 2575 2350 2475 
Q 1825 2375 1775 2325 
L 1500 2525 
L 1500 150 
L 2925 1075 
L 2975 1025 
Q 1550 -75 1375 -350 
L 1200 0 
Q 1275 75 1275 350 
L 1275 3925 
Q 1275 4475 1150 4750 
L 1200 4800 
L 1625 4400 
Q 1475 4375 1500 3925 
L 1500 2575 
z
" transform="scale(0.015625)"/>
       <path id="FangSong-2d" d="M 175 2125 
L 175 2350 
L 2950 2350 
L 2950 2125 
L 175 2125 
z
" transform="scale(0.015625)"/>
      </defs>
      <use xlink:href="#FangSong-6700"/>
      <use xlink:href="#FangSong-5927" x="100"/>
      <use xlink:href="#FangSong-54cd" x="200"/>
      <use xlink:href="#FangSong-5e94" x="300"/>
      <use xlink:href="#FangSong-6bd4" x="400"/>
      <use xlink:href="#FangSong-2d" x="500"/>
      <use xlink:href="#FangSong-31" x="550"/>
     </g>
    </g>
   </g>
   <g id="line2d_15">
    <path d="M 57.6 252.831319 
L 414.72 252.831319 
" clip-path="url(#p57459a2c20)" style="fill: none; stroke-dasharray: 1.85,0.8; stroke-dashoffset: 0; stroke: #ff0000; stroke-width: 0.5"/>
   </g>
   <g id="patch_9">
    <path d="M 57.6 307.584 
L 57.6 41.472 
" style="fill: none; stroke: #000000; stroke-width: 0.8; stroke-linejoin: miter; stroke-linecap: square"/>
   </g>
   <g id="patch_10">
    <path d="M 414.72 307.584 
L 414.72 41.472 
" style="fill: none; stroke: #000000; stroke-width: 0.8; stroke-linejoin: miter; stroke-linecap: square"/>
   </g>
   <g id="patch_11">
    <path d="M 57.6 307.584 
L 414.72 307.584 
" style="fill: none; stroke: #000000; stroke-width: 0.8; stroke-linejoin: miter; stroke-linecap: square"/>
   </g>
   <g id="patch_12">
    <path d="M 57.6 41.472 
L 414.72 41.472 
" style="fill: none; stroke: #000000; stroke-width: 0.8; stroke-linejoin: miter; stroke-linecap: square"/>
   </g>
   <g id="text_16">
    <!-- count=1000, googlenet=200, resnet50=200, squeezenetv1=200, vgg19=200 -->
    <g transform="translate(32.16 35.472)scale(0.12 -0.12)">
     <defs>
      <path id="FangSong-63" d="M 2125 2125 
Q 2125 2200 2137 2225 
Q 2150 2250 2175 2325 
Q 2200 2425 2075 2562 
Q 1950 2700 1650 2700 
Q 1275 2700 1012 2337 
Q 750 1975 750 1375 
Q 750 825 975 487 
Q 1200 150 1725 150 
Q 2075 150 2312 375 
Q 2550 600 2650 900 
L 2775 850 
Q 2675 475 2400 212 
Q 2125 -50 1650 -50 
Q 1050 -50 700 325 
Q 350 700 350 1400 
Q 350 2025 725 2437 
Q 1100 2850 1700 2850 
Q 2125 2850 2362 2625 
Q 2600 2400 2600 2175 
Q 2600 2025 2537 1962 
Q 2475 1900 2350 1900 
Q 2250 1900 2187 1962 
Q 2125 2025 2125 2125 
z
" transform="scale(0.015625)"/>
      <path id="FangSong-6f" d="M 2875 1400 
Q 2875 775 2500 362 
Q 2125 -50 1575 -50 
Q 1000 -50 637 375 
Q 275 800 275 1400 
Q 275 1950 637 2400 
Q 1000 2850 1575 2850 
Q 2175 2850 2525 2400 
Q 2875 1950 2875 1400 
z
M 675 1375 
Q 675 725 937 412 
Q 1200 100 1575 100 
Q 2000 100 2237 437 
Q 2475 775 2475 1375 
Q 2475 2025 2212 2362 
Q 1950 2700 1575 2700 
Q 1225 2700 950 2362 
Q 675 2025 675 1375 
z
" transform="scale(0.015625)"/>
      <path id="FangSong-75" d="M 1425 225 
Q 1725 225 1937 375 
Q 2150 525 2250 850 
L 2250 2425 
Q 2250 2525 2200 2587 
Q 2150 2650 2025 2650 
L 1875 2650 
L 1875 2800 
L 2025 2800 
Q 2175 2800 2300 2825 
Q 2425 2850 2550 2950 
L 2600 2950 
L 2600 500 
Q 2600 400 2662 350 
Q 2725 300 2825 300 
L 2975 300 
L 2975 150 
L 2825 150 
Q 2700 150 2575 112 
Q 2450 75 2300 0 
L 2250 0 
L 2250 525 
Q 2125 250 1875 112 
Q 1625 -25 1300 -25 
Q 900 -25 700 200 
Q 500 425 500 925 
L 500 2425 
Q 500 2525 450 2587 
Q 400 2650 275 2650 
L 125 2650 
L 125 2800 
L 275 2800 
Q 425 2800 550 2825 
Q 675 2850 800 2950 
L 850 2950 
L 850 875 
Q 850 525 1000 375 
Q 1150 225 1425 225 
z
" transform="scale(0.015625)"/>
      <path id="FangSong-6e" d="M 175 0 
L 175 150 
L 300 150 
Q 425 150 475 200 
Q 525 250 525 350 
L 525 2500 
Q 525 2575 500 2612 
Q 475 2650 400 2650 
L 200 2650 
L 200 2800 
L 375 2800 
Q 500 2800 612 2825 
Q 725 2850 825 2925 
L 875 2925 
L 875 2350 
Q 1100 2600 1325 2725 
Q 1550 2850 1800 2850 
Q 2225 2850 2425 2625 
Q 2625 2400 2625 1950 
L 2625 350 
Q 2625 250 2687 200 
Q 2750 150 2850 150 
L 2975 150 
L 2975 0 
L 1925 0 
L 1925 150 
L 2050 150 
Q 2175 150 2225 200 
Q 2275 250 2275 350 
L 2275 2025 
Q 2275 2325 2150 2487 
Q 2025 2650 1775 2650 
Q 1550 2650 1312 2500 
Q 1075 2350 875 2075 
L 875 350 
Q 875 250 937 200 
Q 1000 150 1100 150 
L 1225 150 
L 1225 0 
L 175 0 
z
" transform="scale(0.015625)"/>
      <path id="FangSong-74" d="M 1475 800 
Q 1475 450 1600 325 
Q 1725 200 1975 200 
Q 2225 200 2375 362 
Q 2525 525 2575 825 
L 2700 775 
Q 2650 425 2437 200 
Q 2225 -25 1875 -25 
Q 1500 -25 1312 200 
Q 1125 425 1125 900 
L 1125 2650 
L 375 2650 
L 375 2800 
L 575 2800 
Q 875 2800 1062 2987 
Q 1250 3175 1300 3575 
L 1325 3775 
L 1475 3775 
L 1475 2800 
L 2475 2800 
L 2475 2650 
L 1475 2650 
L 1475 800 
z
" transform="scale(0.015625)"/>
      <path id="FangSong-3d" d="M 175 2725 
L 175 2950 
L 2950 2950 
L 2950 2725 
L 175 2725 
z
M 175 1450 
L 175 1675 
L 2950 1675 
L 2950 1450 
L 175 1450 
z
" transform="scale(0.015625)"/>
      <path id="FangSong-2c" d="M 1325 75 
Q 1200 25 1100 75 
Q 1000 125 962 237 
Q 925 350 925 437 
Q 925 525 987 612 
Q 1050 700 1150 737 
Q 1250 775 1425 725 
Q 1600 675 1650 500 
Q 1700 325 1662 150 
Q 1625 -25 1525 -200 
Q 1425 -375 1312 -475 
Q 1200 -575 1025 -675 
L 950 -575 
Q 1100 -450 1187 -312 
Q 1275 -175 1325 75 
z
" transform="scale(0.015625)"/>
      <path id="FangSong-20" transform="scale(0.015625)"/>
      <path id="FangSong-67" d="M 850 1875 
Q 850 1575 1025 1362 
Q 1200 1150 1500 1150 
Q 1825 1150 1987 1337 
Q 2150 1525 2150 1875 
Q 2150 2300 1962 2487 
Q 1775 2675 1500 2675 
Q 1225 2675 1037 2487 
Q 850 2300 850 1875 
z
M 2075 525 
Q 2450 475 2625 312 
Q 2800 150 2800 -125 
Q 2800 -500 2487 -725 
Q 2175 -950 1500 -950 
Q 975 -950 650 -737 
Q 325 -525 325 -250 
Q 325 -75 450 100 
Q 575 275 850 375 
Q 700 450 612 537 
Q 525 625 525 750 
Q 525 900 625 1012 
Q 725 1125 875 1200 
Q 725 1325 612 1500 
Q 500 1675 500 1875 
Q 500 2250 762 2537 
Q 1025 2825 1500 2825 
Q 1700 2825 1887 2775 
Q 2075 2725 2200 2600 
Q 2375 2725 2512 2787 
Q 2650 2850 2750 2850 
Q 2875 2850 2925 2762 
Q 2975 2675 2975 2600 
Q 2975 2500 2937 2437 
Q 2900 2375 2800 2375 
Q 2725 2375 2675 2412 
Q 2625 2450 2600 2525 
Q 2575 2600 2487 2587 
Q 2400 2575 2300 2500 
Q 2400 2400 2450 2225 
Q 2500 2050 2500 1875 
Q 2500 1575 2262 1287 
Q 2025 1000 1500 1000 
Q 1350 1000 1225 1037 
Q 1100 1075 1025 1125 
Q 925 1075 875 1000 
Q 825 925 825 875 
Q 825 775 875 725 
Q 925 675 1025 675 
Q 1350 625 1612 587 
Q 1875 550 2075 525 
z
M 1050 325 
Q 825 225 737 87 
Q 650 -50 650 -250 
Q 650 -450 875 -625 
Q 1100 -800 1550 -800 
Q 1975 -800 2225 -662 
Q 2475 -525 2475 -250 
Q 2475 -75 2412 25 
Q 2350 125 2225 150 
Q 1975 200 1675 237 
Q 1375 275 1050 325 
z
" transform="scale(0.015625)"/>
      <path id="FangSong-6c" d="M 900 4275 
Q 1125 4275 1325 4325 
Q 1525 4375 1700 4475 
L 1750 4475 
L 1750 350 
Q 1750 250 1812 200 
Q 1875 150 1975 150 
L 2550 150 
L 2550 0 
L 600 0 
L 600 150 
L 1175 150 
Q 1300 150 1350 200 
Q 1400 250 1400 350 
L 1400 3925 
Q 1400 4025 1350 4075 
Q 1300 4125 1175 4125 
L 625 4125 
L 625 4275 
L 900 4275 
z
" transform="scale(0.015625)"/>
      <path id="FangSong-65" d="M 2375 1550 
Q 2400 2100 2187 2387 
Q 1975 2675 1625 2675 
Q 1250 2675 1012 2375 
Q 775 2075 775 1550 
L 2375 1550 
z
M 775 1400 
Q 775 725 1037 437 
Q 1300 150 1725 150 
Q 2050 150 2275 337 
Q 2500 525 2600 800 
L 2725 750 
Q 2650 475 2387 212 
Q 2125 -50 1675 -50 
Q 1100 -50 737 325 
Q 375 700 375 1400 
Q 375 2025 737 2437 
Q 1100 2850 1625 2850 
Q 2100 2850 2450 2525 
Q 2800 2200 2800 1400 
L 775 1400 
z
" transform="scale(0.015625)"/>
      <path id="FangSong-72" d="M 1250 2025 
Q 1500 2425 1787 2637 
Q 2075 2850 2375 2850 
Q 2625 2850 2762 2737 
Q 2900 2625 2900 2475 
Q 2900 2350 2837 2275 
Q 2775 2200 2650 2200 
Q 2525 2200 2462 2275 
Q 2400 2350 2425 2475 
Q 2425 2550 2400 2600 
Q 2375 2650 2250 2650 
Q 2050 2650 1762 2400 
Q 1475 2150 1250 1700 
L 1250 350 
Q 1250 250 1312 200 
Q 1375 150 1475 150 
L 2025 150 
L 2025 0 
L 175 0 
L 175 150 
L 675 150 
Q 800 150 850 200 
Q 900 250 900 350 
L 900 2425 
Q 900 2525 850 2587 
Q 800 2650 675 2650 
L 200 2650 
L 200 2800 
L 400 2800 
Q 575 2800 812 2837 
Q 1050 2875 1175 2925 
L 1250 2925 
L 1250 2025 
z
" transform="scale(0.015625)"/>
      <path id="FangSong-73" d="M 600 2075 
Q 600 2450 887 2650 
Q 1175 2850 1575 2850 
Q 1800 2850 2000 2787 
Q 2200 2725 2275 2725 
Q 2350 2725 2400 2750 
Q 2450 2775 2525 2850 
L 2625 2025 
L 2475 2000 
Q 2375 2325 2137 2512 
Q 1900 2700 1600 2700 
Q 1275 2700 1087 2575 
Q 900 2450 900 2225 
Q 900 2025 987 1912 
Q 1075 1800 1300 1750 
Q 1475 1675 1737 1587 
Q 2000 1500 2225 1400 
Q 2425 1300 2562 1137 
Q 2700 975 2700 775 
Q 2700 400 2437 187 
Q 2175 -25 1675 -25 
Q 1350 -25 1187 37 
Q 1025 100 925 100 
Q 850 100 762 62 
Q 675 25 575 -25 
L 500 900 
L 650 925 
Q 725 525 975 325 
Q 1225 125 1675 125 
Q 2025 125 2212 250 
Q 2400 375 2400 625 
Q 2400 800 2300 912 
Q 2200 1025 2100 1075 
Q 1850 1175 1550 1287 
Q 1250 1400 1025 1500 
Q 800 1600 700 1750 
Q 600 1900 600 2075 
z
" transform="scale(0.015625)"/>
      <path id="FangSong-35" d="M 1700 2750 
Q 2175 2750 2475 2387 
Q 2775 2025 2775 1425 
Q 2775 750 2462 350 
Q 2150 -50 1500 -50 
Q 1050 -50 700 212 
Q 350 475 350 850 
Q 350 1000 437 1112 
Q 525 1225 675 1225 
Q 825 1225 875 1125 
Q 925 1025 925 950 
Q 925 800 850 712 
Q 775 625 775 525 
Q 775 325 1012 225 
Q 1250 125 1525 125 
Q 1925 125 2137 450 
Q 2350 775 2350 1375 
Q 2350 1875 2162 2187 
Q 1975 2500 1600 2500 
Q 1325 2500 1125 2400 
Q 925 2300 750 1975 
L 525 2000 
L 650 4275 
L 2700 4275 
L 2625 3900 
L 825 3900 
L 725 2250 
Q 975 2600 1212 2675 
Q 1450 2750 1700 2750 
z
" transform="scale(0.015625)"/>
      <path id="FangSong-71" d="M 2250 2150 
Q 2150 2375 1975 2512 
Q 1800 2650 1550 2650 
Q 1200 2650 950 2350 
Q 700 2050 700 1325 
Q 700 700 912 437 
Q 1125 175 1450 175 
Q 1725 175 1937 300 
Q 2150 425 2250 725 
L 2250 2150 
z
M 2600 -550 
Q 2600 -675 2662 -725 
Q 2725 -775 2825 -775 
L 2975 -775 
L 2975 -925 
L 1825 -925 
L 1825 -775 
L 2025 -775 
Q 2150 -775 2200 -725 
Q 2250 -675 2250 -550 
L 2250 375 
Q 2100 175 1887 75 
Q 1675 -25 1375 -25 
Q 950 -25 625 337 
Q 300 700 300 1400 
Q 300 2075 675 2450 
Q 1050 2825 1475 2825 
Q 1750 2825 1937 2725 
Q 2125 2625 2275 2475 
L 2500 2800 
L 2600 2800 
L 2600 -550 
z
" transform="scale(0.015625)"/>
      <path id="FangSong-7a" d="M 2725 975 
L 2550 0 
L 400 0 
L 400 125 
L 2125 2650 
L 1200 2650 
Q 975 2650 825 2487 
Q 675 2325 575 1925 
L 425 1950 
L 525 2800 
L 2575 2800 
L 2575 2725 
L 825 150 
L 1775 150 
Q 2100 150 2287 350 
Q 2475 550 2575 1000 
L 2725 975 
z
" transform="scale(0.015625)"/>
      <path id="FangSong-76" d="M 1600 -25 
L 1450 -25 
L 600 2425 
Q 575 2525 500 2587 
Q 425 2650 325 2650 
L 200 2650 
L 200 2800 
L 1275 2800 
L 1275 2650 
L 1175 2650 
Q 1025 2650 987 2575 
Q 950 2500 1000 2325 
L 1600 575 
L 1650 575 
L 2250 2300 
Q 2325 2475 2262 2562 
Q 2200 2650 2050 2650 
L 2000 2650 
L 2000 2800 
L 2900 2800 
L 2900 2650 
L 2850 2650 
Q 2700 2650 2612 2562 
Q 2525 2475 2450 2300 
L 1600 -25 
z
" transform="scale(0.015625)"/>
      <path id="FangSong-39" d="M 675 2950 
Q 675 2400 887 2112 
Q 1100 1825 1425 1825 
Q 1800 1825 2075 2175 
Q 2350 2525 2350 2825 
Q 2350 3425 2150 3787 
Q 1950 4150 1500 4150 
Q 1075 4150 875 3812 
Q 675 3475 675 2950 
z
M 1350 1600 
Q 850 1600 550 1912 
Q 250 2225 250 2925 
Q 250 3525 575 3925 
Q 900 4325 1500 4325 
Q 2125 4325 2475 3825 
Q 2825 3325 2825 2375 
Q 2825 1325 2412 637 
Q 2000 -50 1275 -50 
Q 950 -50 712 100 
Q 475 250 475 500 
Q 475 600 537 700 
Q 600 800 750 800 
Q 900 800 950 687 
Q 1000 575 1000 425 
Q 1000 325 1025 262 
Q 1050 200 1075 175 
Q 1100 150 1162 137 
Q 1225 125 1300 125 
Q 1750 125 2025 625 
Q 2300 1125 2350 2300 
Q 2225 2000 1975 1800 
Q 1725 1600 1350 1600 
z
" transform="scale(0.015625)"/>
     </defs>
     <use xlink:href="#FangSong-63"/>
     <use xlink:href="#FangSong-6f" x="50"/>
     <use xlink:href="#FangSong-75" x="100"/>
     <use xlink:href="#FangSong-6e" x="150"/>
     <use xlink:href="#FangSong-74" x="200"/>
     <use xlink:href="#FangSong-3d" x="250"/>
     <use xlink:href="#FangSong-31" x="300"/>
     <use xlink:href="#FangSong-30" x="350"/>
     <use xlink:href="#FangSong-30" x="400"/>
     <use xlink:href="#FangSong-30" x="450"/>
     <use xlink:href="#FangSong-2c" x="500"/>
     <use xlink:href="#FangSong-20" x="550"/>
     <use xlink:href="#FangSong-67" x="600"/>
     <use xlink:href="#FangSong-6f" x="650"/>
     <use xlink:href="#FangSong-6f" x="700"/>
     <use xlink:href="#FangSong-67" x="750"/>
     <use xlink:href="#FangSong-6c" x="800"/>
     <use xlink:href="#FangSong-65" x="850"/>
     <use xlink:href="#FangSong-6e" x="900"/>
     <use xlink:href="#FangSong-65" x="950"/>
     <use xlink:href="#FangSong-74" x="1000"/>
     <use xlink:href="#FangSong-3d" x="1050"/>
     <use xlink:href="#FangSong-32" x="1100"/>
     <use xlink:href="#FangSong-30" x="1150"/>
     <use xlink:href="#FangSong-30" x="1200"/>
     <use xlink:href="#FangSong-2c" x="1250"/>
     <use xlink:href="#FangSong-20" x="1300"/>
     <use xlink:href="#FangSong-72" x="1350"/>
     <use xlink:href="#FangSong-65" x="1400"/>
     <use xlink:href="#FangSong-73" x="1450"/>
     <use xlink:href="#FangSong-6e" x="1500"/>
     <use xlink:href="#FangSong-65" x="1550"/>
     <use xlink:href="#FangSong-74" x="1600"/>
     <use xlink:href="#FangSong-35" x="1650"/>
     <use xlink:href="#FangSong-30" x="1700"/>
     <use xlink:href="#FangSong-3d" x="1750"/>
     <use xlink:href="#FangSong-32" x="1800"/>
     <use xlink:href="#FangSong-30" x="1850"/>
     <use xlink:href="#FangSong-30" x="1900"/>
     <use xlink:href="#FangSong-2c" x="1950"/>
     <use xlink:href="#FangSong-20" x="2000"/>
     <use xlink:href="#FangSong-73" x="2050"/>
     <use xlink:href="#FangSong-71" x="2100"/>
     <use xlink:href="#FangSong-75" x="2150"/>
     <use xlink:href="#FangSong-65" x="2200"/>
     <use xlink:href="#FangSong-65" x="2250"/>
     <use xlink:href="#FangSong-7a" x="2300"/>
     <use xlink:href="#FangSong-65" x="2350"/>
     <use xlink:href="#FangSong-6e" x="2400"/>
     <use xlink:href="#FangSong-65" x="2450"/>
     <use xlink:href="#FangSong-74" x="2500"/>
     <use xlink:href="#FangSong-76" x="2550"/>
     <use xlink:href="#FangSong-31" x="2600"/>
     <use xlink:href="#FangSong-3d" x="2650"/>
     <use xlink:href="#FangSong-32" x="2700"/>
     <use xlink:href="#FangSong-30" x="2750"/>
     <use xlink:href="#FangSong-30" x="2800"/>
     <use xlink:href="#FangSong-2c" x="2850"/>
     <use xlink:href="#FangSong-20" x="2900"/>
     <use xlink:href="#FangSong-76" x="2950"/>
     <use xlink:href="#FangSong-67" x="3000"/>
     <use xlink:href="#FangSong-67" x="3050"/>
     <use xlink:href="#FangSong-31" x="3100"/>
     <use xlink:href="#FangSong-39" x="3150"/>
     <use xlink:href="#FangSong-3d" x="3200"/>
     <use xlink:href="#FangSong-32" x="3250"/>
     <use xlink:href="#FangSong-30" x="3300"/>
     <use xlink:href="#FangSong-30" x="3350"/>
    </g>
   </g>
  </g>
 </g>
 <defs>
  <clipPath id="p57459a2c20">
   <rect x="57.6" y="41.472" width="357.12" height="266.112"/>
  </clipPath>
 </defs>
</svg>
