<?xml version="1.0" encoding="utf-8" standalone="no"?>
<!DOCTYPE svg PUBLIC "-//W3C//DTD SVG 1.1//EN"
  "http://www.w3.org/Graphics/SVG/1.1/DTD/svg11.dtd">
<svg xmlns:xlink="http://www.w3.org/1999/xlink" width="460.8pt" height="345.6pt" viewBox="0 0 460.8 345.6" xmlns="http://www.w3.org/2000/svg" version="1.1">
 <metadata>
  <rdf:RDF xmlns:dc="http://purl.org/dc/elements/1.1/" xmlns:cc="http://creativecommons.org/ns#" xmlns:rdf="http://www.w3.org/1999/02/22-rdf-syntax-ns#">
   <cc:Work>
    <dc:type rdf:resource="http://purl.org/dc/dcmitype/StillImage"/>
    <dc:date>2022-11-17T04:01:30.892486</dc:date>
    <dc:format>image/svg+xml</dc:format>
    <dc:creator>
     <cc:Agent>
      <dc:title>Matplotlib v3.5.2, https://matplotlib.org/</dc:title>
     </cc:Agent>
    </dc:creator>
   </cc:Work>
  </rdf:RDF>
 </metadata>
 <defs>
  <style type="text/css">*{stroke-linejoin: round; stroke-linecap: butt}</style>
 </defs>
 <g id="figure_1">
  <g id="patch_1">
   <path d="M 0 345.6 
L 460.8 345.6 
L 460.8 0 
L 0 0 
z
" style="fill: #ffffff"/>
  </g>
  <g id="axes_1">
   <g id="patch_2">
    <path d="M 57.6 307.584 
L 414.72 307.584 
L 414.72 41.472 
L 57.6 41.472 
z
" style="fill: #ffffff"/>
   </g>
   <g id="matplotlib.axis_1">
    <g id="xtick_1">
     <g id="line2d_1">
      <defs>
       <path id="mc0ac0da31e" d="M 0 0 
L 0 3.5 
" style="stroke: #000000; stroke-width: 0.8"/>
      </defs>
      <g>
       <use xlink:href="#mc0ac0da31e" x="70.550073" y="307.584" style="stroke: #000000; stroke-width: 0.8"/>
      </g>
     </g>
     <g id="text_1">
      <!-- 0 -->
      <g transform="translate(68.050073 321.576187)scale(0.1 -0.1)">
       <defs>
        <path id="FangSong-30" d="M 1575 4125 
Q 1225 4125 987 3587 
Q 750 3050 750 2150 
Q 750 1200 987 675 
Q 1225 150 1575 150 
Q 1950 150 2162 675 
Q 2375 1200 2375 2150 
Q 2375 3050 2175 3587 
Q 1975 4125 1575 4125 
z
M 1575 -50 
Q 1025 -50 650 525 
Q 275 1100 275 2150 
Q 275 3125 637 3725 
Q 1000 4325 1575 4325 
Q 2125 4325 2487 3750 
Q 2850 3175 2850 2150 
Q 2850 1125 2487 537 
Q 2125 -50 1575 -50 
z
" transform="scale(0.015625)"/>
       </defs>
       <use xlink:href="#FangSong-30"/>
      </g>
     </g>
    </g>
    <g id="xtick_2">
     <g id="line2d_2">
      <g>
       <use xlink:href="#mc0ac0da31e" x="136.203166" y="307.584" style="stroke: #000000; stroke-width: 0.8"/>
      </g>
     </g>
     <g id="text_2">
      <!-- 20 -->
      <g transform="translate(131.203166 321.576187)scale(0.1 -0.1)">
       <defs>
        <path id="FangSong-32" d="M 2300 3225 
Q 2300 3675 2100 3912 
Q 1900 4150 1500 4150 
Q 1200 4150 987 3987 
Q 775 3825 775 3575 
Q 775 3425 862 3325 
Q 950 3225 950 3125 
Q 950 3000 887 2937 
Q 825 2875 700 2875 
Q 550 2875 462 2962 
Q 375 3050 375 3250 
Q 375 3775 750 4050 
Q 1125 4325 1550 4325 
Q 2150 4325 2437 4025 
Q 2725 3725 2725 3275 
Q 2725 2975 2587 2675 
Q 2450 2375 2150 2100 
Q 1425 1400 1037 962 
Q 650 525 575 375 
L 2050 375 
Q 2275 375 2425 550 
Q 2575 725 2625 1075 
L 2775 1075 
L 2625 0 
L 300 0 
L 300 325 
Q 425 550 712 900 
Q 1000 1250 1475 1725 
Q 1900 2150 2100 2525 
Q 2300 2900 2300 3225 
z
" transform="scale(0.015625)"/>
       </defs>
       <use xlink:href="#FangSong-32"/>
       <use xlink:href="#FangSong-30" x="50"/>
      </g>
     </g>
    </g>
    <g id="xtick_3">
     <g id="line2d_3">
      <g>
       <use xlink:href="#mc0ac0da31e" x="201.856259" y="307.584" style="stroke: #000000; stroke-width: 0.8"/>
      </g>
     </g>
     <g id="text_3">
      <!-- 40 -->
      <g transform="translate(196.856259 321.576187)scale(0.1 -0.1)">
       <defs>
        <path id="FangSong-34" d="M 2275 475 
Q 2275 300 2375 225 
Q 2475 150 2650 150 
L 2875 150 
L 2875 0 
L 1225 0 
L 1225 150 
L 1500 150 
Q 1700 150 1787 225 
Q 1875 300 1875 475 
L 1875 1300 
L 200 1300 
L 200 1425 
L 2025 4325 
L 2275 4325 
L 2275 1450 
L 2950 1450 
L 2950 1300 
L 2275 1300 
L 2275 475 
z
M 1850 3700 
L 425 1450 
L 1875 1450 
L 1875 3700 
L 1850 3700 
z
" transform="scale(0.015625)"/>
       </defs>
       <use xlink:href="#FangSong-34"/>
       <use xlink:href="#FangSong-30" x="50"/>
      </g>
     </g>
    </g>
    <g id="xtick_4">
     <g id="line2d_4">
      <g>
       <use xlink:href="#mc0ac0da31e" x="267.509352" y="307.584" style="stroke: #000000; stroke-width: 0.8"/>
      </g>
     </g>
     <g id="text_4">
      <!-- 60 -->
      <g transform="translate(262.509352 321.576187)scale(0.1 -0.1)">
       <defs>
        <path id="FangSong-36" d="M 750 1700 
Q 750 950 1012 537 
Q 1275 125 1650 125 
Q 2025 125 2225 400 
Q 2425 675 2425 1425 
Q 2425 1925 2212 2200 
Q 2000 2475 1700 2475 
Q 1425 2475 1187 2312 
Q 950 2150 750 1700 
z
M 1725 2725 
Q 2325 2725 2587 2325 
Q 2850 1925 2850 1425 
Q 2850 675 2487 312 
Q 2125 -50 1650 -50 
Q 975 -50 625 462 
Q 275 975 275 1950 
Q 275 3100 700 3712 
Q 1125 4325 1850 4325 
Q 2200 4325 2412 4125 
Q 2625 3925 2625 3775 
Q 2625 3625 2562 3550 
Q 2500 3475 2350 3475 
Q 2225 3475 2162 3537 
Q 2100 3600 2100 3725 
Q 2100 3775 2112 3825 
Q 2125 3875 2125 3925 
Q 2125 4025 2050 4087 
Q 1975 4150 1775 4150 
Q 1350 4150 1050 3762 
Q 750 3375 750 2075 
Q 900 2400 1162 2562 
Q 1425 2725 1725 2725 
z
" transform="scale(0.015625)"/>
       </defs>
       <use xlink:href="#FangSong-36"/>
       <use xlink:href="#FangSong-30" x="50"/>
      </g>
     </g>
    </g>
    <g id="xtick_5">
     <g id="line2d_5">
      <g>
       <use xlink:href="#mc0ac0da31e" x="333.162445" y="307.584" style="stroke: #000000; stroke-width: 0.8"/>
      </g>
     </g>
     <g id="text_5">
      <!-- 80 -->
      <g transform="translate(328.162445 321.576187)scale(0.1 -0.1)">
       <defs>
        <path id="FangSong-38" d="M 600 1025 
Q 600 625 862 375 
Q 1125 125 1525 125 
Q 2000 125 2212 375 
Q 2425 625 2425 1000 
Q 2425 1325 2125 1625 
Q 1825 1925 1225 2175 
Q 925 1975 762 1675 
Q 600 1375 600 1025 
z
M 2800 1075 
Q 2800 600 2450 275 
Q 2100 -50 1525 -50 
Q 1000 -50 625 275 
Q 250 600 250 1025 
Q 250 1450 462 1750 
Q 675 2050 1075 2275 
Q 725 2450 537 2712 
Q 350 2975 350 3300 
Q 350 3725 675 4025 
Q 1000 4325 1575 4325 
Q 2100 4325 2425 4025 
Q 2750 3725 2750 3300 
Q 2750 3000 2562 2737 
Q 2375 2475 1975 2275 
Q 2400 2025 2600 1725 
Q 2800 1425 2800 1075 
z
M 2400 3275 
Q 2400 3625 2200 3887 
Q 2000 4150 1575 4150 
Q 1100 4150 900 3900 
Q 700 3650 700 3375 
Q 700 3100 987 2837 
Q 1275 2575 1800 2375 
Q 2100 2525 2250 2750 
Q 2400 2975 2400 3275 
z
" transform="scale(0.015625)"/>
       </defs>
       <use xlink:href="#FangSong-38"/>
       <use xlink:href="#FangSong-30" x="50"/>
      </g>
     </g>
    </g>
    <g id="xtick_6">
     <g id="line2d_6">
      <g>
       <use xlink:href="#mc0ac0da31e" x="398.815538" y="307.584" style="stroke: #000000; stroke-width: 0.8"/>
      </g>
     </g>
     <g id="text_6">
      <!-- 100 -->
      <g transform="translate(391.315538 321.576187)scale(0.1 -0.1)">
       <defs>
        <path id="FangSong-31" d="M 1800 4350 
L 1800 550 
Q 1800 350 1925 250 
Q 2050 150 2275 150 
L 2525 150 
L 2525 0 
L 700 0 
L 700 150 
L 925 150 
Q 1175 150 1287 250 
Q 1400 350 1400 550 
L 1400 3575 
Q 1400 3675 1337 3737 
Q 1275 3800 1150 3800 
L 700 3800 
L 700 3950 
L 925 3950 
Q 1225 3950 1412 4050 
Q 1600 4150 1700 4350 
L 1800 4350 
z
" transform="scale(0.015625)"/>
       </defs>
       <use xlink:href="#FangSong-31"/>
       <use xlink:href="#FangSong-30" x="50"/>
       <use xlink:href="#FangSong-30" x="100"/>
      </g>
     </g>
    </g>
    <g id="text_7">
     <!-- 响应比 -->
     <g transform="translate(221.16 334.873062)scale(0.1 -0.1)">
      <defs>
       <path id="FangSong-54cd" d="M 2700 -200 
Q 2725 -650 2625 -525 
L 2375 -125 
Q 2500 50 2475 350 
L 2500 3200 
Q 2500 3625 2425 4100 
L 2500 4125 
L 2725 3575 
L 3300 3625 
Q 3550 4225 3675 4637 
Q 3800 5050 3700 5150 
L 3775 5200 
L 4125 4750 
Q 4050 4800 3900 4512 
Q 3750 4225 3500 3650 
L 5275 3850 
L 5425 4125 
L 5725 3850 
L 5575 3650 
Q 5500 -175 5175 -675 
Q 4800 -275 4175 250 
L 4225 350 
L 5050 -175 
Q 5275 525 5325 3625 
L 2725 3325 
L 2700 -200 
z
M 725 3250 
Q 725 3575 625 3925 
L 725 3975 
L 950 3525 
L 1750 3650 
L 1875 3875 
L 2175 3650 
L 2000 3450 
L 1925 2175 
L 2125 1950 
L 1000 1800 
Q 1025 1275 900 1350 
L 650 1750 
Q 775 1850 750 2150 
L 725 3250 
z
M 3550 1250 
Q 3575 950 3500 875 
L 3225 1200 
Q 3300 1350 3300 1525 
L 3275 2325 
Q 3275 2700 3200 2875 
L 3275 2925 
L 3500 2625 
L 4350 2725 
L 4500 2925 
L 4775 2675 
L 4600 2475 
L 4525 1575 
L 4750 1400 
L 3550 1250 
z
M 975 3275 
L 1000 2050 
L 1675 2150 
L 1775 3425 
L 975 3275 
z
M 4350 2475 
L 3500 2375 
L 3525 1500 
L 4275 1575 
L 4350 2475 
z
" transform="scale(0.015625)"/>
       <path id="FangSong-5e94" d="M 1625 4400 
L 1800 3800 
Q 5075 4050 5200 4175 
L 5525 3850 
Q 5200 3900 1825 3550 
Q 1775 2450 1675 1825 
Q 1575 1200 1312 612 
Q 1050 25 500 -600 
L 425 -525 
Q 850 50 1100 675 
Q 1350 1300 1425 1862 
Q 1500 2425 1550 3150 
Q 1600 3875 1550 4375 
L 1625 4400 
z
M 4725 3175 
L 5100 2725 
Q 5000 2800 4750 2112 
Q 4500 1425 4000 150 
Q 5425 225 5400 275 
L 5725 0 
Q 5425 0 3687 -112 
Q 1950 -225 1725 -275 
L 1350 25 
Q 2150 0 3800 125 
Q 4300 1500 4525 2200 
Q 4750 2900 4650 3125 
L 4725 3175 
z
M 2900 1150 
Q 2800 975 2650 725 
Q 2450 1625 2175 2550 
L 2275 2575 
Q 2600 1850 2900 1150 
z
M 3775 1550 
Q 3675 1350 3525 1150 
Q 3475 1600 3075 3050 
L 3150 3075 
Q 3475 2300 3775 1550 
z
M 3500 4100 
Q 3275 4675 3000 5225 
L 3075 5275 
Q 3375 4900 3700 4525 
Q 3600 4325 3500 4100 
z
" transform="scale(0.015625)"/>
       <path id="FangSong-6bd4" d="M 3500 2125 
Q 3925 2425 4487 2975 
Q 5050 3525 4950 3750 
L 5025 3775 
L 5250 3225 
Q 5175 3250 4875 3000 
Q 4575 2750 4287 2525 
Q 4000 2300 3500 1900 
L 3500 575 
Q 3475 -100 4150 -100 
L 4800 -100 
Q 5275 -100 5375 12 
Q 5475 125 5450 1350 
L 5575 1350 
Q 5600 825 5637 412 
Q 5675 0 5800 -175 
Q 5375 -325 4800 -325 
L 4150 -325 
Q 3225 -350 3275 550 
L 3275 4300 
Q 3275 4875 3150 5150 
L 3200 5200 
L 3625 4850 
Q 3475 4825 3500 4250 
L 3500 2125 
z
M 1500 2575 
Q 1900 2625 2337 2712 
Q 2775 2800 2800 2850 
L 3075 2600 
Q 2875 2575 2350 2475 
Q 1825 2375 1775 2325 
L 1500 2525 
L 1500 150 
L 2925 1075 
L 2975 1025 
Q 1550 -75 1375 -350 
L 1200 0 
Q 1275 75 1275 350 
L 1275 3925 
Q 1275 4475 1150 4750 
L 1200 4800 
L 1625 4400 
Q 1475 4375 1500 3925 
L 1500 2575 
z
" transform="scale(0.015625)"/>
      </defs>
      <use xlink:href="#FangSong-54cd"/>
      <use xlink:href="#FangSong-5e94" x="100"/>
      <use xlink:href="#FangSong-6bd4" x="200"/>
     </g>
    </g>
   </g>
   <g id="matplotlib.axis_2">
    <g id="ytick_1">
     <g id="line2d_7">
      <defs>
       <path id="m446c6d6b34" d="M 0 0 
L -3.5 0 
" style="stroke: #000000; stroke-width: 0.8"/>
      </defs>
      <g>
       <use xlink:href="#m446c6d6b34" x="57.6" y="295.488" style="stroke: #000000; stroke-width: 0.8"/>
      </g>
     </g>
     <g id="text_8">
      <!-- 0% -->
      <g transform="translate(40.6 298.984094)scale(0.1 -0.1)">
       <defs>
        <path id="FangSong-25" d="M 725 4150 
Q 575 4150 475 3950 
Q 375 3750 375 3200 
Q 375 2575 487 2387 
Q 600 2200 725 2200 
Q 900 2200 987 2425 
Q 1075 2650 1075 3200 
Q 1075 3650 1012 3900 
Q 950 4150 725 4150 
z
M 1400 3175 
Q 1400 2725 1250 2387 
Q 1100 2050 725 2050 
Q 425 2050 237 2350 
Q 50 2650 50 3175 
Q 50 3725 250 4025 
Q 450 4325 725 4325 
Q 1025 4325 1212 4012 
Q 1400 3700 1400 3175 
z
M 2700 1100 
Q 2700 1525 2625 1800 
Q 2550 2075 2350 2075 
Q 2200 2075 2100 1837 
Q 2000 1600 2000 1100 
Q 2000 475 2112 300 
Q 2225 125 2350 125 
Q 2525 125 2612 337 
Q 2700 550 2700 1100 
z
M 3025 1075 
Q 3025 575 2850 262 
Q 2675 -50 2350 -50 
Q 2075 -50 1875 262 
Q 1675 575 1675 1075 
Q 1675 1625 1875 1937 
Q 2075 2250 2350 2250 
Q 2650 2250 2837 1925 
Q 3025 1600 3025 1075 
z
M 2500 4250 
L 700 -50 
L 550 25 
L 2325 4325 
L 2500 4250 
z
" transform="scale(0.015625)"/>
       </defs>
       <use xlink:href="#FangSong-30"/>
       <use xlink:href="#FangSong-25" x="50"/>
      </g>
     </g>
    </g>
    <g id="ytick_2">
     <g id="line2d_8">
      <g>
       <use xlink:href="#m446c6d6b34" x="57.6" y="247.104" style="stroke: #000000; stroke-width: 0.8"/>
      </g>
     </g>
     <g id="text_9">
      <!-- 20% -->
      <g transform="translate(35.6 250.600094)scale(0.1 -0.1)">
       <use xlink:href="#FangSong-32"/>
       <use xlink:href="#FangSong-30" x="50"/>
       <use xlink:href="#FangSong-25" x="100"/>
      </g>
     </g>
    </g>
    <g id="ytick_3">
     <g id="line2d_9">
      <g>
       <use xlink:href="#m446c6d6b34" x="57.6" y="198.72" style="stroke: #000000; stroke-width: 0.8"/>
      </g>
     </g>
     <g id="text_10">
      <!-- 40% -->
      <g transform="translate(35.6 202.216094)scale(0.1 -0.1)">
       <use xlink:href="#FangSong-34"/>
       <use xlink:href="#FangSong-30" x="50"/>
       <use xlink:href="#FangSong-25" x="100"/>
      </g>
     </g>
    </g>
    <g id="ytick_4">
     <g id="line2d_10">
      <g>
       <use xlink:href="#m446c6d6b34" x="57.6" y="150.336" style="stroke: #000000; stroke-width: 0.8"/>
      </g>
     </g>
     <g id="text_11">
      <!-- 60% -->
      <g transform="translate(35.6 153.832094)scale(0.1 -0.1)">
       <use xlink:href="#FangSong-36"/>
       <use xlink:href="#FangSong-30" x="50"/>
       <use xlink:href="#FangSong-25" x="100"/>
      </g>
     </g>
    </g>
    <g id="ytick_5">
     <g id="line2d_11">
      <g>
       <use xlink:href="#m446c6d6b34" x="57.6" y="101.952" style="stroke: #000000; stroke-width: 0.8"/>
      </g>
     </g>
     <g id="text_12">
      <!-- 80% -->
      <g transform="translate(35.6 105.448094)scale(0.1 -0.1)">
       <use xlink:href="#FangSong-38"/>
       <use xlink:href="#FangSong-30" x="50"/>
       <use xlink:href="#FangSong-25" x="100"/>
      </g>
     </g>
    </g>
    <g id="ytick_6">
     <g id="line2d_12">
      <g>
       <use xlink:href="#m446c6d6b34" x="57.6" y="53.568" style="stroke: #000000; stroke-width: 0.8"/>
      </g>
     </g>
     <g id="text_13">
      <!-- 100% -->
      <g transform="translate(30.6 57.064094)scale(0.1 -0.1)">
       <use xlink:href="#FangSong-31"/>
       <use xlink:href="#FangSong-30" x="50"/>
       <use xlink:href="#FangSong-30" x="100"/>
       <use xlink:href="#FangSong-25" x="150"/>
      </g>
     </g>
    </g>
    <g id="text_14">
     <!-- 累计完成比例 -->
     <g transform="translate(25.154688 204.528)rotate(-90)scale(0.1 -0.1)">
      <defs>
       <path id="FangSong-7d2f" d="M 4525 4975 
L 4700 5225 
L 5000 4950 
L 4825 4775 
L 4625 3550 
L 4850 3300 
L 3175 3150 
L 3375 2975 
Q 3200 2925 2862 2725 
Q 2525 2525 2075 2275 
L 3475 2500 
Q 3750 2675 3900 2800 
Q 4050 2925 4100 3075 
L 4175 3100 
L 4325 2700 
Q 4200 2675 3500 2237 
Q 2800 1800 2275 1550 
L 4375 1825 
L 3900 2175 
L 4000 2275 
Q 4625 1900 4950 1725 
Q 4975 1475 4925 1225 
Q 4800 1375 4500 1675 
L 3250 1475 
L 3525 1300 
Q 3375 1200 3375 875 
L 3375 25 
Q 3375 -325 3225 -625 
Q 2975 -325 2400 150 
L 2450 250 
L 3050 -75 
Q 3150 -125 3150 0 
L 3150 925 
Q 3150 1300 3125 1450 
Q 1875 1275 1575 1175 
L 1325 1425 
L 1850 1550 
Q 2175 1700 3250 2300 
Q 2075 2100 1875 2000 
L 1575 2250 
L 1800 2300 
Q 2150 2475 3025 3125 
L 2000 3025 
Q 2000 2675 1950 2700 
Q 1900 2725 1650 3025 
Q 1725 3250 1725 3425 
L 1650 4400 
Q 1625 4675 1525 4950 
L 1625 5000 
L 1875 4675 
L 4525 4975 
z
M 3150 3375 
L 3150 3875 
Q 2525 3800 2400 3725 
L 2100 3975 
Q 2500 3975 3150 4075 
L 3150 4600 
L 1900 4450 
L 1975 3250 
L 3150 3375 
z
M 3375 4100 
Q 3950 4175 4025 4225 
L 4275 4000 
Q 3950 3975 3375 3900 
L 3375 3400 
L 4400 3500 
L 4575 4750 
L 3375 4600 
L 3375 4100 
z
M 5450 -75 
Q 4975 325 3875 1025 
L 3950 1125 
Q 4850 700 5350 500 
Q 5425 250 5450 -75 
z
M 800 -250 
Q 1350 75 1825 500 
Q 2300 925 2325 1125 
L 2400 1150 
L 2550 725 
Q 2425 700 2075 425 
Q 1725 150 875 -350 
L 800 -250 
z
" transform="scale(0.015625)"/>
       <path id="FangSong-8ba1" d="M 4075 4200 
Q 4100 4825 3900 5100 
L 3975 5150 
L 4450 4725 
Q 4275 4600 4300 4200 
L 4275 3000 
Q 5525 3200 5575 3250 
L 5950 2950 
Q 5725 2975 4275 2800 
L 4250 -425 
Q 4250 -700 4150 -575 
L 3875 -150 
Q 4050 50 4025 300 
L 4050 2750 
Q 2975 2625 2900 2575 
L 2525 2825 
Q 2850 2825 4050 2975 
L 4075 4200 
z
M 1775 3250 
L 2100 2950 
L 1900 2750 
L 1875 550 
L 2825 1250 
L 2875 1175 
Q 1875 250 1750 -25 
L 1525 275 
Q 1625 375 1650 625 
L 1675 2775 
Q 900 2625 750 2550 
L 425 2800 
Q 850 2825 1650 3000 
L 1775 3250 
z
M 2025 3800 
Q 1825 4300 1325 4950 
L 1375 5025 
Q 1925 4575 2175 4300 
Q 2125 4000 2025 3800 
z
" transform="scale(0.015625)"/>
       <path id="FangSong-5b8c" d="M 5375 2050 
Q 4925 2050 3550 1950 
L 3850 1750 
Q 3725 1600 3700 1375 
L 3675 275 
Q 3650 -125 4075 -175 
L 4925 -175 
Q 5300 -150 5312 62 
Q 5325 275 5325 1025 
L 5425 1025 
Q 5450 750 5475 337 
Q 5500 -75 5700 -275 
Q 5400 -375 5000 -400 
L 4075 -400 
Q 3425 -350 3425 150 
L 3475 1450 
Q 3475 1775 3425 1925 
L 2675 1850 
L 2875 1650 
Q 2750 1550 2600 1200 
Q 2450 850 2025 312 
Q 1600 -225 600 -675 
L 550 -575 
Q 1525 -100 1987 625 
Q 2450 1350 2525 1850 
Q 1550 1775 1500 1725 
L 1150 2025 
Q 1625 2025 3212 2150 
Q 4800 2275 5000 2350 
L 5375 2050 
z
M 1650 3650 
Q 1550 3125 1325 2875 
L 1150 3250 
Q 1450 3425 1575 4400 
L 1675 4400 
L 1675 3900 
L 5025 4150 
L 5175 4400 
L 5525 4075 
Q 5375 4050 4725 3250 
L 4650 3325 
L 4975 3900 
L 1650 3650 
z
M 4475 2975 
Q 4225 2975 3412 2875 
Q 2600 2775 2400 2725 
L 2050 2975 
Q 2575 2975 3200 3075 
Q 3825 3175 4150 3225 
L 4475 2975 
z
M 3550 4575 
Q 3475 4350 3300 4150 
Q 3225 4475 2900 5200 
L 2975 5250 
Q 3350 4825 3550 4575 
z
" transform="scale(0.015625)"/>
       <path id="FangSong-6210" d="M 5575 975 
Q 5600 -150 5750 -625 
Q 4650 -225 4000 1075 
Q 3625 650 2975 225 
L 2925 325 
Q 3525 825 3900 1300 
Q 3600 2275 3500 3300 
L 1875 3125 
Q 1875 2625 1825 2100 
L 2725 2250 
L 2875 2475 
L 3175 2225 
L 3000 2050 
Q 2850 475 2575 -125 
Q 2225 400 1825 775 
L 1875 850 
L 2475 400 
Q 2650 875 2750 2000 
L 1825 1850 
Q 1675 250 600 -650 
L 525 -600 
Q 1250 250 1425 987 
Q 1600 1725 1625 2612 
Q 1650 3500 1550 3800 
L 1625 3825 
L 1850 3350 
L 3450 3525 
Q 3400 4150 3375 4562 
Q 3350 4975 3225 5200 
L 3275 5225 
L 3725 4900 
Q 3625 4925 3637 4575 
Q 3650 4225 3675 3550 
Q 4900 3700 5050 3775 
L 5325 3475 
Q 4775 3475 3725 3325 
Q 3775 2425 4075 1525 
Q 4500 2025 4687 2325 
Q 4875 2625 4800 2850 
L 4875 2875 
L 5125 2325 
Q 5075 2400 4850 2125 
Q 4625 1850 4150 1275 
Q 4625 225 5425 -125 
L 5475 975 
L 5575 975 
z
M 4100 5000 
Q 4525 4700 4875 4450 
Q 4825 4250 4750 4025 
Q 4400 4525 4025 4950 
L 4100 5000 
z
" transform="scale(0.015625)"/>
       <path id="FangSong-4f8b" d="M 3050 2000 
Q 3025 1800 2975 1600 
Q 2775 1900 2525 2250 
Q 2300 1875 2025 1550 
L 1925 1625 
Q 2675 2725 2975 3975 
Q 2475 3925 2375 3875 
L 2050 4125 
Q 2375 4125 3162 4225 
Q 3950 4325 4100 4450 
L 4350 4125 
Q 4050 4150 3100 3975 
L 3300 3700 
Q 3200 3675 3125 3525 
Q 3050 3375 2925 3050 
L 3625 3150 
L 3775 3350 
L 4050 3075 
L 3875 2900 
Q 3300 825 1850 -225 
L 1800 -100 
Q 3100 975 3625 2900 
Q 3150 2825 3025 2775 
L 2875 2925 
Q 2775 2675 2575 2350 
Q 2900 2125 3050 2000 
z
M 1275 -150 
Q 1425 25 1400 225 
L 1450 3425 
Q 1025 2800 475 2225 
L 400 2325 
Q 875 2850 1450 3887 
Q 2025 4925 1925 5150 
L 2000 5175 
L 2250 4700 
Q 2200 4725 2062 4475 
Q 1925 4225 1675 3800 
L 1625 -325 
Q 1650 -675 1525 -600 
L 1275 -150 
z
M 5475 250 
Q 5475 -300 5300 -650 
Q 4900 -100 4300 375 
L 4350 475 
L 5200 -75 
Q 5250 250 5250 575 
L 5250 4350 
Q 5275 4950 5100 5150 
L 5175 5225 
L 5600 4850 
Q 5450 4775 5475 4325 
L 5475 250 
z
M 4300 1525 
Q 4400 1650 4400 1900 
L 4400 3075 
Q 4425 3525 4300 3750 
L 4350 3800 
L 4725 3450 
Q 4600 3350 4625 3025 
L 4625 1375 
Q 4625 1050 4550 1125 
L 4300 1525 
z
" transform="scale(0.015625)"/>
      </defs>
      <use xlink:href="#FangSong-7d2f"/>
      <use xlink:href="#FangSong-8ba1" x="100"/>
      <use xlink:href="#FangSong-5b8c" x="200"/>
      <use xlink:href="#FangSong-6210" x="300"/>
      <use xlink:href="#FangSong-6bd4" x="400"/>
      <use xlink:href="#FangSong-4f8b" x="500"/>
     </g>
    </g>
   </g>
   <g id="line2d_13">
    <path d="M 73.832727 295.488 
L 74.160993 295.488 
L 74.817524 294.03648 
L 75.145789 292.34304 
L 75.474055 288.47232 
L 76.458851 270.0864 
L 78.100178 225.3312 
L 78.428444 219.76704 
L 79.084975 201.38112 
L 79.741506 187.34976 
L 82.695895 141.14304 
L 83.352426 137.51424 
L 84.008957 136.06272 
L 84.665488 133.88544 
L 84.993753 133.4016 
L 85.322019 133.4016 
L 85.650284 133.15968 
L 85.978549 132.43392 
L 86.306815 132.43392 
L 86.63508 131.95008 
L 87.619877 131.95008 
L 87.948142 131.46624 
L 88.604673 130.9824 
L 90.246001 130.9824 
L 90.574266 130.74048 
L 92.215593 130.74048 
L 92.872124 130.25664 
L 93.20039 130.25664 
L 93.528655 130.01472 
L 93.856921 130.01472 
L 94.185186 129.7728 
L 94.841717 129.7728 
L 95.169983 129.53088 
L 97.139575 129.53088 
L 97.467841 129.28896 
L 98.452637 129.28896 
L 98.780903 128.80512 
L 99.765699 128.80512 
L 100.093965 128.5632 
L 100.750495 128.5632 
L 101.407026 128.07936 
L 102.391823 128.07936 
L 102.720088 127.83744 
L 103.048354 127.3536 
L 103.376619 127.3536 
L 103.704885 127.11168 
L 104.03315 127.11168 
L 104.361416 126.86976 
L 105.017947 126.86976 
L 105.346212 126.62784 
L 105.674477 126.62784 
L 106.002743 126.38592 
L 106.331008 125.90208 
L 106.659274 125.66016 
L 107.64407 125.66016 
L 107.972336 125.17632 
L 109.613663 125.17632 
L 109.941928 124.9344 
L 110.926725 124.9344 
L 111.25499 124.20864 
L 111.583256 123.96672 
L 112.896318 123.96672 
L 113.224583 123.48288 
L 113.881114 123.48288 
L 114.20938 123.24096 
L 115.850707 123.24096 
L 116.178972 122.99904 
L 116.507238 122.99904 
L 116.835503 122.5152 
L 117.163769 122.5152 
L 117.492034 122.27328 
L 117.8203 121.78944 
L 118.805096 121.78944 
L 119.133362 121.54752 
L 122.416016 121.54752 
L 122.744282 121.06368 
L 123.072547 121.06368 
L 123.400813 120.57984 
L 124.057344 120.57984 
L 124.713874 120.096 
L 125.698671 120.096 
L 126.355202 119.61216 
L 126.683467 119.12832 
L 127.011733 118.8864 
L 127.668264 118.8864 
L 127.996529 118.64448 
L 128.324795 118.16064 
L 129.637856 118.16064 
L 129.966122 117.91872 
L 131.279184 117.91872 
L 131.607449 117.6768 
L 131.935715 117.19296 
L 132.26398 117.19296 
L 132.592246 116.95104 
L 133.905307 116.95104 
L 135.218369 115.98336 
L 135.546635 115.98336 
L 136.203166 115.49952 
L 136.531431 115.01568 
L 136.859697 114.77376 
L 137.516228 114.77376 
L 138.172759 114.28992 
L 139.157555 114.28992 
L 139.48582 114.048 
L 141.455413 114.048 
L 141.783679 113.80608 
L 143.096741 113.80608 
L 143.425006 113.56416 
L 144.081537 113.56416 
L 144.409802 113.32224 
L 145.394599 113.32224 
L 145.722864 113.08032 
L 146.05113 113.08032 
L 146.379395 112.8384 
L 148.348988 112.8384 
L 148.677253 112.59648 
L 150.318581 112.59648 
L 150.646846 112.35456 
L 150.975112 112.35456 
L 151.303377 111.87072 
L 152.616439 111.87072 
L 152.944704 111.6288 
L 153.27297 111.6288 
L 153.601235 111.38688 
L 155.242563 111.38688 
L 155.570828 111.14496 
L 156.227359 111.14496 
L 156.555625 110.90304 
L 158.853483 110.90304 
L 159.181748 110.66112 
L 159.838279 110.66112 
L 160.49481 110.17728 
L 161.151341 110.17728 
L 161.479607 109.93536 
L 163.777465 109.93536 
L 164.10573 109.69344 
L 165.090527 109.69344 
L 165.418792 109.45152 
L 165.747058 109.45152 
L 166.075323 109.2096 
L 167.060119 109.2096 
L 167.388385 108.96768 
L 168.373181 108.96768 
L 168.701447 108.72576 
L 169.029712 108.72576 
L 169.357978 108.24192 
L 171.327571 108.24192 
L 171.655836 108 
L 172.968898 108 
L 173.297163 107.75808 
L 174.610225 107.75808 
L 174.938491 107.51616 
L 175.266756 107.51616 
L 175.595022 107.27424 
L 176.251553 107.27424 
L 176.579818 107.03232 
L 177.89288 107.03232 
L 178.549411 106.54848 
L 179.862473 106.54848 
L 180.190738 106.30656 
L 180.847269 106.30656 
L 181.175535 106.06464 
L 181.5038 106.06464 
L 181.832065 105.82272 
L 183.473393 105.82272 
L 183.801658 105.5808 
L 184.458189 105.5808 
L 184.786455 105.33888 
L 186.099516 105.33888 
L 186.427782 105.09696 
L 187.740844 105.09696 
L 188.069109 104.85504 
L 189.710437 104.85504 
L 190.038702 104.3712 
L 190.695233 104.3712 
L 191.023498 104.12928 
L 191.351764 104.12928 
L 191.680029 103.88736 
L 192.993091 103.88736 
L 193.321357 103.64544 
L 193.649622 103.64544 
L 193.977888 103.40352 
L 196.604011 103.40352 
L 196.932277 103.1616 
L 197.260542 103.1616 
L 197.588808 102.91968 
L 198.573604 102.91968 
L 198.90187 102.67776 
L 199.230135 102.67776 
L 199.558401 102.43584 
L 201.199728 102.43584 
L 201.527993 102.19392 
L 202.841055 102.19392 
L 203.169321 101.952 
L 204.482383 101.952 
L 204.810648 101.46816 
L 206.12371 101.46816 
L 206.451975 101.22624 
L 207.436772 101.22624 
L 207.765037 100.98432 
L 208.093303 100.98432 
L 208.421568 100.7424 
L 209.73463 100.7424 
L 210.062895 100.50048 
L 211.047692 100.50048 
L 211.375957 100.25856 
L 212.360754 100.25856 
L 212.689019 99.77472 
L 213.673816 99.77472 
L 214.330347 99.29088 
L 215.315143 99.29088 
L 215.643408 99.04896 
L 215.971674 99.04896 
L 216.299939 98.80704 
L 216.95647 98.80704 
L 217.613001 98.3232 
L 217.941267 98.3232 
L 218.269532 98.08128 
L 220.239125 98.08128 
L 220.56739 97.83936 
L 221.223921 97.83936 
L 221.552187 97.59744 
L 222.208718 97.59744 
L 222.865249 97.1136 
L 225.163107 97.1136 
L 225.491372 96.87168 
L 227.1327 96.87168 
L 227.460965 96.38784 
L 229.430558 96.38784 
L 229.758823 96.14592 
L 232.056682 96.14592 
L 232.713213 95.66208 
L 233.698009 95.66208 
L 234.35454 95.17824 
L 235.995867 95.17824 
L 236.324133 94.93632 
L 236.652398 94.45248 
L 237.308929 94.45248 
L 237.96546 93.96864 
L 239.606787 93.96864 
L 239.935053 93.4848 
L 241.57638 93.4848 
L 241.904646 93.24288 
L 243.545973 93.24288 
L 243.874238 93.00096 
L 246.172097 93.00096 
L 246.500362 92.51712 
L 247.813424 92.51712 
L 248.141689 92.2752 
L 249.126486 92.2752 
L 249.454751 92.03328 
L 249.783017 92.03328 
L 250.111282 91.54944 
L 251.75261 91.54944 
L 252.080875 91.30752 
L 252.737406 91.30752 
L 253.065671 91.0656 
L 254.378733 91.0656 
L 254.706999 90.82368 
L 255.691795 90.82368 
L 256.020061 90.58176 
L 257.989653 90.58176 
L 258.317919 90.33984 
L 259.959246 90.33984 
L 260.287512 90.09792 
L 260.944043 90.09792 
L 261.272308 89.856 
L 261.600574 89.856 
L 261.928839 89.61408 
L 264.226697 89.61408 
L 264.554963 89.37216 
L 265.211494 89.37216 
L 265.539759 89.13024 
L 268.165883 89.13024 
L 268.494148 88.88832 
L 271.120272 88.88832 
L 271.448538 88.6464 
L 272.105068 88.6464 
L 272.761599 88.16256 
L 274.731192 88.16256 
L 275.059458 87.92064 
L 276.700785 87.92064 
L 277.02905 87.67872 
L 278.670378 87.67872 
L 278.998643 87.4368 
L 280.639971 87.4368 
L 281.296502 86.46912 
L 282.609563 86.46912 
L 282.937829 85.98528 
L 284.579156 85.98528 
L 285.235687 85.50144 
L 286.548749 85.50144 
L 286.877014 85.25952 
L 288.846607 85.25952 
L 289.174873 85.0176 
L 289.831404 85.0176 
L 290.487935 84.53376 
L 292.785793 84.53376 
L 293.114058 84.29184 
L 293.770589 84.29184 
L 294.098855 84.04992 
L 296.068447 84.04992 
L 296.396713 83.808 
L 297.053244 83.808 
L 297.381509 83.56608 
L 300.335899 83.56608 
L 300.664164 83.32416 
L 302.305491 83.32416 
L 302.633757 83.08224 
L 303.290288 83.08224 
L 303.618553 82.84032 
L 306.244677 82.84032 
L 306.572942 82.5984 
L 308.21427 82.5984 
L 308.542535 82.35648 
L 308.870801 82.35648 
L 309.527332 81.87264 
L 310.183862 81.87264 
L 310.512128 81.63072 
L 311.496924 81.63072 
L 311.82519 81.3888 
L 313.466517 81.3888 
L 313.794783 81.14688 
L 314.451314 81.14688 
L 314.779579 80.90496 
L 315.107844 80.90496 
L 315.43611 80.66304 
L 316.749172 80.66304 
L 317.077437 80.42112 
L 317.733968 80.42112 
L 318.390499 79.93728 
L 318.718765 79.93728 
L 319.04703 79.69536 
L 320.360092 79.69536 
L 321.016623 79.21152 
L 321.344888 79.21152 
L 321.673154 78.9696 
L 322.65795 78.9696 
L 322.986216 78.72768 
L 323.314481 78.72768 
L 323.642747 78.48576 
L 323.971012 78.48576 
L 324.299278 78.24384 
L 325.940605 78.24384 
L 326.26887 78.00192 
L 326.597136 78.00192 
L 326.925401 77.76 
L 327.581932 77.76 
L 327.910198 77.51808 
L 328.566729 77.51808 
L 328.894994 77.27616 
L 329.223259 77.27616 
L 329.87979 76.79232 
L 330.208056 76.79232 
L 330.536321 76.5504 
L 331.192852 76.5504 
L 331.521118 76.30848 
L 331.849383 76.30848 
L 332.177649 75.82464 
L 333.818976 75.82464 
L 334.475507 75.3408 
L 335.460303 75.3408 
L 335.788569 75.09888 
L 336.116834 75.09888 
L 336.4451 74.85696 
L 336.773365 74.37312 
L 337.758162 74.37312 
L 338.086427 74.1312 
L 338.414693 74.1312 
L 339.071223 73.64736 
L 340.05602 73.64736 
L 340.384285 73.40544 
L 340.712551 72.9216 
L 341.040816 72.67968 
L 341.697347 72.67968 
L 342.353878 72.19584 
L 342.682144 72.19584 
L 343.010409 71.95392 
L 343.66694 71.95392 
L 343.995205 71.712 
L 344.651736 71.712 
L 344.980002 71.47008 
L 345.308267 71.47008 
L 345.636533 70.74432 
L 346.293064 70.74432 
L 346.621329 70.5024 
L 347.27786 70.5024 
L 347.606126 70.01856 
L 348.590922 70.01856 
L 348.919187 69.53472 
L 349.247453 69.2928 
L 349.903984 69.2928 
L 350.88878 68.56704 
L 351.873577 68.56704 
L 352.858373 67.84128 
L 353.186638 67.84128 
L 353.514904 67.59936 
L 353.843169 67.59936 
L 354.171435 67.35744 
L 354.827966 67.35744 
L 355.156231 67.11552 
L 355.484497 67.11552 
L 355.812762 66.8736 
L 356.141028 66.38976 
L 357.45409 66.38976 
L 357.782355 66.14784 
L 358.767151 66.14784 
L 359.095417 65.664 
L 359.423682 65.664 
L 359.751948 65.42208 
L 360.080213 65.42208 
L 360.408479 65.18016 
L 360.736744 65.18016 
L 361.06501 64.69632 
L 361.721541 64.69632 
L 362.049806 64.4544 
L 362.378072 64.4544 
L 362.706337 64.21248 
L 364.67593 64.21248 
L 365.004195 63.97056 
L 365.332461 63.97056 
L 365.660726 63.72864 
L 366.317257 63.72864 
L 366.645523 63.48672 
L 367.302053 63.48672 
L 367.958584 63.00288 
L 368.615115 63.00288 
L 368.943381 62.76096 
L 369.928177 62.76096 
L 370.256443 62.51904 
L 370.584708 62.51904 
L 370.912974 62.27712 
L 371.89777 62.27712 
L 372.226035 61.79328 
L 373.210832 61.79328 
L 373.539097 61.55136 
L 374.195628 61.55136 
L 374.523894 61.30944 
L 374.852159 61.30944 
L 375.180425 61.06752 
L 375.50869 61.06752 
L 375.836956 60.8256 
L 376.493487 60.8256 
L 377.806548 59.85792 
L 378.791345 59.85792 
L 379.447876 59.37408 
L 380.104407 59.37408 
L 380.432672 59.13216 
L 381.417469 59.13216 
L 381.745734 58.89024 
L 382.402265 58.89024 
L 382.73053 58.4064 
L 383.058796 58.4064 
L 383.387061 58.16448 
L 383.715327 58.16448 
L 384.043592 57.92256 
L 385.028389 57.92256 
L 385.356654 57.68064 
L 386.341451 57.68064 
L 386.669716 57.1968 
L 386.997981 56.95488 
L 387.982778 56.95488 
L 388.311043 56.71296 
L 388.967574 56.71296 
L 389.29584 56.47104 
L 390.280636 56.47104 
L 390.608902 56.22912 
L 391.265432 56.22912 
L 391.593698 55.9872 
L 392.250229 55.9872 
L 392.90676 55.50336 
L 393.563291 55.50336 
L 393.891556 55.26144 
L 394.548087 55.26144 
L 394.876353 54.7776 
L 395.532884 54.7776 
L 395.861149 54.53568 
L 396.51768 54.53568 
L 396.845945 54.29376 
L 397.174211 54.29376 
L 397.502476 54.05184 
L 398.159007 54.05184 
L 398.487273 53.568 
L 398.487273 53.568 
" clip-path="url(#p6ee7de3515)" style="fill: none; stroke: #ff0000; stroke-linecap: square"/>
   </g>
   <g id="line2d_14">
    <path d="M 73.832727 295.488 
L 74.160993 295.488 
L 74.489258 294.492444 
L 75.145789 290.510222 
L 75.474055 287.523556 
L 75.80232 278.563556 
L 76.130586 264.625778 
L 76.458851 257.656889 
L 76.787116 241.728 
L 77.115382 237.745778 
L 77.771913 216.839111 
L 78.100178 203.896889 
L 78.428444 196.928 
L 79.084975 175.025778 
L 79.41324 170.048 
L 82.039364 105.336889 
L 82.695895 79.452444 
L 83.680691 67.505778 
L 84.008957 66.510222 
L 84.665488 59.541333 
L 104.03315 59.541333 
L 104.361416 58.545778 
L 111.25499 58.545778 
L 111.583256 57.550222 
L 112.896318 57.550222 
L 113.224583 56.554667 
L 123.072547 56.554667 
L 123.400813 55.559111 
L 124.057344 55.559111 
L 124.385609 54.563556 
L 131.279184 54.563556 
L 131.607449 53.568 
L 398.487273 53.568 
L 398.487273 53.568 
" clip-path="url(#p6ee7de3515)" style="fill: none; stroke-dasharray: 1.85,0.8; stroke-dashoffset: 0; stroke: #008000; stroke-width: 0.5"/>
   </g>
   <g id="line2d_15">
    <path d="M 73.832727 295.488 
L 74.160993 295.488 
L 74.489258 293.488661 
L 75.145789 291.489322 
L 75.80232 274.494942 
L 76.130586 265.497917 
L 76.458851 260.49957 
L 77.115382 236.507504 
L 78.100178 187.523702 
L 78.428444 182.525355 
L 79.084975 160.532628 
L 80.069771 131.542215 
L 81.054568 100.552463 
L 81.382833 91.555438 
L 81.711098 87.55676 
L 82.039364 80.559074 
L 82.367629 76.560397 
L 82.695895 70.56238 
L 83.02416 68.563041 
L 83.352426 67.563372 
L 83.680691 67.563372 
L 84.008957 65.564033 
L 84.337222 65.564033 
L 84.665488 64.564364 
L 84.993753 62.565025 
L 85.650284 62.565025 
L 85.978549 60.565686 
L 93.856921 60.565686 
L 94.185186 59.566017 
L 99.765699 59.566017 
L 100.093965 58.566347 
L 102.720088 58.566347 
L 103.048354 57.566678 
L 105.674477 57.566678 
L 106.002743 56.567008 
L 115.850707 56.567008 
L 116.178972 55.567339 
L 117.492034 55.567339 
L 117.8203 54.567669 
L 123.072547 54.567669 
L 123.400813 53.568 
L 398.487273 53.568 
L 398.487273 53.568 
" clip-path="url(#p6ee7de3515)" style="fill: none; stroke-dasharray: 1.85,0.8; stroke-dashoffset: 0; stroke: #0000ff; stroke-width: 0.5"/>
   </g>
   <g id="line2d_16">
    <path d="M 73.832727 295.488 
L 74.817524 295.488 
L 75.474055 286.758928 
L 77.115382 228.149443 
L 79.084975 133.37666 
L 79.741506 105.942433 
L 80.069771 104.695423 
L 80.398037 100.954392 
L 80.726302 93.47233 
L 81.054568 90.978309 
L 81.711098 79.755216 
L 82.039364 74.767175 
L 82.367629 66.038103 
L 82.695895 64.791093 
L 83.02416 62.297072 
L 83.352426 61.050062 
L 84.008957 61.050062 
L 84.337222 59.803052 
L 85.322019 59.803052 
L 85.978549 57.309031 
L 86.306815 57.309031 
L 86.63508 56.062021 
L 87.619877 56.062021 
L 87.948142 54.81501 
L 92.215593 54.81501 
L 92.543859 53.568 
L 398.487273 53.568 
L 398.487273 53.568 
" clip-path="url(#p6ee7de3515)" style="fill: none; stroke-dasharray: 1.85,0.8; stroke-dashoffset: 0; stroke: #bf00bf; stroke-width: 0.5"/>
   </g>
   <g id="line2d_17">
    <path d="M 73.832727 295.488 
L 78.100178 295.488 
L 78.428444 294.734355 
L 78.756709 293.227065 
L 79.084975 293.227065 
L 79.41324 290.966131 
L 79.741506 290.212486 
L 80.069771 288.705196 
L 80.398037 288.705196 
L 80.726302 287.951551 
L 81.711098 287.951551 
L 82.039364 287.197907 
L 86.306815 287.197907 
L 86.63508 286.444262 
L 87.619877 286.444262 
L 88.604673 284.183327 
L 90.246001 284.183327 
L 90.574266 283.429682 
L 92.543859 283.429682 
L 92.872124 282.676037 
L 93.20039 282.676037 
L 93.528655 281.922393 
L 94.841717 281.922393 
L 95.169983 281.168748 
L 97.139575 281.168748 
L 97.467841 280.415103 
L 98.452637 280.415103 
L 98.780903 278.907813 
L 100.750495 278.907813 
L 101.407026 277.400523 
L 102.391823 277.400523 
L 103.048354 275.893234 
L 103.376619 275.893234 
L 103.704885 275.139589 
L 105.017947 275.139589 
L 105.346212 274.385944 
L 106.002743 274.385944 
L 106.331008 272.878654 
L 106.659274 272.125009 
L 107.64407 272.125009 
L 107.972336 270.61772 
L 109.613663 270.61772 
L 109.941928 269.864075 
L 110.926725 269.864075 
L 111.25499 267.60314 
L 112.896318 267.60314 
L 113.224583 266.849495 
L 113.881114 266.849495 
L 114.20938 266.09585 
L 116.507238 266.09585 
L 116.835503 264.588561 
L 117.163769 264.588561 
L 117.8203 263.081271 
L 118.805096 263.081271 
L 119.133362 262.327626 
L 122.416016 262.327626 
L 122.744282 260.820336 
L 124.385609 260.820336 
L 124.713874 260.066692 
L 125.698671 260.066692 
L 126.355202 258.559402 
L 126.683467 257.052112 
L 127.011733 256.298467 
L 127.668264 256.298467 
L 127.996529 255.544822 
L 128.324795 254.037533 
L 129.637856 254.037533 
L 129.966122 253.283888 
L 131.607449 253.283888 
L 131.935715 251.776598 
L 132.26398 251.776598 
L 132.592246 251.022953 
L 133.905307 251.022953 
L 135.218369 248.008374 
L 135.546635 248.008374 
L 136.203166 246.501084 
L 136.531431 244.993794 
L 136.859697 244.24015 
L 137.516228 244.24015 
L 138.172759 242.73286 
L 139.157555 242.73286 
L 139.48582 241.979215 
L 141.455413 241.979215 
L 141.783679 241.22557 
L 143.096741 241.22557 
L 143.425006 240.471925 
L 144.081537 240.471925 
L 144.409802 239.71828 
L 145.394599 239.71828 
L 145.722864 238.964636 
L 146.05113 238.964636 
L 146.379395 238.210991 
L 148.348988 238.210991 
L 148.677253 237.457346 
L 150.318581 237.457346 
L 150.646846 236.703701 
L 150.975112 236.703701 
L 151.303377 235.196411 
L 152.616439 235.196411 
L 152.944704 234.442766 
L 153.27297 234.442766 
L 153.601235 233.689121 
L 155.242563 233.689121 
L 155.570828 232.935477 
L 156.227359 232.935477 
L 156.555625 232.181832 
L 158.853483 232.181832 
L 159.181748 231.428187 
L 159.838279 231.428187 
L 160.49481 229.920897 
L 161.151341 229.920897 
L 161.479607 229.167252 
L 163.777465 229.167252 
L 164.10573 228.413607 
L 165.090527 228.413607 
L 165.418792 227.659963 
L 165.747058 227.659963 
L 166.075323 226.906318 
L 167.060119 226.906318 
L 167.388385 226.152673 
L 168.373181 226.152673 
L 168.701447 225.399028 
L 169.029712 225.399028 
L 169.357978 223.891738 
L 171.327571 223.891738 
L 171.655836 223.138093 
L 172.968898 223.138093 
L 173.297163 222.384449 
L 174.610225 222.384449 
L 174.938491 221.630804 
L 175.266756 221.630804 
L 175.595022 220.877159 
L 176.251553 220.877159 
L 176.579818 220.123514 
L 177.89288 220.123514 
L 178.549411 218.616224 
L 179.862473 218.616224 
L 180.190738 217.862579 
L 180.847269 217.862579 
L 181.175535 217.108935 
L 181.5038 217.108935 
L 181.832065 216.35529 
L 183.473393 216.35529 
L 183.801658 215.601645 
L 184.458189 215.601645 
L 184.786455 214.848 
L 186.099516 214.848 
L 186.427782 214.094355 
L 187.740844 214.094355 
L 188.069109 213.34071 
L 189.710437 213.34071 
L 190.038702 211.833421 
L 190.695233 211.833421 
L 191.023498 211.079776 
L 191.351764 211.079776 
L 191.680029 210.326131 
L 192.993091 210.326131 
L 193.321357 209.572486 
L 193.649622 209.572486 
L 193.977888 208.818841 
L 196.604011 208.818841 
L 196.932277 208.065196 
L 197.260542 208.065196 
L 197.588808 207.311551 
L 198.573604 207.311551 
L 198.90187 206.557907 
L 199.230135 206.557907 
L 199.558401 205.804262 
L 201.199728 205.804262 
L 201.527993 205.050617 
L 202.841055 205.050617 
L 203.169321 204.296972 
L 204.482383 204.296972 
L 204.810648 202.789682 
L 206.12371 202.789682 
L 206.451975 202.036037 
L 207.436772 202.036037 
L 207.765037 201.282393 
L 208.093303 201.282393 
L 208.421568 200.528748 
L 209.73463 200.528748 
L 210.062895 199.775103 
L 211.047692 199.775103 
L 211.375957 199.021458 
L 212.360754 199.021458 
L 212.689019 197.514168 
L 213.673816 197.514168 
L 214.330347 196.006879 
L 215.315143 196.006879 
L 215.643408 195.253234 
L 215.971674 195.253234 
L 216.299939 194.499589 
L 216.95647 194.499589 
L 217.613001 192.992299 
L 217.941267 192.992299 
L 218.269532 192.238654 
L 220.239125 192.238654 
L 220.56739 191.485009 
L 221.223921 191.485009 
L 221.552187 190.731364 
L 222.208718 190.731364 
L 222.865249 189.224075 
L 225.163107 189.224075 
L 225.491372 188.47043 
L 227.1327 188.47043 
L 227.460965 186.96314 
L 229.430558 186.96314 
L 229.758823 186.209495 
L 232.056682 186.209495 
L 232.713213 184.702206 
L 233.698009 184.702206 
L 234.35454 183.194916 
L 235.995867 183.194916 
L 236.324133 182.441271 
L 236.652398 180.933981 
L 237.308929 180.933981 
L 237.96546 179.426692 
L 239.606787 179.426692 
L 239.935053 177.919402 
L 241.57638 177.919402 
L 241.904646 177.165757 
L 243.545973 177.165757 
L 243.874238 176.412112 
L 246.172097 176.412112 
L 246.500362 174.904822 
L 247.813424 174.904822 
L 248.141689 174.151178 
L 249.126486 174.151178 
L 249.454751 173.397533 
L 249.783017 173.397533 
L 250.111282 171.890243 
L 251.75261 171.890243 
L 252.080875 171.136598 
L 252.737406 171.136598 
L 253.065671 170.382953 
L 254.378733 170.382953 
L 254.706999 169.629308 
L 255.691795 169.629308 
L 256.020061 168.875664 
L 257.989653 168.875664 
L 258.317919 168.122019 
L 259.959246 168.122019 
L 260.287512 167.368374 
L 260.944043 167.368374 
L 261.272308 166.614729 
L 261.600574 166.614729 
L 261.928839 165.861084 
L 264.226697 165.861084 
L 264.554963 165.107439 
L 265.211494 165.107439 
L 265.539759 164.353794 
L 268.165883 164.353794 
L 268.494148 163.60015 
L 271.120272 163.60015 
L 271.448538 162.846505 
L 272.105068 162.846505 
L 272.761599 161.339215 
L 274.731192 161.339215 
L 275.059458 160.58557 
L 276.700785 160.58557 
L 277.02905 159.831925 
L 278.670378 159.831925 
L 278.998643 159.07828 
L 280.639971 159.07828 
L 281.296502 156.063701 
L 282.609563 156.063701 
L 282.937829 154.556411 
L 284.579156 154.556411 
L 285.235687 153.049121 
L 286.548749 153.049121 
L 286.877014 152.295477 
L 288.846607 152.295477 
L 289.174873 151.541832 
L 289.831404 151.541832 
L 290.487935 150.034542 
L 292.785793 150.034542 
L 293.114058 149.280897 
L 293.770589 149.280897 
L 294.098855 148.527252 
L 296.068447 148.527252 
L 296.396713 147.773607 
L 297.053244 147.773607 
L 297.381509 147.019963 
L 300.335899 147.019963 
L 300.664164 146.266318 
L 302.305491 146.266318 
L 302.633757 145.512673 
L 303.290288 145.512673 
L 303.618553 144.759028 
L 306.244677 144.759028 
L 306.572942 144.005383 
L 308.21427 144.005383 
L 308.542535 143.251738 
L 308.870801 143.251738 
L 309.527332 141.744449 
L 310.183862 141.744449 
L 310.512128 140.990804 
L 311.496924 140.990804 
L 311.82519 140.237159 
L 313.466517 140.237159 
L 313.794783 139.483514 
L 314.451314 139.483514 
L 314.779579 138.729869 
L 315.107844 138.729869 
L 315.43611 137.976224 
L 316.749172 137.976224 
L 317.077437 137.222579 
L 317.733968 137.222579 
L 318.390499 135.71529 
L 318.718765 135.71529 
L 319.04703 134.961645 
L 320.360092 134.961645 
L 321.016623 133.454355 
L 321.344888 133.454355 
L 321.673154 132.70071 
L 322.65795 132.70071 
L 322.986216 131.947065 
L 323.314481 131.947065 
L 323.642747 131.193421 
L 323.971012 131.193421 
L 324.299278 130.439776 
L 325.940605 130.439776 
L 326.26887 129.686131 
L 326.597136 129.686131 
L 326.925401 128.932486 
L 327.581932 128.932486 
L 327.910198 128.178841 
L 328.566729 128.178841 
L 328.894994 127.425196 
L 329.223259 127.425196 
L 329.87979 125.917907 
L 330.208056 125.917907 
L 330.536321 125.164262 
L 331.192852 125.164262 
L 331.521118 124.410617 
L 331.849383 124.410617 
L 332.177649 122.903327 
L 333.818976 122.903327 
L 334.475507 121.396037 
L 335.460303 121.396037 
L 335.788569 120.642393 
L 336.116834 120.642393 
L 336.4451 119.888748 
L 336.773365 118.381458 
L 337.758162 118.381458 
L 338.086427 117.627813 
L 338.414693 117.627813 
L 339.071223 116.120523 
L 340.05602 116.120523 
L 340.384285 115.366879 
L 340.712551 113.859589 
L 341.040816 113.105944 
L 341.697347 113.105944 
L 342.353878 111.598654 
L 342.682144 111.598654 
L 343.010409 110.845009 
L 343.66694 110.845009 
L 343.995205 110.091364 
L 344.651736 110.091364 
L 344.980002 109.33772 
L 345.308267 109.33772 
L 345.636533 107.076785 
L 346.293064 107.076785 
L 346.621329 106.32314 
L 347.27786 106.32314 
L 347.606126 104.81585 
L 348.590922 104.81585 
L 348.919187 103.308561 
L 349.247453 102.554916 
L 349.903984 102.554916 
L 350.88878 100.293981 
L 351.873577 100.293981 
L 352.858373 98.033047 
L 353.186638 98.033047 
L 353.514904 97.279402 
L 353.843169 97.279402 
L 354.171435 96.525757 
L 354.827966 96.525757 
L 355.156231 95.772112 
L 355.484497 95.772112 
L 355.812762 95.018467 
L 356.141028 93.511178 
L 357.45409 93.511178 
L 357.782355 92.757533 
L 358.767151 92.757533 
L 359.095417 91.250243 
L 359.423682 91.250243 
L 359.751948 90.496598 
L 360.080213 90.496598 
L 360.408479 89.742953 
L 360.736744 89.742953 
L 361.06501 88.235664 
L 361.721541 88.235664 
L 362.049806 87.482019 
L 362.378072 87.482019 
L 362.706337 86.728374 
L 364.67593 86.728374 
L 365.004195 85.974729 
L 365.332461 85.974729 
L 365.660726 85.221084 
L 366.317257 85.221084 
L 366.645523 84.467439 
L 367.302053 84.467439 
L 367.958584 82.96015 
L 368.615115 82.96015 
L 368.943381 82.206505 
L 369.928177 82.206505 
L 370.256443 81.45286 
L 370.584708 81.45286 
L 370.912974 80.699215 
L 371.89777 80.699215 
L 372.226035 79.191925 
L 373.210832 79.191925 
L 373.539097 78.43828 
L 374.195628 78.43828 
L 374.523894 77.684636 
L 374.852159 77.684636 
L 375.180425 76.930991 
L 375.50869 76.930991 
L 375.836956 76.177346 
L 376.493487 76.177346 
L 377.806548 73.162766 
L 378.791345 73.162766 
L 379.447876 71.655477 
L 380.104407 71.655477 
L 380.432672 70.901832 
L 381.417469 70.901832 
L 381.745734 70.148187 
L 382.402265 70.148187 
L 382.73053 68.640897 
L 383.058796 68.640897 
L 383.387061 67.887252 
L 383.715327 67.887252 
L 384.043592 67.133607 
L 385.028389 67.133607 
L 385.356654 66.379963 
L 386.341451 66.379963 
L 386.669716 64.872673 
L 386.997981 64.119028 
L 387.982778 64.119028 
L 388.311043 63.365383 
L 388.967574 63.365383 
L 389.29584 62.611738 
L 390.280636 62.611738 
L 390.608902 61.858093 
L 391.265432 61.858093 
L 391.593698 61.104449 
L 392.250229 61.104449 
L 392.90676 59.597159 
L 393.563291 59.597159 
L 393.891556 58.843514 
L 394.548087 58.843514 
L 394.876353 57.336224 
L 395.532884 57.336224 
L 395.861149 56.582579 
L 396.51768 56.582579 
L 396.845945 55.828935 
L 397.174211 55.828935 
L 397.502476 55.07529 
L 398.159007 55.07529 
L 398.487273 53.568 
L 398.487273 53.568 
" clip-path="url(#p6ee7de3515)" style="fill: none; stroke-dasharray: 1.85,0.8; stroke-dashoffset: 0; stroke: #bfbf00; stroke-width: 0.5"/>
   </g>
   <g id="patch_3">
    <path d="M 57.6 307.584 
L 57.6 41.472 
" style="fill: none; stroke: #000000; stroke-width: 0.8; stroke-linejoin: miter; stroke-linecap: square"/>
   </g>
   <g id="patch_4">
    <path d="M 414.72 307.584 
L 414.72 41.472 
" style="fill: none; stroke: #000000; stroke-width: 0.8; stroke-linejoin: miter; stroke-linecap: square"/>
   </g>
   <g id="patch_5">
    <path d="M 57.6 307.584 
L 414.72 307.584 
" style="fill: none; stroke: #000000; stroke-width: 0.8; stroke-linejoin: miter; stroke-linecap: square"/>
   </g>
   <g id="patch_6">
    <path d="M 57.6 41.472 
L 414.72 41.472 
" style="fill: none; stroke: #000000; stroke-width: 0.8; stroke-linejoin: miter; stroke-linecap: square"/>
   </g>
   <g id="text_15">
    <!-- count=1000, googlenet=100, resnet50=125, squeezenetv1=100, vgg19=75 -->
    <g transform="translate(35.16 35.472)scale(0.12 -0.12)">
     <defs>
      <path id="FangSong-63" d="M 2125 2125 
Q 2125 2200 2137 2225 
Q 2150 2250 2175 2325 
Q 2200 2425 2075 2562 
Q 1950 2700 1650 2700 
Q 1275 2700 1012 2337 
Q 750 1975 750 1375 
Q 750 825 975 487 
Q 1200 150 1725 150 
Q 2075 150 2312 375 
Q 2550 600 2650 900 
L 2775 850 
Q 2675 475 2400 212 
Q 2125 -50 1650 -50 
Q 1050 -50 700 325 
Q 350 700 350 1400 
Q 350 2025 725 2437 
Q 1100 2850 1700 2850 
Q 2125 2850 2362 2625 
Q 2600 2400 2600 2175 
Q 2600 2025 2537 1962 
Q 2475 1900 2350 1900 
Q 2250 1900 2187 1962 
Q 2125 2025 2125 2125 
z
" transform="scale(0.015625)"/>
      <path id="FangSong-6f" d="M 2875 1400 
Q 2875 775 2500 362 
Q 2125 -50 1575 -50 
Q 1000 -50 637 375 
Q 275 800 275 1400 
Q 275 1950 637 2400 
Q 1000 2850 1575 2850 
Q 2175 2850 2525 2400 
Q 2875 1950 2875 1400 
z
M 675 1375 
Q 675 725 937 412 
Q 1200 100 1575 100 
Q 2000 100 2237 437 
Q 2475 775 2475 1375 
Q 2475 2025 2212 2362 
Q 1950 2700 1575 2700 
Q 1225 2700 950 2362 
Q 675 2025 675 1375 
z
" transform="scale(0.015625)"/>
      <path id="FangSong-75" d="M 1425 225 
Q 1725 225 1937 375 
Q 2150 525 2250 850 
L 2250 2425 
Q 2250 2525 2200 2587 
Q 2150 2650 2025 2650 
L 1875 2650 
L 1875 2800 
L 2025 2800 
Q 2175 2800 2300 2825 
Q 2425 2850 2550 2950 
L 2600 2950 
L 2600 500 
Q 2600 400 2662 350 
Q 2725 300 2825 300 
L 2975 300 
L 2975 150 
L 2825 150 
Q 2700 150 2575 112 
Q 2450 75 2300 0 
L 2250 0 
L 2250 525 
Q 2125 250 1875 112 
Q 1625 -25 1300 -25 
Q 900 -25 700 200 
Q 500 425 500 925 
L 500 2425 
Q 500 2525 450 2587 
Q 400 2650 275 2650 
L 125 2650 
L 125 2800 
L 275 2800 
Q 425 2800 550 2825 
Q 675 2850 800 2950 
L 850 2950 
L 850 875 
Q 850 525 1000 375 
Q 1150 225 1425 225 
z
" transform="scale(0.015625)"/>
      <path id="FangSong-6e" d="M 175 0 
L 175 150 
L 300 150 
Q 425 150 475 200 
Q 525 250 525 350 
L 525 2500 
Q 525 2575 500 2612 
Q 475 2650 400 2650 
L 200 2650 
L 200 2800 
L 375 2800 
Q 500 2800 612 2825 
Q 725 2850 825 2925 
L 875 2925 
L 875 2350 
Q 1100 2600 1325 2725 
Q 1550 2850 1800 2850 
Q 2225 2850 2425 2625 
Q 2625 2400 2625 1950 
L 2625 350 
Q 2625 250 2687 200 
Q 2750 150 2850 150 
L 2975 150 
L 2975 0 
L 1925 0 
L 1925 150 
L 2050 150 
Q 2175 150 2225 200 
Q 2275 250 2275 350 
L 2275 2025 
Q 2275 2325 2150 2487 
Q 2025 2650 1775 2650 
Q 1550 2650 1312 2500 
Q 1075 2350 875 2075 
L 875 350 
Q 875 250 937 200 
Q 1000 150 1100 150 
L 1225 150 
L 1225 0 
L 175 0 
z
" transform="scale(0.015625)"/>
      <path id="FangSong-74" d="M 1475 800 
Q 1475 450 1600 325 
Q 1725 200 1975 200 
Q 2225 200 2375 362 
Q 2525 525 2575 825 
L 2700 775 
Q 2650 425 2437 200 
Q 2225 -25 1875 -25 
Q 1500 -25 1312 200 
Q 1125 425 1125 900 
L 1125 2650 
L 375 2650 
L 375 2800 
L 575 2800 
Q 875 2800 1062 2987 
Q 1250 3175 1300 3575 
L 1325 3775 
L 1475 3775 
L 1475 2800 
L 2475 2800 
L 2475 2650 
L 1475 2650 
L 1475 800 
z
" transform="scale(0.015625)"/>
      <path id="FangSong-3d" d="M 175 2725 
L 175 2950 
L 2950 2950 
L 2950 2725 
L 175 2725 
z
M 175 1450 
L 175 1675 
L 2950 1675 
L 2950 1450 
L 175 1450 
z
" transform="scale(0.015625)"/>
      <path id="FangSong-2c" d="M 1325 75 
Q 1200 25 1100 75 
Q 1000 125 962 237 
Q 925 350 925 437 
Q 925 525 987 612 
Q 1050 700 1150 737 
Q 1250 775 1425 725 
Q 1600 675 1650 500 
Q 1700 325 1662 150 
Q 1625 -25 1525 -200 
Q 1425 -375 1312 -475 
Q 1200 -575 1025 -675 
L 950 -575 
Q 1100 -450 1187 -312 
Q 1275 -175 1325 75 
z
" transform="scale(0.015625)"/>
      <path id="FangSong-20" transform="scale(0.015625)"/>
      <path id="FangSong-67" d="M 850 1875 
Q 850 1575 1025 1362 
Q 1200 1150 1500 1150 
Q 1825 1150 1987 1337 
Q 2150 1525 2150 1875 
Q 2150 2300 1962 2487 
Q 1775 2675 1500 2675 
Q 1225 2675 1037 2487 
Q 850 2300 850 1875 
z
M 2075 525 
Q 2450 475 2625 312 
Q 2800 150 2800 -125 
Q 2800 -500 2487 -725 
Q 2175 -950 1500 -950 
Q 975 -950 650 -737 
Q 325 -525 325 -250 
Q 325 -75 450 100 
Q 575 275 850 375 
Q 700 450 612 537 
Q 525 625 525 750 
Q 525 900 625 1012 
Q 725 1125 875 1200 
Q 725 1325 612 1500 
Q 500 1675 500 1875 
Q 500 2250 762 2537 
Q 1025 2825 1500 2825 
Q 1700 2825 1887 2775 
Q 2075 2725 2200 2600 
Q 2375 2725 2512 2787 
Q 2650 2850 2750 2850 
Q 2875 2850 2925 2762 
Q 2975 2675 2975 2600 
Q 2975 2500 2937 2437 
Q 2900 2375 2800 2375 
Q 2725 2375 2675 2412 
Q 2625 2450 2600 2525 
Q 2575 2600 2487 2587 
Q 2400 2575 2300 2500 
Q 2400 2400 2450 2225 
Q 2500 2050 2500 1875 
Q 2500 1575 2262 1287 
Q 2025 1000 1500 1000 
Q 1350 1000 1225 1037 
Q 1100 1075 1025 1125 
Q 925 1075 875 1000 
Q 825 925 825 875 
Q 825 775 875 725 
Q 925 675 1025 675 
Q 1350 625 1612 587 
Q 1875 550 2075 525 
z
M 1050 325 
Q 825 225 737 87 
Q 650 -50 650 -250 
Q 650 -450 875 -625 
Q 1100 -800 1550 -800 
Q 1975 -800 2225 -662 
Q 2475 -525 2475 -250 
Q 2475 -75 2412 25 
Q 2350 125 2225 150 
Q 1975 200 1675 237 
Q 1375 275 1050 325 
z
" transform="scale(0.015625)"/>
      <path id="FangSong-6c" d="M 900 4275 
Q 1125 4275 1325 4325 
Q 1525 4375 1700 4475 
L 1750 4475 
L 1750 350 
Q 1750 250 1812 200 
Q 1875 150 1975 150 
L 2550 150 
L 2550 0 
L 600 0 
L 600 150 
L 1175 150 
Q 1300 150 1350 200 
Q 1400 250 1400 350 
L 1400 3925 
Q 1400 4025 1350 4075 
Q 1300 4125 1175 4125 
L 625 4125 
L 625 4275 
L 900 4275 
z
" transform="scale(0.015625)"/>
      <path id="FangSong-65" d="M 2375 1550 
Q 2400 2100 2187 2387 
Q 1975 2675 1625 2675 
Q 1250 2675 1012 2375 
Q 775 2075 775 1550 
L 2375 1550 
z
M 775 1400 
Q 775 725 1037 437 
Q 1300 150 1725 150 
Q 2050 150 2275 337 
Q 2500 525 2600 800 
L 2725 750 
Q 2650 475 2387 212 
Q 2125 -50 1675 -50 
Q 1100 -50 737 325 
Q 375 700 375 1400 
Q 375 2025 737 2437 
Q 1100 2850 1625 2850 
Q 2100 2850 2450 2525 
Q 2800 2200 2800 1400 
L 775 1400 
z
" transform="scale(0.015625)"/>
      <path id="FangSong-72" d="M 1250 2025 
Q 1500 2425 1787 2637 
Q 2075 2850 2375 2850 
Q 2625 2850 2762 2737 
Q 2900 2625 2900 2475 
Q 2900 2350 2837 2275 
Q 2775 2200 2650 2200 
Q 2525 2200 2462 2275 
Q 2400 2350 2425 2475 
Q 2425 2550 2400 2600 
Q 2375 2650 2250 2650 
Q 2050 2650 1762 2400 
Q 1475 2150 1250 1700 
L 1250 350 
Q 1250 250 1312 200 
Q 1375 150 1475 150 
L 2025 150 
L 2025 0 
L 175 0 
L 175 150 
L 675 150 
Q 800 150 850 200 
Q 900 250 900 350 
L 900 2425 
Q 900 2525 850 2587 
Q 800 2650 675 2650 
L 200 2650 
L 200 2800 
L 400 2800 
Q 575 2800 812 2837 
Q 1050 2875 1175 2925 
L 1250 2925 
L 1250 2025 
z
" transform="scale(0.015625)"/>
      <path id="FangSong-73" d="M 600 2075 
Q 600 2450 887 2650 
Q 1175 2850 1575 2850 
Q 1800 2850 2000 2787 
Q 2200 2725 2275 2725 
Q 2350 2725 2400 2750 
Q 2450 2775 2525 2850 
L 2625 2025 
L 2475 2000 
Q 2375 2325 2137 2512 
Q 1900 2700 1600 2700 
Q 1275 2700 1087 2575 
Q 900 2450 900 2225 
Q 900 2025 987 1912 
Q 1075 1800 1300 1750 
Q 1475 1675 1737 1587 
Q 2000 1500 2225 1400 
Q 2425 1300 2562 1137 
Q 2700 975 2700 775 
Q 2700 400 2437 187 
Q 2175 -25 1675 -25 
Q 1350 -25 1187 37 
Q 1025 100 925 100 
Q 850 100 762 62 
Q 675 25 575 -25 
L 500 900 
L 650 925 
Q 725 525 975 325 
Q 1225 125 1675 125 
Q 2025 125 2212 250 
Q 2400 375 2400 625 
Q 2400 800 2300 912 
Q 2200 1025 2100 1075 
Q 1850 1175 1550 1287 
Q 1250 1400 1025 1500 
Q 800 1600 700 1750 
Q 600 1900 600 2075 
z
" transform="scale(0.015625)"/>
      <path id="FangSong-35" d="M 1700 2750 
Q 2175 2750 2475 2387 
Q 2775 2025 2775 1425 
Q 2775 750 2462 350 
Q 2150 -50 1500 -50 
Q 1050 -50 700 212 
Q 350 475 350 850 
Q 350 1000 437 1112 
Q 525 1225 675 1225 
Q 825 1225 875 1125 
Q 925 1025 925 950 
Q 925 800 850 712 
Q 775 625 775 525 
Q 775 325 1012 225 
Q 1250 125 1525 125 
Q 1925 125 2137 450 
Q 2350 775 2350 1375 
Q 2350 1875 2162 2187 
Q 1975 2500 1600 2500 
Q 1325 2500 1125 2400 
Q 925 2300 750 1975 
L 525 2000 
L 650 4275 
L 2700 4275 
L 2625 3900 
L 825 3900 
L 725 2250 
Q 975 2600 1212 2675 
Q 1450 2750 1700 2750 
z
" transform="scale(0.015625)"/>
      <path id="FangSong-71" d="M 2250 2150 
Q 2150 2375 1975 2512 
Q 1800 2650 1550 2650 
Q 1200 2650 950 2350 
Q 700 2050 700 1325 
Q 700 700 912 437 
Q 1125 175 1450 175 
Q 1725 175 1937 300 
Q 2150 425 2250 725 
L 2250 2150 
z
M 2600 -550 
Q 2600 -675 2662 -725 
Q 2725 -775 2825 -775 
L 2975 -775 
L 2975 -925 
L 1825 -925 
L 1825 -775 
L 2025 -775 
Q 2150 -775 2200 -725 
Q 2250 -675 2250 -550 
L 2250 375 
Q 2100 175 1887 75 
Q 1675 -25 1375 -25 
Q 950 -25 625 337 
Q 300 700 300 1400 
Q 300 2075 675 2450 
Q 1050 2825 1475 2825 
Q 1750 2825 1937 2725 
Q 2125 2625 2275 2475 
L 2500 2800 
L 2600 2800 
L 2600 -550 
z
" transform="scale(0.015625)"/>
      <path id="FangSong-7a" d="M 2725 975 
L 2550 0 
L 400 0 
L 400 125 
L 2125 2650 
L 1200 2650 
Q 975 2650 825 2487 
Q 675 2325 575 1925 
L 425 1950 
L 525 2800 
L 2575 2800 
L 2575 2725 
L 825 150 
L 1775 150 
Q 2100 150 2287 350 
Q 2475 550 2575 1000 
L 2725 975 
z
" transform="scale(0.015625)"/>
      <path id="FangSong-76" d="M 1600 -25 
L 1450 -25 
L 600 2425 
Q 575 2525 500 2587 
Q 425 2650 325 2650 
L 200 2650 
L 200 2800 
L 1275 2800 
L 1275 2650 
L 1175 2650 
Q 1025 2650 987 2575 
Q 950 2500 1000 2325 
L 1600 575 
L 1650 575 
L 2250 2300 
Q 2325 2475 2262 2562 
Q 2200 2650 2050 2650 
L 2000 2650 
L 2000 2800 
L 2900 2800 
L 2900 2650 
L 2850 2650 
Q 2700 2650 2612 2562 
Q 2525 2475 2450 2300 
L 1600 -25 
z
" transform="scale(0.015625)"/>
      <path id="FangSong-39" d="M 675 2950 
Q 675 2400 887 2112 
Q 1100 1825 1425 1825 
Q 1800 1825 2075 2175 
Q 2350 2525 2350 2825 
Q 2350 3425 2150 3787 
Q 1950 4150 1500 4150 
Q 1075 4150 875 3812 
Q 675 3475 675 2950 
z
M 1350 1600 
Q 850 1600 550 1912 
Q 250 2225 250 2925 
Q 250 3525 575 3925 
Q 900 4325 1500 4325 
Q 2125 4325 2475 3825 
Q 2825 3325 2825 2375 
Q 2825 1325 2412 637 
Q 2000 -50 1275 -50 
Q 950 -50 712 100 
Q 475 250 475 500 
Q 475 600 537 700 
Q 600 800 750 800 
Q 900 800 950 687 
Q 1000 575 1000 425 
Q 1000 325 1025 262 
Q 1050 200 1075 175 
Q 1100 150 1162 137 
Q 1225 125 1300 125 
Q 1750 125 2025 625 
Q 2300 1125 2350 2300 
Q 2225 2000 1975 1800 
Q 1725 1600 1350 1600 
z
" transform="scale(0.015625)"/>
      <path id="FangSong-37" d="M 2800 4100 
Q 2275 3250 1962 2437 
Q 1650 1625 1650 1025 
Q 1650 925 1662 737 
Q 1675 550 1675 300 
Q 1675 100 1612 25 
Q 1550 -50 1400 -50 
Q 1275 -50 1187 37 
Q 1100 125 1100 350 
Q 1100 825 1312 1525 
Q 1525 2225 2450 3900 
L 1200 3900 
Q 925 3900 762 3725 
Q 600 3550 525 3200 
L 375 3225 
L 550 4275 
L 2800 4275 
L 2800 4100 
z
" transform="scale(0.015625)"/>
     </defs>
     <use xlink:href="#FangSong-63"/>
     <use xlink:href="#FangSong-6f" x="50"/>
     <use xlink:href="#FangSong-75" x="100"/>
     <use xlink:href="#FangSong-6e" x="150"/>
     <use xlink:href="#FangSong-74" x="200"/>
     <use xlink:href="#FangSong-3d" x="250"/>
     <use xlink:href="#FangSong-31" x="300"/>
     <use xlink:href="#FangSong-30" x="350"/>
     <use xlink:href="#FangSong-30" x="400"/>
     <use xlink:href="#FangSong-30" x="450"/>
     <use xlink:href="#FangSong-2c" x="500"/>
     <use xlink:href="#FangSong-20" x="550"/>
     <use xlink:href="#FangSong-67" x="600"/>
     <use xlink:href="#FangSong-6f" x="650"/>
     <use xlink:href="#FangSong-6f" x="700"/>
     <use xlink:href="#FangSong-67" x="750"/>
     <use xlink:href="#FangSong-6c" x="800"/>
     <use xlink:href="#FangSong-65" x="850"/>
     <use xlink:href="#FangSong-6e" x="900"/>
     <use xlink:href="#FangSong-65" x="950"/>
     <use xlink:href="#FangSong-74" x="1000"/>
     <use xlink:href="#FangSong-3d" x="1050"/>
     <use xlink:href="#FangSong-31" x="1100"/>
     <use xlink:href="#FangSong-30" x="1150"/>
     <use xlink:href="#FangSong-30" x="1200"/>
     <use xlink:href="#FangSong-2c" x="1250"/>
     <use xlink:href="#FangSong-20" x="1300"/>
     <use xlink:href="#FangSong-72" x="1350"/>
     <use xlink:href="#FangSong-65" x="1400"/>
     <use xlink:href="#FangSong-73" x="1450"/>
     <use xlink:href="#FangSong-6e" x="1500"/>
     <use xlink:href="#FangSong-65" x="1550"/>
     <use xlink:href="#FangSong-74" x="1600"/>
     <use xlink:href="#FangSong-35" x="1650"/>
     <use xlink:href="#FangSong-30" x="1700"/>
     <use xlink:href="#FangSong-3d" x="1750"/>
     <use xlink:href="#FangSong-31" x="1800"/>
     <use xlink:href="#FangSong-32" x="1850"/>
     <use xlink:href="#FangSong-35" x="1900"/>
     <use xlink:href="#FangSong-2c" x="1950"/>
     <use xlink:href="#FangSong-20" x="2000"/>
     <use xlink:href="#FangSong-73" x="2050"/>
     <use xlink:href="#FangSong-71" x="2100"/>
     <use xlink:href="#FangSong-75" x="2150"/>
     <use xlink:href="#FangSong-65" x="2200"/>
     <use xlink:href="#FangSong-65" x="2250"/>
     <use xlink:href="#FangSong-7a" x="2300"/>
     <use xlink:href="#FangSong-65" x="2350"/>
     <use xlink:href="#FangSong-6e" x="2400"/>
     <use xlink:href="#FangSong-65" x="2450"/>
     <use xlink:href="#FangSong-74" x="2500"/>
     <use xlink:href="#FangSong-76" x="2550"/>
     <use xlink:href="#FangSong-31" x="2600"/>
     <use xlink:href="#FangSong-3d" x="2650"/>
     <use xlink:href="#FangSong-31" x="2700"/>
     <use xlink:href="#FangSong-30" x="2750"/>
     <use xlink:href="#FangSong-30" x="2800"/>
     <use xlink:href="#FangSong-2c" x="2850"/>
     <use xlink:href="#FangSong-20" x="2900"/>
     <use xlink:href="#FangSong-76" x="2950"/>
     <use xlink:href="#FangSong-67" x="3000"/>
     <use xlink:href="#FangSong-67" x="3050"/>
     <use xlink:href="#FangSong-31" x="3100"/>
     <use xlink:href="#FangSong-39" x="3150"/>
     <use xlink:href="#FangSong-3d" x="3200"/>
     <use xlink:href="#FangSong-37" x="3250"/>
     <use xlink:href="#FangSong-35" x="3300"/>
    </g>
   </g>
   <g id="legend_1">
    <g id="patch_7">
     <path d="M 315.72 302.584 
L 407.72 302.584 
Q 409.72 302.584 409.72 300.584 
L 409.72 234.279312 
Q 409.72 232.279312 407.72 232.279312 
L 315.72 232.279312 
Q 313.72 232.279312 313.72 234.279312 
L 313.72 300.584 
Q 313.72 302.584 315.72 302.584 
z
" style="fill: #ffffff; opacity: 0.8; stroke: #cccccc; stroke-linejoin: miter"/>
    </g>
    <g id="line2d_18">
     <path d="M 317.72 239.779312 
L 327.72 239.779312 
L 337.72 239.779312 
" style="fill: none; stroke: #ff0000; stroke-linecap: square"/>
    </g>
    <g id="text_16">
     <!-- total -->
     <g transform="translate(345.72 243.279312)scale(0.1 -0.1)">
      <defs>
       <path id="FangSong-61" d="M 1200 -25 
Q 750 -25 500 187 
Q 250 400 250 675 
Q 250 1125 637 1412 
Q 1025 1700 2175 1825 
L 2175 2125 
Q 2175 2375 2062 2537 
Q 1950 2700 1550 2700 
Q 1125 2700 950 2562 
Q 775 2425 825 2275 
Q 875 2175 825 2075 
Q 775 1975 625 1975 
Q 525 1975 462 2037 
Q 400 2100 400 2225 
Q 400 2450 725 2650 
Q 1050 2850 1525 2850 
Q 2025 2850 2275 2662 
Q 2525 2475 2525 2125 
L 2525 475 
Q 2525 275 2562 237 
Q 2600 200 2700 200 
Q 2825 200 2875 312 
Q 2925 425 2925 625 
L 3050 625 
Q 3050 275 2925 137 
Q 2800 0 2600 0 
Q 2425 0 2325 75 
Q 2225 150 2175 325 
Q 1925 150 1712 62 
Q 1500 -25 1200 -25 
z
M 675 750 
Q 675 525 812 337 
Q 950 150 1250 150 
Q 1475 150 1700 237 
Q 1925 325 2175 500 
L 2175 1675 
Q 1325 1575 1000 1337 
Q 675 1100 675 750 
z
" transform="scale(0.015625)"/>
      </defs>
      <use xlink:href="#FangSong-74"/>
      <use xlink:href="#FangSong-6f" x="50"/>
      <use xlink:href="#FangSong-74" x="100"/>
      <use xlink:href="#FangSong-61" x="150"/>
      <use xlink:href="#FangSong-6c" x="200"/>
     </g>
    </g>
    <g id="line2d_19">
     <path d="M 317.72 253.224625 
L 327.72 253.224625 
L 337.72 253.224625 
" style="fill: none; stroke-dasharray: 1.85,0.8; stroke-dashoffset: 0; stroke: #008000; stroke-width: 0.5"/>
    </g>
    <g id="text_17">
     <!-- squeezenetv1 -->
     <g transform="translate(345.72 256.724625)scale(0.1 -0.1)">
      <use xlink:href="#FangSong-73"/>
      <use xlink:href="#FangSong-71" x="50"/>
      <use xlink:href="#FangSong-75" x="100"/>
      <use xlink:href="#FangSong-65" x="150"/>
      <use xlink:href="#FangSong-65" x="200"/>
      <use xlink:href="#FangSong-7a" x="250"/>
      <use xlink:href="#FangSong-65" x="300"/>
      <use xlink:href="#FangSong-6e" x="350"/>
      <use xlink:href="#FangSong-65" x="400"/>
      <use xlink:href="#FangSong-74" x="450"/>
      <use xlink:href="#FangSong-76" x="500"/>
      <use xlink:href="#FangSong-31" x="550"/>
     </g>
    </g>
    <g id="line2d_20">
     <path d="M 317.72 266.669937 
L 327.72 266.669937 
L 337.72 266.669937 
" style="fill: none; stroke-dasharray: 1.85,0.8; stroke-dashoffset: 0; stroke: #0000ff; stroke-width: 0.5"/>
    </g>
    <g id="text_18">
     <!-- googlenet -->
     <g transform="translate(345.72 270.169937)scale(0.1 -0.1)">
      <use xlink:href="#FangSong-67"/>
      <use xlink:href="#FangSong-6f" x="50"/>
      <use xlink:href="#FangSong-6f" x="100"/>
      <use xlink:href="#FangSong-67" x="150"/>
      <use xlink:href="#FangSong-6c" x="200"/>
      <use xlink:href="#FangSong-65" x="250"/>
      <use xlink:href="#FangSong-6e" x="300"/>
      <use xlink:href="#FangSong-65" x="350"/>
      <use xlink:href="#FangSong-74" x="400"/>
     </g>
    </g>
    <g id="line2d_21">
     <path d="M 317.72 280.154312 
L 327.72 280.154312 
L 337.72 280.154312 
" style="fill: none; stroke-dasharray: 1.85,0.8; stroke-dashoffset: 0; stroke: #bf00bf; stroke-width: 0.5"/>
    </g>
    <g id="text_19">
     <!-- resnet50 -->
     <g transform="translate(345.72 283.654312)scale(0.1 -0.1)">
      <use xlink:href="#FangSong-72"/>
      <use xlink:href="#FangSong-65" x="50"/>
      <use xlink:href="#FangSong-73" x="100"/>
      <use xlink:href="#FangSong-6e" x="150"/>
      <use xlink:href="#FangSong-65" x="200"/>
      <use xlink:href="#FangSong-74" x="250"/>
      <use xlink:href="#FangSong-35" x="300"/>
      <use xlink:href="#FangSong-30" x="350"/>
     </g>
    </g>
    <g id="line2d_22">
     <path d="M 317.72 293.599625 
L 327.72 293.599625 
L 337.72 293.599625 
" style="fill: none; stroke-dasharray: 1.85,0.8; stroke-dashoffset: 0; stroke: #bfbf00; stroke-width: 0.5"/>
    </g>
    <g id="text_20">
     <!-- vgg19 -->
     <g transform="translate(345.72 297.099625)scale(0.1 -0.1)">
      <use xlink:href="#FangSong-76"/>
      <use xlink:href="#FangSong-67" x="50"/>
      <use xlink:href="#FangSong-67" x="100"/>
      <use xlink:href="#FangSong-31" x="150"/>
      <use xlink:href="#FangSong-39" x="200"/>
     </g>
    </g>
   </g>
  </g>
 </g>
 <defs>
  <clipPath id="p6ee7de3515">
   <rect x="57.6" y="41.472" width="357.12" height="266.112"/>
  </clipPath>
 </defs>
</svg>
