<?xml version="1.0" encoding="utf-8" standalone="no"?>
<!DOCTYPE svg PUBLIC "-//W3C//DTD SVG 1.1//EN"
  "http://www.w3.org/Graphics/SVG/1.1/DTD/svg11.dtd">
<svg xmlns:xlink="http://www.w3.org/1999/xlink" width="460.8pt" height="345.6pt" viewBox="0 0 460.8 345.6" xmlns="http://www.w3.org/2000/svg" version="1.1">
 <metadata>
  <rdf:RDF xmlns:dc="http://purl.org/dc/elements/1.1/" xmlns:cc="http://creativecommons.org/ns#" xmlns:rdf="http://www.w3.org/1999/02/22-rdf-syntax-ns#">
   <cc:Work>
    <dc:type rdf:resource="http://purl.org/dc/dcmitype/StillImage"/>
    <dc:date>2022-12-24T05:58:47.259253</dc:date>
    <dc:format>image/svg+xml</dc:format>
    <dc:creator>
     <cc:Agent>
      <dc:title>Matplotlib v3.5.2, https://matplotlib.org/</dc:title>
     </cc:Agent>
    </dc:creator>
   </cc:Work>
  </rdf:RDF>
 </metadata>
 <defs>
  <style type="text/css">*{stroke-linejoin: round; stroke-linecap: butt}</style>
 </defs>
 <g id="figure_1">
  <g id="patch_1">
   <path d="M 0 345.6 
L 460.8 345.6 
L 460.8 0 
L 0 0 
z
" style="fill: #ffffff"/>
  </g>
  <g id="axes_1">
   <g id="patch_2">
    <path d="M 57.6 307.584 
L 414.72 307.584 
L 414.72 41.472 
L 57.6 41.472 
z
" style="fill: #ffffff"/>
   </g>
   <g id="matplotlib.axis_1">
    <g id="xtick_1">
     <g id="line2d_1">
      <defs>
       <path id="maa7de79088" d="M 0 0 
L 0 3.5 
" style="stroke: #000000; stroke-width: 0.8"/>
      </defs>
      <g>
       <use xlink:href="#maa7de79088" x="71.411739" y="307.584" style="stroke: #000000; stroke-width: 0.8"/>
      </g>
     </g>
     <g id="text_1">
      <!-- 0 -->
      <g transform="translate(68.911739 321.576187)scale(0.1 -0.1)">
       <defs>
        <path id="FangSong-30" d="M 1575 4125 
Q 1225 4125 987 3587 
Q 750 3050 750 2150 
Q 750 1200 987 675 
Q 1225 150 1575 150 
Q 1950 150 2162 675 
Q 2375 1200 2375 2150 
Q 2375 3050 2175 3587 
Q 1975 4125 1575 4125 
z
M 1575 -50 
Q 1025 -50 650 525 
Q 275 1100 275 2150 
Q 275 3125 637 3725 
Q 1000 4325 1575 4325 
Q 2125 4325 2487 3750 
Q 2850 3175 2850 2150 
Q 2850 1125 2487 537 
Q 2125 -50 1575 -50 
z
" transform="scale(0.015625)"/>
       </defs>
       <use xlink:href="#FangSong-30"/>
      </g>
     </g>
    </g>
    <g id="xtick_2">
     <g id="line2d_2">
      <g>
       <use xlink:href="#maa7de79088" x="119.831507" y="307.584" style="stroke: #000000; stroke-width: 0.8"/>
      </g>
     </g>
     <g id="text_2">
      <!-- 20 -->
      <g transform="translate(114.831507 321.576187)scale(0.1 -0.1)">
       <defs>
        <path id="FangSong-32" d="M 2300 3225 
Q 2300 3675 2100 3912 
Q 1900 4150 1500 4150 
Q 1200 4150 987 3987 
Q 775 3825 775 3575 
Q 775 3425 862 3325 
Q 950 3225 950 3125 
Q 950 3000 887 2937 
Q 825 2875 700 2875 
Q 550 2875 462 2962 
Q 375 3050 375 3250 
Q 375 3775 750 4050 
Q 1125 4325 1550 4325 
Q 2150 4325 2437 4025 
Q 2725 3725 2725 3275 
Q 2725 2975 2587 2675 
Q 2450 2375 2150 2100 
Q 1425 1400 1037 962 
Q 650 525 575 375 
L 2050 375 
Q 2275 375 2425 550 
Q 2575 725 2625 1075 
L 2775 1075 
L 2625 0 
L 300 0 
L 300 325 
Q 425 550 712 900 
Q 1000 1250 1475 1725 
Q 1900 2150 2100 2525 
Q 2300 2900 2300 3225 
z
" transform="scale(0.015625)"/>
       </defs>
       <use xlink:href="#FangSong-32"/>
       <use xlink:href="#FangSong-30" x="50"/>
      </g>
     </g>
    </g>
    <g id="xtick_3">
     <g id="line2d_3">
      <g>
       <use xlink:href="#maa7de79088" x="168.251275" y="307.584" style="stroke: #000000; stroke-width: 0.8"/>
      </g>
     </g>
     <g id="text_3">
      <!-- 40 -->
      <g transform="translate(163.251275 321.576187)scale(0.1 -0.1)">
       <defs>
        <path id="FangSong-34" d="M 2275 475 
Q 2275 300 2375 225 
Q 2475 150 2650 150 
L 2875 150 
L 2875 0 
L 1225 0 
L 1225 150 
L 1500 150 
Q 1700 150 1787 225 
Q 1875 300 1875 475 
L 1875 1300 
L 200 1300 
L 200 1425 
L 2025 4325 
L 2275 4325 
L 2275 1450 
L 2950 1450 
L 2950 1300 
L 2275 1300 
L 2275 475 
z
M 1850 3700 
L 425 1450 
L 1875 1450 
L 1875 3700 
L 1850 3700 
z
" transform="scale(0.015625)"/>
       </defs>
       <use xlink:href="#FangSong-34"/>
       <use xlink:href="#FangSong-30" x="50"/>
      </g>
     </g>
    </g>
    <g id="xtick_4">
     <g id="line2d_4">
      <g>
       <use xlink:href="#maa7de79088" x="216.671043" y="307.584" style="stroke: #000000; stroke-width: 0.8"/>
      </g>
     </g>
     <g id="text_4">
      <!-- 60 -->
      <g transform="translate(211.671043 321.576187)scale(0.1 -0.1)">
       <defs>
        <path id="FangSong-36" d="M 750 1700 
Q 750 950 1012 537 
Q 1275 125 1650 125 
Q 2025 125 2225 400 
Q 2425 675 2425 1425 
Q 2425 1925 2212 2200 
Q 2000 2475 1700 2475 
Q 1425 2475 1187 2312 
Q 950 2150 750 1700 
z
M 1725 2725 
Q 2325 2725 2587 2325 
Q 2850 1925 2850 1425 
Q 2850 675 2487 312 
Q 2125 -50 1650 -50 
Q 975 -50 625 462 
Q 275 975 275 1950 
Q 275 3100 700 3712 
Q 1125 4325 1850 4325 
Q 2200 4325 2412 4125 
Q 2625 3925 2625 3775 
Q 2625 3625 2562 3550 
Q 2500 3475 2350 3475 
Q 2225 3475 2162 3537 
Q 2100 3600 2100 3725 
Q 2100 3775 2112 3825 
Q 2125 3875 2125 3925 
Q 2125 4025 2050 4087 
Q 1975 4150 1775 4150 
Q 1350 4150 1050 3762 
Q 750 3375 750 2075 
Q 900 2400 1162 2562 
Q 1425 2725 1725 2725 
z
" transform="scale(0.015625)"/>
       </defs>
       <use xlink:href="#FangSong-36"/>
       <use xlink:href="#FangSong-30" x="50"/>
      </g>
     </g>
    </g>
    <g id="xtick_5">
     <g id="line2d_5">
      <g>
       <use xlink:href="#maa7de79088" x="265.090811" y="307.584" style="stroke: #000000; stroke-width: 0.8"/>
      </g>
     </g>
     <g id="text_5">
      <!-- 80 -->
      <g transform="translate(260.090811 321.576187)scale(0.1 -0.1)">
       <defs>
        <path id="FangSong-38" d="M 600 1025 
Q 600 625 862 375 
Q 1125 125 1525 125 
Q 2000 125 2212 375 
Q 2425 625 2425 1000 
Q 2425 1325 2125 1625 
Q 1825 1925 1225 2175 
Q 925 1975 762 1675 
Q 600 1375 600 1025 
z
M 2800 1075 
Q 2800 600 2450 275 
Q 2100 -50 1525 -50 
Q 1000 -50 625 275 
Q 250 600 250 1025 
Q 250 1450 462 1750 
Q 675 2050 1075 2275 
Q 725 2450 537 2712 
Q 350 2975 350 3300 
Q 350 3725 675 4025 
Q 1000 4325 1575 4325 
Q 2100 4325 2425 4025 
Q 2750 3725 2750 3300 
Q 2750 3000 2562 2737 
Q 2375 2475 1975 2275 
Q 2400 2025 2600 1725 
Q 2800 1425 2800 1075 
z
M 2400 3275 
Q 2400 3625 2200 3887 
Q 2000 4150 1575 4150 
Q 1100 4150 900 3900 
Q 700 3650 700 3375 
Q 700 3100 987 2837 
Q 1275 2575 1800 2375 
Q 2100 2525 2250 2750 
Q 2400 2975 2400 3275 
z
" transform="scale(0.015625)"/>
       </defs>
       <use xlink:href="#FangSong-38"/>
       <use xlink:href="#FangSong-30" x="50"/>
      </g>
     </g>
    </g>
    <g id="xtick_6">
     <g id="line2d_6">
      <g>
       <use xlink:href="#maa7de79088" x="313.51058" y="307.584" style="stroke: #000000; stroke-width: 0.8"/>
      </g>
     </g>
     <g id="text_6">
      <!-- 100 -->
      <g transform="translate(306.01058 321.576187)scale(0.1 -0.1)">
       <defs>
        <path id="FangSong-31" d="M 1800 4350 
L 1800 550 
Q 1800 350 1925 250 
Q 2050 150 2275 150 
L 2525 150 
L 2525 0 
L 700 0 
L 700 150 
L 925 150 
Q 1175 150 1287 250 
Q 1400 350 1400 550 
L 1400 3575 
Q 1400 3675 1337 3737 
Q 1275 3800 1150 3800 
L 700 3800 
L 700 3950 
L 925 3950 
Q 1225 3950 1412 4050 
Q 1600 4150 1700 4350 
L 1800 4350 
z
" transform="scale(0.015625)"/>
       </defs>
       <use xlink:href="#FangSong-31"/>
       <use xlink:href="#FangSong-30" x="50"/>
       <use xlink:href="#FangSong-30" x="100"/>
      </g>
     </g>
    </g>
    <g id="xtick_7">
     <g id="line2d_7">
      <g>
       <use xlink:href="#maa7de79088" x="361.930348" y="307.584" style="stroke: #000000; stroke-width: 0.8"/>
      </g>
     </g>
     <g id="text_7">
      <!-- 120 -->
      <g transform="translate(354.430348 321.576187)scale(0.1 -0.1)">
       <use xlink:href="#FangSong-31"/>
       <use xlink:href="#FangSong-32" x="50"/>
       <use xlink:href="#FangSong-30" x="100"/>
      </g>
     </g>
    </g>
    <g id="xtick_8">
     <g id="line2d_8">
      <g>
       <use xlink:href="#maa7de79088" x="410.350116" y="307.584" style="stroke: #000000; stroke-width: 0.8"/>
      </g>
     </g>
     <g id="text_8">
      <!-- 140 -->
      <g transform="translate(402.850116 321.576187)scale(0.1 -0.1)">
       <use xlink:href="#FangSong-31"/>
       <use xlink:href="#FangSong-34" x="50"/>
       <use xlink:href="#FangSong-30" x="100"/>
      </g>
     </g>
    </g>
    <g id="text_9">
     <!-- 响应比 -->
     <g transform="translate(221.16 334.873062)scale(0.1 -0.1)">
      <defs>
       <path id="FangSong-54cd" d="M 2700 -200 
Q 2725 -650 2625 -525 
L 2375 -125 
Q 2500 50 2475 350 
L 2500 3200 
Q 2500 3625 2425 4100 
L 2500 4125 
L 2725 3575 
L 3300 3625 
Q 3550 4225 3675 4637 
Q 3800 5050 3700 5150 
L 3775 5200 
L 4125 4750 
Q 4050 4800 3900 4512 
Q 3750 4225 3500 3650 
L 5275 3850 
L 5425 4125 
L 5725 3850 
L 5575 3650 
Q 5500 -175 5175 -675 
Q 4800 -275 4175 250 
L 4225 350 
L 5050 -175 
Q 5275 525 5325 3625 
L 2725 3325 
L 2700 -200 
z
M 725 3250 
Q 725 3575 625 3925 
L 725 3975 
L 950 3525 
L 1750 3650 
L 1875 3875 
L 2175 3650 
L 2000 3450 
L 1925 2175 
L 2125 1950 
L 1000 1800 
Q 1025 1275 900 1350 
L 650 1750 
Q 775 1850 750 2150 
L 725 3250 
z
M 3550 1250 
Q 3575 950 3500 875 
L 3225 1200 
Q 3300 1350 3300 1525 
L 3275 2325 
Q 3275 2700 3200 2875 
L 3275 2925 
L 3500 2625 
L 4350 2725 
L 4500 2925 
L 4775 2675 
L 4600 2475 
L 4525 1575 
L 4750 1400 
L 3550 1250 
z
M 975 3275 
L 1000 2050 
L 1675 2150 
L 1775 3425 
L 975 3275 
z
M 4350 2475 
L 3500 2375 
L 3525 1500 
L 4275 1575 
L 4350 2475 
z
" transform="scale(0.015625)"/>
       <path id="FangSong-5e94" d="M 1625 4400 
L 1800 3800 
Q 5075 4050 5200 4175 
L 5525 3850 
Q 5200 3900 1825 3550 
Q 1775 2450 1675 1825 
Q 1575 1200 1312 612 
Q 1050 25 500 -600 
L 425 -525 
Q 850 50 1100 675 
Q 1350 1300 1425 1862 
Q 1500 2425 1550 3150 
Q 1600 3875 1550 4375 
L 1625 4400 
z
M 4725 3175 
L 5100 2725 
Q 5000 2800 4750 2112 
Q 4500 1425 4000 150 
Q 5425 225 5400 275 
L 5725 0 
Q 5425 0 3687 -112 
Q 1950 -225 1725 -275 
L 1350 25 
Q 2150 0 3800 125 
Q 4300 1500 4525 2200 
Q 4750 2900 4650 3125 
L 4725 3175 
z
M 2900 1150 
Q 2800 975 2650 725 
Q 2450 1625 2175 2550 
L 2275 2575 
Q 2600 1850 2900 1150 
z
M 3775 1550 
Q 3675 1350 3525 1150 
Q 3475 1600 3075 3050 
L 3150 3075 
Q 3475 2300 3775 1550 
z
M 3500 4100 
Q 3275 4675 3000 5225 
L 3075 5275 
Q 3375 4900 3700 4525 
Q 3600 4325 3500 4100 
z
" transform="scale(0.015625)"/>
       <path id="FangSong-6bd4" d="M 3500 2125 
Q 3925 2425 4487 2975 
Q 5050 3525 4950 3750 
L 5025 3775 
L 5250 3225 
Q 5175 3250 4875 3000 
Q 4575 2750 4287 2525 
Q 4000 2300 3500 1900 
L 3500 575 
Q 3475 -100 4150 -100 
L 4800 -100 
Q 5275 -100 5375 12 
Q 5475 125 5450 1350 
L 5575 1350 
Q 5600 825 5637 412 
Q 5675 0 5800 -175 
Q 5375 -325 4800 -325 
L 4150 -325 
Q 3225 -350 3275 550 
L 3275 4300 
Q 3275 4875 3150 5150 
L 3200 5200 
L 3625 4850 
Q 3475 4825 3500 4250 
L 3500 2125 
z
M 1500 2575 
Q 1900 2625 2337 2712 
Q 2775 2800 2800 2850 
L 3075 2600 
Q 2875 2575 2350 2475 
Q 1825 2375 1775 2325 
L 1500 2525 
L 1500 150 
L 2925 1075 
L 2975 1025 
Q 1550 -75 1375 -350 
L 1200 0 
Q 1275 75 1275 350 
L 1275 3925 
Q 1275 4475 1150 4750 
L 1200 4800 
L 1625 4400 
Q 1475 4375 1500 3925 
L 1500 2575 
z
" transform="scale(0.015625)"/>
      </defs>
      <use xlink:href="#FangSong-54cd"/>
      <use xlink:href="#FangSong-5e94" x="100"/>
      <use xlink:href="#FangSong-6bd4" x="200"/>
     </g>
    </g>
   </g>
   <g id="matplotlib.axis_2">
    <g id="ytick_1">
     <g id="line2d_9">
      <defs>
       <path id="m83ae913148" d="M 0 0 
L -3.5 0 
" style="stroke: #000000; stroke-width: 0.8"/>
      </defs>
      <g>
       <use xlink:href="#m83ae913148" x="57.6" y="295.488" style="stroke: #000000; stroke-width: 0.8"/>
      </g>
     </g>
     <g id="text_10">
      <!-- 0% -->
      <g transform="translate(40.6 298.984094)scale(0.1 -0.1)">
       <defs>
        <path id="FangSong-25" d="M 725 4150 
Q 575 4150 475 3950 
Q 375 3750 375 3200 
Q 375 2575 487 2387 
Q 600 2200 725 2200 
Q 900 2200 987 2425 
Q 1075 2650 1075 3200 
Q 1075 3650 1012 3900 
Q 950 4150 725 4150 
z
M 1400 3175 
Q 1400 2725 1250 2387 
Q 1100 2050 725 2050 
Q 425 2050 237 2350 
Q 50 2650 50 3175 
Q 50 3725 250 4025 
Q 450 4325 725 4325 
Q 1025 4325 1212 4012 
Q 1400 3700 1400 3175 
z
M 2700 1100 
Q 2700 1525 2625 1800 
Q 2550 2075 2350 2075 
Q 2200 2075 2100 1837 
Q 2000 1600 2000 1100 
Q 2000 475 2112 300 
Q 2225 125 2350 125 
Q 2525 125 2612 337 
Q 2700 550 2700 1100 
z
M 3025 1075 
Q 3025 575 2850 262 
Q 2675 -50 2350 -50 
Q 2075 -50 1875 262 
Q 1675 575 1675 1075 
Q 1675 1625 1875 1937 
Q 2075 2250 2350 2250 
Q 2650 2250 2837 1925 
Q 3025 1600 3025 1075 
z
M 2500 4250 
L 700 -50 
L 550 25 
L 2325 4325 
L 2500 4250 
z
" transform="scale(0.015625)"/>
       </defs>
       <use xlink:href="#FangSong-30"/>
       <use xlink:href="#FangSong-25" x="50"/>
      </g>
     </g>
    </g>
    <g id="ytick_2">
     <g id="line2d_10">
      <g>
       <use xlink:href="#m83ae913148" x="57.6" y="247.104" style="stroke: #000000; stroke-width: 0.8"/>
      </g>
     </g>
     <g id="text_11">
      <!-- 20% -->
      <g transform="translate(35.6 250.600094)scale(0.1 -0.1)">
       <use xlink:href="#FangSong-32"/>
       <use xlink:href="#FangSong-30" x="50"/>
       <use xlink:href="#FangSong-25" x="100"/>
      </g>
     </g>
    </g>
    <g id="ytick_3">
     <g id="line2d_11">
      <g>
       <use xlink:href="#m83ae913148" x="57.6" y="198.72" style="stroke: #000000; stroke-width: 0.8"/>
      </g>
     </g>
     <g id="text_12">
      <!-- 40% -->
      <g transform="translate(35.6 202.216094)scale(0.1 -0.1)">
       <use xlink:href="#FangSong-34"/>
       <use xlink:href="#FangSong-30" x="50"/>
       <use xlink:href="#FangSong-25" x="100"/>
      </g>
     </g>
    </g>
    <g id="ytick_4">
     <g id="line2d_12">
      <g>
       <use xlink:href="#m83ae913148" x="57.6" y="150.336" style="stroke: #000000; stroke-width: 0.8"/>
      </g>
     </g>
     <g id="text_13">
      <!-- 60% -->
      <g transform="translate(35.6 153.832094)scale(0.1 -0.1)">
       <use xlink:href="#FangSong-36"/>
       <use xlink:href="#FangSong-30" x="50"/>
       <use xlink:href="#FangSong-25" x="100"/>
      </g>
     </g>
    </g>
    <g id="ytick_5">
     <g id="line2d_13">
      <g>
       <use xlink:href="#m83ae913148" x="57.6" y="101.952" style="stroke: #000000; stroke-width: 0.8"/>
      </g>
     </g>
     <g id="text_14">
      <!-- 80% -->
      <g transform="translate(35.6 105.448094)scale(0.1 -0.1)">
       <use xlink:href="#FangSong-38"/>
       <use xlink:href="#FangSong-30" x="50"/>
       <use xlink:href="#FangSong-25" x="100"/>
      </g>
     </g>
    </g>
    <g id="ytick_6">
     <g id="line2d_14">
      <g>
       <use xlink:href="#m83ae913148" x="57.6" y="53.568" style="stroke: #000000; stroke-width: 0.8"/>
      </g>
     </g>
     <g id="text_15">
      <!-- 100% -->
      <g transform="translate(30.6 57.064094)scale(0.1 -0.1)">
       <use xlink:href="#FangSong-31"/>
       <use xlink:href="#FangSong-30" x="50"/>
       <use xlink:href="#FangSong-30" x="100"/>
       <use xlink:href="#FangSong-25" x="150"/>
      </g>
     </g>
    </g>
    <g id="text_16">
     <!-- 累计完成比例 -->
     <g transform="translate(25.154688 204.528)rotate(-90)scale(0.1 -0.1)">
      <defs>
       <path id="FangSong-7d2f" d="M 4525 4975 
L 4700 5225 
L 5000 4950 
L 4825 4775 
L 4625 3550 
L 4850 3300 
L 3175 3150 
L 3375 2975 
Q 3200 2925 2862 2725 
Q 2525 2525 2075 2275 
L 3475 2500 
Q 3750 2675 3900 2800 
Q 4050 2925 4100 3075 
L 4175 3100 
L 4325 2700 
Q 4200 2675 3500 2237 
Q 2800 1800 2275 1550 
L 4375 1825 
L 3900 2175 
L 4000 2275 
Q 4625 1900 4950 1725 
Q 4975 1475 4925 1225 
Q 4800 1375 4500 1675 
L 3250 1475 
L 3525 1300 
Q 3375 1200 3375 875 
L 3375 25 
Q 3375 -325 3225 -625 
Q 2975 -325 2400 150 
L 2450 250 
L 3050 -75 
Q 3150 -125 3150 0 
L 3150 925 
Q 3150 1300 3125 1450 
Q 1875 1275 1575 1175 
L 1325 1425 
L 1850 1550 
Q 2175 1700 3250 2300 
Q 2075 2100 1875 2000 
L 1575 2250 
L 1800 2300 
Q 2150 2475 3025 3125 
L 2000 3025 
Q 2000 2675 1950 2700 
Q 1900 2725 1650 3025 
Q 1725 3250 1725 3425 
L 1650 4400 
Q 1625 4675 1525 4950 
L 1625 5000 
L 1875 4675 
L 4525 4975 
z
M 3150 3375 
L 3150 3875 
Q 2525 3800 2400 3725 
L 2100 3975 
Q 2500 3975 3150 4075 
L 3150 4600 
L 1900 4450 
L 1975 3250 
L 3150 3375 
z
M 3375 4100 
Q 3950 4175 4025 4225 
L 4275 4000 
Q 3950 3975 3375 3900 
L 3375 3400 
L 4400 3500 
L 4575 4750 
L 3375 4600 
L 3375 4100 
z
M 5450 -75 
Q 4975 325 3875 1025 
L 3950 1125 
Q 4850 700 5350 500 
Q 5425 250 5450 -75 
z
M 800 -250 
Q 1350 75 1825 500 
Q 2300 925 2325 1125 
L 2400 1150 
L 2550 725 
Q 2425 700 2075 425 
Q 1725 150 875 -350 
L 800 -250 
z
" transform="scale(0.015625)"/>
       <path id="FangSong-8ba1" d="M 4075 4200 
Q 4100 4825 3900 5100 
L 3975 5150 
L 4450 4725 
Q 4275 4600 4300 4200 
L 4275 3000 
Q 5525 3200 5575 3250 
L 5950 2950 
Q 5725 2975 4275 2800 
L 4250 -425 
Q 4250 -700 4150 -575 
L 3875 -150 
Q 4050 50 4025 300 
L 4050 2750 
Q 2975 2625 2900 2575 
L 2525 2825 
Q 2850 2825 4050 2975 
L 4075 4200 
z
M 1775 3250 
L 2100 2950 
L 1900 2750 
L 1875 550 
L 2825 1250 
L 2875 1175 
Q 1875 250 1750 -25 
L 1525 275 
Q 1625 375 1650 625 
L 1675 2775 
Q 900 2625 750 2550 
L 425 2800 
Q 850 2825 1650 3000 
L 1775 3250 
z
M 2025 3800 
Q 1825 4300 1325 4950 
L 1375 5025 
Q 1925 4575 2175 4300 
Q 2125 4000 2025 3800 
z
" transform="scale(0.015625)"/>
       <path id="FangSong-5b8c" d="M 5375 2050 
Q 4925 2050 3550 1950 
L 3850 1750 
Q 3725 1600 3700 1375 
L 3675 275 
Q 3650 -125 4075 -175 
L 4925 -175 
Q 5300 -150 5312 62 
Q 5325 275 5325 1025 
L 5425 1025 
Q 5450 750 5475 337 
Q 5500 -75 5700 -275 
Q 5400 -375 5000 -400 
L 4075 -400 
Q 3425 -350 3425 150 
L 3475 1450 
Q 3475 1775 3425 1925 
L 2675 1850 
L 2875 1650 
Q 2750 1550 2600 1200 
Q 2450 850 2025 312 
Q 1600 -225 600 -675 
L 550 -575 
Q 1525 -100 1987 625 
Q 2450 1350 2525 1850 
Q 1550 1775 1500 1725 
L 1150 2025 
Q 1625 2025 3212 2150 
Q 4800 2275 5000 2350 
L 5375 2050 
z
M 1650 3650 
Q 1550 3125 1325 2875 
L 1150 3250 
Q 1450 3425 1575 4400 
L 1675 4400 
L 1675 3900 
L 5025 4150 
L 5175 4400 
L 5525 4075 
Q 5375 4050 4725 3250 
L 4650 3325 
L 4975 3900 
L 1650 3650 
z
M 4475 2975 
Q 4225 2975 3412 2875 
Q 2600 2775 2400 2725 
L 2050 2975 
Q 2575 2975 3200 3075 
Q 3825 3175 4150 3225 
L 4475 2975 
z
M 3550 4575 
Q 3475 4350 3300 4150 
Q 3225 4475 2900 5200 
L 2975 5250 
Q 3350 4825 3550 4575 
z
" transform="scale(0.015625)"/>
       <path id="FangSong-6210" d="M 5575 975 
Q 5600 -150 5750 -625 
Q 4650 -225 4000 1075 
Q 3625 650 2975 225 
L 2925 325 
Q 3525 825 3900 1300 
Q 3600 2275 3500 3300 
L 1875 3125 
Q 1875 2625 1825 2100 
L 2725 2250 
L 2875 2475 
L 3175 2225 
L 3000 2050 
Q 2850 475 2575 -125 
Q 2225 400 1825 775 
L 1875 850 
L 2475 400 
Q 2650 875 2750 2000 
L 1825 1850 
Q 1675 250 600 -650 
L 525 -600 
Q 1250 250 1425 987 
Q 1600 1725 1625 2612 
Q 1650 3500 1550 3800 
L 1625 3825 
L 1850 3350 
L 3450 3525 
Q 3400 4150 3375 4562 
Q 3350 4975 3225 5200 
L 3275 5225 
L 3725 4900 
Q 3625 4925 3637 4575 
Q 3650 4225 3675 3550 
Q 4900 3700 5050 3775 
L 5325 3475 
Q 4775 3475 3725 3325 
Q 3775 2425 4075 1525 
Q 4500 2025 4687 2325 
Q 4875 2625 4800 2850 
L 4875 2875 
L 5125 2325 
Q 5075 2400 4850 2125 
Q 4625 1850 4150 1275 
Q 4625 225 5425 -125 
L 5475 975 
L 5575 975 
z
M 4100 5000 
Q 4525 4700 4875 4450 
Q 4825 4250 4750 4025 
Q 4400 4525 4025 4950 
L 4100 5000 
z
" transform="scale(0.015625)"/>
       <path id="FangSong-4f8b" d="M 3050 2000 
Q 3025 1800 2975 1600 
Q 2775 1900 2525 2250 
Q 2300 1875 2025 1550 
L 1925 1625 
Q 2675 2725 2975 3975 
Q 2475 3925 2375 3875 
L 2050 4125 
Q 2375 4125 3162 4225 
Q 3950 4325 4100 4450 
L 4350 4125 
Q 4050 4150 3100 3975 
L 3300 3700 
Q 3200 3675 3125 3525 
Q 3050 3375 2925 3050 
L 3625 3150 
L 3775 3350 
L 4050 3075 
L 3875 2900 
Q 3300 825 1850 -225 
L 1800 -100 
Q 3100 975 3625 2900 
Q 3150 2825 3025 2775 
L 2875 2925 
Q 2775 2675 2575 2350 
Q 2900 2125 3050 2000 
z
M 1275 -150 
Q 1425 25 1400 225 
L 1450 3425 
Q 1025 2800 475 2225 
L 400 2325 
Q 875 2850 1450 3887 
Q 2025 4925 1925 5150 
L 2000 5175 
L 2250 4700 
Q 2200 4725 2062 4475 
Q 1925 4225 1675 3800 
L 1625 -325 
Q 1650 -675 1525 -600 
L 1275 -150 
z
M 5475 250 
Q 5475 -300 5300 -650 
Q 4900 -100 4300 375 
L 4350 475 
L 5200 -75 
Q 5250 250 5250 575 
L 5250 4350 
Q 5275 4950 5100 5150 
L 5175 5225 
L 5600 4850 
Q 5450 4775 5475 4325 
L 5475 250 
z
M 4300 1525 
Q 4400 1650 4400 1900 
L 4400 3075 
Q 4425 3525 4300 3750 
L 4350 3800 
L 4725 3450 
Q 4600 3350 4625 3025 
L 4625 1375 
Q 4625 1050 4550 1125 
L 4300 1525 
z
" transform="scale(0.015625)"/>
      </defs>
      <use xlink:href="#FangSong-7d2f"/>
      <use xlink:href="#FangSong-8ba1" x="100"/>
      <use xlink:href="#FangSong-5b8c" x="200"/>
      <use xlink:href="#FangSong-6210" x="300"/>
      <use xlink:href="#FangSong-6bd4" x="400"/>
      <use xlink:href="#FangSong-4f8b" x="500"/>
     </g>
    </g>
   </g>
   <g id="line2d_15">
    <path d="M 73.832727 295.488 
L 74.074826 295.488 
L 74.316925 295.24608 
L 74.801123 295.24608 
L 75.043221 295.00416 
L 75.28532 294.03648 
L 75.527419 293.79456 
L 75.769518 292.82688 
L 76.011617 292.82688 
L 76.253716 292.10112 
L 76.737913 291.61728 
L 76.980012 291.13344 
L 77.706309 291.13344 
L 77.948408 290.40768 
L 78.432605 289.92384 
L 78.916803 289.19808 
L 79.401001 288.71424 
L 79.643099 287.98848 
L 80.127297 286.05312 
L 80.369396 286.05312 
L 80.853594 285.56928 
L 81.337791 282.90816 
L 82.306187 280.73088 
L 82.548286 279.7632 
L 83.032483 278.5536 
L 83.75878 274.19904 
L 84.000879 273.95712 
L 84.242977 271.53792 
L 84.727175 270.0864 
L 85.453472 269.36064 
L 85.69557 269.36064 
L 85.937669 269.11872 
L 86.179768 268.39296 
L 87.148164 263.79648 
L 87.632361 262.8288 
L 87.87446 261.37728 
L 88.116559 260.89344 
L 88.358658 260.89344 
L 88.600757 260.4096 
L 88.842855 258.95808 
L 90.05335 255.5712 
L 90.537547 254.3616 
L 90.779646 253.39392 
L 91.021745 253.152 
L 91.505943 251.9424 
L 91.748041 250.49088 
L 91.99014 249.76512 
L 92.232239 249.5232 
L 92.474338 248.55552 
L 92.716437 248.07168 
L 92.958536 248.07168 
L 93.442733 246.13632 
L 93.684832 245.65248 
L 94.411129 240.33024 
L 94.653228 239.8464 
L 94.895326 238.15296 
L 95.137425 237.4272 
L 95.379524 236.2176 
L 95.621623 234.28224 
L 95.863722 233.31456 
L 96.347919 232.34688 
L 96.590018 232.34688 
L 96.832117 232.10496 
L 97.074216 232.10496 
L 97.558414 230.89536 
L 97.800513 230.1696 
L 98.28471 229.68576 
L 99.011007 228.47616 
L 99.495204 227.99232 
L 99.979402 226.05696 
L 100.4636 225.57312 
L 100.705699 225.57312 
L 101.189896 225.08928 
L 101.674094 223.87968 
L 101.916193 223.87968 
L 102.158292 223.15392 
L 102.642489 222.67008 
L 102.884588 222.67008 
L 103.126687 222.18624 
L 103.610885 220.4928 
L 104.337181 218.0736 
L 104.57928 217.10592 
L 104.821379 216.62208 
L 105.063478 215.41248 
L 105.547675 214.92864 
L 106.516071 212.75136 
L 107.242367 210.09024 
L 107.726565 208.88064 
L 107.968664 208.88064 
L 108.452862 207.67104 
L 108.69496 207.67104 
L 108.937059 206.70336 
L 109.179158 205.00992 
L 109.663356 204.52608 
L 109.905455 203.5584 
L 110.631751 202.3488 
L 111.358048 201.62304 
L 111.600146 201.62304 
L 113.536937 197.99424 
L 114.021135 197.5104 
L 114.98953 195.81696 
L 115.231629 194.60736 
L 115.957926 193.8816 
L 116.684222 192.18816 
L 117.16842 188.55936 
L 117.894716 184.44672 
L 118.136815 183.72096 
L 118.378914 183.47904 
L 118.621013 182.51136 
L 118.863112 182.26944 
L 119.347309 181.05984 
L 120.557804 178.39872 
L 121.042001 176.9472 
L 121.2841 176.70528 
L 121.526199 175.7376 
L 122.010397 174.76992 
L 122.494594 172.83456 
L 122.736693 172.1088 
L 122.978792 172.1088 
L 123.220891 171.86688 
L 123.705088 170.65728 
L 124.189286 170.17344 
L 124.431385 170.17344 
L 125.883978 167.51232 
L 126.126077 167.2704 
L 127.336571 165.09312 
L 127.57867 164.8512 
L 128.789164 162.19008 
L 129.031263 161.46432 
L 129.273362 161.46432 
L 129.515461 160.73856 
L 129.757559 160.49664 
L 130.968054 158.31936 
L 131.452251 157.83552 
L 132.662746 155.65824 
L 133.146943 155.65824 
L 133.389042 154.69056 
L 134.115339 154.69056 
L 134.357437 153.9648 
L 134.599536 153.72288 
L 134.841635 153.23904 
L 135.083734 153.23904 
L 135.567932 152.51328 
L 135.810031 152.27136 
L 136.052129 152.27136 
L 136.294228 152.02944 
L 136.778426 152.02944 
L 137.262624 151.5456 
L 137.504722 151.5456 
L 137.746821 151.30368 
L 137.98892 151.30368 
L 138.231019 151.06176 
L 138.473118 151.06176 
L 139.199414 150.336 
L 139.441513 150.336 
L 139.683612 149.85216 
L 140.16781 149.85216 
L 140.652007 148.88448 
L 142.1046 148.88448 
L 142.346699 148.15872 
L 143.072996 147.43296 
L 143.315095 147.43296 
L 144.767688 145.98144 
L 145.009786 145.4976 
L 145.251885 145.4976 
L 145.978182 144.77184 
L 146.220281 144.77184 
L 147.188676 143.80416 
L 147.672874 143.80416 
L 148.157071 143.0784 
L 148.39917 143.0784 
L 148.883368 142.59456 
L 149.367566 141.8688 
L 150.335961 141.8688 
L 150.57806 141.38496 
L 150.820159 141.38496 
L 151.062257 141.14304 
L 151.304356 141.14304 
L 151.788554 140.6592 
L 152.514851 140.6592 
L 152.756949 140.41728 
L 153.241147 140.41728 
L 153.725345 139.93344 
L 154.69374 138.24 
L 155.177938 138.24 
L 155.420037 137.51424 
L 155.662135 137.27232 
L 155.904234 137.27232 
L 156.146333 136.78848 
L 156.87263 136.78848 
L 157.114728 136.30464 
L 157.598926 136.30464 
L 157.841025 136.06272 
L 158.083124 136.06272 
L 158.325223 135.8208 
L 158.567322 135.8208 
L 159.051519 135.33696 
L 159.535717 135.33696 
L 160.504112 133.64352 
L 160.746211 133.64352 
L 160.98831 133.4016 
L 161.472508 132.192 
L 161.714606 131.95008 
L 161.956705 131.95008 
L 162.198804 131.46624 
L 162.440903 131.46624 
L 162.683002 130.9824 
L 162.925101 130.9824 
L 163.1672 130.49856 
L 163.409298 130.49856 
L 163.651397 130.25664 
L 163.893496 130.25664 
L 164.619793 129.53088 
L 164.861891 129.04704 
L 165.10399 129.04704 
L 165.346089 128.5632 
L 165.588188 128.5632 
L 165.830287 128.32128 
L 166.314484 128.32128 
L 166.556583 128.07936 
L 166.798682 127.59552 
L 168.009176 127.59552 
L 168.735473 126.86976 
L 169.219671 126.86976 
L 169.461769 126.62784 
L 169.703868 126.62784 
L 170.188066 126.144 
L 170.430165 126.144 
L 170.672264 125.90208 
L 170.914362 125.41824 
L 171.156461 125.41824 
L 171.39856 125.17632 
L 172.124857 125.17632 
L 172.609054 124.69248 
L 172.851153 124.69248 
L 173.093252 124.45056 
L 173.819549 124.45056 
L 174.303746 123.96672 
L 174.787944 123.24096 
L 175.030043 122.99904 
L 175.272142 122.99904 
L 175.51424 122.27328 
L 175.998438 121.78944 
L 176.482636 121.06368 
L 176.724735 120.82176 
L 176.966833 120.82176 
L 177.208932 120.57984 
L 177.451031 120.57984 
L 178.661525 119.37024 
L 178.903624 119.37024 
L 179.629921 118.64448 
L 180.356217 117.43488 
L 180.598316 117.43488 
L 182.777206 112.8384 
L 183.261403 111.6288 
L 183.503502 111.14496 
L 183.745601 111.14496 
L 183.9877 110.4192 
L 184.471897 109.93536 
L 184.956095 108.72576 
L 185.198194 108.72576 
L 185.440293 108.48384 
L 186.650787 106.06464 
L 187.134985 106.06464 
L 187.619182 105.33888 
L 187.861281 105.33888 
L 188.10338 105.09696 
L 188.345479 105.09696 
L 188.829677 104.61312 
L 189.313874 104.61312 
L 189.555973 103.88736 
L 189.798072 103.64544 
L 190.28227 102.91968 
L 190.766467 102.43584 
L 191.250665 102.43584 
L 191.492764 102.19392 
L 192.21906 100.98432 
L 192.461159 100.98432 
L 192.703258 100.7424 
L 192.945357 100.25856 
L 193.913752 100.25856 
L 194.155851 100.01664 
L 195.124246 98.3232 
L 195.366345 98.08128 
L 195.850543 98.08128 
L 196.092642 97.83936 
L 196.334741 97.83936 
L 196.57684 97.59744 
L 196.818938 96.87168 
L 197.061037 96.87168 
L 197.545235 96.38784 
L 197.787334 95.904 
L 198.271531 95.904 
L 198.51363 95.66208 
L 198.755729 95.66208 
L 198.997828 95.17824 
L 199.966223 95.17824 
L 200.208322 94.6944 
L 200.69252 94.6944 
L 201.176718 93.96864 
L 203.355607 93.96864 
L 203.597706 93.72672 
L 205.292398 93.72672 
L 206.018694 93.00096 
L 207.713386 93.00096 
L 208.197584 92.51712 
L 208.439683 92.51712 
L 208.681782 92.2752 
L 210.376473 92.2752 
L 210.618572 92.03328 
L 211.344869 92.03328 
L 211.829067 91.54944 
L 212.071165 91.54944 
L 212.313264 91.30752 
L 212.797462 90.33984 
L 213.039561 90.33984 
L 213.28166 90.09792 
L 213.523758 90.09792 
L 214.007956 89.61408 
L 214.734253 89.61408 
L 214.976351 89.37216 
L 215.21845 89.37216 
L 215.460549 89.13024 
L 215.702648 88.6464 
L 215.944747 88.6464 
L 216.186846 88.40448 
L 216.428944 88.40448 
L 216.671043 88.16256 
L 217.155241 88.16256 
L 217.39734 87.67872 
L 217.639439 87.67872 
L 217.881538 87.4368 
L 218.849933 87.4368 
L 219.092032 87.19488 
L 220.544625 87.19488 
L 221.028822 86.71104 
L 221.997218 86.71104 
L 222.239317 86.46912 
L 222.965613 86.46912 
L 223.207712 86.2272 
L 223.934009 86.2272 
L 224.176107 85.98528 
L 227.80759 85.98528 
L 228.049689 85.74336 
L 229.502282 85.74336 
L 229.744381 85.25952 
L 232.165369 85.25952 
L 232.407468 85.0176 
L 233.133764 85.0176 
L 233.375863 84.77568 
L 236.038951 84.77568 
L 236.281049 84.53376 
L 238.702038 84.53376 
L 238.944137 84.29184 
L 239.912532 84.29184 
L 240.154631 84.04992 
L 240.39673 84.04992 
L 240.638829 83.808 
L 241.849323 83.808 
L 242.091422 83.56608 
L 243.059817 83.56608 
L 243.301916 83.32416 
L 243.544015 83.32416 
L 243.786113 83.08224 
L 245.965003 83.08224 
L 246.207102 82.84032 
L 247.175497 82.84032 
L 247.417596 82.5984 
L 248.143893 82.5984 
L 248.385991 82.35648 
L 249.838585 82.35648 
L 250.322782 81.87264 
L 252.743771 81.87264 
L 252.985869 81.63072 
L 255.406858 81.63072 
L 255.648957 81.14688 
L 256.859451 81.14688 
L 257.10155 80.90496 
L 257.585747 80.90496 
L 257.827846 80.66304 
L 259.522538 80.66304 
L 259.764637 80.42112 
L 263.154021 80.42112 
L 263.638218 79.69536 
L 264.122416 79.21152 
L 265.33291 79.21152 
L 265.575009 78.9696 
L 267.269701 78.9696 
L 267.5118 78.72768 
L 268.238096 78.72768 
L 268.480195 78.48576 
L 274.048469 78.48576 
L 274.290567 78.24384 
L 275.258963 78.24384 
L 275.985259 77.51808 
L 280.827236 77.51808 
L 281.069335 77.27616 
L 282.764027 77.27616 
L 283.006126 77.03424 
L 284.21662 77.03424 
L 284.458719 76.79232 
L 284.700818 76.79232 
L 284.942916 76.5504 
L 285.427114 76.5504 
L 285.669213 76.30848 
L 286.153411 76.30848 
L 286.395509 76.06656 
L 287.121806 76.06656 
L 287.363905 75.82464 
L 287.848103 75.82464 
L 288.090201 75.58272 
L 288.574399 75.58272 
L 288.816498 75.3408 
L 290.51119 75.3408 
L 290.753289 75.09888 
L 291.479585 75.09888 
L 291.721684 74.85696 
L 292.44798 74.85696 
L 292.932178 74.37312 
L 293.900574 74.37312 
L 294.384771 73.64736 
L 295.111068 73.64736 
L 295.353167 73.40544 
L 296.321562 73.40544 
L 296.563661 73.16352 
L 296.80576 73.16352 
L 297.047858 72.67968 
L 298.74255 72.67968 
L 298.984649 72.43776 
L 301.889835 72.43776 
L 302.131934 72.19584 
L 303.342428 72.19584 
L 303.584527 71.95392 
L 304.068725 71.95392 
L 304.310824 71.47008 
L 305.03712 71.47008 
L 305.279219 71.22816 
L 305.521318 71.22816 
L 306.005516 70.74432 
L 306.247614 70.74432 
L 306.489713 70.5024 
L 307.700207 70.5024 
L 307.942306 69.77664 
L 308.184405 69.53472 
L 309.394899 69.53472 
L 309.636998 69.2928 
L 310.121196 69.2928 
L 310.847492 68.56704 
L 311.33169 68.56704 
L 311.573789 68.32512 
L 311.815888 68.32512 
L 312.057987 68.0832 
L 312.542184 68.0832 
L 312.784283 67.84128 
L 313.268481 67.84128 
L 313.51058 67.59936 
L 314.236876 67.59936 
L 314.478975 67.35744 
L 315.205272 67.35744 
L 315.44737 67.11552 
L 315.689469 67.11552 
L 316.173667 66.63168 
L 316.657865 66.63168 
L 316.899963 66.14784 
L 317.868359 66.14784 
L 318.110458 65.90592 
L 319.320952 65.90592 
L 319.563051 65.664 
L 322.710336 65.664 
L 322.952434 65.42208 
L 323.92083 65.42208 
L 324.162929 65.18016 
L 324.647126 65.18016 
L 324.889225 64.69632 
L 325.373423 64.69632 
L 325.615522 64.4544 
L 326.583917 64.4544 
L 326.826016 64.21248 
L 328.520708 64.21248 
L 328.762807 63.97056 
L 329.004905 63.97056 
L 329.247004 63.72864 
L 332.636388 63.72864 
L 332.878487 63.48672 
L 334.573179 63.48672 
L 334.815278 63.2448 
L 335.541574 63.2448 
L 335.783673 63.00288 
L 338.204661 63.00288 
L 338.44676 62.76096 
L 338.930958 62.76096 
L 339.173057 62.51904 
L 339.899353 62.51904 
L 340.383551 62.0352 
L 343.530836 62.0352 
L 343.772935 61.79328 
L 345.225528 61.79328 
L 345.467627 61.55136 
L 346.436022 61.55136 
L 346.678121 61.30944 
L 347.162318 61.30944 
L 347.404417 61.06752 
L 351.0359 61.06752 
L 351.520098 60.34176 
L 352.004295 60.34176 
L 352.488493 59.85792 
L 353.21479 59.85792 
L 353.456888 59.616 
L 353.941086 59.616 
L 354.183185 59.37408 
L 356.604173 59.37408 
L 356.846272 58.89024 
L 357.088371 58.89024 
L 357.572569 58.4064 
L 358.298865 58.4064 
L 358.540964 58.16448 
L 359.025162 58.16448 
L 359.267261 57.92256 
L 360.477755 57.92256 
L 360.719854 57.68064 
L 360.961952 57.68064 
L 361.204051 57.43872 
L 363.382941 57.43872 
L 363.62504 57.1968 
L 364.109237 57.1968 
L 364.351336 56.95488 
L 365.56183 56.95488 
L 365.803929 56.71296 
L 366.046028 56.71296 
L 366.288127 56.47104 
L 366.530226 56.47104 
L 366.772325 56.22912 
L 367.256522 56.22912 
L 367.498621 55.9872 
L 370.161708 55.9872 
L 370.403807 55.74528 
L 371.614301 55.74528 
L 371.8564 55.50336 
L 373.308993 55.50336 
L 373.551092 55.26144 
L 377.182575 55.26144 
L 377.424674 55.01952 
L 379.845662 55.01952 
L 380.32986 54.53568 
L 385.898133 54.53568 
L 386.140232 54.29376 
L 386.866528 54.29376 
L 387.108627 54.05184 
L 396.792581 54.05184 
L 397.03468 53.80992 
L 398.245174 53.80992 
L 398.487273 53.568 
L 398.487273 53.568 
" clip-path="url(#p5b934c34b3)" style="fill: none; stroke: #ff0000; stroke-linecap: square"/>
   </g>
   <g id="line2d_16">
    <path d="M 73.832727 295.488 
L 74.074826 295.488 
L 74.316925 294.710122 
L 74.801123 294.710122 
L 75.043221 293.932244 
L 75.28532 290.820733 
L 75.527419 290.042855 
L 75.769518 286.931344 
L 76.011617 286.931344 
L 76.253716 284.597711 
L 76.980012 282.264077 
L 77.706309 282.264077 
L 77.948408 280.708322 
L 79.401001 276.041055 
L 80.127297 269.818032 
L 80.369396 269.818032 
L 80.853594 268.262277 
L 81.337791 262.039254 
L 81.57989 261.261376 
L 82.064088 257.371987 
L 82.306187 255.816232 
L 82.790384 251.926842 
L 83.032483 250.371087 
L 83.516681 243.370186 
L 83.75878 241.036553 
L 84.000879 240.258675 
L 84.242977 233.257775 
L 84.727175 228.590508 
L 84.969274 227.81263 
L 85.211373 227.81263 
L 85.453472 227.034752 
L 85.69557 227.034752 
L 85.937669 226.256875 
L 86.179768 224.701119 
L 86.663966 219.255974 
L 86.906065 216.144463 
L 87.632361 211.477196 
L 87.87446 206.809929 
L 88.116559 206.032051 
L 88.358658 206.032051 
L 88.600757 205.254174 
L 88.842855 202.92054 
L 89.084954 202.142662 
L 89.569152 199.031151 
L 89.811251 199.031151 
L 90.295448 197.475395 
L 91.021745 191.252373 
L 91.505943 188.140862 
L 91.748041 184.251473 
L 92.232239 182.695717 
L 92.716437 178.806328 
L 92.958536 178.806328 
L 93.442733 173.361183 
L 93.684832 172.583305 
L 94.411129 159.359383 
L 94.653228 157.803627 
L 94.895326 154.692116 
L 95.137425 153.13636 
L 95.621623 146.13546 
L 96.105821 144.579704 
L 96.347919 143.023949 
L 97.316315 143.023949 
L 97.800513 141.468193 
L 98.526809 141.468193 
L 99.253106 139.134559 
L 99.495204 139.134559 
L 99.737303 136.800926 
L 99.979402 136.023048 
L 100.221501 136.023048 
L 100.4636 135.24517 
L 101.189896 135.24517 
L 101.674094 133.689415 
L 103.126687 133.689415 
L 103.610885 132.133659 
L 103.852984 132.133659 
L 104.337181 130.577904 
L 104.57928 129.022148 
L 104.821379 128.24427 
L 105.063478 125.910637 
L 105.789774 125.910637 
L 106.516071 123.577003 
L 107.484466 113.464592 
L 107.968664 113.464592 
L 108.210763 112.686714 
L 108.69496 112.686714 
L 108.937059 111.130958 
L 109.179158 108.797325 
L 110.147553 108.797325 
L 110.389652 108.019447 
L 110.631751 108.019447 
L 111.115949 106.463691 
L 111.600146 106.463691 
L 111.842245 104.907936 
L 112.084344 104.130058 
L 112.326443 104.130058 
L 112.810641 101.018547 
L 113.294838 99.462791 
L 113.536937 99.462791 
L 114.021135 97.907035 
L 114.505333 97.907035 
L 114.98953 96.35128 
L 115.231629 94.795524 
L 115.715827 94.795524 
L 115.957926 94.017646 
L 116.200024 94.017646 
L 116.442123 92.461891 
L 116.684222 90.128257 
L 117.16842 80.793723 
L 117.894716 69.903434 
L 118.378914 68.347678 
L 118.863112 68.347678 
L 119.10521 66.791923 
L 119.589408 66.791923 
L 119.831507 65.236167 
L 120.073606 65.236167 
L 120.315705 64.458289 
L 120.799902 60.5689 
L 121.2841 60.5689 
L 121.526199 59.013145 
L 121.768298 59.013145 
L 122.010397 57.457389 
L 122.252495 56.679511 
L 122.494594 55.123756 
L 122.736693 54.345878 
L 122.978792 54.345878 
L 123.220891 53.568 
L 398.487273 53.568 
L 398.487273 53.568 
" clip-path="url(#p5b934c34b3)" style="fill: none; stroke-dasharray: 1.85,0.8; stroke-dashoffset: 0; stroke: #008000; stroke-width: 0.5"/>
   </g>
   <g id="line2d_17">
    <path d="M 73.832727 295.488 
L 76.737913 295.488 
L 76.980012 294.715093 
L 77.706309 294.715093 
L 77.948408 293.942185 
L 78.432605 293.942185 
L 78.674704 293.169278 
L 79.643099 293.169278 
L 79.885198 290.850556 
L 80.853594 290.850556 
L 81.095692 288.531834 
L 82.306187 288.531834 
L 82.548286 287.758927 
L 82.790384 287.758927 
L 83.032483 286.986019 
L 83.274582 286.986019 
L 83.516681 284.667297 
L 83.75878 283.89439 
L 84.000879 283.89439 
L 84.242977 283.121482 
L 84.969274 283.121482 
L 85.211373 282.348575 
L 85.937669 282.348575 
L 86.421867 280.80276 
L 86.663966 279.256946 
L 88.358658 279.256946 
L 88.600757 278.484038 
L 89.327053 273.846594 
L 89.569152 273.846594 
L 89.811251 272.30078 
L 90.05335 272.30078 
L 90.295448 271.527872 
L 91.021745 271.527872 
L 91.263844 270.754965 
L 91.505943 270.754965 
L 91.748041 269.982058 
L 91.99014 268.436243 
L 92.232239 268.436243 
L 92.474338 267.663335 
L 92.958536 267.663335 
L 93.200635 266.890428 
L 93.442733 266.890428 
L 93.684832 266.117521 
L 93.926931 264.571706 
L 94.16903 264.571706 
L 94.411129 263.798799 
L 94.653228 263.798799 
L 94.895326 262.252984 
L 95.137425 261.480077 
L 95.379524 261.480077 
L 95.863722 257.61554 
L 96.590018 257.61554 
L 96.832117 256.842633 
L 97.074216 256.842633 
L 97.800513 252.205188 
L 98.768908 249.113559 
L 99.495204 249.113559 
L 99.979402 246.02193 
L 100.705699 246.02193 
L 100.947797 245.249022 
L 101.189896 245.249022 
L 101.674094 243.703208 
L 101.916193 243.703208 
L 102.158292 242.157393 
L 102.642489 240.611578 
L 102.884588 240.611578 
L 103.126687 239.065764 
L 103.610885 235.201227 
L 104.57928 229.017968 
L 104.821379 228.245061 
L 105.063478 226.699246 
L 105.305577 226.699246 
L 105.789774 225.153431 
L 106.031873 225.153431 
L 106.516071 222.061802 
L 107.484466 222.061802 
L 107.726565 220.515987 
L 107.968664 220.515987 
L 108.452862 217.424358 
L 108.69496 217.424358 
L 108.937059 215.878543 
L 109.179158 212.786914 
L 109.663356 211.241099 
L 110.147553 207.376562 
L 110.389652 206.603655 
L 111.842245 206.603655 
L 112.084344 205.830748 
L 112.326443 205.830748 
L 112.568542 205.05784 
L 114.263234 205.05784 
L 114.505333 204.284933 
L 114.747431 204.284933 
L 114.98953 203.512026 
L 115.231629 201.966211 
L 115.473728 201.966211 
L 115.715827 201.193304 
L 115.957926 201.193304 
L 116.200024 199.647489 
L 116.684222 199.647489 
L 116.926321 198.874581 
L 117.16842 198.874581 
L 117.410519 198.101674 
L 117.652617 198.101674 
L 118.136815 196.555859 
L 118.378914 196.555859 
L 118.621013 193.46423 
L 118.863112 192.691323 
L 119.10521 192.691323 
L 119.589408 191.145508 
L 120.073606 191.145508 
L 120.799902 188.826786 
L 121.042001 186.508064 
L 121.2841 186.508064 
L 121.526199 185.735157 
L 121.768298 184.189342 
L 122.010397 184.189342 
L 122.252495 182.643527 
L 122.494594 181.87062 
L 122.736693 180.324805 
L 123.220891 180.324805 
L 123.705088 176.460268 
L 124.189286 174.914454 
L 124.431385 174.914454 
L 125.39978 168.731195 
L 125.883978 167.18538 
L 126.126077 167.18538 
L 126.368176 165.639565 
L 126.610275 165.639565 
L 126.852373 164.093751 
L 127.094472 163.320843 
L 127.336571 161.775029 
L 127.57867 161.002121 
L 127.820769 159.456307 
L 128.062868 158.683399 
L 128.547065 155.59177 
L 128.789164 154.818863 
L 129.273362 154.818863 
L 129.515461 152.500141 
L 129.757559 151.727233 
L 129.999658 150.181419 
L 130.241757 149.408511 
L 130.483856 147.862696 
L 130.968054 147.862696 
L 131.210153 147.089789 
L 131.69435 147.089789 
L 131.936449 145.543974 
L 132.420647 143.99816 
L 133.146943 143.99816 
L 133.389042 142.452345 
L 134.357437 142.452345 
L 134.599536 141.679438 
L 134.841635 140.133623 
L 135.083734 140.133623 
L 135.325833 139.360716 
L 136.778426 139.360716 
L 137.020525 138.587808 
L 138.473118 138.587808 
L 138.957315 137.041994 
L 139.441513 137.041994 
L 139.683612 136.269086 
L 140.16781 136.269086 
L 140.409908 135.496179 
L 142.1046 135.496179 
L 142.346699 133.950364 
L 142.588798 133.177457 
L 145.251885 133.177457 
L 145.493984 132.40455 
L 146.462379 132.40455 
L 146.704478 131.631642 
L 147.672874 131.631642 
L 147.914973 130.085827 
L 148.157071 129.31292 
L 149.125467 129.31292 
L 149.367566 128.540013 
L 153.241147 128.540013 
L 153.483246 127.767105 
L 154.451641 127.767105 
L 154.69374 126.221291 
L 155.177938 126.221291 
L 155.420037 125.448383 
L 155.904234 125.448383 
L 156.146333 124.675476 
L 156.87263 124.675476 
L 157.114728 123.902569 
L 158.083124 123.902569 
L 158.325223 123.129661 
L 158.567322 123.129661 
L 159.051519 121.583847 
L 159.535717 121.583847 
L 159.777816 120.038032 
L 160.019915 119.265125 
L 160.262013 116.946403 
L 160.504112 116.173495 
L 160.746211 116.173495 
L 160.98831 115.400588 
L 161.472508 112.308958 
L 161.956705 112.308958 
L 162.198804 110.763144 
L 162.440903 110.763144 
L 162.683002 109.990236 
L 162.925101 109.990236 
L 163.1672 109.217329 
L 163.409298 109.217329 
L 163.651397 108.444422 
L 163.893496 108.444422 
L 164.135595 107.671514 
L 165.10399 107.671514 
L 165.346089 106.1257 
L 166.314484 106.1257 
L 166.556583 105.352792 
L 169.219671 105.352792 
L 169.461769 104.579885 
L 173.819549 104.579885 
L 174.303746 103.03407 
L 174.545845 103.03407 
L 174.787944 102.261163 
L 175.272142 102.261163 
L 175.51424 100.715348 
L 175.998438 100.715348 
L 176.240537 99.169534 
L 176.482636 99.169534 
L 176.724735 98.396626 
L 176.966833 98.396626 
L 177.208932 97.623719 
L 177.69313 97.623719 
L 177.935229 96.850812 
L 178.177328 96.850812 
L 178.419426 96.077904 
L 179.145723 96.077904 
L 179.387822 95.304997 
L 179.629921 95.304997 
L 179.87202 93.759182 
L 180.114118 92.986275 
L 180.356217 91.44046 
L 180.598316 91.44046 
L 180.840415 89.894645 
L 181.082514 89.121738 
L 181.324613 86.803016 
L 181.566711 86.803016 
L 182.293008 84.484294 
L 182.777206 81.392665 
L 183.261403 77.528128 
L 183.503502 76.75522 
L 183.745601 76.75522 
L 183.9877 74.436498 
L 184.471897 72.890684 
L 184.713996 71.344869 
L 185.440293 71.344869 
L 185.682392 69.799054 
L 185.924491 69.026147 
L 186.166589 67.480332 
L 186.408688 67.480332 
L 186.650787 66.707425 
L 187.134985 66.707425 
L 187.377084 65.16161 
L 187.861281 65.16161 
L 188.10338 64.388703 
L 189.555973 64.388703 
L 189.798072 63.615796 
L 190.28227 63.615796 
L 190.524369 62.842888 
L 191.250665 62.842888 
L 191.734863 61.297073 
L 191.976962 61.297073 
L 192.21906 60.524166 
L 192.461159 60.524166 
L 192.703258 59.751259 
L 194.39795 59.751259 
L 194.640049 58.978351 
L 194.882148 58.978351 
L 195.366345 57.432537 
L 197.061037 57.432537 
L 197.303136 56.659629 
L 197.545235 56.659629 
L 197.787334 55.113815 
L 198.755729 55.113815 
L 198.997828 53.568 
L 398.487273 53.568 
L 398.487273 53.568 
" clip-path="url(#p5b934c34b3)" style="fill: none; stroke-dasharray: 1.85,0.8; stroke-dashoffset: 0; stroke: #0000ff; stroke-width: 0.5"/>
   </g>
   <g id="line2d_18">
    <path d="M 73.832727 295.488 
L 81.337791 295.488 
L 81.57989 294.19431 
L 83.516681 294.19431 
L 83.75878 292.90062 
L 86.421867 292.90062 
L 86.663966 291.60693 
L 87.87446 291.60693 
L 88.116559 290.313241 
L 88.600757 290.313241 
L 88.842855 289.019551 
L 89.811251 289.019551 
L 90.05335 287.725861 
L 94.16903 287.725861 
L 94.411129 286.432171 
L 95.137425 286.432171 
L 95.379524 285.138481 
L 95.621623 285.138481 
L 95.863722 283.844791 
L 99.253106 283.844791 
L 99.495204 282.551102 
L 99.979402 282.551102 
L 100.221501 281.257412 
L 100.947797 281.257412 
L 101.431995 278.670032 
L 103.610885 278.670032 
L 104.095082 276.082652 
L 105.547675 276.082652 
L 105.789774 274.788963 
L 106.516071 274.788963 
L 106.75817 273.495273 
L 109.663356 273.495273 
L 109.905455 272.201583 
L 112.326443 272.201583 
L 112.568542 270.907893 
L 113.294838 270.907893 
L 113.536937 269.614203 
L 114.021135 269.614203 
L 114.263234 267.026824 
L 114.98953 267.026824 
L 115.473728 264.439444 
L 117.652617 264.439444 
L 117.894716 263.145754 
L 118.863112 263.145754 
L 119.10521 261.852064 
L 121.042001 261.852064 
L 121.526199 259.264684 
L 122.010397 259.264684 
L 122.252495 256.677305 
L 125.883978 256.677305 
L 126.126077 255.383615 
L 126.368176 255.383615 
L 126.610275 254.089925 
L 128.062868 254.089925 
L 128.304966 252.796235 
L 128.547065 252.796235 
L 129.031263 250.208856 
L 129.999658 250.208856 
L 130.725955 246.327786 
L 131.452251 246.327786 
L 131.69435 243.740406 
L 132.178548 243.740406 
L 132.662746 241.153027 
L 133.146943 241.153027 
L 133.389042 239.859337 
L 134.115339 239.859337 
L 134.357437 238.565647 
L 135.325833 238.565647 
L 135.810031 235.978267 
L 137.020525 235.978267 
L 137.262624 234.684578 
L 137.504722 234.684578 
L 137.746821 233.390888 
L 138.957315 233.390888 
L 139.199414 232.097198 
L 140.409908 232.097198 
L 140.652007 230.803508 
L 142.1046 230.803508 
L 142.346699 229.509818 
L 142.588798 229.509818 
L 142.830897 228.216128 
L 143.315095 228.216128 
L 143.799292 225.628749 
L 144.041391 225.628749 
L 144.28349 224.335059 
L 144.525589 224.335059 
L 144.767688 223.041369 
L 145.493984 223.041369 
L 145.736083 221.747679 
L 146.704478 221.747679 
L 147.188676 219.160299 
L 148.39917 219.160299 
L 148.883368 216.57292 
L 150.335961 216.57292 
L 150.57806 215.27923 
L 150.820159 215.27923 
L 151.062257 213.98554 
L 151.304356 213.98554 
L 151.546455 212.69185 
L 152.514851 212.69185 
L 152.756949 211.39816 
L 153.725345 211.39816 
L 154.209542 208.810781 
L 155.177938 208.810781 
L 155.420037 206.223401 
L 155.904234 206.223401 
L 156.146333 204.929711 
L 160.98831 204.929711 
L 161.230409 203.636021 
L 164.619793 203.636021 
L 164.861891 202.342332 
L 166.556583 202.342332 
L 166.798682 201.048642 
L 168.009176 201.048642 
L 168.735473 197.167572 
L 170.430165 197.167572 
L 170.914362 194.580193 
L 172.124857 194.580193 
L 172.609054 191.992813 
L 172.851153 191.992813 
L 173.093252 190.699123 
L 174.303746 190.699123 
L 174.545845 189.405433 
L 175.272142 189.405433 
L 175.51424 188.111743 
L 175.756339 188.111743 
L 175.998438 186.818053 
L 177.451031 186.818053 
L 177.69313 185.524364 
L 177.935229 185.524364 
L 178.177328 184.230674 
L 178.419426 184.230674 
L 178.661525 182.936984 
L 178.903624 182.936984 
L 179.145723 181.643294 
L 181.082514 181.643294 
L 181.80881 177.762225 
L 182.535107 177.762225 
L 182.777206 176.468535 
L 184.471897 176.468535 
L 184.713996 175.174845 
L 184.956095 172.587465 
L 185.198194 172.587465 
L 185.440293 171.293775 
L 185.682392 171.293775 
L 186.166589 168.706396 
L 186.408688 166.119016 
L 188.587578 166.119016 
L 188.829677 164.825326 
L 189.313874 164.825326 
L 189.555973 160.944257 
L 189.798072 160.944257 
L 190.040171 159.650567 
L 191.734863 159.650567 
L 191.976962 157.063187 
L 192.703258 157.063187 
L 192.945357 155.769497 
L 193.913752 155.769497 
L 194.155851 154.475807 
L 194.39795 154.475807 
L 195.124246 150.594738 
L 195.850543 150.594738 
L 196.092642 149.301048 
L 196.57684 149.301048 
L 196.818938 145.419979 
L 198.271531 145.419979 
L 198.51363 144.126289 
L 200.69252 144.126289 
L 201.176718 141.538909 
L 203.355607 141.538909 
L 203.597706 140.245219 
L 212.555363 140.245219 
L 212.797462 138.951529 
L 213.765857 138.951529 
L 214.007956 137.65784 
L 215.944747 137.65784 
L 216.186846 136.36415 
L 217.155241 136.36415 
L 217.39734 135.07046 
L 223.934009 135.07046 
L 224.176107 133.77677 
L 232.165369 133.77677 
L 232.407468 132.48308 
L 233.133764 132.48308 
L 233.375863 131.18939 
L 236.038951 131.18939 
L 236.281049 129.895701 
L 243.059817 129.895701 
L 243.301916 128.602011 
L 243.544015 128.602011 
L 243.786113 127.308321 
L 245.965003 127.308321 
L 246.207102 126.014631 
L 249.838585 126.014631 
L 250.322782 123.427251 
L 252.743771 123.427251 
L 252.985869 122.133561 
L 255.406858 122.133561 
L 255.648957 119.546182 
L 256.859451 119.546182 
L 257.10155 118.252492 
L 257.585747 118.252492 
L 257.827846 116.958802 
L 259.522538 116.958802 
L 259.764637 115.665112 
L 263.154021 115.665112 
L 263.39612 114.371422 
L 263.638218 114.371422 
L 264.122416 111.784043 
L 265.33291 111.784043 
L 265.575009 110.490353 
L 267.269701 110.490353 
L 267.5118 109.196663 
L 268.238096 109.196663 
L 268.480195 107.902973 
L 275.501062 107.902973 
L 275.74316 106.609283 
L 282.764027 106.609283 
L 283.006126 105.315594 
L 284.700818 105.315594 
L 284.942916 104.021904 
L 285.427114 104.021904 
L 285.669213 102.728214 
L 286.153411 102.728214 
L 286.395509 101.434524 
L 288.574399 101.434524 
L 288.816498 100.140834 
L 290.51119 100.140834 
L 290.753289 98.847144 
L 291.479585 98.847144 
L 291.721684 97.553455 
L 296.80576 97.553455 
L 297.047858 96.259765 
L 301.889835 96.259765 
L 302.131934 94.966075 
L 303.342428 94.966075 
L 303.584527 93.672385 
L 304.068725 93.672385 
L 304.310824 91.085005 
L 305.763417 91.085005 
L 306.005516 89.791316 
L 306.247614 89.791316 
L 306.489713 88.497626 
L 307.700207 88.497626 
L 307.942306 84.616556 
L 309.394899 84.616556 
L 309.636998 83.322866 
L 310.121196 83.322866 
L 310.847492 79.441797 
L 311.33169 79.441797 
L 311.573789 78.148107 
L 311.815888 78.148107 
L 312.057987 76.854417 
L 312.542184 76.854417 
L 312.784283 75.560727 
L 313.268481 75.560727 
L 313.51058 74.267037 
L 314.236876 74.267037 
L 314.478975 72.973348 
L 315.931568 72.973348 
L 316.173667 71.679658 
L 316.657865 71.679658 
L 316.899963 69.092278 
L 317.868359 69.092278 
L 318.110458 67.798588 
L 319.320952 67.798588 
L 319.563051 66.504898 
L 322.710336 66.504898 
L 322.952434 65.211209 
L 323.92083 65.211209 
L 324.162929 63.917519 
L 324.647126 63.917519 
L 324.889225 62.623829 
L 325.373423 62.623829 
L 325.615522 61.330139 
L 328.520708 61.330139 
L 328.762807 60.036449 
L 334.573179 60.036449 
L 334.815278 58.742759 
L 335.541574 58.742759 
L 335.783673 57.44907 
L 338.204661 57.44907 
L 338.44676 56.15538 
L 343.530836 56.15538 
L 343.772935 54.86169 
L 346.436022 54.86169 
L 346.678121 53.568 
L 398.487273 53.568 
L 398.487273 53.568 
" clip-path="url(#p5b934c34b3)" style="fill: none; stroke-dasharray: 1.85,0.8; stroke-dashoffset: 0; stroke: #bf00bf; stroke-width: 0.5"/>
   </g>
   <g id="line2d_19">
    <path d="M 73.832727 295.488 
L 83.032483 295.488 
L 83.274582 294.208 
L 86.179768 294.208 
L 86.421867 292.928 
L 86.663966 292.928 
L 86.906065 291.648 
L 89.569152 291.648 
L 89.811251 290.368 
L 94.16903 290.368 
L 94.411129 289.088 
L 94.653228 289.088 
L 94.895326 287.808 
L 95.863722 287.808 
L 96.105821 286.528 
L 98.28471 286.528 
L 98.526809 285.248 
L 101.916193 285.248 
L 102.158292 283.968 
L 105.063478 283.968 
L 105.305577 282.688 
L 110.389652 282.688 
L 110.631751 281.408 
L 111.115949 281.408 
L 111.358048 280.128 
L 111.842245 280.128 
L 112.084344 278.848 
L 112.810641 278.848 
L 113.052739 277.568 
L 114.263234 277.568 
L 114.505333 276.288 
L 116.684222 276.288 
L 117.16842 273.728 
L 117.894716 273.728 
L 118.136815 272.448 
L 119.10521 272.448 
L 119.831507 268.608 
L 124.915583 268.608 
L 125.157682 267.328 
L 126.852373 267.328 
L 127.094472 266.048 
L 128.062868 266.048 
L 128.304966 264.768 
L 128.789164 264.768 
L 129.031263 262.208 
L 130.725955 262.208 
L 130.968054 260.928 
L 131.210153 260.928 
L 131.452251 259.648 
L 132.178548 259.648 
L 132.420647 258.368 
L 133.146943 258.368 
L 133.389042 257.088 
L 134.115339 257.088 
L 134.357437 254.528 
L 135.083734 254.528 
L 135.325833 253.248 
L 136.052129 253.248 
L 136.294228 251.968 
L 137.98892 251.968 
L 138.231019 250.688 
L 139.441513 250.688 
L 139.683612 249.408 
L 140.16781 249.408 
L 140.652007 246.848 
L 142.830897 246.848 
L 143.072996 245.568 
L 143.799292 245.568 
L 144.041391 244.288 
L 144.28349 244.288 
L 144.525589 243.008 
L 144.767688 243.008 
L 145.009786 240.448 
L 145.736083 240.448 
L 145.978182 239.168 
L 146.220281 239.168 
L 146.462379 237.888 
L 148.883368 237.888 
L 149.125467 235.328 
L 150.335961 235.328 
L 150.57806 234.048 
L 151.546455 234.048 
L 151.788554 232.768 
L 153.483246 232.768 
L 153.967444 230.208 
L 154.209542 230.208 
L 154.451641 227.648 
L 155.420037 227.648 
L 155.662135 226.368 
L 156.87263 226.368 
L 157.114728 225.088 
L 157.598926 225.088 
L 157.841025 223.808 
L 161.472508 223.808 
L 161.714606 222.528 
L 162.440903 222.528 
L 162.683002 221.248 
L 162.925101 221.248 
L 163.1672 219.968 
L 164.135595 219.968 
L 164.861891 216.128 
L 165.588188 216.128 
L 165.830287 214.848 
L 166.556583 214.848 
L 166.798682 213.568 
L 169.703868 213.568 
L 170.188066 211.008 
L 170.672264 211.008 
L 170.914362 209.728 
L 171.156461 209.728 
L 171.39856 208.448 
L 174.303746 208.448 
L 174.545845 207.168 
L 174.787944 207.168 
L 175.030043 205.888 
L 175.51424 205.888 
L 175.756339 204.608 
L 176.240537 204.608 
L 176.482636 203.328 
L 179.387822 203.328 
L 179.629921 202.048 
L 182.050909 202.048 
L 182.293008 199.488 
L 183.261403 199.488 
L 183.503502 198.208 
L 187.377084 198.208 
L 187.619182 196.928 
L 188.345479 196.928 
L 188.587578 195.648 
L 189.798072 195.648 
L 190.28227 193.088 
L 190.524369 193.088 
L 190.766467 191.808 
L 191.492764 191.808 
L 191.734863 190.528 
L 192.703258 190.528 
L 192.945357 189.248 
L 194.155851 189.248 
L 194.39795 186.688 
L 196.334741 186.688 
L 196.57684 185.408 
L 197.303136 185.408 
L 197.545235 184.128 
L 199.966223 184.128 
L 200.208322 181.568 
L 200.69252 181.568 
L 200.934619 180.288 
L 205.292398 180.288 
L 206.018694 176.448 
L 207.713386 176.448 
L 208.197584 173.888 
L 208.439683 173.888 
L 208.681782 172.608 
L 210.376473 172.608 
L 210.618572 171.328 
L 211.344869 171.328 
L 211.829067 168.768 
L 212.071165 168.768 
L 212.313264 167.488 
L 212.555363 164.928 
L 212.797462 163.648 
L 213.039561 163.648 
L 213.28166 162.368 
L 213.523758 162.368 
L 213.765857 161.088 
L 214.734253 161.088 
L 214.976351 159.808 
L 215.21845 159.808 
L 215.460549 158.528 
L 215.702648 155.968 
L 216.428944 155.968 
L 216.671043 154.688 
L 217.155241 154.688 
L 217.39734 153.408 
L 217.639439 153.408 
L 217.881538 152.128 
L 218.849933 152.128 
L 219.092032 150.848 
L 220.544625 150.848 
L 221.028822 148.288 
L 221.997218 148.288 
L 222.239317 147.008 
L 222.965613 147.008 
L 223.207712 145.728 
L 227.80759 145.728 
L 228.049689 144.448 
L 229.502282 144.448 
L 229.744381 141.888 
L 238.702038 141.888 
L 238.944137 140.608 
L 239.912532 140.608 
L 240.154631 139.328 
L 240.39673 139.328 
L 240.638829 138.048 
L 241.849323 138.048 
L 242.091422 136.768 
L 247.175497 136.768 
L 247.417596 135.488 
L 248.143893 135.488 
L 248.385991 134.208 
L 263.154021 134.208 
L 263.638218 131.648 
L 274.048469 131.648 
L 274.290567 130.368 
L 275.258963 130.368 
L 275.501062 129.088 
L 275.74316 129.088 
L 275.985259 127.808 
L 280.827236 127.808 
L 281.069335 126.528 
L 284.21662 126.528 
L 284.458719 125.248 
L 287.121806 125.248 
L 287.363905 123.968 
L 287.848103 123.968 
L 288.090201 122.688 
L 292.44798 122.688 
L 292.932178 120.128 
L 293.900574 120.128 
L 294.142672 117.568 
L 294.384771 116.288 
L 295.111068 116.288 
L 295.353167 115.008 
L 296.321562 115.008 
L 296.563661 113.728 
L 296.80576 113.728 
L 297.047858 112.448 
L 298.74255 112.448 
L 298.984649 111.168 
L 305.03712 111.168 
L 305.279219 109.888 
L 305.521318 109.888 
L 305.763417 108.608 
L 307.942306 108.608 
L 308.184405 107.328 
L 315.205272 107.328 
L 315.44737 106.048 
L 315.689469 106.048 
L 315.931568 104.768 
L 324.647126 104.768 
L 324.889225 103.488 
L 326.583917 103.488 
L 326.826016 102.208 
L 329.004905 102.208 
L 329.247004 100.928 
L 332.636388 100.928 
L 332.878487 99.648 
L 338.930958 99.648 
L 339.173057 98.368 
L 339.899353 98.368 
L 340.383551 95.808 
L 345.225528 95.808 
L 345.467627 94.528 
L 347.162318 94.528 
L 347.404417 93.248 
L 351.0359 93.248 
L 351.277999 90.688 
L 351.520098 89.408 
L 352.004295 89.408 
L 352.488493 86.848 
L 353.21479 86.848 
L 353.456888 85.568 
L 353.941086 85.568 
L 354.183185 84.288 
L 356.604173 84.288 
L 356.846272 81.728 
L 357.088371 81.728 
L 357.572569 79.168 
L 358.298865 79.168 
L 358.540964 77.888 
L 359.025162 77.888 
L 359.267261 76.608 
L 360.477755 76.608 
L 360.719854 75.328 
L 360.961952 75.328 
L 361.204051 74.048 
L 363.382941 74.048 
L 363.62504 72.768 
L 364.109237 72.768 
L 364.351336 71.488 
L 365.56183 71.488 
L 365.803929 70.208 
L 366.046028 70.208 
L 366.288127 68.928 
L 366.530226 68.928 
L 366.772325 67.648 
L 367.256522 67.648 
L 367.498621 66.368 
L 370.161708 66.368 
L 370.403807 65.088 
L 371.614301 65.088 
L 371.8564 63.808 
L 373.308993 63.808 
L 373.551092 62.528 
L 377.182575 62.528 
L 377.424674 61.248 
L 379.845662 61.248 
L 380.32986 58.688 
L 385.898133 58.688 
L 386.140232 57.408 
L 386.866528 57.408 
L 387.108627 56.128 
L 396.792581 56.128 
L 397.03468 54.848 
L 398.245174 54.848 
L 398.487273 53.568 
L 398.487273 53.568 
" clip-path="url(#p5b934c34b3)" style="fill: none; stroke-dasharray: 1.85,0.8; stroke-dashoffset: 0; stroke: #bfbf00; stroke-width: 0.5"/>
   </g>
   <g id="patch_3">
    <path d="M 57.6 307.584 
L 57.6 41.472 
" style="fill: none; stroke: #000000; stroke-width: 0.8; stroke-linejoin: miter; stroke-linecap: square"/>
   </g>
   <g id="patch_4">
    <path d="M 414.72 307.584 
L 414.72 41.472 
" style="fill: none; stroke: #000000; stroke-width: 0.8; stroke-linejoin: miter; stroke-linecap: square"/>
   </g>
   <g id="patch_5">
    <path d="M 57.6 307.584 
L 414.72 307.584 
" style="fill: none; stroke: #000000; stroke-width: 0.8; stroke-linejoin: miter; stroke-linecap: square"/>
   </g>
   <g id="patch_6">
    <path d="M 57.6 41.472 
L 414.72 41.472 
" style="fill: none; stroke: #000000; stroke-width: 0.8; stroke-linejoin: miter; stroke-linecap: square"/>
   </g>
   <g id="text_17">
    <!-- count=1000, googlenet=125, resnet50=75, squeezenetv1=125, vgg19=75 -->
    <g transform="translate(38.16 35.472)scale(0.12 -0.12)">
     <defs>
      <path id="FangSong-63" d="M 2125 2125 
Q 2125 2200 2137 2225 
Q 2150 2250 2175 2325 
Q 2200 2425 2075 2562 
Q 1950 2700 1650 2700 
Q 1275 2700 1012 2337 
Q 750 1975 750 1375 
Q 750 825 975 487 
Q 1200 150 1725 150 
Q 2075 150 2312 375 
Q 2550 600 2650 900 
L 2775 850 
Q 2675 475 2400 212 
Q 2125 -50 1650 -50 
Q 1050 -50 700 325 
Q 350 700 350 1400 
Q 350 2025 725 2437 
Q 1100 2850 1700 2850 
Q 2125 2850 2362 2625 
Q 2600 2400 2600 2175 
Q 2600 2025 2537 1962 
Q 2475 1900 2350 1900 
Q 2250 1900 2187 1962 
Q 2125 2025 2125 2125 
z
" transform="scale(0.015625)"/>
      <path id="FangSong-6f" d="M 2875 1400 
Q 2875 775 2500 362 
Q 2125 -50 1575 -50 
Q 1000 -50 637 375 
Q 275 800 275 1400 
Q 275 1950 637 2400 
Q 1000 2850 1575 2850 
Q 2175 2850 2525 2400 
Q 2875 1950 2875 1400 
z
M 675 1375 
Q 675 725 937 412 
Q 1200 100 1575 100 
Q 2000 100 2237 437 
Q 2475 775 2475 1375 
Q 2475 2025 2212 2362 
Q 1950 2700 1575 2700 
Q 1225 2700 950 2362 
Q 675 2025 675 1375 
z
" transform="scale(0.015625)"/>
      <path id="FangSong-75" d="M 1425 225 
Q 1725 225 1937 375 
Q 2150 525 2250 850 
L 2250 2425 
Q 2250 2525 2200 2587 
Q 2150 2650 2025 2650 
L 1875 2650 
L 1875 2800 
L 2025 2800 
Q 2175 2800 2300 2825 
Q 2425 2850 2550 2950 
L 2600 2950 
L 2600 500 
Q 2600 400 2662 350 
Q 2725 300 2825 300 
L 2975 300 
L 2975 150 
L 2825 150 
Q 2700 150 2575 112 
Q 2450 75 2300 0 
L 2250 0 
L 2250 525 
Q 2125 250 1875 112 
Q 1625 -25 1300 -25 
Q 900 -25 700 200 
Q 500 425 500 925 
L 500 2425 
Q 500 2525 450 2587 
Q 400 2650 275 2650 
L 125 2650 
L 125 2800 
L 275 2800 
Q 425 2800 550 2825 
Q 675 2850 800 2950 
L 850 2950 
L 850 875 
Q 850 525 1000 375 
Q 1150 225 1425 225 
z
" transform="scale(0.015625)"/>
      <path id="FangSong-6e" d="M 175 0 
L 175 150 
L 300 150 
Q 425 150 475 200 
Q 525 250 525 350 
L 525 2500 
Q 525 2575 500 2612 
Q 475 2650 400 2650 
L 200 2650 
L 200 2800 
L 375 2800 
Q 500 2800 612 2825 
Q 725 2850 825 2925 
L 875 2925 
L 875 2350 
Q 1100 2600 1325 2725 
Q 1550 2850 1800 2850 
Q 2225 2850 2425 2625 
Q 2625 2400 2625 1950 
L 2625 350 
Q 2625 250 2687 200 
Q 2750 150 2850 150 
L 2975 150 
L 2975 0 
L 1925 0 
L 1925 150 
L 2050 150 
Q 2175 150 2225 200 
Q 2275 250 2275 350 
L 2275 2025 
Q 2275 2325 2150 2487 
Q 2025 2650 1775 2650 
Q 1550 2650 1312 2500 
Q 1075 2350 875 2075 
L 875 350 
Q 875 250 937 200 
Q 1000 150 1100 150 
L 1225 150 
L 1225 0 
L 175 0 
z
" transform="scale(0.015625)"/>
      <path id="FangSong-74" d="M 1475 800 
Q 1475 450 1600 325 
Q 1725 200 1975 200 
Q 2225 200 2375 362 
Q 2525 525 2575 825 
L 2700 775 
Q 2650 425 2437 200 
Q 2225 -25 1875 -25 
Q 1500 -25 1312 200 
Q 1125 425 1125 900 
L 1125 2650 
L 375 2650 
L 375 2800 
L 575 2800 
Q 875 2800 1062 2987 
Q 1250 3175 1300 3575 
L 1325 3775 
L 1475 3775 
L 1475 2800 
L 2475 2800 
L 2475 2650 
L 1475 2650 
L 1475 800 
z
" transform="scale(0.015625)"/>
      <path id="FangSong-3d" d="M 175 2725 
L 175 2950 
L 2950 2950 
L 2950 2725 
L 175 2725 
z
M 175 1450 
L 175 1675 
L 2950 1675 
L 2950 1450 
L 175 1450 
z
" transform="scale(0.015625)"/>
      <path id="FangSong-2c" d="M 1325 75 
Q 1200 25 1100 75 
Q 1000 125 962 237 
Q 925 350 925 437 
Q 925 525 987 612 
Q 1050 700 1150 737 
Q 1250 775 1425 725 
Q 1600 675 1650 500 
Q 1700 325 1662 150 
Q 1625 -25 1525 -200 
Q 1425 -375 1312 -475 
Q 1200 -575 1025 -675 
L 950 -575 
Q 1100 -450 1187 -312 
Q 1275 -175 1325 75 
z
" transform="scale(0.015625)"/>
      <path id="FangSong-20" transform="scale(0.015625)"/>
      <path id="FangSong-67" d="M 850 1875 
Q 850 1575 1025 1362 
Q 1200 1150 1500 1150 
Q 1825 1150 1987 1337 
Q 2150 1525 2150 1875 
Q 2150 2300 1962 2487 
Q 1775 2675 1500 2675 
Q 1225 2675 1037 2487 
Q 850 2300 850 1875 
z
M 2075 525 
Q 2450 475 2625 312 
Q 2800 150 2800 -125 
Q 2800 -500 2487 -725 
Q 2175 -950 1500 -950 
Q 975 -950 650 -737 
Q 325 -525 325 -250 
Q 325 -75 450 100 
Q 575 275 850 375 
Q 700 450 612 537 
Q 525 625 525 750 
Q 525 900 625 1012 
Q 725 1125 875 1200 
Q 725 1325 612 1500 
Q 500 1675 500 1875 
Q 500 2250 762 2537 
Q 1025 2825 1500 2825 
Q 1700 2825 1887 2775 
Q 2075 2725 2200 2600 
Q 2375 2725 2512 2787 
Q 2650 2850 2750 2850 
Q 2875 2850 2925 2762 
Q 2975 2675 2975 2600 
Q 2975 2500 2937 2437 
Q 2900 2375 2800 2375 
Q 2725 2375 2675 2412 
Q 2625 2450 2600 2525 
Q 2575 2600 2487 2587 
Q 2400 2575 2300 2500 
Q 2400 2400 2450 2225 
Q 2500 2050 2500 1875 
Q 2500 1575 2262 1287 
Q 2025 1000 1500 1000 
Q 1350 1000 1225 1037 
Q 1100 1075 1025 1125 
Q 925 1075 875 1000 
Q 825 925 825 875 
Q 825 775 875 725 
Q 925 675 1025 675 
Q 1350 625 1612 587 
Q 1875 550 2075 525 
z
M 1050 325 
Q 825 225 737 87 
Q 650 -50 650 -250 
Q 650 -450 875 -625 
Q 1100 -800 1550 -800 
Q 1975 -800 2225 -662 
Q 2475 -525 2475 -250 
Q 2475 -75 2412 25 
Q 2350 125 2225 150 
Q 1975 200 1675 237 
Q 1375 275 1050 325 
z
" transform="scale(0.015625)"/>
      <path id="FangSong-6c" d="M 900 4275 
Q 1125 4275 1325 4325 
Q 1525 4375 1700 4475 
L 1750 4475 
L 1750 350 
Q 1750 250 1812 200 
Q 1875 150 1975 150 
L 2550 150 
L 2550 0 
L 600 0 
L 600 150 
L 1175 150 
Q 1300 150 1350 200 
Q 1400 250 1400 350 
L 1400 3925 
Q 1400 4025 1350 4075 
Q 1300 4125 1175 4125 
L 625 4125 
L 625 4275 
L 900 4275 
z
" transform="scale(0.015625)"/>
      <path id="FangSong-65" d="M 2375 1550 
Q 2400 2100 2187 2387 
Q 1975 2675 1625 2675 
Q 1250 2675 1012 2375 
Q 775 2075 775 1550 
L 2375 1550 
z
M 775 1400 
Q 775 725 1037 437 
Q 1300 150 1725 150 
Q 2050 150 2275 337 
Q 2500 525 2600 800 
L 2725 750 
Q 2650 475 2387 212 
Q 2125 -50 1675 -50 
Q 1100 -50 737 325 
Q 375 700 375 1400 
Q 375 2025 737 2437 
Q 1100 2850 1625 2850 
Q 2100 2850 2450 2525 
Q 2800 2200 2800 1400 
L 775 1400 
z
" transform="scale(0.015625)"/>
      <path id="FangSong-35" d="M 1700 2750 
Q 2175 2750 2475 2387 
Q 2775 2025 2775 1425 
Q 2775 750 2462 350 
Q 2150 -50 1500 -50 
Q 1050 -50 700 212 
Q 350 475 350 850 
Q 350 1000 437 1112 
Q 525 1225 675 1225 
Q 825 1225 875 1125 
Q 925 1025 925 950 
Q 925 800 850 712 
Q 775 625 775 525 
Q 775 325 1012 225 
Q 1250 125 1525 125 
Q 1925 125 2137 450 
Q 2350 775 2350 1375 
Q 2350 1875 2162 2187 
Q 1975 2500 1600 2500 
Q 1325 2500 1125 2400 
Q 925 2300 750 1975 
L 525 2000 
L 650 4275 
L 2700 4275 
L 2625 3900 
L 825 3900 
L 725 2250 
Q 975 2600 1212 2675 
Q 1450 2750 1700 2750 
z
" transform="scale(0.015625)"/>
      <path id="FangSong-72" d="M 1250 2025 
Q 1500 2425 1787 2637 
Q 2075 2850 2375 2850 
Q 2625 2850 2762 2737 
Q 2900 2625 2900 2475 
Q 2900 2350 2837 2275 
Q 2775 2200 2650 2200 
Q 2525 2200 2462 2275 
Q 2400 2350 2425 2475 
Q 2425 2550 2400 2600 
Q 2375 2650 2250 2650 
Q 2050 2650 1762 2400 
Q 1475 2150 1250 1700 
L 1250 350 
Q 1250 250 1312 200 
Q 1375 150 1475 150 
L 2025 150 
L 2025 0 
L 175 0 
L 175 150 
L 675 150 
Q 800 150 850 200 
Q 900 250 900 350 
L 900 2425 
Q 900 2525 850 2587 
Q 800 2650 675 2650 
L 200 2650 
L 200 2800 
L 400 2800 
Q 575 2800 812 2837 
Q 1050 2875 1175 2925 
L 1250 2925 
L 1250 2025 
z
" transform="scale(0.015625)"/>
      <path id="FangSong-73" d="M 600 2075 
Q 600 2450 887 2650 
Q 1175 2850 1575 2850 
Q 1800 2850 2000 2787 
Q 2200 2725 2275 2725 
Q 2350 2725 2400 2750 
Q 2450 2775 2525 2850 
L 2625 2025 
L 2475 2000 
Q 2375 2325 2137 2512 
Q 1900 2700 1600 2700 
Q 1275 2700 1087 2575 
Q 900 2450 900 2225 
Q 900 2025 987 1912 
Q 1075 1800 1300 1750 
Q 1475 1675 1737 1587 
Q 2000 1500 2225 1400 
Q 2425 1300 2562 1137 
Q 2700 975 2700 775 
Q 2700 400 2437 187 
Q 2175 -25 1675 -25 
Q 1350 -25 1187 37 
Q 1025 100 925 100 
Q 850 100 762 62 
Q 675 25 575 -25 
L 500 900 
L 650 925 
Q 725 525 975 325 
Q 1225 125 1675 125 
Q 2025 125 2212 250 
Q 2400 375 2400 625 
Q 2400 800 2300 912 
Q 2200 1025 2100 1075 
Q 1850 1175 1550 1287 
Q 1250 1400 1025 1500 
Q 800 1600 700 1750 
Q 600 1900 600 2075 
z
" transform="scale(0.015625)"/>
      <path id="FangSong-37" d="M 2800 4100 
Q 2275 3250 1962 2437 
Q 1650 1625 1650 1025 
Q 1650 925 1662 737 
Q 1675 550 1675 300 
Q 1675 100 1612 25 
Q 1550 -50 1400 -50 
Q 1275 -50 1187 37 
Q 1100 125 1100 350 
Q 1100 825 1312 1525 
Q 1525 2225 2450 3900 
L 1200 3900 
Q 925 3900 762 3725 
Q 600 3550 525 3200 
L 375 3225 
L 550 4275 
L 2800 4275 
L 2800 4100 
z
" transform="scale(0.015625)"/>
      <path id="FangSong-71" d="M 2250 2150 
Q 2150 2375 1975 2512 
Q 1800 2650 1550 2650 
Q 1200 2650 950 2350 
Q 700 2050 700 1325 
Q 700 700 912 437 
Q 1125 175 1450 175 
Q 1725 175 1937 300 
Q 2150 425 2250 725 
L 2250 2150 
z
M 2600 -550 
Q 2600 -675 2662 -725 
Q 2725 -775 2825 -775 
L 2975 -775 
L 2975 -925 
L 1825 -925 
L 1825 -775 
L 2025 -775 
Q 2150 -775 2200 -725 
Q 2250 -675 2250 -550 
L 2250 375 
Q 2100 175 1887 75 
Q 1675 -25 1375 -25 
Q 950 -25 625 337 
Q 300 700 300 1400 
Q 300 2075 675 2450 
Q 1050 2825 1475 2825 
Q 1750 2825 1937 2725 
Q 2125 2625 2275 2475 
L 2500 2800 
L 2600 2800 
L 2600 -550 
z
" transform="scale(0.015625)"/>
      <path id="FangSong-7a" d="M 2725 975 
L 2550 0 
L 400 0 
L 400 125 
L 2125 2650 
L 1200 2650 
Q 975 2650 825 2487 
Q 675 2325 575 1925 
L 425 1950 
L 525 2800 
L 2575 2800 
L 2575 2725 
L 825 150 
L 1775 150 
Q 2100 150 2287 350 
Q 2475 550 2575 1000 
L 2725 975 
z
" transform="scale(0.015625)"/>
      <path id="FangSong-76" d="M 1600 -25 
L 1450 -25 
L 600 2425 
Q 575 2525 500 2587 
Q 425 2650 325 2650 
L 200 2650 
L 200 2800 
L 1275 2800 
L 1275 2650 
L 1175 2650 
Q 1025 2650 987 2575 
Q 950 2500 1000 2325 
L 1600 575 
L 1650 575 
L 2250 2300 
Q 2325 2475 2262 2562 
Q 2200 2650 2050 2650 
L 2000 2650 
L 2000 2800 
L 2900 2800 
L 2900 2650 
L 2850 2650 
Q 2700 2650 2612 2562 
Q 2525 2475 2450 2300 
L 1600 -25 
z
" transform="scale(0.015625)"/>
      <path id="FangSong-39" d="M 675 2950 
Q 675 2400 887 2112 
Q 1100 1825 1425 1825 
Q 1800 1825 2075 2175 
Q 2350 2525 2350 2825 
Q 2350 3425 2150 3787 
Q 1950 4150 1500 4150 
Q 1075 4150 875 3812 
Q 675 3475 675 2950 
z
M 1350 1600 
Q 850 1600 550 1912 
Q 250 2225 250 2925 
Q 250 3525 575 3925 
Q 900 4325 1500 4325 
Q 2125 4325 2475 3825 
Q 2825 3325 2825 2375 
Q 2825 1325 2412 637 
Q 2000 -50 1275 -50 
Q 950 -50 712 100 
Q 475 250 475 500 
Q 475 600 537 700 
Q 600 800 750 800 
Q 900 800 950 687 
Q 1000 575 1000 425 
Q 1000 325 1025 262 
Q 1050 200 1075 175 
Q 1100 150 1162 137 
Q 1225 125 1300 125 
Q 1750 125 2025 625 
Q 2300 1125 2350 2300 
Q 2225 2000 1975 1800 
Q 1725 1600 1350 1600 
z
" transform="scale(0.015625)"/>
     </defs>
     <use xlink:href="#FangSong-63"/>
     <use xlink:href="#FangSong-6f" x="50"/>
     <use xlink:href="#FangSong-75" x="100"/>
     <use xlink:href="#FangSong-6e" x="150"/>
     <use xlink:href="#FangSong-74" x="200"/>
     <use xlink:href="#FangSong-3d" x="250"/>
     <use xlink:href="#FangSong-31" x="300"/>
     <use xlink:href="#FangSong-30" x="350"/>
     <use xlink:href="#FangSong-30" x="400"/>
     <use xlink:href="#FangSong-30" x="450"/>
     <use xlink:href="#FangSong-2c" x="500"/>
     <use xlink:href="#FangSong-20" x="550"/>
     <use xlink:href="#FangSong-67" x="600"/>
     <use xlink:href="#FangSong-6f" x="650"/>
     <use xlink:href="#FangSong-6f" x="700"/>
     <use xlink:href="#FangSong-67" x="750"/>
     <use xlink:href="#FangSong-6c" x="800"/>
     <use xlink:href="#FangSong-65" x="850"/>
     <use xlink:href="#FangSong-6e" x="900"/>
     <use xlink:href="#FangSong-65" x="950"/>
     <use xlink:href="#FangSong-74" x="1000"/>
     <use xlink:href="#FangSong-3d" x="1050"/>
     <use xlink:href="#FangSong-31" x="1100"/>
     <use xlink:href="#FangSong-32" x="1150"/>
     <use xlink:href="#FangSong-35" x="1200"/>
     <use xlink:href="#FangSong-2c" x="1250"/>
     <use xlink:href="#FangSong-20" x="1300"/>
     <use xlink:href="#FangSong-72" x="1350"/>
     <use xlink:href="#FangSong-65" x="1400"/>
     <use xlink:href="#FangSong-73" x="1450"/>
     <use xlink:href="#FangSong-6e" x="1500"/>
     <use xlink:href="#FangSong-65" x="1550"/>
     <use xlink:href="#FangSong-74" x="1600"/>
     <use xlink:href="#FangSong-35" x="1650"/>
     <use xlink:href="#FangSong-30" x="1700"/>
     <use xlink:href="#FangSong-3d" x="1750"/>
     <use xlink:href="#FangSong-37" x="1800"/>
     <use xlink:href="#FangSong-35" x="1850"/>
     <use xlink:href="#FangSong-2c" x="1900"/>
     <use xlink:href="#FangSong-20" x="1950"/>
     <use xlink:href="#FangSong-73" x="2000"/>
     <use xlink:href="#FangSong-71" x="2050"/>
     <use xlink:href="#FangSong-75" x="2100"/>
     <use xlink:href="#FangSong-65" x="2150"/>
     <use xlink:href="#FangSong-65" x="2200"/>
     <use xlink:href="#FangSong-7a" x="2250"/>
     <use xlink:href="#FangSong-65" x="2300"/>
     <use xlink:href="#FangSong-6e" x="2350"/>
     <use xlink:href="#FangSong-65" x="2400"/>
     <use xlink:href="#FangSong-74" x="2450"/>
     <use xlink:href="#FangSong-76" x="2500"/>
     <use xlink:href="#FangSong-31" x="2550"/>
     <use xlink:href="#FangSong-3d" x="2600"/>
     <use xlink:href="#FangSong-31" x="2650"/>
     <use xlink:href="#FangSong-32" x="2700"/>
     <use xlink:href="#FangSong-35" x="2750"/>
     <use xlink:href="#FangSong-2c" x="2800"/>
     <use xlink:href="#FangSong-20" x="2850"/>
     <use xlink:href="#FangSong-76" x="2900"/>
     <use xlink:href="#FangSong-67" x="2950"/>
     <use xlink:href="#FangSong-67" x="3000"/>
     <use xlink:href="#FangSong-31" x="3050"/>
     <use xlink:href="#FangSong-39" x="3100"/>
     <use xlink:href="#FangSong-3d" x="3150"/>
     <use xlink:href="#FangSong-37" x="3200"/>
     <use xlink:href="#FangSong-35" x="3250"/>
    </g>
   </g>
   <g id="legend_1">
    <g id="patch_7">
     <path d="M 315.72 302.584 
L 407.72 302.584 
Q 409.72 302.584 409.72 300.584 
L 409.72 234.279312 
Q 409.72 232.279312 407.72 232.279312 
L 315.72 232.279312 
Q 313.72 232.279312 313.72 234.279312 
L 313.72 300.584 
Q 313.72 302.584 315.72 302.584 
z
" style="fill: #ffffff; opacity: 0.8; stroke: #cccccc; stroke-linejoin: miter"/>
    </g>
    <g id="line2d_20">
     <path d="M 317.72 239.779312 
L 327.72 239.779312 
L 337.72 239.779312 
" style="fill: none; stroke: #ff0000; stroke-linecap: square"/>
    </g>
    <g id="text_18">
     <!-- total -->
     <g transform="translate(345.72 243.279312)scale(0.1 -0.1)">
      <defs>
       <path id="FangSong-61" d="M 1200 -25 
Q 750 -25 500 187 
Q 250 400 250 675 
Q 250 1125 637 1412 
Q 1025 1700 2175 1825 
L 2175 2125 
Q 2175 2375 2062 2537 
Q 1950 2700 1550 2700 
Q 1125 2700 950 2562 
Q 775 2425 825 2275 
Q 875 2175 825 2075 
Q 775 1975 625 1975 
Q 525 1975 462 2037 
Q 400 2100 400 2225 
Q 400 2450 725 2650 
Q 1050 2850 1525 2850 
Q 2025 2850 2275 2662 
Q 2525 2475 2525 2125 
L 2525 475 
Q 2525 275 2562 237 
Q 2600 200 2700 200 
Q 2825 200 2875 312 
Q 2925 425 2925 625 
L 3050 625 
Q 3050 275 2925 137 
Q 2800 0 2600 0 
Q 2425 0 2325 75 
Q 2225 150 2175 325 
Q 1925 150 1712 62 
Q 1500 -25 1200 -25 
z
M 675 750 
Q 675 525 812 337 
Q 950 150 1250 150 
Q 1475 150 1700 237 
Q 1925 325 2175 500 
L 2175 1675 
Q 1325 1575 1000 1337 
Q 675 1100 675 750 
z
" transform="scale(0.015625)"/>
      </defs>
      <use xlink:href="#FangSong-74"/>
      <use xlink:href="#FangSong-6f" x="50"/>
      <use xlink:href="#FangSong-74" x="100"/>
      <use xlink:href="#FangSong-61" x="150"/>
      <use xlink:href="#FangSong-6c" x="200"/>
     </g>
    </g>
    <g id="line2d_21">
     <path d="M 317.72 253.224625 
L 327.72 253.224625 
L 337.72 253.224625 
" style="fill: none; stroke-dasharray: 1.85,0.8; stroke-dashoffset: 0; stroke: #008000; stroke-width: 0.5"/>
    </g>
    <g id="text_19">
     <!-- vgg19 -->
     <g transform="translate(345.72 256.724625)scale(0.1 -0.1)">
      <use xlink:href="#FangSong-76"/>
      <use xlink:href="#FangSong-67" x="50"/>
      <use xlink:href="#FangSong-67" x="100"/>
      <use xlink:href="#FangSong-31" x="150"/>
      <use xlink:href="#FangSong-39" x="200"/>
     </g>
    </g>
    <g id="line2d_22">
     <path d="M 317.72 266.709 
L 327.72 266.709 
L 337.72 266.709 
" style="fill: none; stroke-dasharray: 1.85,0.8; stroke-dashoffset: 0; stroke: #0000ff; stroke-width: 0.5"/>
    </g>
    <g id="text_20">
     <!-- resnet50 -->
     <g transform="translate(345.72 270.209)scale(0.1 -0.1)">
      <use xlink:href="#FangSong-72"/>
      <use xlink:href="#FangSong-65" x="50"/>
      <use xlink:href="#FangSong-73" x="100"/>
      <use xlink:href="#FangSong-6e" x="150"/>
      <use xlink:href="#FangSong-65" x="200"/>
      <use xlink:href="#FangSong-74" x="250"/>
      <use xlink:href="#FangSong-35" x="300"/>
      <use xlink:href="#FangSong-30" x="350"/>
     </g>
    </g>
    <g id="line2d_23">
     <path d="M 317.72 280.154312 
L 327.72 280.154312 
L 337.72 280.154312 
" style="fill: none; stroke-dasharray: 1.85,0.8; stroke-dashoffset: 0; stroke: #bf00bf; stroke-width: 0.5"/>
    </g>
    <g id="text_21">
     <!-- googlenet -->
     <g transform="translate(345.72 283.654312)scale(0.1 -0.1)">
      <use xlink:href="#FangSong-67"/>
      <use xlink:href="#FangSong-6f" x="50"/>
      <use xlink:href="#FangSong-6f" x="100"/>
      <use xlink:href="#FangSong-67" x="150"/>
      <use xlink:href="#FangSong-6c" x="200"/>
      <use xlink:href="#FangSong-65" x="250"/>
      <use xlink:href="#FangSong-6e" x="300"/>
      <use xlink:href="#FangSong-65" x="350"/>
      <use xlink:href="#FangSong-74" x="400"/>
     </g>
    </g>
    <g id="line2d_24">
     <path d="M 317.72 293.638687 
L 327.72 293.638687 
L 337.72 293.638687 
" style="fill: none; stroke-dasharray: 1.85,0.8; stroke-dashoffset: 0; stroke: #bfbf00; stroke-width: 0.5"/>
    </g>
    <g id="text_22">
     <!-- squeezenetv1 -->
     <g transform="translate(345.72 297.138687)scale(0.1 -0.1)">
      <use xlink:href="#FangSong-73"/>
      <use xlink:href="#FangSong-71" x="50"/>
      <use xlink:href="#FangSong-75" x="100"/>
      <use xlink:href="#FangSong-65" x="150"/>
      <use xlink:href="#FangSong-65" x="200"/>
      <use xlink:href="#FangSong-7a" x="250"/>
      <use xlink:href="#FangSong-65" x="300"/>
      <use xlink:href="#FangSong-6e" x="350"/>
      <use xlink:href="#FangSong-65" x="400"/>
      <use xlink:href="#FangSong-74" x="450"/>
      <use xlink:href="#FangSong-76" x="500"/>
      <use xlink:href="#FangSong-31" x="550"/>
     </g>
    </g>
   </g>
  </g>
 </g>
 <defs>
  <clipPath id="p5b934c34b3">
   <rect x="57.6" y="41.472" width="357.12" height="266.112"/>
  </clipPath>
 </defs>
</svg>
