<?xml version="1.0" encoding="utf-8" standalone="no"?>
<!DOCTYPE svg PUBLIC "-//W3C//DTD SVG 1.1//EN"
  "http://www.w3.org/Graphics/SVG/1.1/DTD/svg11.dtd">
<svg xmlns:xlink="http://www.w3.org/1999/xlink" width="460.8pt" height="345.6pt" viewBox="0 0 460.8 345.6" xmlns="http://www.w3.org/2000/svg" version="1.1">
 <metadata>
  <rdf:RDF xmlns:dc="http://purl.org/dc/elements/1.1/" xmlns:cc="http://creativecommons.org/ns#" xmlns:rdf="http://www.w3.org/1999/02/22-rdf-syntax-ns#">
   <cc:Work>
    <dc:type rdf:resource="http://purl.org/dc/dcmitype/StillImage"/>
    <dc:date>2023-01-17T16:26:40.242749</dc:date>
    <dc:format>image/svg+xml</dc:format>
    <dc:creator>
     <cc:Agent>
      <dc:title>Matplotlib v3.5.2, https://matplotlib.org/</dc:title>
     </cc:Agent>
    </dc:creator>
   </cc:Work>
  </rdf:RDF>
 </metadata>
 <defs>
  <style type="text/css">*{stroke-linejoin: round; stroke-linecap: butt}</style>
 </defs>
 <g id="figure_1">
  <g id="patch_1">
   <path d="M 0 345.6 
L 460.8 345.6 
L 460.8 0 
L 0 0 
z
" style="fill: #ffffff"/>
  </g>
  <g id="axes_1">
   <g id="patch_2">
    <path d="M 57.6 307.584 
L 414.72 307.584 
L 414.72 41.472 
L 57.6 41.472 
z
" style="fill: #ffffff"/>
   </g>
   <g id="matplotlib.axis_1">
    <g id="xtick_1">
     <g id="line2d_1">
      <defs>
       <path id="mbdaddcb95d" d="M 0 0 
L 0 3.5 
" style="stroke: #000000; stroke-width: 0.8"/>
      </defs>
      <g>
       <use xlink:href="#mbdaddcb95d" x="106.960742" y="307.584" style="stroke: #000000; stroke-width: 0.8"/>
      </g>
     </g>
     <g id="text_1">
      <!-- 2 -->
      <g transform="translate(104.460742 321.576187)scale(0.1 -0.1)">
       <defs>
        <path id="FangSong-32" d="M 2300 3225 
Q 2300 3675 2100 3912 
Q 1900 4150 1500 4150 
Q 1200 4150 987 3987 
Q 775 3825 775 3575 
Q 775 3425 862 3325 
Q 950 3225 950 3125 
Q 950 3000 887 2937 
Q 825 2875 700 2875 
Q 550 2875 462 2962 
Q 375 3050 375 3250 
Q 375 3775 750 4050 
Q 1125 4325 1550 4325 
Q 2150 4325 2437 4025 
Q 2725 3725 2725 3275 
Q 2725 2975 2587 2675 
Q 2450 2375 2150 2100 
Q 1425 1400 1037 962 
Q 650 525 575 375 
L 2050 375 
Q 2275 375 2425 550 
Q 2575 725 2625 1075 
L 2775 1075 
L 2625 0 
L 300 0 
L 300 325 
Q 425 550 712 900 
Q 1000 1250 1475 1725 
Q 1900 2150 2100 2525 
Q 2300 2900 2300 3225 
z
" transform="scale(0.015625)"/>
       </defs>
       <use xlink:href="#FangSong-32"/>
      </g>
     </g>
    </g>
    <g id="xtick_2">
     <g id="line2d_2">
      <g>
       <use xlink:href="#mbdaddcb95d" x="173.216772" y="307.584" style="stroke: #000000; stroke-width: 0.8"/>
      </g>
     </g>
     <g id="text_2">
      <!-- 4 -->
      <g transform="translate(170.716772 321.576187)scale(0.1 -0.1)">
       <defs>
        <path id="FangSong-34" d="M 2275 475 
Q 2275 300 2375 225 
Q 2475 150 2650 150 
L 2875 150 
L 2875 0 
L 1225 0 
L 1225 150 
L 1500 150 
Q 1700 150 1787 225 
Q 1875 300 1875 475 
L 1875 1300 
L 200 1300 
L 200 1425 
L 2025 4325 
L 2275 4325 
L 2275 1450 
L 2950 1450 
L 2950 1300 
L 2275 1300 
L 2275 475 
z
M 1850 3700 
L 425 1450 
L 1875 1450 
L 1875 3700 
L 1850 3700 
z
" transform="scale(0.015625)"/>
       </defs>
       <use xlink:href="#FangSong-34"/>
      </g>
     </g>
    </g>
    <g id="xtick_3">
     <g id="line2d_3">
      <g>
       <use xlink:href="#mbdaddcb95d" x="239.472801" y="307.584" style="stroke: #000000; stroke-width: 0.8"/>
      </g>
     </g>
     <g id="text_3">
      <!-- 6 -->
      <g transform="translate(236.972801 321.576187)scale(0.1 -0.1)">
       <defs>
        <path id="FangSong-36" d="M 750 1700 
Q 750 950 1012 537 
Q 1275 125 1650 125 
Q 2025 125 2225 400 
Q 2425 675 2425 1425 
Q 2425 1925 2212 2200 
Q 2000 2475 1700 2475 
Q 1425 2475 1187 2312 
Q 950 2150 750 1700 
z
M 1725 2725 
Q 2325 2725 2587 2325 
Q 2850 1925 2850 1425 
Q 2850 675 2487 312 
Q 2125 -50 1650 -50 
Q 975 -50 625 462 
Q 275 975 275 1950 
Q 275 3100 700 3712 
Q 1125 4325 1850 4325 
Q 2200 4325 2412 4125 
Q 2625 3925 2625 3775 
Q 2625 3625 2562 3550 
Q 2500 3475 2350 3475 
Q 2225 3475 2162 3537 
Q 2100 3600 2100 3725 
Q 2100 3775 2112 3825 
Q 2125 3875 2125 3925 
Q 2125 4025 2050 4087 
Q 1975 4150 1775 4150 
Q 1350 4150 1050 3762 
Q 750 3375 750 2075 
Q 900 2400 1162 2562 
Q 1425 2725 1725 2725 
z
" transform="scale(0.015625)"/>
       </defs>
       <use xlink:href="#FangSong-36"/>
      </g>
     </g>
    </g>
    <g id="xtick_4">
     <g id="line2d_4">
      <g>
       <use xlink:href="#mbdaddcb95d" x="305.728831" y="307.584" style="stroke: #000000; stroke-width: 0.8"/>
      </g>
     </g>
     <g id="text_4">
      <!-- 8 -->
      <g transform="translate(303.228831 321.576187)scale(0.1 -0.1)">
       <defs>
        <path id="FangSong-38" d="M 600 1025 
Q 600 625 862 375 
Q 1125 125 1525 125 
Q 2000 125 2212 375 
Q 2425 625 2425 1000 
Q 2425 1325 2125 1625 
Q 1825 1925 1225 2175 
Q 925 1975 762 1675 
Q 600 1375 600 1025 
z
M 2800 1075 
Q 2800 600 2450 275 
Q 2100 -50 1525 -50 
Q 1000 -50 625 275 
Q 250 600 250 1025 
Q 250 1450 462 1750 
Q 675 2050 1075 2275 
Q 725 2450 537 2712 
Q 350 2975 350 3300 
Q 350 3725 675 4025 
Q 1000 4325 1575 4325 
Q 2100 4325 2425 4025 
Q 2750 3725 2750 3300 
Q 2750 3000 2562 2737 
Q 2375 2475 1975 2275 
Q 2400 2025 2600 1725 
Q 2800 1425 2800 1075 
z
M 2400 3275 
Q 2400 3625 2200 3887 
Q 2000 4150 1575 4150 
Q 1100 4150 900 3900 
Q 700 3650 700 3375 
Q 700 3100 987 2837 
Q 1275 2575 1800 2375 
Q 2100 2525 2250 2750 
Q 2400 2975 2400 3275 
z
" transform="scale(0.015625)"/>
       </defs>
       <use xlink:href="#FangSong-38"/>
      </g>
     </g>
    </g>
    <g id="xtick_5">
     <g id="line2d_5">
      <g>
       <use xlink:href="#mbdaddcb95d" x="371.984861" y="307.584" style="stroke: #000000; stroke-width: 0.8"/>
      </g>
     </g>
     <g id="text_5">
      <!-- 10 -->
      <g transform="translate(366.984861 321.576187)scale(0.1 -0.1)">
       <defs>
        <path id="FangSong-31" d="M 1800 4350 
L 1800 550 
Q 1800 350 1925 250 
Q 2050 150 2275 150 
L 2525 150 
L 2525 0 
L 700 0 
L 700 150 
L 925 150 
Q 1175 150 1287 250 
Q 1400 350 1400 550 
L 1400 3575 
Q 1400 3675 1337 3737 
Q 1275 3800 1150 3800 
L 700 3800 
L 700 3950 
L 925 3950 
Q 1225 3950 1412 4050 
Q 1600 4150 1700 4350 
L 1800 4350 
z
" transform="scale(0.015625)"/>
        <path id="FangSong-30" d="M 1575 4125 
Q 1225 4125 987 3587 
Q 750 3050 750 2150 
Q 750 1200 987 675 
Q 1225 150 1575 150 
Q 1950 150 2162 675 
Q 2375 1200 2375 2150 
Q 2375 3050 2175 3587 
Q 1975 4125 1575 4125 
z
M 1575 -50 
Q 1025 -50 650 525 
Q 275 1100 275 2150 
Q 275 3125 637 3725 
Q 1000 4325 1575 4325 
Q 2125 4325 2487 3750 
Q 2850 3175 2850 2150 
Q 2850 1125 2487 537 
Q 2125 -50 1575 -50 
z
" transform="scale(0.015625)"/>
       </defs>
       <use xlink:href="#FangSong-31"/>
       <use xlink:href="#FangSong-30" x="50"/>
      </g>
     </g>
    </g>
    <g id="text_6">
     <!-- 响应比 -->
     <g transform="translate(221.16 334.873062)scale(0.1 -0.1)">
      <defs>
       <path id="FangSong-54cd" d="M 2700 -200 
Q 2725 -650 2625 -525 
L 2375 -125 
Q 2500 50 2475 350 
L 2500 3200 
Q 2500 3625 2425 4100 
L 2500 4125 
L 2725 3575 
L 3300 3625 
Q 3550 4225 3675 4637 
Q 3800 5050 3700 5150 
L 3775 5200 
L 4125 4750 
Q 4050 4800 3900 4512 
Q 3750 4225 3500 3650 
L 5275 3850 
L 5425 4125 
L 5725 3850 
L 5575 3650 
Q 5500 -175 5175 -675 
Q 4800 -275 4175 250 
L 4225 350 
L 5050 -175 
Q 5275 525 5325 3625 
L 2725 3325 
L 2700 -200 
z
M 725 3250 
Q 725 3575 625 3925 
L 725 3975 
L 950 3525 
L 1750 3650 
L 1875 3875 
L 2175 3650 
L 2000 3450 
L 1925 2175 
L 2125 1950 
L 1000 1800 
Q 1025 1275 900 1350 
L 650 1750 
Q 775 1850 750 2150 
L 725 3250 
z
M 3550 1250 
Q 3575 950 3500 875 
L 3225 1200 
Q 3300 1350 3300 1525 
L 3275 2325 
Q 3275 2700 3200 2875 
L 3275 2925 
L 3500 2625 
L 4350 2725 
L 4500 2925 
L 4775 2675 
L 4600 2475 
L 4525 1575 
L 4750 1400 
L 3550 1250 
z
M 975 3275 
L 1000 2050 
L 1675 2150 
L 1775 3425 
L 975 3275 
z
M 4350 2475 
L 3500 2375 
L 3525 1500 
L 4275 1575 
L 4350 2475 
z
" transform="scale(0.015625)"/>
       <path id="FangSong-5e94" d="M 1625 4400 
L 1800 3800 
Q 5075 4050 5200 4175 
L 5525 3850 
Q 5200 3900 1825 3550 
Q 1775 2450 1675 1825 
Q 1575 1200 1312 612 
Q 1050 25 500 -600 
L 425 -525 
Q 850 50 1100 675 
Q 1350 1300 1425 1862 
Q 1500 2425 1550 3150 
Q 1600 3875 1550 4375 
L 1625 4400 
z
M 4725 3175 
L 5100 2725 
Q 5000 2800 4750 2112 
Q 4500 1425 4000 150 
Q 5425 225 5400 275 
L 5725 0 
Q 5425 0 3687 -112 
Q 1950 -225 1725 -275 
L 1350 25 
Q 2150 0 3800 125 
Q 4300 1500 4525 2200 
Q 4750 2900 4650 3125 
L 4725 3175 
z
M 2900 1150 
Q 2800 975 2650 725 
Q 2450 1625 2175 2550 
L 2275 2575 
Q 2600 1850 2900 1150 
z
M 3775 1550 
Q 3675 1350 3525 1150 
Q 3475 1600 3075 3050 
L 3150 3075 
Q 3475 2300 3775 1550 
z
M 3500 4100 
Q 3275 4675 3000 5225 
L 3075 5275 
Q 3375 4900 3700 4525 
Q 3600 4325 3500 4100 
z
" transform="scale(0.015625)"/>
       <path id="FangSong-6bd4" d="M 3500 2125 
Q 3925 2425 4487 2975 
Q 5050 3525 4950 3750 
L 5025 3775 
L 5250 3225 
Q 5175 3250 4875 3000 
Q 4575 2750 4287 2525 
Q 4000 2300 3500 1900 
L 3500 575 
Q 3475 -100 4150 -100 
L 4800 -100 
Q 5275 -100 5375 12 
Q 5475 125 5450 1350 
L 5575 1350 
Q 5600 825 5637 412 
Q 5675 0 5800 -175 
Q 5375 -325 4800 -325 
L 4150 -325 
Q 3225 -350 3275 550 
L 3275 4300 
Q 3275 4875 3150 5150 
L 3200 5200 
L 3625 4850 
Q 3475 4825 3500 4250 
L 3500 2125 
z
M 1500 2575 
Q 1900 2625 2337 2712 
Q 2775 2800 2800 2850 
L 3075 2600 
Q 2875 2575 2350 2475 
Q 1825 2375 1775 2325 
L 1500 2525 
L 1500 150 
L 2925 1075 
L 2975 1025 
Q 1550 -75 1375 -350 
L 1200 0 
Q 1275 75 1275 350 
L 1275 3925 
Q 1275 4475 1150 4750 
L 1200 4800 
L 1625 4400 
Q 1475 4375 1500 3925 
L 1500 2575 
z
" transform="scale(0.015625)"/>
      </defs>
      <use xlink:href="#FangSong-54cd"/>
      <use xlink:href="#FangSong-5e94" x="100"/>
      <use xlink:href="#FangSong-6bd4" x="200"/>
     </g>
    </g>
   </g>
   <g id="matplotlib.axis_2">
    <g id="ytick_1">
     <g id="line2d_6">
      <defs>
       <path id="mc19d03d897" d="M 0 0 
L -3.5 0 
" style="stroke: #000000; stroke-width: 0.8"/>
      </defs>
      <g>
       <use xlink:href="#mc19d03d897" x="57.6" y="295.488" style="stroke: #000000; stroke-width: 0.8"/>
      </g>
     </g>
     <g id="text_7">
      <!-- 0% -->
      <g transform="translate(40.6 298.984094)scale(0.1 -0.1)">
       <defs>
        <path id="FangSong-25" d="M 725 4150 
Q 575 4150 475 3950 
Q 375 3750 375 3200 
Q 375 2575 487 2387 
Q 600 2200 725 2200 
Q 900 2200 987 2425 
Q 1075 2650 1075 3200 
Q 1075 3650 1012 3900 
Q 950 4150 725 4150 
z
M 1400 3175 
Q 1400 2725 1250 2387 
Q 1100 2050 725 2050 
Q 425 2050 237 2350 
Q 50 2650 50 3175 
Q 50 3725 250 4025 
Q 450 4325 725 4325 
Q 1025 4325 1212 4012 
Q 1400 3700 1400 3175 
z
M 2700 1100 
Q 2700 1525 2625 1800 
Q 2550 2075 2350 2075 
Q 2200 2075 2100 1837 
Q 2000 1600 2000 1100 
Q 2000 475 2112 300 
Q 2225 125 2350 125 
Q 2525 125 2612 337 
Q 2700 550 2700 1100 
z
M 3025 1075 
Q 3025 575 2850 262 
Q 2675 -50 2350 -50 
Q 2075 -50 1875 262 
Q 1675 575 1675 1075 
Q 1675 1625 1875 1937 
Q 2075 2250 2350 2250 
Q 2650 2250 2837 1925 
Q 3025 1600 3025 1075 
z
M 2500 4250 
L 700 -50 
L 550 25 
L 2325 4325 
L 2500 4250 
z
" transform="scale(0.015625)"/>
       </defs>
       <use xlink:href="#FangSong-30"/>
       <use xlink:href="#FangSong-25" x="50"/>
      </g>
     </g>
    </g>
    <g id="ytick_2">
     <g id="line2d_7">
      <g>
       <use xlink:href="#mc19d03d897" x="57.6" y="247.104" style="stroke: #000000; stroke-width: 0.8"/>
      </g>
     </g>
     <g id="text_8">
      <!-- 20% -->
      <g transform="translate(35.6 250.600094)scale(0.1 -0.1)">
       <use xlink:href="#FangSong-32"/>
       <use xlink:href="#FangSong-30" x="50"/>
       <use xlink:href="#FangSong-25" x="100"/>
      </g>
     </g>
    </g>
    <g id="ytick_3">
     <g id="line2d_8">
      <g>
       <use xlink:href="#mc19d03d897" x="57.6" y="198.72" style="stroke: #000000; stroke-width: 0.8"/>
      </g>
     </g>
     <g id="text_9">
      <!-- 40% -->
      <g transform="translate(35.6 202.216094)scale(0.1 -0.1)">
       <use xlink:href="#FangSong-34"/>
       <use xlink:href="#FangSong-30" x="50"/>
       <use xlink:href="#FangSong-25" x="100"/>
      </g>
     </g>
    </g>
    <g id="ytick_4">
     <g id="line2d_9">
      <g>
       <use xlink:href="#mc19d03d897" x="57.6" y="150.336" style="stroke: #000000; stroke-width: 0.8"/>
      </g>
     </g>
     <g id="text_10">
      <!-- 60% -->
      <g transform="translate(35.6 153.832094)scale(0.1 -0.1)">
       <use xlink:href="#FangSong-36"/>
       <use xlink:href="#FangSong-30" x="50"/>
       <use xlink:href="#FangSong-25" x="100"/>
      </g>
     </g>
    </g>
    <g id="ytick_5">
     <g id="line2d_10">
      <g>
       <use xlink:href="#mc19d03d897" x="57.6" y="101.952" style="stroke: #000000; stroke-width: 0.8"/>
      </g>
     </g>
     <g id="text_11">
      <!-- 80% -->
      <g transform="translate(35.6 105.448094)scale(0.1 -0.1)">
       <use xlink:href="#FangSong-38"/>
       <use xlink:href="#FangSong-30" x="50"/>
       <use xlink:href="#FangSong-25" x="100"/>
      </g>
     </g>
    </g>
    <g id="ytick_6">
     <g id="line2d_11">
      <g>
       <use xlink:href="#mc19d03d897" x="57.6" y="53.568" style="stroke: #000000; stroke-width: 0.8"/>
      </g>
     </g>
     <g id="text_12">
      <!-- 100% -->
      <g transform="translate(30.6 57.064094)scale(0.1 -0.1)">
       <use xlink:href="#FangSong-31"/>
       <use xlink:href="#FangSong-30" x="50"/>
       <use xlink:href="#FangSong-30" x="100"/>
       <use xlink:href="#FangSong-25" x="150"/>
      </g>
     </g>
    </g>
    <g id="text_13">
     <!-- 累计完成比例 -->
     <g transform="translate(25.154688 204.528)rotate(-90)scale(0.1 -0.1)">
      <defs>
       <path id="FangSong-7d2f" d="M 4525 4975 
L 4700 5225 
L 5000 4950 
L 4825 4775 
L 4625 3550 
L 4850 3300 
L 3175 3150 
L 3375 2975 
Q 3200 2925 2862 2725 
Q 2525 2525 2075 2275 
L 3475 2500 
Q 3750 2675 3900 2800 
Q 4050 2925 4100 3075 
L 4175 3100 
L 4325 2700 
Q 4200 2675 3500 2237 
Q 2800 1800 2275 1550 
L 4375 1825 
L 3900 2175 
L 4000 2275 
Q 4625 1900 4950 1725 
Q 4975 1475 4925 1225 
Q 4800 1375 4500 1675 
L 3250 1475 
L 3525 1300 
Q 3375 1200 3375 875 
L 3375 25 
Q 3375 -325 3225 -625 
Q 2975 -325 2400 150 
L 2450 250 
L 3050 -75 
Q 3150 -125 3150 0 
L 3150 925 
Q 3150 1300 3125 1450 
Q 1875 1275 1575 1175 
L 1325 1425 
L 1850 1550 
Q 2175 1700 3250 2300 
Q 2075 2100 1875 2000 
L 1575 2250 
L 1800 2300 
Q 2150 2475 3025 3125 
L 2000 3025 
Q 2000 2675 1950 2700 
Q 1900 2725 1650 3025 
Q 1725 3250 1725 3425 
L 1650 4400 
Q 1625 4675 1525 4950 
L 1625 5000 
L 1875 4675 
L 4525 4975 
z
M 3150 3375 
L 3150 3875 
Q 2525 3800 2400 3725 
L 2100 3975 
Q 2500 3975 3150 4075 
L 3150 4600 
L 1900 4450 
L 1975 3250 
L 3150 3375 
z
M 3375 4100 
Q 3950 4175 4025 4225 
L 4275 4000 
Q 3950 3975 3375 3900 
L 3375 3400 
L 4400 3500 
L 4575 4750 
L 3375 4600 
L 3375 4100 
z
M 5450 -75 
Q 4975 325 3875 1025 
L 3950 1125 
Q 4850 700 5350 500 
Q 5425 250 5450 -75 
z
M 800 -250 
Q 1350 75 1825 500 
Q 2300 925 2325 1125 
L 2400 1150 
L 2550 725 
Q 2425 700 2075 425 
Q 1725 150 875 -350 
L 800 -250 
z
" transform="scale(0.015625)"/>
       <path id="FangSong-8ba1" d="M 4075 4200 
Q 4100 4825 3900 5100 
L 3975 5150 
L 4450 4725 
Q 4275 4600 4300 4200 
L 4275 3000 
Q 5525 3200 5575 3250 
L 5950 2950 
Q 5725 2975 4275 2800 
L 4250 -425 
Q 4250 -700 4150 -575 
L 3875 -150 
Q 4050 50 4025 300 
L 4050 2750 
Q 2975 2625 2900 2575 
L 2525 2825 
Q 2850 2825 4050 2975 
L 4075 4200 
z
M 1775 3250 
L 2100 2950 
L 1900 2750 
L 1875 550 
L 2825 1250 
L 2875 1175 
Q 1875 250 1750 -25 
L 1525 275 
Q 1625 375 1650 625 
L 1675 2775 
Q 900 2625 750 2550 
L 425 2800 
Q 850 2825 1650 3000 
L 1775 3250 
z
M 2025 3800 
Q 1825 4300 1325 4950 
L 1375 5025 
Q 1925 4575 2175 4300 
Q 2125 4000 2025 3800 
z
" transform="scale(0.015625)"/>
       <path id="FangSong-5b8c" d="M 5375 2050 
Q 4925 2050 3550 1950 
L 3850 1750 
Q 3725 1600 3700 1375 
L 3675 275 
Q 3650 -125 4075 -175 
L 4925 -175 
Q 5300 -150 5312 62 
Q 5325 275 5325 1025 
L 5425 1025 
Q 5450 750 5475 337 
Q 5500 -75 5700 -275 
Q 5400 -375 5000 -400 
L 4075 -400 
Q 3425 -350 3425 150 
L 3475 1450 
Q 3475 1775 3425 1925 
L 2675 1850 
L 2875 1650 
Q 2750 1550 2600 1200 
Q 2450 850 2025 312 
Q 1600 -225 600 -675 
L 550 -575 
Q 1525 -100 1987 625 
Q 2450 1350 2525 1850 
Q 1550 1775 1500 1725 
L 1150 2025 
Q 1625 2025 3212 2150 
Q 4800 2275 5000 2350 
L 5375 2050 
z
M 1650 3650 
Q 1550 3125 1325 2875 
L 1150 3250 
Q 1450 3425 1575 4400 
L 1675 4400 
L 1675 3900 
L 5025 4150 
L 5175 4400 
L 5525 4075 
Q 5375 4050 4725 3250 
L 4650 3325 
L 4975 3900 
L 1650 3650 
z
M 4475 2975 
Q 4225 2975 3412 2875 
Q 2600 2775 2400 2725 
L 2050 2975 
Q 2575 2975 3200 3075 
Q 3825 3175 4150 3225 
L 4475 2975 
z
M 3550 4575 
Q 3475 4350 3300 4150 
Q 3225 4475 2900 5200 
L 2975 5250 
Q 3350 4825 3550 4575 
z
" transform="scale(0.015625)"/>
       <path id="FangSong-6210" d="M 5575 975 
Q 5600 -150 5750 -625 
Q 4650 -225 4000 1075 
Q 3625 650 2975 225 
L 2925 325 
Q 3525 825 3900 1300 
Q 3600 2275 3500 3300 
L 1875 3125 
Q 1875 2625 1825 2100 
L 2725 2250 
L 2875 2475 
L 3175 2225 
L 3000 2050 
Q 2850 475 2575 -125 
Q 2225 400 1825 775 
L 1875 850 
L 2475 400 
Q 2650 875 2750 2000 
L 1825 1850 
Q 1675 250 600 -650 
L 525 -600 
Q 1250 250 1425 987 
Q 1600 1725 1625 2612 
Q 1650 3500 1550 3800 
L 1625 3825 
L 1850 3350 
L 3450 3525 
Q 3400 4150 3375 4562 
Q 3350 4975 3225 5200 
L 3275 5225 
L 3725 4900 
Q 3625 4925 3637 4575 
Q 3650 4225 3675 3550 
Q 4900 3700 5050 3775 
L 5325 3475 
Q 4775 3475 3725 3325 
Q 3775 2425 4075 1525 
Q 4500 2025 4687 2325 
Q 4875 2625 4800 2850 
L 4875 2875 
L 5125 2325 
Q 5075 2400 4850 2125 
Q 4625 1850 4150 1275 
Q 4625 225 5425 -125 
L 5475 975 
L 5575 975 
z
M 4100 5000 
Q 4525 4700 4875 4450 
Q 4825 4250 4750 4025 
Q 4400 4525 4025 4950 
L 4100 5000 
z
" transform="scale(0.015625)"/>
       <path id="FangSong-4f8b" d="M 3050 2000 
Q 3025 1800 2975 1600 
Q 2775 1900 2525 2250 
Q 2300 1875 2025 1550 
L 1925 1625 
Q 2675 2725 2975 3975 
Q 2475 3925 2375 3875 
L 2050 4125 
Q 2375 4125 3162 4225 
Q 3950 4325 4100 4450 
L 4350 4125 
Q 4050 4150 3100 3975 
L 3300 3700 
Q 3200 3675 3125 3525 
Q 3050 3375 2925 3050 
L 3625 3150 
L 3775 3350 
L 4050 3075 
L 3875 2900 
Q 3300 825 1850 -225 
L 1800 -100 
Q 3100 975 3625 2900 
Q 3150 2825 3025 2775 
L 2875 2925 
Q 2775 2675 2575 2350 
Q 2900 2125 3050 2000 
z
M 1275 -150 
Q 1425 25 1400 225 
L 1450 3425 
Q 1025 2800 475 2225 
L 400 2325 
Q 875 2850 1450 3887 
Q 2025 4925 1925 5150 
L 2000 5175 
L 2250 4700 
Q 2200 4725 2062 4475 
Q 1925 4225 1675 3800 
L 1625 -325 
Q 1650 -675 1525 -600 
L 1275 -150 
z
M 5475 250 
Q 5475 -300 5300 -650 
Q 4900 -100 4300 375 
L 4350 475 
L 5200 -75 
Q 5250 250 5250 575 
L 5250 4350 
Q 5275 4950 5100 5150 
L 5175 5225 
L 5600 4850 
Q 5450 4775 5475 4325 
L 5475 250 
z
M 4300 1525 
Q 4400 1650 4400 1900 
L 4400 3075 
Q 4425 3525 4300 3750 
L 4350 3800 
L 4725 3450 
Q 4600 3350 4625 3025 
L 4625 1375 
Q 4625 1050 4550 1125 
L 4300 1525 
z
" transform="scale(0.015625)"/>
      </defs>
      <use xlink:href="#FangSong-7d2f"/>
      <use xlink:href="#FangSong-8ba1" x="100"/>
      <use xlink:href="#FangSong-5b8c" x="200"/>
      <use xlink:href="#FangSong-6210" x="300"/>
      <use xlink:href="#FangSong-6bd4" x="400"/>
      <use xlink:href="#FangSong-4f8b" x="500"/>
     </g>
    </g>
   </g>
   <g id="line2d_12">
    <path d="M 73.832727 295.488 
L 77.145529 218.0736 
L 80.45833 166.54464 
L 83.771132 156.14208 
L 87.083933 152.02944 
L 90.396735 148.88448 
L 93.709536 146.7072 
L 97.022338 143.56224 
L 100.335139 137.51424 
L 103.647941 135.33696 
L 106.960742 133.4016 
L 110.273544 131.95008 
L 113.586345 129.28896 
L 116.899147 127.83744 
L 120.211948 123.7248 
L 123.52475 120.57984 
L 126.837551 116.22528 
L 130.150353 113.56416 
L 133.463154 110.4192 
L 136.775955 108.72576 
L 140.088757 107.03232 
L 143.401558 105.5808 
L 146.71436 104.3712 
L 150.027161 101.952 
L 153.339963 100.7424 
L 156.652764 98.3232 
L 159.965566 94.93632 
L 163.278367 93.24288 
L 166.591169 89.37216 
L 169.90397 86.46912 
L 173.216772 85.25952 
L 176.529573 84.53376 
L 179.842375 84.04992 
L 183.155176 83.32416 
L 186.467978 82.84032 
L 189.780779 81.87264 
L 193.093581 80.42112 
L 196.406382 80.42112 
L 199.719184 79.45344 
L 203.031985 78.48576 
L 206.344787 77.76 
L 209.657588 76.5504 
L 212.97039 75.82464 
L 216.283191 74.61504 
L 219.595993 73.88928 
L 222.908794 72.9216 
L 226.221596 72.43776 
L 229.534397 72.43776 
L 232.847199 71.712 
L 236.16 70.74432 
L 239.472801 70.26048 
L 242.785603 70.26048 
L 246.098404 69.53472 
L 249.411206 69.2928 
L 252.724007 68.80896 
L 256.036809 68.32512 
L 259.34961 67.11552 
L 262.662412 66.14784 
L 265.975213 65.664 
L 269.288015 65.18016 
L 272.600816 65.18016 
L 275.913618 64.21248 
L 279.226419 63.72864 
L 282.539221 62.51904 
L 285.852022 62.27712 
L 289.164824 61.55136 
L 292.477625 61.30944 
L 295.790427 60.58368 
L 299.103228 59.37408 
L 302.41603 58.89024 
L 305.728831 57.92256 
L 309.041633 57.43872 
L 312.354434 57.43872 
L 315.667236 57.43872 
L 318.980037 56.95488 
L 322.292839 56.71296 
L 325.60564 56.71296 
L 328.918442 56.22912 
L 332.231243 55.9872 
L 335.544045 55.74528 
L 338.856846 55.74528 
L 342.169647 55.50336 
L 345.482449 55.26144 
L 348.79525 54.7776 
L 352.108052 54.7776 
L 355.420853 54.7776 
L 358.733655 54.53568 
L 362.046456 54.53568 
L 365.359258 54.53568 
L 368.672059 54.05184 
L 371.984861 54.05184 
L 375.297662 54.05184 
L 378.610464 53.80992 
L 381.923265 53.80992 
L 385.236067 53.80992 
L 388.548868 53.80992 
L 391.86167 53.80992 
L 395.174471 53.80992 
L 398.487273 53.568 
" clip-path="url(#p203576c2c2)" style="fill: none; stroke: #ff0000; stroke-linecap: square"/>
   </g>
   <g id="line2d_13">
    <path d="M 73.832727 295.488 
L 77.145529 118.748518 
L 80.45833 86.158259 
L 83.771132 78.63743 
L 87.083933 64.849244 
L 90.396735 57.328415 
L 93.709536 57.328415 
L 97.022338 53.568 
L 100.335139 53.568 
L 103.647941 53.568 
L 106.960742 53.568 
L 110.273544 53.568 
L 113.586345 53.568 
L 116.899147 53.568 
L 120.211948 53.568 
L 123.52475 53.568 
L 126.837551 53.568 
L 130.150353 53.568 
L 133.463154 53.568 
L 136.775955 53.568 
L 140.088757 53.568 
L 143.401558 53.568 
L 146.71436 53.568 
L 150.027161 53.568 
L 153.339963 53.568 
L 156.652764 53.568 
L 159.965566 53.568 
L 163.278367 53.568 
L 166.591169 53.568 
L 169.90397 53.568 
L 173.216772 53.568 
L 176.529573 53.568 
L 179.842375 53.568 
L 183.155176 53.568 
L 186.467978 53.568 
L 189.780779 53.568 
L 193.093581 53.568 
L 196.406382 53.568 
L 199.719184 53.568 
L 203.031985 53.568 
L 206.344787 53.568 
L 209.657588 53.568 
L 212.97039 53.568 
L 216.283191 53.568 
L 219.595993 53.568 
L 222.908794 53.568 
L 226.221596 53.568 
L 229.534397 53.568 
L 232.847199 53.568 
L 236.16 53.568 
L 239.472801 53.568 
L 242.785603 53.568 
L 246.098404 53.568 
L 249.411206 53.568 
L 252.724007 53.568 
L 256.036809 53.568 
L 259.34961 53.568 
L 262.662412 53.568 
L 265.975213 53.568 
L 269.288015 53.568 
L 272.600816 53.568 
L 275.913618 53.568 
L 279.226419 53.568 
L 282.539221 53.568 
L 285.852022 53.568 
L 289.164824 53.568 
L 292.477625 53.568 
L 295.790427 53.568 
L 299.103228 53.568 
L 302.41603 53.568 
L 305.728831 53.568 
L 309.041633 53.568 
L 312.354434 53.568 
L 315.667236 53.568 
L 318.980037 53.568 
L 322.292839 53.568 
L 325.60564 53.568 
L 328.918442 53.568 
L 332.231243 53.568 
L 335.544045 53.568 
L 338.856846 53.568 
L 342.169647 53.568 
L 345.482449 53.568 
L 348.79525 53.568 
L 352.108052 53.568 
L 355.420853 53.568 
L 358.733655 53.568 
L 362.046456 53.568 
L 365.359258 53.568 
L 368.672059 53.568 
L 371.984861 53.568 
L 375.297662 53.568 
L 378.610464 53.568 
L 381.923265 53.568 
L 385.236067 53.568 
L 388.548868 53.568 
L 391.86167 53.568 
L 395.174471 53.568 
L 398.487273 53.568 
" clip-path="url(#p203576c2c2)" style="fill: none; stroke-dasharray: 1.85,0.8; stroke-dashoffset: 0; stroke: #008000; stroke-width: 0.5"/>
   </g>
   <g id="line2d_14">
    <path d="M 73.832727 295.488 
L 77.145529 168.910663 
L 80.45833 162.918836 
L 83.771132 158.424966 
L 87.083933 155.429053 
L 90.396735 151.684161 
L 93.709536 145.692334 
L 97.022338 141.947443 
L 100.335139 124.720941 
L 103.647941 120.227071 
L 106.960742 116.48218 
L 110.273544 114.235245 
L 113.586345 110.490353 
L 116.899147 108.243418 
L 120.211948 103.749548 
L 123.52475 100.753635 
L 126.837551 94.761808 
L 130.150353 91.016916 
L 133.463154 89.51896 
L 136.775955 87.272025 
L 140.088757 85.774068 
L 143.401558 82.778155 
L 146.71436 82.029176 
L 150.027161 79.033263 
L 153.339963 78.284285 
L 156.652764 73.790415 
L 159.965566 72.292458 
L 163.278367 70.045523 
L 166.591169 64.053697 
L 169.90397 61.057783 
L 173.216772 59.559827 
L 176.529573 58.810848 
L 179.842375 58.06187 
L 183.155176 58.06187 
L 186.467978 57.312892 
L 189.780779 55.065957 
L 193.093581 53.568 
L 196.406382 53.568 
L 199.719184 53.568 
L 203.031985 53.568 
L 206.344787 53.568 
L 209.657588 53.568 
L 212.97039 53.568 
L 216.283191 53.568 
L 219.595993 53.568 
L 222.908794 53.568 
L 226.221596 53.568 
L 229.534397 53.568 
L 232.847199 53.568 
L 236.16 53.568 
L 239.472801 53.568 
L 242.785603 53.568 
L 246.098404 53.568 
L 249.411206 53.568 
L 252.724007 53.568 
L 256.036809 53.568 
L 259.34961 53.568 
L 262.662412 53.568 
L 265.975213 53.568 
L 269.288015 53.568 
L 272.600816 53.568 
L 275.913618 53.568 
L 279.226419 53.568 
L 282.539221 53.568 
L 285.852022 53.568 
L 289.164824 53.568 
L 292.477625 53.568 
L 295.790427 53.568 
L 299.103228 53.568 
L 302.41603 53.568 
L 305.728831 53.568 
L 309.041633 53.568 
L 312.354434 53.568 
L 315.667236 53.568 
L 318.980037 53.568 
L 322.292839 53.568 
L 325.60564 53.568 
L 328.918442 53.568 
L 332.231243 53.568 
L 335.544045 53.568 
L 338.856846 53.568 
L 342.169647 53.568 
L 345.482449 53.568 
L 348.79525 53.568 
L 352.108052 53.568 
L 355.420853 53.568 
L 358.733655 53.568 
L 362.046456 53.568 
L 365.359258 53.568 
L 368.672059 53.568 
L 371.984861 53.568 
L 375.297662 53.568 
L 378.610464 53.568 
L 381.923265 53.568 
L 385.236067 53.568 
L 388.548868 53.568 
L 391.86167 53.568 
L 395.174471 53.568 
L 398.487273 53.568 
" clip-path="url(#p203576c2c2)" style="fill: none; stroke-dasharray: 1.85,0.8; stroke-dashoffset: 0; stroke: #0000ff; stroke-width: 0.5"/>
   </g>
   <g id="line2d_15">
    <path d="M 73.832727 295.488 
L 77.145529 291.489322 
L 80.45833 197.520397 
L 83.771132 183.525025 
L 87.083933 182.525355 
L 90.396735 182.525355 
L 93.709536 181.525686 
L 97.022338 180.526017 
L 100.335139 178.526678 
L 103.647941 176.527339 
L 106.960742 173.528331 
L 110.273544 172.528661 
L 113.586345 167.530314 
L 116.899147 165.530975 
L 120.211948 160.532628 
L 123.52475 156.53395 
L 126.837551 152.535273 
L 130.150353 149.536264 
L 133.463154 144.537917 
L 136.775955 143.538248 
L 140.088757 139.53957 
L 143.401558 138.539901 
L 146.71436 137.540231 
L 150.027161 133.541554 
L 153.339963 129.542876 
L 156.652764 127.543537 
L 159.965566 123.54486 
L 163.278367 122.54519 
L 166.591169 120.545851 
L 169.90397 116.547174 
L 173.216772 115.547504 
L 176.529573 114.547835 
L 179.842375 113.548165 
L 183.155176 112.548496 
L 186.467978 111.548826 
L 189.780779 111.548826 
L 193.093581 111.548826 
L 196.406382 111.548826 
L 199.719184 110.549157 
L 203.031985 108.549818 
L 206.344787 106.550479 
L 209.657588 102.551802 
L 212.97039 101.552132 
L 216.283191 99.552793 
L 219.595993 99.552793 
L 222.908794 97.553455 
L 226.221596 97.553455 
L 229.534397 97.553455 
L 232.847199 95.554116 
L 236.16 92.555107 
L 239.472801 91.555438 
L 242.785603 91.555438 
L 246.098404 89.556099 
L 249.411206 89.556099 
L 252.724007 87.55676 
L 256.036809 87.55676 
L 259.34961 84.557752 
L 262.662412 83.558083 
L 265.975213 83.558083 
L 269.288015 82.558413 
L 272.600816 82.558413 
L 275.913618 80.559074 
L 279.226419 79.559405 
L 282.539221 77.560066 
L 285.852022 76.560397 
L 289.164824 74.561058 
L 292.477625 73.561388 
L 295.790427 70.56238 
L 299.103228 67.563372 
L 302.41603 66.563702 
L 305.728831 64.564364 
L 309.041633 63.564694 
L 312.354434 63.564694 
L 315.667236 63.564694 
L 318.980037 62.565025 
L 322.292839 61.565355 
L 325.60564 61.565355 
L 328.918442 60.565686 
L 332.231243 59.566017 
L 335.544045 58.566347 
L 338.856846 58.566347 
L 342.169647 57.566678 
L 345.482449 57.566678 
L 348.79525 57.566678 
L 352.108052 57.566678 
L 355.420853 57.566678 
L 358.733655 57.566678 
L 362.046456 57.566678 
L 365.359258 57.566678 
L 368.672059 55.567339 
L 371.984861 55.567339 
L 375.297662 55.567339 
L 378.610464 54.567669 
L 381.923265 54.567669 
L 385.236067 54.567669 
L 388.548868 54.567669 
L 391.86167 54.567669 
L 395.174471 54.567669 
L 398.487273 53.568 
" clip-path="url(#p203576c2c2)" style="fill: none; stroke-dasharray: 1.85,0.8; stroke-dashoffset: 0; stroke: #bf00bf; stroke-width: 0.5"/>
   </g>
   <g id="line2d_16">
    <path d="M 73.832727 295.488 
L 77.145529 289.489983 
L 80.45833 204.518083 
L 83.771132 187.523702 
L 87.083933 186.524033 
L 90.396735 184.524694 
L 93.709536 184.524694 
L 97.022338 180.526017 
L 100.335139 180.526017 
L 103.647941 179.526347 
L 106.960742 179.526347 
L 110.273544 177.527008 
L 113.586345 176.527339 
L 116.899147 175.527669 
L 120.211948 169.529653 
L 123.52475 164.531306 
L 126.837551 158.533289 
L 130.150353 155.534281 
L 133.463154 149.536264 
L 136.775955 146.537256 
L 140.088757 145.537587 
L 143.401558 144.537917 
L 146.71436 141.538909 
L 150.027161 139.53957 
L 153.339963 139.53957 
L 156.652764 137.540231 
L 159.965566 129.542876 
L 163.278367 126.543868 
L 166.591169 120.545851 
L 169.90397 116.547174 
L 173.216772 114.547835 
L 176.529573 113.548165 
L 179.842375 113.548165 
L 183.155176 111.548826 
L 186.467978 111.548826 
L 189.780779 110.549157 
L 193.093581 106.550479 
L 196.406382 106.550479 
L 199.719184 103.551471 
L 203.031985 101.552132 
L 206.344787 100.552463 
L 209.657588 99.552793 
L 212.97039 97.553455 
L 216.283191 94.554446 
L 219.595993 91.555438 
L 222.908794 89.556099 
L 226.221596 87.55676 
L 229.534397 87.55676 
L 232.847199 86.557091 
L 236.16 85.557421 
L 239.472801 84.557752 
L 242.785603 84.557752 
L 246.098404 83.558083 
L 249.411206 82.558413 
L 252.724007 82.558413 
L 256.036809 80.559074 
L 259.34961 78.559736 
L 262.662412 75.560727 
L 265.975213 73.561388 
L 269.288015 72.561719 
L 272.600816 72.561719 
L 275.913618 70.56238 
L 279.226419 69.562711 
L 282.539221 66.563702 
L 285.852022 66.563702 
L 289.164824 65.564033 
L 292.477625 65.564033 
L 295.790427 65.564033 
L 299.103228 63.564694 
L 302.41603 62.565025 
L 305.728831 60.565686 
L 309.041633 59.566017 
L 312.354434 59.566017 
L 315.667236 59.566017 
L 318.980037 58.566347 
L 322.292839 58.566347 
L 325.60564 58.566347 
L 328.918442 57.566678 
L 332.231243 57.566678 
L 335.544045 57.566678 
L 338.856846 57.566678 
L 342.169647 57.566678 
L 345.482449 56.567008 
L 348.79525 54.567669 
L 352.108052 54.567669 
L 355.420853 54.567669 
L 358.733655 53.568 
L 362.046456 53.568 
L 365.359258 53.568 
L 368.672059 53.568 
L 371.984861 53.568 
L 375.297662 53.568 
L 378.610464 53.568 
L 381.923265 53.568 
L 385.236067 53.568 
L 388.548868 53.568 
L 391.86167 53.568 
L 395.174471 53.568 
L 398.487273 53.568 
" clip-path="url(#p203576c2c2)" style="fill: none; stroke-dasharray: 1.85,0.8; stroke-dashoffset: 0; stroke: #bfbf00; stroke-width: 0.5"/>
   </g>
   <g id="patch_3">
    <path d="M 57.6 307.584 
L 57.6 41.472 
" style="fill: none; stroke: #000000; stroke-width: 0.8; stroke-linejoin: miter; stroke-linecap: square"/>
   </g>
   <g id="patch_4">
    <path d="M 414.72 307.584 
L 414.72 41.472 
" style="fill: none; stroke: #000000; stroke-width: 0.8; stroke-linejoin: miter; stroke-linecap: square"/>
   </g>
   <g id="patch_5">
    <path d="M 57.6 307.584 
L 414.72 307.584 
" style="fill: none; stroke: #000000; stroke-width: 0.8; stroke-linejoin: miter; stroke-linecap: square"/>
   </g>
   <g id="patch_6">
    <path d="M 57.6 41.472 
L 414.72 41.472 
" style="fill: none; stroke: #000000; stroke-width: 0.8; stroke-linejoin: miter; stroke-linecap: square"/>
   </g>
   <g id="text_14">
    <!-- count=1000, googlenet=150, resnet50=112, squeezenetv1=150, vgg19=187 -->
    <g transform="translate(32.16 35.472)scale(0.12 -0.12)">
     <defs>
      <path id="FangSong-63" d="M 2125 2125 
Q 2125 2200 2137 2225 
Q 2150 2250 2175 2325 
Q 2200 2425 2075 2562 
Q 1950 2700 1650 2700 
Q 1275 2700 1012 2337 
Q 750 1975 750 1375 
Q 750 825 975 487 
Q 1200 150 1725 150 
Q 2075 150 2312 375 
Q 2550 600 2650 900 
L 2775 850 
Q 2675 475 2400 212 
Q 2125 -50 1650 -50 
Q 1050 -50 700 325 
Q 350 700 350 1400 
Q 350 2025 725 2437 
Q 1100 2850 1700 2850 
Q 2125 2850 2362 2625 
Q 2600 2400 2600 2175 
Q 2600 2025 2537 1962 
Q 2475 1900 2350 1900 
Q 2250 1900 2187 1962 
Q 2125 2025 2125 2125 
z
" transform="scale(0.015625)"/>
      <path id="FangSong-6f" d="M 2875 1400 
Q 2875 775 2500 362 
Q 2125 -50 1575 -50 
Q 1000 -50 637 375 
Q 275 800 275 1400 
Q 275 1950 637 2400 
Q 1000 2850 1575 2850 
Q 2175 2850 2525 2400 
Q 2875 1950 2875 1400 
z
M 675 1375 
Q 675 725 937 412 
Q 1200 100 1575 100 
Q 2000 100 2237 437 
Q 2475 775 2475 1375 
Q 2475 2025 2212 2362 
Q 1950 2700 1575 2700 
Q 1225 2700 950 2362 
Q 675 2025 675 1375 
z
" transform="scale(0.015625)"/>
      <path id="FangSong-75" d="M 1425 225 
Q 1725 225 1937 375 
Q 2150 525 2250 850 
L 2250 2425 
Q 2250 2525 2200 2587 
Q 2150 2650 2025 2650 
L 1875 2650 
L 1875 2800 
L 2025 2800 
Q 2175 2800 2300 2825 
Q 2425 2850 2550 2950 
L 2600 2950 
L 2600 500 
Q 2600 400 2662 350 
Q 2725 300 2825 300 
L 2975 300 
L 2975 150 
L 2825 150 
Q 2700 150 2575 112 
Q 2450 75 2300 0 
L 2250 0 
L 2250 525 
Q 2125 250 1875 112 
Q 1625 -25 1300 -25 
Q 900 -25 700 200 
Q 500 425 500 925 
L 500 2425 
Q 500 2525 450 2587 
Q 400 2650 275 2650 
L 125 2650 
L 125 2800 
L 275 2800 
Q 425 2800 550 2825 
Q 675 2850 800 2950 
L 850 2950 
L 850 875 
Q 850 525 1000 375 
Q 1150 225 1425 225 
z
" transform="scale(0.015625)"/>
      <path id="FangSong-6e" d="M 175 0 
L 175 150 
L 300 150 
Q 425 150 475 200 
Q 525 250 525 350 
L 525 2500 
Q 525 2575 500 2612 
Q 475 2650 400 2650 
L 200 2650 
L 200 2800 
L 375 2800 
Q 500 2800 612 2825 
Q 725 2850 825 2925 
L 875 2925 
L 875 2350 
Q 1100 2600 1325 2725 
Q 1550 2850 1800 2850 
Q 2225 2850 2425 2625 
Q 2625 2400 2625 1950 
L 2625 350 
Q 2625 250 2687 200 
Q 2750 150 2850 150 
L 2975 150 
L 2975 0 
L 1925 0 
L 1925 150 
L 2050 150 
Q 2175 150 2225 200 
Q 2275 250 2275 350 
L 2275 2025 
Q 2275 2325 2150 2487 
Q 2025 2650 1775 2650 
Q 1550 2650 1312 2500 
Q 1075 2350 875 2075 
L 875 350 
Q 875 250 937 200 
Q 1000 150 1100 150 
L 1225 150 
L 1225 0 
L 175 0 
z
" transform="scale(0.015625)"/>
      <path id="FangSong-74" d="M 1475 800 
Q 1475 450 1600 325 
Q 1725 200 1975 200 
Q 2225 200 2375 362 
Q 2525 525 2575 825 
L 2700 775 
Q 2650 425 2437 200 
Q 2225 -25 1875 -25 
Q 1500 -25 1312 200 
Q 1125 425 1125 900 
L 1125 2650 
L 375 2650 
L 375 2800 
L 575 2800 
Q 875 2800 1062 2987 
Q 1250 3175 1300 3575 
L 1325 3775 
L 1475 3775 
L 1475 2800 
L 2475 2800 
L 2475 2650 
L 1475 2650 
L 1475 800 
z
" transform="scale(0.015625)"/>
      <path id="FangSong-3d" d="M 175 2725 
L 175 2950 
L 2950 2950 
L 2950 2725 
L 175 2725 
z
M 175 1450 
L 175 1675 
L 2950 1675 
L 2950 1450 
L 175 1450 
z
" transform="scale(0.015625)"/>
      <path id="FangSong-2c" d="M 1325 75 
Q 1200 25 1100 75 
Q 1000 125 962 237 
Q 925 350 925 437 
Q 925 525 987 612 
Q 1050 700 1150 737 
Q 1250 775 1425 725 
Q 1600 675 1650 500 
Q 1700 325 1662 150 
Q 1625 -25 1525 -200 
Q 1425 -375 1312 -475 
Q 1200 -575 1025 -675 
L 950 -575 
Q 1100 -450 1187 -312 
Q 1275 -175 1325 75 
z
" transform="scale(0.015625)"/>
      <path id="FangSong-20" transform="scale(0.015625)"/>
      <path id="FangSong-67" d="M 850 1875 
Q 850 1575 1025 1362 
Q 1200 1150 1500 1150 
Q 1825 1150 1987 1337 
Q 2150 1525 2150 1875 
Q 2150 2300 1962 2487 
Q 1775 2675 1500 2675 
Q 1225 2675 1037 2487 
Q 850 2300 850 1875 
z
M 2075 525 
Q 2450 475 2625 312 
Q 2800 150 2800 -125 
Q 2800 -500 2487 -725 
Q 2175 -950 1500 -950 
Q 975 -950 650 -737 
Q 325 -525 325 -250 
Q 325 -75 450 100 
Q 575 275 850 375 
Q 700 450 612 537 
Q 525 625 525 750 
Q 525 900 625 1012 
Q 725 1125 875 1200 
Q 725 1325 612 1500 
Q 500 1675 500 1875 
Q 500 2250 762 2537 
Q 1025 2825 1500 2825 
Q 1700 2825 1887 2775 
Q 2075 2725 2200 2600 
Q 2375 2725 2512 2787 
Q 2650 2850 2750 2850 
Q 2875 2850 2925 2762 
Q 2975 2675 2975 2600 
Q 2975 2500 2937 2437 
Q 2900 2375 2800 2375 
Q 2725 2375 2675 2412 
Q 2625 2450 2600 2525 
Q 2575 2600 2487 2587 
Q 2400 2575 2300 2500 
Q 2400 2400 2450 2225 
Q 2500 2050 2500 1875 
Q 2500 1575 2262 1287 
Q 2025 1000 1500 1000 
Q 1350 1000 1225 1037 
Q 1100 1075 1025 1125 
Q 925 1075 875 1000 
Q 825 925 825 875 
Q 825 775 875 725 
Q 925 675 1025 675 
Q 1350 625 1612 587 
Q 1875 550 2075 525 
z
M 1050 325 
Q 825 225 737 87 
Q 650 -50 650 -250 
Q 650 -450 875 -625 
Q 1100 -800 1550 -800 
Q 1975 -800 2225 -662 
Q 2475 -525 2475 -250 
Q 2475 -75 2412 25 
Q 2350 125 2225 150 
Q 1975 200 1675 237 
Q 1375 275 1050 325 
z
" transform="scale(0.015625)"/>
      <path id="FangSong-6c" d="M 900 4275 
Q 1125 4275 1325 4325 
Q 1525 4375 1700 4475 
L 1750 4475 
L 1750 350 
Q 1750 250 1812 200 
Q 1875 150 1975 150 
L 2550 150 
L 2550 0 
L 600 0 
L 600 150 
L 1175 150 
Q 1300 150 1350 200 
Q 1400 250 1400 350 
L 1400 3925 
Q 1400 4025 1350 4075 
Q 1300 4125 1175 4125 
L 625 4125 
L 625 4275 
L 900 4275 
z
" transform="scale(0.015625)"/>
      <path id="FangSong-65" d="M 2375 1550 
Q 2400 2100 2187 2387 
Q 1975 2675 1625 2675 
Q 1250 2675 1012 2375 
Q 775 2075 775 1550 
L 2375 1550 
z
M 775 1400 
Q 775 725 1037 437 
Q 1300 150 1725 150 
Q 2050 150 2275 337 
Q 2500 525 2600 800 
L 2725 750 
Q 2650 475 2387 212 
Q 2125 -50 1675 -50 
Q 1100 -50 737 325 
Q 375 700 375 1400 
Q 375 2025 737 2437 
Q 1100 2850 1625 2850 
Q 2100 2850 2450 2525 
Q 2800 2200 2800 1400 
L 775 1400 
z
" transform="scale(0.015625)"/>
      <path id="FangSong-35" d="M 1700 2750 
Q 2175 2750 2475 2387 
Q 2775 2025 2775 1425 
Q 2775 750 2462 350 
Q 2150 -50 1500 -50 
Q 1050 -50 700 212 
Q 350 475 350 850 
Q 350 1000 437 1112 
Q 525 1225 675 1225 
Q 825 1225 875 1125 
Q 925 1025 925 950 
Q 925 800 850 712 
Q 775 625 775 525 
Q 775 325 1012 225 
Q 1250 125 1525 125 
Q 1925 125 2137 450 
Q 2350 775 2350 1375 
Q 2350 1875 2162 2187 
Q 1975 2500 1600 2500 
Q 1325 2500 1125 2400 
Q 925 2300 750 1975 
L 525 2000 
L 650 4275 
L 2700 4275 
L 2625 3900 
L 825 3900 
L 725 2250 
Q 975 2600 1212 2675 
Q 1450 2750 1700 2750 
z
" transform="scale(0.015625)"/>
      <path id="FangSong-72" d="M 1250 2025 
Q 1500 2425 1787 2637 
Q 2075 2850 2375 2850 
Q 2625 2850 2762 2737 
Q 2900 2625 2900 2475 
Q 2900 2350 2837 2275 
Q 2775 2200 2650 2200 
Q 2525 2200 2462 2275 
Q 2400 2350 2425 2475 
Q 2425 2550 2400 2600 
Q 2375 2650 2250 2650 
Q 2050 2650 1762 2400 
Q 1475 2150 1250 1700 
L 1250 350 
Q 1250 250 1312 200 
Q 1375 150 1475 150 
L 2025 150 
L 2025 0 
L 175 0 
L 175 150 
L 675 150 
Q 800 150 850 200 
Q 900 250 900 350 
L 900 2425 
Q 900 2525 850 2587 
Q 800 2650 675 2650 
L 200 2650 
L 200 2800 
L 400 2800 
Q 575 2800 812 2837 
Q 1050 2875 1175 2925 
L 1250 2925 
L 1250 2025 
z
" transform="scale(0.015625)"/>
      <path id="FangSong-73" d="M 600 2075 
Q 600 2450 887 2650 
Q 1175 2850 1575 2850 
Q 1800 2850 2000 2787 
Q 2200 2725 2275 2725 
Q 2350 2725 2400 2750 
Q 2450 2775 2525 2850 
L 2625 2025 
L 2475 2000 
Q 2375 2325 2137 2512 
Q 1900 2700 1600 2700 
Q 1275 2700 1087 2575 
Q 900 2450 900 2225 
Q 900 2025 987 1912 
Q 1075 1800 1300 1750 
Q 1475 1675 1737 1587 
Q 2000 1500 2225 1400 
Q 2425 1300 2562 1137 
Q 2700 975 2700 775 
Q 2700 400 2437 187 
Q 2175 -25 1675 -25 
Q 1350 -25 1187 37 
Q 1025 100 925 100 
Q 850 100 762 62 
Q 675 25 575 -25 
L 500 900 
L 650 925 
Q 725 525 975 325 
Q 1225 125 1675 125 
Q 2025 125 2212 250 
Q 2400 375 2400 625 
Q 2400 800 2300 912 
Q 2200 1025 2100 1075 
Q 1850 1175 1550 1287 
Q 1250 1400 1025 1500 
Q 800 1600 700 1750 
Q 600 1900 600 2075 
z
" transform="scale(0.015625)"/>
      <path id="FangSong-71" d="M 2250 2150 
Q 2150 2375 1975 2512 
Q 1800 2650 1550 2650 
Q 1200 2650 950 2350 
Q 700 2050 700 1325 
Q 700 700 912 437 
Q 1125 175 1450 175 
Q 1725 175 1937 300 
Q 2150 425 2250 725 
L 2250 2150 
z
M 2600 -550 
Q 2600 -675 2662 -725 
Q 2725 -775 2825 -775 
L 2975 -775 
L 2975 -925 
L 1825 -925 
L 1825 -775 
L 2025 -775 
Q 2150 -775 2200 -725 
Q 2250 -675 2250 -550 
L 2250 375 
Q 2100 175 1887 75 
Q 1675 -25 1375 -25 
Q 950 -25 625 337 
Q 300 700 300 1400 
Q 300 2075 675 2450 
Q 1050 2825 1475 2825 
Q 1750 2825 1937 2725 
Q 2125 2625 2275 2475 
L 2500 2800 
L 2600 2800 
L 2600 -550 
z
" transform="scale(0.015625)"/>
      <path id="FangSong-7a" d="M 2725 975 
L 2550 0 
L 400 0 
L 400 125 
L 2125 2650 
L 1200 2650 
Q 975 2650 825 2487 
Q 675 2325 575 1925 
L 425 1950 
L 525 2800 
L 2575 2800 
L 2575 2725 
L 825 150 
L 1775 150 
Q 2100 150 2287 350 
Q 2475 550 2575 1000 
L 2725 975 
z
" transform="scale(0.015625)"/>
      <path id="FangSong-76" d="M 1600 -25 
L 1450 -25 
L 600 2425 
Q 575 2525 500 2587 
Q 425 2650 325 2650 
L 200 2650 
L 200 2800 
L 1275 2800 
L 1275 2650 
L 1175 2650 
Q 1025 2650 987 2575 
Q 950 2500 1000 2325 
L 1600 575 
L 1650 575 
L 2250 2300 
Q 2325 2475 2262 2562 
Q 2200 2650 2050 2650 
L 2000 2650 
L 2000 2800 
L 2900 2800 
L 2900 2650 
L 2850 2650 
Q 2700 2650 2612 2562 
Q 2525 2475 2450 2300 
L 1600 -25 
z
" transform="scale(0.015625)"/>
      <path id="FangSong-39" d="M 675 2950 
Q 675 2400 887 2112 
Q 1100 1825 1425 1825 
Q 1800 1825 2075 2175 
Q 2350 2525 2350 2825 
Q 2350 3425 2150 3787 
Q 1950 4150 1500 4150 
Q 1075 4150 875 3812 
Q 675 3475 675 2950 
z
M 1350 1600 
Q 850 1600 550 1912 
Q 250 2225 250 2925 
Q 250 3525 575 3925 
Q 900 4325 1500 4325 
Q 2125 4325 2475 3825 
Q 2825 3325 2825 2375 
Q 2825 1325 2412 637 
Q 2000 -50 1275 -50 
Q 950 -50 712 100 
Q 475 250 475 500 
Q 475 600 537 700 
Q 600 800 750 800 
Q 900 800 950 687 
Q 1000 575 1000 425 
Q 1000 325 1025 262 
Q 1050 200 1075 175 
Q 1100 150 1162 137 
Q 1225 125 1300 125 
Q 1750 125 2025 625 
Q 2300 1125 2350 2300 
Q 2225 2000 1975 1800 
Q 1725 1600 1350 1600 
z
" transform="scale(0.015625)"/>
      <path id="FangSong-37" d="M 2800 4100 
Q 2275 3250 1962 2437 
Q 1650 1625 1650 1025 
Q 1650 925 1662 737 
Q 1675 550 1675 300 
Q 1675 100 1612 25 
Q 1550 -50 1400 -50 
Q 1275 -50 1187 37 
Q 1100 125 1100 350 
Q 1100 825 1312 1525 
Q 1525 2225 2450 3900 
L 1200 3900 
Q 925 3900 762 3725 
Q 600 3550 525 3200 
L 375 3225 
L 550 4275 
L 2800 4275 
L 2800 4100 
z
" transform="scale(0.015625)"/>
     </defs>
     <use xlink:href="#FangSong-63"/>
     <use xlink:href="#FangSong-6f" x="50"/>
     <use xlink:href="#FangSong-75" x="100"/>
     <use xlink:href="#FangSong-6e" x="150"/>
     <use xlink:href="#FangSong-74" x="200"/>
     <use xlink:href="#FangSong-3d" x="250"/>
     <use xlink:href="#FangSong-31" x="300"/>
     <use xlink:href="#FangSong-30" x="350"/>
     <use xlink:href="#FangSong-30" x="400"/>
     <use xlink:href="#FangSong-30" x="450"/>
     <use xlink:href="#FangSong-2c" x="500"/>
     <use xlink:href="#FangSong-20" x="550"/>
     <use xlink:href="#FangSong-67" x="600"/>
     <use xlink:href="#FangSong-6f" x="650"/>
     <use xlink:href="#FangSong-6f" x="700"/>
     <use xlink:href="#FangSong-67" x="750"/>
     <use xlink:href="#FangSong-6c" x="800"/>
     <use xlink:href="#FangSong-65" x="850"/>
     <use xlink:href="#FangSong-6e" x="900"/>
     <use xlink:href="#FangSong-65" x="950"/>
     <use xlink:href="#FangSong-74" x="1000"/>
     <use xlink:href="#FangSong-3d" x="1050"/>
     <use xlink:href="#FangSong-31" x="1100"/>
     <use xlink:href="#FangSong-35" x="1150"/>
     <use xlink:href="#FangSong-30" x="1200"/>
     <use xlink:href="#FangSong-2c" x="1250"/>
     <use xlink:href="#FangSong-20" x="1300"/>
     <use xlink:href="#FangSong-72" x="1350"/>
     <use xlink:href="#FangSong-65" x="1400"/>
     <use xlink:href="#FangSong-73" x="1450"/>
     <use xlink:href="#FangSong-6e" x="1500"/>
     <use xlink:href="#FangSong-65" x="1550"/>
     <use xlink:href="#FangSong-74" x="1600"/>
     <use xlink:href="#FangSong-35" x="1650"/>
     <use xlink:href="#FangSong-30" x="1700"/>
     <use xlink:href="#FangSong-3d" x="1750"/>
     <use xlink:href="#FangSong-31" x="1800"/>
     <use xlink:href="#FangSong-31" x="1850"/>
     <use xlink:href="#FangSong-32" x="1900"/>
     <use xlink:href="#FangSong-2c" x="1950"/>
     <use xlink:href="#FangSong-20" x="2000"/>
     <use xlink:href="#FangSong-73" x="2050"/>
     <use xlink:href="#FangSong-71" x="2100"/>
     <use xlink:href="#FangSong-75" x="2150"/>
     <use xlink:href="#FangSong-65" x="2200"/>
     <use xlink:href="#FangSong-65" x="2250"/>
     <use xlink:href="#FangSong-7a" x="2300"/>
     <use xlink:href="#FangSong-65" x="2350"/>
     <use xlink:href="#FangSong-6e" x="2400"/>
     <use xlink:href="#FangSong-65" x="2450"/>
     <use xlink:href="#FangSong-74" x="2500"/>
     <use xlink:href="#FangSong-76" x="2550"/>
     <use xlink:href="#FangSong-31" x="2600"/>
     <use xlink:href="#FangSong-3d" x="2650"/>
     <use xlink:href="#FangSong-31" x="2700"/>
     <use xlink:href="#FangSong-35" x="2750"/>
     <use xlink:href="#FangSong-30" x="2800"/>
     <use xlink:href="#FangSong-2c" x="2850"/>
     <use xlink:href="#FangSong-20" x="2900"/>
     <use xlink:href="#FangSong-76" x="2950"/>
     <use xlink:href="#FangSong-67" x="3000"/>
     <use xlink:href="#FangSong-67" x="3050"/>
     <use xlink:href="#FangSong-31" x="3100"/>
     <use xlink:href="#FangSong-39" x="3150"/>
     <use xlink:href="#FangSong-3d" x="3200"/>
     <use xlink:href="#FangSong-31" x="3250"/>
     <use xlink:href="#FangSong-38" x="3300"/>
     <use xlink:href="#FangSong-37" x="3350"/>
    </g>
   </g>
   <g id="legend_1">
    <g id="patch_7">
     <path d="M 315.72 302.584 
L 407.72 302.584 
Q 409.72 302.584 409.72 300.584 
L 409.72 234.279312 
Q 409.72 232.279312 407.72 232.279312 
L 315.72 232.279312 
Q 313.72 232.279312 313.72 234.279312 
L 313.72 300.584 
Q 313.72 302.584 315.72 302.584 
z
" style="fill: #ffffff; opacity: 0.8; stroke: #cccccc; stroke-linejoin: miter"/>
    </g>
    <g id="line2d_17">
     <path d="M 317.72 239.779312 
L 327.72 239.779312 
L 337.72 239.779312 
" style="fill: none; stroke: #ff0000; stroke-linecap: square"/>
    </g>
    <g id="text_15">
     <!-- total -->
     <g transform="translate(345.72 243.279312)scale(0.1 -0.1)">
      <defs>
       <path id="FangSong-61" d="M 1200 -25 
Q 750 -25 500 187 
Q 250 400 250 675 
Q 250 1125 637 1412 
Q 1025 1700 2175 1825 
L 2175 2125 
Q 2175 2375 2062 2537 
Q 1950 2700 1550 2700 
Q 1125 2700 950 2562 
Q 775 2425 825 2275 
Q 875 2175 825 2075 
Q 775 1975 625 1975 
Q 525 1975 462 2037 
Q 400 2100 400 2225 
Q 400 2450 725 2650 
Q 1050 2850 1525 2850 
Q 2025 2850 2275 2662 
Q 2525 2475 2525 2125 
L 2525 475 
Q 2525 275 2562 237 
Q 2600 200 2700 200 
Q 2825 200 2875 312 
Q 2925 425 2925 625 
L 3050 625 
Q 3050 275 2925 137 
Q 2800 0 2600 0 
Q 2425 0 2325 75 
Q 2225 150 2175 325 
Q 1925 150 1712 62 
Q 1500 -25 1200 -25 
z
M 675 750 
Q 675 525 812 337 
Q 950 150 1250 150 
Q 1475 150 1700 237 
Q 1925 325 2175 500 
L 2175 1675 
Q 1325 1575 1000 1337 
Q 675 1100 675 750 
z
" transform="scale(0.015625)"/>
      </defs>
      <use xlink:href="#FangSong-74"/>
      <use xlink:href="#FangSong-6f" x="50"/>
      <use xlink:href="#FangSong-74" x="100"/>
      <use xlink:href="#FangSong-61" x="150"/>
      <use xlink:href="#FangSong-6c" x="200"/>
     </g>
    </g>
    <g id="line2d_18">
     <path d="M 317.72 253.224625 
L 327.72 253.224625 
L 337.72 253.224625 
" style="fill: none; stroke-dasharray: 1.85,0.8; stroke-dashoffset: 0; stroke: #008000; stroke-width: 0.5"/>
    </g>
    <g id="text_16">
     <!-- vgg19 -->
     <g transform="translate(345.72 256.724625)scale(0.1 -0.1)">
      <use xlink:href="#FangSong-76"/>
      <use xlink:href="#FangSong-67" x="50"/>
      <use xlink:href="#FangSong-67" x="100"/>
      <use xlink:href="#FangSong-31" x="150"/>
      <use xlink:href="#FangSong-39" x="200"/>
     </g>
    </g>
    <g id="line2d_19">
     <path d="M 317.72 266.709 
L 327.72 266.709 
L 337.72 266.709 
" style="fill: none; stroke-dasharray: 1.85,0.8; stroke-dashoffset: 0; stroke: #0000ff; stroke-width: 0.5"/>
    </g>
    <g id="text_17">
     <!-- resnet50 -->
     <g transform="translate(345.72 270.209)scale(0.1 -0.1)">
      <use xlink:href="#FangSong-72"/>
      <use xlink:href="#FangSong-65" x="50"/>
      <use xlink:href="#FangSong-73" x="100"/>
      <use xlink:href="#FangSong-6e" x="150"/>
      <use xlink:href="#FangSong-65" x="200"/>
      <use xlink:href="#FangSong-74" x="250"/>
      <use xlink:href="#FangSong-35" x="300"/>
      <use xlink:href="#FangSong-30" x="350"/>
     </g>
    </g>
    <g id="line2d_20">
     <path d="M 317.72 280.154312 
L 327.72 280.154312 
L 337.72 280.154312 
" style="fill: none; stroke-dasharray: 1.85,0.8; stroke-dashoffset: 0; stroke: #bf00bf; stroke-width: 0.5"/>
    </g>
    <g id="text_18">
     <!-- squeezenetv1 -->
     <g transform="translate(345.72 283.654312)scale(0.1 -0.1)">
      <use xlink:href="#FangSong-73"/>
      <use xlink:href="#FangSong-71" x="50"/>
      <use xlink:href="#FangSong-75" x="100"/>
      <use xlink:href="#FangSong-65" x="150"/>
      <use xlink:href="#FangSong-65" x="200"/>
      <use xlink:href="#FangSong-7a" x="250"/>
      <use xlink:href="#FangSong-65" x="300"/>
      <use xlink:href="#FangSong-6e" x="350"/>
      <use xlink:href="#FangSong-65" x="400"/>
      <use xlink:href="#FangSong-74" x="450"/>
      <use xlink:href="#FangSong-76" x="500"/>
      <use xlink:href="#FangSong-31" x="550"/>
     </g>
    </g>
    <g id="line2d_21">
     <path d="M 317.72 293.599625 
L 327.72 293.599625 
L 337.72 293.599625 
" style="fill: none; stroke-dasharray: 1.85,0.8; stroke-dashoffset: 0; stroke: #bfbf00; stroke-width: 0.5"/>
    </g>
    <g id="text_19">
     <!-- googlenet -->
     <g transform="translate(345.72 297.099625)scale(0.1 -0.1)">
      <use xlink:href="#FangSong-67"/>
      <use xlink:href="#FangSong-6f" x="50"/>
      <use xlink:href="#FangSong-6f" x="100"/>
      <use xlink:href="#FangSong-67" x="150"/>
      <use xlink:href="#FangSong-6c" x="200"/>
      <use xlink:href="#FangSong-65" x="250"/>
      <use xlink:href="#FangSong-6e" x="300"/>
      <use xlink:href="#FangSong-65" x="350"/>
      <use xlink:href="#FangSong-74" x="400"/>
     </g>
    </g>
   </g>
  </g>
 </g>
 <defs>
  <clipPath id="p203576c2c2">
   <rect x="57.6" y="41.472" width="357.12" height="266.112"/>
  </clipPath>
 </defs>
</svg>
