<?xml version="1.0" encoding="utf-8" standalone="no"?>
<!DOCTYPE svg PUBLIC "-//W3C//DTD SVG 1.1//EN"
  "http://www.w3.org/Graphics/SVG/1.1/DTD/svg11.dtd">
<svg xmlns:xlink="http://www.w3.org/1999/xlink" width="460.8pt" height="345.6pt" viewBox="0 0 460.8 345.6" xmlns="http://www.w3.org/2000/svg" version="1.1">
 <metadata>
  <rdf:RDF xmlns:dc="http://purl.org/dc/elements/1.1/" xmlns:cc="http://creativecommons.org/ns#" xmlns:rdf="http://www.w3.org/1999/02/22-rdf-syntax-ns#">
   <cc:Work>
    <dc:type rdf:resource="http://purl.org/dc/dcmitype/StillImage"/>
    <dc:date>2022-11-17T04:01:28.075764</dc:date>
    <dc:format>image/svg+xml</dc:format>
    <dc:creator>
     <cc:Agent>
      <dc:title>Matplotlib v3.5.2, https://matplotlib.org/</dc:title>
     </cc:Agent>
    </dc:creator>
   </cc:Work>
  </rdf:RDF>
 </metadata>
 <defs>
  <style type="text/css">*{stroke-linejoin: round; stroke-linecap: butt}</style>
 </defs>
 <g id="figure_1">
  <g id="patch_1">
   <path d="M 0 345.6 
L 460.8 345.6 
L 460.8 0 
L 0 0 
z
" style="fill: #ffffff"/>
  </g>
  <g id="axes_1">
   <g id="patch_2">
    <path d="M 57.6 307.584 
L 414.72 307.584 
L 414.72 41.472 
L 57.6 41.472 
z
" style="fill: #ffffff"/>
   </g>
   <g id="matplotlib.axis_1">
    <g id="xtick_1">
     <g id="line2d_1">
      <defs>
       <path id="md2f15848e9" d="M 0 0 
L 0 3.5 
" style="stroke: #000000; stroke-width: 0.8"/>
      </defs>
      <g>
       <use xlink:href="#md2f15848e9" x="72.585016" y="307.584" style="stroke: #000000; stroke-width: 0.8"/>
      </g>
     </g>
     <g id="text_1">
      <!-- 0 -->
      <g transform="translate(70.085016 321.576187)scale(0.1 -0.1)">
       <defs>
        <path id="FangSong-30" d="M 1575 4125 
Q 1225 4125 987 3587 
Q 750 3050 750 2150 
Q 750 1200 987 675 
Q 1225 150 1575 150 
Q 1950 150 2162 675 
Q 2375 1200 2375 2150 
Q 2375 3050 2175 3587 
Q 1975 4125 1575 4125 
z
M 1575 -50 
Q 1025 -50 650 525 
Q 275 1100 275 2150 
Q 275 3125 637 3725 
Q 1000 4325 1575 4325 
Q 2125 4325 2487 3750 
Q 2850 3175 2850 2150 
Q 2850 1125 2487 537 
Q 2125 -50 1575 -50 
z
" transform="scale(0.015625)"/>
       </defs>
       <use xlink:href="#FangSong-30"/>
      </g>
     </g>
    </g>
    <g id="xtick_2">
     <g id="line2d_2">
      <g>
       <use xlink:href="#md2f15848e9" x="134.970593" y="307.584" style="stroke: #000000; stroke-width: 0.8"/>
      </g>
     </g>
     <g id="text_2">
      <!-- 50 -->
      <g transform="translate(129.970593 321.576187)scale(0.1 -0.1)">
       <defs>
        <path id="FangSong-35" d="M 1700 2750 
Q 2175 2750 2475 2387 
Q 2775 2025 2775 1425 
Q 2775 750 2462 350 
Q 2150 -50 1500 -50 
Q 1050 -50 700 212 
Q 350 475 350 850 
Q 350 1000 437 1112 
Q 525 1225 675 1225 
Q 825 1225 875 1125 
Q 925 1025 925 950 
Q 925 800 850 712 
Q 775 625 775 525 
Q 775 325 1012 225 
Q 1250 125 1525 125 
Q 1925 125 2137 450 
Q 2350 775 2350 1375 
Q 2350 1875 2162 2187 
Q 1975 2500 1600 2500 
Q 1325 2500 1125 2400 
Q 925 2300 750 1975 
L 525 2000 
L 650 4275 
L 2700 4275 
L 2625 3900 
L 825 3900 
L 725 2250 
Q 975 2600 1212 2675 
Q 1450 2750 1700 2750 
z
" transform="scale(0.015625)"/>
       </defs>
       <use xlink:href="#FangSong-35"/>
       <use xlink:href="#FangSong-30" x="50"/>
      </g>
     </g>
    </g>
    <g id="xtick_3">
     <g id="line2d_3">
      <g>
       <use xlink:href="#md2f15848e9" x="197.356171" y="307.584" style="stroke: #000000; stroke-width: 0.8"/>
      </g>
     </g>
     <g id="text_3">
      <!-- 100 -->
      <g transform="translate(189.856171 321.576187)scale(0.1 -0.1)">
       <defs>
        <path id="FangSong-31" d="M 1800 4350 
L 1800 550 
Q 1800 350 1925 250 
Q 2050 150 2275 150 
L 2525 150 
L 2525 0 
L 700 0 
L 700 150 
L 925 150 
Q 1175 150 1287 250 
Q 1400 350 1400 550 
L 1400 3575 
Q 1400 3675 1337 3737 
Q 1275 3800 1150 3800 
L 700 3800 
L 700 3950 
L 925 3950 
Q 1225 3950 1412 4050 
Q 1600 4150 1700 4350 
L 1800 4350 
z
" transform="scale(0.015625)"/>
       </defs>
       <use xlink:href="#FangSong-31"/>
       <use xlink:href="#FangSong-30" x="50"/>
       <use xlink:href="#FangSong-30" x="100"/>
      </g>
     </g>
    </g>
    <g id="xtick_4">
     <g id="line2d_4">
      <g>
       <use xlink:href="#md2f15848e9" x="259.741748" y="307.584" style="stroke: #000000; stroke-width: 0.8"/>
      </g>
     </g>
     <g id="text_4">
      <!-- 150 -->
      <g transform="translate(252.241748 321.576187)scale(0.1 -0.1)">
       <use xlink:href="#FangSong-31"/>
       <use xlink:href="#FangSong-35" x="50"/>
       <use xlink:href="#FangSong-30" x="100"/>
      </g>
     </g>
    </g>
    <g id="xtick_5">
     <g id="line2d_5">
      <g>
       <use xlink:href="#md2f15848e9" x="322.127326" y="307.584" style="stroke: #000000; stroke-width: 0.8"/>
      </g>
     </g>
     <g id="text_5">
      <!-- 200 -->
      <g transform="translate(314.627326 321.576187)scale(0.1 -0.1)">
       <defs>
        <path id="FangSong-32" d="M 2300 3225 
Q 2300 3675 2100 3912 
Q 1900 4150 1500 4150 
Q 1200 4150 987 3987 
Q 775 3825 775 3575 
Q 775 3425 862 3325 
Q 950 3225 950 3125 
Q 950 3000 887 2937 
Q 825 2875 700 2875 
Q 550 2875 462 2962 
Q 375 3050 375 3250 
Q 375 3775 750 4050 
Q 1125 4325 1550 4325 
Q 2150 4325 2437 4025 
Q 2725 3725 2725 3275 
Q 2725 2975 2587 2675 
Q 2450 2375 2150 2100 
Q 1425 1400 1037 962 
Q 650 525 575 375 
L 2050 375 
Q 2275 375 2425 550 
Q 2575 725 2625 1075 
L 2775 1075 
L 2625 0 
L 300 0 
L 300 325 
Q 425 550 712 900 
Q 1000 1250 1475 1725 
Q 1900 2150 2100 2525 
Q 2300 2900 2300 3225 
z
" transform="scale(0.015625)"/>
       </defs>
       <use xlink:href="#FangSong-32"/>
       <use xlink:href="#FangSong-30" x="50"/>
       <use xlink:href="#FangSong-30" x="100"/>
      </g>
     </g>
    </g>
    <g id="xtick_6">
     <g id="line2d_6">
      <g>
       <use xlink:href="#md2f15848e9" x="384.512903" y="307.584" style="stroke: #000000; stroke-width: 0.8"/>
      </g>
     </g>
     <g id="text_6">
      <!-- 250 -->
      <g transform="translate(377.012903 321.576187)scale(0.1 -0.1)">
       <use xlink:href="#FangSong-32"/>
       <use xlink:href="#FangSong-35" x="50"/>
       <use xlink:href="#FangSong-30" x="100"/>
      </g>
     </g>
    </g>
    <g id="text_7">
     <!-- 响应比 -->
     <g transform="translate(221.16 334.873062)scale(0.1 -0.1)">
      <defs>
       <path id="FangSong-54cd" d="M 2700 -200 
Q 2725 -650 2625 -525 
L 2375 -125 
Q 2500 50 2475 350 
L 2500 3200 
Q 2500 3625 2425 4100 
L 2500 4125 
L 2725 3575 
L 3300 3625 
Q 3550 4225 3675 4637 
Q 3800 5050 3700 5150 
L 3775 5200 
L 4125 4750 
Q 4050 4800 3900 4512 
Q 3750 4225 3500 3650 
L 5275 3850 
L 5425 4125 
L 5725 3850 
L 5575 3650 
Q 5500 -175 5175 -675 
Q 4800 -275 4175 250 
L 4225 350 
L 5050 -175 
Q 5275 525 5325 3625 
L 2725 3325 
L 2700 -200 
z
M 725 3250 
Q 725 3575 625 3925 
L 725 3975 
L 950 3525 
L 1750 3650 
L 1875 3875 
L 2175 3650 
L 2000 3450 
L 1925 2175 
L 2125 1950 
L 1000 1800 
Q 1025 1275 900 1350 
L 650 1750 
Q 775 1850 750 2150 
L 725 3250 
z
M 3550 1250 
Q 3575 950 3500 875 
L 3225 1200 
Q 3300 1350 3300 1525 
L 3275 2325 
Q 3275 2700 3200 2875 
L 3275 2925 
L 3500 2625 
L 4350 2725 
L 4500 2925 
L 4775 2675 
L 4600 2475 
L 4525 1575 
L 4750 1400 
L 3550 1250 
z
M 975 3275 
L 1000 2050 
L 1675 2150 
L 1775 3425 
L 975 3275 
z
M 4350 2475 
L 3500 2375 
L 3525 1500 
L 4275 1575 
L 4350 2475 
z
" transform="scale(0.015625)"/>
       <path id="FangSong-5e94" d="M 1625 4400 
L 1800 3800 
Q 5075 4050 5200 4175 
L 5525 3850 
Q 5200 3900 1825 3550 
Q 1775 2450 1675 1825 
Q 1575 1200 1312 612 
Q 1050 25 500 -600 
L 425 -525 
Q 850 50 1100 675 
Q 1350 1300 1425 1862 
Q 1500 2425 1550 3150 
Q 1600 3875 1550 4375 
L 1625 4400 
z
M 4725 3175 
L 5100 2725 
Q 5000 2800 4750 2112 
Q 4500 1425 4000 150 
Q 5425 225 5400 275 
L 5725 0 
Q 5425 0 3687 -112 
Q 1950 -225 1725 -275 
L 1350 25 
Q 2150 0 3800 125 
Q 4300 1500 4525 2200 
Q 4750 2900 4650 3125 
L 4725 3175 
z
M 2900 1150 
Q 2800 975 2650 725 
Q 2450 1625 2175 2550 
L 2275 2575 
Q 2600 1850 2900 1150 
z
M 3775 1550 
Q 3675 1350 3525 1150 
Q 3475 1600 3075 3050 
L 3150 3075 
Q 3475 2300 3775 1550 
z
M 3500 4100 
Q 3275 4675 3000 5225 
L 3075 5275 
Q 3375 4900 3700 4525 
Q 3600 4325 3500 4100 
z
" transform="scale(0.015625)"/>
       <path id="FangSong-6bd4" d="M 3500 2125 
Q 3925 2425 4487 2975 
Q 5050 3525 4950 3750 
L 5025 3775 
L 5250 3225 
Q 5175 3250 4875 3000 
Q 4575 2750 4287 2525 
Q 4000 2300 3500 1900 
L 3500 575 
Q 3475 -100 4150 -100 
L 4800 -100 
Q 5275 -100 5375 12 
Q 5475 125 5450 1350 
L 5575 1350 
Q 5600 825 5637 412 
Q 5675 0 5800 -175 
Q 5375 -325 4800 -325 
L 4150 -325 
Q 3225 -350 3275 550 
L 3275 4300 
Q 3275 4875 3150 5150 
L 3200 5200 
L 3625 4850 
Q 3475 4825 3500 4250 
L 3500 2125 
z
M 1500 2575 
Q 1900 2625 2337 2712 
Q 2775 2800 2800 2850 
L 3075 2600 
Q 2875 2575 2350 2475 
Q 1825 2375 1775 2325 
L 1500 2525 
L 1500 150 
L 2925 1075 
L 2975 1025 
Q 1550 -75 1375 -350 
L 1200 0 
Q 1275 75 1275 350 
L 1275 3925 
Q 1275 4475 1150 4750 
L 1200 4800 
L 1625 4400 
Q 1475 4375 1500 3925 
L 1500 2575 
z
" transform="scale(0.015625)"/>
      </defs>
      <use xlink:href="#FangSong-54cd"/>
      <use xlink:href="#FangSong-5e94" x="100"/>
      <use xlink:href="#FangSong-6bd4" x="200"/>
     </g>
    </g>
   </g>
   <g id="matplotlib.axis_2">
    <g id="ytick_1">
     <g id="line2d_7">
      <defs>
       <path id="m5fdc3b8d53" d="M 0 0 
L -3.5 0 
" style="stroke: #000000; stroke-width: 0.8"/>
      </defs>
      <g>
       <use xlink:href="#m5fdc3b8d53" x="57.6" y="295.488" style="stroke: #000000; stroke-width: 0.8"/>
      </g>
     </g>
     <g id="text_8">
      <!-- 0% -->
      <g transform="translate(40.6 298.984094)scale(0.1 -0.1)">
       <defs>
        <path id="FangSong-25" d="M 725 4150 
Q 575 4150 475 3950 
Q 375 3750 375 3200 
Q 375 2575 487 2387 
Q 600 2200 725 2200 
Q 900 2200 987 2425 
Q 1075 2650 1075 3200 
Q 1075 3650 1012 3900 
Q 950 4150 725 4150 
z
M 1400 3175 
Q 1400 2725 1250 2387 
Q 1100 2050 725 2050 
Q 425 2050 237 2350 
Q 50 2650 50 3175 
Q 50 3725 250 4025 
Q 450 4325 725 4325 
Q 1025 4325 1212 4012 
Q 1400 3700 1400 3175 
z
M 2700 1100 
Q 2700 1525 2625 1800 
Q 2550 2075 2350 2075 
Q 2200 2075 2100 1837 
Q 2000 1600 2000 1100 
Q 2000 475 2112 300 
Q 2225 125 2350 125 
Q 2525 125 2612 337 
Q 2700 550 2700 1100 
z
M 3025 1075 
Q 3025 575 2850 262 
Q 2675 -50 2350 -50 
Q 2075 -50 1875 262 
Q 1675 575 1675 1075 
Q 1675 1625 1875 1937 
Q 2075 2250 2350 2250 
Q 2650 2250 2837 1925 
Q 3025 1600 3025 1075 
z
M 2500 4250 
L 700 -50 
L 550 25 
L 2325 4325 
L 2500 4250 
z
" transform="scale(0.015625)"/>
       </defs>
       <use xlink:href="#FangSong-30"/>
       <use xlink:href="#FangSong-25" x="50"/>
      </g>
     </g>
    </g>
    <g id="ytick_2">
     <g id="line2d_8">
      <g>
       <use xlink:href="#m5fdc3b8d53" x="57.6" y="247.104" style="stroke: #000000; stroke-width: 0.8"/>
      </g>
     </g>
     <g id="text_9">
      <!-- 20% -->
      <g transform="translate(35.6 250.600094)scale(0.1 -0.1)">
       <use xlink:href="#FangSong-32"/>
       <use xlink:href="#FangSong-30" x="50"/>
       <use xlink:href="#FangSong-25" x="100"/>
      </g>
     </g>
    </g>
    <g id="ytick_3">
     <g id="line2d_9">
      <g>
       <use xlink:href="#m5fdc3b8d53" x="57.6" y="198.72" style="stroke: #000000; stroke-width: 0.8"/>
      </g>
     </g>
     <g id="text_10">
      <!-- 40% -->
      <g transform="translate(35.6 202.216094)scale(0.1 -0.1)">
       <defs>
        <path id="FangSong-34" d="M 2275 475 
Q 2275 300 2375 225 
Q 2475 150 2650 150 
L 2875 150 
L 2875 0 
L 1225 0 
L 1225 150 
L 1500 150 
Q 1700 150 1787 225 
Q 1875 300 1875 475 
L 1875 1300 
L 200 1300 
L 200 1425 
L 2025 4325 
L 2275 4325 
L 2275 1450 
L 2950 1450 
L 2950 1300 
L 2275 1300 
L 2275 475 
z
M 1850 3700 
L 425 1450 
L 1875 1450 
L 1875 3700 
L 1850 3700 
z
" transform="scale(0.015625)"/>
       </defs>
       <use xlink:href="#FangSong-34"/>
       <use xlink:href="#FangSong-30" x="50"/>
       <use xlink:href="#FangSong-25" x="100"/>
      </g>
     </g>
    </g>
    <g id="ytick_4">
     <g id="line2d_10">
      <g>
       <use xlink:href="#m5fdc3b8d53" x="57.6" y="150.336" style="stroke: #000000; stroke-width: 0.8"/>
      </g>
     </g>
     <g id="text_11">
      <!-- 60% -->
      <g transform="translate(35.6 153.832094)scale(0.1 -0.1)">
       <defs>
        <path id="FangSong-36" d="M 750 1700 
Q 750 950 1012 537 
Q 1275 125 1650 125 
Q 2025 125 2225 400 
Q 2425 675 2425 1425 
Q 2425 1925 2212 2200 
Q 2000 2475 1700 2475 
Q 1425 2475 1187 2312 
Q 950 2150 750 1700 
z
M 1725 2725 
Q 2325 2725 2587 2325 
Q 2850 1925 2850 1425 
Q 2850 675 2487 312 
Q 2125 -50 1650 -50 
Q 975 -50 625 462 
Q 275 975 275 1950 
Q 275 3100 700 3712 
Q 1125 4325 1850 4325 
Q 2200 4325 2412 4125 
Q 2625 3925 2625 3775 
Q 2625 3625 2562 3550 
Q 2500 3475 2350 3475 
Q 2225 3475 2162 3537 
Q 2100 3600 2100 3725 
Q 2100 3775 2112 3825 
Q 2125 3875 2125 3925 
Q 2125 4025 2050 4087 
Q 1975 4150 1775 4150 
Q 1350 4150 1050 3762 
Q 750 3375 750 2075 
Q 900 2400 1162 2562 
Q 1425 2725 1725 2725 
z
" transform="scale(0.015625)"/>
       </defs>
       <use xlink:href="#FangSong-36"/>
       <use xlink:href="#FangSong-30" x="50"/>
       <use xlink:href="#FangSong-25" x="100"/>
      </g>
     </g>
    </g>
    <g id="ytick_5">
     <g id="line2d_11">
      <g>
       <use xlink:href="#m5fdc3b8d53" x="57.6" y="101.952" style="stroke: #000000; stroke-width: 0.8"/>
      </g>
     </g>
     <g id="text_12">
      <!-- 80% -->
      <g transform="translate(35.6 105.448094)scale(0.1 -0.1)">
       <defs>
        <path id="FangSong-38" d="M 600 1025 
Q 600 625 862 375 
Q 1125 125 1525 125 
Q 2000 125 2212 375 
Q 2425 625 2425 1000 
Q 2425 1325 2125 1625 
Q 1825 1925 1225 2175 
Q 925 1975 762 1675 
Q 600 1375 600 1025 
z
M 2800 1075 
Q 2800 600 2450 275 
Q 2100 -50 1525 -50 
Q 1000 -50 625 275 
Q 250 600 250 1025 
Q 250 1450 462 1750 
Q 675 2050 1075 2275 
Q 725 2450 537 2712 
Q 350 2975 350 3300 
Q 350 3725 675 4025 
Q 1000 4325 1575 4325 
Q 2100 4325 2425 4025 
Q 2750 3725 2750 3300 
Q 2750 3000 2562 2737 
Q 2375 2475 1975 2275 
Q 2400 2025 2600 1725 
Q 2800 1425 2800 1075 
z
M 2400 3275 
Q 2400 3625 2200 3887 
Q 2000 4150 1575 4150 
Q 1100 4150 900 3900 
Q 700 3650 700 3375 
Q 700 3100 987 2837 
Q 1275 2575 1800 2375 
Q 2100 2525 2250 2750 
Q 2400 2975 2400 3275 
z
" transform="scale(0.015625)"/>
       </defs>
       <use xlink:href="#FangSong-38"/>
       <use xlink:href="#FangSong-30" x="50"/>
       <use xlink:href="#FangSong-25" x="100"/>
      </g>
     </g>
    </g>
    <g id="ytick_6">
     <g id="line2d_12">
      <g>
       <use xlink:href="#m5fdc3b8d53" x="57.6" y="53.568" style="stroke: #000000; stroke-width: 0.8"/>
      </g>
     </g>
     <g id="text_13">
      <!-- 100% -->
      <g transform="translate(30.6 57.064094)scale(0.1 -0.1)">
       <use xlink:href="#FangSong-31"/>
       <use xlink:href="#FangSong-30" x="50"/>
       <use xlink:href="#FangSong-30" x="100"/>
       <use xlink:href="#FangSong-25" x="150"/>
      </g>
     </g>
    </g>
    <g id="text_14">
     <!-- 累计完成比例 -->
     <g transform="translate(25.154688 204.528)rotate(-90)scale(0.1 -0.1)">
      <defs>
       <path id="FangSong-7d2f" d="M 4525 4975 
L 4700 5225 
L 5000 4950 
L 4825 4775 
L 4625 3550 
L 4850 3300 
L 3175 3150 
L 3375 2975 
Q 3200 2925 2862 2725 
Q 2525 2525 2075 2275 
L 3475 2500 
Q 3750 2675 3900 2800 
Q 4050 2925 4100 3075 
L 4175 3100 
L 4325 2700 
Q 4200 2675 3500 2237 
Q 2800 1800 2275 1550 
L 4375 1825 
L 3900 2175 
L 4000 2275 
Q 4625 1900 4950 1725 
Q 4975 1475 4925 1225 
Q 4800 1375 4500 1675 
L 3250 1475 
L 3525 1300 
Q 3375 1200 3375 875 
L 3375 25 
Q 3375 -325 3225 -625 
Q 2975 -325 2400 150 
L 2450 250 
L 3050 -75 
Q 3150 -125 3150 0 
L 3150 925 
Q 3150 1300 3125 1450 
Q 1875 1275 1575 1175 
L 1325 1425 
L 1850 1550 
Q 2175 1700 3250 2300 
Q 2075 2100 1875 2000 
L 1575 2250 
L 1800 2300 
Q 2150 2475 3025 3125 
L 2000 3025 
Q 2000 2675 1950 2700 
Q 1900 2725 1650 3025 
Q 1725 3250 1725 3425 
L 1650 4400 
Q 1625 4675 1525 4950 
L 1625 5000 
L 1875 4675 
L 4525 4975 
z
M 3150 3375 
L 3150 3875 
Q 2525 3800 2400 3725 
L 2100 3975 
Q 2500 3975 3150 4075 
L 3150 4600 
L 1900 4450 
L 1975 3250 
L 3150 3375 
z
M 3375 4100 
Q 3950 4175 4025 4225 
L 4275 4000 
Q 3950 3975 3375 3900 
L 3375 3400 
L 4400 3500 
L 4575 4750 
L 3375 4600 
L 3375 4100 
z
M 5450 -75 
Q 4975 325 3875 1025 
L 3950 1125 
Q 4850 700 5350 500 
Q 5425 250 5450 -75 
z
M 800 -250 
Q 1350 75 1825 500 
Q 2300 925 2325 1125 
L 2400 1150 
L 2550 725 
Q 2425 700 2075 425 
Q 1725 150 875 -350 
L 800 -250 
z
" transform="scale(0.015625)"/>
       <path id="FangSong-8ba1" d="M 4075 4200 
Q 4100 4825 3900 5100 
L 3975 5150 
L 4450 4725 
Q 4275 4600 4300 4200 
L 4275 3000 
Q 5525 3200 5575 3250 
L 5950 2950 
Q 5725 2975 4275 2800 
L 4250 -425 
Q 4250 -700 4150 -575 
L 3875 -150 
Q 4050 50 4025 300 
L 4050 2750 
Q 2975 2625 2900 2575 
L 2525 2825 
Q 2850 2825 4050 2975 
L 4075 4200 
z
M 1775 3250 
L 2100 2950 
L 1900 2750 
L 1875 550 
L 2825 1250 
L 2875 1175 
Q 1875 250 1750 -25 
L 1525 275 
Q 1625 375 1650 625 
L 1675 2775 
Q 900 2625 750 2550 
L 425 2800 
Q 850 2825 1650 3000 
L 1775 3250 
z
M 2025 3800 
Q 1825 4300 1325 4950 
L 1375 5025 
Q 1925 4575 2175 4300 
Q 2125 4000 2025 3800 
z
" transform="scale(0.015625)"/>
       <path id="FangSong-5b8c" d="M 5375 2050 
Q 4925 2050 3550 1950 
L 3850 1750 
Q 3725 1600 3700 1375 
L 3675 275 
Q 3650 -125 4075 -175 
L 4925 -175 
Q 5300 -150 5312 62 
Q 5325 275 5325 1025 
L 5425 1025 
Q 5450 750 5475 337 
Q 5500 -75 5700 -275 
Q 5400 -375 5000 -400 
L 4075 -400 
Q 3425 -350 3425 150 
L 3475 1450 
Q 3475 1775 3425 1925 
L 2675 1850 
L 2875 1650 
Q 2750 1550 2600 1200 
Q 2450 850 2025 312 
Q 1600 -225 600 -675 
L 550 -575 
Q 1525 -100 1987 625 
Q 2450 1350 2525 1850 
Q 1550 1775 1500 1725 
L 1150 2025 
Q 1625 2025 3212 2150 
Q 4800 2275 5000 2350 
L 5375 2050 
z
M 1650 3650 
Q 1550 3125 1325 2875 
L 1150 3250 
Q 1450 3425 1575 4400 
L 1675 4400 
L 1675 3900 
L 5025 4150 
L 5175 4400 
L 5525 4075 
Q 5375 4050 4725 3250 
L 4650 3325 
L 4975 3900 
L 1650 3650 
z
M 4475 2975 
Q 4225 2975 3412 2875 
Q 2600 2775 2400 2725 
L 2050 2975 
Q 2575 2975 3200 3075 
Q 3825 3175 4150 3225 
L 4475 2975 
z
M 3550 4575 
Q 3475 4350 3300 4150 
Q 3225 4475 2900 5200 
L 2975 5250 
Q 3350 4825 3550 4575 
z
" transform="scale(0.015625)"/>
       <path id="FangSong-6210" d="M 5575 975 
Q 5600 -150 5750 -625 
Q 4650 -225 4000 1075 
Q 3625 650 2975 225 
L 2925 325 
Q 3525 825 3900 1300 
Q 3600 2275 3500 3300 
L 1875 3125 
Q 1875 2625 1825 2100 
L 2725 2250 
L 2875 2475 
L 3175 2225 
L 3000 2050 
Q 2850 475 2575 -125 
Q 2225 400 1825 775 
L 1875 850 
L 2475 400 
Q 2650 875 2750 2000 
L 1825 1850 
Q 1675 250 600 -650 
L 525 -600 
Q 1250 250 1425 987 
Q 1600 1725 1625 2612 
Q 1650 3500 1550 3800 
L 1625 3825 
L 1850 3350 
L 3450 3525 
Q 3400 4150 3375 4562 
Q 3350 4975 3225 5200 
L 3275 5225 
L 3725 4900 
Q 3625 4925 3637 4575 
Q 3650 4225 3675 3550 
Q 4900 3700 5050 3775 
L 5325 3475 
Q 4775 3475 3725 3325 
Q 3775 2425 4075 1525 
Q 4500 2025 4687 2325 
Q 4875 2625 4800 2850 
L 4875 2875 
L 5125 2325 
Q 5075 2400 4850 2125 
Q 4625 1850 4150 1275 
Q 4625 225 5425 -125 
L 5475 975 
L 5575 975 
z
M 4100 5000 
Q 4525 4700 4875 4450 
Q 4825 4250 4750 4025 
Q 4400 4525 4025 4950 
L 4100 5000 
z
" transform="scale(0.015625)"/>
       <path id="FangSong-4f8b" d="M 3050 2000 
Q 3025 1800 2975 1600 
Q 2775 1900 2525 2250 
Q 2300 1875 2025 1550 
L 1925 1625 
Q 2675 2725 2975 3975 
Q 2475 3925 2375 3875 
L 2050 4125 
Q 2375 4125 3162 4225 
Q 3950 4325 4100 4450 
L 4350 4125 
Q 4050 4150 3100 3975 
L 3300 3700 
Q 3200 3675 3125 3525 
Q 3050 3375 2925 3050 
L 3625 3150 
L 3775 3350 
L 4050 3075 
L 3875 2900 
Q 3300 825 1850 -225 
L 1800 -100 
Q 3100 975 3625 2900 
Q 3150 2825 3025 2775 
L 2875 2925 
Q 2775 2675 2575 2350 
Q 2900 2125 3050 2000 
z
M 1275 -150 
Q 1425 25 1400 225 
L 1450 3425 
Q 1025 2800 475 2225 
L 400 2325 
Q 875 2850 1450 3887 
Q 2025 4925 1925 5150 
L 2000 5175 
L 2250 4700 
Q 2200 4725 2062 4475 
Q 1925 4225 1675 3800 
L 1625 -325 
Q 1650 -675 1525 -600 
L 1275 -150 
z
M 5475 250 
Q 5475 -300 5300 -650 
Q 4900 -100 4300 375 
L 4350 475 
L 5200 -75 
Q 5250 250 5250 575 
L 5250 4350 
Q 5275 4950 5100 5150 
L 5175 5225 
L 5600 4850 
Q 5450 4775 5475 4325 
L 5475 250 
z
M 4300 1525 
Q 4400 1650 4400 1900 
L 4400 3075 
Q 4425 3525 4300 3750 
L 4350 3800 
L 4725 3450 
Q 4600 3350 4625 3025 
L 4625 1375 
Q 4625 1050 4550 1125 
L 4300 1525 
z
" transform="scale(0.015625)"/>
      </defs>
      <use xlink:href="#FangSong-7d2f"/>
      <use xlink:href="#FangSong-8ba1" x="100"/>
      <use xlink:href="#FangSong-5b8c" x="200"/>
      <use xlink:href="#FangSong-6210" x="300"/>
      <use xlink:href="#FangSong-6bd4" x="400"/>
      <use xlink:href="#FangSong-4f8b" x="500"/>
     </g>
    </g>
   </g>
   <g id="line2d_13">
    <path d="M 73.832727 295.488 
L 74.08227 294.76224 
L 74.207041 293.79456 
L 74.331812 291.37536 
L 74.581354 276.1344 
L 76.203379 168.96384 
L 76.577693 154.93248 
L 77.451091 136.30464 
L 77.950175 131.46624 
L 78.44926 130.74048 
L 78.823573 130.74048 
L 78.948345 130.25664 
L 79.322658 130.25664 
L 79.5722 130.01472 
L 80.196056 130.01472 
L 80.445598 129.7728 
L 80.695141 129.7728 
L 80.944683 129.53088 
L 81.568539 129.53088 
L 81.69331 129.04704 
L 83.065793 129.04704 
L 83.190564 128.5632 
L 83.440106 128.5632 
L 83.689649 127.83744 
L 84.063962 127.83744 
L 84.313504 127.59552 
L 84.563047 127.59552 
L 84.812589 127.3536 
L 85.436445 127.3536 
L 85.685987 127.11168 
L 85.935529 127.11168 
L 86.309843 126.62784 
L 86.808927 126.62784 
L 87.05847 126.38592 
L 87.931868 126.38592 
L 88.18141 126.144 
L 88.680495 126.144 
L 88.930037 125.90208 
L 89.054808 125.90208 
L 89.30435 125.66016 
L 89.928206 125.66016 
L 90.177749 125.41824 
L 90.926376 125.41824 
L 91.051147 124.9344 
L 91.550231 124.9344 
L 91.799774 124.69248 
L 92.298858 124.69248 
L 92.548401 124.45056 
L 93.172256 124.45056 
L 93.421799 124.20864 
L 93.54657 124.20864 
L 93.920883 123.7248 
L 94.419968 123.7248 
L 94.794281 123.24096 
L 95.043824 123.24096 
L 95.418137 122.75712 
L 95.667679 122.75712 
L 95.917222 122.5152 
L 96.541077 122.5152 
L 96.79062 122.27328 
L 97.539247 122.27328 
L 97.664018 121.78944 
L 98.038331 121.78944 
L 98.287874 121.54752 
L 99.286043 121.54752 
L 99.535585 121.3056 
L 101.407153 121.3056 
L 101.781466 120.82176 
L 102.530093 120.82176 
L 102.779635 120.57984 
L 103.653033 120.57984 
L 104.276889 119.61216 
L 105.898914 119.61216 
L 106.148456 119.37024 
L 106.897083 119.37024 
L 107.146626 119.12832 
L 107.396168 119.12832 
L 107.64571 118.8864 
L 108.519108 118.8864 
L 108.768651 118.64448 
L 109.392506 118.64448 
L 109.642049 118.40256 
L 109.891591 118.40256 
L 110.141133 118.16064 
L 110.640218 118.16064 
L 110.88976 117.91872 
L 112.262243 117.91872 
L 112.511785 117.6768 
L 113.01087 117.6768 
L 113.385183 117.19296 
L 114.13381 117.19296 
L 114.383353 116.95104 
L 114.757666 116.95104 
L 115.13198 116.4672 
L 116.379691 116.4672 
L 116.629233 116.22528 
L 117.627403 116.22528 
L 117.876945 115.98336 
L 118.126487 115.98336 
L 118.37603 115.74144 
L 118.750343 115.74144 
L 118.999885 115.49952 
L 120.122826 115.49952 
L 120.497139 115.01568 
L 121.744851 115.01568 
L 121.994393 114.77376 
L 122.493478 114.77376 
L 122.74302 114.53184 
L 122.992562 114.53184 
L 123.242105 114.28992 
L 124.365045 114.28992 
L 124.614587 114.048 
L 125.113672 114.048 
L 125.487985 113.56416 
L 125.98707 113.56416 
L 126.361384 113.08032 
L 127.11001 113.08032 
L 127.359553 112.8384 
L 128.10818 112.8384 
L 128.357722 112.59648 
L 128.607264 112.59648 
L 128.856807 112.35456 
L 128.981578 112.35456 
L 129.23112 112.11264 
L 129.979747 112.11264 
L 130.229289 111.87072 
L 130.478832 111.87072 
L 130.728374 111.6288 
L 132.225628 111.6288 
L 132.47517 111.38688 
L 132.599941 111.38688 
L 132.849484 111.14496 
L 133.473339 111.14496 
L 133.722882 110.90304 
L 134.221966 110.90304 
L 134.471509 110.66112 
L 135.095364 110.66112 
L 135.344907 110.4192 
L 135.594449 110.4192 
L 135.843991 110.17728 
L 136.966932 110.17728 
L 137.216474 109.93536 
L 137.466016 109.93536 
L 137.84033 109.45152 
L 138.464186 109.45152 
L 138.713728 109.2096 
L 139.088041 109.2096 
L 139.462355 108.72576 
L 140.959609 108.72576 
L 141.209151 108.48384 
L 142.831176 108.48384 
L 143.205489 108 
L 144.453201 108 
L 144.702743 107.75808 
L 144.827514 107.75808 
L 145.077057 107.51616 
L 146.574311 107.51616 
L 146.823853 107.27424 
L 147.322938 107.27424 
L 147.57248 107.03232 
L 148.820191 107.03232 
L 149.069734 106.7904 
L 149.568818 106.7904 
L 149.818361 106.54848 
L 151.190843 106.54848 
L 151.315615 106.06464 
L 151.565157 106.06464 
L 151.814699 105.82272 
L 152.064241 105.82272 
L 152.313784 105.5808 
L 153.311953 105.5808 
L 153.561495 105.33888 
L 154.684436 105.33888 
L 154.933978 105.09696 
L 155.058749 105.09696 
L 155.308292 104.85504 
L 155.433063 104.85504 
L 155.682605 104.61312 
L 156.680774 104.61312 
L 156.930317 104.3712 
L 157.429401 104.3712 
L 157.678943 104.12928 
L 158.42757 104.12928 
L 158.677113 103.88736 
L 160.049595 103.88736 
L 160.299138 103.64544 
L 160.423909 103.64544 
L 160.673451 103.40352 
L 161.297307 103.40352 
L 161.546849 103.1616 
L 163.044103 103.1616 
L 163.168874 102.67776 
L 164.541357 102.67776 
L 164.790899 102.43584 
L 165.664297 102.43584 
L 165.91384 102.19392 
L 166.662467 102.19392 
L 167.03678 101.71008 
L 168.534034 101.71008 
L 168.783576 101.46816 
L 169.033119 101.46816 
L 169.407432 100.98432 
L 170.904686 100.98432 
L 171.154228 100.7424 
L 172.651482 100.7424 
L 172.901024 100.50048 
L 173.025796 100.50048 
L 173.275338 100.25856 
L 173.774422 100.25856 
L 174.023965 100.01664 
L 175.271676 100.01664 
L 175.64599 99.5328 
L 177.392786 99.5328 
L 177.767099 99.04896 
L 179.264353 99.04896 
L 179.513896 98.80704 
L 180.137751 98.80704 
L 180.387294 98.56512 
L 181.510234 98.56512 
L 181.759776 98.3232 
L 182.383632 98.3232 
L 182.757946 97.83936 
L 184.130428 97.83936 
L 184.379971 97.59744 
L 184.629513 97.59744 
L 184.879055 97.35552 
L 185.37814 97.35552 
L 185.627682 97.1136 
L 186.50108 97.1136 
L 186.750623 96.87168 
L 187.124936 96.87168 
L 187.374478 96.62976 
L 189.121275 96.62976 
L 189.370817 96.38784 
L 189.620359 96.38784 
L 189.869901 96.14592 
L 190.119444 96.14592 
L 190.493757 95.66208 
L 192.240553 95.66208 
L 192.490096 95.42016 
L 193.613036 95.42016 
L 193.862578 95.17824 
L 194.985519 95.17824 
L 195.11029 94.6944 
L 196.23323 94.6944 
L 196.482773 94.45248 
L 197.480942 94.45248 
L 197.730484 94.21056 
L 198.479111 94.21056 
L 198.728653 93.96864 
L 199.352509 93.96864 
L 199.602052 93.72672 
L 200.350678 93.72672 
L 200.600221 93.4848 
L 201.099305 93.4848 
L 201.348848 93.24288 
L 201.723161 93.24288 
L 201.972704 93.00096 
L 203.095644 93.00096 
L 203.345186 92.75904 
L 203.844271 92.75904 
L 203.969042 92.2752 
L 204.218584 92.2752 
L 204.468127 92.03328 
L 205.216754 92.03328 
L 205.466296 91.79136 
L 205.96538 91.79136 
L 206.214923 91.54944 
L 206.96355 91.54944 
L 207.213092 91.30752 
L 208.211261 91.30752 
L 208.460804 91.0656 
L 209.084659 91.0656 
L 209.334202 90.82368 
L 210.581913 90.82368 
L 210.831456 90.58176 
L 211.455311 90.58176 
L 211.704854 90.33984 
L 212.453481 90.33984 
L 212.703023 90.09792 
L 212.827794 90.09792 
L 213.077336 89.856 
L 213.950734 89.856 
L 214.325048 89.37216 
L 214.699361 89.37216 
L 214.948904 89.13024 
L 215.947073 89.13024 
L 216.196615 88.88832 
L 217.194784 88.88832 
L 217.444327 88.6464 
L 217.693869 88.6464 
L 218.068183 88.16256 
L 218.442496 88.16256 
L 218.692038 87.92064 
L 219.814979 87.92064 
L 220.064521 87.67872 
L 220.937919 87.67872 
L 221.187461 87.4368 
L 221.437004 87.4368 
L 221.686546 87.19488 
L 221.811317 87.19488 
L 222.060859 86.95296 
L 222.185631 86.95296 
L 222.559944 86.46912 
L 223.1838 86.46912 
L 223.558113 85.98528 
L 223.682884 85.98528 
L 224.057198 85.50144 
L 224.181969 85.50144 
L 224.431511 85.25952 
L 224.681054 85.25952 
L 224.930596 85.0176 
L 225.180138 85.0176 
L 225.554452 84.53376 
L 225.679223 84.53376 
L 226.053536 84.04992 
L 226.303079 84.04992 
L 226.677392 83.56608 
L 226.926935 83.56608 
L 227.176477 83.32416 
L 227.426019 83.32416 
L 227.800333 82.84032 
L 228.049875 82.84032 
L 228.174646 82.35648 
L 228.54896 82.35648 
L 228.798502 82.11456 
L 229.172815 82.11456 
L 229.422358 81.87264 
L 229.6719 81.87264 
L 230.170985 81.14688 
L 230.420527 81.14688 
L 231.044383 80.1792 
L 231.293925 80.1792 
L 231.79301 79.45344 
L 232.292094 79.45344 
L 232.666408 78.9696 
L 232.791179 78.9696 
L 233.040721 78.72768 
L 233.290263 78.72768 
L 233.539806 78.48576 
L 233.664577 78.48576 
L 233.914119 78.24384 
L 234.03889 78.24384 
L 234.288433 78.00192 
L 234.413204 78.00192 
L 234.662746 77.76 
L 234.787517 77.76 
L 235.03706 77.51808 
L 235.161831 77.51808 
L 235.411373 77.27616 
L 235.536144 77.27616 
L 235.785687 77.03424 
L 235.910458 77.03424 
L 236.16 76.79232 
L 236.409542 76.79232 
L 236.534313 76.30848 
L 236.908627 76.30848 
L 237.158169 76.06656 
L 237.532483 76.06656 
L 238.156338 75.09888 
L 238.655423 75.09888 
L 238.904965 74.85696 
L 239.279279 74.85696 
L 239.653592 74.37312 
L 239.903135 74.37312 
L 240.402219 73.64736 
L 240.776533 73.64736 
L 241.026075 73.40544 
L 241.275617 73.40544 
L 241.649931 72.9216 
L 242.149015 72.9216 
L 242.398558 72.67968 
L 242.6481 72.67968 
L 242.772871 72.19584 
L 243.147185 72.19584 
L 243.396727 71.95392 
L 243.646269 71.95392 
L 244.020583 71.47008 
L 244.270125 71.47008 
L 244.519667 71.22816 
L 244.893981 71.22816 
L 245.268294 70.74432 
L 245.642608 70.74432 
L 245.89215 70.5024 
L 246.391235 70.5024 
L 246.516006 70.01856 
L 246.765548 70.01856 
L 247.139862 69.53472 
L 247.638946 69.53472 
L 247.888489 69.2928 
L 248.01326 69.2928 
L 248.387573 68.80896 
L 248.637116 68.80896 
L 248.761887 68.32512 
L 249.260971 68.32512 
L 249.760056 67.59936 
L 250.009598 67.59936 
L 250.383912 67.11552 
L 251.007767 67.11552 
L 251.132539 66.63168 
L 251.382081 66.63168 
L 252.130708 65.42208 
L 252.505021 65.42208 
L 252.754564 64.69632 
L 253.004106 64.69632 
L 253.253648 64.4544 
L 253.378419 64.4544 
L 253.627962 64.21248 
L 253.877504 64.21248 
L 254.251817 63.72864 
L 254.750902 63.72864 
L 255.000444 63.48672 
L 255.125216 63.48672 
L 255.374758 63.2448 
L 255.6243 63.2448 
L 255.873842 62.51904 
L 255.998614 62.51904 
L 256.248156 62.27712 
L 256.372927 62.27712 
L 256.996783 61.30944 
L 257.121554 61.30944 
L 257.495868 60.8256 
L 258.369266 60.8256 
L 258.494037 60.34176 
L 258.86835 60.34176 
L 259.242664 59.85792 
L 259.367435 59.85792 
L 259.616977 59.616 
L 259.866519 59.616 
L 260.116062 59.37408 
L 260.240833 59.37408 
L 260.615146 58.89024 
L 260.98946 58.89024 
L 261.363773 58.4064 
L 261.488544 58.4064 
L 261.738087 58.16448 
L 262.1124 58.16448 
L 262.361943 57.92256 
L 262.736256 57.92256 
L 262.861027 57.43872 
L 263.235341 57.43872 
L 263.484883 57.1968 
L 263.609654 57.1968 
L 263.859196 56.95488 
L 264.108739 56.95488 
L 264.358281 56.71296 
L 264.607823 56.71296 
L 265.231679 55.74528 
L 266.105077 55.74528 
L 266.35462 55.50336 
L 266.728933 55.50336 
L 267.352789 54.53568 
L 267.47756 54.53568 
L 267.727102 53.80992 
L 267.976645 53.80992 
L 268.226187 53.568 
L 398.487273 53.568 
L 398.487273 53.568 
" clip-path="url(#p9764ae43a3)" style="fill: none; stroke: #ff0000; stroke-width: 0.5; stroke-linecap: square"/>
   </g>
   <g id="line2d_14">
    <path d="M 73.832727 295.488 
L 73.957498 295.488 
L 74.08227 294.52032 
L 74.456583 285.8112 
L 74.830897 271.53792 
L 75.20521 259.44192 
L 76.827235 200.65536 
L 77.950175 166.30272 
L 78.324489 159.77088 
L 78.574031 156.384 
L 79.322658 150.09408 
L 79.821743 145.98144 
L 80.071285 142.83648 
L 80.196056 142.59456 
L 80.57037 138.96576 
L 80.695141 138.72384 
L 80.944683 137.27232 
L 81.318997 134.85312 
L 81.443768 134.36928 
L 81.568539 133.4016 
L 81.69331 133.4016 
L 82.067624 128.07936 
L 82.441937 124.45056 
L 82.566708 123.96672 
L 82.81625 122.75712 
L 83.065793 120.82176 
L 83.190564 119.85408 
L 83.440106 116.95104 
L 83.564877 116.70912 
L 83.939191 114.77376 
L 84.313504 114.28992 
L 84.563047 114.28992 
L 84.93736 113.80608 
L 85.062131 113.80608 
L 85.685987 112.8384 
L 85.935529 112.8384 
L 86.434614 112.11264 
L 86.559385 112.11264 
L 86.684156 111.6288 
L 86.933699 111.6288 
L 87.308012 109.69344 
L 87.682325 109.2096 
L 87.807097 109.2096 
L 87.931868 108.96768 
L 88.18141 107.75808 
L 88.306181 107.75808 
L 88.930037 106.30656 
L 89.179579 105.5808 
L 89.429122 105.5808 
L 89.678664 105.33888 
L 89.803435 105.33888 
L 90.30252 103.64544 
L 90.427291 103.64544 
L 90.926376 102.91968 
L 91.051147 102.91968 
L 91.300689 102.67776 
L 91.675002 102.67776 
L 92.049316 102.19392 
L 92.174087 102.19392 
L 92.298858 101.71008 
L 92.423629 101.71008 
L 92.673172 101.46816 
L 93.047485 101.46816 
L 93.920883 100.01664 
L 94.295197 100.01664 
L 94.794281 99.29088 
L 95.043824 99.29088 
L 95.168595 98.80704 
L 95.293366 98.80704 
L 95.542908 98.08128 
L 95.792451 98.08128 
L 96.79062 96.38784 
L 97.040162 96.38784 
L 97.289704 96.14592 
L 97.788789 96.14592 
L 98.412645 95.17824 
L 98.537416 95.17824 
L 98.911729 94.6944 
L 99.161272 94.6944 
L 99.410814 93.96864 
L 99.660356 93.96864 
L 100.533754 92.51712 
L 100.783297 92.51712 
L 101.032839 91.79136 
L 101.15761 91.30752 
L 101.282381 91.30752 
L 101.531924 91.0656 
L 101.656695 91.0656 
L 102.031008 90.58176 
L 102.155779 90.58176 
L 102.405322 90.33984 
L 102.530093 90.33984 
L 102.779635 90.09792 
L 103.029178 90.09792 
L 103.27872 89.856 
L 103.528262 88.40448 
L 104.276889 87.19488 
L 105.150287 87.19488 
L 105.275058 86.46912 
L 105.649372 86.46912 
L 105.898914 85.74336 
L 106.772312 85.74336 
L 107.271397 85.0176 
L 108.144795 85.0176 
L 108.519108 84.53376 
L 108.64388 84.53376 
L 109.142964 83.808 
L 109.267735 83.808 
L 109.517278 83.56608 
L 110.016362 83.56608 
L 110.265905 83.32416 
L 110.515447 83.32416 
L 110.764989 83.08224 
L 111.388845 83.08224 
L 112.012701 82.11456 
L 112.387014 82.11456 
L 112.886099 81.3888 
L 113.884268 81.3888 
L 114.13381 81.14688 
L 114.632895 81.14688 
L 114.882437 80.90496 
L 115.381522 80.90496 
L 115.880607 80.1792 
L 116.130149 80.1792 
L 116.504462 79.69536 
L 116.629233 79.69536 
L 117.128318 78.9696 
L 117.37786 78.9696 
L 117.627403 78.72768 
L 118.625572 78.72768 
L 118.875114 78.48576 
L 119.124657 78.48576 
L 119.249428 78.00192 
L 119.49897 78.00192 
L 119.748512 77.76 
L 119.998055 77.76 
L 120.372368 77.27616 
L 120.497139 77.27616 
L 120.996224 76.5504 
L 121.370537 76.5504 
L 121.994393 75.58272 
L 122.243935 75.58272 
L 122.493478 75.3408 
L 122.618249 75.3408 
L 123.117334 74.61504 
L 123.491647 74.61504 
L 124.115503 73.64736 
L 124.739359 73.64736 
L 125.113672 72.67968 
L 125.238443 72.19584 
L 125.487985 72.19584 
L 126.236612 70.98624 
L 126.610926 70.98624 
L 127.359553 69.77664 
L 127.484324 69.77664 
L 127.858637 69.2928 
L 128.232951 69.2928 
L 128.732035 68.56704 
L 128.856807 68.56704 
L 129.106349 68.32512 
L 129.23112 68.32512 
L 129.854976 67.35744 
L 130.354061 67.35744 
L 131.102687 66.14784 
L 131.601772 66.14784 
L 131.726543 65.664 
L 131.976086 65.664 
L 132.47517 64.93824 
L 132.599941 64.93824 
L 132.849484 64.69632 
L 133.223797 64.69632 
L 133.348568 64.21248 
L 133.722882 64.21248 
L 133.847653 63.72864 
L 134.221966 63.72864 
L 135.095364 62.27712 
L 135.220136 62.27712 
L 135.594449 61.79328 
L 135.71922 61.79328 
L 136.093534 61.30944 
L 136.467847 61.30944 
L 136.717389 61.06752 
L 137.091703 61.06752 
L 137.715559 60.09984 
L 138.214643 60.09984 
L 138.464186 59.37408 
L 139.212813 58.16448 
L 139.711897 58.16448 
L 139.961439 57.68064 
L 140.086211 56.95488 
L 140.335753 56.95488 
L 141.458693 55.01952 
L 141.833007 55.01952 
L 142.082549 54.29376 
L 142.581634 54.29376 
L 142.706405 53.568 
L 398.487273 53.568 
L 398.487273 53.568 
" clip-path="url(#p9764ae43a3)" style="fill: none; stroke-dasharray: 1.85,0.8; stroke-dashoffset: 0; stroke: #008000; stroke-width: 0.5"/>
   </g>
   <g id="line2d_15">
    <path d="M 73.832727 295.488 
L 73.957498 295.488 
L 74.581354 294.03648 
L 75.20521 291.61728 
L 75.329981 291.61728 
L 75.829066 290.89152 
L 75.953837 290.89152 
L 76.32815 289.68192 
L 76.827235 288.47232 
L 78.44926 282.42432 
L 78.574031 282.42432 
L 78.823573 281.94048 
L 79.073116 280.9728 
L 79.322658 280.24704 
L 79.696972 276.86016 
L 81.069454 269.36064 
L 81.194225 269.36064 
L 81.318997 268.63488 
L 81.443768 268.63488 
L 81.818081 267.90912 
L 82.067624 266.69952 
L 82.317166 266.4576 
L 82.441937 266.4576 
L 82.566708 266.21568 
L 82.941022 264.28032 
L 83.81442 262.58688 
L 84.063962 260.16768 
L 84.563047 258.47424 
L 85.186902 257.02272 
L 85.810758 253.63584 
L 86.0603 253.63584 
L 86.309843 252.91008 
L 86.559385 251.9424 
L 86.808927 251.9424 
L 87.308012 250.7328 
L 87.432783 250.24896 
L 87.557554 250.24896 
L 88.18141 248.07168 
L 88.430952 247.58784 
L 88.680495 246.13632 
L 89.054808 244.92672 
L 89.429122 244.44288 
L 89.553893 244.44288 
L 90.052977 242.74944 
L 90.926376 241.056 
L 91.799774 235.008 
L 92.174087 234.04032 
L 92.673172 232.34688 
L 93.172256 231.13728 
L 93.671341 228.47616 
L 94.419968 226.78272 
L 94.66951 225.57312 
L 94.794281 225.57312 
L 95.168595 224.60544 
L 95.917222 221.7024 
L 96.041993 221.7024 
L 96.915391 219.76704 
L 97.164933 218.31552 
L 97.289704 218.31552 
L 98.163103 216.38016 
L 98.412645 215.6544 
L 98.537416 215.6544 
L 100.408983 211.78368 
L 100.783297 210.57408 
L 100.908068 210.57408 
L 101.656695 208.88064 
L 101.906237 208.15488 
L 102.031008 208.15488 
L 102.280551 207.91296 
L 102.530093 207.91296 
L 102.779635 207.1872 
L 103.528262 205.49376 
L 103.902576 204.04224 
L 104.027347 204.04224 
L 104.775974 202.83264 
L 104.900745 202.83264 
L 106.397999 199.68768 
L 106.647541 198.96192 
L 106.897083 198.23616 
L 107.146626 197.02656 
L 107.271397 197.02656 
L 107.520939 195.81696 
L 108.144795 194.84928 
L 108.269566 194.84928 
L 108.519108 194.12352 
L 108.64388 193.8816 
L 108.893422 192.91392 
L 109.392506 192.18816 
L 109.517278 192.18816 
L 109.642049 191.94624 
L 109.76682 191.22048 
L 109.891591 191.22048 
L 110.016362 190.73664 
L 110.141133 190.73664 
L 111.264074 188.31744 
L 111.763158 186.624 
L 111.88793 186.624 
L 112.387014 184.93056 
L 112.511785 184.93056 
L 112.636556 184.2048 
L 112.761328 184.2048 
L 113.135641 182.9952 
L 113.260412 182.9952 
L 113.509955 182.26944 
L 113.634726 181.54368 
L 114.009039 181.54368 
L 114.258582 180.81792 
L 114.383353 180.576 
L 114.757666 178.64064 
L 115.880607 176.22144 
L 116.130149 175.25376 
L 116.25492 175.01184 
L 116.504462 173.80224 
L 116.629233 173.80224 
L 117.003547 172.1088 
L 117.627403 170.65728 
L 118.251258 168.23808 
L 118.500801 168.23808 
L 118.750343 167.51232 
L 118.875114 167.02848 
L 119.374199 167.02848 
L 119.623741 166.0608 
L 119.748512 166.0608 
L 120.247597 164.36736 
L 120.372368 164.36736 
L 120.996224 160.98048 
L 121.495309 160.25472 
L 121.744851 160.25472 
L 121.994393 159.52896 
L 122.243935 159.52896 
L 122.867791 158.31936 
L 122.992562 157.35168 
L 123.117334 157.35168 
L 123.242105 157.10976 
L 123.366876 156.384 
L 123.990732 156.384 
L 124.240274 156.14208 
L 124.489816 156.14208 
L 124.86413 154.69056 
L 125.363214 154.69056 
L 125.612757 154.44864 
L 125.862299 154.44864 
L 126.486155 153.48096 
L 126.610926 153.48096 
L 126.985239 152.99712 
L 127.11001 152.99712 
L 127.484324 152.51328 
L 127.733866 152.51328 
L 127.858637 152.02944 
L 128.232951 152.02944 
L 128.732035 151.30368 
L 129.106349 151.30368 
L 129.480662 150.81984 
L 129.605434 150.81984 
L 131.601772 147.19104 
L 131.726543 147.19104 
L 132.47517 145.98144 
L 132.599941 145.98144 
L 132.974255 145.4976 
L 133.598111 145.4976 
L 133.722882 145.01376 
L 134.097195 145.01376 
L 134.221966 144.52992 
L 134.845822 144.52992 
L 135.220136 144.04608 
L 135.344907 144.04608 
L 135.594449 143.80416 
L 135.968762 143.80416 
L 136.343076 143.32032 
L 136.467847 143.32032 
L 136.717389 143.0784 
L 136.842161 143.0784 
L 137.091703 142.83648 
L 137.216474 142.83648 
L 137.590788 142.35264 
L 137.715559 142.35264 
L 137.965101 142.11072 
L 138.089872 142.11072 
L 138.713728 141.14304 
L 139.587126 141.14304 
L 139.711897 140.6592 
L 140.460524 140.6592 
L 140.834838 140.17536 
L 141.333922 140.17536 
L 141.583464 139.93344 
L 142.456863 139.93344 
L 142.831176 139.4496 
L 142.955947 139.4496 
L 143.205489 139.20768 
L 143.829345 139.20768 
L 143.954116 138.72384 
L 144.078888 138.72384 
L 144.32843 138.48192 
L 144.827514 138.48192 
L 145.077057 138.24 
L 145.201828 138.24 
L 145.45137 137.99808 
L 145.700913 137.99808 
L 145.950455 137.75616 
L 146.324768 137.75616 
L 146.574311 137.51424 
L 147.073395 137.51424 
L 147.57248 136.78848 
L 147.697251 136.78848 
L 148.071565 136.30464 
L 148.321107 136.30464 
L 148.445878 135.57888 
L 148.69542 135.57888 
L 148.944963 135.33696 
L 149.069734 135.33696 
L 149.319276 135.09504 
L 149.943132 135.09504 
L 150.192674 134.85312 
L 150.81653 134.85312 
L 151.440386 133.88544 
L 151.93947 133.88544 
L 152.189013 133.64352 
L 152.688097 133.64352 
L 153.187182 132.91776 
L 153.561495 132.91776 
L 153.811038 132.67584 
L 153.935809 132.67584 
L 154.434893 131.95008 
L 154.684436 131.95008 
L 154.933978 131.70816 
L 155.308292 131.70816 
L 156.056918 130.49856 
L 156.306461 130.49856 
L 156.556003 130.25664 
L 156.680774 130.25664 
L 157.179859 129.53088 
L 157.30463 129.53088 
L 157.803715 128.80512 
L 157.928486 128.80512 
L 158.302799 127.59552 
L 159.051426 127.59552 
L 159.300968 127.3536 
L 159.42574 127.3536 
L 159.550511 126.86976 
L 159.800053 126.86976 
L 160.049595 126.62784 
L 160.174367 126.62784 
L 160.673451 125.90208 
L 161.546849 125.90208 
L 161.796392 125.66016 
L 162.295476 125.66016 
L 163.168874 124.20864 
L 163.418417 124.20864 
L 163.79273 123.7248 
L 164.416586 123.7248 
L 164.666128 122.99904 
L 164.790899 122.5152 
L 165.539526 122.5152 
L 165.789069 122.27328 
L 166.662467 122.27328 
L 167.161551 121.54752 
L 167.286322 121.54752 
L 167.785407 120.82176 
L 168.284492 120.82176 
L 168.908347 119.85408 
L 169.407432 119.85408 
L 169.781746 119.37024 
L 169.906517 119.37024 
L 170.156059 119.12832 
L 170.904686 119.12832 
L 171.154228 118.8864 
L 171.278999 118.8864 
L 171.902855 117.91872 
L 172.526711 117.91872 
L 173.025796 117.19296 
L 173.52488 117.19296 
L 174.148736 116.22528 
L 174.398278 116.22528 
L 174.647821 115.98336 
L 175.022134 115.98336 
L 175.271676 115.74144 
L 176.145074 115.74144 
L 176.644159 115.01568 
L 176.76893 115.01568 
L 177.018473 114.77376 
L 177.143244 114.77376 
L 177.517557 114.28992 
L 177.767099 114.28992 
L 178.016642 114.048 
L 178.266184 114.048 
L 178.515726 113.32224 
L 178.765269 113.32224 
L 179.139582 112.35456 
L 179.264353 111.6288 
L 179.389124 111.6288 
L 179.513896 111.14496 
L 179.638667 111.14496 
L 179.888209 110.90304 
L 180.01298 110.90304 
L 180.262523 110.66112 
L 180.387294 110.66112 
L 180.886378 109.93536 
L 181.011149 109.93536 
L 181.759776 108.72576 
L 181.884548 108.72576 
L 182.13409 108.48384 
L 182.383632 108.48384 
L 182.633174 108.24192 
L 182.757946 108.24192 
L 183.25703 107.51616 
L 183.631344 107.51616 
L 183.880886 106.54848 
L 185.003826 106.54848 
L 185.37814 106.06464 
L 185.502911 106.06464 
L 186.126767 105.09696 
L 186.376309 105.09696 
L 186.875394 104.3712 
L 187.000165 104.3712 
L 187.49925 103.64544 
L 187.624021 103.64544 
L 188.247876 102.67776 
L 189.246046 102.67776 
L 189.370817 102.19392 
L 189.620359 102.19392 
L 189.994673 101.71008 
L 190.7433 101.71008 
L 191.491926 100.50048 
L 191.86624 100.50048 
L 192.490096 99.5328 
L 192.739638 99.5328 
L 192.98918 99.29088 
L 193.238723 99.29088 
L 193.488265 99.04896 
L 193.613036 99.04896 
L 193.862578 98.80704 
L 194.361663 98.80704 
L 194.486434 98.3232 
L 194.735977 98.3232 
L 194.985519 98.08128 
L 195.11029 98.08128 
L 195.235061 97.59744 
L 195.734146 97.59744 
L 195.858917 97.1136 
L 196.108459 97.1136 
L 196.358002 96.87168 
L 196.857086 96.87168 
L 197.855255 95.17824 
L 198.104798 95.17824 
L 198.35434 94.93632 
L 199.352509 94.93632 
L 199.726823 94.45248 
L 199.851594 94.45248 
L 200.101136 94.21056 
L 200.350678 94.21056 
L 200.849763 93.4848 
L 201.348848 93.4848 
L 201.59839 93.24288 
L 202.222246 93.24288 
L 202.471788 93.00096 
L 202.846102 93.00096 
L 203.095644 92.75904 
L 203.469957 92.75904 
L 203.7195 92.51712 
L 204.717669 92.51712 
L 204.967211 92.2752 
L 206.090152 92.2752 
L 206.339694 92.03328 
L 207.088321 92.03328 
L 207.337863 91.79136 
L 207.462634 91.79136 
L 207.836948 91.30752 
L 209.583744 91.30752 
L 209.833286 91.0656 
L 210.082829 91.0656 
L 210.332371 90.82368 
L 211.080998 90.82368 
L 211.33054 90.58176 
L 212.453481 90.58176 
L 212.703023 90.33984 
L 213.825963 90.33984 
L 214.325048 89.61408 
L 214.948904 89.61408 
L 215.198446 89.37216 
L 215.947073 89.37216 
L 216.196615 89.13024 
L 216.6957 89.13024 
L 216.945242 88.88832 
L 217.693869 88.88832 
L 217.943411 88.6464 
L 218.317725 88.6464 
L 218.567267 88.40448 
L 218.941581 88.40448 
L 219.191123 88.16256 
L 219.440665 88.16256 
L 219.690208 87.92064 
L 221.686546 87.92064 
L 221.936088 87.67872 
L 222.809486 87.67872 
L 222.934258 87.19488 
L 223.1838 87.19488 
L 223.558113 86.71104 
L 223.932427 86.71104 
L 224.181969 86.46912 
L 228.424188 86.46912 
L 228.673731 86.2272 
L 229.796671 86.2272 
L 230.046213 85.98528 
L 230.295756 85.98528 
L 230.545298 85.74336 
L 233.539806 85.74336 
L 233.789348 85.50144 
L 234.03889 85.50144 
L 234.413204 85.0176 
L 235.03706 85.0176 
L 235.286602 84.77568 
L 237.28294 84.77568 
L 237.532483 84.53376 
L 240.152677 84.53376 
L 240.402219 84.29184 
L 241.026075 84.29184 
L 241.275617 84.04992 
L 241.400389 84.04992 
L 241.649931 83.808 
L 244.270125 83.808 
L 244.519667 83.56608 
L 245.268294 83.56608 
L 245.767379 82.84032 
L 246.141692 82.84032 
L 246.391235 82.5984 
L 249.510514 82.5984 
L 249.635285 82.11456 
L 250.383912 82.11456 
L 250.633454 81.87264 
L 251.382081 81.87264 
L 251.631623 81.63072 
L 252.005937 81.63072 
L 252.255479 81.3888 
L 253.253648 81.3888 
L 253.378419 80.90496 
L 253.503191 80.90496 
L 253.752733 80.66304 
L 254.750902 80.66304 
L 255.000444 80.42112 
L 258.119723 80.42112 
L 258.494037 79.93728 
L 258.618808 79.93728 
L 258.86835 79.69536 
L 262.985798 79.69536 
L 263.235341 79.45344 
L 264.607823 79.45344 
L 264.857366 79.21152 
L 265.106908 79.21152 
L 265.35645 78.9696 
L 267.228018 78.9696 
L 267.352789 78.48576 
L 269.099585 78.48576 
L 269.349127 78.24384 
L 270.347296 78.24384 
L 270.596839 78.00192 
L 271.470237 78.00192 
L 271.719779 77.76 
L 272.343635 77.76 
L 272.593177 77.51808 
L 272.967491 77.51808 
L 273.217033 77.27616 
L 273.840889 77.27616 
L 274.090431 77.03424 
L 275.338143 77.03424 
L 275.587685 76.79232 
L 275.712456 76.79232 
L 275.961998 76.5504 
L 277.833566 76.5504 
L 278.083108 76.30848 
L 278.33265 76.30848 
L 278.582193 76.06656 
L 279.954675 76.06656 
L 280.204218 75.82464 
L 281.202387 75.82464 
L 281.451929 75.58272 
L 281.951014 75.58272 
L 282.200556 75.3408 
L 282.57487 75.3408 
L 282.824412 75.09888 
L 286.193233 75.09888 
L 286.442775 74.85696 
L 286.692318 74.85696 
L 286.94186 74.61504 
L 289.811597 74.61504 
L 290.310681 73.88928 
L 290.684995 73.88928 
L 290.934537 73.64736 
L 292.182249 73.64736 
L 292.30702 73.16352 
L 293.305189 73.16352 
L 293.679502 72.67968 
L 294.552901 72.67968 
L 294.927214 72.19584 
L 295.176756 72.19584 
L 295.426299 71.95392 
L 297.173095 71.95392 
L 297.422637 71.712 
L 298.420806 71.712 
L 298.670349 71.47008 
L 298.919891 71.47008 
L 299.169433 71.22816 
L 299.294204 71.22816 
L 299.543747 70.98624 
L 299.91806 70.98624 
L 300.167603 70.74432 
L 301.041001 70.74432 
L 301.290543 70.5024 
L 301.415314 70.5024 
L 301.664856 70.26048 
L 301.789628 70.26048 
L 302.163941 69.77664 
L 302.787797 69.77664 
L 303.037339 69.53472 
L 304.285051 69.53472 
L 304.409822 69.05088 
L 305.033678 69.05088 
L 305.28322 68.80896 
L 309.026355 68.80896 
L 309.275897 68.56704 
L 309.400668 68.56704 
L 309.774981 68.0832 
L 311.272235 68.0832 
L 311.397006 67.59936 
L 314.391514 67.59936 
L 314.765828 67.11552 
L 315.389683 67.11552 
L 315.639226 66.8736 
L 316.13831 66.8736 
L 316.263082 66.38976 
L 316.387853 66.38976 
L 316.512624 65.90592 
L 318.508962 65.90592 
L 318.758505 65.664 
L 320.130987 65.664 
L 320.38053 65.42208 
L 323.250266 65.42208 
L 323.499809 65.18016 
L 323.998893 65.18016 
L 324.248435 64.93824 
L 324.497978 64.93824 
L 324.74752 64.69632 
L 326.494316 64.69632 
L 326.993401 63.97056 
L 328.740197 63.97056 
L 328.989739 63.72864 
L 330.861307 63.72864 
L 331.110849 63.48672 
L 331.734705 63.48672 
L 331.984247 63.2448 
L 332.608103 63.2448 
L 332.857645 63.00288 
L 334.354899 63.00288 
L 334.604441 62.76096 
L 336.975093 62.76096 
L 337.099864 62.27712 
L 337.349407 62.27712 
L 337.598949 62.0352 
L 338.222805 62.0352 
L 338.472347 61.79328 
L 339.470516 61.79328 
L 339.84483 61.30944 
L 340.718228 61.30944 
L 340.96777 61.06752 
L 343.213651 61.06752 
L 343.463193 60.8256 
L 344.21182 60.8256 
L 344.461363 60.58368 
L 345.459532 60.58368 
L 345.709074 60.34176 
L 346.083388 60.34176 
L 346.33293 60.09984 
L 348.953124 60.09984 
L 349.202666 59.85792 
L 350.824691 59.85792 
L 351.074234 59.616 
L 353.070572 59.616 
L 353.195343 59.13216 
L 353.444886 59.13216 
L 353.694428 58.89024 
L 354.318284 58.89024 
L 354.567826 58.64832 
L 355.690767 58.64832 
L 355.940309 58.4064 
L 357.687105 58.4064 
L 357.936647 58.16448 
L 358.061418 58.16448 
L 358.310961 57.92256 
L 359.558672 57.92256 
L 359.808215 57.68064 
L 362.428409 57.68064 
L 362.677951 57.43872 
L 363.301807 57.43872 
L 363.551349 57.1968 
L 364.799061 57.1968 
L 365.048603 56.95488 
L 366.046772 56.95488 
L 366.296315 56.71296 
L 367.793569 56.71296 
L 368.043111 56.47104 
L 372.160559 56.47104 
L 372.410101 56.22912 
L 377.775261 56.22912 
L 378.024803 55.9872 
L 378.523888 55.9872 
L 378.77343 55.74528 
L 381.019311 55.74528 
L 381.268853 55.50336 
L 383.265192 55.50336 
L 383.514734 55.26144 
L 385.635844 55.26144 
L 385.885386 55.01952 
L 387.133098 55.01952 
L 387.38264 54.7776 
L 389.378978 54.7776 
L 389.628521 54.53568 
L 390.377148 54.53568 
L 390.62669 54.29376 
L 393.246884 54.29376 
L 393.496427 54.05184 
L 397.863417 54.05184 
L 398.112959 53.80992 
L 398.362502 53.80992 
L 398.487273 53.568 
L 398.487273 53.568 
" clip-path="url(#p9764ae43a3)" style="fill: none; stroke-dasharray: 1.85,0.8; stroke-dashoffset: 0; stroke: #0000ff; stroke-width: 0.5"/>
   </g>
   <g id="line2d_16">
    <path d="M 73.832727 295.488 
L 73.957498 295.488 
L 74.207041 292.34304 
L 74.331812 289.68192 
L 74.830897 257.26464 
L 75.704295 194.12352 
L 76.577693 153.72288 
L 77.32632 134.85312 
L 77.700633 131.22432 
L 77.825404 130.74048 
L 77.950175 130.74048 
L 78.574031 129.7728 
L 79.447429 129.7728 
L 79.5722 129.28896 
L 79.696972 129.28896 
L 79.946514 129.04704 
L 80.695141 129.04704 
L 80.944683 128.80512 
L 82.067624 128.80512 
L 82.441937 128.32128 
L 83.190564 128.32128 
L 83.440106 128.07936 
L 83.689649 128.07936 
L 83.939191 127.83744 
L 85.186902 127.83744 
L 85.685987 127.11168 
L 86.0603 127.11168 
L 86.309843 126.86976 
L 86.559385 126.86976 
L 86.933699 126.38592 
L 87.682325 126.38592 
L 87.931868 126.144 
L 89.054808 126.144 
L 89.30435 125.90208 
L 89.553893 125.90208 
L 89.803435 125.66016 
L 89.928206 125.66016 
L 90.177749 125.41824 
L 91.42546 125.41824 
L 91.550231 124.9344 
L 92.049316 124.9344 
L 92.298858 124.69248 
L 93.297027 124.69248 
L 93.54657 124.45056 
L 94.419968 124.45056 
L 94.794281 123.96672 
L 95.293366 123.96672 
L 95.542908 123.7248 
L 96.041993 123.7248 
L 96.166764 123.24096 
L 97.164933 123.24096 
L 97.414476 122.99904 
L 97.664018 122.99904 
L 97.91356 122.75712 
L 98.038331 122.75712 
L 98.287874 122.5152 
L 99.286043 122.5152 
L 99.410814 122.03136 
L 100.284212 122.03136 
L 100.533754 121.78944 
L 101.032839 121.78944 
L 101.282381 121.54752 
L 101.781466 121.54752 
L 102.031008 121.3056 
L 102.155779 121.3056 
L 102.405322 121.06368 
L 103.153949 121.06368 
L 103.403491 120.82176 
L 103.653033 120.82176 
L 103.902576 120.57984 
L 104.152118 120.57984 
L 104.40166 120.33792 
L 104.526431 120.33792 
L 104.775974 120.096 
L 105.025516 120.096 
L 105.275058 119.85408 
L 105.774143 119.85408 
L 106.148456 119.37024 
L 107.64571 119.37024 
L 107.895253 119.12832 
L 108.64388 119.12832 
L 108.893422 118.8864 
L 109.642049 118.8864 
L 109.891591 118.64448 
L 110.016362 118.64448 
L 110.265905 118.40256 
L 111.264074 118.40256 
L 111.513616 118.16064 
L 111.638387 118.16064 
L 111.88793 117.91872 
L 112.761328 117.91872 
L 113.01087 117.6768 
L 113.135641 117.6768 
L 113.385183 117.43488 
L 114.009039 117.43488 
L 114.258582 117.19296 
L 115.381522 117.19296 
L 115.631064 116.95104 
L 116.379691 116.95104 
L 116.629233 116.70912 
L 116.878776 116.70912 
L 117.128318 116.4672 
L 118.001716 116.4672 
L 118.251258 116.22528 
L 118.875114 116.22528 
L 119.124657 115.98336 
L 120.247597 115.98336 
L 120.62191 115.49952 
L 121.994393 115.49952 
L 122.368707 115.01568 
L 122.867791 115.01568 
L 123.117334 114.77376 
L 124.365045 114.77376 
L 124.614587 114.53184 
L 125.113672 114.53184 
L 125.363214 114.28992 
L 126.236612 114.28992 
L 126.486155 114.048 
L 126.985239 114.048 
L 127.234782 113.80608 
L 127.609095 113.80608 
L 127.858637 113.56416 
L 128.357722 113.56416 
L 128.732035 113.08032 
L 129.480662 113.08032 
L 129.730205 112.8384 
L 129.854976 112.8384 
L 130.104518 112.59648 
L 131.102687 112.59648 
L 131.477001 112.11264 
L 132.599941 112.11264 
L 132.849484 111.87072 
L 132.974255 111.87072 
L 133.223797 111.6288 
L 134.221966 111.6288 
L 134.471509 111.38688 
L 135.469678 111.38688 
L 135.71922 111.14496 
L 136.467847 111.14496 
L 136.717389 110.90304 
L 137.341245 110.90304 
L 137.715559 110.4192 
L 139.088041 110.4192 
L 139.337584 110.17728 
L 139.711897 110.17728 
L 139.961439 109.93536 
L 140.335753 109.93536 
L 140.585295 109.69344 
L 141.708236 109.69344 
L 142.082549 109.2096 
L 142.955947 109.2096 
L 143.205489 108.96768 
L 144.577972 108.96768 
L 144.827514 108.72576 
L 145.950455 108.72576 
L 146.199997 108.48384 
L 146.948624 108.48384 
L 147.198166 108.24192 
L 148.570649 108.24192 
L 148.820191 108 
L 149.069734 108 
L 149.319276 107.75808 
L 150.317445 107.75808 
L 150.566988 107.51616 
L 150.81653 107.51616 
L 151.066072 107.27424 
L 151.190843 107.27424 
L 151.440386 107.03232 
L 152.438555 107.03232 
L 152.688097 106.7904 
L 153.311953 106.7904 
L 153.561495 106.54848 
L 154.809207 106.54848 
L 155.058749 106.30656 
L 155.682605 106.30656 
L 156.18169 105.5808 
L 157.803715 105.5808 
L 158.053257 105.33888 
L 159.051426 105.33888 
L 159.550511 104.61312 
L 160.922994 104.61312 
L 161.297307 104.12928 
L 162.66979 104.12928 
L 163.044103 103.64544 
L 163.667959 103.64544 
L 163.917501 103.40352 
L 164.790899 103.40352 
L 165.040442 103.1616 
L 166.163382 103.1616 
L 166.412924 102.91968 
L 167.161551 102.91968 
L 167.411094 102.67776 
L 168.15972 102.67776 
L 168.409263 102.43584 
L 168.783576 102.43584 
L 168.908347 101.952 
L 169.656974 101.952 
L 169.906517 101.71008 
L 170.655144 101.71008 
L 170.904686 101.46816 
L 171.403771 101.46816 
L 171.653313 101.22624 
L 172.40194 101.22624 
L 172.776253 100.7424 
L 173.400109 100.7424 
L 173.649651 100.50048 
L 174.772592 100.50048 
L 175.022134 100.25856 
L 175.396447 100.25856 
L 175.64599 100.01664 
L 176.394617 100.01664 
L 176.644159 99.77472 
L 177.143244 99.77472 
L 177.392786 99.5328 
L 177.642328 99.5328 
L 177.891871 99.29088 
L 179.014811 99.29088 
L 179.389124 98.80704 
L 181.011149 98.80704 
L 181.385463 98.3232 
L 181.759776 98.3232 
L 182.009319 98.08128 
L 182.508403 98.08128 
L 182.757946 97.83936 
L 183.506573 97.83936 
L 183.756115 97.59744 
L 183.880886 97.59744 
L 184.130428 97.35552 
L 184.379971 97.35552 
L 184.629513 97.1136 
L 185.003826 97.1136 
L 185.253369 96.87168 
L 185.37814 96.87168 
L 185.627682 96.62976 
L 186.625851 96.62976 
L 186.875394 96.38784 
L 187.873563 96.38784 
L 188.247876 95.904 
L 188.871732 95.904 
L 189.121275 95.66208 
L 189.869901 95.66208 
L 190.119444 95.42016 
L 191.367155 95.42016 
L 191.616698 95.17824 
L 192.115782 95.17824 
L 192.365325 94.93632 
L 193.737807 94.93632 
L 193.98735 94.6944 
L 194.985519 94.6944 
L 195.235061 94.45248 
L 196.108459 94.45248 
L 196.358002 94.21056 
L 197.605713 94.21056 
L 197.855255 93.96864 
L 198.853425 93.96864 
L 199.102967 93.72672 
L 200.47545 93.72672 
L 200.724992 93.4848 
L 202.097475 93.4848 
L 202.347017 93.24288 
L 202.970873 93.24288 
L 203.345186 92.75904 
L 204.093813 92.75904 
L 204.343355 92.51712 
L 205.96538 92.51712 
L 206.090152 92.03328 
L 207.587405 92.03328 
L 207.836948 91.79136 
L 208.959888 91.79136 
L 209.209431 91.54944 
L 210.831456 91.54944 
L 211.080998 91.30752 
L 211.205769 91.30752 
L 211.580082 90.82368 
L 212.827794 90.82368 
L 213.077336 90.58176 
L 213.701192 90.58176 
L 213.950734 90.33984 
L 214.57459 90.33984 
L 214.824132 90.09792 
L 216.321386 90.09792 
L 216.570929 89.856 
L 216.945242 89.856 
L 217.194784 89.61408 
L 217.569098 89.61408 
L 217.81864 89.37216 
L 217.943411 89.37216 
L 218.192954 89.13024 
L 219.565436 89.13024 
L 219.814979 88.88832 
L 220.189292 88.88832 
L 220.563606 88.40448 
L 221.312233 88.40448 
L 221.561775 88.16256 
L 221.811317 88.16256 
L 222.060859 87.92064 
L 222.559944 87.92064 
L 222.934258 87.4368 
L 223.433342 87.4368 
L 223.807656 86.95296 
L 224.057198 86.95296 
L 224.30674 86.71104 
L 224.681054 86.71104 
L 225.055367 86.2272 
L 225.180138 86.2272 
L 225.679223 85.50144 
L 226.053536 85.50144 
L 226.552621 84.77568 
L 226.677392 84.77568 
L 227.051706 84.29184 
L 227.301248 84.29184 
L 227.675561 83.808 
L 228.049875 83.808 
L 228.299417 83.56608 
L 228.424188 83.56608 
L 228.673731 83.32416 
L 228.798502 83.32416 
L 229.048044 83.08224 
L 229.422358 83.08224 
L 229.796671 82.5984 
L 230.046213 82.5984 
L 230.545298 81.87264 
L 230.919611 81.87264 
L 231.044383 81.3888 
L 231.169154 81.3888 
L 231.543467 80.90496 
L 231.79301 80.90496 
L 232.292094 80.1792 
L 232.91595 80.1792 
L 233.165492 79.93728 
L 233.415035 79.93728 
L 233.664577 79.69536 
L 233.789348 79.69536 
L 234.03889 78.9696 
L 234.537975 78.9696 
L 234.787517 78.72768 
L 234.912288 78.72768 
L 235.286602 78.24384 
L 235.910458 78.24384 
L 236.284771 77.76 
L 236.409542 77.76 
L 236.659085 77.51808 
L 236.783856 77.51808 
L 237.158169 77.03424 
L 237.28294 77.03424 
L 237.532483 76.79232 
L 237.906796 76.79232 
L 238.405881 76.06656 
L 238.530652 76.06656 
L 238.780194 75.82464 
L 238.904965 75.82464 
L 239.279279 75.3408 
L 239.778363 75.3408 
L 240.027906 75.09888 
L 240.277448 75.09888 
L 240.776533 74.37312 
L 241.150846 74.37312 
L 241.275617 73.88928 
L 241.52516 73.88928 
L 241.774702 73.64736 
L 242.273787 73.64736 
L 242.6481 73.16352 
L 243.022414 73.16352 
L 243.147185 72.67968 
L 243.521498 72.67968 
L 243.77104 72.43776 
L 244.145354 72.43776 
L 244.519667 71.95392 
L 244.76921 71.95392 
L 245.143523 71.47008 
L 245.517837 71.47008 
L 245.767379 71.22816 
L 246.516006 71.22816 
L 246.890319 70.74432 
L 247.01509 70.74432 
L 247.638946 69.77664 
L 248.01326 69.77664 
L 248.262802 69.53472 
L 248.512344 69.53472 
L 248.761887 69.2928 
L 249.1362 69.2928 
L 249.260971 68.80896 
L 249.760056 68.80896 
L 250.383912 67.84128 
L 250.633454 67.84128 
L 251.007767 67.35744 
L 251.382081 67.35744 
L 251.631623 67.11552 
L 251.756394 67.11552 
L 252.255479 66.38976 
L 252.38025 66.38976 
L 252.754564 65.90592 
L 252.879335 65.90592 
L 253.253648 65.42208 
L 253.627962 65.42208 
L 253.877504 65.18016 
L 254.002275 65.18016 
L 254.251817 64.93824 
L 254.376589 64.93824 
L 254.750902 64.4544 
L 255.000444 64.4544 
L 255.249987 64.21248 
L 255.374758 64.21248 
L 255.6243 63.97056 
L 256.248156 63.97056 
L 256.372927 63.72864 
L 256.497698 62.76096 
L 256.747241 62.76096 
L 257.121554 62.27712 
L 257.246325 62.27712 
L 257.620639 61.79328 
L 257.994952 61.79328 
L 258.369266 61.30944 
L 258.494037 61.30944 
L 258.743579 61.06752 
L 259.117893 61.06752 
L 259.242664 60.58368 
L 259.741748 60.58368 
L 260.116062 60.09984 
L 260.240833 60.09984 
L 260.490375 59.85792 
L 260.615146 59.85792 
L 260.864689 59.616 
L 260.98946 59.616 
L 261.363773 59.13216 
L 261.862858 59.13216 
L 262.1124 58.89024 
L 262.237171 58.89024 
L 262.611485 58.4064 
L 262.861027 58.4064 
L 263.110569 58.16448 
L 263.484883 58.16448 
L 263.734425 57.92256 
L 263.859196 57.92256 
L 264.23351 57.43872 
L 264.732595 57.43872 
L 264.982137 57.1968 
L 265.231679 57.1968 
L 265.730764 56.47104 
L 265.980306 56.47104 
L 266.229848 56.22912 
L 266.853704 56.22912 
L 266.978475 55.74528 
L 267.47756 55.74528 
L 267.602331 55.26144 
L 267.976645 55.26144 
L 268.226187 55.01952 
L 268.350958 55.01952 
L 268.475729 54.7776 
L 268.6005 54.05184 
L 268.850043 54.05184 
L 269.099585 53.80992 
L 269.349127 53.80992 
L 269.59867 53.568 
L 398.487273 53.568 
L 398.487273 53.568 
" clip-path="url(#p9764ae43a3)" style="fill: none; stroke-dasharray: 1.85,0.8; stroke-dashoffset: 0; stroke: #bf00bf; stroke-width: 0.5"/>
   </g>
   <g id="line2d_17">
    <path d="M 73.832727 295.488 
L 74.331812 279.52128 
L 74.706125 260.65152 
L 75.080439 250.7328 
L 75.829066 232.83072 
L 76.078608 230.41152 
L 76.452922 223.39584 
L 76.952006 219.52512 
L 77.201548 212.75136 
L 77.32632 211.54176 
L 78.199718 194.84928 
L 78.44926 193.39776 
L 78.698802 192.18816 
L 79.073116 189.0432 
L 79.5722 181.54368 
L 79.696972 180.81792 
L 80.071285 175.7376 
L 80.196056 175.25376 
L 80.695141 170.41536 
L 80.944683 168.48 
L 81.194225 166.30272 
L 81.318997 166.0608 
L 82.441937 156.62592 
L 82.941022 152.7552 
L 83.315335 150.336 
L 83.564877 147.43296 
L 83.81442 146.46528 
L 84.687818 143.0784 
L 85.810758 132.91776 
L 86.309843 130.9824 
L 86.434614 130.01472 
L 86.684156 130.01472 
L 87.807097 123.96672 
L 88.805266 119.85408 
L 89.429122 116.70912 
L 89.678664 115.98336 
L 90.052977 113.08032 
L 90.177749 112.59648 
L 90.676833 109.45152 
L 90.801604 109.45152 
L 90.926376 108.48384 
L 91.051147 108.48384 
L 91.175918 108.24192 
L 91.42546 106.7904 
L 91.550231 106.7904 
L 91.924545 105.33888 
L 92.049316 105.33888 
L 92.174087 104.85504 
L 92.423629 103.1616 
L 92.673172 102.43584 
L 93.172256 100.7424 
L 93.297027 100.50048 
L 93.421799 99.29088 
L 93.54657 99.29088 
L 93.671341 98.80704 
L 93.920883 98.80704 
L 94.170426 98.08128 
L 94.295197 98.08128 
L 95.043824 93.96864 
L 95.168595 93.96864 
L 95.293366 93.72672 
L 95.418137 93.00096 
L 95.667679 93.00096 
L 96.041993 92.51712 
L 96.291535 92.51712 
L 96.541077 91.54944 
L 96.915391 91.54944 
L 97.164933 90.82368 
L 97.289704 90.58176 
L 97.788789 88.16256 
L 98.786958 86.46912 
L 98.911729 86.46912 
L 99.410814 84.53376 
L 99.660356 84.53376 
L 100.03467 84.04992 
L 100.159441 84.04992 
L 100.658526 83.32416 
L 101.282381 83.32416 
L 102.031008 82.11456 
L 102.904406 82.11456 
L 103.029178 81.63072 
L 103.528262 81.63072 
L 104.027347 80.90496 
L 104.526431 80.90496 
L 105.025516 80.1792 
L 105.150287 80.1792 
L 105.774143 79.21152 
L 106.023685 79.21152 
L 106.273228 78.9696 
L 106.397999 78.9696 
L 106.772312 78.48576 
L 107.146626 78.48576 
L 107.396168 78.24384 
L 108.394337 78.24384 
L 108.64388 78.00192 
L 109.018193 78.00192 
L 109.142964 77.51808 
L 109.392506 77.51808 
L 109.891591 76.79232 
L 110.265905 76.79232 
L 110.515447 76.06656 
L 110.88976 76.06656 
L 111.014531 75.58272 
L 111.139303 75.58272 
L 111.513616 75.09888 
L 114.009039 75.09888 
L 114.508124 74.37312 
L 114.632895 74.37312 
L 115.007208 73.88928 
L 115.755835 73.88928 
L 116.005378 73.64736 
L 117.37786 73.64736 
L 117.627403 73.40544 
L 118.001716 73.40544 
L 118.500801 72.67968 
L 118.625572 72.67968 
L 118.875114 72.43776 
L 119.49897 72.43776 
L 119.748512 72.19584 
L 120.62191 72.19584 
L 120.871453 71.95392 
L 121.62008 71.95392 
L 121.744851 71.47008 
L 122.992562 71.47008 
L 123.117334 70.98624 
L 123.366876 70.98624 
L 123.616418 70.74432 
L 124.489816 70.74432 
L 124.86413 70.26048 
L 125.238443 70.26048 
L 125.487985 70.01856 
L 126.111841 70.01856 
L 126.361384 69.77664 
L 127.609095 69.77664 
L 127.858637 69.53472 
L 128.232951 69.53472 
L 128.482493 68.56704 
L 128.856807 68.0832 
L 128.981578 68.0832 
L 129.23112 67.59936 
L 129.355891 66.8736 
L 129.730205 66.8736 
L 129.854976 66.38976 
L 129.979747 66.38976 
L 130.229289 66.14784 
L 130.853145 66.14784 
L 131.227459 65.664 
L 131.35223 65.664 
L 131.976086 64.69632 
L 132.100857 64.69632 
L 132.974255 63.2448 
L 133.223797 61.55136 
L 133.722882 60.8256 
L 133.972424 60.8256 
L 134.221966 59.85792 
L 134.346737 59.37408 
L 134.471509 59.37408 
L 134.721051 59.13216 
L 134.845822 59.13216 
L 134.970593 58.64832 
L 135.220136 58.64832 
L 135.843991 57.68064 
L 135.968762 57.68064 
L 136.343076 55.9872 
L 136.467847 55.74528 
L 136.592618 55.01952 
L 137.091703 55.01952 
L 137.341245 54.7776 
L 137.466016 54.7776 
L 137.715559 54.05184 
L 137.84033 54.05184 
L 138.214643 53.568 
L 398.487273 53.568 
L 398.487273 53.568 
" clip-path="url(#p9764ae43a3)" style="fill: none; stroke-dasharray: 1.85,0.8; stroke-dashoffset: 0; stroke: #bfbf00; stroke-width: 0.5"/>
   </g>
   <g id="patch_3">
    <path d="M 57.6 307.584 
L 57.6 41.472 
" style="fill: none; stroke: #000000; stroke-width: 0.8; stroke-linejoin: miter; stroke-linecap: square"/>
   </g>
   <g id="patch_4">
    <path d="M 414.72 307.584 
L 414.72 41.472 
" style="fill: none; stroke: #000000; stroke-width: 0.8; stroke-linejoin: miter; stroke-linecap: square"/>
   </g>
   <g id="patch_5">
    <path d="M 57.6 307.584 
L 414.72 307.584 
" style="fill: none; stroke: #000000; stroke-width: 0.8; stroke-linejoin: miter; stroke-linecap: square"/>
   </g>
   <g id="patch_6">
    <path d="M 57.6 41.472 
L 414.72 41.472 
" style="fill: none; stroke: #000000; stroke-width: 0.8; stroke-linejoin: miter; stroke-linecap: square"/>
   </g>
   <g id="text_15">
    <!-- count=1000, googlenet=125, resnet50=75, squeezenetv1=125, vgg19=75 -->
    <g transform="translate(38.16 35.472)scale(0.12 -0.12)">
     <defs>
      <path id="FangSong-63" d="M 2125 2125 
Q 2125 2200 2137 2225 
Q 2150 2250 2175 2325 
Q 2200 2425 2075 2562 
Q 1950 2700 1650 2700 
Q 1275 2700 1012 2337 
Q 750 1975 750 1375 
Q 750 825 975 487 
Q 1200 150 1725 150 
Q 2075 150 2312 375 
Q 2550 600 2650 900 
L 2775 850 
Q 2675 475 2400 212 
Q 2125 -50 1650 -50 
Q 1050 -50 700 325 
Q 350 700 350 1400 
Q 350 2025 725 2437 
Q 1100 2850 1700 2850 
Q 2125 2850 2362 2625 
Q 2600 2400 2600 2175 
Q 2600 2025 2537 1962 
Q 2475 1900 2350 1900 
Q 2250 1900 2187 1962 
Q 2125 2025 2125 2125 
z
" transform="scale(0.015625)"/>
      <path id="FangSong-6f" d="M 2875 1400 
Q 2875 775 2500 362 
Q 2125 -50 1575 -50 
Q 1000 -50 637 375 
Q 275 800 275 1400 
Q 275 1950 637 2400 
Q 1000 2850 1575 2850 
Q 2175 2850 2525 2400 
Q 2875 1950 2875 1400 
z
M 675 1375 
Q 675 725 937 412 
Q 1200 100 1575 100 
Q 2000 100 2237 437 
Q 2475 775 2475 1375 
Q 2475 2025 2212 2362 
Q 1950 2700 1575 2700 
Q 1225 2700 950 2362 
Q 675 2025 675 1375 
z
" transform="scale(0.015625)"/>
      <path id="FangSong-75" d="M 1425 225 
Q 1725 225 1937 375 
Q 2150 525 2250 850 
L 2250 2425 
Q 2250 2525 2200 2587 
Q 2150 2650 2025 2650 
L 1875 2650 
L 1875 2800 
L 2025 2800 
Q 2175 2800 2300 2825 
Q 2425 2850 2550 2950 
L 2600 2950 
L 2600 500 
Q 2600 400 2662 350 
Q 2725 300 2825 300 
L 2975 300 
L 2975 150 
L 2825 150 
Q 2700 150 2575 112 
Q 2450 75 2300 0 
L 2250 0 
L 2250 525 
Q 2125 250 1875 112 
Q 1625 -25 1300 -25 
Q 900 -25 700 200 
Q 500 425 500 925 
L 500 2425 
Q 500 2525 450 2587 
Q 400 2650 275 2650 
L 125 2650 
L 125 2800 
L 275 2800 
Q 425 2800 550 2825 
Q 675 2850 800 2950 
L 850 2950 
L 850 875 
Q 850 525 1000 375 
Q 1150 225 1425 225 
z
" transform="scale(0.015625)"/>
      <path id="FangSong-6e" d="M 175 0 
L 175 150 
L 300 150 
Q 425 150 475 200 
Q 525 250 525 350 
L 525 2500 
Q 525 2575 500 2612 
Q 475 2650 400 2650 
L 200 2650 
L 200 2800 
L 375 2800 
Q 500 2800 612 2825 
Q 725 2850 825 2925 
L 875 2925 
L 875 2350 
Q 1100 2600 1325 2725 
Q 1550 2850 1800 2850 
Q 2225 2850 2425 2625 
Q 2625 2400 2625 1950 
L 2625 350 
Q 2625 250 2687 200 
Q 2750 150 2850 150 
L 2975 150 
L 2975 0 
L 1925 0 
L 1925 150 
L 2050 150 
Q 2175 150 2225 200 
Q 2275 250 2275 350 
L 2275 2025 
Q 2275 2325 2150 2487 
Q 2025 2650 1775 2650 
Q 1550 2650 1312 2500 
Q 1075 2350 875 2075 
L 875 350 
Q 875 250 937 200 
Q 1000 150 1100 150 
L 1225 150 
L 1225 0 
L 175 0 
z
" transform="scale(0.015625)"/>
      <path id="FangSong-74" d="M 1475 800 
Q 1475 450 1600 325 
Q 1725 200 1975 200 
Q 2225 200 2375 362 
Q 2525 525 2575 825 
L 2700 775 
Q 2650 425 2437 200 
Q 2225 -25 1875 -25 
Q 1500 -25 1312 200 
Q 1125 425 1125 900 
L 1125 2650 
L 375 2650 
L 375 2800 
L 575 2800 
Q 875 2800 1062 2987 
Q 1250 3175 1300 3575 
L 1325 3775 
L 1475 3775 
L 1475 2800 
L 2475 2800 
L 2475 2650 
L 1475 2650 
L 1475 800 
z
" transform="scale(0.015625)"/>
      <path id="FangSong-3d" d="M 175 2725 
L 175 2950 
L 2950 2950 
L 2950 2725 
L 175 2725 
z
M 175 1450 
L 175 1675 
L 2950 1675 
L 2950 1450 
L 175 1450 
z
" transform="scale(0.015625)"/>
      <path id="FangSong-2c" d="M 1325 75 
Q 1200 25 1100 75 
Q 1000 125 962 237 
Q 925 350 925 437 
Q 925 525 987 612 
Q 1050 700 1150 737 
Q 1250 775 1425 725 
Q 1600 675 1650 500 
Q 1700 325 1662 150 
Q 1625 -25 1525 -200 
Q 1425 -375 1312 -475 
Q 1200 -575 1025 -675 
L 950 -575 
Q 1100 -450 1187 -312 
Q 1275 -175 1325 75 
z
" transform="scale(0.015625)"/>
      <path id="FangSong-20" transform="scale(0.015625)"/>
      <path id="FangSong-67" d="M 850 1875 
Q 850 1575 1025 1362 
Q 1200 1150 1500 1150 
Q 1825 1150 1987 1337 
Q 2150 1525 2150 1875 
Q 2150 2300 1962 2487 
Q 1775 2675 1500 2675 
Q 1225 2675 1037 2487 
Q 850 2300 850 1875 
z
M 2075 525 
Q 2450 475 2625 312 
Q 2800 150 2800 -125 
Q 2800 -500 2487 -725 
Q 2175 -950 1500 -950 
Q 975 -950 650 -737 
Q 325 -525 325 -250 
Q 325 -75 450 100 
Q 575 275 850 375 
Q 700 450 612 537 
Q 525 625 525 750 
Q 525 900 625 1012 
Q 725 1125 875 1200 
Q 725 1325 612 1500 
Q 500 1675 500 1875 
Q 500 2250 762 2537 
Q 1025 2825 1500 2825 
Q 1700 2825 1887 2775 
Q 2075 2725 2200 2600 
Q 2375 2725 2512 2787 
Q 2650 2850 2750 2850 
Q 2875 2850 2925 2762 
Q 2975 2675 2975 2600 
Q 2975 2500 2937 2437 
Q 2900 2375 2800 2375 
Q 2725 2375 2675 2412 
Q 2625 2450 2600 2525 
Q 2575 2600 2487 2587 
Q 2400 2575 2300 2500 
Q 2400 2400 2450 2225 
Q 2500 2050 2500 1875 
Q 2500 1575 2262 1287 
Q 2025 1000 1500 1000 
Q 1350 1000 1225 1037 
Q 1100 1075 1025 1125 
Q 925 1075 875 1000 
Q 825 925 825 875 
Q 825 775 875 725 
Q 925 675 1025 675 
Q 1350 625 1612 587 
Q 1875 550 2075 525 
z
M 1050 325 
Q 825 225 737 87 
Q 650 -50 650 -250 
Q 650 -450 875 -625 
Q 1100 -800 1550 -800 
Q 1975 -800 2225 -662 
Q 2475 -525 2475 -250 
Q 2475 -75 2412 25 
Q 2350 125 2225 150 
Q 1975 200 1675 237 
Q 1375 275 1050 325 
z
" transform="scale(0.015625)"/>
      <path id="FangSong-6c" d="M 900 4275 
Q 1125 4275 1325 4325 
Q 1525 4375 1700 4475 
L 1750 4475 
L 1750 350 
Q 1750 250 1812 200 
Q 1875 150 1975 150 
L 2550 150 
L 2550 0 
L 600 0 
L 600 150 
L 1175 150 
Q 1300 150 1350 200 
Q 1400 250 1400 350 
L 1400 3925 
Q 1400 4025 1350 4075 
Q 1300 4125 1175 4125 
L 625 4125 
L 625 4275 
L 900 4275 
z
" transform="scale(0.015625)"/>
      <path id="FangSong-65" d="M 2375 1550 
Q 2400 2100 2187 2387 
Q 1975 2675 1625 2675 
Q 1250 2675 1012 2375 
Q 775 2075 775 1550 
L 2375 1550 
z
M 775 1400 
Q 775 725 1037 437 
Q 1300 150 1725 150 
Q 2050 150 2275 337 
Q 2500 525 2600 800 
L 2725 750 
Q 2650 475 2387 212 
Q 2125 -50 1675 -50 
Q 1100 -50 737 325 
Q 375 700 375 1400 
Q 375 2025 737 2437 
Q 1100 2850 1625 2850 
Q 2100 2850 2450 2525 
Q 2800 2200 2800 1400 
L 775 1400 
z
" transform="scale(0.015625)"/>
      <path id="FangSong-72" d="M 1250 2025 
Q 1500 2425 1787 2637 
Q 2075 2850 2375 2850 
Q 2625 2850 2762 2737 
Q 2900 2625 2900 2475 
Q 2900 2350 2837 2275 
Q 2775 2200 2650 2200 
Q 2525 2200 2462 2275 
Q 2400 2350 2425 2475 
Q 2425 2550 2400 2600 
Q 2375 2650 2250 2650 
Q 2050 2650 1762 2400 
Q 1475 2150 1250 1700 
L 1250 350 
Q 1250 250 1312 200 
Q 1375 150 1475 150 
L 2025 150 
L 2025 0 
L 175 0 
L 175 150 
L 675 150 
Q 800 150 850 200 
Q 900 250 900 350 
L 900 2425 
Q 900 2525 850 2587 
Q 800 2650 675 2650 
L 200 2650 
L 200 2800 
L 400 2800 
Q 575 2800 812 2837 
Q 1050 2875 1175 2925 
L 1250 2925 
L 1250 2025 
z
" transform="scale(0.015625)"/>
      <path id="FangSong-73" d="M 600 2075 
Q 600 2450 887 2650 
Q 1175 2850 1575 2850 
Q 1800 2850 2000 2787 
Q 2200 2725 2275 2725 
Q 2350 2725 2400 2750 
Q 2450 2775 2525 2850 
L 2625 2025 
L 2475 2000 
Q 2375 2325 2137 2512 
Q 1900 2700 1600 2700 
Q 1275 2700 1087 2575 
Q 900 2450 900 2225 
Q 900 2025 987 1912 
Q 1075 1800 1300 1750 
Q 1475 1675 1737 1587 
Q 2000 1500 2225 1400 
Q 2425 1300 2562 1137 
Q 2700 975 2700 775 
Q 2700 400 2437 187 
Q 2175 -25 1675 -25 
Q 1350 -25 1187 37 
Q 1025 100 925 100 
Q 850 100 762 62 
Q 675 25 575 -25 
L 500 900 
L 650 925 
Q 725 525 975 325 
Q 1225 125 1675 125 
Q 2025 125 2212 250 
Q 2400 375 2400 625 
Q 2400 800 2300 912 
Q 2200 1025 2100 1075 
Q 1850 1175 1550 1287 
Q 1250 1400 1025 1500 
Q 800 1600 700 1750 
Q 600 1900 600 2075 
z
" transform="scale(0.015625)"/>
      <path id="FangSong-37" d="M 2800 4100 
Q 2275 3250 1962 2437 
Q 1650 1625 1650 1025 
Q 1650 925 1662 737 
Q 1675 550 1675 300 
Q 1675 100 1612 25 
Q 1550 -50 1400 -50 
Q 1275 -50 1187 37 
Q 1100 125 1100 350 
Q 1100 825 1312 1525 
Q 1525 2225 2450 3900 
L 1200 3900 
Q 925 3900 762 3725 
Q 600 3550 525 3200 
L 375 3225 
L 550 4275 
L 2800 4275 
L 2800 4100 
z
" transform="scale(0.015625)"/>
      <path id="FangSong-71" d="M 2250 2150 
Q 2150 2375 1975 2512 
Q 1800 2650 1550 2650 
Q 1200 2650 950 2350 
Q 700 2050 700 1325 
Q 700 700 912 437 
Q 1125 175 1450 175 
Q 1725 175 1937 300 
Q 2150 425 2250 725 
L 2250 2150 
z
M 2600 -550 
Q 2600 -675 2662 -725 
Q 2725 -775 2825 -775 
L 2975 -775 
L 2975 -925 
L 1825 -925 
L 1825 -775 
L 2025 -775 
Q 2150 -775 2200 -725 
Q 2250 -675 2250 -550 
L 2250 375 
Q 2100 175 1887 75 
Q 1675 -25 1375 -25 
Q 950 -25 625 337 
Q 300 700 300 1400 
Q 300 2075 675 2450 
Q 1050 2825 1475 2825 
Q 1750 2825 1937 2725 
Q 2125 2625 2275 2475 
L 2500 2800 
L 2600 2800 
L 2600 -550 
z
" transform="scale(0.015625)"/>
      <path id="FangSong-7a" d="M 2725 975 
L 2550 0 
L 400 0 
L 400 125 
L 2125 2650 
L 1200 2650 
Q 975 2650 825 2487 
Q 675 2325 575 1925 
L 425 1950 
L 525 2800 
L 2575 2800 
L 2575 2725 
L 825 150 
L 1775 150 
Q 2100 150 2287 350 
Q 2475 550 2575 1000 
L 2725 975 
z
" transform="scale(0.015625)"/>
      <path id="FangSong-76" d="M 1600 -25 
L 1450 -25 
L 600 2425 
Q 575 2525 500 2587 
Q 425 2650 325 2650 
L 200 2650 
L 200 2800 
L 1275 2800 
L 1275 2650 
L 1175 2650 
Q 1025 2650 987 2575 
Q 950 2500 1000 2325 
L 1600 575 
L 1650 575 
L 2250 2300 
Q 2325 2475 2262 2562 
Q 2200 2650 2050 2650 
L 2000 2650 
L 2000 2800 
L 2900 2800 
L 2900 2650 
L 2850 2650 
Q 2700 2650 2612 2562 
Q 2525 2475 2450 2300 
L 1600 -25 
z
" transform="scale(0.015625)"/>
      <path id="FangSong-39" d="M 675 2950 
Q 675 2400 887 2112 
Q 1100 1825 1425 1825 
Q 1800 1825 2075 2175 
Q 2350 2525 2350 2825 
Q 2350 3425 2150 3787 
Q 1950 4150 1500 4150 
Q 1075 4150 875 3812 
Q 675 3475 675 2950 
z
M 1350 1600 
Q 850 1600 550 1912 
Q 250 2225 250 2925 
Q 250 3525 575 3925 
Q 900 4325 1500 4325 
Q 2125 4325 2475 3825 
Q 2825 3325 2825 2375 
Q 2825 1325 2412 637 
Q 2000 -50 1275 -50 
Q 950 -50 712 100 
Q 475 250 475 500 
Q 475 600 537 700 
Q 600 800 750 800 
Q 900 800 950 687 
Q 1000 575 1000 425 
Q 1000 325 1025 262 
Q 1050 200 1075 175 
Q 1100 150 1162 137 
Q 1225 125 1300 125 
Q 1750 125 2025 625 
Q 2300 1125 2350 2300 
Q 2225 2000 1975 1800 
Q 1725 1600 1350 1600 
z
" transform="scale(0.015625)"/>
     </defs>
     <use xlink:href="#FangSong-63"/>
     <use xlink:href="#FangSong-6f" x="50"/>
     <use xlink:href="#FangSong-75" x="100"/>
     <use xlink:href="#FangSong-6e" x="150"/>
     <use xlink:href="#FangSong-74" x="200"/>
     <use xlink:href="#FangSong-3d" x="250"/>
     <use xlink:href="#FangSong-31" x="300"/>
     <use xlink:href="#FangSong-30" x="350"/>
     <use xlink:href="#FangSong-30" x="400"/>
     <use xlink:href="#FangSong-30" x="450"/>
     <use xlink:href="#FangSong-2c" x="500"/>
     <use xlink:href="#FangSong-20" x="550"/>
     <use xlink:href="#FangSong-67" x="600"/>
     <use xlink:href="#FangSong-6f" x="650"/>
     <use xlink:href="#FangSong-6f" x="700"/>
     <use xlink:href="#FangSong-67" x="750"/>
     <use xlink:href="#FangSong-6c" x="800"/>
     <use xlink:href="#FangSong-65" x="850"/>
     <use xlink:href="#FangSong-6e" x="900"/>
     <use xlink:href="#FangSong-65" x="950"/>
     <use xlink:href="#FangSong-74" x="1000"/>
     <use xlink:href="#FangSong-3d" x="1050"/>
     <use xlink:href="#FangSong-31" x="1100"/>
     <use xlink:href="#FangSong-32" x="1150"/>
     <use xlink:href="#FangSong-35" x="1200"/>
     <use xlink:href="#FangSong-2c" x="1250"/>
     <use xlink:href="#FangSong-20" x="1300"/>
     <use xlink:href="#FangSong-72" x="1350"/>
     <use xlink:href="#FangSong-65" x="1400"/>
     <use xlink:href="#FangSong-73" x="1450"/>
     <use xlink:href="#FangSong-6e" x="1500"/>
     <use xlink:href="#FangSong-65" x="1550"/>
     <use xlink:href="#FangSong-74" x="1600"/>
     <use xlink:href="#FangSong-35" x="1650"/>
     <use xlink:href="#FangSong-30" x="1700"/>
     <use xlink:href="#FangSong-3d" x="1750"/>
     <use xlink:href="#FangSong-37" x="1800"/>
     <use xlink:href="#FangSong-35" x="1850"/>
     <use xlink:href="#FangSong-2c" x="1900"/>
     <use xlink:href="#FangSong-20" x="1950"/>
     <use xlink:href="#FangSong-73" x="2000"/>
     <use xlink:href="#FangSong-71" x="2050"/>
     <use xlink:href="#FangSong-75" x="2100"/>
     <use xlink:href="#FangSong-65" x="2150"/>
     <use xlink:href="#FangSong-65" x="2200"/>
     <use xlink:href="#FangSong-7a" x="2250"/>
     <use xlink:href="#FangSong-65" x="2300"/>
     <use xlink:href="#FangSong-6e" x="2350"/>
     <use xlink:href="#FangSong-65" x="2400"/>
     <use xlink:href="#FangSong-74" x="2450"/>
     <use xlink:href="#FangSong-76" x="2500"/>
     <use xlink:href="#FangSong-31" x="2550"/>
     <use xlink:href="#FangSong-3d" x="2600"/>
     <use xlink:href="#FangSong-31" x="2650"/>
     <use xlink:href="#FangSong-32" x="2700"/>
     <use xlink:href="#FangSong-35" x="2750"/>
     <use xlink:href="#FangSong-2c" x="2800"/>
     <use xlink:href="#FangSong-20" x="2850"/>
     <use xlink:href="#FangSong-76" x="2900"/>
     <use xlink:href="#FangSong-67" x="2950"/>
     <use xlink:href="#FangSong-67" x="3000"/>
     <use xlink:href="#FangSong-31" x="3050"/>
     <use xlink:href="#FangSong-39" x="3100"/>
     <use xlink:href="#FangSong-3d" x="3150"/>
     <use xlink:href="#FangSong-37" x="3200"/>
     <use xlink:href="#FangSong-35" x="3250"/>
    </g>
   </g>
   <g id="legend_1">
    <g id="patch_7">
     <path d="M 335.72 302.584 
L 407.72 302.584 
Q 409.72 302.584 409.72 300.584 
L 409.72 234.357437 
Q 409.72 232.357437 407.72 232.357437 
L 335.72 232.357437 
Q 333.72 232.357437 333.72 234.357437 
L 333.72 300.584 
Q 333.72 302.584 335.72 302.584 
z
" style="fill: #ffffff; opacity: 0.8; stroke: #cccccc; stroke-linejoin: miter"/>
    </g>
    <g id="line2d_18">
     <path d="M 337.72 239.857437 
L 347.72 239.857437 
L 357.72 239.857437 
" style="fill: none; stroke: #ff0000; stroke-width: 0.5; stroke-linecap: square"/>
    </g>
    <g id="text_16">
     <!-- DLIR -->
     <g transform="translate(365.72 243.357437)scale(0.1 -0.1)">
      <defs>
       <path id="FangSong-44" d="M 2475 2175 
Q 2475 3250 2150 3687 
Q 1825 4125 1250 4125 
Q 1075 4125 987 4075 
Q 900 4025 900 3925 
L 900 350 
Q 900 250 975 200 
Q 1050 150 1175 150 
Q 1725 150 2100 562 
Q 2475 975 2475 2175 
z
M 500 3925 
Q 500 4025 450 4075 
Q 400 4125 275 4125 
L 125 4125 
L 125 4275 
L 1250 4275 
Q 2025 4275 2487 3775 
Q 2950 3275 2950 2225 
Q 2950 1075 2500 537 
Q 2050 0 1175 0 
L 100 0 
L 100 150 
L 275 150 
Q 400 150 450 200 
Q 500 250 500 350 
L 500 3925 
z
" transform="scale(0.015625)"/>
       <path id="FangSong-4c" d="M 975 350 
Q 975 250 1037 200 
Q 1100 150 1200 150 
L 1875 150 
Q 2225 150 2475 362 
Q 2725 575 2850 1025 
L 2975 975 
L 2750 0 
L 175 0 
L 175 150 
L 350 150 
Q 475 150 525 200 
Q 575 250 575 350 
L 575 3925 
Q 575 4025 525 4075 
Q 475 4125 350 4125 
L 200 4125 
L 200 4275 
L 1375 4275 
L 1375 4125 
L 1200 4125 
Q 1100 4125 1037 4075 
Q 975 4025 975 3925 
L 975 350 
z
" transform="scale(0.015625)"/>
       <path id="FangSong-49" d="M 575 4125 
L 575 4275 
L 2575 4275 
L 2575 4125 
L 2000 4125 
Q 1900 4125 1837 4075 
Q 1775 4025 1775 3925 
L 1775 350 
Q 1775 250 1837 200 
Q 1900 150 2000 150 
L 2575 150 
L 2575 0 
L 575 0 
L 575 150 
L 1150 150 
Q 1275 150 1325 200 
Q 1375 250 1375 350 
L 1375 3925 
Q 1375 4025 1325 4075 
Q 1275 4125 1150 4125 
L 575 4125 
z
" transform="scale(0.015625)"/>
       <path id="FangSong-52" d="M 2800 3275 
Q 2800 2775 2525 2500 
Q 2250 2225 1900 2175 
L 2650 325 
Q 2700 225 2762 187 
Q 2825 150 2900 150 
L 3050 150 
L 3050 0 
L 2350 0 
L 1525 2150 
L 950 2150 
L 950 350 
Q 950 250 1012 200 
Q 1075 150 1175 150 
L 1325 150 
L 1325 0 
L 175 0 
L 175 150 
L 325 150 
Q 450 150 500 200 
Q 550 250 550 350 
L 550 3925 
Q 550 4025 500 4075 
Q 450 4125 325 4125 
L 175 4125 
L 175 4275 
L 1600 4275 
Q 2175 4275 2487 4025 
Q 2800 3775 2800 3275 
z
M 950 2300 
L 1500 2300 
Q 1875 2300 2125 2525 
Q 2375 2750 2375 3225 
Q 2375 3650 2150 3887 
Q 1925 4125 1450 4125 
L 1175 4125 
Q 1075 4125 1012 4075 
Q 950 4025 950 3925 
L 950 2300 
z
" transform="scale(0.015625)"/>
      </defs>
      <use xlink:href="#FangSong-44"/>
      <use xlink:href="#FangSong-4c" x="50"/>
      <use xlink:href="#FangSong-49" x="100"/>
      <use xlink:href="#FangSong-52" x="150"/>
     </g>
    </g>
    <g id="line2d_19">
     <path d="M 337.72 253.30275 
L 347.72 253.30275 
L 357.72 253.30275 
" style="fill: none; stroke-dasharray: 1.85,0.8; stroke-dashoffset: 0; stroke: #008000; stroke-width: 0.5"/>
    </g>
    <g id="text_17">
     <!-- BNST -->
     <g transform="translate(365.72 256.80275)scale(0.1 -0.1)">
      <defs>
       <path id="FangSong-42" d="M 75 0 
L 75 150 
L 275 150 
Q 400 150 450 200 
Q 500 250 500 350 
L 500 3925 
Q 500 4025 450 4075 
Q 400 4125 275 4125 
L 125 4125 
L 125 4275 
L 1575 4275 
Q 2175 4275 2462 4037 
Q 2750 3800 2750 3300 
Q 2750 2950 2600 2725 
Q 2450 2500 1975 2325 
Q 2550 2150 2750 1825 
Q 2950 1500 2950 1100 
Q 2950 600 2600 300 
Q 2250 0 1650 0 
L 75 0 
z
M 1575 150 
Q 2000 150 2237 412 
Q 2475 675 2475 1150 
Q 2475 1700 2225 1962 
Q 1975 2225 1475 2225 
L 900 2225 
L 900 350 
Q 900 250 962 200 
Q 1025 150 1125 150 
L 1575 150 
z
M 2325 3300 
Q 2325 3750 2075 3937 
Q 1825 4125 1425 4125 
L 1125 4125 
Q 1025 4125 962 4075 
Q 900 4025 900 3925 
L 900 2375 
L 1550 2375 
Q 1825 2375 2075 2600 
Q 2325 2825 2325 3300 
z
" transform="scale(0.015625)"/>
       <path id="FangSong-4e" d="M 2500 1000 
L 2550 1000 
L 2550 3925 
Q 2550 4025 2500 4075 
Q 2450 4125 2325 4125 
L 2125 4125 
L 2125 4275 
L 3125 4275 
L 3125 4125 
L 2925 4125 
Q 2825 4125 2762 4075 
Q 2700 4025 2700 3925 
L 2700 0 
L 2550 0 
L 650 3725 
L 600 3725 
L 600 350 
Q 600 250 662 200 
Q 725 150 825 150 
L 1025 150 
L 1025 0 
L 25 0 
L 25 150 
L 225 150 
Q 350 150 400 200 
Q 450 250 450 350 
L 450 3925 
Q 450 4025 400 4075 
Q 350 4125 225 4125 
L 75 4125 
L 75 4275 
L 800 4275 
L 2500 1000 
z
" transform="scale(0.015625)"/>
       <path id="FangSong-53" d="M 1475 2050 
Q 800 2350 550 2575 
Q 300 2800 300 3275 
Q 300 3650 612 3987 
Q 925 4325 1500 4325 
Q 1750 4325 1975 4237 
Q 2200 4150 2300 4150 
Q 2375 4150 2437 4187 
Q 2500 4225 2550 4325 
L 2650 3300 
L 2525 3250 
Q 2300 3775 2062 3962 
Q 1825 4150 1450 4150 
Q 975 4150 800 3887 
Q 625 3625 625 3325 
Q 625 3050 787 2887 
Q 950 2725 1675 2400 
Q 2275 2150 2537 1837 
Q 2800 1525 2800 1100 
Q 2800 650 2487 300 
Q 2175 -50 1575 -50 
Q 1325 -50 1112 37 
Q 900 125 775 125 
Q 700 125 625 75 
Q 550 25 450 -50 
L 250 1175 
L 400 1225 
Q 575 600 887 362 
Q 1200 125 1600 125 
Q 2025 125 2237 375 
Q 2450 625 2450 1100 
Q 2450 1350 2212 1587 
Q 1975 1825 1475 2050 
z
" transform="scale(0.015625)"/>
       <path id="FangSong-54" d="M 2200 0 
L 900 0 
L 900 150 
L 1125 150 
Q 1250 150 1300 200 
Q 1350 250 1350 350 
L 1350 3850 
Q 1350 4050 1325 4075 
Q 1300 4100 1125 4100 
Q 775 4100 637 3975 
Q 500 3850 300 3300 
L 150 3325 
L 375 4275 
L 2750 4275 
L 2950 3325 
L 2825 3300 
Q 2625 3825 2512 3962 
Q 2400 4100 2050 4100 
Q 1800 4100 1775 4075 
Q 1750 4050 1750 3825 
L 1750 350 
Q 1750 250 1812 200 
Q 1875 150 1975 150 
L 2200 150 
L 2200 0 
z
" transform="scale(0.015625)"/>
      </defs>
      <use xlink:href="#FangSong-42"/>
      <use xlink:href="#FangSong-4e" x="50"/>
      <use xlink:href="#FangSong-53" x="100"/>
      <use xlink:href="#FangSong-54" x="150"/>
     </g>
    </g>
    <g id="line2d_20">
     <path d="M 337.72 266.748062 
L 347.72 266.748062 
L 357.72 266.748062 
" style="fill: none; stroke-dasharray: 1.85,0.8; stroke-dashoffset: 0; stroke: #0000ff; stroke-width: 0.5"/>
    </g>
    <g id="text_18">
     <!-- FIFO -->
     <g transform="translate(365.72 270.248062)scale(0.1 -0.1)">
      <defs>
       <path id="FangSong-46" d="M 1325 150 
L 1325 0 
L 125 0 
L 125 150 
L 300 150 
Q 425 150 475 200 
Q 525 250 525 350 
L 525 3925 
Q 525 4025 475 4075 
Q 425 4125 300 4125 
L 150 4125 
L 150 4275 
L 2750 4275 
L 3050 3375 
L 2925 3325 
Q 2725 3725 2450 3925 
Q 2175 4125 1850 4125 
L 1150 4125 
Q 1050 4125 987 4075 
Q 925 4025 925 3925 
L 925 2325 
L 1750 2325 
Q 2000 2325 2112 2437 
Q 2225 2550 2225 2800 
L 2225 2925 
L 2375 2925 
L 2375 1475 
L 2225 1475 
L 2225 1575 
Q 2225 1875 2112 2025 
Q 2000 2175 1750 2175 
L 925 2175 
L 925 350 
Q 925 250 987 200 
Q 1050 150 1150 150 
L 1325 150 
z
" transform="scale(0.015625)"/>
       <path id="FangSong-4f" d="M 675 2150 
Q 675 1075 937 587 
Q 1200 100 1600 100 
Q 2025 100 2275 562 
Q 2525 1025 2525 2150 
Q 2525 3050 2312 3600 
Q 2100 4150 1600 4150 
Q 1175 4150 925 3650 
Q 675 3150 675 2150 
z
M 3000 2150 
Q 3000 1125 2600 537 
Q 2200 -50 1600 -50 
Q 1025 -50 612 550 
Q 200 1150 200 2150 
Q 200 3125 587 3725 
Q 975 4325 1600 4325 
Q 2250 4325 2625 3687 
Q 3000 3050 3000 2150 
z
" transform="scale(0.015625)"/>
      </defs>
      <use xlink:href="#FangSong-46"/>
      <use xlink:href="#FangSong-49" x="50"/>
      <use xlink:href="#FangSong-46" x="100"/>
      <use xlink:href="#FangSong-4f" x="150"/>
     </g>
    </g>
    <g id="line2d_21">
     <path d="M 337.72 280.193375 
L 347.72 280.193375 
L 357.72 280.193375 
" style="fill: none; stroke-dasharray: 1.85,0.8; stroke-dashoffset: 0; stroke: #bf00bf; stroke-width: 0.5"/>
    </g>
    <g id="text_19">
     <!-- OYST -->
     <g transform="translate(365.72 283.693375)scale(0.1 -0.1)">
      <defs>
       <path id="FangSong-59" d="M 2350 3825 
Q 2375 3975 2312 4050 
Q 2250 4125 2075 4125 
L 2025 4125 
L 2025 4275 
L 3000 4275 
L 3000 4125 
L 2925 4125 
Q 2800 4125 2700 4037 
Q 2600 3950 2525 3775 
L 1750 1800 
L 1750 350 
Q 1750 250 1812 200 
Q 1875 150 1975 150 
L 2200 150 
L 2200 0 
L 900 0 
L 900 150 
L 1125 150 
Q 1250 150 1300 200 
Q 1350 250 1350 350 
L 1350 1650 
L 500 3850 
Q 450 3975 375 4050 
Q 300 4125 175 4125 
L 125 4125 
L 125 4275 
L 1225 4275 
L 1225 4125 
L 1075 4125 
Q 925 4125 900 4050 
Q 875 3975 925 3825 
L 1600 1975 
L 1650 1975 
L 2350 3825 
z
" transform="scale(0.015625)"/>
      </defs>
      <use xlink:href="#FangSong-4f"/>
      <use xlink:href="#FangSong-59" x="50"/>
      <use xlink:href="#FangSong-53" x="100"/>
      <use xlink:href="#FangSong-54" x="150"/>
     </g>
    </g>
    <g id="line2d_22">
     <path d="M 337.72 293.638687 
L 347.72 293.638687 
L 357.72 293.638687 
" style="fill: none; stroke-dasharray: 1.85,0.8; stroke-dashoffset: 0; stroke: #bfbf00; stroke-width: 0.5"/>
    </g>
    <g id="text_20">
     <!-- PARALLEL -->
     <g transform="translate(365.72 297.138687)scale(0.1 -0.1)">
      <defs>
       <path id="FangSong-50" d="M 925 2000 
L 925 350 
Q 925 250 987 200 
Q 1050 150 1150 150 
L 1325 150 
L 1325 0 
L 125 0 
L 125 150 
L 300 150 
Q 425 150 475 200 
Q 525 250 525 350 
L 525 3925 
Q 525 4025 475 4075 
Q 425 4125 300 4125 
L 150 4125 
L 150 4275 
L 1625 4275 
Q 2250 4275 2587 3962 
Q 2925 3650 2925 3175 
Q 2925 2600 2562 2300 
Q 2200 2000 1700 2000 
L 925 2000 
z
M 1550 2150 
Q 1925 2150 2212 2375 
Q 2500 2600 2500 3150 
Q 2500 3650 2262 3887 
Q 2025 4125 1500 4125 
L 1150 4125 
Q 1050 4125 987 4075 
Q 925 4025 925 3925 
L 925 2150 
L 1550 2150 
z
" transform="scale(0.015625)"/>
       <path id="FangSong-41" d="M 2000 1600 
L 875 1600 
L 650 650 
Q 600 425 650 287 
Q 700 150 875 150 
L 950 150 
L 950 0 
L 25 0 
L 25 150 
L 100 150 
Q 200 150 275 212 
Q 350 275 375 425 
L 1350 4250 
L 1725 4375 
L 2675 425 
Q 2725 275 2800 212 
Q 2875 150 2975 150 
L 3050 150 
L 3050 0 
L 1975 0 
L 1975 150 
L 2075 150 
Q 2225 150 2262 237 
Q 2300 325 2250 500 
L 2000 1600 
z
M 1475 3825 
L 1450 3825 
L 925 1750 
L 1975 1750 
L 1475 3825 
z
" transform="scale(0.015625)"/>
       <path id="FangSong-45" d="M 175 4125 
L 175 4275 
L 2625 4275 
L 2900 3425 
L 2775 3375 
Q 2575 3750 2350 3937 
Q 2125 4125 1850 4125 
L 1150 4125 
Q 1050 4125 987 4075 
Q 925 4025 925 3925 
L 925 2375 
L 1650 2375 
Q 1900 2375 2012 2500 
Q 2125 2625 2125 2875 
L 2125 3025 
L 2275 3025 
L 2275 1550 
L 2125 1550 
L 2125 1650 
Q 2125 1925 2012 2075 
Q 1900 2225 1650 2225 
L 925 2225 
L 925 350 
Q 925 250 987 200 
Q 1050 150 1150 150 
L 1800 150 
Q 2175 150 2437 362 
Q 2700 575 2850 1025 
L 2975 975 
L 2700 0 
L 150 0 
L 150 150 
L 300 150 
Q 425 150 475 200 
Q 525 250 525 350 
L 525 3925 
Q 525 4025 475 4075 
Q 425 4125 300 4125 
L 175 4125 
z
" transform="scale(0.015625)"/>
      </defs>
      <use xlink:href="#FangSong-50"/>
      <use xlink:href="#FangSong-41" x="50"/>
      <use xlink:href="#FangSong-52" x="100"/>
      <use xlink:href="#FangSong-41" x="150"/>
      <use xlink:href="#FangSong-4c" x="200"/>
      <use xlink:href="#FangSong-4c" x="250"/>
      <use xlink:href="#FangSong-45" x="300"/>
      <use xlink:href="#FangSong-4c" x="350"/>
     </g>
    </g>
   </g>
  </g>
 </g>
 <defs>
  <clipPath id="p9764ae43a3">
   <rect x="57.6" y="41.472" width="357.12" height="266.112"/>
  </clipPath>
 </defs>
</svg>
