<?xml version="1.0" encoding="utf-8" standalone="no"?>
<!DOCTYPE svg PUBLIC "-//W3C//DTD SVG 1.1//EN"
  "http://www.w3.org/Graphics/SVG/1.1/DTD/svg11.dtd">
<svg xmlns:xlink="http://www.w3.org/1999/xlink" width="460.8pt" height="345.6pt" viewBox="0 0 460.8 345.6" xmlns="http://www.w3.org/2000/svg" version="1.1">
 <metadata>
  <rdf:RDF xmlns:dc="http://purl.org/dc/elements/1.1/" xmlns:cc="http://creativecommons.org/ns#" xmlns:rdf="http://www.w3.org/1999/02/22-rdf-syntax-ns#">
   <cc:Work>
    <dc:type rdf:resource="http://purl.org/dc/dcmitype/StillImage"/>
    <dc:date>2022-11-17T04:01:29.313499</dc:date>
    <dc:format>image/svg+xml</dc:format>
    <dc:creator>
     <cc:Agent>
      <dc:title>Matplotlib v3.5.2, https://matplotlib.org/</dc:title>
     </cc:Agent>
    </dc:creator>
   </cc:Work>
  </rdf:RDF>
 </metadata>
 <defs>
  <style type="text/css">*{stroke-linejoin: round; stroke-linecap: butt}</style>
 </defs>
 <g id="figure_1">
  <g id="patch_1">
   <path d="M 0 345.6 
L 460.8 345.6 
L 460.8 0 
L 0 0 
z
" style="fill: #ffffff"/>
  </g>
  <g id="axes_1">
   <g id="patch_2">
    <path d="M 57.6 307.584 
L 414.72 307.584 
L 414.72 41.472 
L 57.6 41.472 
z
" style="fill: #ffffff"/>
   </g>
   <g id="matplotlib.axis_1">
    <g id="xtick_1">
     <g id="line2d_1">
      <defs>
       <path id="m219bf8056f" d="M 0 0 
L 0 3.5 
" style="stroke: #000000; stroke-width: 0.8"/>
      </defs>
      <g>
       <use xlink:href="#m219bf8056f" x="68.76" y="307.584" style="stroke: #000000; stroke-width: 0.8"/>
      </g>
     </g>
     <g id="text_1">
      <!-- 0 -->
      <g transform="translate(66.26 321.576187)scale(0.1 -0.1)">
       <defs>
        <path id="FangSong-30" d="M 1575 4125 
Q 1225 4125 987 3587 
Q 750 3050 750 2150 
Q 750 1200 987 675 
Q 1225 150 1575 150 
Q 1950 150 2162 675 
Q 2375 1200 2375 2150 
Q 2375 3050 2175 3587 
Q 1975 4125 1575 4125 
z
M 1575 -50 
Q 1025 -50 650 525 
Q 275 1100 275 2150 
Q 275 3125 637 3725 
Q 1000 4325 1575 4325 
Q 2125 4325 2487 3750 
Q 2850 3175 2850 2150 
Q 2850 1125 2487 537 
Q 2125 -50 1575 -50 
z
" transform="scale(0.015625)"/>
       </defs>
       <use xlink:href="#FangSong-30"/>
      </g>
     </g>
    </g>
    <g id="xtick_2">
     <g id="line2d_2">
      <g>
       <use xlink:href="#m219bf8056f" x="119.487273" y="307.584" style="stroke: #000000; stroke-width: 0.8"/>
      </g>
     </g>
     <g id="text_2">
      <!-- 10 -->
      <g transform="translate(114.487273 321.576187)scale(0.1 -0.1)">
       <defs>
        <path id="FangSong-31" d="M 1800 4350 
L 1800 550 
Q 1800 350 1925 250 
Q 2050 150 2275 150 
L 2525 150 
L 2525 0 
L 700 0 
L 700 150 
L 925 150 
Q 1175 150 1287 250 
Q 1400 350 1400 550 
L 1400 3575 
Q 1400 3675 1337 3737 
Q 1275 3800 1150 3800 
L 700 3800 
L 700 3950 
L 925 3950 
Q 1225 3950 1412 4050 
Q 1600 4150 1700 4350 
L 1800 4350 
z
" transform="scale(0.015625)"/>
       </defs>
       <use xlink:href="#FangSong-31"/>
       <use xlink:href="#FangSong-30" x="50"/>
      </g>
     </g>
    </g>
    <g id="xtick_3">
     <g id="line2d_3">
      <g>
       <use xlink:href="#m219bf8056f" x="170.214545" y="307.584" style="stroke: #000000; stroke-width: 0.8"/>
      </g>
     </g>
     <g id="text_3">
      <!-- 20 -->
      <g transform="translate(165.214545 321.576187)scale(0.1 -0.1)">
       <defs>
        <path id="FangSong-32" d="M 2300 3225 
Q 2300 3675 2100 3912 
Q 1900 4150 1500 4150 
Q 1200 4150 987 3987 
Q 775 3825 775 3575 
Q 775 3425 862 3325 
Q 950 3225 950 3125 
Q 950 3000 887 2937 
Q 825 2875 700 2875 
Q 550 2875 462 2962 
Q 375 3050 375 3250 
Q 375 3775 750 4050 
Q 1125 4325 1550 4325 
Q 2150 4325 2437 4025 
Q 2725 3725 2725 3275 
Q 2725 2975 2587 2675 
Q 2450 2375 2150 2100 
Q 1425 1400 1037 962 
Q 650 525 575 375 
L 2050 375 
Q 2275 375 2425 550 
Q 2575 725 2625 1075 
L 2775 1075 
L 2625 0 
L 300 0 
L 300 325 
Q 425 550 712 900 
Q 1000 1250 1475 1725 
Q 1900 2150 2100 2525 
Q 2300 2900 2300 3225 
z
" transform="scale(0.015625)"/>
       </defs>
       <use xlink:href="#FangSong-32"/>
       <use xlink:href="#FangSong-30" x="50"/>
      </g>
     </g>
    </g>
    <g id="xtick_4">
     <g id="line2d_4">
      <g>
       <use xlink:href="#m219bf8056f" x="220.941818" y="307.584" style="stroke: #000000; stroke-width: 0.8"/>
      </g>
     </g>
     <g id="text_4">
      <!-- 30 -->
      <g transform="translate(215.941818 321.576187)scale(0.1 -0.1)">
       <defs>
        <path id="FangSong-33" d="M 2775 1150 
Q 2775 675 2425 312 
Q 2075 -50 1450 -50 
Q 1000 -50 675 200 
Q 350 450 350 775 
Q 350 925 450 1037 
Q 550 1150 650 1150 
Q 800 1150 862 1037 
Q 925 925 925 850 
Q 925 725 875 637 
Q 825 550 825 475 
Q 825 325 1012 225 
Q 1200 125 1425 125 
Q 1875 125 2100 387 
Q 2325 650 2325 1200 
Q 2325 1650 2087 1925 
Q 1850 2200 1200 2200 
L 1200 2375 
Q 1700 2375 1937 2612 
Q 2175 2850 2175 3275 
Q 2175 3625 1987 3887 
Q 1800 4150 1400 4150 
Q 1225 4150 1025 4062 
Q 825 3975 825 3775 
Q 825 3575 875 3525 
Q 925 3475 925 3400 
Q 925 3275 875 3200 
Q 825 3125 700 3125 
Q 600 3125 512 3200 
Q 425 3275 425 3475 
Q 425 3850 750 4087 
Q 1075 4325 1500 4325 
Q 2000 4325 2300 4012 
Q 2600 3700 2600 3350 
Q 2600 2975 2412 2712 
Q 2225 2450 1825 2325 
Q 2375 2125 2575 1800 
Q 2775 1475 2775 1150 
z
" transform="scale(0.015625)"/>
       </defs>
       <use xlink:href="#FangSong-33"/>
       <use xlink:href="#FangSong-30" x="50"/>
      </g>
     </g>
    </g>
    <g id="xtick_5">
     <g id="line2d_5">
      <g>
       <use xlink:href="#m219bf8056f" x="271.669091" y="307.584" style="stroke: #000000; stroke-width: 0.8"/>
      </g>
     </g>
     <g id="text_5">
      <!-- 40 -->
      <g transform="translate(266.669091 321.576187)scale(0.1 -0.1)">
       <defs>
        <path id="FangSong-34" d="M 2275 475 
Q 2275 300 2375 225 
Q 2475 150 2650 150 
L 2875 150 
L 2875 0 
L 1225 0 
L 1225 150 
L 1500 150 
Q 1700 150 1787 225 
Q 1875 300 1875 475 
L 1875 1300 
L 200 1300 
L 200 1425 
L 2025 4325 
L 2275 4325 
L 2275 1450 
L 2950 1450 
L 2950 1300 
L 2275 1300 
L 2275 475 
z
M 1850 3700 
L 425 1450 
L 1875 1450 
L 1875 3700 
L 1850 3700 
z
" transform="scale(0.015625)"/>
       </defs>
       <use xlink:href="#FangSong-34"/>
       <use xlink:href="#FangSong-30" x="50"/>
      </g>
     </g>
    </g>
    <g id="xtick_6">
     <g id="line2d_6">
      <g>
       <use xlink:href="#m219bf8056f" x="322.396364" y="307.584" style="stroke: #000000; stroke-width: 0.8"/>
      </g>
     </g>
     <g id="text_6">
      <!-- 50 -->
      <g transform="translate(317.396364 321.576187)scale(0.1 -0.1)">
       <defs>
        <path id="FangSong-35" d="M 1700 2750 
Q 2175 2750 2475 2387 
Q 2775 2025 2775 1425 
Q 2775 750 2462 350 
Q 2150 -50 1500 -50 
Q 1050 -50 700 212 
Q 350 475 350 850 
Q 350 1000 437 1112 
Q 525 1225 675 1225 
Q 825 1225 875 1125 
Q 925 1025 925 950 
Q 925 800 850 712 
Q 775 625 775 525 
Q 775 325 1012 225 
Q 1250 125 1525 125 
Q 1925 125 2137 450 
Q 2350 775 2350 1375 
Q 2350 1875 2162 2187 
Q 1975 2500 1600 2500 
Q 1325 2500 1125 2400 
Q 925 2300 750 1975 
L 525 2000 
L 650 4275 
L 2700 4275 
L 2625 3900 
L 825 3900 
L 725 2250 
Q 975 2600 1212 2675 
Q 1450 2750 1700 2750 
z
" transform="scale(0.015625)"/>
       </defs>
       <use xlink:href="#FangSong-35"/>
       <use xlink:href="#FangSong-30" x="50"/>
      </g>
     </g>
    </g>
    <g id="xtick_7">
     <g id="line2d_7">
      <g>
       <use xlink:href="#m219bf8056f" x="373.123636" y="307.584" style="stroke: #000000; stroke-width: 0.8"/>
      </g>
     </g>
     <g id="text_7">
      <!-- 60 -->
      <g transform="translate(368.123636 321.576187)scale(0.1 -0.1)">
       <defs>
        <path id="FangSong-36" d="M 750 1700 
Q 750 950 1012 537 
Q 1275 125 1650 125 
Q 2025 125 2225 400 
Q 2425 675 2425 1425 
Q 2425 1925 2212 2200 
Q 2000 2475 1700 2475 
Q 1425 2475 1187 2312 
Q 950 2150 750 1700 
z
M 1725 2725 
Q 2325 2725 2587 2325 
Q 2850 1925 2850 1425 
Q 2850 675 2487 312 
Q 2125 -50 1650 -50 
Q 975 -50 625 462 
Q 275 975 275 1950 
Q 275 3100 700 3712 
Q 1125 4325 1850 4325 
Q 2200 4325 2412 4125 
Q 2625 3925 2625 3775 
Q 2625 3625 2562 3550 
Q 2500 3475 2350 3475 
Q 2225 3475 2162 3537 
Q 2100 3600 2100 3725 
Q 2100 3775 2112 3825 
Q 2125 3875 2125 3925 
Q 2125 4025 2050 4087 
Q 1975 4150 1775 4150 
Q 1350 4150 1050 3762 
Q 750 3375 750 2075 
Q 900 2400 1162 2562 
Q 1425 2725 1725 2725 
z
" transform="scale(0.015625)"/>
       </defs>
       <use xlink:href="#FangSong-36"/>
       <use xlink:href="#FangSong-30" x="50"/>
      </g>
     </g>
    </g>
    <g id="text_8">
     <!-- 响应比 -->
     <g transform="translate(221.16 334.873062)scale(0.1 -0.1)">
      <defs>
       <path id="FangSong-54cd" d="M 2700 -200 
Q 2725 -650 2625 -525 
L 2375 -125 
Q 2500 50 2475 350 
L 2500 3200 
Q 2500 3625 2425 4100 
L 2500 4125 
L 2725 3575 
L 3300 3625 
Q 3550 4225 3675 4637 
Q 3800 5050 3700 5150 
L 3775 5200 
L 4125 4750 
Q 4050 4800 3900 4512 
Q 3750 4225 3500 3650 
L 5275 3850 
L 5425 4125 
L 5725 3850 
L 5575 3650 
Q 5500 -175 5175 -675 
Q 4800 -275 4175 250 
L 4225 350 
L 5050 -175 
Q 5275 525 5325 3625 
L 2725 3325 
L 2700 -200 
z
M 725 3250 
Q 725 3575 625 3925 
L 725 3975 
L 950 3525 
L 1750 3650 
L 1875 3875 
L 2175 3650 
L 2000 3450 
L 1925 2175 
L 2125 1950 
L 1000 1800 
Q 1025 1275 900 1350 
L 650 1750 
Q 775 1850 750 2150 
L 725 3250 
z
M 3550 1250 
Q 3575 950 3500 875 
L 3225 1200 
Q 3300 1350 3300 1525 
L 3275 2325 
Q 3275 2700 3200 2875 
L 3275 2925 
L 3500 2625 
L 4350 2725 
L 4500 2925 
L 4775 2675 
L 4600 2475 
L 4525 1575 
L 4750 1400 
L 3550 1250 
z
M 975 3275 
L 1000 2050 
L 1675 2150 
L 1775 3425 
L 975 3275 
z
M 4350 2475 
L 3500 2375 
L 3525 1500 
L 4275 1575 
L 4350 2475 
z
" transform="scale(0.015625)"/>
       <path id="FangSong-5e94" d="M 1625 4400 
L 1800 3800 
Q 5075 4050 5200 4175 
L 5525 3850 
Q 5200 3900 1825 3550 
Q 1775 2450 1675 1825 
Q 1575 1200 1312 612 
Q 1050 25 500 -600 
L 425 -525 
Q 850 50 1100 675 
Q 1350 1300 1425 1862 
Q 1500 2425 1550 3150 
Q 1600 3875 1550 4375 
L 1625 4400 
z
M 4725 3175 
L 5100 2725 
Q 5000 2800 4750 2112 
Q 4500 1425 4000 150 
Q 5425 225 5400 275 
L 5725 0 
Q 5425 0 3687 -112 
Q 1950 -225 1725 -275 
L 1350 25 
Q 2150 0 3800 125 
Q 4300 1500 4525 2200 
Q 4750 2900 4650 3125 
L 4725 3175 
z
M 2900 1150 
Q 2800 975 2650 725 
Q 2450 1625 2175 2550 
L 2275 2575 
Q 2600 1850 2900 1150 
z
M 3775 1550 
Q 3675 1350 3525 1150 
Q 3475 1600 3075 3050 
L 3150 3075 
Q 3475 2300 3775 1550 
z
M 3500 4100 
Q 3275 4675 3000 5225 
L 3075 5275 
Q 3375 4900 3700 4525 
Q 3600 4325 3500 4100 
z
" transform="scale(0.015625)"/>
       <path id="FangSong-6bd4" d="M 3500 2125 
Q 3925 2425 4487 2975 
Q 5050 3525 4950 3750 
L 5025 3775 
L 5250 3225 
Q 5175 3250 4875 3000 
Q 4575 2750 4287 2525 
Q 4000 2300 3500 1900 
L 3500 575 
Q 3475 -100 4150 -100 
L 4800 -100 
Q 5275 -100 5375 12 
Q 5475 125 5450 1350 
L 5575 1350 
Q 5600 825 5637 412 
Q 5675 0 5800 -175 
Q 5375 -325 4800 -325 
L 4150 -325 
Q 3225 -350 3275 550 
L 3275 4300 
Q 3275 4875 3150 5150 
L 3200 5200 
L 3625 4850 
Q 3475 4825 3500 4250 
L 3500 2125 
z
M 1500 2575 
Q 1900 2625 2337 2712 
Q 2775 2800 2800 2850 
L 3075 2600 
Q 2875 2575 2350 2475 
Q 1825 2375 1775 2325 
L 1500 2525 
L 1500 150 
L 2925 1075 
L 2975 1025 
Q 1550 -75 1375 -350 
L 1200 0 
Q 1275 75 1275 350 
L 1275 3925 
Q 1275 4475 1150 4750 
L 1200 4800 
L 1625 4400 
Q 1475 4375 1500 3925 
L 1500 2575 
z
" transform="scale(0.015625)"/>
      </defs>
      <use xlink:href="#FangSong-54cd"/>
      <use xlink:href="#FangSong-5e94" x="100"/>
      <use xlink:href="#FangSong-6bd4" x="200"/>
     </g>
    </g>
   </g>
   <g id="matplotlib.axis_2">
    <g id="ytick_1">
     <g id="line2d_8">
      <defs>
       <path id="m75f41598ee" d="M 0 0 
L -3.5 0 
" style="stroke: #000000; stroke-width: 0.8"/>
      </defs>
      <g>
       <use xlink:href="#m75f41598ee" x="57.6" y="295.488" style="stroke: #000000; stroke-width: 0.8"/>
      </g>
     </g>
     <g id="text_9">
      <!-- 0% -->
      <g transform="translate(40.6 298.984094)scale(0.1 -0.1)">
       <defs>
        <path id="FangSong-25" d="M 725 4150 
Q 575 4150 475 3950 
Q 375 3750 375 3200 
Q 375 2575 487 2387 
Q 600 2200 725 2200 
Q 900 2200 987 2425 
Q 1075 2650 1075 3200 
Q 1075 3650 1012 3900 
Q 950 4150 725 4150 
z
M 1400 3175 
Q 1400 2725 1250 2387 
Q 1100 2050 725 2050 
Q 425 2050 237 2350 
Q 50 2650 50 3175 
Q 50 3725 250 4025 
Q 450 4325 725 4325 
Q 1025 4325 1212 4012 
Q 1400 3700 1400 3175 
z
M 2700 1100 
Q 2700 1525 2625 1800 
Q 2550 2075 2350 2075 
Q 2200 2075 2100 1837 
Q 2000 1600 2000 1100 
Q 2000 475 2112 300 
Q 2225 125 2350 125 
Q 2525 125 2612 337 
Q 2700 550 2700 1100 
z
M 3025 1075 
Q 3025 575 2850 262 
Q 2675 -50 2350 -50 
Q 2075 -50 1875 262 
Q 1675 575 1675 1075 
Q 1675 1625 1875 1937 
Q 2075 2250 2350 2250 
Q 2650 2250 2837 1925 
Q 3025 1600 3025 1075 
z
M 2500 4250 
L 700 -50 
L 550 25 
L 2325 4325 
L 2500 4250 
z
" transform="scale(0.015625)"/>
       </defs>
       <use xlink:href="#FangSong-30"/>
       <use xlink:href="#FangSong-25" x="50"/>
      </g>
     </g>
    </g>
    <g id="ytick_2">
     <g id="line2d_9">
      <g>
       <use xlink:href="#m75f41598ee" x="57.6" y="247.104" style="stroke: #000000; stroke-width: 0.8"/>
      </g>
     </g>
     <g id="text_10">
      <!-- 20% -->
      <g transform="translate(35.6 250.600094)scale(0.1 -0.1)">
       <use xlink:href="#FangSong-32"/>
       <use xlink:href="#FangSong-30" x="50"/>
       <use xlink:href="#FangSong-25" x="100"/>
      </g>
     </g>
    </g>
    <g id="ytick_3">
     <g id="line2d_10">
      <g>
       <use xlink:href="#m75f41598ee" x="57.6" y="198.72" style="stroke: #000000; stroke-width: 0.8"/>
      </g>
     </g>
     <g id="text_11">
      <!-- 40% -->
      <g transform="translate(35.6 202.216094)scale(0.1 -0.1)">
       <use xlink:href="#FangSong-34"/>
       <use xlink:href="#FangSong-30" x="50"/>
       <use xlink:href="#FangSong-25" x="100"/>
      </g>
     </g>
    </g>
    <g id="ytick_4">
     <g id="line2d_11">
      <g>
       <use xlink:href="#m75f41598ee" x="57.6" y="150.336" style="stroke: #000000; stroke-width: 0.8"/>
      </g>
     </g>
     <g id="text_12">
      <!-- 60% -->
      <g transform="translate(35.6 153.832094)scale(0.1 -0.1)">
       <use xlink:href="#FangSong-36"/>
       <use xlink:href="#FangSong-30" x="50"/>
       <use xlink:href="#FangSong-25" x="100"/>
      </g>
     </g>
    </g>
    <g id="ytick_5">
     <g id="line2d_12">
      <g>
       <use xlink:href="#m75f41598ee" x="57.6" y="101.952" style="stroke: #000000; stroke-width: 0.8"/>
      </g>
     </g>
     <g id="text_13">
      <!-- 80% -->
      <g transform="translate(35.6 105.448094)scale(0.1 -0.1)">
       <defs>
        <path id="FangSong-38" d="M 600 1025 
Q 600 625 862 375 
Q 1125 125 1525 125 
Q 2000 125 2212 375 
Q 2425 625 2425 1000 
Q 2425 1325 2125 1625 
Q 1825 1925 1225 2175 
Q 925 1975 762 1675 
Q 600 1375 600 1025 
z
M 2800 1075 
Q 2800 600 2450 275 
Q 2100 -50 1525 -50 
Q 1000 -50 625 275 
Q 250 600 250 1025 
Q 250 1450 462 1750 
Q 675 2050 1075 2275 
Q 725 2450 537 2712 
Q 350 2975 350 3300 
Q 350 3725 675 4025 
Q 1000 4325 1575 4325 
Q 2100 4325 2425 4025 
Q 2750 3725 2750 3300 
Q 2750 3000 2562 2737 
Q 2375 2475 1975 2275 
Q 2400 2025 2600 1725 
Q 2800 1425 2800 1075 
z
M 2400 3275 
Q 2400 3625 2200 3887 
Q 2000 4150 1575 4150 
Q 1100 4150 900 3900 
Q 700 3650 700 3375 
Q 700 3100 987 2837 
Q 1275 2575 1800 2375 
Q 2100 2525 2250 2750 
Q 2400 2975 2400 3275 
z
" transform="scale(0.015625)"/>
       </defs>
       <use xlink:href="#FangSong-38"/>
       <use xlink:href="#FangSong-30" x="50"/>
       <use xlink:href="#FangSong-25" x="100"/>
      </g>
     </g>
    </g>
    <g id="ytick_6">
     <g id="line2d_13">
      <g>
       <use xlink:href="#m75f41598ee" x="57.6" y="53.568" style="stroke: #000000; stroke-width: 0.8"/>
      </g>
     </g>
     <g id="text_14">
      <!-- 100% -->
      <g transform="translate(30.6 57.064094)scale(0.1 -0.1)">
       <use xlink:href="#FangSong-31"/>
       <use xlink:href="#FangSong-30" x="50"/>
       <use xlink:href="#FangSong-30" x="100"/>
       <use xlink:href="#FangSong-25" x="150"/>
      </g>
     </g>
    </g>
    <g id="text_15">
     <!-- 累计完成比例 -->
     <g transform="translate(25.154688 204.528)rotate(-90)scale(0.1 -0.1)">
      <defs>
       <path id="FangSong-7d2f" d="M 4525 4975 
L 4700 5225 
L 5000 4950 
L 4825 4775 
L 4625 3550 
L 4850 3300 
L 3175 3150 
L 3375 2975 
Q 3200 2925 2862 2725 
Q 2525 2525 2075 2275 
L 3475 2500 
Q 3750 2675 3900 2800 
Q 4050 2925 4100 3075 
L 4175 3100 
L 4325 2700 
Q 4200 2675 3500 2237 
Q 2800 1800 2275 1550 
L 4375 1825 
L 3900 2175 
L 4000 2275 
Q 4625 1900 4950 1725 
Q 4975 1475 4925 1225 
Q 4800 1375 4500 1675 
L 3250 1475 
L 3525 1300 
Q 3375 1200 3375 875 
L 3375 25 
Q 3375 -325 3225 -625 
Q 2975 -325 2400 150 
L 2450 250 
L 3050 -75 
Q 3150 -125 3150 0 
L 3150 925 
Q 3150 1300 3125 1450 
Q 1875 1275 1575 1175 
L 1325 1425 
L 1850 1550 
Q 2175 1700 3250 2300 
Q 2075 2100 1875 2000 
L 1575 2250 
L 1800 2300 
Q 2150 2475 3025 3125 
L 2000 3025 
Q 2000 2675 1950 2700 
Q 1900 2725 1650 3025 
Q 1725 3250 1725 3425 
L 1650 4400 
Q 1625 4675 1525 4950 
L 1625 5000 
L 1875 4675 
L 4525 4975 
z
M 3150 3375 
L 3150 3875 
Q 2525 3800 2400 3725 
L 2100 3975 
Q 2500 3975 3150 4075 
L 3150 4600 
L 1900 4450 
L 1975 3250 
L 3150 3375 
z
M 3375 4100 
Q 3950 4175 4025 4225 
L 4275 4000 
Q 3950 3975 3375 3900 
L 3375 3400 
L 4400 3500 
L 4575 4750 
L 3375 4600 
L 3375 4100 
z
M 5450 -75 
Q 4975 325 3875 1025 
L 3950 1125 
Q 4850 700 5350 500 
Q 5425 250 5450 -75 
z
M 800 -250 
Q 1350 75 1825 500 
Q 2300 925 2325 1125 
L 2400 1150 
L 2550 725 
Q 2425 700 2075 425 
Q 1725 150 875 -350 
L 800 -250 
z
" transform="scale(0.015625)"/>
       <path id="FangSong-8ba1" d="M 4075 4200 
Q 4100 4825 3900 5100 
L 3975 5150 
L 4450 4725 
Q 4275 4600 4300 4200 
L 4275 3000 
Q 5525 3200 5575 3250 
L 5950 2950 
Q 5725 2975 4275 2800 
L 4250 -425 
Q 4250 -700 4150 -575 
L 3875 -150 
Q 4050 50 4025 300 
L 4050 2750 
Q 2975 2625 2900 2575 
L 2525 2825 
Q 2850 2825 4050 2975 
L 4075 4200 
z
M 1775 3250 
L 2100 2950 
L 1900 2750 
L 1875 550 
L 2825 1250 
L 2875 1175 
Q 1875 250 1750 -25 
L 1525 275 
Q 1625 375 1650 625 
L 1675 2775 
Q 900 2625 750 2550 
L 425 2800 
Q 850 2825 1650 3000 
L 1775 3250 
z
M 2025 3800 
Q 1825 4300 1325 4950 
L 1375 5025 
Q 1925 4575 2175 4300 
Q 2125 4000 2025 3800 
z
" transform="scale(0.015625)"/>
       <path id="FangSong-5b8c" d="M 5375 2050 
Q 4925 2050 3550 1950 
L 3850 1750 
Q 3725 1600 3700 1375 
L 3675 275 
Q 3650 -125 4075 -175 
L 4925 -175 
Q 5300 -150 5312 62 
Q 5325 275 5325 1025 
L 5425 1025 
Q 5450 750 5475 337 
Q 5500 -75 5700 -275 
Q 5400 -375 5000 -400 
L 4075 -400 
Q 3425 -350 3425 150 
L 3475 1450 
Q 3475 1775 3425 1925 
L 2675 1850 
L 2875 1650 
Q 2750 1550 2600 1200 
Q 2450 850 2025 312 
Q 1600 -225 600 -675 
L 550 -575 
Q 1525 -100 1987 625 
Q 2450 1350 2525 1850 
Q 1550 1775 1500 1725 
L 1150 2025 
Q 1625 2025 3212 2150 
Q 4800 2275 5000 2350 
L 5375 2050 
z
M 1650 3650 
Q 1550 3125 1325 2875 
L 1150 3250 
Q 1450 3425 1575 4400 
L 1675 4400 
L 1675 3900 
L 5025 4150 
L 5175 4400 
L 5525 4075 
Q 5375 4050 4725 3250 
L 4650 3325 
L 4975 3900 
L 1650 3650 
z
M 4475 2975 
Q 4225 2975 3412 2875 
Q 2600 2775 2400 2725 
L 2050 2975 
Q 2575 2975 3200 3075 
Q 3825 3175 4150 3225 
L 4475 2975 
z
M 3550 4575 
Q 3475 4350 3300 4150 
Q 3225 4475 2900 5200 
L 2975 5250 
Q 3350 4825 3550 4575 
z
" transform="scale(0.015625)"/>
       <path id="FangSong-6210" d="M 5575 975 
Q 5600 -150 5750 -625 
Q 4650 -225 4000 1075 
Q 3625 650 2975 225 
L 2925 325 
Q 3525 825 3900 1300 
Q 3600 2275 3500 3300 
L 1875 3125 
Q 1875 2625 1825 2100 
L 2725 2250 
L 2875 2475 
L 3175 2225 
L 3000 2050 
Q 2850 475 2575 -125 
Q 2225 400 1825 775 
L 1875 850 
L 2475 400 
Q 2650 875 2750 2000 
L 1825 1850 
Q 1675 250 600 -650 
L 525 -600 
Q 1250 250 1425 987 
Q 1600 1725 1625 2612 
Q 1650 3500 1550 3800 
L 1625 3825 
L 1850 3350 
L 3450 3525 
Q 3400 4150 3375 4562 
Q 3350 4975 3225 5200 
L 3275 5225 
L 3725 4900 
Q 3625 4925 3637 4575 
Q 3650 4225 3675 3550 
Q 4900 3700 5050 3775 
L 5325 3475 
Q 4775 3475 3725 3325 
Q 3775 2425 4075 1525 
Q 4500 2025 4687 2325 
Q 4875 2625 4800 2850 
L 4875 2875 
L 5125 2325 
Q 5075 2400 4850 2125 
Q 4625 1850 4150 1275 
Q 4625 225 5425 -125 
L 5475 975 
L 5575 975 
z
M 4100 5000 
Q 4525 4700 4875 4450 
Q 4825 4250 4750 4025 
Q 4400 4525 4025 4950 
L 4100 5000 
z
" transform="scale(0.015625)"/>
       <path id="FangSong-4f8b" d="M 3050 2000 
Q 3025 1800 2975 1600 
Q 2775 1900 2525 2250 
Q 2300 1875 2025 1550 
L 1925 1625 
Q 2675 2725 2975 3975 
Q 2475 3925 2375 3875 
L 2050 4125 
Q 2375 4125 3162 4225 
Q 3950 4325 4100 4450 
L 4350 4125 
Q 4050 4150 3100 3975 
L 3300 3700 
Q 3200 3675 3125 3525 
Q 3050 3375 2925 3050 
L 3625 3150 
L 3775 3350 
L 4050 3075 
L 3875 2900 
Q 3300 825 1850 -225 
L 1800 -100 
Q 3100 975 3625 2900 
Q 3150 2825 3025 2775 
L 2875 2925 
Q 2775 2675 2575 2350 
Q 2900 2125 3050 2000 
z
M 1275 -150 
Q 1425 25 1400 225 
L 1450 3425 
Q 1025 2800 475 2225 
L 400 2325 
Q 875 2850 1450 3887 
Q 2025 4925 1925 5150 
L 2000 5175 
L 2250 4700 
Q 2200 4725 2062 4475 
Q 1925 4225 1675 3800 
L 1625 -325 
Q 1650 -675 1525 -600 
L 1275 -150 
z
M 5475 250 
Q 5475 -300 5300 -650 
Q 4900 -100 4300 375 
L 4350 475 
L 5200 -75 
Q 5250 250 5250 575 
L 5250 4350 
Q 5275 4950 5100 5150 
L 5175 5225 
L 5600 4850 
Q 5450 4775 5475 4325 
L 5475 250 
z
M 4300 1525 
Q 4400 1650 4400 1900 
L 4400 3075 
Q 4425 3525 4300 3750 
L 4350 3800 
L 4725 3450 
Q 4600 3350 4625 3025 
L 4625 1375 
Q 4625 1050 4550 1125 
L 4300 1525 
z
" transform="scale(0.015625)"/>
      </defs>
      <use xlink:href="#FangSong-7d2f"/>
      <use xlink:href="#FangSong-8ba1" x="100"/>
      <use xlink:href="#FangSong-5b8c" x="200"/>
      <use xlink:href="#FangSong-6210" x="300"/>
      <use xlink:href="#FangSong-6bd4" x="400"/>
      <use xlink:href="#FangSong-4f8b" x="500"/>
     </g>
    </g>
   </g>
   <g id="line2d_14">
    <path d="M 73.832727 295.488 
L 74.34 289.68192 
L 74.847273 281.21472 
L 75.354545 276.37632 
L 76.369091 261.6192 
L 77.890909 247.104 
L 78.398182 243.71712 
L 78.905455 241.53984 
L 79.412727 238.6368 
L 80.427273 234.52416 
L 81.441818 231.3792 
L 81.949091 229.92768 
L 82.456364 227.26656 
L 82.963636 226.05696 
L 83.470909 224.36352 
L 84.992727 217.58976 
L 85.5 215.6544 
L 86.007273 213.2352 
L 87.021818 210.57408 
L 88.036364 208.63872 
L 88.543636 206.70336 
L 89.050909 204.04224 
L 89.558182 203.07456 
L 90.065455 201.62304 
L 91.08 200.17152 
L 91.587273 199.20384 
L 92.094545 195.81696 
L 92.601818 194.60736 
L 93.109091 192.91392 
L 93.616364 191.70432 
L 94.123636 189.0432 
L 94.630909 188.31744 
L 95.645455 186.38208 
L 96.66 183.96288 
L 97.167273 181.30176 
L 97.674545 179.3664 
L 98.181818 178.1568 
L 98.689091 176.46336 
L 99.196364 174.28608 
L 99.703636 174.04416 
L 100.718182 171.38304 
L 101.225455 171.14112 
L 101.732727 170.17344 
L 102.24 167.99616 
L 102.747273 167.2704 
L 103.254545 166.30272 
L 103.761818 163.6416 
L 104.269091 163.39968 
L 104.776364 162.67392 
L 105.790909 159.77088 
L 106.298182 158.8032 
L 106.805455 156.86784 
L 107.82 153.72288 
L 108.327273 151.78752 
L 108.834545 149.1264 
L 109.341818 147.9168 
L 109.849091 145.98144 
L 110.356364 143.0784 
L 110.863636 141.38496 
L 111.370909 139.20768 
L 111.878182 138.24 
L 112.385455 136.30464 
L 112.892727 135.57888 
L 113.4 134.36928 
L 114.414545 131.22432 
L 115.429091 128.80512 
L 115.936364 128.07936 
L 116.950909 126.144 
L 117.458182 125.66016 
L 117.965455 124.45056 
L 118.472727 123.7248 
L 118.98 122.5152 
L 119.487273 122.03136 
L 119.994545 120.57984 
L 120.501818 120.33792 
L 121.009091 119.61216 
L 121.516364 119.37024 
L 122.023636 118.8864 
L 123.038182 118.40256 
L 123.545455 117.91872 
L 124.052727 117.6768 
L 124.56 117.6768 
L 125.067273 117.43488 
L 125.574545 117.43488 
L 126.081818 116.95104 
L 126.589091 115.98336 
L 127.603636 115.49952 
L 128.618182 115.49952 
L 129.125455 115.2576 
L 129.632727 115.2576 
L 130.14 115.01568 
L 130.647273 115.01568 
L 131.661818 114.53184 
L 132.169091 114.048 
L 133.183636 113.56416 
L 133.690909 113.56416 
L 134.198182 113.08032 
L 134.705455 112.35456 
L 135.212727 111.87072 
L 137.749091 110.66112 
L 138.256364 110.66112 
L 138.763636 110.17728 
L 139.270909 109.93536 
L 139.778182 109.45152 
L 140.792727 109.45152 
L 141.807273 108.96768 
L 142.821818 108.96768 
L 143.329091 108.24192 
L 144.343636 108.24192 
L 144.850909 107.75808 
L 145.358182 107.75808 
L 145.865455 107.51616 
L 146.372727 107.51616 
L 146.88 107.27424 
L 148.401818 107.27424 
L 149.923636 106.54848 
L 150.430909 106.54848 
L 150.938182 106.30656 
L 151.952727 106.30656 
L 152.46 106.06464 
L 152.967273 105.5808 
L 153.981818 105.5808 
L 155.503636 104.85504 
L 156.010909 104.3712 
L 156.518182 104.12928 
L 158.547273 104.12928 
L 159.054545 103.88736 
L 159.561818 103.88736 
L 160.576364 103.40352 
L 161.083636 103.40352 
L 161.590909 103.1616 
L 162.098182 103.1616 
L 162.605455 102.67776 
L 163.112727 102.67776 
L 164.127273 102.19392 
L 164.634545 102.19392 
L 165.141818 100.98432 
L 165.649091 100.25856 
L 166.663636 99.77472 
L 167.678182 99.77472 
L 169.2 99.04896 
L 169.707273 99.04896 
L 170.214545 98.80704 
L 170.721818 98.3232 
L 171.229091 98.08128 
L 171.736364 97.59744 
L 172.243636 97.35552 
L 172.750909 96.62976 
L 173.765455 96.14592 
L 175.794545 96.14592 
L 176.301818 95.66208 
L 177.316364 95.66208 
L 177.823636 95.42016 
L 178.330909 95.42016 
L 178.838182 95.17824 
L 179.852727 95.17824 
L 180.867273 94.6944 
L 181.374545 94.6944 
L 183.403636 93.72672 
L 184.418182 93.72672 
L 184.925455 93.4848 
L 187.461818 93.4848 
L 187.969091 93.24288 
L 190.505455 93.24288 
L 191.012727 93.00096 
L 192.534545 93.00096 
L 193.041818 92.75904 
L 196.085455 92.75904 
L 196.592727 92.51712 
L 197.607273 92.51712 
L 198.114545 92.2752 
L 200.650909 92.2752 
L 201.158182 92.03328 
L 205.723636 92.03328 
L 207.245455 91.30752 
L 208.26 91.30752 
L 208.767273 91.0656 
L 211.303636 91.0656 
L 211.810909 90.58176 
L 213.84 90.58176 
L 214.347273 90.33984 
L 215.361818 90.33984 
L 216.376364 89.856 
L 217.390909 89.856 
L 217.898182 89.61408 
L 218.912727 89.61408 
L 219.42 89.37216 
L 220.941818 89.37216 
L 221.449091 89.13024 
L 224.492727 89.13024 
L 225 88.88832 
L 227.029091 88.88832 
L 227.536364 88.6464 
L 228.043636 88.6464 
L 229.058182 88.16256 
L 229.565455 87.4368 
L 231.087273 87.4368 
L 231.594545 87.19488 
L 235.145455 87.19488 
L 235.652727 86.71104 
L 236.16 86.71104 
L 236.667273 86.46912 
L 242.754545 86.46912 
L 243.261818 86.2272 
L 244.276364 85.25952 
L 244.783636 85.0176 
L 247.827273 85.0176 
L 248.334545 84.77568 
L 249.349091 84.77568 
L 249.856364 84.53376 
L 250.870909 84.53376 
L 251.378182 84.29184 
L 251.885455 84.29184 
L 252.9 83.808 
L 253.914545 83.808 
L 254.421818 83.32416 
L 255.436364 83.32416 
L 255.943636 83.08224 
L 256.450909 83.08224 
L 256.958182 82.84032 
L 257.465455 82.84032 
L 257.972727 82.5984 
L 258.987273 82.5984 
L 259.494545 81.63072 
L 260.509091 81.63072 
L 262.030909 80.90496 
L 263.045455 80.90496 
L 264.06 80.42112 
L 265.074545 80.42112 
L 265.581818 80.1792 
L 266.089091 79.69536 
L 266.596364 79.69536 
L 267.103636 79.21152 
L 268.118182 78.72768 
L 268.625455 78.72768 
L 269.132727 78.48576 
L 269.64 78.48576 
L 270.654545 78.00192 
L 271.161818 77.27616 
L 271.669091 77.27616 
L 272.176364 76.79232 
L 273.190909 76.30848 
L 274.205455 76.30848 
L 274.712727 76.06656 
L 275.22 76.06656 
L 275.727273 75.82464 
L 276.234545 75.82464 
L 277.756364 75.09888 
L 278.263636 75.09888 
L 278.770909 74.85696 
L 279.278182 74.85696 
L 279.785455 74.61504 
L 280.292727 74.61504 
L 280.8 73.40544 
L 281.814545 73.40544 
L 282.321818 73.16352 
L 283.336364 73.16352 
L 284.350909 72.67968 
L 286.38 72.67968 
L 286.887273 72.19584 
L 287.901818 71.712 
L 288.409091 71.22816 
L 290.438182 71.22816 
L 290.945455 70.98624 
L 291.452727 70.98624 
L 291.96 70.74432 
L 292.467273 70.74432 
L 292.974545 70.5024 
L 293.481818 70.5024 
L 293.989091 70.26048 
L 294.496364 70.26048 
L 295.510909 69.77664 
L 296.018182 69.77664 
L 296.525455 69.53472 
L 300.583636 69.53472 
L 301.090909 69.2928 
L 301.598182 69.2928 
L 302.105455 68.56704 
L 302.612727 68.0832 
L 303.12 67.84128 
L 304.134545 67.84128 
L 304.641818 67.35744 
L 306.163636 67.35744 
L 308.192727 66.38976 
L 308.7 65.664 
L 310.221818 65.664 
L 310.729091 65.42208 
L 311.236364 65.42208 
L 311.743636 65.18016 
L 313.772727 65.18016 
L 314.28 64.93824 
L 315.801818 64.93824 
L 316.309091 64.69632 
L 317.830909 64.69632 
L 318.845455 64.21248 
L 319.352727 63.72864 
L 319.86 63.48672 
L 320.367273 63.48672 
L 320.874545 63.2448 
L 322.903636 63.2448 
L 324.425455 62.51904 
L 325.44 62.51904 
L 326.961818 61.79328 
L 328.483636 61.79328 
L 328.990909 61.55136 
L 329.498182 61.55136 
L 330.005455 61.30944 
L 331.527273 61.30944 
L 332.541818 60.8256 
L 333.556364 60.8256 
L 334.063636 60.34176 
L 336.092727 60.34176 
L 337.614545 59.616 
L 338.121818 59.616 
L 338.629091 59.13216 
L 339.136364 58.89024 
L 342.18 58.89024 
L 342.687273 58.64832 
L 343.701818 58.64832 
L 344.209091 58.4064 
L 345.223636 58.4064 
L 345.730909 58.16448 
L 346.745455 58.16448 
L 347.252727 57.68064 
L 347.76 57.68064 
L 348.774545 57.1968 
L 349.281818 57.1968 
L 349.789091 56.95488 
L 355.876364 56.95488 
L 356.383636 56.71296 
L 360.441818 56.71296 
L 360.949091 56.47104 
L 363.992727 56.47104 
L 364.5 56.22912 
L 366.021818 56.22912 
L 366.529091 55.9872 
L 367.543636 55.9872 
L 368.050909 55.74528 
L 371.601818 55.74528 
L 372.616364 55.26144 
L 373.630909 55.26144 
L 374.138182 55.01952 
L 375.66 55.01952 
L 376.167273 54.7776 
L 376.674545 54.7776 
L 377.181818 54.53568 
L 379.210909 54.53568 
L 379.718182 54.29376 
L 383.269091 54.29376 
L 383.776364 54.05184 
L 391.385455 54.05184 
L 391.892727 53.80992 
L 397.98 53.80992 
L 398.487273 53.568 
L 398.487273 53.568 
" clip-path="url(#p3fb96bfa7b)" style="fill: none; stroke: #ff0000; stroke-linecap: square"/>
   </g>
   <g id="line2d_15">
    <path d="M 73.832727 295.488 
L 74.34 282.264077 
L 74.847273 262.817132 
L 75.354545 250.371087 
L 76.369091 207.587807 
L 77.890909 166.360283 
L 78.398182 156.247871 
L 78.905455 153.914238 
L 80.427273 144.579704 
L 81.949091 142.246071 
L 82.456364 142.246071 
L 83.978182 139.912437 
L 84.992727 136.800926 
L 85.5 136.800926 
L 86.007273 136.023048 
L 87.021818 136.023048 
L 87.529091 134.467293 
L 88.543636 134.467293 
L 89.050909 133.689415 
L 91.08 133.689415 
L 93.109091 130.577904 
L 93.616364 130.577904 
L 94.123636 129.022148 
L 94.630909 129.022148 
L 97.167273 125.132759 
L 97.674545 121.24337 
L 98.181818 120.465492 
L 98.689091 117.353981 
L 99.196364 112.686714 
L 99.703636 111.908836 
L 100.718182 108.797325 
L 101.225455 108.797325 
L 101.732727 107.241569 
L 102.24 107.241569 
L 103.254545 105.685814 
L 103.761818 103.35218 
L 104.269091 103.35218 
L 105.790909 101.018547 
L 106.298182 98.684913 
L 106.805455 97.129158 
L 107.312727 94.795524 
L 107.82 94.795524 
L 108.327273 94.017646 
L 108.834545 87.794624 
L 109.341818 86.238868 
L 110.356364 74.570701 
L 110.863636 71.45919 
L 111.370909 69.125556 
L 111.878182 68.347678 
L 112.385455 65.236167 
L 112.892727 65.236167 
L 113.4 64.458289 
L 113.907273 62.902534 
L 114.414545 62.124656 
L 114.921818 62.124656 
L 115.429091 59.791023 
L 115.936364 59.013145 
L 116.443636 55.901633 
L 116.950909 55.901633 
L 117.458182 55.123756 
L 117.965455 55.123756 
L 118.98 53.568 
L 398.487273 53.568 
L 398.487273 53.568 
" clip-path="url(#p3fb96bfa7b)" style="fill: none; stroke-dasharray: 1.85,0.8; stroke-dashoffset: 0; stroke: #008000; stroke-width: 0.5"/>
   </g>
   <g id="line2d_16">
    <path d="M 73.832727 295.488 
L 74.34 289.053957 
L 75.354545 286.48034 
L 76.876364 278.759489 
L 77.383636 278.759489 
L 77.890909 276.185872 
L 78.398182 274.899064 
L 79.412727 263.317787 
L 79.92 258.170553 
L 80.427273 255.596936 
L 80.934545 250.449702 
L 81.441818 249.162894 
L 81.949091 244.01566 
L 82.456364 236.294809 
L 82.963636 235.008 
L 83.470909 231.147574 
L 83.978182 223.426723 
L 84.485455 218.279489 
L 84.992727 210.558638 
L 86.007273 191.256511 
L 86.514545 186.109277 
L 87.021818 182.248851 
L 87.529091 180.962043 
L 88.036364 177.101617 
L 88.543636 170.667574 
L 89.050909 166.807149 
L 89.558182 164.233532 
L 90.065455 162.946723 
L 90.572727 160.373106 
L 91.08 159.086298 
L 92.094545 153.939064 
L 92.601818 152.652255 
L 93.109091 150.078638 
L 93.616364 150.078638 
L 94.123636 147.505021 
L 94.630909 146.218213 
L 95.645455 146.218213 
L 96.152727 144.931404 
L 96.66 144.931404 
L 97.167273 143.644596 
L 97.674545 143.644596 
L 98.181818 142.357787 
L 98.689091 139.78417 
L 105.283636 139.78417 
L 105.790909 138.497362 
L 106.298182 138.497362 
L 106.805455 137.210553 
L 108.327273 137.210553 
L 108.834545 135.923745 
L 113.4 135.923745 
L 114.414545 133.350128 
L 121.009091 133.350128 
L 121.516364 132.063319 
L 122.530909 132.063319 
L 123.038182 130.776511 
L 123.545455 130.776511 
L 124.052727 129.489702 
L 124.56 129.489702 
L 125.067273 128.202894 
L 129.632727 128.202894 
L 130.14 126.916085 
L 131.661818 126.916085 
L 132.169091 125.629277 
L 133.690909 125.629277 
L 134.198182 123.05566 
L 135.212727 123.05566 
L 137.749091 116.621617 
L 138.256364 116.621617 
L 139.270909 114.048 
L 140.792727 114.048 
L 141.3 112.761191 
L 142.821818 112.761191 
L 143.329091 111.474383 
L 144.343636 111.474383 
L 144.850909 110.187574 
L 145.358182 110.187574 
L 145.865455 108.900766 
L 146.372727 108.900766 
L 146.88 107.613957 
L 148.909091 107.613957 
L 149.416364 106.327149 
L 153.981818 106.327149 
L 155.503636 102.466723 
L 156.010909 102.466723 
L 156.518182 101.179915 
L 158.547273 101.179915 
L 159.054545 99.893106 
L 159.561818 99.893106 
L 160.576364 97.319489 
L 161.083636 97.319489 
L 161.590909 96.032681 
L 162.098182 96.032681 
L 162.605455 93.459064 
L 163.112727 93.459064 
L 163.62 92.172255 
L 164.634545 92.172255 
L 165.141818 87.025021 
L 165.649091 83.164596 
L 166.156364 81.877787 
L 167.678182 81.877787 
L 169.2 78.017362 
L 169.707273 78.017362 
L 170.214545 76.730553 
L 170.721818 74.156936 
L 171.229091 72.870128 
L 171.736364 70.296511 
L 172.243636 69.009702 
L 172.750909 65.149277 
L 173.765455 62.57566 
L 178.330909 62.57566 
L 178.838182 61.288851 
L 181.374545 61.288851 
L 182.896364 57.428426 
L 184.418182 57.428426 
L 184.925455 56.141617 
L 187.461818 56.141617 
L 187.969091 54.854809 
L 190.505455 54.854809 
L 191.012727 53.568 
L 398.487273 53.568 
L 398.487273 53.568 
" clip-path="url(#p3fb96bfa7b)" style="fill: none; stroke-dasharray: 1.85,0.8; stroke-dashoffset: 0; stroke: #0000ff; stroke-width: 0.5"/>
   </g>
   <g id="line2d_17">
    <path d="M 73.832727 295.488 
L 74.34 292.90062 
L 74.847273 289.019551 
L 75.861818 286.432171 
L 78.905455 286.432171 
L 79.412727 282.551102 
L 80.427273 279.963722 
L 81.949091 279.963722 
L 82.456364 277.376342 
L 82.963636 277.376342 
L 84.485455 273.495273 
L 86.007273 273.495273 
L 86.514545 270.907893 
L 87.529091 268.320513 
L 88.036364 268.320513 
L 88.543636 267.026824 
L 89.050909 261.852064 
L 89.558182 260.558374 
L 90.065455 257.970995 
L 90.572727 257.970995 
L 91.587273 255.383615 
L 92.094545 248.915166 
L 93.109091 243.740406 
L 93.616364 239.859337 
L 94.123636 237.271957 
L 95.645455 237.271957 
L 96.152727 234.684578 
L 96.66 229.509818 
L 97.167273 223.041369 
L 97.674545 221.747679 
L 98.181818 219.160299 
L 99.196364 216.57292 
L 99.703636 216.57292 
L 100.718182 211.39816 
L 101.225455 210.104471 
L 101.732727 207.517091 
L 102.24 202.342332 
L 102.747273 201.048642 
L 103.761818 193.286503 
L 104.269091 193.286503 
L 105.283636 190.699123 
L 105.790909 185.524364 
L 106.298182 184.230674 
L 106.805455 179.055914 
L 107.312727 176.468535 
L 107.82 171.293775 
L 108.327273 167.412706 
L 108.834545 167.412706 
L 109.341818 166.119016 
L 109.849091 166.119016 
L 110.356364 164.825326 
L 110.863636 164.825326 
L 111.370909 159.650567 
L 111.878182 158.356877 
L 112.385455 158.356877 
L 112.892727 154.475807 
L 113.4 153.182118 
L 113.907273 153.182118 
L 114.414545 151.888428 
L 114.921818 149.301048 
L 116.950909 149.301048 
L 117.458182 148.007358 
L 117.965455 145.419979 
L 118.98 142.832599 
L 120.501818 142.832599 
L 121.009091 141.538909 
L 121.516364 141.538909 
L 122.023636 140.245219 
L 134.198182 140.245219 
L 134.705455 138.951529 
L 144.343636 138.951529 
L 144.850909 137.65784 
L 148.401818 137.65784 
L 148.909091 136.36415 
L 152.46 136.36415 
L 152.967273 135.07046 
L 155.503636 135.07046 
L 156.010909 133.77677 
L 175.794545 133.77677 
L 176.301818 132.48308 
L 180.36 132.48308 
L 180.867273 131.18939 
L 182.896364 131.18939 
L 183.403636 129.895701 
L 192.534545 129.895701 
L 193.041818 128.602011 
L 196.085455 128.602011 
L 196.592727 127.308321 
L 200.650909 127.308321 
L 201.158182 126.014631 
L 205.723636 126.014631 
L 207.245455 122.133561 
L 208.26 122.133561 
L 208.767273 120.839872 
L 211.303636 120.839872 
L 211.810909 118.252492 
L 215.361818 118.252492 
L 216.376364 115.665112 
L 218.912727 115.665112 
L 219.42 114.371422 
L 220.941818 114.371422 
L 221.449091 113.077733 
L 224.492727 113.077733 
L 225 111.784043 
L 228.043636 111.784043 
L 228.550909 110.490353 
L 229.058182 110.490353 
L 229.565455 109.196663 
L 231.087273 109.196663 
L 231.594545 107.902973 
L 236.16 107.902973 
L 236.667273 106.609283 
L 242.754545 106.609283 
L 243.261818 105.315594 
L 249.349091 105.315594 
L 249.856364 104.021904 
L 251.885455 104.021904 
L 252.392727 102.728214 
L 258.987273 102.728214 
L 259.494545 101.434524 
L 260.509091 101.434524 
L 261.016364 100.140834 
L 261.523636 100.140834 
L 262.030909 98.847144 
L 263.045455 98.847144 
L 264.06 96.259765 
L 266.596364 96.259765 
L 267.103636 93.672385 
L 267.610909 92.378695 
L 269.64 92.378695 
L 270.147273 91.085005 
L 270.654545 91.085005 
L 271.161818 87.203936 
L 272.176364 87.203936 
L 273.190909 84.616556 
L 274.205455 84.616556 
L 274.712727 83.322866 
L 276.234545 83.322866 
L 276.741818 82.029176 
L 278.263636 82.029176 
L 278.770909 80.735487 
L 280.292727 80.735487 
L 280.8 75.560727 
L 281.814545 75.560727 
L 282.321818 74.267037 
L 283.336364 74.267037 
L 284.350909 71.679658 
L 286.887273 71.679658 
L 288.409091 67.798588 
L 290.438182 67.798588 
L 290.945455 66.504898 
L 291.452727 66.504898 
L 291.96 65.211209 
L 293.481818 65.211209 
L 293.989091 63.917519 
L 296.018182 63.917519 
L 296.525455 62.623829 
L 301.598182 62.623829 
L 302.105455 61.330139 
L 302.612727 61.330139 
L 303.12 60.036449 
L 306.163636 60.036449 
L 306.670909 58.742759 
L 308.192727 58.742759 
L 308.7 57.44907 
L 318.338182 57.44907 
L 319.86 53.568 
L 398.487273 53.568 
L 398.487273 53.568 
" clip-path="url(#p3fb96bfa7b)" style="fill: none; stroke-dasharray: 1.85,0.8; stroke-dashoffset: 0; stroke: #bf00bf; stroke-width: 0.5"/>
   </g>
   <g id="line2d_18">
    <path d="M 73.832727 295.488 
L 74.34 295.488 
L 74.847273 290.865325 
L 75.354545 289.324433 
L 75.861818 288.553987 
L 76.369091 288.553987 
L 76.876364 287.783541 
L 77.383636 286.24265 
L 78.398182 286.24265 
L 79.412727 284.701758 
L 79.92 284.701758 
L 80.427273 283.931312 
L 80.934545 282.39042 
L 81.441818 279.308637 
L 81.949091 278.538191 
L 82.963636 273.915516 
L 84.485455 269.292841 
L 84.992727 268.522395 
L 85.5 268.522395 
L 86.007273 266.981503 
L 86.514545 266.981503 
L 87.021818 266.211057 
L 87.529091 266.211057 
L 88.036364 265.440611 
L 88.543636 263.89972 
L 89.050909 261.588382 
L 89.558182 260.817936 
L 90.065455 258.506599 
L 91.08 256.965707 
L 91.587273 256.965707 
L 92.094545 252.343032 
L 92.601818 251.572586 
L 93.616364 248.490803 
L 94.123636 244.638573 
L 94.630909 243.097682 
L 95.645455 238.475006 
L 96.152727 237.704561 
L 96.66 237.704561 
L 97.167273 234.622777 
L 97.674545 233.081885 
L 98.181818 232.311439 
L 98.689091 232.311439 
L 99.196364 230.770548 
L 99.703636 230.770548 
L 100.210909 229.229656 
L 100.718182 228.45921 
L 101.732727 228.45921 
L 102.24 224.606981 
L 102.747273 223.836535 
L 103.254545 223.836535 
L 103.761818 219.984306 
L 104.776364 218.443414 
L 105.283636 215.361631 
L 106.298182 215.361631 
L 107.312727 213.820739 
L 107.82 211.509401 
L 108.327273 208.427618 
L 109.341818 205.345834 
L 109.849091 205.345834 
L 110.356364 202.264051 
L 110.863636 199.952713 
L 111.878182 196.87093 
L 112.385455 193.789146 
L 112.892727 193.789146 
L 113.4 191.477809 
L 113.907273 188.396025 
L 114.921818 183.77335 
L 115.936364 180.691567 
L 116.443636 180.691567 
L 116.950909 177.609783 
L 117.458182 177.609783 
L 117.965455 175.298446 
L 118.472727 174.528 
L 118.98 172.216662 
L 119.487273 170.675771 
L 119.994545 166.053096 
L 120.501818 165.28265 
L 121.009091 163.741758 
L 121.516364 163.741758 
L 122.530909 162.200866 
L 123.038182 162.200866 
L 123.545455 160.659975 
L 125.574545 160.659975 
L 126.081818 159.119083 
L 126.589091 156.037299 
L 127.603636 154.496408 
L 128.618182 154.496408 
L 129.125455 153.725962 
L 130.647273 153.725962 
L 133.183636 149.873732 
L 134.198182 149.873732 
L 135.212727 146.791949 
L 138.256364 146.791949 
L 138.763636 146.021503 
L 139.270909 146.021503 
L 139.778182 144.480611 
L 141.3 144.480611 
L 141.807273 143.710166 
L 142.821818 143.710166 
L 143.329091 142.169274 
L 149.416364 142.169274 
L 149.923636 141.398828 
L 150.430909 141.398828 
L 150.938182 140.628382 
L 151.952727 140.628382 
L 152.967273 139.08749 
L 155.503636 139.08749 
L 156.010909 138.317045 
L 163.62 138.317045 
L 164.127273 137.546599 
L 164.634545 137.546599 
L 165.141818 136.776153 
L 166.156364 136.776153 
L 166.663636 136.005707 
L 175.794545 136.005707 
L 176.301818 135.235261 
L 177.316364 135.235261 
L 177.823636 134.464815 
L 179.852727 134.464815 
L 180.36 133.694369 
L 197.607273 133.694369 
L 198.114545 132.923924 
L 213.84 132.923924 
L 214.347273 132.153478 
L 217.390909 132.153478 
L 217.898182 131.383032 
L 227.029091 131.383032 
L 227.536364 130.612586 
L 228.550909 130.612586 
L 229.058182 129.84214 
L 229.565455 128.301248 
L 235.145455 128.301248 
L 235.652727 126.760357 
L 243.261818 126.760357 
L 244.276364 123.678573 
L 244.783636 122.908127 
L 247.827273 122.908127 
L 248.334545 122.137682 
L 250.870909 122.137682 
L 251.378182 121.367236 
L 252.392727 121.367236 
L 252.9 120.59679 
L 253.914545 120.59679 
L 254.421818 119.055898 
L 255.436364 119.055898 
L 255.943636 118.285452 
L 256.450909 118.285452 
L 256.958182 117.515006 
L 257.465455 117.515006 
L 257.972727 116.744561 
L 258.987273 116.744561 
L 259.494545 114.433223 
L 261.016364 114.433223 
L 261.523636 113.662777 
L 265.074545 113.662777 
L 265.581818 112.892331 
L 266.089091 111.351439 
L 267.610909 111.351439 
L 268.118182 110.580994 
L 268.625455 110.580994 
L 269.132727 109.810548 
L 270.147273 109.810548 
L 270.654545 109.040102 
L 271.669091 109.040102 
L 272.176364 107.49921 
L 275.22 107.49921 
L 275.727273 106.728764 
L 276.741818 106.728764 
L 277.756364 105.187873 
L 279.278182 105.187873 
L 279.785455 104.417427 
L 280.292727 104.417427 
L 280.8 103.646981 
L 286.38 103.646981 
L 286.887273 102.106089 
L 287.901818 102.106089 
L 288.409091 101.335643 
L 292.467273 101.335643 
L 292.974545 100.565197 
L 294.496364 100.565197 
L 295.510909 99.024306 
L 300.583636 99.024306 
L 301.090909 98.25386 
L 301.598182 98.25386 
L 302.612727 95.172076 
L 304.134545 95.172076 
L 304.641818 93.631185 
L 306.670909 93.631185 
L 308.192727 91.319847 
L 308.7 89.778955 
L 310.221818 89.778955 
L 310.729091 89.00851 
L 311.236364 89.00851 
L 311.743636 88.238064 
L 313.772727 88.238064 
L 314.28 87.467618 
L 315.801818 87.467618 
L 316.309091 86.697172 
L 317.830909 86.697172 
L 318.338182 85.926726 
L 318.845455 85.926726 
L 319.352727 85.15628 
L 320.367273 85.15628 
L 320.874545 84.385834 
L 322.903636 84.385834 
L 324.425455 82.074497 
L 325.44 82.074497 
L 326.961818 79.763159 
L 328.483636 79.763159 
L 328.990909 78.992713 
L 329.498182 78.992713 
L 330.005455 78.222268 
L 331.527273 78.222268 
L 332.541818 76.681376 
L 333.556364 76.681376 
L 334.063636 75.140484 
L 336.092727 75.140484 
L 337.614545 72.829146 
L 338.121818 72.829146 
L 338.629091 71.288255 
L 339.136364 70.517809 
L 342.18 70.517809 
L 342.687273 69.747363 
L 343.701818 69.747363 
L 344.209091 68.976917 
L 345.223636 68.976917 
L 345.730909 68.206471 
L 346.745455 68.206471 
L 347.252727 66.66558 
L 347.76 66.66558 
L 348.774545 65.124688 
L 349.281818 65.124688 
L 349.789091 64.354242 
L 355.876364 64.354242 
L 356.383636 63.583796 
L 360.441818 63.583796 
L 360.949091 62.81335 
L 363.992727 62.81335 
L 364.5 62.042904 
L 366.021818 62.042904 
L 366.529091 61.272459 
L 367.543636 61.272459 
L 368.050909 60.502013 
L 371.601818 60.502013 
L 372.616364 58.961121 
L 373.630909 58.961121 
L 374.138182 58.190675 
L 375.66 58.190675 
L 376.167273 57.420229 
L 376.674545 57.420229 
L 377.181818 56.649783 
L 379.210909 56.649783 
L 379.718182 55.879338 
L 383.269091 55.879338 
L 383.776364 55.108892 
L 391.385455 55.108892 
L 391.892727 54.338446 
L 397.98 54.338446 
L 398.487273 53.568 
L 398.487273 53.568 
" clip-path="url(#p3fb96bfa7b)" style="fill: none; stroke-dasharray: 1.85,0.8; stroke-dashoffset: 0; stroke: #bfbf00; stroke-width: 0.5"/>
   </g>
   <g id="patch_3">
    <path d="M 57.6 307.584 
L 57.6 41.472 
" style="fill: none; stroke: #000000; stroke-width: 0.8; stroke-linejoin: miter; stroke-linecap: square"/>
   </g>
   <g id="patch_4">
    <path d="M 414.72 307.584 
L 414.72 41.472 
" style="fill: none; stroke: #000000; stroke-width: 0.8; stroke-linejoin: miter; stroke-linecap: square"/>
   </g>
   <g id="patch_5">
    <path d="M 57.6 307.584 
L 414.72 307.584 
" style="fill: none; stroke: #000000; stroke-width: 0.8; stroke-linejoin: miter; stroke-linecap: square"/>
   </g>
   <g id="patch_6">
    <path d="M 57.6 41.472 
L 414.72 41.472 
" style="fill: none; stroke: #000000; stroke-width: 0.8; stroke-linejoin: miter; stroke-linecap: square"/>
   </g>
   <g id="text_16">
    <!-- count=1000, googlenet=125, resnet50=125, squeezenetv1=75, vgg19=75 -->
    <g transform="translate(38.16 35.472)scale(0.12 -0.12)">
     <defs>
      <path id="FangSong-63" d="M 2125 2125 
Q 2125 2200 2137 2225 
Q 2150 2250 2175 2325 
Q 2200 2425 2075 2562 
Q 1950 2700 1650 2700 
Q 1275 2700 1012 2337 
Q 750 1975 750 1375 
Q 750 825 975 487 
Q 1200 150 1725 150 
Q 2075 150 2312 375 
Q 2550 600 2650 900 
L 2775 850 
Q 2675 475 2400 212 
Q 2125 -50 1650 -50 
Q 1050 -50 700 325 
Q 350 700 350 1400 
Q 350 2025 725 2437 
Q 1100 2850 1700 2850 
Q 2125 2850 2362 2625 
Q 2600 2400 2600 2175 
Q 2600 2025 2537 1962 
Q 2475 1900 2350 1900 
Q 2250 1900 2187 1962 
Q 2125 2025 2125 2125 
z
" transform="scale(0.015625)"/>
      <path id="FangSong-6f" d="M 2875 1400 
Q 2875 775 2500 362 
Q 2125 -50 1575 -50 
Q 1000 -50 637 375 
Q 275 800 275 1400 
Q 275 1950 637 2400 
Q 1000 2850 1575 2850 
Q 2175 2850 2525 2400 
Q 2875 1950 2875 1400 
z
M 675 1375 
Q 675 725 937 412 
Q 1200 100 1575 100 
Q 2000 100 2237 437 
Q 2475 775 2475 1375 
Q 2475 2025 2212 2362 
Q 1950 2700 1575 2700 
Q 1225 2700 950 2362 
Q 675 2025 675 1375 
z
" transform="scale(0.015625)"/>
      <path id="FangSong-75" d="M 1425 225 
Q 1725 225 1937 375 
Q 2150 525 2250 850 
L 2250 2425 
Q 2250 2525 2200 2587 
Q 2150 2650 2025 2650 
L 1875 2650 
L 1875 2800 
L 2025 2800 
Q 2175 2800 2300 2825 
Q 2425 2850 2550 2950 
L 2600 2950 
L 2600 500 
Q 2600 400 2662 350 
Q 2725 300 2825 300 
L 2975 300 
L 2975 150 
L 2825 150 
Q 2700 150 2575 112 
Q 2450 75 2300 0 
L 2250 0 
L 2250 525 
Q 2125 250 1875 112 
Q 1625 -25 1300 -25 
Q 900 -25 700 200 
Q 500 425 500 925 
L 500 2425 
Q 500 2525 450 2587 
Q 400 2650 275 2650 
L 125 2650 
L 125 2800 
L 275 2800 
Q 425 2800 550 2825 
Q 675 2850 800 2950 
L 850 2950 
L 850 875 
Q 850 525 1000 375 
Q 1150 225 1425 225 
z
" transform="scale(0.015625)"/>
      <path id="FangSong-6e" d="M 175 0 
L 175 150 
L 300 150 
Q 425 150 475 200 
Q 525 250 525 350 
L 525 2500 
Q 525 2575 500 2612 
Q 475 2650 400 2650 
L 200 2650 
L 200 2800 
L 375 2800 
Q 500 2800 612 2825 
Q 725 2850 825 2925 
L 875 2925 
L 875 2350 
Q 1100 2600 1325 2725 
Q 1550 2850 1800 2850 
Q 2225 2850 2425 2625 
Q 2625 2400 2625 1950 
L 2625 350 
Q 2625 250 2687 200 
Q 2750 150 2850 150 
L 2975 150 
L 2975 0 
L 1925 0 
L 1925 150 
L 2050 150 
Q 2175 150 2225 200 
Q 2275 250 2275 350 
L 2275 2025 
Q 2275 2325 2150 2487 
Q 2025 2650 1775 2650 
Q 1550 2650 1312 2500 
Q 1075 2350 875 2075 
L 875 350 
Q 875 250 937 200 
Q 1000 150 1100 150 
L 1225 150 
L 1225 0 
L 175 0 
z
" transform="scale(0.015625)"/>
      <path id="FangSong-74" d="M 1475 800 
Q 1475 450 1600 325 
Q 1725 200 1975 200 
Q 2225 200 2375 362 
Q 2525 525 2575 825 
L 2700 775 
Q 2650 425 2437 200 
Q 2225 -25 1875 -25 
Q 1500 -25 1312 200 
Q 1125 425 1125 900 
L 1125 2650 
L 375 2650 
L 375 2800 
L 575 2800 
Q 875 2800 1062 2987 
Q 1250 3175 1300 3575 
L 1325 3775 
L 1475 3775 
L 1475 2800 
L 2475 2800 
L 2475 2650 
L 1475 2650 
L 1475 800 
z
" transform="scale(0.015625)"/>
      <path id="FangSong-3d" d="M 175 2725 
L 175 2950 
L 2950 2950 
L 2950 2725 
L 175 2725 
z
M 175 1450 
L 175 1675 
L 2950 1675 
L 2950 1450 
L 175 1450 
z
" transform="scale(0.015625)"/>
      <path id="FangSong-2c" d="M 1325 75 
Q 1200 25 1100 75 
Q 1000 125 962 237 
Q 925 350 925 437 
Q 925 525 987 612 
Q 1050 700 1150 737 
Q 1250 775 1425 725 
Q 1600 675 1650 500 
Q 1700 325 1662 150 
Q 1625 -25 1525 -200 
Q 1425 -375 1312 -475 
Q 1200 -575 1025 -675 
L 950 -575 
Q 1100 -450 1187 -312 
Q 1275 -175 1325 75 
z
" transform="scale(0.015625)"/>
      <path id="FangSong-20" transform="scale(0.015625)"/>
      <path id="FangSong-67" d="M 850 1875 
Q 850 1575 1025 1362 
Q 1200 1150 1500 1150 
Q 1825 1150 1987 1337 
Q 2150 1525 2150 1875 
Q 2150 2300 1962 2487 
Q 1775 2675 1500 2675 
Q 1225 2675 1037 2487 
Q 850 2300 850 1875 
z
M 2075 525 
Q 2450 475 2625 312 
Q 2800 150 2800 -125 
Q 2800 -500 2487 -725 
Q 2175 -950 1500 -950 
Q 975 -950 650 -737 
Q 325 -525 325 -250 
Q 325 -75 450 100 
Q 575 275 850 375 
Q 700 450 612 537 
Q 525 625 525 750 
Q 525 900 625 1012 
Q 725 1125 875 1200 
Q 725 1325 612 1500 
Q 500 1675 500 1875 
Q 500 2250 762 2537 
Q 1025 2825 1500 2825 
Q 1700 2825 1887 2775 
Q 2075 2725 2200 2600 
Q 2375 2725 2512 2787 
Q 2650 2850 2750 2850 
Q 2875 2850 2925 2762 
Q 2975 2675 2975 2600 
Q 2975 2500 2937 2437 
Q 2900 2375 2800 2375 
Q 2725 2375 2675 2412 
Q 2625 2450 2600 2525 
Q 2575 2600 2487 2587 
Q 2400 2575 2300 2500 
Q 2400 2400 2450 2225 
Q 2500 2050 2500 1875 
Q 2500 1575 2262 1287 
Q 2025 1000 1500 1000 
Q 1350 1000 1225 1037 
Q 1100 1075 1025 1125 
Q 925 1075 875 1000 
Q 825 925 825 875 
Q 825 775 875 725 
Q 925 675 1025 675 
Q 1350 625 1612 587 
Q 1875 550 2075 525 
z
M 1050 325 
Q 825 225 737 87 
Q 650 -50 650 -250 
Q 650 -450 875 -625 
Q 1100 -800 1550 -800 
Q 1975 -800 2225 -662 
Q 2475 -525 2475 -250 
Q 2475 -75 2412 25 
Q 2350 125 2225 150 
Q 1975 200 1675 237 
Q 1375 275 1050 325 
z
" transform="scale(0.015625)"/>
      <path id="FangSong-6c" d="M 900 4275 
Q 1125 4275 1325 4325 
Q 1525 4375 1700 4475 
L 1750 4475 
L 1750 350 
Q 1750 250 1812 200 
Q 1875 150 1975 150 
L 2550 150 
L 2550 0 
L 600 0 
L 600 150 
L 1175 150 
Q 1300 150 1350 200 
Q 1400 250 1400 350 
L 1400 3925 
Q 1400 4025 1350 4075 
Q 1300 4125 1175 4125 
L 625 4125 
L 625 4275 
L 900 4275 
z
" transform="scale(0.015625)"/>
      <path id="FangSong-65" d="M 2375 1550 
Q 2400 2100 2187 2387 
Q 1975 2675 1625 2675 
Q 1250 2675 1012 2375 
Q 775 2075 775 1550 
L 2375 1550 
z
M 775 1400 
Q 775 725 1037 437 
Q 1300 150 1725 150 
Q 2050 150 2275 337 
Q 2500 525 2600 800 
L 2725 750 
Q 2650 475 2387 212 
Q 2125 -50 1675 -50 
Q 1100 -50 737 325 
Q 375 700 375 1400 
Q 375 2025 737 2437 
Q 1100 2850 1625 2850 
Q 2100 2850 2450 2525 
Q 2800 2200 2800 1400 
L 775 1400 
z
" transform="scale(0.015625)"/>
      <path id="FangSong-72" d="M 1250 2025 
Q 1500 2425 1787 2637 
Q 2075 2850 2375 2850 
Q 2625 2850 2762 2737 
Q 2900 2625 2900 2475 
Q 2900 2350 2837 2275 
Q 2775 2200 2650 2200 
Q 2525 2200 2462 2275 
Q 2400 2350 2425 2475 
Q 2425 2550 2400 2600 
Q 2375 2650 2250 2650 
Q 2050 2650 1762 2400 
Q 1475 2150 1250 1700 
L 1250 350 
Q 1250 250 1312 200 
Q 1375 150 1475 150 
L 2025 150 
L 2025 0 
L 175 0 
L 175 150 
L 675 150 
Q 800 150 850 200 
Q 900 250 900 350 
L 900 2425 
Q 900 2525 850 2587 
Q 800 2650 675 2650 
L 200 2650 
L 200 2800 
L 400 2800 
Q 575 2800 812 2837 
Q 1050 2875 1175 2925 
L 1250 2925 
L 1250 2025 
z
" transform="scale(0.015625)"/>
      <path id="FangSong-73" d="M 600 2075 
Q 600 2450 887 2650 
Q 1175 2850 1575 2850 
Q 1800 2850 2000 2787 
Q 2200 2725 2275 2725 
Q 2350 2725 2400 2750 
Q 2450 2775 2525 2850 
L 2625 2025 
L 2475 2000 
Q 2375 2325 2137 2512 
Q 1900 2700 1600 2700 
Q 1275 2700 1087 2575 
Q 900 2450 900 2225 
Q 900 2025 987 1912 
Q 1075 1800 1300 1750 
Q 1475 1675 1737 1587 
Q 2000 1500 2225 1400 
Q 2425 1300 2562 1137 
Q 2700 975 2700 775 
Q 2700 400 2437 187 
Q 2175 -25 1675 -25 
Q 1350 -25 1187 37 
Q 1025 100 925 100 
Q 850 100 762 62 
Q 675 25 575 -25 
L 500 900 
L 650 925 
Q 725 525 975 325 
Q 1225 125 1675 125 
Q 2025 125 2212 250 
Q 2400 375 2400 625 
Q 2400 800 2300 912 
Q 2200 1025 2100 1075 
Q 1850 1175 1550 1287 
Q 1250 1400 1025 1500 
Q 800 1600 700 1750 
Q 600 1900 600 2075 
z
" transform="scale(0.015625)"/>
      <path id="FangSong-71" d="M 2250 2150 
Q 2150 2375 1975 2512 
Q 1800 2650 1550 2650 
Q 1200 2650 950 2350 
Q 700 2050 700 1325 
Q 700 700 912 437 
Q 1125 175 1450 175 
Q 1725 175 1937 300 
Q 2150 425 2250 725 
L 2250 2150 
z
M 2600 -550 
Q 2600 -675 2662 -725 
Q 2725 -775 2825 -775 
L 2975 -775 
L 2975 -925 
L 1825 -925 
L 1825 -775 
L 2025 -775 
Q 2150 -775 2200 -725 
Q 2250 -675 2250 -550 
L 2250 375 
Q 2100 175 1887 75 
Q 1675 -25 1375 -25 
Q 950 -25 625 337 
Q 300 700 300 1400 
Q 300 2075 675 2450 
Q 1050 2825 1475 2825 
Q 1750 2825 1937 2725 
Q 2125 2625 2275 2475 
L 2500 2800 
L 2600 2800 
L 2600 -550 
z
" transform="scale(0.015625)"/>
      <path id="FangSong-7a" d="M 2725 975 
L 2550 0 
L 400 0 
L 400 125 
L 2125 2650 
L 1200 2650 
Q 975 2650 825 2487 
Q 675 2325 575 1925 
L 425 1950 
L 525 2800 
L 2575 2800 
L 2575 2725 
L 825 150 
L 1775 150 
Q 2100 150 2287 350 
Q 2475 550 2575 1000 
L 2725 975 
z
" transform="scale(0.015625)"/>
      <path id="FangSong-76" d="M 1600 -25 
L 1450 -25 
L 600 2425 
Q 575 2525 500 2587 
Q 425 2650 325 2650 
L 200 2650 
L 200 2800 
L 1275 2800 
L 1275 2650 
L 1175 2650 
Q 1025 2650 987 2575 
Q 950 2500 1000 2325 
L 1600 575 
L 1650 575 
L 2250 2300 
Q 2325 2475 2262 2562 
Q 2200 2650 2050 2650 
L 2000 2650 
L 2000 2800 
L 2900 2800 
L 2900 2650 
L 2850 2650 
Q 2700 2650 2612 2562 
Q 2525 2475 2450 2300 
L 1600 -25 
z
" transform="scale(0.015625)"/>
      <path id="FangSong-37" d="M 2800 4100 
Q 2275 3250 1962 2437 
Q 1650 1625 1650 1025 
Q 1650 925 1662 737 
Q 1675 550 1675 300 
Q 1675 100 1612 25 
Q 1550 -50 1400 -50 
Q 1275 -50 1187 37 
Q 1100 125 1100 350 
Q 1100 825 1312 1525 
Q 1525 2225 2450 3900 
L 1200 3900 
Q 925 3900 762 3725 
Q 600 3550 525 3200 
L 375 3225 
L 550 4275 
L 2800 4275 
L 2800 4100 
z
" transform="scale(0.015625)"/>
      <path id="FangSong-39" d="M 675 2950 
Q 675 2400 887 2112 
Q 1100 1825 1425 1825 
Q 1800 1825 2075 2175 
Q 2350 2525 2350 2825 
Q 2350 3425 2150 3787 
Q 1950 4150 1500 4150 
Q 1075 4150 875 3812 
Q 675 3475 675 2950 
z
M 1350 1600 
Q 850 1600 550 1912 
Q 250 2225 250 2925 
Q 250 3525 575 3925 
Q 900 4325 1500 4325 
Q 2125 4325 2475 3825 
Q 2825 3325 2825 2375 
Q 2825 1325 2412 637 
Q 2000 -50 1275 -50 
Q 950 -50 712 100 
Q 475 250 475 500 
Q 475 600 537 700 
Q 600 800 750 800 
Q 900 800 950 687 
Q 1000 575 1000 425 
Q 1000 325 1025 262 
Q 1050 200 1075 175 
Q 1100 150 1162 137 
Q 1225 125 1300 125 
Q 1750 125 2025 625 
Q 2300 1125 2350 2300 
Q 2225 2000 1975 1800 
Q 1725 1600 1350 1600 
z
" transform="scale(0.015625)"/>
     </defs>
     <use xlink:href="#FangSong-63"/>
     <use xlink:href="#FangSong-6f" x="50"/>
     <use xlink:href="#FangSong-75" x="100"/>
     <use xlink:href="#FangSong-6e" x="150"/>
     <use xlink:href="#FangSong-74" x="200"/>
     <use xlink:href="#FangSong-3d" x="250"/>
     <use xlink:href="#FangSong-31" x="300"/>
     <use xlink:href="#FangSong-30" x="350"/>
     <use xlink:href="#FangSong-30" x="400"/>
     <use xlink:href="#FangSong-30" x="450"/>
     <use xlink:href="#FangSong-2c" x="500"/>
     <use xlink:href="#FangSong-20" x="550"/>
     <use xlink:href="#FangSong-67" x="600"/>
     <use xlink:href="#FangSong-6f" x="650"/>
     <use xlink:href="#FangSong-6f" x="700"/>
     <use xlink:href="#FangSong-67" x="750"/>
     <use xlink:href="#FangSong-6c" x="800"/>
     <use xlink:href="#FangSong-65" x="850"/>
     <use xlink:href="#FangSong-6e" x="900"/>
     <use xlink:href="#FangSong-65" x="950"/>
     <use xlink:href="#FangSong-74" x="1000"/>
     <use xlink:href="#FangSong-3d" x="1050"/>
     <use xlink:href="#FangSong-31" x="1100"/>
     <use xlink:href="#FangSong-32" x="1150"/>
     <use xlink:href="#FangSong-35" x="1200"/>
     <use xlink:href="#FangSong-2c" x="1250"/>
     <use xlink:href="#FangSong-20" x="1300"/>
     <use xlink:href="#FangSong-72" x="1350"/>
     <use xlink:href="#FangSong-65" x="1400"/>
     <use xlink:href="#FangSong-73" x="1450"/>
     <use xlink:href="#FangSong-6e" x="1500"/>
     <use xlink:href="#FangSong-65" x="1550"/>
     <use xlink:href="#FangSong-74" x="1600"/>
     <use xlink:href="#FangSong-35" x="1650"/>
     <use xlink:href="#FangSong-30" x="1700"/>
     <use xlink:href="#FangSong-3d" x="1750"/>
     <use xlink:href="#FangSong-31" x="1800"/>
     <use xlink:href="#FangSong-32" x="1850"/>
     <use xlink:href="#FangSong-35" x="1900"/>
     <use xlink:href="#FangSong-2c" x="1950"/>
     <use xlink:href="#FangSong-20" x="2000"/>
     <use xlink:href="#FangSong-73" x="2050"/>
     <use xlink:href="#FangSong-71" x="2100"/>
     <use xlink:href="#FangSong-75" x="2150"/>
     <use xlink:href="#FangSong-65" x="2200"/>
     <use xlink:href="#FangSong-65" x="2250"/>
     <use xlink:href="#FangSong-7a" x="2300"/>
     <use xlink:href="#FangSong-65" x="2350"/>
     <use xlink:href="#FangSong-6e" x="2400"/>
     <use xlink:href="#FangSong-65" x="2450"/>
     <use xlink:href="#FangSong-74" x="2500"/>
     <use xlink:href="#FangSong-76" x="2550"/>
     <use xlink:href="#FangSong-31" x="2600"/>
     <use xlink:href="#FangSong-3d" x="2650"/>
     <use xlink:href="#FangSong-37" x="2700"/>
     <use xlink:href="#FangSong-35" x="2750"/>
     <use xlink:href="#FangSong-2c" x="2800"/>
     <use xlink:href="#FangSong-20" x="2850"/>
     <use xlink:href="#FangSong-76" x="2900"/>
     <use xlink:href="#FangSong-67" x="2950"/>
     <use xlink:href="#FangSong-67" x="3000"/>
     <use xlink:href="#FangSong-31" x="3050"/>
     <use xlink:href="#FangSong-39" x="3100"/>
     <use xlink:href="#FangSong-3d" x="3150"/>
     <use xlink:href="#FangSong-37" x="3200"/>
     <use xlink:href="#FangSong-35" x="3250"/>
    </g>
   </g>
   <g id="legend_1">
    <g id="patch_7">
     <path d="M 315.72 302.584 
L 407.72 302.584 
Q 409.72 302.584 409.72 300.584 
L 409.72 234.279312 
Q 409.72 232.279312 407.72 232.279312 
L 315.72 232.279312 
Q 313.72 232.279312 313.72 234.279312 
L 313.72 300.584 
Q 313.72 302.584 315.72 302.584 
z
" style="fill: #ffffff; opacity: 0.8; stroke: #cccccc; stroke-linejoin: miter"/>
    </g>
    <g id="line2d_19">
     <path d="M 317.72 239.779312 
L 327.72 239.779312 
L 337.72 239.779312 
" style="fill: none; stroke: #ff0000; stroke-linecap: square"/>
    </g>
    <g id="text_17">
     <!-- total -->
     <g transform="translate(345.72 243.279312)scale(0.1 -0.1)">
      <defs>
       <path id="FangSong-61" d="M 1200 -25 
Q 750 -25 500 187 
Q 250 400 250 675 
Q 250 1125 637 1412 
Q 1025 1700 2175 1825 
L 2175 2125 
Q 2175 2375 2062 2537 
Q 1950 2700 1550 2700 
Q 1125 2700 950 2562 
Q 775 2425 825 2275 
Q 875 2175 825 2075 
Q 775 1975 625 1975 
Q 525 1975 462 2037 
Q 400 2100 400 2225 
Q 400 2450 725 2650 
Q 1050 2850 1525 2850 
Q 2025 2850 2275 2662 
Q 2525 2475 2525 2125 
L 2525 475 
Q 2525 275 2562 237 
Q 2600 200 2700 200 
Q 2825 200 2875 312 
Q 2925 425 2925 625 
L 3050 625 
Q 3050 275 2925 137 
Q 2800 0 2600 0 
Q 2425 0 2325 75 
Q 2225 150 2175 325 
Q 1925 150 1712 62 
Q 1500 -25 1200 -25 
z
M 675 750 
Q 675 525 812 337 
Q 950 150 1250 150 
Q 1475 150 1700 237 
Q 1925 325 2175 500 
L 2175 1675 
Q 1325 1575 1000 1337 
Q 675 1100 675 750 
z
" transform="scale(0.015625)"/>
      </defs>
      <use xlink:href="#FangSong-74"/>
      <use xlink:href="#FangSong-6f" x="50"/>
      <use xlink:href="#FangSong-74" x="100"/>
      <use xlink:href="#FangSong-61" x="150"/>
      <use xlink:href="#FangSong-6c" x="200"/>
     </g>
    </g>
    <g id="line2d_20">
     <path d="M 317.72 253.224625 
L 327.72 253.224625 
L 337.72 253.224625 
" style="fill: none; stroke-dasharray: 1.85,0.8; stroke-dashoffset: 0; stroke: #008000; stroke-width: 0.5"/>
    </g>
    <g id="text_18">
     <!-- vgg19 -->
     <g transform="translate(345.72 256.724625)scale(0.1 -0.1)">
      <use xlink:href="#FangSong-76"/>
      <use xlink:href="#FangSong-67" x="50"/>
      <use xlink:href="#FangSong-67" x="100"/>
      <use xlink:href="#FangSong-31" x="150"/>
      <use xlink:href="#FangSong-39" x="200"/>
     </g>
    </g>
    <g id="line2d_21">
     <path d="M 317.72 266.709 
L 327.72 266.709 
L 337.72 266.709 
" style="fill: none; stroke-dasharray: 1.85,0.8; stroke-dashoffset: 0; stroke: #0000ff; stroke-width: 0.5"/>
    </g>
    <g id="text_19">
     <!-- resnet50 -->
     <g transform="translate(345.72 270.209)scale(0.1 -0.1)">
      <use xlink:href="#FangSong-72"/>
      <use xlink:href="#FangSong-65" x="50"/>
      <use xlink:href="#FangSong-73" x="100"/>
      <use xlink:href="#FangSong-6e" x="150"/>
      <use xlink:href="#FangSong-65" x="200"/>
      <use xlink:href="#FangSong-74" x="250"/>
      <use xlink:href="#FangSong-35" x="300"/>
      <use xlink:href="#FangSong-30" x="350"/>
     </g>
    </g>
    <g id="line2d_22">
     <path d="M 317.72 280.154312 
L 327.72 280.154312 
L 337.72 280.154312 
" style="fill: none; stroke-dasharray: 1.85,0.8; stroke-dashoffset: 0; stroke: #bf00bf; stroke-width: 0.5"/>
    </g>
    <g id="text_20">
     <!-- googlenet -->
     <g transform="translate(345.72 283.654312)scale(0.1 -0.1)">
      <use xlink:href="#FangSong-67"/>
      <use xlink:href="#FangSong-6f" x="50"/>
      <use xlink:href="#FangSong-6f" x="100"/>
      <use xlink:href="#FangSong-67" x="150"/>
      <use xlink:href="#FangSong-6c" x="200"/>
      <use xlink:href="#FangSong-65" x="250"/>
      <use xlink:href="#FangSong-6e" x="300"/>
      <use xlink:href="#FangSong-65" x="350"/>
      <use xlink:href="#FangSong-74" x="400"/>
     </g>
    </g>
    <g id="line2d_23">
     <path d="M 317.72 293.638687 
L 327.72 293.638687 
L 337.72 293.638687 
" style="fill: none; stroke-dasharray: 1.85,0.8; stroke-dashoffset: 0; stroke: #bfbf00; stroke-width: 0.5"/>
    </g>
    <g id="text_21">
     <!-- squeezenetv1 -->
     <g transform="translate(345.72 297.138687)scale(0.1 -0.1)">
      <use xlink:href="#FangSong-73"/>
      <use xlink:href="#FangSong-71" x="50"/>
      <use xlink:href="#FangSong-75" x="100"/>
      <use xlink:href="#FangSong-65" x="150"/>
      <use xlink:href="#FangSong-65" x="200"/>
      <use xlink:href="#FangSong-7a" x="250"/>
      <use xlink:href="#FangSong-65" x="300"/>
      <use xlink:href="#FangSong-6e" x="350"/>
      <use xlink:href="#FangSong-65" x="400"/>
      <use xlink:href="#FangSong-74" x="450"/>
      <use xlink:href="#FangSong-76" x="500"/>
      <use xlink:href="#FangSong-31" x="550"/>
     </g>
    </g>
   </g>
  </g>
 </g>
 <defs>
  <clipPath id="p3fb96bfa7b">
   <rect x="57.6" y="41.472" width="357.12" height="266.112"/>
  </clipPath>
 </defs>
</svg>
