<?xml version="1.0" encoding="utf-8" standalone="no"?>
<!DOCTYPE svg PUBLIC "-//W3C//DTD SVG 1.1//EN"
  "http://www.w3.org/Graphics/SVG/1.1/DTD/svg11.dtd">
<svg xmlns:xlink="http://www.w3.org/1999/xlink" width="460.8pt" height="345.6pt" viewBox="0 0 460.8 345.6" xmlns="http://www.w3.org/2000/svg" version="1.1">
 <metadata>
  <rdf:RDF xmlns:dc="http://purl.org/dc/elements/1.1/" xmlns:cc="http://creativecommons.org/ns#" xmlns:rdf="http://www.w3.org/1999/02/22-rdf-syntax-ns#">
   <cc:Work>
    <dc:type rdf:resource="http://purl.org/dc/dcmitype/StillImage"/>
    <dc:date>2023-01-17T16:26:43.145199</dc:date>
    <dc:format>image/svg+xml</dc:format>
    <dc:creator>
     <cc:Agent>
      <dc:title>Matplotlib v3.5.2, https://matplotlib.org/</dc:title>
     </cc:Agent>
    </dc:creator>
   </cc:Work>
  </rdf:RDF>
 </metadata>
 <defs>
  <style type="text/css">*{stroke-linejoin: round; stroke-linecap: butt}</style>
 </defs>
 <g id="figure_1">
  <g id="patch_1">
   <path d="M 0 345.6 
L 460.8 345.6 
L 460.8 0 
L 0 0 
z
" style="fill: #ffffff"/>
  </g>
  <g id="axes_1">
   <g id="patch_2">
    <path d="M 57.6 307.584 
L 414.72 307.584 
L 414.72 41.472 
L 57.6 41.472 
z
" style="fill: #ffffff"/>
   </g>
   <g id="matplotlib.axis_1">
    <g id="xtick_1">
     <g id="line2d_1">
      <defs>
       <path id="m780a97d47c" d="M 0 0 
L 0 3.5 
" style="stroke: #000000; stroke-width: 0.8"/>
      </defs>
      <g>
       <use xlink:href="#m780a97d47c" x="100.663681" y="307.584" style="stroke: #000000; stroke-width: 0.8"/>
      </g>
     </g>
     <g id="text_1">
      <!-- 2 -->
      <g transform="translate(98.163681 321.576187)scale(0.1 -0.1)">
       <defs>
        <path id="FangSong-32" d="M 2300 3225 
Q 2300 3675 2100 3912 
Q 1900 4150 1500 4150 
Q 1200 4150 987 3987 
Q 775 3825 775 3575 
Q 775 3425 862 3325 
Q 950 3225 950 3125 
Q 950 3000 887 2937 
Q 825 2875 700 2875 
Q 550 2875 462 2962 
Q 375 3050 375 3250 
Q 375 3775 750 4050 
Q 1125 4325 1550 4325 
Q 2150 4325 2437 4025 
Q 2725 3725 2725 3275 
Q 2725 2975 2587 2675 
Q 2450 2375 2150 2100 
Q 1425 1400 1037 962 
Q 650 525 575 375 
L 2050 375 
Q 2275 375 2425 550 
Q 2575 725 2625 1075 
L 2775 1075 
L 2625 0 
L 300 0 
L 300 325 
Q 425 550 712 900 
Q 1000 1250 1475 1725 
Q 1900 2150 2100 2525 
Q 2300 2900 2300 3225 
z
" transform="scale(0.015625)"/>
       </defs>
       <use xlink:href="#FangSong-32"/>
      </g>
     </g>
    </g>
    <g id="xtick_2">
     <g id="line2d_2">
      <g>
       <use xlink:href="#m780a97d47c" x="154.32559" y="307.584" style="stroke: #000000; stroke-width: 0.8"/>
      </g>
     </g>
     <g id="text_2">
      <!-- 4 -->
      <g transform="translate(151.82559 321.576187)scale(0.1 -0.1)">
       <defs>
        <path id="FangSong-34" d="M 2275 475 
Q 2275 300 2375 225 
Q 2475 150 2650 150 
L 2875 150 
L 2875 0 
L 1225 0 
L 1225 150 
L 1500 150 
Q 1700 150 1787 225 
Q 1875 300 1875 475 
L 1875 1300 
L 200 1300 
L 200 1425 
L 2025 4325 
L 2275 4325 
L 2275 1450 
L 2950 1450 
L 2950 1300 
L 2275 1300 
L 2275 475 
z
M 1850 3700 
L 425 1450 
L 1875 1450 
L 1875 3700 
L 1850 3700 
z
" transform="scale(0.015625)"/>
       </defs>
       <use xlink:href="#FangSong-34"/>
      </g>
     </g>
    </g>
    <g id="xtick_3">
     <g id="line2d_3">
      <g>
       <use xlink:href="#m780a97d47c" x="207.987498" y="307.584" style="stroke: #000000; stroke-width: 0.8"/>
      </g>
     </g>
     <g id="text_3">
      <!-- 6 -->
      <g transform="translate(205.487498 321.576187)scale(0.1 -0.1)">
       <defs>
        <path id="FangSong-36" d="M 750 1700 
Q 750 950 1012 537 
Q 1275 125 1650 125 
Q 2025 125 2225 400 
Q 2425 675 2425 1425 
Q 2425 1925 2212 2200 
Q 2000 2475 1700 2475 
Q 1425 2475 1187 2312 
Q 950 2150 750 1700 
z
M 1725 2725 
Q 2325 2725 2587 2325 
Q 2850 1925 2850 1425 
Q 2850 675 2487 312 
Q 2125 -50 1650 -50 
Q 975 -50 625 462 
Q 275 975 275 1950 
Q 275 3100 700 3712 
Q 1125 4325 1850 4325 
Q 2200 4325 2412 4125 
Q 2625 3925 2625 3775 
Q 2625 3625 2562 3550 
Q 2500 3475 2350 3475 
Q 2225 3475 2162 3537 
Q 2100 3600 2100 3725 
Q 2100 3775 2112 3825 
Q 2125 3875 2125 3925 
Q 2125 4025 2050 4087 
Q 1975 4150 1775 4150 
Q 1350 4150 1050 3762 
Q 750 3375 750 2075 
Q 900 2400 1162 2562 
Q 1425 2725 1725 2725 
z
" transform="scale(0.015625)"/>
       </defs>
       <use xlink:href="#FangSong-36"/>
      </g>
     </g>
    </g>
    <g id="xtick_4">
     <g id="line2d_4">
      <g>
       <use xlink:href="#m780a97d47c" x="261.649406" y="307.584" style="stroke: #000000; stroke-width: 0.8"/>
      </g>
     </g>
     <g id="text_4">
      <!-- 8 -->
      <g transform="translate(259.149406 321.576187)scale(0.1 -0.1)">
       <defs>
        <path id="FangSong-38" d="M 600 1025 
Q 600 625 862 375 
Q 1125 125 1525 125 
Q 2000 125 2212 375 
Q 2425 625 2425 1000 
Q 2425 1325 2125 1625 
Q 1825 1925 1225 2175 
Q 925 1975 762 1675 
Q 600 1375 600 1025 
z
M 2800 1075 
Q 2800 600 2450 275 
Q 2100 -50 1525 -50 
Q 1000 -50 625 275 
Q 250 600 250 1025 
Q 250 1450 462 1750 
Q 675 2050 1075 2275 
Q 725 2450 537 2712 
Q 350 2975 350 3300 
Q 350 3725 675 4025 
Q 1000 4325 1575 4325 
Q 2100 4325 2425 4025 
Q 2750 3725 2750 3300 
Q 2750 3000 2562 2737 
Q 2375 2475 1975 2275 
Q 2400 2025 2600 1725 
Q 2800 1425 2800 1075 
z
M 2400 3275 
Q 2400 3625 2200 3887 
Q 2000 4150 1575 4150 
Q 1100 4150 900 3900 
Q 700 3650 700 3375 
Q 700 3100 987 2837 
Q 1275 2575 1800 2375 
Q 2100 2525 2250 2750 
Q 2400 2975 2400 3275 
z
" transform="scale(0.015625)"/>
       </defs>
       <use xlink:href="#FangSong-38"/>
      </g>
     </g>
    </g>
    <g id="xtick_5">
     <g id="line2d_5">
      <g>
       <use xlink:href="#m780a97d47c" x="315.311315" y="307.584" style="stroke: #000000; stroke-width: 0.8"/>
      </g>
     </g>
     <g id="text_5">
      <!-- 10 -->
      <g transform="translate(310.311315 321.576187)scale(0.1 -0.1)">
       <defs>
        <path id="FangSong-31" d="M 1800 4350 
L 1800 550 
Q 1800 350 1925 250 
Q 2050 150 2275 150 
L 2525 150 
L 2525 0 
L 700 0 
L 700 150 
L 925 150 
Q 1175 150 1287 250 
Q 1400 350 1400 550 
L 1400 3575 
Q 1400 3675 1337 3737 
Q 1275 3800 1150 3800 
L 700 3800 
L 700 3950 
L 925 3950 
Q 1225 3950 1412 4050 
Q 1600 4150 1700 4350 
L 1800 4350 
z
" transform="scale(0.015625)"/>
        <path id="FangSong-30" d="M 1575 4125 
Q 1225 4125 987 3587 
Q 750 3050 750 2150 
Q 750 1200 987 675 
Q 1225 150 1575 150 
Q 1950 150 2162 675 
Q 2375 1200 2375 2150 
Q 2375 3050 2175 3587 
Q 1975 4125 1575 4125 
z
M 1575 -50 
Q 1025 -50 650 525 
Q 275 1100 275 2150 
Q 275 3125 637 3725 
Q 1000 4325 1575 4325 
Q 2125 4325 2487 3750 
Q 2850 3175 2850 2150 
Q 2850 1125 2487 537 
Q 2125 -50 1575 -50 
z
" transform="scale(0.015625)"/>
       </defs>
       <use xlink:href="#FangSong-31"/>
       <use xlink:href="#FangSong-30" x="50"/>
      </g>
     </g>
    </g>
    <g id="xtick_6">
     <g id="line2d_6">
      <g>
       <use xlink:href="#m780a97d47c" x="368.973223" y="307.584" style="stroke: #000000; stroke-width: 0.8"/>
      </g>
     </g>
     <g id="text_6">
      <!-- 12 -->
      <g transform="translate(363.973223 321.576187)scale(0.1 -0.1)">
       <use xlink:href="#FangSong-31"/>
       <use xlink:href="#FangSong-32" x="50"/>
      </g>
     </g>
    </g>
    <g id="text_7">
     <!-- 响应比 -->
     <g transform="translate(221.16 334.873062)scale(0.1 -0.1)">
      <defs>
       <path id="FangSong-54cd" d="M 2700 -200 
Q 2725 -650 2625 -525 
L 2375 -125 
Q 2500 50 2475 350 
L 2500 3200 
Q 2500 3625 2425 4100 
L 2500 4125 
L 2725 3575 
L 3300 3625 
Q 3550 4225 3675 4637 
Q 3800 5050 3700 5150 
L 3775 5200 
L 4125 4750 
Q 4050 4800 3900 4512 
Q 3750 4225 3500 3650 
L 5275 3850 
L 5425 4125 
L 5725 3850 
L 5575 3650 
Q 5500 -175 5175 -675 
Q 4800 -275 4175 250 
L 4225 350 
L 5050 -175 
Q 5275 525 5325 3625 
L 2725 3325 
L 2700 -200 
z
M 725 3250 
Q 725 3575 625 3925 
L 725 3975 
L 950 3525 
L 1750 3650 
L 1875 3875 
L 2175 3650 
L 2000 3450 
L 1925 2175 
L 2125 1950 
L 1000 1800 
Q 1025 1275 900 1350 
L 650 1750 
Q 775 1850 750 2150 
L 725 3250 
z
M 3550 1250 
Q 3575 950 3500 875 
L 3225 1200 
Q 3300 1350 3300 1525 
L 3275 2325 
Q 3275 2700 3200 2875 
L 3275 2925 
L 3500 2625 
L 4350 2725 
L 4500 2925 
L 4775 2675 
L 4600 2475 
L 4525 1575 
L 4750 1400 
L 3550 1250 
z
M 975 3275 
L 1000 2050 
L 1675 2150 
L 1775 3425 
L 975 3275 
z
M 4350 2475 
L 3500 2375 
L 3525 1500 
L 4275 1575 
L 4350 2475 
z
" transform="scale(0.015625)"/>
       <path id="FangSong-5e94" d="M 1625 4400 
L 1800 3800 
Q 5075 4050 5200 4175 
L 5525 3850 
Q 5200 3900 1825 3550 
Q 1775 2450 1675 1825 
Q 1575 1200 1312 612 
Q 1050 25 500 -600 
L 425 -525 
Q 850 50 1100 675 
Q 1350 1300 1425 1862 
Q 1500 2425 1550 3150 
Q 1600 3875 1550 4375 
L 1625 4400 
z
M 4725 3175 
L 5100 2725 
Q 5000 2800 4750 2112 
Q 4500 1425 4000 150 
Q 5425 225 5400 275 
L 5725 0 
Q 5425 0 3687 -112 
Q 1950 -225 1725 -275 
L 1350 25 
Q 2150 0 3800 125 
Q 4300 1500 4525 2200 
Q 4750 2900 4650 3125 
L 4725 3175 
z
M 2900 1150 
Q 2800 975 2650 725 
Q 2450 1625 2175 2550 
L 2275 2575 
Q 2600 1850 2900 1150 
z
M 3775 1550 
Q 3675 1350 3525 1150 
Q 3475 1600 3075 3050 
L 3150 3075 
Q 3475 2300 3775 1550 
z
M 3500 4100 
Q 3275 4675 3000 5225 
L 3075 5275 
Q 3375 4900 3700 4525 
Q 3600 4325 3500 4100 
z
" transform="scale(0.015625)"/>
       <path id="FangSong-6bd4" d="M 3500 2125 
Q 3925 2425 4487 2975 
Q 5050 3525 4950 3750 
L 5025 3775 
L 5250 3225 
Q 5175 3250 4875 3000 
Q 4575 2750 4287 2525 
Q 4000 2300 3500 1900 
L 3500 575 
Q 3475 -100 4150 -100 
L 4800 -100 
Q 5275 -100 5375 12 
Q 5475 125 5450 1350 
L 5575 1350 
Q 5600 825 5637 412 
Q 5675 0 5800 -175 
Q 5375 -325 4800 -325 
L 4150 -325 
Q 3225 -350 3275 550 
L 3275 4300 
Q 3275 4875 3150 5150 
L 3200 5200 
L 3625 4850 
Q 3475 4825 3500 4250 
L 3500 2125 
z
M 1500 2575 
Q 1900 2625 2337 2712 
Q 2775 2800 2800 2850 
L 3075 2600 
Q 2875 2575 2350 2475 
Q 1825 2375 1775 2325 
L 1500 2525 
L 1500 150 
L 2925 1075 
L 2975 1025 
Q 1550 -75 1375 -350 
L 1200 0 
Q 1275 75 1275 350 
L 1275 3925 
Q 1275 4475 1150 4750 
L 1200 4800 
L 1625 4400 
Q 1475 4375 1500 3925 
L 1500 2575 
z
" transform="scale(0.015625)"/>
      </defs>
      <use xlink:href="#FangSong-54cd"/>
      <use xlink:href="#FangSong-5e94" x="100"/>
      <use xlink:href="#FangSong-6bd4" x="200"/>
     </g>
    </g>
   </g>
   <g id="matplotlib.axis_2">
    <g id="ytick_1">
     <g id="line2d_7">
      <defs>
       <path id="mb9a8c726cf" d="M 0 0 
L -3.5 0 
" style="stroke: #000000; stroke-width: 0.8"/>
      </defs>
      <g>
       <use xlink:href="#mb9a8c726cf" x="57.6" y="295.488" style="stroke: #000000; stroke-width: 0.8"/>
      </g>
     </g>
     <g id="text_8">
      <!-- 0% -->
      <g transform="translate(40.6 298.984094)scale(0.1 -0.1)">
       <defs>
        <path id="FangSong-25" d="M 725 4150 
Q 575 4150 475 3950 
Q 375 3750 375 3200 
Q 375 2575 487 2387 
Q 600 2200 725 2200 
Q 900 2200 987 2425 
Q 1075 2650 1075 3200 
Q 1075 3650 1012 3900 
Q 950 4150 725 4150 
z
M 1400 3175 
Q 1400 2725 1250 2387 
Q 1100 2050 725 2050 
Q 425 2050 237 2350 
Q 50 2650 50 3175 
Q 50 3725 250 4025 
Q 450 4325 725 4325 
Q 1025 4325 1212 4012 
Q 1400 3700 1400 3175 
z
M 2700 1100 
Q 2700 1525 2625 1800 
Q 2550 2075 2350 2075 
Q 2200 2075 2100 1837 
Q 2000 1600 2000 1100 
Q 2000 475 2112 300 
Q 2225 125 2350 125 
Q 2525 125 2612 337 
Q 2700 550 2700 1100 
z
M 3025 1075 
Q 3025 575 2850 262 
Q 2675 -50 2350 -50 
Q 2075 -50 1875 262 
Q 1675 575 1675 1075 
Q 1675 1625 1875 1937 
Q 2075 2250 2350 2250 
Q 2650 2250 2837 1925 
Q 3025 1600 3025 1075 
z
M 2500 4250 
L 700 -50 
L 550 25 
L 2325 4325 
L 2500 4250 
z
" transform="scale(0.015625)"/>
       </defs>
       <use xlink:href="#FangSong-30"/>
       <use xlink:href="#FangSong-25" x="50"/>
      </g>
     </g>
    </g>
    <g id="ytick_2">
     <g id="line2d_8">
      <g>
       <use xlink:href="#mb9a8c726cf" x="57.6" y="247.104" style="stroke: #000000; stroke-width: 0.8"/>
      </g>
     </g>
     <g id="text_9">
      <!-- 20% -->
      <g transform="translate(35.6 250.600094)scale(0.1 -0.1)">
       <use xlink:href="#FangSong-32"/>
       <use xlink:href="#FangSong-30" x="50"/>
       <use xlink:href="#FangSong-25" x="100"/>
      </g>
     </g>
    </g>
    <g id="ytick_3">
     <g id="line2d_9">
      <g>
       <use xlink:href="#mb9a8c726cf" x="57.6" y="198.72" style="stroke: #000000; stroke-width: 0.8"/>
      </g>
     </g>
     <g id="text_10">
      <!-- 40% -->
      <g transform="translate(35.6 202.216094)scale(0.1 -0.1)">
       <use xlink:href="#FangSong-34"/>
       <use xlink:href="#FangSong-30" x="50"/>
       <use xlink:href="#FangSong-25" x="100"/>
      </g>
     </g>
    </g>
    <g id="ytick_4">
     <g id="line2d_10">
      <g>
       <use xlink:href="#mb9a8c726cf" x="57.6" y="150.336" style="stroke: #000000; stroke-width: 0.8"/>
      </g>
     </g>
     <g id="text_11">
      <!-- 60% -->
      <g transform="translate(35.6 153.832094)scale(0.1 -0.1)">
       <use xlink:href="#FangSong-36"/>
       <use xlink:href="#FangSong-30" x="50"/>
       <use xlink:href="#FangSong-25" x="100"/>
      </g>
     </g>
    </g>
    <g id="ytick_5">
     <g id="line2d_11">
      <g>
       <use xlink:href="#mb9a8c726cf" x="57.6" y="101.952" style="stroke: #000000; stroke-width: 0.8"/>
      </g>
     </g>
     <g id="text_12">
      <!-- 80% -->
      <g transform="translate(35.6 105.448094)scale(0.1 -0.1)">
       <use xlink:href="#FangSong-38"/>
       <use xlink:href="#FangSong-30" x="50"/>
       <use xlink:href="#FangSong-25" x="100"/>
      </g>
     </g>
    </g>
    <g id="ytick_6">
     <g id="line2d_12">
      <g>
       <use xlink:href="#mb9a8c726cf" x="57.6" y="53.568" style="stroke: #000000; stroke-width: 0.8"/>
      </g>
     </g>
     <g id="text_13">
      <!-- 100% -->
      <g transform="translate(30.6 57.064094)scale(0.1 -0.1)">
       <use xlink:href="#FangSong-31"/>
       <use xlink:href="#FangSong-30" x="50"/>
       <use xlink:href="#FangSong-30" x="100"/>
       <use xlink:href="#FangSong-25" x="150"/>
      </g>
     </g>
    </g>
    <g id="text_14">
     <!-- 累计完成比例 -->
     <g transform="translate(25.154688 204.528)rotate(-90)scale(0.1 -0.1)">
      <defs>
       <path id="FangSong-7d2f" d="M 4525 4975 
L 4700 5225 
L 5000 4950 
L 4825 4775 
L 4625 3550 
L 4850 3300 
L 3175 3150 
L 3375 2975 
Q 3200 2925 2862 2725 
Q 2525 2525 2075 2275 
L 3475 2500 
Q 3750 2675 3900 2800 
Q 4050 2925 4100 3075 
L 4175 3100 
L 4325 2700 
Q 4200 2675 3500 2237 
Q 2800 1800 2275 1550 
L 4375 1825 
L 3900 2175 
L 4000 2275 
Q 4625 1900 4950 1725 
Q 4975 1475 4925 1225 
Q 4800 1375 4500 1675 
L 3250 1475 
L 3525 1300 
Q 3375 1200 3375 875 
L 3375 25 
Q 3375 -325 3225 -625 
Q 2975 -325 2400 150 
L 2450 250 
L 3050 -75 
Q 3150 -125 3150 0 
L 3150 925 
Q 3150 1300 3125 1450 
Q 1875 1275 1575 1175 
L 1325 1425 
L 1850 1550 
Q 2175 1700 3250 2300 
Q 2075 2100 1875 2000 
L 1575 2250 
L 1800 2300 
Q 2150 2475 3025 3125 
L 2000 3025 
Q 2000 2675 1950 2700 
Q 1900 2725 1650 3025 
Q 1725 3250 1725 3425 
L 1650 4400 
Q 1625 4675 1525 4950 
L 1625 5000 
L 1875 4675 
L 4525 4975 
z
M 3150 3375 
L 3150 3875 
Q 2525 3800 2400 3725 
L 2100 3975 
Q 2500 3975 3150 4075 
L 3150 4600 
L 1900 4450 
L 1975 3250 
L 3150 3375 
z
M 3375 4100 
Q 3950 4175 4025 4225 
L 4275 4000 
Q 3950 3975 3375 3900 
L 3375 3400 
L 4400 3500 
L 4575 4750 
L 3375 4600 
L 3375 4100 
z
M 5450 -75 
Q 4975 325 3875 1025 
L 3950 1125 
Q 4850 700 5350 500 
Q 5425 250 5450 -75 
z
M 800 -250 
Q 1350 75 1825 500 
Q 2300 925 2325 1125 
L 2400 1150 
L 2550 725 
Q 2425 700 2075 425 
Q 1725 150 875 -350 
L 800 -250 
z
" transform="scale(0.015625)"/>
       <path id="FangSong-8ba1" d="M 4075 4200 
Q 4100 4825 3900 5100 
L 3975 5150 
L 4450 4725 
Q 4275 4600 4300 4200 
L 4275 3000 
Q 5525 3200 5575 3250 
L 5950 2950 
Q 5725 2975 4275 2800 
L 4250 -425 
Q 4250 -700 4150 -575 
L 3875 -150 
Q 4050 50 4025 300 
L 4050 2750 
Q 2975 2625 2900 2575 
L 2525 2825 
Q 2850 2825 4050 2975 
L 4075 4200 
z
M 1775 3250 
L 2100 2950 
L 1900 2750 
L 1875 550 
L 2825 1250 
L 2875 1175 
Q 1875 250 1750 -25 
L 1525 275 
Q 1625 375 1650 625 
L 1675 2775 
Q 900 2625 750 2550 
L 425 2800 
Q 850 2825 1650 3000 
L 1775 3250 
z
M 2025 3800 
Q 1825 4300 1325 4950 
L 1375 5025 
Q 1925 4575 2175 4300 
Q 2125 4000 2025 3800 
z
" transform="scale(0.015625)"/>
       <path id="FangSong-5b8c" d="M 5375 2050 
Q 4925 2050 3550 1950 
L 3850 1750 
Q 3725 1600 3700 1375 
L 3675 275 
Q 3650 -125 4075 -175 
L 4925 -175 
Q 5300 -150 5312 62 
Q 5325 275 5325 1025 
L 5425 1025 
Q 5450 750 5475 337 
Q 5500 -75 5700 -275 
Q 5400 -375 5000 -400 
L 4075 -400 
Q 3425 -350 3425 150 
L 3475 1450 
Q 3475 1775 3425 1925 
L 2675 1850 
L 2875 1650 
Q 2750 1550 2600 1200 
Q 2450 850 2025 312 
Q 1600 -225 600 -675 
L 550 -575 
Q 1525 -100 1987 625 
Q 2450 1350 2525 1850 
Q 1550 1775 1500 1725 
L 1150 2025 
Q 1625 2025 3212 2150 
Q 4800 2275 5000 2350 
L 5375 2050 
z
M 1650 3650 
Q 1550 3125 1325 2875 
L 1150 3250 
Q 1450 3425 1575 4400 
L 1675 4400 
L 1675 3900 
L 5025 4150 
L 5175 4400 
L 5525 4075 
Q 5375 4050 4725 3250 
L 4650 3325 
L 4975 3900 
L 1650 3650 
z
M 4475 2975 
Q 4225 2975 3412 2875 
Q 2600 2775 2400 2725 
L 2050 2975 
Q 2575 2975 3200 3075 
Q 3825 3175 4150 3225 
L 4475 2975 
z
M 3550 4575 
Q 3475 4350 3300 4150 
Q 3225 4475 2900 5200 
L 2975 5250 
Q 3350 4825 3550 4575 
z
" transform="scale(0.015625)"/>
       <path id="FangSong-6210" d="M 5575 975 
Q 5600 -150 5750 -625 
Q 4650 -225 4000 1075 
Q 3625 650 2975 225 
L 2925 325 
Q 3525 825 3900 1300 
Q 3600 2275 3500 3300 
L 1875 3125 
Q 1875 2625 1825 2100 
L 2725 2250 
L 2875 2475 
L 3175 2225 
L 3000 2050 
Q 2850 475 2575 -125 
Q 2225 400 1825 775 
L 1875 850 
L 2475 400 
Q 2650 875 2750 2000 
L 1825 1850 
Q 1675 250 600 -650 
L 525 -600 
Q 1250 250 1425 987 
Q 1600 1725 1625 2612 
Q 1650 3500 1550 3800 
L 1625 3825 
L 1850 3350 
L 3450 3525 
Q 3400 4150 3375 4562 
Q 3350 4975 3225 5200 
L 3275 5225 
L 3725 4900 
Q 3625 4925 3637 4575 
Q 3650 4225 3675 3550 
Q 4900 3700 5050 3775 
L 5325 3475 
Q 4775 3475 3725 3325 
Q 3775 2425 4075 1525 
Q 4500 2025 4687 2325 
Q 4875 2625 4800 2850 
L 4875 2875 
L 5125 2325 
Q 5075 2400 4850 2125 
Q 4625 1850 4150 1275 
Q 4625 225 5425 -125 
L 5475 975 
L 5575 975 
z
M 4100 5000 
Q 4525 4700 4875 4450 
Q 4825 4250 4750 4025 
Q 4400 4525 4025 4950 
L 4100 5000 
z
" transform="scale(0.015625)"/>
       <path id="FangSong-4f8b" d="M 3050 2000 
Q 3025 1800 2975 1600 
Q 2775 1900 2525 2250 
Q 2300 1875 2025 1550 
L 1925 1625 
Q 2675 2725 2975 3975 
Q 2475 3925 2375 3875 
L 2050 4125 
Q 2375 4125 3162 4225 
Q 3950 4325 4100 4450 
L 4350 4125 
Q 4050 4150 3100 3975 
L 3300 3700 
Q 3200 3675 3125 3525 
Q 3050 3375 2925 3050 
L 3625 3150 
L 3775 3350 
L 4050 3075 
L 3875 2900 
Q 3300 825 1850 -225 
L 1800 -100 
Q 3100 975 3625 2900 
Q 3150 2825 3025 2775 
L 2875 2925 
Q 2775 2675 2575 2350 
Q 2900 2125 3050 2000 
z
M 1275 -150 
Q 1425 25 1400 225 
L 1450 3425 
Q 1025 2800 475 2225 
L 400 2325 
Q 875 2850 1450 3887 
Q 2025 4925 1925 5150 
L 2000 5175 
L 2250 4700 
Q 2200 4725 2062 4475 
Q 1925 4225 1675 3800 
L 1625 -325 
Q 1650 -675 1525 -600 
L 1275 -150 
z
M 5475 250 
Q 5475 -300 5300 -650 
Q 4900 -100 4300 375 
L 4350 475 
L 5200 -75 
Q 5250 250 5250 575 
L 5250 4350 
Q 5275 4950 5100 5150 
L 5175 5225 
L 5600 4850 
Q 5450 4775 5475 4325 
L 5475 250 
z
M 4300 1525 
Q 4400 1650 4400 1900 
L 4400 3075 
Q 4425 3525 4300 3750 
L 4350 3800 
L 4725 3450 
Q 4600 3350 4625 3025 
L 4625 1375 
Q 4625 1050 4550 1125 
L 4300 1525 
z
" transform="scale(0.015625)"/>
      </defs>
      <use xlink:href="#FangSong-7d2f"/>
      <use xlink:href="#FangSong-8ba1" x="100"/>
      <use xlink:href="#FangSong-5b8c" x="200"/>
      <use xlink:href="#FangSong-6210" x="300"/>
      <use xlink:href="#FangSong-6bd4" x="400"/>
      <use xlink:href="#FangSong-4f8b" x="500"/>
     </g>
    </g>
   </g>
   <g id="line2d_13">
    <path d="M 73.832727 295.488 
L 76.515823 202.3488 
L 79.198918 180.09216 
L 81.882014 167.99616 
L 84.565109 161.46432 
L 87.248204 157.83552 
L 89.9313 154.44864 
L 92.614395 150.81984 
L 95.297491 145.98144 
L 97.980586 142.83648 
L 100.663681 140.6592 
L 103.346777 137.27232 
L 106.029872 136.06272 
L 108.712968 132.91776 
L 111.396063 130.49856 
L 114.079159 129.53088 
L 116.762254 125.90208 
L 119.445349 123.7248 
L 122.128445 119.85408 
L 124.81154 118.16064 
L 127.494636 116.22528 
L 130.177731 114.048 
L 132.860826 110.17728 
L 135.543922 104.61312 
L 138.227017 102.91968 
L 140.910113 100.25856 
L 143.593208 96.87168 
L 146.276304 94.21056 
L 148.959399 90.82368 
L 151.642494 89.13024 
L 154.32559 87.92064 
L 157.008685 85.74336 
L 159.691781 84.53376 
L 162.374876 83.56608 
L 165.057971 82.84032 
L 167.741067 81.63072 
L 170.424162 81.3888 
L 173.107258 80.90496 
L 175.790353 79.45344 
L 178.473449 78.9696 
L 181.156544 78.72768 
L 183.839639 77.51808 
L 186.522735 76.5504 
L 189.20583 76.06656 
L 191.888926 75.3408 
L 194.572021 74.37312 
L 197.255116 73.16352 
L 199.938212 72.19584 
L 202.621307 71.95392 
L 205.304403 70.98624 
L 207.987498 70.5024 
L 210.670594 70.5024 
L 213.353689 69.77664 
L 216.036784 68.32512 
L 218.71988 67.11552 
L 221.402975 65.90592 
L 224.086071 65.90592 
L 226.769166 65.18016 
L 229.452261 64.21248 
L 232.135357 64.21248 
L 234.818452 63.48672 
L 237.501548 63.00288 
L 240.184643 62.76096 
L 242.867739 62.51904 
L 245.550834 61.55136 
L 248.233929 61.06752 
L 250.917025 60.09984 
L 253.60012 58.89024 
L 256.283216 58.64832 
L 258.966311 58.16448 
L 261.649406 57.92256 
L 264.332502 57.68064 
L 267.015597 57.1968 
L 269.698693 57.1968 
L 272.381788 56.71296 
L 275.064884 56.71296 
L 277.747979 56.71296 
L 280.431074 56.71296 
L 283.11417 56.71296 
L 285.797265 56.22912 
L 288.480361 56.22912 
L 291.163456 56.22912 
L 293.846551 55.9872 
L 296.529647 55.74528 
L 299.212742 55.50336 
L 301.895838 55.26144 
L 304.578933 54.7776 
L 307.262029 54.7776 
L 309.945124 54.7776 
L 312.628219 54.53568 
L 315.311315 54.29376 
L 317.99441 54.29376 
L 320.677506 54.29376 
L 323.360601 54.29376 
L 326.043696 54.29376 
L 328.726792 54.05184 
L 331.409887 54.05184 
L 334.092983 54.05184 
L 336.776078 54.05184 
L 339.459174 53.80992 
L 342.142269 53.80992 
L 344.825364 53.80992 
L 347.50846 53.80992 
L 350.191555 53.80992 
L 352.874651 53.80992 
L 355.557746 53.80992 
L 358.240841 53.80992 
L 360.923937 53.80992 
L 363.607032 53.80992 
L 366.290128 53.80992 
L 368.973223 53.80992 
L 371.656319 53.80992 
L 374.339414 53.80992 
L 377.022509 53.80992 
L 379.705605 53.80992 
L 382.3887 53.80992 
L 385.071796 53.80992 
L 387.754891 53.80992 
L 390.437986 53.80992 
L 393.121082 53.80992 
L 395.804177 53.80992 
L 398.487273 53.568 
" clip-path="url(#p9ad609a48a)" style="fill: none; stroke: #ff0000; stroke-linecap: square"/>
   </g>
   <g id="line2d_14">
    <path d="M 73.832727 295.488 
L 76.515823 119.475692 
L 79.198918 105.518769 
L 81.882014 80.706462 
L 84.565109 66.749538 
L 87.248204 59.771077 
L 89.9313 57.444923 
L 92.614395 57.444923 
L 95.297491 57.444923 
L 97.980586 56.669538 
L 100.663681 55.894154 
L 103.346777 55.118769 
L 106.029872 54.343385 
L 108.712968 53.568 
L 111.396063 53.568 
L 114.079159 53.568 
L 116.762254 53.568 
L 119.445349 53.568 
L 122.128445 53.568 
L 124.81154 53.568 
L 127.494636 53.568 
L 130.177731 53.568 
L 132.860826 53.568 
L 135.543922 53.568 
L 138.227017 53.568 
L 140.910113 53.568 
L 143.593208 53.568 
L 146.276304 53.568 
L 148.959399 53.568 
L 151.642494 53.568 
L 154.32559 53.568 
L 157.008685 53.568 
L 159.691781 53.568 
L 162.374876 53.568 
L 165.057971 53.568 
L 167.741067 53.568 
L 170.424162 53.568 
L 173.107258 53.568 
L 175.790353 53.568 
L 178.473449 53.568 
L 181.156544 53.568 
L 183.839639 53.568 
L 186.522735 53.568 
L 189.20583 53.568 
L 191.888926 53.568 
L 194.572021 53.568 
L 197.255116 53.568 
L 199.938212 53.568 
L 202.621307 53.568 
L 205.304403 53.568 
L 207.987498 53.568 
L 210.670594 53.568 
L 213.353689 53.568 
L 216.036784 53.568 
L 218.71988 53.568 
L 221.402975 53.568 
L 224.086071 53.568 
L 226.769166 53.568 
L 229.452261 53.568 
L 232.135357 53.568 
L 234.818452 53.568 
L 237.501548 53.568 
L 240.184643 53.568 
L 242.867739 53.568 
L 245.550834 53.568 
L 248.233929 53.568 
L 250.917025 53.568 
L 253.60012 53.568 
L 256.283216 53.568 
L 258.966311 53.568 
L 261.649406 53.568 
L 264.332502 53.568 
L 267.015597 53.568 
L 269.698693 53.568 
L 272.381788 53.568 
L 275.064884 53.568 
L 277.747979 53.568 
L 280.431074 53.568 
L 283.11417 53.568 
L 285.797265 53.568 
L 288.480361 53.568 
L 291.163456 53.568 
L 293.846551 53.568 
L 296.529647 53.568 
L 299.212742 53.568 
L 301.895838 53.568 
L 304.578933 53.568 
L 307.262029 53.568 
L 309.945124 53.568 
L 312.628219 53.568 
L 315.311315 53.568 
L 317.99441 53.568 
L 320.677506 53.568 
L 323.360601 53.568 
L 326.043696 53.568 
L 328.726792 53.568 
L 331.409887 53.568 
L 334.092983 53.568 
L 336.776078 53.568 
L 339.459174 53.568 
L 342.142269 53.568 
L 344.825364 53.568 
L 347.50846 53.568 
L 350.191555 53.568 
L 352.874651 53.568 
L 355.557746 53.568 
L 358.240841 53.568 
L 360.923937 53.568 
L 363.607032 53.568 
L 366.290128 53.568 
L 368.973223 53.568 
L 371.656319 53.568 
L 374.339414 53.568 
L 377.022509 53.568 
L 379.705605 53.568 
L 382.3887 53.568 
L 385.071796 53.568 
L 387.754891 53.568 
L 390.437986 53.568 
L 393.121082 53.568 
L 395.804177 53.568 
L 398.487273 53.568 
" clip-path="url(#p9ad609a48a)" style="fill: none; stroke-dasharray: 1.85,0.8; stroke-dashoffset: 0; stroke: #008000; stroke-width: 0.5"/>
   </g>
   <g id="line2d_15">
    <path d="M 73.832727 295.488 
L 76.515823 201.966211 
L 79.198918 195.782952 
L 81.882014 189.599693 
L 84.565109 185.735157 
L 87.248204 184.189342 
L 89.9313 179.551898 
L 92.614395 175.687361 
L 95.297491 167.18538 
L 97.980586 163.320843 
L 100.663681 161.002121 
L 103.346777 155.59177 
L 106.029872 154.045955 
L 108.712968 150.954326 
L 111.396063 149.408511 
L 114.079159 147.089789 
L 116.762254 140.90653 
L 119.445349 137.041994 
L 122.128445 130.085827 
L 124.81154 126.994198 
L 127.494636 124.675476 
L 130.177731 121.583847 
L 132.860826 113.081866 
L 135.543922 103.806978 
L 138.227017 101.488256 
L 140.910113 93.759182 
L 143.593208 85.257201 
L 146.276304 79.073942 
L 148.959399 72.117776 
L 151.642494 67.480332 
L 154.32559 66.707425 
L 157.008685 62.069981 
L 159.691781 62.069981 
L 162.374876 59.751259 
L 165.057971 58.205444 
L 167.741067 57.432537 
L 170.424162 56.659629 
L 173.107258 56.659629 
L 175.790353 56.659629 
L 178.473449 56.659629 
L 181.156544 56.659629 
L 183.839639 55.113815 
L 186.522735 54.340907 
L 189.20583 54.340907 
L 191.888926 54.340907 
L 194.572021 54.340907 
L 197.255116 53.568 
L 199.938212 53.568 
L 202.621307 53.568 
L 205.304403 53.568 
L 207.987498 53.568 
L 210.670594 53.568 
L 213.353689 53.568 
L 216.036784 53.568 
L 218.71988 53.568 
L 221.402975 53.568 
L 224.086071 53.568 
L 226.769166 53.568 
L 229.452261 53.568 
L 232.135357 53.568 
L 234.818452 53.568 
L 237.501548 53.568 
L 240.184643 53.568 
L 242.867739 53.568 
L 245.550834 53.568 
L 248.233929 53.568 
L 250.917025 53.568 
L 253.60012 53.568 
L 256.283216 53.568 
L 258.966311 53.568 
L 261.649406 53.568 
L 264.332502 53.568 
L 267.015597 53.568 
L 269.698693 53.568 
L 272.381788 53.568 
L 275.064884 53.568 
L 277.747979 53.568 
L 280.431074 53.568 
L 283.11417 53.568 
L 285.797265 53.568 
L 288.480361 53.568 
L 291.163456 53.568 
L 293.846551 53.568 
L 296.529647 53.568 
L 299.212742 53.568 
L 301.895838 53.568 
L 304.578933 53.568 
L 307.262029 53.568 
L 309.945124 53.568 
L 312.628219 53.568 
L 315.311315 53.568 
L 317.99441 53.568 
L 320.677506 53.568 
L 323.360601 53.568 
L 326.043696 53.568 
L 328.726792 53.568 
L 331.409887 53.568 
L 334.092983 53.568 
L 336.776078 53.568 
L 339.459174 53.568 
L 342.142269 53.568 
L 344.825364 53.568 
L 347.50846 53.568 
L 350.191555 53.568 
L 352.874651 53.568 
L 355.557746 53.568 
L 358.240841 53.568 
L 360.923937 53.568 
L 363.607032 53.568 
L 366.290128 53.568 
L 368.973223 53.568 
L 371.656319 53.568 
L 374.339414 53.568 
L 377.022509 53.568 
L 379.705605 53.568 
L 382.3887 53.568 
L 385.071796 53.568 
L 387.754891 53.568 
L 390.437986 53.568 
L 393.121082 53.568 
L 395.804177 53.568 
L 398.487273 53.568 
" clip-path="url(#p9ad609a48a)" style="fill: none; stroke-dasharray: 1.85,0.8; stroke-dashoffset: 0; stroke: #0000ff; stroke-width: 0.5"/>
   </g>
   <g id="line2d_16">
    <path d="M 73.832727 295.488 
L 76.515823 255.383615 
L 79.198918 226.922439 
L 81.882014 223.041369 
L 84.565109 219.160299 
L 87.248204 213.98554 
L 89.9313 208.810781 
L 92.614395 201.048642 
L 95.297491 195.873882 
L 97.980586 191.992813 
L 100.663681 189.405433 
L 103.346777 186.818053 
L 106.029872 186.818053 
L 108.712968 182.936984 
L 111.396063 177.762225 
L 114.079159 176.468535 
L 116.762254 170.000086 
L 119.445349 168.706396 
L 122.128445 162.237947 
L 124.81154 158.356877 
L 127.494636 154.475807 
L 130.177731 151.888428 
L 132.860826 148.007358 
L 135.543922 137.65784 
L 138.227017 136.36415 
L 140.910113 135.07046 
L 143.593208 133.77677 
L 146.276304 131.18939 
L 148.959399 128.602011 
L 151.642494 127.308321 
L 154.32559 126.014631 
L 157.008685 124.720941 
L 159.691781 122.133561 
L 162.374876 120.839872 
L 165.057971 119.546182 
L 167.741067 118.252492 
L 170.424162 118.252492 
L 173.107258 118.252492 
L 175.790353 113.077733 
L 178.473449 113.077733 
L 181.156544 111.784043 
L 183.839639 110.490353 
L 186.522735 106.609283 
L 189.20583 104.021904 
L 191.888926 104.021904 
L 194.572021 101.434524 
L 197.255116 98.847144 
L 199.938212 96.259765 
L 202.621307 96.259765 
L 205.304403 93.672385 
L 207.987498 91.085005 
L 210.670594 91.085005 
L 213.353689 88.497626 
L 216.036784 83.322866 
L 218.71988 76.854417 
L 221.402975 74.267037 
L 224.086071 74.267037 
L 226.769166 74.267037 
L 229.452261 70.385968 
L 232.135357 70.385968 
L 234.818452 70.385968 
L 237.501548 69.092278 
L 240.184643 69.092278 
L 242.867739 69.092278 
L 245.550834 67.798588 
L 248.233929 66.504898 
L 250.917025 65.211209 
L 253.60012 60.036449 
L 256.283216 58.742759 
L 258.966311 57.44907 
L 261.649406 57.44907 
L 264.332502 56.15538 
L 267.015597 56.15538 
L 269.698693 56.15538 
L 272.381788 54.86169 
L 275.064884 54.86169 
L 277.747979 54.86169 
L 280.431074 54.86169 
L 283.11417 54.86169 
L 285.797265 54.86169 
L 288.480361 54.86169 
L 291.163456 54.86169 
L 293.846551 54.86169 
L 296.529647 54.86169 
L 299.212742 54.86169 
L 301.895838 54.86169 
L 304.578933 54.86169 
L 307.262029 54.86169 
L 309.945124 54.86169 
L 312.628219 53.568 
L 315.311315 53.568 
L 317.99441 53.568 
L 320.677506 53.568 
L 323.360601 53.568 
L 326.043696 53.568 
L 328.726792 53.568 
L 331.409887 53.568 
L 334.092983 53.568 
L 336.776078 53.568 
L 339.459174 53.568 
L 342.142269 53.568 
L 344.825364 53.568 
L 347.50846 53.568 
L 350.191555 53.568 
L 352.874651 53.568 
L 355.557746 53.568 
L 358.240841 53.568 
L 360.923937 53.568 
L 363.607032 53.568 
L 366.290128 53.568 
L 368.973223 53.568 
L 371.656319 53.568 
L 374.339414 53.568 
L 377.022509 53.568 
L 379.705605 53.568 
L 382.3887 53.568 
L 385.071796 53.568 
L 387.754891 53.568 
L 390.437986 53.568 
L 393.121082 53.568 
L 395.804177 53.568 
L 398.487273 53.568 
" clip-path="url(#p9ad609a48a)" style="fill: none; stroke-dasharray: 1.85,0.8; stroke-dashoffset: 0; stroke: #bf00bf; stroke-width: 0.5"/>
   </g>
   <g id="line2d_17">
    <path d="M 73.832727 295.488 
L 76.515823 287.767149 
L 79.198918 231.147574 
L 81.882014 222.139915 
L 84.565109 220.853106 
L 87.248204 220.853106 
L 89.9313 219.566298 
L 92.614395 214.419064 
L 95.297491 207.985021 
L 97.980586 202.837787 
L 100.663681 198.977362 
L 103.346777 193.830128 
L 106.029872 191.256511 
L 108.712968 184.822468 
L 111.396063 179.675234 
L 114.079159 179.675234 
L 116.762254 177.101617 
L 119.445349 173.241191 
L 122.128445 170.667574 
L 124.81154 170.667574 
L 127.494636 168.093957 
L 130.177731 164.233532 
L 132.860826 161.659915 
L 135.543922 157.799489 
L 138.227017 153.939064 
L 140.910113 153.939064 
L 143.593208 151.365447 
L 146.276304 150.078638 
L 148.959399 146.218213 
L 151.642494 146.218213 
L 154.32559 142.357787 
L 157.008685 139.78417 
L 159.691781 135.923745 
L 162.374876 135.923745 
L 165.057971 135.923745 
L 167.741067 132.063319 
L 170.424162 132.063319 
L 173.107258 129.489702 
L 175.790353 126.916085 
L 178.473449 124.342468 
L 181.156544 124.342468 
L 183.839639 121.768851 
L 186.522735 121.768851 
L 189.20583 121.768851 
L 191.888926 117.908426 
L 194.572021 115.334809 
L 197.255116 112.761191 
L 199.938212 110.187574 
L 202.621307 108.900766 
L 205.304403 106.327149 
L 207.987498 106.327149 
L 210.670594 106.327149 
L 213.353689 105.04034 
L 216.036784 102.466723 
L 218.71988 102.466723 
L 221.402975 98.606298 
L 224.086071 98.606298 
L 226.769166 94.745872 
L 229.452261 93.459064 
L 232.135357 93.459064 
L 234.818452 89.598638 
L 237.501548 88.31183 
L 240.184643 87.025021 
L 242.867739 85.738213 
L 245.550834 81.877787 
L 248.233929 80.590979 
L 250.917025 76.730553 
L 253.60012 75.443745 
L 256.283216 75.443745 
L 258.966311 74.156936 
L 261.649406 72.870128 
L 264.332502 72.870128 
L 267.015597 70.296511 
L 269.698693 70.296511 
L 272.381788 69.009702 
L 275.064884 69.009702 
L 277.747979 69.009702 
L 280.431074 69.009702 
L 283.11417 69.009702 
L 285.797265 66.436085 
L 288.480361 66.436085 
L 291.163456 66.436085 
L 293.846551 65.149277 
L 296.529647 63.862468 
L 299.212742 62.57566 
L 301.895838 61.288851 
L 304.578933 58.715234 
L 307.262029 58.715234 
L 309.945124 58.715234 
L 312.628219 58.715234 
L 315.311315 57.428426 
L 317.99441 57.428426 
L 320.677506 57.428426 
L 323.360601 57.428426 
L 326.043696 57.428426 
L 328.726792 56.141617 
L 331.409887 56.141617 
L 334.092983 56.141617 
L 336.776078 56.141617 
L 339.459174 54.854809 
L 342.142269 54.854809 
L 344.825364 54.854809 
L 347.50846 54.854809 
L 350.191555 54.854809 
L 352.874651 54.854809 
L 355.557746 54.854809 
L 358.240841 54.854809 
L 360.923937 54.854809 
L 363.607032 54.854809 
L 366.290128 54.854809 
L 368.973223 54.854809 
L 371.656319 54.854809 
L 374.339414 54.854809 
L 377.022509 54.854809 
L 379.705605 54.854809 
L 382.3887 54.854809 
L 385.071796 54.854809 
L 387.754891 54.854809 
L 390.437986 54.854809 
L 393.121082 54.854809 
L 395.804177 54.854809 
L 398.487273 53.568 
" clip-path="url(#p9ad609a48a)" style="fill: none; stroke-dasharray: 1.85,0.8; stroke-dashoffset: 0; stroke: #bfbf00; stroke-width: 0.5"/>
   </g>
   <g id="patch_3">
    <path d="M 57.6 307.584 
L 57.6 41.472 
" style="fill: none; stroke: #000000; stroke-width: 0.8; stroke-linejoin: miter; stroke-linecap: square"/>
   </g>
   <g id="patch_4">
    <path d="M 414.72 307.584 
L 414.72 41.472 
" style="fill: none; stroke: #000000; stroke-width: 0.8; stroke-linejoin: miter; stroke-linecap: square"/>
   </g>
   <g id="patch_5">
    <path d="M 57.6 307.584 
L 414.72 307.584 
" style="fill: none; stroke: #000000; stroke-width: 0.8; stroke-linejoin: miter; stroke-linecap: square"/>
   </g>
   <g id="patch_6">
    <path d="M 57.6 41.472 
L 414.72 41.472 
" style="fill: none; stroke: #000000; stroke-width: 0.8; stroke-linejoin: miter; stroke-linecap: square"/>
   </g>
   <g id="text_15">
    <!-- count=1000, googlenet=187, resnet50=112, squeezenetv1=187, vgg19=112 -->
    <g transform="translate(32.16 35.472)scale(0.12 -0.12)">
     <defs>
      <path id="FangSong-63" d="M 2125 2125 
Q 2125 2200 2137 2225 
Q 2150 2250 2175 2325 
Q 2200 2425 2075 2562 
Q 1950 2700 1650 2700 
Q 1275 2700 1012 2337 
Q 750 1975 750 1375 
Q 750 825 975 487 
Q 1200 150 1725 150 
Q 2075 150 2312 375 
Q 2550 600 2650 900 
L 2775 850 
Q 2675 475 2400 212 
Q 2125 -50 1650 -50 
Q 1050 -50 700 325 
Q 350 700 350 1400 
Q 350 2025 725 2437 
Q 1100 2850 1700 2850 
Q 2125 2850 2362 2625 
Q 2600 2400 2600 2175 
Q 2600 2025 2537 1962 
Q 2475 1900 2350 1900 
Q 2250 1900 2187 1962 
Q 2125 2025 2125 2125 
z
" transform="scale(0.015625)"/>
      <path id="FangSong-6f" d="M 2875 1400 
Q 2875 775 2500 362 
Q 2125 -50 1575 -50 
Q 1000 -50 637 375 
Q 275 800 275 1400 
Q 275 1950 637 2400 
Q 1000 2850 1575 2850 
Q 2175 2850 2525 2400 
Q 2875 1950 2875 1400 
z
M 675 1375 
Q 675 725 937 412 
Q 1200 100 1575 100 
Q 2000 100 2237 437 
Q 2475 775 2475 1375 
Q 2475 2025 2212 2362 
Q 1950 2700 1575 2700 
Q 1225 2700 950 2362 
Q 675 2025 675 1375 
z
" transform="scale(0.015625)"/>
      <path id="FangSong-75" d="M 1425 225 
Q 1725 225 1937 375 
Q 2150 525 2250 850 
L 2250 2425 
Q 2250 2525 2200 2587 
Q 2150 2650 2025 2650 
L 1875 2650 
L 1875 2800 
L 2025 2800 
Q 2175 2800 2300 2825 
Q 2425 2850 2550 2950 
L 2600 2950 
L 2600 500 
Q 2600 400 2662 350 
Q 2725 300 2825 300 
L 2975 300 
L 2975 150 
L 2825 150 
Q 2700 150 2575 112 
Q 2450 75 2300 0 
L 2250 0 
L 2250 525 
Q 2125 250 1875 112 
Q 1625 -25 1300 -25 
Q 900 -25 700 200 
Q 500 425 500 925 
L 500 2425 
Q 500 2525 450 2587 
Q 400 2650 275 2650 
L 125 2650 
L 125 2800 
L 275 2800 
Q 425 2800 550 2825 
Q 675 2850 800 2950 
L 850 2950 
L 850 875 
Q 850 525 1000 375 
Q 1150 225 1425 225 
z
" transform="scale(0.015625)"/>
      <path id="FangSong-6e" d="M 175 0 
L 175 150 
L 300 150 
Q 425 150 475 200 
Q 525 250 525 350 
L 525 2500 
Q 525 2575 500 2612 
Q 475 2650 400 2650 
L 200 2650 
L 200 2800 
L 375 2800 
Q 500 2800 612 2825 
Q 725 2850 825 2925 
L 875 2925 
L 875 2350 
Q 1100 2600 1325 2725 
Q 1550 2850 1800 2850 
Q 2225 2850 2425 2625 
Q 2625 2400 2625 1950 
L 2625 350 
Q 2625 250 2687 200 
Q 2750 150 2850 150 
L 2975 150 
L 2975 0 
L 1925 0 
L 1925 150 
L 2050 150 
Q 2175 150 2225 200 
Q 2275 250 2275 350 
L 2275 2025 
Q 2275 2325 2150 2487 
Q 2025 2650 1775 2650 
Q 1550 2650 1312 2500 
Q 1075 2350 875 2075 
L 875 350 
Q 875 250 937 200 
Q 1000 150 1100 150 
L 1225 150 
L 1225 0 
L 175 0 
z
" transform="scale(0.015625)"/>
      <path id="FangSong-74" d="M 1475 800 
Q 1475 450 1600 325 
Q 1725 200 1975 200 
Q 2225 200 2375 362 
Q 2525 525 2575 825 
L 2700 775 
Q 2650 425 2437 200 
Q 2225 -25 1875 -25 
Q 1500 -25 1312 200 
Q 1125 425 1125 900 
L 1125 2650 
L 375 2650 
L 375 2800 
L 575 2800 
Q 875 2800 1062 2987 
Q 1250 3175 1300 3575 
L 1325 3775 
L 1475 3775 
L 1475 2800 
L 2475 2800 
L 2475 2650 
L 1475 2650 
L 1475 800 
z
" transform="scale(0.015625)"/>
      <path id="FangSong-3d" d="M 175 2725 
L 175 2950 
L 2950 2950 
L 2950 2725 
L 175 2725 
z
M 175 1450 
L 175 1675 
L 2950 1675 
L 2950 1450 
L 175 1450 
z
" transform="scale(0.015625)"/>
      <path id="FangSong-2c" d="M 1325 75 
Q 1200 25 1100 75 
Q 1000 125 962 237 
Q 925 350 925 437 
Q 925 525 987 612 
Q 1050 700 1150 737 
Q 1250 775 1425 725 
Q 1600 675 1650 500 
Q 1700 325 1662 150 
Q 1625 -25 1525 -200 
Q 1425 -375 1312 -475 
Q 1200 -575 1025 -675 
L 950 -575 
Q 1100 -450 1187 -312 
Q 1275 -175 1325 75 
z
" transform="scale(0.015625)"/>
      <path id="FangSong-20" transform="scale(0.015625)"/>
      <path id="FangSong-67" d="M 850 1875 
Q 850 1575 1025 1362 
Q 1200 1150 1500 1150 
Q 1825 1150 1987 1337 
Q 2150 1525 2150 1875 
Q 2150 2300 1962 2487 
Q 1775 2675 1500 2675 
Q 1225 2675 1037 2487 
Q 850 2300 850 1875 
z
M 2075 525 
Q 2450 475 2625 312 
Q 2800 150 2800 -125 
Q 2800 -500 2487 -725 
Q 2175 -950 1500 -950 
Q 975 -950 650 -737 
Q 325 -525 325 -250 
Q 325 -75 450 100 
Q 575 275 850 375 
Q 700 450 612 537 
Q 525 625 525 750 
Q 525 900 625 1012 
Q 725 1125 875 1200 
Q 725 1325 612 1500 
Q 500 1675 500 1875 
Q 500 2250 762 2537 
Q 1025 2825 1500 2825 
Q 1700 2825 1887 2775 
Q 2075 2725 2200 2600 
Q 2375 2725 2512 2787 
Q 2650 2850 2750 2850 
Q 2875 2850 2925 2762 
Q 2975 2675 2975 2600 
Q 2975 2500 2937 2437 
Q 2900 2375 2800 2375 
Q 2725 2375 2675 2412 
Q 2625 2450 2600 2525 
Q 2575 2600 2487 2587 
Q 2400 2575 2300 2500 
Q 2400 2400 2450 2225 
Q 2500 2050 2500 1875 
Q 2500 1575 2262 1287 
Q 2025 1000 1500 1000 
Q 1350 1000 1225 1037 
Q 1100 1075 1025 1125 
Q 925 1075 875 1000 
Q 825 925 825 875 
Q 825 775 875 725 
Q 925 675 1025 675 
Q 1350 625 1612 587 
Q 1875 550 2075 525 
z
M 1050 325 
Q 825 225 737 87 
Q 650 -50 650 -250 
Q 650 -450 875 -625 
Q 1100 -800 1550 -800 
Q 1975 -800 2225 -662 
Q 2475 -525 2475 -250 
Q 2475 -75 2412 25 
Q 2350 125 2225 150 
Q 1975 200 1675 237 
Q 1375 275 1050 325 
z
" transform="scale(0.015625)"/>
      <path id="FangSong-6c" d="M 900 4275 
Q 1125 4275 1325 4325 
Q 1525 4375 1700 4475 
L 1750 4475 
L 1750 350 
Q 1750 250 1812 200 
Q 1875 150 1975 150 
L 2550 150 
L 2550 0 
L 600 0 
L 600 150 
L 1175 150 
Q 1300 150 1350 200 
Q 1400 250 1400 350 
L 1400 3925 
Q 1400 4025 1350 4075 
Q 1300 4125 1175 4125 
L 625 4125 
L 625 4275 
L 900 4275 
z
" transform="scale(0.015625)"/>
      <path id="FangSong-65" d="M 2375 1550 
Q 2400 2100 2187 2387 
Q 1975 2675 1625 2675 
Q 1250 2675 1012 2375 
Q 775 2075 775 1550 
L 2375 1550 
z
M 775 1400 
Q 775 725 1037 437 
Q 1300 150 1725 150 
Q 2050 150 2275 337 
Q 2500 525 2600 800 
L 2725 750 
Q 2650 475 2387 212 
Q 2125 -50 1675 -50 
Q 1100 -50 737 325 
Q 375 700 375 1400 
Q 375 2025 737 2437 
Q 1100 2850 1625 2850 
Q 2100 2850 2450 2525 
Q 2800 2200 2800 1400 
L 775 1400 
z
" transform="scale(0.015625)"/>
      <path id="FangSong-37" d="M 2800 4100 
Q 2275 3250 1962 2437 
Q 1650 1625 1650 1025 
Q 1650 925 1662 737 
Q 1675 550 1675 300 
Q 1675 100 1612 25 
Q 1550 -50 1400 -50 
Q 1275 -50 1187 37 
Q 1100 125 1100 350 
Q 1100 825 1312 1525 
Q 1525 2225 2450 3900 
L 1200 3900 
Q 925 3900 762 3725 
Q 600 3550 525 3200 
L 375 3225 
L 550 4275 
L 2800 4275 
L 2800 4100 
z
" transform="scale(0.015625)"/>
      <path id="FangSong-72" d="M 1250 2025 
Q 1500 2425 1787 2637 
Q 2075 2850 2375 2850 
Q 2625 2850 2762 2737 
Q 2900 2625 2900 2475 
Q 2900 2350 2837 2275 
Q 2775 2200 2650 2200 
Q 2525 2200 2462 2275 
Q 2400 2350 2425 2475 
Q 2425 2550 2400 2600 
Q 2375 2650 2250 2650 
Q 2050 2650 1762 2400 
Q 1475 2150 1250 1700 
L 1250 350 
Q 1250 250 1312 200 
Q 1375 150 1475 150 
L 2025 150 
L 2025 0 
L 175 0 
L 175 150 
L 675 150 
Q 800 150 850 200 
Q 900 250 900 350 
L 900 2425 
Q 900 2525 850 2587 
Q 800 2650 675 2650 
L 200 2650 
L 200 2800 
L 400 2800 
Q 575 2800 812 2837 
Q 1050 2875 1175 2925 
L 1250 2925 
L 1250 2025 
z
" transform="scale(0.015625)"/>
      <path id="FangSong-73" d="M 600 2075 
Q 600 2450 887 2650 
Q 1175 2850 1575 2850 
Q 1800 2850 2000 2787 
Q 2200 2725 2275 2725 
Q 2350 2725 2400 2750 
Q 2450 2775 2525 2850 
L 2625 2025 
L 2475 2000 
Q 2375 2325 2137 2512 
Q 1900 2700 1600 2700 
Q 1275 2700 1087 2575 
Q 900 2450 900 2225 
Q 900 2025 987 1912 
Q 1075 1800 1300 1750 
Q 1475 1675 1737 1587 
Q 2000 1500 2225 1400 
Q 2425 1300 2562 1137 
Q 2700 975 2700 775 
Q 2700 400 2437 187 
Q 2175 -25 1675 -25 
Q 1350 -25 1187 37 
Q 1025 100 925 100 
Q 850 100 762 62 
Q 675 25 575 -25 
L 500 900 
L 650 925 
Q 725 525 975 325 
Q 1225 125 1675 125 
Q 2025 125 2212 250 
Q 2400 375 2400 625 
Q 2400 800 2300 912 
Q 2200 1025 2100 1075 
Q 1850 1175 1550 1287 
Q 1250 1400 1025 1500 
Q 800 1600 700 1750 
Q 600 1900 600 2075 
z
" transform="scale(0.015625)"/>
      <path id="FangSong-35" d="M 1700 2750 
Q 2175 2750 2475 2387 
Q 2775 2025 2775 1425 
Q 2775 750 2462 350 
Q 2150 -50 1500 -50 
Q 1050 -50 700 212 
Q 350 475 350 850 
Q 350 1000 437 1112 
Q 525 1225 675 1225 
Q 825 1225 875 1125 
Q 925 1025 925 950 
Q 925 800 850 712 
Q 775 625 775 525 
Q 775 325 1012 225 
Q 1250 125 1525 125 
Q 1925 125 2137 450 
Q 2350 775 2350 1375 
Q 2350 1875 2162 2187 
Q 1975 2500 1600 2500 
Q 1325 2500 1125 2400 
Q 925 2300 750 1975 
L 525 2000 
L 650 4275 
L 2700 4275 
L 2625 3900 
L 825 3900 
L 725 2250 
Q 975 2600 1212 2675 
Q 1450 2750 1700 2750 
z
" transform="scale(0.015625)"/>
      <path id="FangSong-71" d="M 2250 2150 
Q 2150 2375 1975 2512 
Q 1800 2650 1550 2650 
Q 1200 2650 950 2350 
Q 700 2050 700 1325 
Q 700 700 912 437 
Q 1125 175 1450 175 
Q 1725 175 1937 300 
Q 2150 425 2250 725 
L 2250 2150 
z
M 2600 -550 
Q 2600 -675 2662 -725 
Q 2725 -775 2825 -775 
L 2975 -775 
L 2975 -925 
L 1825 -925 
L 1825 -775 
L 2025 -775 
Q 2150 -775 2200 -725 
Q 2250 -675 2250 -550 
L 2250 375 
Q 2100 175 1887 75 
Q 1675 -25 1375 -25 
Q 950 -25 625 337 
Q 300 700 300 1400 
Q 300 2075 675 2450 
Q 1050 2825 1475 2825 
Q 1750 2825 1937 2725 
Q 2125 2625 2275 2475 
L 2500 2800 
L 2600 2800 
L 2600 -550 
z
" transform="scale(0.015625)"/>
      <path id="FangSong-7a" d="M 2725 975 
L 2550 0 
L 400 0 
L 400 125 
L 2125 2650 
L 1200 2650 
Q 975 2650 825 2487 
Q 675 2325 575 1925 
L 425 1950 
L 525 2800 
L 2575 2800 
L 2575 2725 
L 825 150 
L 1775 150 
Q 2100 150 2287 350 
Q 2475 550 2575 1000 
L 2725 975 
z
" transform="scale(0.015625)"/>
      <path id="FangSong-76" d="M 1600 -25 
L 1450 -25 
L 600 2425 
Q 575 2525 500 2587 
Q 425 2650 325 2650 
L 200 2650 
L 200 2800 
L 1275 2800 
L 1275 2650 
L 1175 2650 
Q 1025 2650 987 2575 
Q 950 2500 1000 2325 
L 1600 575 
L 1650 575 
L 2250 2300 
Q 2325 2475 2262 2562 
Q 2200 2650 2050 2650 
L 2000 2650 
L 2000 2800 
L 2900 2800 
L 2900 2650 
L 2850 2650 
Q 2700 2650 2612 2562 
Q 2525 2475 2450 2300 
L 1600 -25 
z
" transform="scale(0.015625)"/>
      <path id="FangSong-39" d="M 675 2950 
Q 675 2400 887 2112 
Q 1100 1825 1425 1825 
Q 1800 1825 2075 2175 
Q 2350 2525 2350 2825 
Q 2350 3425 2150 3787 
Q 1950 4150 1500 4150 
Q 1075 4150 875 3812 
Q 675 3475 675 2950 
z
M 1350 1600 
Q 850 1600 550 1912 
Q 250 2225 250 2925 
Q 250 3525 575 3925 
Q 900 4325 1500 4325 
Q 2125 4325 2475 3825 
Q 2825 3325 2825 2375 
Q 2825 1325 2412 637 
Q 2000 -50 1275 -50 
Q 950 -50 712 100 
Q 475 250 475 500 
Q 475 600 537 700 
Q 600 800 750 800 
Q 900 800 950 687 
Q 1000 575 1000 425 
Q 1000 325 1025 262 
Q 1050 200 1075 175 
Q 1100 150 1162 137 
Q 1225 125 1300 125 
Q 1750 125 2025 625 
Q 2300 1125 2350 2300 
Q 2225 2000 1975 1800 
Q 1725 1600 1350 1600 
z
" transform="scale(0.015625)"/>
     </defs>
     <use xlink:href="#FangSong-63"/>
     <use xlink:href="#FangSong-6f" x="50"/>
     <use xlink:href="#FangSong-75" x="100"/>
     <use xlink:href="#FangSong-6e" x="150"/>
     <use xlink:href="#FangSong-74" x="200"/>
     <use xlink:href="#FangSong-3d" x="250"/>
     <use xlink:href="#FangSong-31" x="300"/>
     <use xlink:href="#FangSong-30" x="350"/>
     <use xlink:href="#FangSong-30" x="400"/>
     <use xlink:href="#FangSong-30" x="450"/>
     <use xlink:href="#FangSong-2c" x="500"/>
     <use xlink:href="#FangSong-20" x="550"/>
     <use xlink:href="#FangSong-67" x="600"/>
     <use xlink:href="#FangSong-6f" x="650"/>
     <use xlink:href="#FangSong-6f" x="700"/>
     <use xlink:href="#FangSong-67" x="750"/>
     <use xlink:href="#FangSong-6c" x="800"/>
     <use xlink:href="#FangSong-65" x="850"/>
     <use xlink:href="#FangSong-6e" x="900"/>
     <use xlink:href="#FangSong-65" x="950"/>
     <use xlink:href="#FangSong-74" x="1000"/>
     <use xlink:href="#FangSong-3d" x="1050"/>
     <use xlink:href="#FangSong-31" x="1100"/>
     <use xlink:href="#FangSong-38" x="1150"/>
     <use xlink:href="#FangSong-37" x="1200"/>
     <use xlink:href="#FangSong-2c" x="1250"/>
     <use xlink:href="#FangSong-20" x="1300"/>
     <use xlink:href="#FangSong-72" x="1350"/>
     <use xlink:href="#FangSong-65" x="1400"/>
     <use xlink:href="#FangSong-73" x="1450"/>
     <use xlink:href="#FangSong-6e" x="1500"/>
     <use xlink:href="#FangSong-65" x="1550"/>
     <use xlink:href="#FangSong-74" x="1600"/>
     <use xlink:href="#FangSong-35" x="1650"/>
     <use xlink:href="#FangSong-30" x="1700"/>
     <use xlink:href="#FangSong-3d" x="1750"/>
     <use xlink:href="#FangSong-31" x="1800"/>
     <use xlink:href="#FangSong-31" x="1850"/>
     <use xlink:href="#FangSong-32" x="1900"/>
     <use xlink:href="#FangSong-2c" x="1950"/>
     <use xlink:href="#FangSong-20" x="2000"/>
     <use xlink:href="#FangSong-73" x="2050"/>
     <use xlink:href="#FangSong-71" x="2100"/>
     <use xlink:href="#FangSong-75" x="2150"/>
     <use xlink:href="#FangSong-65" x="2200"/>
     <use xlink:href="#FangSong-65" x="2250"/>
     <use xlink:href="#FangSong-7a" x="2300"/>
     <use xlink:href="#FangSong-65" x="2350"/>
     <use xlink:href="#FangSong-6e" x="2400"/>
     <use xlink:href="#FangSong-65" x="2450"/>
     <use xlink:href="#FangSong-74" x="2500"/>
     <use xlink:href="#FangSong-76" x="2550"/>
     <use xlink:href="#FangSong-31" x="2600"/>
     <use xlink:href="#FangSong-3d" x="2650"/>
     <use xlink:href="#FangSong-31" x="2700"/>
     <use xlink:href="#FangSong-38" x="2750"/>
     <use xlink:href="#FangSong-37" x="2800"/>
     <use xlink:href="#FangSong-2c" x="2850"/>
     <use xlink:href="#FangSong-20" x="2900"/>
     <use xlink:href="#FangSong-76" x="2950"/>
     <use xlink:href="#FangSong-67" x="3000"/>
     <use xlink:href="#FangSong-67" x="3050"/>
     <use xlink:href="#FangSong-31" x="3100"/>
     <use xlink:href="#FangSong-39" x="3150"/>
     <use xlink:href="#FangSong-3d" x="3200"/>
     <use xlink:href="#FangSong-31" x="3250"/>
     <use xlink:href="#FangSong-31" x="3300"/>
     <use xlink:href="#FangSong-32" x="3350"/>
    </g>
   </g>
   <g id="legend_1">
    <g id="patch_7">
     <path d="M 315.72 302.584 
L 407.72 302.584 
Q 409.72 302.584 409.72 300.584 
L 409.72 234.279312 
Q 409.72 232.279312 407.72 232.279312 
L 315.72 232.279312 
Q 313.72 232.279312 313.72 234.279312 
L 313.72 300.584 
Q 313.72 302.584 315.72 302.584 
z
" style="fill: #ffffff; opacity: 0.8; stroke: #cccccc; stroke-linejoin: miter"/>
    </g>
    <g id="line2d_18">
     <path d="M 317.72 239.779312 
L 327.72 239.779312 
L 337.72 239.779312 
" style="fill: none; stroke: #ff0000; stroke-linecap: square"/>
    </g>
    <g id="text_16">
     <!-- total -->
     <g transform="translate(345.72 243.279312)scale(0.1 -0.1)">
      <defs>
       <path id="FangSong-61" d="M 1200 -25 
Q 750 -25 500 187 
Q 250 400 250 675 
Q 250 1125 637 1412 
Q 1025 1700 2175 1825 
L 2175 2125 
Q 2175 2375 2062 2537 
Q 1950 2700 1550 2700 
Q 1125 2700 950 2562 
Q 775 2425 825 2275 
Q 875 2175 825 2075 
Q 775 1975 625 1975 
Q 525 1975 462 2037 
Q 400 2100 400 2225 
Q 400 2450 725 2650 
Q 1050 2850 1525 2850 
Q 2025 2850 2275 2662 
Q 2525 2475 2525 2125 
L 2525 475 
Q 2525 275 2562 237 
Q 2600 200 2700 200 
Q 2825 200 2875 312 
Q 2925 425 2925 625 
L 3050 625 
Q 3050 275 2925 137 
Q 2800 0 2600 0 
Q 2425 0 2325 75 
Q 2225 150 2175 325 
Q 1925 150 1712 62 
Q 1500 -25 1200 -25 
z
M 675 750 
Q 675 525 812 337 
Q 950 150 1250 150 
Q 1475 150 1700 237 
Q 1925 325 2175 500 
L 2175 1675 
Q 1325 1575 1000 1337 
Q 675 1100 675 750 
z
" transform="scale(0.015625)"/>
      </defs>
      <use xlink:href="#FangSong-74"/>
      <use xlink:href="#FangSong-6f" x="50"/>
      <use xlink:href="#FangSong-74" x="100"/>
      <use xlink:href="#FangSong-61" x="150"/>
      <use xlink:href="#FangSong-6c" x="200"/>
     </g>
    </g>
    <g id="line2d_19">
     <path d="M 317.72 253.224625 
L 327.72 253.224625 
L 337.72 253.224625 
" style="fill: none; stroke-dasharray: 1.85,0.8; stroke-dashoffset: 0; stroke: #008000; stroke-width: 0.5"/>
    </g>
    <g id="text_17">
     <!-- vgg19 -->
     <g transform="translate(345.72 256.724625)scale(0.1 -0.1)">
      <use xlink:href="#FangSong-76"/>
      <use xlink:href="#FangSong-67" x="50"/>
      <use xlink:href="#FangSong-67" x="100"/>
      <use xlink:href="#FangSong-31" x="150"/>
      <use xlink:href="#FangSong-39" x="200"/>
     </g>
    </g>
    <g id="line2d_20">
     <path d="M 317.72 266.709 
L 327.72 266.709 
L 337.72 266.709 
" style="fill: none; stroke-dasharray: 1.85,0.8; stroke-dashoffset: 0; stroke: #0000ff; stroke-width: 0.5"/>
    </g>
    <g id="text_18">
     <!-- resnet50 -->
     <g transform="translate(345.72 270.209)scale(0.1 -0.1)">
      <use xlink:href="#FangSong-72"/>
      <use xlink:href="#FangSong-65" x="50"/>
      <use xlink:href="#FangSong-73" x="100"/>
      <use xlink:href="#FangSong-6e" x="150"/>
      <use xlink:href="#FangSong-65" x="200"/>
      <use xlink:href="#FangSong-74" x="250"/>
      <use xlink:href="#FangSong-35" x="300"/>
      <use xlink:href="#FangSong-30" x="350"/>
     </g>
    </g>
    <g id="line2d_21">
     <path d="M 317.72 280.154312 
L 327.72 280.154312 
L 337.72 280.154312 
" style="fill: none; stroke-dasharray: 1.85,0.8; stroke-dashoffset: 0; stroke: #bf00bf; stroke-width: 0.5"/>
    </g>
    <g id="text_19">
     <!-- googlenet -->
     <g transform="translate(345.72 283.654312)scale(0.1 -0.1)">
      <use xlink:href="#FangSong-67"/>
      <use xlink:href="#FangSong-6f" x="50"/>
      <use xlink:href="#FangSong-6f" x="100"/>
      <use xlink:href="#FangSong-67" x="150"/>
      <use xlink:href="#FangSong-6c" x="200"/>
      <use xlink:href="#FangSong-65" x="250"/>
      <use xlink:href="#FangSong-6e" x="300"/>
      <use xlink:href="#FangSong-65" x="350"/>
      <use xlink:href="#FangSong-74" x="400"/>
     </g>
    </g>
    <g id="line2d_22">
     <path d="M 317.72 293.638687 
L 327.72 293.638687 
L 337.72 293.638687 
" style="fill: none; stroke-dasharray: 1.85,0.8; stroke-dashoffset: 0; stroke: #bfbf00; stroke-width: 0.5"/>
    </g>
    <g id="text_20">
     <!-- squeezenetv1 -->
     <g transform="translate(345.72 297.138687)scale(0.1 -0.1)">
      <use xlink:href="#FangSong-73"/>
      <use xlink:href="#FangSong-71" x="50"/>
      <use xlink:href="#FangSong-75" x="100"/>
      <use xlink:href="#FangSong-65" x="150"/>
      <use xlink:href="#FangSong-65" x="200"/>
      <use xlink:href="#FangSong-7a" x="250"/>
      <use xlink:href="#FangSong-65" x="300"/>
      <use xlink:href="#FangSong-6e" x="350"/>
      <use xlink:href="#FangSong-65" x="400"/>
      <use xlink:href="#FangSong-74" x="450"/>
      <use xlink:href="#FangSong-76" x="500"/>
      <use xlink:href="#FangSong-31" x="550"/>
     </g>
    </g>
   </g>
  </g>
 </g>
 <defs>
  <clipPath id="p9ad609a48a">
   <rect x="57.6" y="41.472" width="357.12" height="266.112"/>
  </clipPath>
 </defs>
</svg>
