<?xml version="1.0" encoding="utf-8" standalone="no"?>
<!DOCTYPE svg PUBLIC "-//W3C//DTD SVG 1.1//EN"
  "http://www.w3.org/Graphics/SVG/1.1/DTD/svg11.dtd">
<svg xmlns:xlink="http://www.w3.org/1999/xlink" width="460.8pt" height="345.6pt" viewBox="0 0 460.8 345.6" xmlns="http://www.w3.org/2000/svg" version="1.1">
 <metadata>
  <rdf:RDF xmlns:dc="http://purl.org/dc/elements/1.1/" xmlns:cc="http://creativecommons.org/ns#" xmlns:rdf="http://www.w3.org/1999/02/22-rdf-syntax-ns#">
   <cc:Work>
    <dc:type rdf:resource="http://purl.org/dc/dcmitype/StillImage"/>
    <dc:date>2022-11-17T04:01:27.647494</dc:date>
    <dc:format>image/svg+xml</dc:format>
    <dc:creator>
     <cc:Agent>
      <dc:title>Matplotlib v3.5.2, https://matplotlib.org/</dc:title>
     </cc:Agent>
    </dc:creator>
   </cc:Work>
  </rdf:RDF>
 </metadata>
 <defs>
  <style type="text/css">*{stroke-linejoin: round; stroke-linecap: butt}</style>
 </defs>
 <g id="figure_1">
  <g id="patch_1">
   <path d="M 0 345.6 
L 460.8 345.6 
L 460.8 0 
L 0 0 
z
" style="fill: #ffffff"/>
  </g>
  <g id="axes_1">
   <g id="patch_2">
    <path d="M 57.6 307.584 
L 414.72 307.584 
L 414.72 41.472 
L 57.6 41.472 
z
" style="fill: #ffffff"/>
   </g>
   <g id="matplotlib.axis_1">
    <g id="xtick_1">
     <g id="line2d_1">
      <defs>
       <path id="m3bd655d00e" d="M 0 0 
L 0 3.5 
" style="stroke: #000000; stroke-width: 0.8"/>
      </defs>
      <g>
       <use xlink:href="#m3bd655d00e" x="71.747599" y="307.584" style="stroke: #000000; stroke-width: 0.8"/>
      </g>
     </g>
     <g id="text_1">
      <!-- 0 -->
      <g transform="translate(69.247599 321.576187)scale(0.1 -0.1)">
       <defs>
        <path id="FangSong-30" d="M 1575 4125 
Q 1225 4125 987 3587 
Q 750 3050 750 2150 
Q 750 1200 987 675 
Q 1225 150 1575 150 
Q 1950 150 2162 675 
Q 2375 1200 2375 2150 
Q 2375 3050 2175 3587 
Q 1975 4125 1575 4125 
z
M 1575 -50 
Q 1025 -50 650 525 
Q 275 1100 275 2150 
Q 275 3125 637 3725 
Q 1000 4325 1575 4325 
Q 2125 4325 2487 3750 
Q 2850 3175 2850 2150 
Q 2850 1125 2487 537 
Q 2125 -50 1575 -50 
z
" transform="scale(0.015625)"/>
       </defs>
       <use xlink:href="#FangSong-30"/>
      </g>
     </g>
    </g>
    <g id="xtick_2">
     <g id="line2d_2">
      <g>
       <use xlink:href="#m3bd655d00e" x="113.450173" y="307.584" style="stroke: #000000; stroke-width: 0.8"/>
      </g>
     </g>
     <g id="text_2">
      <!-- 20 -->
      <g transform="translate(108.450173 321.576187)scale(0.1 -0.1)">
       <defs>
        <path id="FangSong-32" d="M 2300 3225 
Q 2300 3675 2100 3912 
Q 1900 4150 1500 4150 
Q 1200 4150 987 3987 
Q 775 3825 775 3575 
Q 775 3425 862 3325 
Q 950 3225 950 3125 
Q 950 3000 887 2937 
Q 825 2875 700 2875 
Q 550 2875 462 2962 
Q 375 3050 375 3250 
Q 375 3775 750 4050 
Q 1125 4325 1550 4325 
Q 2150 4325 2437 4025 
Q 2725 3725 2725 3275 
Q 2725 2975 2587 2675 
Q 2450 2375 2150 2100 
Q 1425 1400 1037 962 
Q 650 525 575 375 
L 2050 375 
Q 2275 375 2425 550 
Q 2575 725 2625 1075 
L 2775 1075 
L 2625 0 
L 300 0 
L 300 325 
Q 425 550 712 900 
Q 1000 1250 1475 1725 
Q 1900 2150 2100 2525 
Q 2300 2900 2300 3225 
z
" transform="scale(0.015625)"/>
       </defs>
       <use xlink:href="#FangSong-32"/>
       <use xlink:href="#FangSong-30" x="50"/>
      </g>
     </g>
    </g>
    <g id="xtick_3">
     <g id="line2d_3">
      <g>
       <use xlink:href="#m3bd655d00e" x="155.152748" y="307.584" style="stroke: #000000; stroke-width: 0.8"/>
      </g>
     </g>
     <g id="text_3">
      <!-- 40 -->
      <g transform="translate(150.152748 321.576187)scale(0.1 -0.1)">
       <defs>
        <path id="FangSong-34" d="M 2275 475 
Q 2275 300 2375 225 
Q 2475 150 2650 150 
L 2875 150 
L 2875 0 
L 1225 0 
L 1225 150 
L 1500 150 
Q 1700 150 1787 225 
Q 1875 300 1875 475 
L 1875 1300 
L 200 1300 
L 200 1425 
L 2025 4325 
L 2275 4325 
L 2275 1450 
L 2950 1450 
L 2950 1300 
L 2275 1300 
L 2275 475 
z
M 1850 3700 
L 425 1450 
L 1875 1450 
L 1875 3700 
L 1850 3700 
z
" transform="scale(0.015625)"/>
       </defs>
       <use xlink:href="#FangSong-34"/>
       <use xlink:href="#FangSong-30" x="50"/>
      </g>
     </g>
    </g>
    <g id="xtick_4">
     <g id="line2d_4">
      <g>
       <use xlink:href="#m3bd655d00e" x="196.855323" y="307.584" style="stroke: #000000; stroke-width: 0.8"/>
      </g>
     </g>
     <g id="text_4">
      <!-- 60 -->
      <g transform="translate(191.855323 321.576187)scale(0.1 -0.1)">
       <defs>
        <path id="FangSong-36" d="M 750 1700 
Q 750 950 1012 537 
Q 1275 125 1650 125 
Q 2025 125 2225 400 
Q 2425 675 2425 1425 
Q 2425 1925 2212 2200 
Q 2000 2475 1700 2475 
Q 1425 2475 1187 2312 
Q 950 2150 750 1700 
z
M 1725 2725 
Q 2325 2725 2587 2325 
Q 2850 1925 2850 1425 
Q 2850 675 2487 312 
Q 2125 -50 1650 -50 
Q 975 -50 625 462 
Q 275 975 275 1950 
Q 275 3100 700 3712 
Q 1125 4325 1850 4325 
Q 2200 4325 2412 4125 
Q 2625 3925 2625 3775 
Q 2625 3625 2562 3550 
Q 2500 3475 2350 3475 
Q 2225 3475 2162 3537 
Q 2100 3600 2100 3725 
Q 2100 3775 2112 3825 
Q 2125 3875 2125 3925 
Q 2125 4025 2050 4087 
Q 1975 4150 1775 4150 
Q 1350 4150 1050 3762 
Q 750 3375 750 2075 
Q 900 2400 1162 2562 
Q 1425 2725 1725 2725 
z
" transform="scale(0.015625)"/>
       </defs>
       <use xlink:href="#FangSong-36"/>
       <use xlink:href="#FangSong-30" x="50"/>
      </g>
     </g>
    </g>
    <g id="xtick_5">
     <g id="line2d_5">
      <g>
       <use xlink:href="#m3bd655d00e" x="238.557898" y="307.584" style="stroke: #000000; stroke-width: 0.8"/>
      </g>
     </g>
     <g id="text_5">
      <!-- 80 -->
      <g transform="translate(233.557898 321.576187)scale(0.1 -0.1)">
       <defs>
        <path id="FangSong-38" d="M 600 1025 
Q 600 625 862 375 
Q 1125 125 1525 125 
Q 2000 125 2212 375 
Q 2425 625 2425 1000 
Q 2425 1325 2125 1625 
Q 1825 1925 1225 2175 
Q 925 1975 762 1675 
Q 600 1375 600 1025 
z
M 2800 1075 
Q 2800 600 2450 275 
Q 2100 -50 1525 -50 
Q 1000 -50 625 275 
Q 250 600 250 1025 
Q 250 1450 462 1750 
Q 675 2050 1075 2275 
Q 725 2450 537 2712 
Q 350 2975 350 3300 
Q 350 3725 675 4025 
Q 1000 4325 1575 4325 
Q 2100 4325 2425 4025 
Q 2750 3725 2750 3300 
Q 2750 3000 2562 2737 
Q 2375 2475 1975 2275 
Q 2400 2025 2600 1725 
Q 2800 1425 2800 1075 
z
M 2400 3275 
Q 2400 3625 2200 3887 
Q 2000 4150 1575 4150 
Q 1100 4150 900 3900 
Q 700 3650 700 3375 
Q 700 3100 987 2837 
Q 1275 2575 1800 2375 
Q 2100 2525 2250 2750 
Q 2400 2975 2400 3275 
z
" transform="scale(0.015625)"/>
       </defs>
       <use xlink:href="#FangSong-38"/>
       <use xlink:href="#FangSong-30" x="50"/>
      </g>
     </g>
    </g>
    <g id="xtick_6">
     <g id="line2d_6">
      <g>
       <use xlink:href="#m3bd655d00e" x="280.260473" y="307.584" style="stroke: #000000; stroke-width: 0.8"/>
      </g>
     </g>
     <g id="text_6">
      <!-- 100 -->
      <g transform="translate(272.760473 321.576187)scale(0.1 -0.1)">
       <defs>
        <path id="FangSong-31" d="M 1800 4350 
L 1800 550 
Q 1800 350 1925 250 
Q 2050 150 2275 150 
L 2525 150 
L 2525 0 
L 700 0 
L 700 150 
L 925 150 
Q 1175 150 1287 250 
Q 1400 350 1400 550 
L 1400 3575 
Q 1400 3675 1337 3737 
Q 1275 3800 1150 3800 
L 700 3800 
L 700 3950 
L 925 3950 
Q 1225 3950 1412 4050 
Q 1600 4150 1700 4350 
L 1800 4350 
z
" transform="scale(0.015625)"/>
       </defs>
       <use xlink:href="#FangSong-31"/>
       <use xlink:href="#FangSong-30" x="50"/>
       <use xlink:href="#FangSong-30" x="100"/>
      </g>
     </g>
    </g>
    <g id="xtick_7">
     <g id="line2d_7">
      <g>
       <use xlink:href="#m3bd655d00e" x="321.963048" y="307.584" style="stroke: #000000; stroke-width: 0.8"/>
      </g>
     </g>
     <g id="text_7">
      <!-- 120 -->
      <g transform="translate(314.463048 321.576187)scale(0.1 -0.1)">
       <use xlink:href="#FangSong-31"/>
       <use xlink:href="#FangSong-32" x="50"/>
       <use xlink:href="#FangSong-30" x="100"/>
      </g>
     </g>
    </g>
    <g id="xtick_8">
     <g id="line2d_8">
      <g>
       <use xlink:href="#m3bd655d00e" x="363.665623" y="307.584" style="stroke: #000000; stroke-width: 0.8"/>
      </g>
     </g>
     <g id="text_8">
      <!-- 140 -->
      <g transform="translate(356.165623 321.576187)scale(0.1 -0.1)">
       <use xlink:href="#FangSong-31"/>
       <use xlink:href="#FangSong-34" x="50"/>
       <use xlink:href="#FangSong-30" x="100"/>
      </g>
     </g>
    </g>
    <g id="xtick_9">
     <g id="line2d_9">
      <g>
       <use xlink:href="#m3bd655d00e" x="405.368198" y="307.584" style="stroke: #000000; stroke-width: 0.8"/>
      </g>
     </g>
     <g id="text_9">
      <!-- 160 -->
      <g transform="translate(397.868198 321.576187)scale(0.1 -0.1)">
       <use xlink:href="#FangSong-31"/>
       <use xlink:href="#FangSong-36" x="50"/>
       <use xlink:href="#FangSong-30" x="100"/>
      </g>
     </g>
    </g>
    <g id="text_10">
     <!-- 响应比 -->
     <g transform="translate(221.16 334.873062)scale(0.1 -0.1)">
      <defs>
       <path id="FangSong-54cd" d="M 2700 -200 
Q 2725 -650 2625 -525 
L 2375 -125 
Q 2500 50 2475 350 
L 2500 3200 
Q 2500 3625 2425 4100 
L 2500 4125 
L 2725 3575 
L 3300 3625 
Q 3550 4225 3675 4637 
Q 3800 5050 3700 5150 
L 3775 5200 
L 4125 4750 
Q 4050 4800 3900 4512 
Q 3750 4225 3500 3650 
L 5275 3850 
L 5425 4125 
L 5725 3850 
L 5575 3650 
Q 5500 -175 5175 -675 
Q 4800 -275 4175 250 
L 4225 350 
L 5050 -175 
Q 5275 525 5325 3625 
L 2725 3325 
L 2700 -200 
z
M 725 3250 
Q 725 3575 625 3925 
L 725 3975 
L 950 3525 
L 1750 3650 
L 1875 3875 
L 2175 3650 
L 2000 3450 
L 1925 2175 
L 2125 1950 
L 1000 1800 
Q 1025 1275 900 1350 
L 650 1750 
Q 775 1850 750 2150 
L 725 3250 
z
M 3550 1250 
Q 3575 950 3500 875 
L 3225 1200 
Q 3300 1350 3300 1525 
L 3275 2325 
Q 3275 2700 3200 2875 
L 3275 2925 
L 3500 2625 
L 4350 2725 
L 4500 2925 
L 4775 2675 
L 4600 2475 
L 4525 1575 
L 4750 1400 
L 3550 1250 
z
M 975 3275 
L 1000 2050 
L 1675 2150 
L 1775 3425 
L 975 3275 
z
M 4350 2475 
L 3500 2375 
L 3525 1500 
L 4275 1575 
L 4350 2475 
z
" transform="scale(0.015625)"/>
       <path id="FangSong-5e94" d="M 1625 4400 
L 1800 3800 
Q 5075 4050 5200 4175 
L 5525 3850 
Q 5200 3900 1825 3550 
Q 1775 2450 1675 1825 
Q 1575 1200 1312 612 
Q 1050 25 500 -600 
L 425 -525 
Q 850 50 1100 675 
Q 1350 1300 1425 1862 
Q 1500 2425 1550 3150 
Q 1600 3875 1550 4375 
L 1625 4400 
z
M 4725 3175 
L 5100 2725 
Q 5000 2800 4750 2112 
Q 4500 1425 4000 150 
Q 5425 225 5400 275 
L 5725 0 
Q 5425 0 3687 -112 
Q 1950 -225 1725 -275 
L 1350 25 
Q 2150 0 3800 125 
Q 4300 1500 4525 2200 
Q 4750 2900 4650 3125 
L 4725 3175 
z
M 2900 1150 
Q 2800 975 2650 725 
Q 2450 1625 2175 2550 
L 2275 2575 
Q 2600 1850 2900 1150 
z
M 3775 1550 
Q 3675 1350 3525 1150 
Q 3475 1600 3075 3050 
L 3150 3075 
Q 3475 2300 3775 1550 
z
M 3500 4100 
Q 3275 4675 3000 5225 
L 3075 5275 
Q 3375 4900 3700 4525 
Q 3600 4325 3500 4100 
z
" transform="scale(0.015625)"/>
       <path id="FangSong-6bd4" d="M 3500 2125 
Q 3925 2425 4487 2975 
Q 5050 3525 4950 3750 
L 5025 3775 
L 5250 3225 
Q 5175 3250 4875 3000 
Q 4575 2750 4287 2525 
Q 4000 2300 3500 1900 
L 3500 575 
Q 3475 -100 4150 -100 
L 4800 -100 
Q 5275 -100 5375 12 
Q 5475 125 5450 1350 
L 5575 1350 
Q 5600 825 5637 412 
Q 5675 0 5800 -175 
Q 5375 -325 4800 -325 
L 4150 -325 
Q 3225 -350 3275 550 
L 3275 4300 
Q 3275 4875 3150 5150 
L 3200 5200 
L 3625 4850 
Q 3475 4825 3500 4250 
L 3500 2125 
z
M 1500 2575 
Q 1900 2625 2337 2712 
Q 2775 2800 2800 2850 
L 3075 2600 
Q 2875 2575 2350 2475 
Q 1825 2375 1775 2325 
L 1500 2525 
L 1500 150 
L 2925 1075 
L 2975 1025 
Q 1550 -75 1375 -350 
L 1200 0 
Q 1275 75 1275 350 
L 1275 3925 
Q 1275 4475 1150 4750 
L 1200 4800 
L 1625 4400 
Q 1475 4375 1500 3925 
L 1500 2575 
z
" transform="scale(0.015625)"/>
      </defs>
      <use xlink:href="#FangSong-54cd"/>
      <use xlink:href="#FangSong-5e94" x="100"/>
      <use xlink:href="#FangSong-6bd4" x="200"/>
     </g>
    </g>
   </g>
   <g id="matplotlib.axis_2">
    <g id="ytick_1">
     <g id="line2d_10">
      <defs>
       <path id="meaddc7b1f0" d="M 0 0 
L -3.5 0 
" style="stroke: #000000; stroke-width: 0.8"/>
      </defs>
      <g>
       <use xlink:href="#meaddc7b1f0" x="57.6" y="295.488" style="stroke: #000000; stroke-width: 0.8"/>
      </g>
     </g>
     <g id="text_11">
      <!-- 0% -->
      <g transform="translate(40.6 298.984094)scale(0.1 -0.1)">
       <defs>
        <path id="FangSong-25" d="M 725 4150 
Q 575 4150 475 3950 
Q 375 3750 375 3200 
Q 375 2575 487 2387 
Q 600 2200 725 2200 
Q 900 2200 987 2425 
Q 1075 2650 1075 3200 
Q 1075 3650 1012 3900 
Q 950 4150 725 4150 
z
M 1400 3175 
Q 1400 2725 1250 2387 
Q 1100 2050 725 2050 
Q 425 2050 237 2350 
Q 50 2650 50 3175 
Q 50 3725 250 4025 
Q 450 4325 725 4325 
Q 1025 4325 1212 4012 
Q 1400 3700 1400 3175 
z
M 2700 1100 
Q 2700 1525 2625 1800 
Q 2550 2075 2350 2075 
Q 2200 2075 2100 1837 
Q 2000 1600 2000 1100 
Q 2000 475 2112 300 
Q 2225 125 2350 125 
Q 2525 125 2612 337 
Q 2700 550 2700 1100 
z
M 3025 1075 
Q 3025 575 2850 262 
Q 2675 -50 2350 -50 
Q 2075 -50 1875 262 
Q 1675 575 1675 1075 
Q 1675 1625 1875 1937 
Q 2075 2250 2350 2250 
Q 2650 2250 2837 1925 
Q 3025 1600 3025 1075 
z
M 2500 4250 
L 700 -50 
L 550 25 
L 2325 4325 
L 2500 4250 
z
" transform="scale(0.015625)"/>
       </defs>
       <use xlink:href="#FangSong-30"/>
       <use xlink:href="#FangSong-25" x="50"/>
      </g>
     </g>
    </g>
    <g id="ytick_2">
     <g id="line2d_11">
      <g>
       <use xlink:href="#meaddc7b1f0" x="57.6" y="247.104" style="stroke: #000000; stroke-width: 0.8"/>
      </g>
     </g>
     <g id="text_12">
      <!-- 20% -->
      <g transform="translate(35.6 250.600094)scale(0.1 -0.1)">
       <use xlink:href="#FangSong-32"/>
       <use xlink:href="#FangSong-30" x="50"/>
       <use xlink:href="#FangSong-25" x="100"/>
      </g>
     </g>
    </g>
    <g id="ytick_3">
     <g id="line2d_12">
      <g>
       <use xlink:href="#meaddc7b1f0" x="57.6" y="198.72" style="stroke: #000000; stroke-width: 0.8"/>
      </g>
     </g>
     <g id="text_13">
      <!-- 40% -->
      <g transform="translate(35.6 202.216094)scale(0.1 -0.1)">
       <use xlink:href="#FangSong-34"/>
       <use xlink:href="#FangSong-30" x="50"/>
       <use xlink:href="#FangSong-25" x="100"/>
      </g>
     </g>
    </g>
    <g id="ytick_4">
     <g id="line2d_13">
      <g>
       <use xlink:href="#meaddc7b1f0" x="57.6" y="150.336" style="stroke: #000000; stroke-width: 0.8"/>
      </g>
     </g>
     <g id="text_14">
      <!-- 60% -->
      <g transform="translate(35.6 153.832094)scale(0.1 -0.1)">
       <use xlink:href="#FangSong-36"/>
       <use xlink:href="#FangSong-30" x="50"/>
       <use xlink:href="#FangSong-25" x="100"/>
      </g>
     </g>
    </g>
    <g id="ytick_5">
     <g id="line2d_14">
      <g>
       <use xlink:href="#meaddc7b1f0" x="57.6" y="101.952" style="stroke: #000000; stroke-width: 0.8"/>
      </g>
     </g>
     <g id="text_15">
      <!-- 80% -->
      <g transform="translate(35.6 105.448094)scale(0.1 -0.1)">
       <use xlink:href="#FangSong-38"/>
       <use xlink:href="#FangSong-30" x="50"/>
       <use xlink:href="#FangSong-25" x="100"/>
      </g>
     </g>
    </g>
    <g id="ytick_6">
     <g id="line2d_15">
      <g>
       <use xlink:href="#meaddc7b1f0" x="57.6" y="53.568" style="stroke: #000000; stroke-width: 0.8"/>
      </g>
     </g>
     <g id="text_16">
      <!-- 100% -->
      <g transform="translate(30.6 57.064094)scale(0.1 -0.1)">
       <use xlink:href="#FangSong-31"/>
       <use xlink:href="#FangSong-30" x="50"/>
       <use xlink:href="#FangSong-30" x="100"/>
       <use xlink:href="#FangSong-25" x="150"/>
      </g>
     </g>
    </g>
    <g id="text_17">
     <!-- 累计完成比例 -->
     <g transform="translate(25.154688 204.528)rotate(-90)scale(0.1 -0.1)">
      <defs>
       <path id="FangSong-7d2f" d="M 4525 4975 
L 4700 5225 
L 5000 4950 
L 4825 4775 
L 4625 3550 
L 4850 3300 
L 3175 3150 
L 3375 2975 
Q 3200 2925 2862 2725 
Q 2525 2525 2075 2275 
L 3475 2500 
Q 3750 2675 3900 2800 
Q 4050 2925 4100 3075 
L 4175 3100 
L 4325 2700 
Q 4200 2675 3500 2237 
Q 2800 1800 2275 1550 
L 4375 1825 
L 3900 2175 
L 4000 2275 
Q 4625 1900 4950 1725 
Q 4975 1475 4925 1225 
Q 4800 1375 4500 1675 
L 3250 1475 
L 3525 1300 
Q 3375 1200 3375 875 
L 3375 25 
Q 3375 -325 3225 -625 
Q 2975 -325 2400 150 
L 2450 250 
L 3050 -75 
Q 3150 -125 3150 0 
L 3150 925 
Q 3150 1300 3125 1450 
Q 1875 1275 1575 1175 
L 1325 1425 
L 1850 1550 
Q 2175 1700 3250 2300 
Q 2075 2100 1875 2000 
L 1575 2250 
L 1800 2300 
Q 2150 2475 3025 3125 
L 2000 3025 
Q 2000 2675 1950 2700 
Q 1900 2725 1650 3025 
Q 1725 3250 1725 3425 
L 1650 4400 
Q 1625 4675 1525 4950 
L 1625 5000 
L 1875 4675 
L 4525 4975 
z
M 3150 3375 
L 3150 3875 
Q 2525 3800 2400 3725 
L 2100 3975 
Q 2500 3975 3150 4075 
L 3150 4600 
L 1900 4450 
L 1975 3250 
L 3150 3375 
z
M 3375 4100 
Q 3950 4175 4025 4225 
L 4275 4000 
Q 3950 3975 3375 3900 
L 3375 3400 
L 4400 3500 
L 4575 4750 
L 3375 4600 
L 3375 4100 
z
M 5450 -75 
Q 4975 325 3875 1025 
L 3950 1125 
Q 4850 700 5350 500 
Q 5425 250 5450 -75 
z
M 800 -250 
Q 1350 75 1825 500 
Q 2300 925 2325 1125 
L 2400 1150 
L 2550 725 
Q 2425 700 2075 425 
Q 1725 150 875 -350 
L 800 -250 
z
" transform="scale(0.015625)"/>
       <path id="FangSong-8ba1" d="M 4075 4200 
Q 4100 4825 3900 5100 
L 3975 5150 
L 4450 4725 
Q 4275 4600 4300 4200 
L 4275 3000 
Q 5525 3200 5575 3250 
L 5950 2950 
Q 5725 2975 4275 2800 
L 4250 -425 
Q 4250 -700 4150 -575 
L 3875 -150 
Q 4050 50 4025 300 
L 4050 2750 
Q 2975 2625 2900 2575 
L 2525 2825 
Q 2850 2825 4050 2975 
L 4075 4200 
z
M 1775 3250 
L 2100 2950 
L 1900 2750 
L 1875 550 
L 2825 1250 
L 2875 1175 
Q 1875 250 1750 -25 
L 1525 275 
Q 1625 375 1650 625 
L 1675 2775 
Q 900 2625 750 2550 
L 425 2800 
Q 850 2825 1650 3000 
L 1775 3250 
z
M 2025 3800 
Q 1825 4300 1325 4950 
L 1375 5025 
Q 1925 4575 2175 4300 
Q 2125 4000 2025 3800 
z
" transform="scale(0.015625)"/>
       <path id="FangSong-5b8c" d="M 5375 2050 
Q 4925 2050 3550 1950 
L 3850 1750 
Q 3725 1600 3700 1375 
L 3675 275 
Q 3650 -125 4075 -175 
L 4925 -175 
Q 5300 -150 5312 62 
Q 5325 275 5325 1025 
L 5425 1025 
Q 5450 750 5475 337 
Q 5500 -75 5700 -275 
Q 5400 -375 5000 -400 
L 4075 -400 
Q 3425 -350 3425 150 
L 3475 1450 
Q 3475 1775 3425 1925 
L 2675 1850 
L 2875 1650 
Q 2750 1550 2600 1200 
Q 2450 850 2025 312 
Q 1600 -225 600 -675 
L 550 -575 
Q 1525 -100 1987 625 
Q 2450 1350 2525 1850 
Q 1550 1775 1500 1725 
L 1150 2025 
Q 1625 2025 3212 2150 
Q 4800 2275 5000 2350 
L 5375 2050 
z
M 1650 3650 
Q 1550 3125 1325 2875 
L 1150 3250 
Q 1450 3425 1575 4400 
L 1675 4400 
L 1675 3900 
L 5025 4150 
L 5175 4400 
L 5525 4075 
Q 5375 4050 4725 3250 
L 4650 3325 
L 4975 3900 
L 1650 3650 
z
M 4475 2975 
Q 4225 2975 3412 2875 
Q 2600 2775 2400 2725 
L 2050 2975 
Q 2575 2975 3200 3075 
Q 3825 3175 4150 3225 
L 4475 2975 
z
M 3550 4575 
Q 3475 4350 3300 4150 
Q 3225 4475 2900 5200 
L 2975 5250 
Q 3350 4825 3550 4575 
z
" transform="scale(0.015625)"/>
       <path id="FangSong-6210" d="M 5575 975 
Q 5600 -150 5750 -625 
Q 4650 -225 4000 1075 
Q 3625 650 2975 225 
L 2925 325 
Q 3525 825 3900 1300 
Q 3600 2275 3500 3300 
L 1875 3125 
Q 1875 2625 1825 2100 
L 2725 2250 
L 2875 2475 
L 3175 2225 
L 3000 2050 
Q 2850 475 2575 -125 
Q 2225 400 1825 775 
L 1875 850 
L 2475 400 
Q 2650 875 2750 2000 
L 1825 1850 
Q 1675 250 600 -650 
L 525 -600 
Q 1250 250 1425 987 
Q 1600 1725 1625 2612 
Q 1650 3500 1550 3800 
L 1625 3825 
L 1850 3350 
L 3450 3525 
Q 3400 4150 3375 4562 
Q 3350 4975 3225 5200 
L 3275 5225 
L 3725 4900 
Q 3625 4925 3637 4575 
Q 3650 4225 3675 3550 
Q 4900 3700 5050 3775 
L 5325 3475 
Q 4775 3475 3725 3325 
Q 3775 2425 4075 1525 
Q 4500 2025 4687 2325 
Q 4875 2625 4800 2850 
L 4875 2875 
L 5125 2325 
Q 5075 2400 4850 2125 
Q 4625 1850 4150 1275 
Q 4625 225 5425 -125 
L 5475 975 
L 5575 975 
z
M 4100 5000 
Q 4525 4700 4875 4450 
Q 4825 4250 4750 4025 
Q 4400 4525 4025 4950 
L 4100 5000 
z
" transform="scale(0.015625)"/>
       <path id="FangSong-4f8b" d="M 3050 2000 
Q 3025 1800 2975 1600 
Q 2775 1900 2525 2250 
Q 2300 1875 2025 1550 
L 1925 1625 
Q 2675 2725 2975 3975 
Q 2475 3925 2375 3875 
L 2050 4125 
Q 2375 4125 3162 4225 
Q 3950 4325 4100 4450 
L 4350 4125 
Q 4050 4150 3100 3975 
L 3300 3700 
Q 3200 3675 3125 3525 
Q 3050 3375 2925 3050 
L 3625 3150 
L 3775 3350 
L 4050 3075 
L 3875 2900 
Q 3300 825 1850 -225 
L 1800 -100 
Q 3100 975 3625 2900 
Q 3150 2825 3025 2775 
L 2875 2925 
Q 2775 2675 2575 2350 
Q 2900 2125 3050 2000 
z
M 1275 -150 
Q 1425 25 1400 225 
L 1450 3425 
Q 1025 2800 475 2225 
L 400 2325 
Q 875 2850 1450 3887 
Q 2025 4925 1925 5150 
L 2000 5175 
L 2250 4700 
Q 2200 4725 2062 4475 
Q 1925 4225 1675 3800 
L 1625 -325 
Q 1650 -675 1525 -600 
L 1275 -150 
z
M 5475 250 
Q 5475 -300 5300 -650 
Q 4900 -100 4300 375 
L 4350 475 
L 5200 -75 
Q 5250 250 5250 575 
L 5250 4350 
Q 5275 4950 5100 5150 
L 5175 5225 
L 5600 4850 
Q 5450 4775 5475 4325 
L 5475 250 
z
M 4300 1525 
Q 4400 1650 4400 1900 
L 4400 3075 
Q 4425 3525 4300 3750 
L 4350 3800 
L 4725 3450 
Q 4600 3350 4625 3025 
L 4625 1375 
Q 4625 1050 4550 1125 
L 4300 1525 
z
" transform="scale(0.015625)"/>
      </defs>
      <use xlink:href="#FangSong-7d2f"/>
      <use xlink:href="#FangSong-8ba1" x="100"/>
      <use xlink:href="#FangSong-5b8c" x="200"/>
      <use xlink:href="#FangSong-6210" x="300"/>
      <use xlink:href="#FangSong-6bd4" x="400"/>
      <use xlink:href="#FangSong-4f8b" x="500"/>
     </g>
    </g>
   </g>
   <g id="line2d_16">
    <path d="M 73.832727 295.488 
L 74.04124 295.24608 
L 74.249753 294.76224 
L 74.458266 293.79456 
L 74.666779 291.37536 
L 74.875292 285.56928 
L 76.96042 194.60736 
L 77.377446 182.02752 
L 78.002985 163.15776 
L 78.420011 154.93248 
L 79.671088 137.75616 
L 80.296626 134.12736 
L 80.505139 133.15968 
L 80.713652 131.46624 
L 81.339191 130.74048 
L 82.173242 130.74048 
L 82.381755 130.25664 
L 83.007294 130.25664 
L 83.215807 130.01472 
L 84.466884 130.01472 
L 84.675397 129.7728 
L 85.300935 129.7728 
L 85.509448 129.53088 
L 86.760525 129.53088 
L 86.969038 129.04704 
L 89.26268 129.04704 
L 89.471193 128.5632 
L 89.888219 128.5632 
L 90.305244 127.83744 
L 90.930783 127.83744 
L 91.139296 127.59552 
L 91.764834 127.59552 
L 91.973347 127.3536 
L 93.224425 127.3536 
L 93.432937 127.11168 
L 94.058476 127.11168 
L 94.475502 126.62784 
L 95.518066 126.62784 
L 95.726579 126.38592 
L 97.394682 126.38592 
L 97.603195 126.144 
L 98.645759 126.144 
L 98.854272 125.90208 
L 99.271298 125.90208 
L 99.479811 125.66016 
L 100.730888 125.66016 
L 100.939401 125.41824 
L 102.398991 125.41824 
L 102.607504 124.9344 
L 103.441555 124.9344 
L 103.650068 124.69248 
L 104.692633 124.69248 
L 104.901146 124.45056 
L 106.152223 124.45056 
L 106.360736 124.20864 
L 106.777761 124.20864 
L 106.986274 123.96672 
L 107.194787 123.96672 
L 107.4033 123.7248 
L 108.237352 123.7248 
L 108.445864 123.48288 
L 108.654377 123.48288 
L 108.86289 123.24096 
L 109.279916 123.24096 
L 109.696942 122.75712 
L 110.32248 122.75712 
L 110.530993 122.5152 
L 111.78207 122.5152 
L 111.990583 122.27328 
L 113.450173 122.27328 
L 113.658686 121.78944 
L 114.284225 121.78944 
L 114.492738 121.54752 
L 116.369354 121.54752 
L 116.577867 121.3056 
L 119.914073 121.3056 
L 120.122585 121.06368 
L 120.331098 121.06368 
L 120.539611 120.82176 
L 121.790688 120.82176 
L 121.999201 120.57984 
L 123.667304 120.57984 
L 123.875817 120.33792 
L 124.08433 120.33792 
L 124.292843 120.096 
L 124.501356 119.61216 
L 127.420536 119.61216 
L 127.629049 119.37024 
L 129.088639 119.37024 
L 129.297152 119.12832 
L 129.92269 119.12832 
L 130.131203 118.8864 
L 131.799306 118.8864 
L 132.007819 118.64448 
L 133.258896 118.64448 
L 133.467409 118.40256 
L 134.092948 118.40256 
L 134.301461 118.16064 
L 135.344025 118.16064 
L 135.552538 117.91872 
L 138.054693 117.91872 
L 138.263205 117.6768 
L 139.30577 117.6768 
L 139.722796 117.19296 
L 141.182386 117.19296 
L 141.390899 116.95104 
L 142.22495 116.95104 
L 142.641976 116.4672 
L 144.935617 116.4672 
L 145.14413 116.22528 
L 147.020746 116.22528 
L 147.229259 115.98336 
L 147.854798 115.98336 
L 148.063311 115.74144 
L 148.897362 115.74144 
L 149.105875 115.49952 
L 151.191004 115.49952 
L 151.399517 115.2576 
L 151.608029 115.2576 
L 151.816542 115.01568 
L 153.901671 115.01568 
L 154.110184 114.77376 
L 155.152748 114.77376 
L 155.361261 114.53184 
L 155.9868 114.53184 
L 156.195313 114.28992 
L 158.280441 114.28992 
L 158.488954 114.048 
L 159.531519 114.048 
L 159.948544 113.56416 
L 160.991109 113.56416 
L 161.408135 113.08032 
L 162.867725 113.08032 
L 163.076238 112.8384 
L 164.535828 112.8384 
L 164.744341 112.59648 
L 165.369879 112.59648 
L 165.578392 112.35456 
L 165.995418 112.35456 
L 166.203931 112.11264 
L 167.663521 112.11264 
L 167.872034 111.87072 
L 168.497572 111.87072 
L 168.706085 111.6288 
L 171.416752 111.6288 
L 171.625265 111.38688 
L 172.042291 111.38688 
L 172.250804 111.14496 
L 173.501881 111.14496 
L 173.710394 110.90304 
L 174.752958 110.90304 
L 174.961471 110.66112 
L 176.212549 110.66112 
L 176.421061 110.4192 
L 177.0466 110.4192 
L 177.255113 110.17728 
L 179.340242 110.17728 
L 179.548755 109.93536 
L 180.174293 109.93536 
L 180.382806 109.69344 
L 180.591319 109.69344 
L 180.799832 109.45152 
L 181.842396 109.45152 
L 182.050909 109.2096 
L 182.884961 109.2096 
L 183.301986 108.72576 
L 186.012654 108.72576 
L 186.221167 108.48384 
L 189.140347 108.48384 
L 189.34886 108.24192 
L 189.557373 108.24192 
L 189.765885 108 
L 191.851014 108 
L 192.059527 107.75808 
L 192.476553 107.75808 
L 192.685066 107.51616 
L 195.395733 107.51616 
L 195.604246 107.27424 
L 196.64681 107.27424 
L 196.855323 107.03232 
L 199.148965 107.03232 
L 199.357478 106.7904 
L 200.400042 106.7904 
L 200.608555 106.54848 
L 203.110709 106.54848 
L 203.319222 106.06464 
L 203.736248 106.06464 
L 203.944761 105.82272 
L 204.5703 105.82272 
L 204.778812 105.5808 
L 206.655428 105.5808 
L 206.863941 105.33888 
L 208.94907 105.33888 
L 209.157583 105.09696 
L 209.574609 105.09696 
L 209.783121 104.85504 
L 210.200147 104.85504 
L 210.40866 104.61312 
L 212.285276 104.61312 
L 212.493789 104.3712 
L 213.536353 104.3712 
L 213.744866 104.12928 
L 215.204456 104.12928 
L 215.412969 103.88736 
L 217.915123 103.88736 
L 218.123636 103.64544 
L 218.540662 103.64544 
L 218.749175 103.40352 
L 220.000252 103.40352 
L 220.208765 103.1616 
L 222.919432 103.1616 
L 223.127945 102.67776 
L 225.421587 102.67776 
L 225.6301 102.43584 
L 227.298203 102.43584 
L 227.506716 102.19392 
L 228.966306 102.19392 
L 229.174819 101.952 
L 229.383332 101.952 
L 229.591844 101.71008 
L 232.093999 101.71008 
L 232.302512 101.46816 
L 232.92805 101.46816 
L 233.136563 101.22624 
L 233.345076 101.22624 
L 233.553589 100.98432 
L 236.055744 100.98432 
L 236.264256 100.7424 
L 238.974924 100.7424 
L 239.183437 100.50048 
L 239.600462 100.50048 
L 239.808975 100.25856 
L 240.85154 100.25856 
L 241.060053 100.01664 
L 243.353694 100.01664 
L 243.562207 99.77472 
L 243.77072 99.77472 
L 243.979233 99.5328 
L 246.898413 99.5328 
L 247.106926 99.29088 
L 247.315439 99.29088 
L 247.523952 99.04896 
L 250.026106 99.04896 
L 250.234619 98.80704 
L 251.485696 98.80704 
L 251.694209 98.56512 
L 253.779338 98.56512 
L 253.987851 98.3232 
L 255.238928 98.3232 
L 255.655954 97.83936 
L 258.158108 97.83936 
L 258.366621 97.59744 
L 258.99216 97.59744 
L 259.200673 97.35552 
L 260.243237 97.35552 
L 260.45175 97.1136 
L 262.119853 97.1136 
L 262.328366 96.87168 
L 263.162417 96.87168 
L 263.37093 96.62976 
L 266.498623 96.62976 
L 266.707136 96.38784 
L 267.332675 96.38784 
L 267.541188 96.14592 
L 268.166726 96.14592 
L 268.375239 95.904 
L 268.583752 95.904 
L 268.792265 95.66208 
L 271.711445 95.66208 
L 271.919958 95.42016 
L 274.005087 95.42016 
L 274.2136 95.17824 
L 276.298728 95.17824 
L 276.507241 94.6944 
L 278.383857 94.6944 
L 278.59237 94.45248 
L 280.468986 94.45248 
L 280.677499 94.21056 
L 282.137089 94.21056 
L 282.345602 93.96864 
L 283.596679 93.96864 
L 283.805192 93.72672 
L 285.264782 93.72672 
L 285.473295 93.4848 
L 286.515859 93.4848 
L 286.724372 93.24288 
L 287.558424 93.24288 
L 287.766936 93.00096 
L 289.852065 93.00096 
L 290.060578 92.75904 
L 291.103142 92.75904 
L 291.311655 92.2752 
L 291.728681 92.2752 
L 291.937194 92.03328 
L 293.396784 92.03328 
L 293.605297 91.79136 
L 294.647861 91.79136 
L 294.856374 91.54944 
L 296.315964 91.54944 
L 296.524477 91.30752 
L 298.401093 91.30752 
L 298.609606 91.0656 
L 299.860683 91.0656 
L 300.069196 90.82368 
L 302.362838 90.82368 
L 302.57135 90.58176 
L 303.822428 90.58176 
L 304.030941 90.33984 
L 305.490531 90.33984 
L 305.699044 90.09792 
L 306.116069 90.09792 
L 306.324582 89.856 
L 307.992685 89.856 
L 308.409711 89.37216 
L 309.243762 89.37216 
L 309.452275 89.13024 
L 311.328891 89.13024 
L 311.537404 88.88832 
L 313.41402 88.88832 
L 313.622533 88.6464 
L 314.248071 88.6464 
L 314.456584 88.40448 
L 314.665097 88.40448 
L 314.87361 88.16256 
L 315.499149 88.16256 
L 315.707662 87.92064 
L 317.79279 87.92064 
L 318.001303 87.67872 
L 319.669406 87.67872 
L 319.877919 87.4368 
L 320.503458 87.4368 
L 320.711971 87.19488 
L 321.128996 87.19488 
L 321.337509 86.95296 
L 321.754535 86.95296 
L 321.963048 86.71104 
L 322.171561 86.71104 
L 322.380074 86.46912 
L 323.422638 86.46912 
L 323.839664 85.98528 
L 324.256689 85.98528 
L 324.673715 85.50144 
L 325.090741 85.50144 
L 325.299254 85.25952 
L 325.924792 85.25952 
L 326.133305 85.0176 
L 326.758844 85.0176 
L 326.967357 84.77568 
L 327.17587 84.77568 
L 327.384383 84.53376 
L 327.592895 84.53376 
L 328.009921 84.04992 
L 328.63546 84.04992 
L 329.052486 83.56608 
L 329.678024 83.56608 
L 329.886537 83.32416 
L 330.512076 83.32416 
L 330.720589 83.08224 
L 330.929101 83.08224 
L 331.137614 82.84032 
L 331.55464 82.84032 
L 331.763153 82.35648 
L 332.388692 82.35648 
L 332.597204 82.11456 
L 333.431256 82.11456 
L 333.639769 81.87264 
L 334.265307 81.87264 
L 334.682333 81.3888 
L 334.890846 81.3888 
L 335.099359 81.14688 
L 335.516385 81.14688 
L 336.141923 80.42112 
L 336.350436 80.42112 
L 336.558949 80.1792 
L 336.975975 80.1792 
L 337.393001 79.69536 
L 337.601513 79.69536 
L 337.810026 79.45344 
L 338.644078 79.45344 
L 339.061104 78.9696 
L 339.478129 78.9696 
L 339.686642 78.72768 
L 340.312181 78.72768 
L 340.520694 78.48576 
L 340.937719 78.48576 
L 341.146232 78.24384 
L 341.563258 78.24384 
L 341.771771 78.00192 
L 342.188797 78.00192 
L 342.39731 77.76 
L 342.814335 77.76 
L 343.022848 77.51808 
L 343.439874 77.51808 
L 343.648387 77.27616 
L 344.065413 77.27616 
L 344.273925 77.03424 
L 344.690951 77.03424 
L 344.899464 76.79232 
L 345.525003 76.79232 
L 345.733516 76.30848 
L 346.359054 76.30848 
L 346.567567 76.06656 
L 347.401618 76.06656 
L 347.818644 75.58272 
L 348.027157 75.58272 
L 348.444183 75.09888 
L 349.278234 75.09888 
L 349.486747 74.85696 
L 350.320799 74.85696 
L 350.737824 74.37312 
L 351.363363 74.37312 
L 351.988902 73.64736 
L 352.822953 73.64736 
L 353.031466 73.40544 
L 353.657005 73.40544 
L 353.865518 73.16352 
L 354.07403 73.16352 
L 354.282543 72.9216 
L 355.116595 72.9216 
L 355.325108 72.67968 
L 355.950646 72.67968 
L 356.159159 72.19584 
L 356.784698 72.19584 
L 356.993211 71.95392 
L 357.618749 71.95392 
L 358.035775 71.47008 
L 358.661314 71.47008 
L 358.869827 71.22816 
L 359.703878 71.22816 
L 359.912391 70.98624 
L 360.120904 70.98624 
L 360.329417 70.74432 
L 360.954955 70.74432 
L 361.163468 70.5024 
L 362.206033 70.5024 
L 362.414545 70.01856 
L 362.831571 70.01856 
L 363.040084 69.77664 
L 363.248597 69.77664 
L 363.45711 69.53472 
L 364.291161 69.53472 
L 364.499674 69.2928 
L 364.9167 69.2928 
L 365.125213 69.05088 
L 365.333726 69.05088 
L 365.542239 68.80896 
L 365.959264 68.80896 
L 366.167777 68.32512 
L 367.001829 68.32512 
L 367.627367 67.59936 
L 368.252906 67.59936 
L 368.669932 67.11552 
L 369.921009 67.11552 
L 370.129522 66.63168 
L 370.546548 66.63168 
L 370.75506 66.38976 
L 370.963573 66.38976 
L 371.172086 65.90592 
L 371.380599 65.90592 
L 371.589112 65.42208 
L 372.423163 65.42208 
L 372.840189 64.69632 
L 373.257215 64.69632 
L 373.465728 64.4544 
L 373.882754 64.4544 
L 374.091266 64.21248 
L 374.716805 64.21248 
L 375.133831 63.72864 
L 376.176395 63.72864 
L 376.384908 63.48672 
L 376.801934 63.48672 
L 377.010447 63.2448 
L 377.635985 63.2448 
L 378.053011 62.51904 
L 378.261524 62.51904 
L 378.470037 62.27712 
L 378.887063 62.27712 
L 379.095575 62.0352 
L 379.512601 61.30944 
L 380.13814 61.30944 
L 380.346653 61.06752 
L 380.555166 61.06752 
L 380.763678 60.8256 
L 382.223269 60.8256 
L 382.431781 60.34176 
L 383.05732 60.34176 
L 383.265833 60.09984 
L 383.474346 60.09984 
L 383.682859 59.85792 
L 383.891372 59.85792 
L 384.099884 59.616 
L 384.725423 59.616 
L 384.933936 59.37408 
L 385.350962 59.37408 
L 385.767987 58.89024 
L 386.602039 58.89024 
L 386.810552 58.64832 
L 387.019065 58.64832 
L 387.227578 58.4064 
L 387.43609 58.4064 
L 387.644603 58.16448 
L 388.478655 58.16448 
L 388.687168 57.92256 
L 389.521219 57.92256 
L 389.729732 57.43872 
L 390.355271 57.43872 
L 390.563783 57.1968 
L 390.980809 57.1968 
L 391.189322 56.95488 
L 391.814861 56.95488 
L 392.023374 56.71296 
L 392.648912 56.71296 
L 393.065938 56.22912 
L 393.274451 56.22912 
L 393.691477 55.74528 
L 395.151067 55.74528 
L 395.35958 55.50336 
L 396.193631 55.50336 
L 397.027683 54.53568 
L 397.444708 54.53568 
L 397.861734 53.80992 
L 398.27876 53.80992 
L 398.487273 53.568 
L 398.487273 53.568 
" clip-path="url(#pc14ee2b547)" style="fill: none; stroke: #ff0000; stroke-linecap: square"/>
   </g>
   <g id="line2d_17">
    <path d="M 73.832727 295.488 
L 74.249753 292.928 
L 74.666779 289.088 
L 75.292317 269.888 
L 76.543395 208.448 
L 76.96042 182.848 
L 77.168933 177.728 
L 77.585959 152.128 
L 77.794472 145.728 
L 78.420011 116.288 
L 79.254062 97.088 
L 79.462575 84.288 
L 80.088114 68.928 
L 80.296626 67.648 
L 80.713652 61.248 
L 80.922165 59.968 
L 82.173242 59.968 
L 82.381755 58.688 
L 94.058476 58.688 
L 94.266989 57.408 
L 106.777761 57.408 
L 106.986274 56.128 
L 109.279916 56.128 
L 109.488429 54.848 
L 113.450173 54.848 
L 113.658686 53.568 
L 398.487273 53.568 
L 398.487273 53.568 
" clip-path="url(#pc14ee2b547)" style="fill: none; stroke-dasharray: 1.85,0.8; stroke-dashoffset: 0; stroke: #008000; stroke-width: 0.5"/>
   </g>
   <g id="line2d_18">
    <path d="M 73.832727 295.488 
L 74.04124 295.488 
L 74.249753 294.19431 
L 74.458266 291.60693 
L 74.875292 276.082652 
L 75.292317 248.915166 
L 75.709343 221.747679 
L 75.917856 213.98554 
L 76.96042 155.769497 
L 77.794472 122.133561 
L 78.211498 106.609283 
L 78.420011 104.021904 
L 79.671088 74.267037 
L 79.879601 72.973348 
L 80.296626 67.798588 
L 80.505139 67.798588 
L 80.713652 61.330139 
L 80.922165 61.330139 
L 81.130678 60.036449 
L 94.266989 60.036449 
L 94.475502 58.742759 
L 98.645759 58.742759 
L 98.854272 57.44907 
L 102.398991 57.44907 
L 102.607504 56.15538 
L 104.692633 56.15538 
L 104.901146 54.86169 
L 108.237352 54.86169 
L 108.445864 53.568 
L 398.487273 53.568 
L 398.487273 53.568 
" clip-path="url(#pc14ee2b547)" style="fill: none; stroke-dasharray: 1.85,0.8; stroke-dashoffset: 0; stroke: #0000ff; stroke-width: 0.5"/>
   </g>
   <g id="line2d_19">
    <path d="M 73.832727 295.488 
L 74.458266 295.488 
L 74.666779 292.396371 
L 74.875292 283.121482 
L 75.292317 249.113559 
L 76.334882 176.460268 
L 76.543395 149.408511 
L 77.794472 87.575923 
L 78.211498 77.528128 
L 78.628523 72.117776 
L 79.254062 62.842888 
L 79.462575 62.842888 
L 79.671088 61.297073 
L 79.879601 61.297073 
L 80.088114 60.524166 
L 80.296626 60.524166 
L 80.505139 59.751259 
L 81.130678 59.751259 
L 81.339191 58.978351 
L 82.173242 58.978351 
L 82.381755 58.205444 
L 83.007294 58.205444 
L 83.215807 57.432537 
L 86.760525 57.432537 
L 86.969038 56.659629 
L 89.26268 56.659629 
L 89.471193 55.886722 
L 89.888219 55.886722 
L 90.096731 54.340907 
L 90.930783 54.340907 
L 91.139296 53.568 
L 398.487273 53.568 
L 398.487273 53.568 
" clip-path="url(#pc14ee2b547)" style="fill: none; stroke-dasharray: 1.85,0.8; stroke-dashoffset: 0; stroke: #bf00bf; stroke-width: 0.5"/>
   </g>
   <g id="line2d_20">
    <path d="M 73.832727 295.488 
L 77.585959 295.488 
L 77.794472 293.154367 
L 78.002985 292.376489 
L 78.211498 289.264977 
L 78.837036 289.264977 
L 79.045549 288.4871 
L 84.466884 288.4871 
L 84.675397 287.709222 
L 85.300935 287.709222 
L 85.509448 286.931344 
L 86.760525 286.931344 
L 86.969038 286.153466 
L 89.26268 286.153466 
L 89.471193 285.375588 
L 90.096731 285.375588 
L 90.305244 284.597711 
L 91.764834 284.597711 
L 91.973347 283.819833 
L 93.224425 283.819833 
L 93.432937 283.041955 
L 95.518066 283.041955 
L 95.726579 282.264077 
L 97.394682 282.264077 
L 97.603195 281.486199 
L 99.271298 281.486199 
L 99.479811 280.708322 
L 100.730888 280.708322 
L 100.939401 279.930444 
L 102.398991 279.930444 
L 102.607504 279.152566 
L 103.441555 279.152566 
L 103.650068 278.374688 
L 106.152223 278.374688 
L 106.360736 277.59681 
L 107.194787 277.59681 
L 107.4033 276.818932 
L 108.654377 276.818932 
L 108.86289 276.041055 
L 109.488429 276.041055 
L 109.696942 275.263177 
L 110.32248 275.263177 
L 110.530993 274.485299 
L 111.78207 274.485299 
L 111.990583 273.707421 
L 113.450173 273.707421 
L 113.658686 272.929543 
L 114.284225 272.929543 
L 114.492738 272.151666 
L 116.369354 272.151666 
L 116.577867 271.373788 
L 119.914073 271.373788 
L 120.122585 270.59591 
L 120.331098 270.59591 
L 120.539611 269.818032 
L 121.790688 269.818032 
L 121.999201 269.040154 
L 123.667304 269.040154 
L 123.875817 268.262277 
L 124.08433 268.262277 
L 124.292843 267.484399 
L 124.501356 265.928643 
L 127.420536 265.928643 
L 127.629049 265.150765 
L 129.088639 265.150765 
L 129.297152 264.372887 
L 129.92269 264.372887 
L 130.131203 263.59501 
L 131.799306 263.59501 
L 132.007819 262.817132 
L 133.258896 262.817132 
L 133.467409 262.039254 
L 134.092948 262.039254 
L 134.301461 261.261376 
L 135.344025 261.261376 
L 135.552538 260.483498 
L 138.054693 260.483498 
L 138.263205 259.705621 
L 139.30577 259.705621 
L 139.722796 258.149865 
L 141.182386 258.149865 
L 141.390899 257.371987 
L 142.22495 257.371987 
L 142.641976 255.816232 
L 144.935617 255.816232 
L 145.14413 255.038354 
L 147.020746 255.038354 
L 147.229259 254.260476 
L 147.854798 254.260476 
L 148.063311 253.482598 
L 148.897362 253.482598 
L 149.105875 252.70472 
L 151.191004 252.70472 
L 151.399517 251.926842 
L 151.608029 251.926842 
L 151.816542 251.148965 
L 153.901671 251.148965 
L 154.110184 250.371087 
L 155.152748 250.371087 
L 155.361261 249.593209 
L 155.9868 249.593209 
L 156.195313 248.815331 
L 158.280441 248.815331 
L 158.488954 248.037453 
L 159.531519 248.037453 
L 159.948544 246.481698 
L 160.991109 246.481698 
L 161.408135 244.925942 
L 162.867725 244.925942 
L 163.076238 244.148064 
L 164.535828 244.148064 
L 164.744341 243.370186 
L 165.369879 243.370186 
L 165.578392 242.592309 
L 165.995418 242.592309 
L 166.203931 241.814431 
L 167.663521 241.814431 
L 167.872034 241.036553 
L 168.497572 241.036553 
L 168.706085 240.258675 
L 171.416752 240.258675 
L 171.625265 239.480797 
L 172.042291 239.480797 
L 172.250804 238.70292 
L 173.501881 238.70292 
L 173.710394 237.925042 
L 174.752958 237.925042 
L 174.961471 237.147164 
L 176.212549 237.147164 
L 176.421061 236.369286 
L 177.0466 236.369286 
L 177.255113 235.591408 
L 179.340242 235.591408 
L 179.548755 234.813531 
L 180.174293 234.813531 
L 180.382806 234.035653 
L 180.591319 234.035653 
L 180.799832 233.257775 
L 181.842396 233.257775 
L 182.050909 232.479897 
L 182.884961 232.479897 
L 183.301986 230.924141 
L 186.012654 230.924141 
L 186.221167 230.146264 
L 189.140347 230.146264 
L 189.34886 229.368386 
L 189.557373 229.368386 
L 189.765885 228.590508 
L 191.851014 228.590508 
L 192.059527 227.81263 
L 192.476553 227.81263 
L 192.685066 227.034752 
L 195.395733 227.034752 
L 195.604246 226.256875 
L 196.64681 226.256875 
L 196.855323 225.478997 
L 199.148965 225.478997 
L 199.357478 224.701119 
L 200.400042 224.701119 
L 200.608555 223.923241 
L 203.110709 223.923241 
L 203.319222 222.367486 
L 203.736248 222.367486 
L 203.944761 221.589608 
L 204.5703 221.589608 
L 204.778812 220.81173 
L 206.655428 220.81173 
L 206.863941 220.033852 
L 208.94907 220.033852 
L 209.157583 219.255974 
L 209.574609 219.255974 
L 209.783121 218.478096 
L 210.200147 218.478096 
L 210.40866 217.700219 
L 212.285276 217.700219 
L 212.493789 216.922341 
L 213.536353 216.922341 
L 213.744866 216.144463 
L 215.204456 216.144463 
L 215.412969 215.366585 
L 217.915123 215.366585 
L 218.123636 214.588707 
L 218.540662 214.588707 
L 218.749175 213.81083 
L 220.000252 213.81083 
L 220.208765 213.032952 
L 222.919432 213.032952 
L 223.127945 211.477196 
L 225.421587 211.477196 
L 225.6301 210.699318 
L 227.298203 210.699318 
L 227.506716 209.921441 
L 228.966306 209.921441 
L 229.174819 209.143563 
L 229.383332 209.143563 
L 229.591844 208.365685 
L 232.093999 208.365685 
L 232.302512 207.587807 
L 232.92805 207.587807 
L 233.136563 206.809929 
L 233.345076 206.809929 
L 233.553589 206.032051 
L 236.055744 206.032051 
L 236.264256 205.254174 
L 238.974924 205.254174 
L 239.183437 204.476296 
L 239.600462 204.476296 
L 239.808975 203.698418 
L 240.85154 203.698418 
L 241.060053 202.92054 
L 243.353694 202.92054 
L 243.562207 202.142662 
L 243.77072 202.142662 
L 243.979233 201.364785 
L 246.898413 201.364785 
L 247.106926 200.586907 
L 247.315439 200.586907 
L 247.523952 199.809029 
L 250.026106 199.809029 
L 250.234619 199.031151 
L 251.485696 199.031151 
L 251.694209 198.253273 
L 253.779338 198.253273 
L 253.987851 197.475395 
L 255.238928 197.475395 
L 255.655954 195.91964 
L 258.158108 195.91964 
L 258.366621 195.141762 
L 258.99216 195.141762 
L 259.200673 194.363884 
L 260.243237 194.363884 
L 260.45175 193.586006 
L 262.119853 193.586006 
L 262.328366 192.808129 
L 263.162417 192.808129 
L 263.37093 192.030251 
L 266.498623 192.030251 
L 266.707136 191.252373 
L 267.332675 191.252373 
L 267.541188 190.474495 
L 268.166726 190.474495 
L 268.375239 189.696617 
L 268.583752 189.696617 
L 268.792265 188.91874 
L 271.711445 188.91874 
L 271.919958 188.140862 
L 274.005087 188.140862 
L 274.2136 187.362984 
L 276.298728 187.362984 
L 276.507241 185.807228 
L 278.383857 185.807228 
L 278.59237 185.02935 
L 280.468986 185.02935 
L 280.677499 184.251473 
L 282.137089 184.251473 
L 282.345602 183.473595 
L 283.596679 183.473595 
L 283.805192 182.695717 
L 285.264782 182.695717 
L 285.473295 181.917839 
L 286.515859 181.917839 
L 286.724372 181.139961 
L 287.558424 181.139961 
L 287.766936 180.362084 
L 289.852065 180.362084 
L 290.060578 179.584206 
L 291.103142 179.584206 
L 291.311655 178.02845 
L 291.728681 178.02845 
L 291.937194 177.250572 
L 293.396784 177.250572 
L 293.605297 176.472695 
L 294.647861 176.472695 
L 294.856374 175.694817 
L 296.315964 175.694817 
L 296.524477 174.916939 
L 298.401093 174.916939 
L 298.609606 174.139061 
L 299.860683 174.139061 
L 300.069196 173.361183 
L 302.362838 173.361183 
L 302.57135 172.583305 
L 303.822428 172.583305 
L 304.030941 171.805428 
L 305.490531 171.805428 
L 305.699044 171.02755 
L 306.116069 171.02755 
L 306.324582 170.249672 
L 307.992685 170.249672 
L 308.409711 168.693916 
L 309.243762 168.693916 
L 309.452275 167.916039 
L 311.328891 167.916039 
L 311.537404 167.138161 
L 313.41402 167.138161 
L 313.622533 166.360283 
L 314.248071 166.360283 
L 314.456584 165.582405 
L 314.665097 165.582405 
L 314.87361 164.804527 
L 315.499149 164.804527 
L 315.707662 164.02665 
L 317.79279 164.02665 
L 318.001303 163.248772 
L 319.669406 163.248772 
L 319.877919 162.470894 
L 320.503458 162.470894 
L 320.711971 161.693016 
L 321.128996 161.693016 
L 321.337509 160.915138 
L 321.754535 160.915138 
L 321.963048 160.13726 
L 322.171561 160.13726 
L 322.380074 159.359383 
L 323.422638 159.359383 
L 323.839664 157.803627 
L 324.256689 157.803627 
L 324.673715 156.247871 
L 325.090741 156.247871 
L 325.299254 155.469994 
L 325.924792 155.469994 
L 326.133305 154.692116 
L 326.758844 154.692116 
L 326.967357 153.914238 
L 327.17587 153.914238 
L 327.384383 153.13636 
L 327.592895 153.13636 
L 328.009921 151.580605 
L 328.63546 151.580605 
L 329.052486 150.024849 
L 329.678024 150.024849 
L 329.886537 149.246971 
L 330.512076 149.246971 
L 330.720589 148.469093 
L 330.929101 148.469093 
L 331.137614 147.691215 
L 331.55464 147.691215 
L 331.763153 146.13546 
L 332.388692 146.13546 
L 332.597204 145.357582 
L 333.431256 145.357582 
L 333.639769 144.579704 
L 334.265307 144.579704 
L 334.682333 143.023949 
L 334.890846 143.023949 
L 335.099359 142.246071 
L 335.516385 142.246071 
L 336.141923 139.912437 
L 336.350436 139.912437 
L 336.558949 139.134559 
L 336.975975 139.134559 
L 337.393001 137.578804 
L 337.601513 137.578804 
L 337.810026 136.800926 
L 338.644078 136.800926 
L 339.061104 135.24517 
L 339.478129 135.24517 
L 339.686642 134.467293 
L 340.312181 134.467293 
L 340.520694 133.689415 
L 340.937719 133.689415 
L 341.146232 132.911537 
L 341.563258 132.911537 
L 341.771771 132.133659 
L 342.188797 132.133659 
L 342.39731 131.355781 
L 342.814335 131.355781 
L 343.022848 130.577904 
L 343.439874 130.577904 
L 343.648387 129.800026 
L 344.065413 129.800026 
L 344.273925 129.022148 
L 344.690951 129.022148 
L 344.899464 128.24427 
L 345.525003 128.24427 
L 345.733516 126.688514 
L 346.359054 126.688514 
L 346.567567 125.910637 
L 347.401618 125.910637 
L 347.818644 124.354881 
L 348.027157 124.354881 
L 348.444183 122.799125 
L 349.278234 122.799125 
L 349.486747 122.021248 
L 350.320799 122.021248 
L 350.737824 120.465492 
L 351.363363 120.465492 
L 351.988902 118.131859 
L 352.822953 118.131859 
L 353.031466 117.353981 
L 353.657005 117.353981 
L 353.865518 116.576103 
L 354.07403 116.576103 
L 354.282543 115.798225 
L 355.116595 115.798225 
L 355.325108 115.020347 
L 355.950646 115.020347 
L 356.159159 113.464592 
L 356.784698 113.464592 
L 356.993211 112.686714 
L 357.618749 112.686714 
L 358.035775 111.130958 
L 358.661314 111.130958 
L 358.869827 110.35308 
L 359.703878 110.35308 
L 359.912391 109.575203 
L 360.120904 109.575203 
L 360.329417 108.797325 
L 360.954955 108.797325 
L 361.163468 108.019447 
L 362.206033 108.019447 
L 362.414545 106.463691 
L 362.831571 106.463691 
L 363.040084 105.685814 
L 363.248597 105.685814 
L 363.45711 104.907936 
L 364.291161 104.907936 
L 364.499674 104.130058 
L 364.9167 104.130058 
L 365.125213 103.35218 
L 365.333726 103.35218 
L 365.542239 102.574302 
L 365.959264 102.574302 
L 366.167777 101.018547 
L 367.001829 101.018547 
L 367.627367 98.684913 
L 368.252906 98.684913 
L 368.669932 97.129158 
L 369.921009 97.129158 
L 370.129522 95.573402 
L 370.546548 95.573402 
L 370.75506 94.795524 
L 370.963573 94.795524 
L 371.172086 93.239768 
L 371.380599 93.239768 
L 371.589112 91.684013 
L 372.423163 91.684013 
L 372.840189 89.350379 
L 373.257215 89.350379 
L 373.465728 88.572502 
L 373.882754 88.572502 
L 374.091266 87.794624 
L 374.716805 87.794624 
L 375.133831 86.238868 
L 376.176395 86.238868 
L 376.384908 85.46099 
L 376.801934 85.46099 
L 377.010447 84.683113 
L 377.635985 84.683113 
L 378.053011 82.349479 
L 378.261524 82.349479 
L 378.470037 81.571601 
L 378.887063 81.571601 
L 379.095575 80.793723 
L 379.512601 78.46009 
L 380.13814 78.46009 
L 380.346653 77.682212 
L 380.555166 77.682212 
L 380.763678 76.904334 
L 382.223269 76.904334 
L 382.431781 75.348579 
L 383.05732 75.348579 
L 383.265833 74.570701 
L 383.474346 74.570701 
L 383.682859 73.792823 
L 383.891372 73.792823 
L 384.099884 73.014945 
L 384.725423 73.014945 
L 384.933936 72.237068 
L 385.350962 72.237068 
L 385.767987 70.681312 
L 386.602039 70.681312 
L 386.810552 69.903434 
L 387.019065 69.903434 
L 387.227578 69.125556 
L 387.43609 69.125556 
L 387.644603 68.347678 
L 388.478655 68.347678 
L 388.687168 67.569801 
L 389.521219 67.569801 
L 389.729732 66.014045 
L 390.355271 66.014045 
L 390.563783 65.236167 
L 390.980809 65.236167 
L 391.189322 64.458289 
L 391.814861 64.458289 
L 392.023374 63.680412 
L 392.648912 63.680412 
L 393.065938 62.124656 
L 393.274451 62.124656 
L 393.691477 60.5689 
L 395.151067 60.5689 
L 395.35958 59.791023 
L 396.193631 59.791023 
L 397.027683 56.679511 
L 397.444708 56.679511 
L 397.861734 54.345878 
L 398.27876 54.345878 
L 398.487273 53.568 
L 398.487273 53.568 
" clip-path="url(#pc14ee2b547)" style="fill: none; stroke-dasharray: 1.85,0.8; stroke-dashoffset: 0; stroke: #bfbf00; stroke-width: 0.5"/>
   </g>
   <g id="patch_3">
    <path d="M 57.6 307.584 
L 57.6 41.472 
" style="fill: none; stroke: #000000; stroke-width: 0.8; stroke-linejoin: miter; stroke-linecap: square"/>
   </g>
   <g id="patch_4">
    <path d="M 414.72 307.584 
L 414.72 41.472 
" style="fill: none; stroke: #000000; stroke-width: 0.8; stroke-linejoin: miter; stroke-linecap: square"/>
   </g>
   <g id="patch_5">
    <path d="M 57.6 307.584 
L 414.72 307.584 
" style="fill: none; stroke: #000000; stroke-width: 0.8; stroke-linejoin: miter; stroke-linecap: square"/>
   </g>
   <g id="patch_6">
    <path d="M 57.6 41.472 
L 414.72 41.472 
" style="fill: none; stroke: #000000; stroke-width: 0.8; stroke-linejoin: miter; stroke-linecap: square"/>
   </g>
   <g id="text_18">
    <!-- count=1000, googlenet=125, resnet50=75, squeezenetv1=125, vgg19=75 -->
    <g transform="translate(38.16 35.472)scale(0.12 -0.12)">
     <defs>
      <path id="FangSong-63" d="M 2125 2125 
Q 2125 2200 2137 2225 
Q 2150 2250 2175 2325 
Q 2200 2425 2075 2562 
Q 1950 2700 1650 2700 
Q 1275 2700 1012 2337 
Q 750 1975 750 1375 
Q 750 825 975 487 
Q 1200 150 1725 150 
Q 2075 150 2312 375 
Q 2550 600 2650 900 
L 2775 850 
Q 2675 475 2400 212 
Q 2125 -50 1650 -50 
Q 1050 -50 700 325 
Q 350 700 350 1400 
Q 350 2025 725 2437 
Q 1100 2850 1700 2850 
Q 2125 2850 2362 2625 
Q 2600 2400 2600 2175 
Q 2600 2025 2537 1962 
Q 2475 1900 2350 1900 
Q 2250 1900 2187 1962 
Q 2125 2025 2125 2125 
z
" transform="scale(0.015625)"/>
      <path id="FangSong-6f" d="M 2875 1400 
Q 2875 775 2500 362 
Q 2125 -50 1575 -50 
Q 1000 -50 637 375 
Q 275 800 275 1400 
Q 275 1950 637 2400 
Q 1000 2850 1575 2850 
Q 2175 2850 2525 2400 
Q 2875 1950 2875 1400 
z
M 675 1375 
Q 675 725 937 412 
Q 1200 100 1575 100 
Q 2000 100 2237 437 
Q 2475 775 2475 1375 
Q 2475 2025 2212 2362 
Q 1950 2700 1575 2700 
Q 1225 2700 950 2362 
Q 675 2025 675 1375 
z
" transform="scale(0.015625)"/>
      <path id="FangSong-75" d="M 1425 225 
Q 1725 225 1937 375 
Q 2150 525 2250 850 
L 2250 2425 
Q 2250 2525 2200 2587 
Q 2150 2650 2025 2650 
L 1875 2650 
L 1875 2800 
L 2025 2800 
Q 2175 2800 2300 2825 
Q 2425 2850 2550 2950 
L 2600 2950 
L 2600 500 
Q 2600 400 2662 350 
Q 2725 300 2825 300 
L 2975 300 
L 2975 150 
L 2825 150 
Q 2700 150 2575 112 
Q 2450 75 2300 0 
L 2250 0 
L 2250 525 
Q 2125 250 1875 112 
Q 1625 -25 1300 -25 
Q 900 -25 700 200 
Q 500 425 500 925 
L 500 2425 
Q 500 2525 450 2587 
Q 400 2650 275 2650 
L 125 2650 
L 125 2800 
L 275 2800 
Q 425 2800 550 2825 
Q 675 2850 800 2950 
L 850 2950 
L 850 875 
Q 850 525 1000 375 
Q 1150 225 1425 225 
z
" transform="scale(0.015625)"/>
      <path id="FangSong-6e" d="M 175 0 
L 175 150 
L 300 150 
Q 425 150 475 200 
Q 525 250 525 350 
L 525 2500 
Q 525 2575 500 2612 
Q 475 2650 400 2650 
L 200 2650 
L 200 2800 
L 375 2800 
Q 500 2800 612 2825 
Q 725 2850 825 2925 
L 875 2925 
L 875 2350 
Q 1100 2600 1325 2725 
Q 1550 2850 1800 2850 
Q 2225 2850 2425 2625 
Q 2625 2400 2625 1950 
L 2625 350 
Q 2625 250 2687 200 
Q 2750 150 2850 150 
L 2975 150 
L 2975 0 
L 1925 0 
L 1925 150 
L 2050 150 
Q 2175 150 2225 200 
Q 2275 250 2275 350 
L 2275 2025 
Q 2275 2325 2150 2487 
Q 2025 2650 1775 2650 
Q 1550 2650 1312 2500 
Q 1075 2350 875 2075 
L 875 350 
Q 875 250 937 200 
Q 1000 150 1100 150 
L 1225 150 
L 1225 0 
L 175 0 
z
" transform="scale(0.015625)"/>
      <path id="FangSong-74" d="M 1475 800 
Q 1475 450 1600 325 
Q 1725 200 1975 200 
Q 2225 200 2375 362 
Q 2525 525 2575 825 
L 2700 775 
Q 2650 425 2437 200 
Q 2225 -25 1875 -25 
Q 1500 -25 1312 200 
Q 1125 425 1125 900 
L 1125 2650 
L 375 2650 
L 375 2800 
L 575 2800 
Q 875 2800 1062 2987 
Q 1250 3175 1300 3575 
L 1325 3775 
L 1475 3775 
L 1475 2800 
L 2475 2800 
L 2475 2650 
L 1475 2650 
L 1475 800 
z
" transform="scale(0.015625)"/>
      <path id="FangSong-3d" d="M 175 2725 
L 175 2950 
L 2950 2950 
L 2950 2725 
L 175 2725 
z
M 175 1450 
L 175 1675 
L 2950 1675 
L 2950 1450 
L 175 1450 
z
" transform="scale(0.015625)"/>
      <path id="FangSong-2c" d="M 1325 75 
Q 1200 25 1100 75 
Q 1000 125 962 237 
Q 925 350 925 437 
Q 925 525 987 612 
Q 1050 700 1150 737 
Q 1250 775 1425 725 
Q 1600 675 1650 500 
Q 1700 325 1662 150 
Q 1625 -25 1525 -200 
Q 1425 -375 1312 -475 
Q 1200 -575 1025 -675 
L 950 -575 
Q 1100 -450 1187 -312 
Q 1275 -175 1325 75 
z
" transform="scale(0.015625)"/>
      <path id="FangSong-20" transform="scale(0.015625)"/>
      <path id="FangSong-67" d="M 850 1875 
Q 850 1575 1025 1362 
Q 1200 1150 1500 1150 
Q 1825 1150 1987 1337 
Q 2150 1525 2150 1875 
Q 2150 2300 1962 2487 
Q 1775 2675 1500 2675 
Q 1225 2675 1037 2487 
Q 850 2300 850 1875 
z
M 2075 525 
Q 2450 475 2625 312 
Q 2800 150 2800 -125 
Q 2800 -500 2487 -725 
Q 2175 -950 1500 -950 
Q 975 -950 650 -737 
Q 325 -525 325 -250 
Q 325 -75 450 100 
Q 575 275 850 375 
Q 700 450 612 537 
Q 525 625 525 750 
Q 525 900 625 1012 
Q 725 1125 875 1200 
Q 725 1325 612 1500 
Q 500 1675 500 1875 
Q 500 2250 762 2537 
Q 1025 2825 1500 2825 
Q 1700 2825 1887 2775 
Q 2075 2725 2200 2600 
Q 2375 2725 2512 2787 
Q 2650 2850 2750 2850 
Q 2875 2850 2925 2762 
Q 2975 2675 2975 2600 
Q 2975 2500 2937 2437 
Q 2900 2375 2800 2375 
Q 2725 2375 2675 2412 
Q 2625 2450 2600 2525 
Q 2575 2600 2487 2587 
Q 2400 2575 2300 2500 
Q 2400 2400 2450 2225 
Q 2500 2050 2500 1875 
Q 2500 1575 2262 1287 
Q 2025 1000 1500 1000 
Q 1350 1000 1225 1037 
Q 1100 1075 1025 1125 
Q 925 1075 875 1000 
Q 825 925 825 875 
Q 825 775 875 725 
Q 925 675 1025 675 
Q 1350 625 1612 587 
Q 1875 550 2075 525 
z
M 1050 325 
Q 825 225 737 87 
Q 650 -50 650 -250 
Q 650 -450 875 -625 
Q 1100 -800 1550 -800 
Q 1975 -800 2225 -662 
Q 2475 -525 2475 -250 
Q 2475 -75 2412 25 
Q 2350 125 2225 150 
Q 1975 200 1675 237 
Q 1375 275 1050 325 
z
" transform="scale(0.015625)"/>
      <path id="FangSong-6c" d="M 900 4275 
Q 1125 4275 1325 4325 
Q 1525 4375 1700 4475 
L 1750 4475 
L 1750 350 
Q 1750 250 1812 200 
Q 1875 150 1975 150 
L 2550 150 
L 2550 0 
L 600 0 
L 600 150 
L 1175 150 
Q 1300 150 1350 200 
Q 1400 250 1400 350 
L 1400 3925 
Q 1400 4025 1350 4075 
Q 1300 4125 1175 4125 
L 625 4125 
L 625 4275 
L 900 4275 
z
" transform="scale(0.015625)"/>
      <path id="FangSong-65" d="M 2375 1550 
Q 2400 2100 2187 2387 
Q 1975 2675 1625 2675 
Q 1250 2675 1012 2375 
Q 775 2075 775 1550 
L 2375 1550 
z
M 775 1400 
Q 775 725 1037 437 
Q 1300 150 1725 150 
Q 2050 150 2275 337 
Q 2500 525 2600 800 
L 2725 750 
Q 2650 475 2387 212 
Q 2125 -50 1675 -50 
Q 1100 -50 737 325 
Q 375 700 375 1400 
Q 375 2025 737 2437 
Q 1100 2850 1625 2850 
Q 2100 2850 2450 2525 
Q 2800 2200 2800 1400 
L 775 1400 
z
" transform="scale(0.015625)"/>
      <path id="FangSong-35" d="M 1700 2750 
Q 2175 2750 2475 2387 
Q 2775 2025 2775 1425 
Q 2775 750 2462 350 
Q 2150 -50 1500 -50 
Q 1050 -50 700 212 
Q 350 475 350 850 
Q 350 1000 437 1112 
Q 525 1225 675 1225 
Q 825 1225 875 1125 
Q 925 1025 925 950 
Q 925 800 850 712 
Q 775 625 775 525 
Q 775 325 1012 225 
Q 1250 125 1525 125 
Q 1925 125 2137 450 
Q 2350 775 2350 1375 
Q 2350 1875 2162 2187 
Q 1975 2500 1600 2500 
Q 1325 2500 1125 2400 
Q 925 2300 750 1975 
L 525 2000 
L 650 4275 
L 2700 4275 
L 2625 3900 
L 825 3900 
L 725 2250 
Q 975 2600 1212 2675 
Q 1450 2750 1700 2750 
z
" transform="scale(0.015625)"/>
      <path id="FangSong-72" d="M 1250 2025 
Q 1500 2425 1787 2637 
Q 2075 2850 2375 2850 
Q 2625 2850 2762 2737 
Q 2900 2625 2900 2475 
Q 2900 2350 2837 2275 
Q 2775 2200 2650 2200 
Q 2525 2200 2462 2275 
Q 2400 2350 2425 2475 
Q 2425 2550 2400 2600 
Q 2375 2650 2250 2650 
Q 2050 2650 1762 2400 
Q 1475 2150 1250 1700 
L 1250 350 
Q 1250 250 1312 200 
Q 1375 150 1475 150 
L 2025 150 
L 2025 0 
L 175 0 
L 175 150 
L 675 150 
Q 800 150 850 200 
Q 900 250 900 350 
L 900 2425 
Q 900 2525 850 2587 
Q 800 2650 675 2650 
L 200 2650 
L 200 2800 
L 400 2800 
Q 575 2800 812 2837 
Q 1050 2875 1175 2925 
L 1250 2925 
L 1250 2025 
z
" transform="scale(0.015625)"/>
      <path id="FangSong-73" d="M 600 2075 
Q 600 2450 887 2650 
Q 1175 2850 1575 2850 
Q 1800 2850 2000 2787 
Q 2200 2725 2275 2725 
Q 2350 2725 2400 2750 
Q 2450 2775 2525 2850 
L 2625 2025 
L 2475 2000 
Q 2375 2325 2137 2512 
Q 1900 2700 1600 2700 
Q 1275 2700 1087 2575 
Q 900 2450 900 2225 
Q 900 2025 987 1912 
Q 1075 1800 1300 1750 
Q 1475 1675 1737 1587 
Q 2000 1500 2225 1400 
Q 2425 1300 2562 1137 
Q 2700 975 2700 775 
Q 2700 400 2437 187 
Q 2175 -25 1675 -25 
Q 1350 -25 1187 37 
Q 1025 100 925 100 
Q 850 100 762 62 
Q 675 25 575 -25 
L 500 900 
L 650 925 
Q 725 525 975 325 
Q 1225 125 1675 125 
Q 2025 125 2212 250 
Q 2400 375 2400 625 
Q 2400 800 2300 912 
Q 2200 1025 2100 1075 
Q 1850 1175 1550 1287 
Q 1250 1400 1025 1500 
Q 800 1600 700 1750 
Q 600 1900 600 2075 
z
" transform="scale(0.015625)"/>
      <path id="FangSong-37" d="M 2800 4100 
Q 2275 3250 1962 2437 
Q 1650 1625 1650 1025 
Q 1650 925 1662 737 
Q 1675 550 1675 300 
Q 1675 100 1612 25 
Q 1550 -50 1400 -50 
Q 1275 -50 1187 37 
Q 1100 125 1100 350 
Q 1100 825 1312 1525 
Q 1525 2225 2450 3900 
L 1200 3900 
Q 925 3900 762 3725 
Q 600 3550 525 3200 
L 375 3225 
L 550 4275 
L 2800 4275 
L 2800 4100 
z
" transform="scale(0.015625)"/>
      <path id="FangSong-71" d="M 2250 2150 
Q 2150 2375 1975 2512 
Q 1800 2650 1550 2650 
Q 1200 2650 950 2350 
Q 700 2050 700 1325 
Q 700 700 912 437 
Q 1125 175 1450 175 
Q 1725 175 1937 300 
Q 2150 425 2250 725 
L 2250 2150 
z
M 2600 -550 
Q 2600 -675 2662 -725 
Q 2725 -775 2825 -775 
L 2975 -775 
L 2975 -925 
L 1825 -925 
L 1825 -775 
L 2025 -775 
Q 2150 -775 2200 -725 
Q 2250 -675 2250 -550 
L 2250 375 
Q 2100 175 1887 75 
Q 1675 -25 1375 -25 
Q 950 -25 625 337 
Q 300 700 300 1400 
Q 300 2075 675 2450 
Q 1050 2825 1475 2825 
Q 1750 2825 1937 2725 
Q 2125 2625 2275 2475 
L 2500 2800 
L 2600 2800 
L 2600 -550 
z
" transform="scale(0.015625)"/>
      <path id="FangSong-7a" d="M 2725 975 
L 2550 0 
L 400 0 
L 400 125 
L 2125 2650 
L 1200 2650 
Q 975 2650 825 2487 
Q 675 2325 575 1925 
L 425 1950 
L 525 2800 
L 2575 2800 
L 2575 2725 
L 825 150 
L 1775 150 
Q 2100 150 2287 350 
Q 2475 550 2575 1000 
L 2725 975 
z
" transform="scale(0.015625)"/>
      <path id="FangSong-76" d="M 1600 -25 
L 1450 -25 
L 600 2425 
Q 575 2525 500 2587 
Q 425 2650 325 2650 
L 200 2650 
L 200 2800 
L 1275 2800 
L 1275 2650 
L 1175 2650 
Q 1025 2650 987 2575 
Q 950 2500 1000 2325 
L 1600 575 
L 1650 575 
L 2250 2300 
Q 2325 2475 2262 2562 
Q 2200 2650 2050 2650 
L 2000 2650 
L 2000 2800 
L 2900 2800 
L 2900 2650 
L 2850 2650 
Q 2700 2650 2612 2562 
Q 2525 2475 2450 2300 
L 1600 -25 
z
" transform="scale(0.015625)"/>
      <path id="FangSong-39" d="M 675 2950 
Q 675 2400 887 2112 
Q 1100 1825 1425 1825 
Q 1800 1825 2075 2175 
Q 2350 2525 2350 2825 
Q 2350 3425 2150 3787 
Q 1950 4150 1500 4150 
Q 1075 4150 875 3812 
Q 675 3475 675 2950 
z
M 1350 1600 
Q 850 1600 550 1912 
Q 250 2225 250 2925 
Q 250 3525 575 3925 
Q 900 4325 1500 4325 
Q 2125 4325 2475 3825 
Q 2825 3325 2825 2375 
Q 2825 1325 2412 637 
Q 2000 -50 1275 -50 
Q 950 -50 712 100 
Q 475 250 475 500 
Q 475 600 537 700 
Q 600 800 750 800 
Q 900 800 950 687 
Q 1000 575 1000 425 
Q 1000 325 1025 262 
Q 1050 200 1075 175 
Q 1100 150 1162 137 
Q 1225 125 1300 125 
Q 1750 125 2025 625 
Q 2300 1125 2350 2300 
Q 2225 2000 1975 1800 
Q 1725 1600 1350 1600 
z
" transform="scale(0.015625)"/>
     </defs>
     <use xlink:href="#FangSong-63"/>
     <use xlink:href="#FangSong-6f" x="50"/>
     <use xlink:href="#FangSong-75" x="100"/>
     <use xlink:href="#FangSong-6e" x="150"/>
     <use xlink:href="#FangSong-74" x="200"/>
     <use xlink:href="#FangSong-3d" x="250"/>
     <use xlink:href="#FangSong-31" x="300"/>
     <use xlink:href="#FangSong-30" x="350"/>
     <use xlink:href="#FangSong-30" x="400"/>
     <use xlink:href="#FangSong-30" x="450"/>
     <use xlink:href="#FangSong-2c" x="500"/>
     <use xlink:href="#FangSong-20" x="550"/>
     <use xlink:href="#FangSong-67" x="600"/>
     <use xlink:href="#FangSong-6f" x="650"/>
     <use xlink:href="#FangSong-6f" x="700"/>
     <use xlink:href="#FangSong-67" x="750"/>
     <use xlink:href="#FangSong-6c" x="800"/>
     <use xlink:href="#FangSong-65" x="850"/>
     <use xlink:href="#FangSong-6e" x="900"/>
     <use xlink:href="#FangSong-65" x="950"/>
     <use xlink:href="#FangSong-74" x="1000"/>
     <use xlink:href="#FangSong-3d" x="1050"/>
     <use xlink:href="#FangSong-31" x="1100"/>
     <use xlink:href="#FangSong-32" x="1150"/>
     <use xlink:href="#FangSong-35" x="1200"/>
     <use xlink:href="#FangSong-2c" x="1250"/>
     <use xlink:href="#FangSong-20" x="1300"/>
     <use xlink:href="#FangSong-72" x="1350"/>
     <use xlink:href="#FangSong-65" x="1400"/>
     <use xlink:href="#FangSong-73" x="1450"/>
     <use xlink:href="#FangSong-6e" x="1500"/>
     <use xlink:href="#FangSong-65" x="1550"/>
     <use xlink:href="#FangSong-74" x="1600"/>
     <use xlink:href="#FangSong-35" x="1650"/>
     <use xlink:href="#FangSong-30" x="1700"/>
     <use xlink:href="#FangSong-3d" x="1750"/>
     <use xlink:href="#FangSong-37" x="1800"/>
     <use xlink:href="#FangSong-35" x="1850"/>
     <use xlink:href="#FangSong-2c" x="1900"/>
     <use xlink:href="#FangSong-20" x="1950"/>
     <use xlink:href="#FangSong-73" x="2000"/>
     <use xlink:href="#FangSong-71" x="2050"/>
     <use xlink:href="#FangSong-75" x="2100"/>
     <use xlink:href="#FangSong-65" x="2150"/>
     <use xlink:href="#FangSong-65" x="2200"/>
     <use xlink:href="#FangSong-7a" x="2250"/>
     <use xlink:href="#FangSong-65" x="2300"/>
     <use xlink:href="#FangSong-6e" x="2350"/>
     <use xlink:href="#FangSong-65" x="2400"/>
     <use xlink:href="#FangSong-74" x="2450"/>
     <use xlink:href="#FangSong-76" x="2500"/>
     <use xlink:href="#FangSong-31" x="2550"/>
     <use xlink:href="#FangSong-3d" x="2600"/>
     <use xlink:href="#FangSong-31" x="2650"/>
     <use xlink:href="#FangSong-32" x="2700"/>
     <use xlink:href="#FangSong-35" x="2750"/>
     <use xlink:href="#FangSong-2c" x="2800"/>
     <use xlink:href="#FangSong-20" x="2850"/>
     <use xlink:href="#FangSong-76" x="2900"/>
     <use xlink:href="#FangSong-67" x="2950"/>
     <use xlink:href="#FangSong-67" x="3000"/>
     <use xlink:href="#FangSong-31" x="3050"/>
     <use xlink:href="#FangSong-39" x="3100"/>
     <use xlink:href="#FangSong-3d" x="3150"/>
     <use xlink:href="#FangSong-37" x="3200"/>
     <use xlink:href="#FangSong-35" x="3250"/>
    </g>
   </g>
   <g id="legend_1">
    <g id="patch_7">
     <path d="M 315.72 302.584 
L 407.72 302.584 
Q 409.72 302.584 409.72 300.584 
L 409.72 234.279312 
Q 409.72 232.279312 407.72 232.279312 
L 315.72 232.279312 
Q 313.72 232.279312 313.72 234.279312 
L 313.72 300.584 
Q 313.72 302.584 315.72 302.584 
z
" style="fill: #ffffff; opacity: 0.8; stroke: #cccccc; stroke-linejoin: miter"/>
    </g>
    <g id="line2d_21">
     <path d="M 317.72 239.779312 
L 327.72 239.779312 
L 337.72 239.779312 
" style="fill: none; stroke: #ff0000; stroke-linecap: square"/>
    </g>
    <g id="text_19">
     <!-- total -->
     <g transform="translate(345.72 243.279312)scale(0.1 -0.1)">
      <defs>
       <path id="FangSong-61" d="M 1200 -25 
Q 750 -25 500 187 
Q 250 400 250 675 
Q 250 1125 637 1412 
Q 1025 1700 2175 1825 
L 2175 2125 
Q 2175 2375 2062 2537 
Q 1950 2700 1550 2700 
Q 1125 2700 950 2562 
Q 775 2425 825 2275 
Q 875 2175 825 2075 
Q 775 1975 625 1975 
Q 525 1975 462 2037 
Q 400 2100 400 2225 
Q 400 2450 725 2650 
Q 1050 2850 1525 2850 
Q 2025 2850 2275 2662 
Q 2525 2475 2525 2125 
L 2525 475 
Q 2525 275 2562 237 
Q 2600 200 2700 200 
Q 2825 200 2875 312 
Q 2925 425 2925 625 
L 3050 625 
Q 3050 275 2925 137 
Q 2800 0 2600 0 
Q 2425 0 2325 75 
Q 2225 150 2175 325 
Q 1925 150 1712 62 
Q 1500 -25 1200 -25 
z
M 675 750 
Q 675 525 812 337 
Q 950 150 1250 150 
Q 1475 150 1700 237 
Q 1925 325 2175 500 
L 2175 1675 
Q 1325 1575 1000 1337 
Q 675 1100 675 750 
z
" transform="scale(0.015625)"/>
      </defs>
      <use xlink:href="#FangSong-74"/>
      <use xlink:href="#FangSong-6f" x="50"/>
      <use xlink:href="#FangSong-74" x="100"/>
      <use xlink:href="#FangSong-61" x="150"/>
      <use xlink:href="#FangSong-6c" x="200"/>
     </g>
    </g>
    <g id="line2d_22">
     <path d="M 317.72 253.224625 
L 327.72 253.224625 
L 337.72 253.224625 
" style="fill: none; stroke-dasharray: 1.85,0.8; stroke-dashoffset: 0; stroke: #008000; stroke-width: 0.5"/>
    </g>
    <g id="text_20">
     <!-- squeezenetv1 -->
     <g transform="translate(345.72 256.724625)scale(0.1 -0.1)">
      <use xlink:href="#FangSong-73"/>
      <use xlink:href="#FangSong-71" x="50"/>
      <use xlink:href="#FangSong-75" x="100"/>
      <use xlink:href="#FangSong-65" x="150"/>
      <use xlink:href="#FangSong-65" x="200"/>
      <use xlink:href="#FangSong-7a" x="250"/>
      <use xlink:href="#FangSong-65" x="300"/>
      <use xlink:href="#FangSong-6e" x="350"/>
      <use xlink:href="#FangSong-65" x="400"/>
      <use xlink:href="#FangSong-74" x="450"/>
      <use xlink:href="#FangSong-76" x="500"/>
      <use xlink:href="#FangSong-31" x="550"/>
     </g>
    </g>
    <g id="line2d_23">
     <path d="M 317.72 266.669937 
L 327.72 266.669937 
L 337.72 266.669937 
" style="fill: none; stroke-dasharray: 1.85,0.8; stroke-dashoffset: 0; stroke: #0000ff; stroke-width: 0.5"/>
    </g>
    <g id="text_21">
     <!-- googlenet -->
     <g transform="translate(345.72 270.169937)scale(0.1 -0.1)">
      <use xlink:href="#FangSong-67"/>
      <use xlink:href="#FangSong-6f" x="50"/>
      <use xlink:href="#FangSong-6f" x="100"/>
      <use xlink:href="#FangSong-67" x="150"/>
      <use xlink:href="#FangSong-6c" x="200"/>
      <use xlink:href="#FangSong-65" x="250"/>
      <use xlink:href="#FangSong-6e" x="300"/>
      <use xlink:href="#FangSong-65" x="350"/>
      <use xlink:href="#FangSong-74" x="400"/>
     </g>
    </g>
    <g id="line2d_24">
     <path d="M 317.72 280.154312 
L 327.72 280.154312 
L 337.72 280.154312 
" style="fill: none; stroke-dasharray: 1.85,0.8; stroke-dashoffset: 0; stroke: #bf00bf; stroke-width: 0.5"/>
    </g>
    <g id="text_22">
     <!-- resnet50 -->
     <g transform="translate(345.72 283.654312)scale(0.1 -0.1)">
      <use xlink:href="#FangSong-72"/>
      <use xlink:href="#FangSong-65" x="50"/>
      <use xlink:href="#FangSong-73" x="100"/>
      <use xlink:href="#FangSong-6e" x="150"/>
      <use xlink:href="#FangSong-65" x="200"/>
      <use xlink:href="#FangSong-74" x="250"/>
      <use xlink:href="#FangSong-35" x="300"/>
      <use xlink:href="#FangSong-30" x="350"/>
     </g>
    </g>
    <g id="line2d_25">
     <path d="M 317.72 293.599625 
L 327.72 293.599625 
L 337.72 293.599625 
" style="fill: none; stroke-dasharray: 1.85,0.8; stroke-dashoffset: 0; stroke: #bfbf00; stroke-width: 0.5"/>
    </g>
    <g id="text_23">
     <!-- vgg19 -->
     <g transform="translate(345.72 297.099625)scale(0.1 -0.1)">
      <use xlink:href="#FangSong-76"/>
      <use xlink:href="#FangSong-67" x="50"/>
      <use xlink:href="#FangSong-67" x="100"/>
      <use xlink:href="#FangSong-31" x="150"/>
      <use xlink:href="#FangSong-39" x="200"/>
     </g>
    </g>
   </g>
  </g>
 </g>
 <defs>
  <clipPath id="pc14ee2b547">
   <rect x="57.6" y="41.472" width="357.12" height="266.112"/>
  </clipPath>
 </defs>
</svg>
