<?xml version="1.0" encoding="utf-8" standalone="no"?>
<!DOCTYPE svg PUBLIC "-//W3C//DTD SVG 1.1//EN"
  "http://www.w3.org/Graphics/SVG/1.1/DTD/svg11.dtd">
<svg xmlns:xlink="http://www.w3.org/1999/xlink" width="460.8pt" height="345.6pt" viewBox="0 0 460.8 345.6" xmlns="http://www.w3.org/2000/svg" version="1.1">
 <metadata>
  <rdf:RDF xmlns:dc="http://purl.org/dc/elements/1.1/" xmlns:cc="http://creativecommons.org/ns#" xmlns:rdf="http://www.w3.org/1999/02/22-rdf-syntax-ns#">
   <cc:Work>
    <dc:type rdf:resource="http://purl.org/dc/dcmitype/StillImage"/>
    <dc:date>2022-11-17T04:01:29.598783</dc:date>
    <dc:format>image/svg+xml</dc:format>
    <dc:creator>
     <cc:Agent>
      <dc:title>Matplotlib v3.5.2, https://matplotlib.org/</dc:title>
     </cc:Agent>
    </dc:creator>
   </cc:Work>
  </rdf:RDF>
 </metadata>
 <defs>
  <style type="text/css">*{stroke-linejoin: round; stroke-linecap: butt}</style>
 </defs>
 <g id="figure_1">
  <g id="patch_1">
   <path d="M 0 345.6 
L 460.8 345.6 
L 460.8 0 
L 0 0 
z
" style="fill: #ffffff"/>
  </g>
  <g id="axes_1">
   <g id="patch_2">
    <path d="M 57.6 307.584 
L 414.72 307.584 
L 414.72 41.472 
L 57.6 41.472 
z
" style="fill: #ffffff"/>
   </g>
   <g id="matplotlib.axis_1">
    <g id="xtick_1">
     <g id="line2d_1">
      <defs>
       <path id="m3a99a0fd83" d="M 0 0 
L 0 3.5 
" style="stroke: #000000; stroke-width: 0.8"/>
      </defs>
      <g>
       <use xlink:href="#m3a99a0fd83" x="70.550073" y="307.584" style="stroke: #000000; stroke-width: 0.8"/>
      </g>
     </g>
     <g id="text_1">
      <!-- 0 -->
      <g transform="translate(68.050073 321.576187)scale(0.1 -0.1)">
       <defs>
        <path id="FangSong-30" d="M 1575 4125 
Q 1225 4125 987 3587 
Q 750 3050 750 2150 
Q 750 1200 987 675 
Q 1225 150 1575 150 
Q 1950 150 2162 675 
Q 2375 1200 2375 2150 
Q 2375 3050 2175 3587 
Q 1975 4125 1575 4125 
z
M 1575 -50 
Q 1025 -50 650 525 
Q 275 1100 275 2150 
Q 275 3125 637 3725 
Q 1000 4325 1575 4325 
Q 2125 4325 2487 3750 
Q 2850 3175 2850 2150 
Q 2850 1125 2487 537 
Q 2125 -50 1575 -50 
z
" transform="scale(0.015625)"/>
       </defs>
       <use xlink:href="#FangSong-30"/>
      </g>
     </g>
    </g>
    <g id="xtick_2">
     <g id="line2d_2">
      <g>
       <use xlink:href="#m3a99a0fd83" x="136.203166" y="307.584" style="stroke: #000000; stroke-width: 0.8"/>
      </g>
     </g>
     <g id="text_2">
      <!-- 20 -->
      <g transform="translate(131.203166 321.576187)scale(0.1 -0.1)">
       <defs>
        <path id="FangSong-32" d="M 2300 3225 
Q 2300 3675 2100 3912 
Q 1900 4150 1500 4150 
Q 1200 4150 987 3987 
Q 775 3825 775 3575 
Q 775 3425 862 3325 
Q 950 3225 950 3125 
Q 950 3000 887 2937 
Q 825 2875 700 2875 
Q 550 2875 462 2962 
Q 375 3050 375 3250 
Q 375 3775 750 4050 
Q 1125 4325 1550 4325 
Q 2150 4325 2437 4025 
Q 2725 3725 2725 3275 
Q 2725 2975 2587 2675 
Q 2450 2375 2150 2100 
Q 1425 1400 1037 962 
Q 650 525 575 375 
L 2050 375 
Q 2275 375 2425 550 
Q 2575 725 2625 1075 
L 2775 1075 
L 2625 0 
L 300 0 
L 300 325 
Q 425 550 712 900 
Q 1000 1250 1475 1725 
Q 1900 2150 2100 2525 
Q 2300 2900 2300 3225 
z
" transform="scale(0.015625)"/>
       </defs>
       <use xlink:href="#FangSong-32"/>
       <use xlink:href="#FangSong-30" x="50"/>
      </g>
     </g>
    </g>
    <g id="xtick_3">
     <g id="line2d_3">
      <g>
       <use xlink:href="#m3a99a0fd83" x="201.856259" y="307.584" style="stroke: #000000; stroke-width: 0.8"/>
      </g>
     </g>
     <g id="text_3">
      <!-- 40 -->
      <g transform="translate(196.856259 321.576187)scale(0.1 -0.1)">
       <defs>
        <path id="FangSong-34" d="M 2275 475 
Q 2275 300 2375 225 
Q 2475 150 2650 150 
L 2875 150 
L 2875 0 
L 1225 0 
L 1225 150 
L 1500 150 
Q 1700 150 1787 225 
Q 1875 300 1875 475 
L 1875 1300 
L 200 1300 
L 200 1425 
L 2025 4325 
L 2275 4325 
L 2275 1450 
L 2950 1450 
L 2950 1300 
L 2275 1300 
L 2275 475 
z
M 1850 3700 
L 425 1450 
L 1875 1450 
L 1875 3700 
L 1850 3700 
z
" transform="scale(0.015625)"/>
       </defs>
       <use xlink:href="#FangSong-34"/>
       <use xlink:href="#FangSong-30" x="50"/>
      </g>
     </g>
    </g>
    <g id="xtick_4">
     <g id="line2d_4">
      <g>
       <use xlink:href="#m3a99a0fd83" x="267.509352" y="307.584" style="stroke: #000000; stroke-width: 0.8"/>
      </g>
     </g>
     <g id="text_4">
      <!-- 60 -->
      <g transform="translate(262.509352 321.576187)scale(0.1 -0.1)">
       <defs>
        <path id="FangSong-36" d="M 750 1700 
Q 750 950 1012 537 
Q 1275 125 1650 125 
Q 2025 125 2225 400 
Q 2425 675 2425 1425 
Q 2425 1925 2212 2200 
Q 2000 2475 1700 2475 
Q 1425 2475 1187 2312 
Q 950 2150 750 1700 
z
M 1725 2725 
Q 2325 2725 2587 2325 
Q 2850 1925 2850 1425 
Q 2850 675 2487 312 
Q 2125 -50 1650 -50 
Q 975 -50 625 462 
Q 275 975 275 1950 
Q 275 3100 700 3712 
Q 1125 4325 1850 4325 
Q 2200 4325 2412 4125 
Q 2625 3925 2625 3775 
Q 2625 3625 2562 3550 
Q 2500 3475 2350 3475 
Q 2225 3475 2162 3537 
Q 2100 3600 2100 3725 
Q 2100 3775 2112 3825 
Q 2125 3875 2125 3925 
Q 2125 4025 2050 4087 
Q 1975 4150 1775 4150 
Q 1350 4150 1050 3762 
Q 750 3375 750 2075 
Q 900 2400 1162 2562 
Q 1425 2725 1725 2725 
z
" transform="scale(0.015625)"/>
       </defs>
       <use xlink:href="#FangSong-36"/>
       <use xlink:href="#FangSong-30" x="50"/>
      </g>
     </g>
    </g>
    <g id="xtick_5">
     <g id="line2d_5">
      <g>
       <use xlink:href="#m3a99a0fd83" x="333.162445" y="307.584" style="stroke: #000000; stroke-width: 0.8"/>
      </g>
     </g>
     <g id="text_5">
      <!-- 80 -->
      <g transform="translate(328.162445 321.576187)scale(0.1 -0.1)">
       <defs>
        <path id="FangSong-38" d="M 600 1025 
Q 600 625 862 375 
Q 1125 125 1525 125 
Q 2000 125 2212 375 
Q 2425 625 2425 1000 
Q 2425 1325 2125 1625 
Q 1825 1925 1225 2175 
Q 925 1975 762 1675 
Q 600 1375 600 1025 
z
M 2800 1075 
Q 2800 600 2450 275 
Q 2100 -50 1525 -50 
Q 1000 -50 625 275 
Q 250 600 250 1025 
Q 250 1450 462 1750 
Q 675 2050 1075 2275 
Q 725 2450 537 2712 
Q 350 2975 350 3300 
Q 350 3725 675 4025 
Q 1000 4325 1575 4325 
Q 2100 4325 2425 4025 
Q 2750 3725 2750 3300 
Q 2750 3000 2562 2737 
Q 2375 2475 1975 2275 
Q 2400 2025 2600 1725 
Q 2800 1425 2800 1075 
z
M 2400 3275 
Q 2400 3625 2200 3887 
Q 2000 4150 1575 4150 
Q 1100 4150 900 3900 
Q 700 3650 700 3375 
Q 700 3100 987 2837 
Q 1275 2575 1800 2375 
Q 2100 2525 2250 2750 
Q 2400 2975 2400 3275 
z
" transform="scale(0.015625)"/>
       </defs>
       <use xlink:href="#FangSong-38"/>
       <use xlink:href="#FangSong-30" x="50"/>
      </g>
     </g>
    </g>
    <g id="xtick_6">
     <g id="line2d_6">
      <g>
       <use xlink:href="#m3a99a0fd83" x="398.815538" y="307.584" style="stroke: #000000; stroke-width: 0.8"/>
      </g>
     </g>
     <g id="text_6">
      <!-- 100 -->
      <g transform="translate(391.315538 321.576187)scale(0.1 -0.1)">
       <defs>
        <path id="FangSong-31" d="M 1800 4350 
L 1800 550 
Q 1800 350 1925 250 
Q 2050 150 2275 150 
L 2525 150 
L 2525 0 
L 700 0 
L 700 150 
L 925 150 
Q 1175 150 1287 250 
Q 1400 350 1400 550 
L 1400 3575 
Q 1400 3675 1337 3737 
Q 1275 3800 1150 3800 
L 700 3800 
L 700 3950 
L 925 3950 
Q 1225 3950 1412 4050 
Q 1600 4150 1700 4350 
L 1800 4350 
z
" transform="scale(0.015625)"/>
       </defs>
       <use xlink:href="#FangSong-31"/>
       <use xlink:href="#FangSong-30" x="50"/>
       <use xlink:href="#FangSong-30" x="100"/>
      </g>
     </g>
    </g>
    <g id="text_7">
     <!-- 响应比 -->
     <g transform="translate(221.16 334.873062)scale(0.1 -0.1)">
      <defs>
       <path id="FangSong-54cd" d="M 2700 -200 
Q 2725 -650 2625 -525 
L 2375 -125 
Q 2500 50 2475 350 
L 2500 3200 
Q 2500 3625 2425 4100 
L 2500 4125 
L 2725 3575 
L 3300 3625 
Q 3550 4225 3675 4637 
Q 3800 5050 3700 5150 
L 3775 5200 
L 4125 4750 
Q 4050 4800 3900 4512 
Q 3750 4225 3500 3650 
L 5275 3850 
L 5425 4125 
L 5725 3850 
L 5575 3650 
Q 5500 -175 5175 -675 
Q 4800 -275 4175 250 
L 4225 350 
L 5050 -175 
Q 5275 525 5325 3625 
L 2725 3325 
L 2700 -200 
z
M 725 3250 
Q 725 3575 625 3925 
L 725 3975 
L 950 3525 
L 1750 3650 
L 1875 3875 
L 2175 3650 
L 2000 3450 
L 1925 2175 
L 2125 1950 
L 1000 1800 
Q 1025 1275 900 1350 
L 650 1750 
Q 775 1850 750 2150 
L 725 3250 
z
M 3550 1250 
Q 3575 950 3500 875 
L 3225 1200 
Q 3300 1350 3300 1525 
L 3275 2325 
Q 3275 2700 3200 2875 
L 3275 2925 
L 3500 2625 
L 4350 2725 
L 4500 2925 
L 4775 2675 
L 4600 2475 
L 4525 1575 
L 4750 1400 
L 3550 1250 
z
M 975 3275 
L 1000 2050 
L 1675 2150 
L 1775 3425 
L 975 3275 
z
M 4350 2475 
L 3500 2375 
L 3525 1500 
L 4275 1575 
L 4350 2475 
z
" transform="scale(0.015625)"/>
       <path id="FangSong-5e94" d="M 1625 4400 
L 1800 3800 
Q 5075 4050 5200 4175 
L 5525 3850 
Q 5200 3900 1825 3550 
Q 1775 2450 1675 1825 
Q 1575 1200 1312 612 
Q 1050 25 500 -600 
L 425 -525 
Q 850 50 1100 675 
Q 1350 1300 1425 1862 
Q 1500 2425 1550 3150 
Q 1600 3875 1550 4375 
L 1625 4400 
z
M 4725 3175 
L 5100 2725 
Q 5000 2800 4750 2112 
Q 4500 1425 4000 150 
Q 5425 225 5400 275 
L 5725 0 
Q 5425 0 3687 -112 
Q 1950 -225 1725 -275 
L 1350 25 
Q 2150 0 3800 125 
Q 4300 1500 4525 2200 
Q 4750 2900 4650 3125 
L 4725 3175 
z
M 2900 1150 
Q 2800 975 2650 725 
Q 2450 1625 2175 2550 
L 2275 2575 
Q 2600 1850 2900 1150 
z
M 3775 1550 
Q 3675 1350 3525 1150 
Q 3475 1600 3075 3050 
L 3150 3075 
Q 3475 2300 3775 1550 
z
M 3500 4100 
Q 3275 4675 3000 5225 
L 3075 5275 
Q 3375 4900 3700 4525 
Q 3600 4325 3500 4100 
z
" transform="scale(0.015625)"/>
       <path id="FangSong-6bd4" d="M 3500 2125 
Q 3925 2425 4487 2975 
Q 5050 3525 4950 3750 
L 5025 3775 
L 5250 3225 
Q 5175 3250 4875 3000 
Q 4575 2750 4287 2525 
Q 4000 2300 3500 1900 
L 3500 575 
Q 3475 -100 4150 -100 
L 4800 -100 
Q 5275 -100 5375 12 
Q 5475 125 5450 1350 
L 5575 1350 
Q 5600 825 5637 412 
Q 5675 0 5800 -175 
Q 5375 -325 4800 -325 
L 4150 -325 
Q 3225 -350 3275 550 
L 3275 4300 
Q 3275 4875 3150 5150 
L 3200 5200 
L 3625 4850 
Q 3475 4825 3500 4250 
L 3500 2125 
z
M 1500 2575 
Q 1900 2625 2337 2712 
Q 2775 2800 2800 2850 
L 3075 2600 
Q 2875 2575 2350 2475 
Q 1825 2375 1775 2325 
L 1500 2525 
L 1500 150 
L 2925 1075 
L 2975 1025 
Q 1550 -75 1375 -350 
L 1200 0 
Q 1275 75 1275 350 
L 1275 3925 
Q 1275 4475 1150 4750 
L 1200 4800 
L 1625 4400 
Q 1475 4375 1500 3925 
L 1500 2575 
z
" transform="scale(0.015625)"/>
      </defs>
      <use xlink:href="#FangSong-54cd"/>
      <use xlink:href="#FangSong-5e94" x="100"/>
      <use xlink:href="#FangSong-6bd4" x="200"/>
     </g>
    </g>
   </g>
   <g id="matplotlib.axis_2">
    <g id="ytick_1">
     <g id="line2d_7">
      <defs>
       <path id="ma6cee65352" d="M 0 0 
L -3.5 0 
" style="stroke: #000000; stroke-width: 0.8"/>
      </defs>
      <g>
       <use xlink:href="#ma6cee65352" x="57.6" y="295.488" style="stroke: #000000; stroke-width: 0.8"/>
      </g>
     </g>
     <g id="text_8">
      <!-- 0% -->
      <g transform="translate(40.6 298.984094)scale(0.1 -0.1)">
       <defs>
        <path id="FangSong-25" d="M 725 4150 
Q 575 4150 475 3950 
Q 375 3750 375 3200 
Q 375 2575 487 2387 
Q 600 2200 725 2200 
Q 900 2200 987 2425 
Q 1075 2650 1075 3200 
Q 1075 3650 1012 3900 
Q 950 4150 725 4150 
z
M 1400 3175 
Q 1400 2725 1250 2387 
Q 1100 2050 725 2050 
Q 425 2050 237 2350 
Q 50 2650 50 3175 
Q 50 3725 250 4025 
Q 450 4325 725 4325 
Q 1025 4325 1212 4012 
Q 1400 3700 1400 3175 
z
M 2700 1100 
Q 2700 1525 2625 1800 
Q 2550 2075 2350 2075 
Q 2200 2075 2100 1837 
Q 2000 1600 2000 1100 
Q 2000 475 2112 300 
Q 2225 125 2350 125 
Q 2525 125 2612 337 
Q 2700 550 2700 1100 
z
M 3025 1075 
Q 3025 575 2850 262 
Q 2675 -50 2350 -50 
Q 2075 -50 1875 262 
Q 1675 575 1675 1075 
Q 1675 1625 1875 1937 
Q 2075 2250 2350 2250 
Q 2650 2250 2837 1925 
Q 3025 1600 3025 1075 
z
M 2500 4250 
L 700 -50 
L 550 25 
L 2325 4325 
L 2500 4250 
z
" transform="scale(0.015625)"/>
       </defs>
       <use xlink:href="#FangSong-30"/>
       <use xlink:href="#FangSong-25" x="50"/>
      </g>
     </g>
    </g>
    <g id="ytick_2">
     <g id="line2d_8">
      <g>
       <use xlink:href="#ma6cee65352" x="57.6" y="247.104" style="stroke: #000000; stroke-width: 0.8"/>
      </g>
     </g>
     <g id="text_9">
      <!-- 20% -->
      <g transform="translate(35.6 250.600094)scale(0.1 -0.1)">
       <use xlink:href="#FangSong-32"/>
       <use xlink:href="#FangSong-30" x="50"/>
       <use xlink:href="#FangSong-25" x="100"/>
      </g>
     </g>
    </g>
    <g id="ytick_3">
     <g id="line2d_9">
      <g>
       <use xlink:href="#ma6cee65352" x="57.6" y="198.72" style="stroke: #000000; stroke-width: 0.8"/>
      </g>
     </g>
     <g id="text_10">
      <!-- 40% -->
      <g transform="translate(35.6 202.216094)scale(0.1 -0.1)">
       <use xlink:href="#FangSong-34"/>
       <use xlink:href="#FangSong-30" x="50"/>
       <use xlink:href="#FangSong-25" x="100"/>
      </g>
     </g>
    </g>
    <g id="ytick_4">
     <g id="line2d_10">
      <g>
       <use xlink:href="#ma6cee65352" x="57.6" y="150.336" style="stroke: #000000; stroke-width: 0.8"/>
      </g>
     </g>
     <g id="text_11">
      <!-- 60% -->
      <g transform="translate(35.6 153.832094)scale(0.1 -0.1)">
       <use xlink:href="#FangSong-36"/>
       <use xlink:href="#FangSong-30" x="50"/>
       <use xlink:href="#FangSong-25" x="100"/>
      </g>
     </g>
    </g>
    <g id="ytick_5">
     <g id="line2d_11">
      <g>
       <use xlink:href="#ma6cee65352" x="57.6" y="101.952" style="stroke: #000000; stroke-width: 0.8"/>
      </g>
     </g>
     <g id="text_12">
      <!-- 80% -->
      <g transform="translate(35.6 105.448094)scale(0.1 -0.1)">
       <use xlink:href="#FangSong-38"/>
       <use xlink:href="#FangSong-30" x="50"/>
       <use xlink:href="#FangSong-25" x="100"/>
      </g>
     </g>
    </g>
    <g id="ytick_6">
     <g id="line2d_12">
      <g>
       <use xlink:href="#ma6cee65352" x="57.6" y="53.568" style="stroke: #000000; stroke-width: 0.8"/>
      </g>
     </g>
     <g id="text_13">
      <!-- 100% -->
      <g transform="translate(30.6 57.064094)scale(0.1 -0.1)">
       <use xlink:href="#FangSong-31"/>
       <use xlink:href="#FangSong-30" x="50"/>
       <use xlink:href="#FangSong-30" x="100"/>
       <use xlink:href="#FangSong-25" x="150"/>
      </g>
     </g>
    </g>
    <g id="text_14">
     <!-- 累计完成比例 -->
     <g transform="translate(25.154688 204.528)rotate(-90)scale(0.1 -0.1)">
      <defs>
       <path id="FangSong-7d2f" d="M 4525 4975 
L 4700 5225 
L 5000 4950 
L 4825 4775 
L 4625 3550 
L 4850 3300 
L 3175 3150 
L 3375 2975 
Q 3200 2925 2862 2725 
Q 2525 2525 2075 2275 
L 3475 2500 
Q 3750 2675 3900 2800 
Q 4050 2925 4100 3075 
L 4175 3100 
L 4325 2700 
Q 4200 2675 3500 2237 
Q 2800 1800 2275 1550 
L 4375 1825 
L 3900 2175 
L 4000 2275 
Q 4625 1900 4950 1725 
Q 4975 1475 4925 1225 
Q 4800 1375 4500 1675 
L 3250 1475 
L 3525 1300 
Q 3375 1200 3375 875 
L 3375 25 
Q 3375 -325 3225 -625 
Q 2975 -325 2400 150 
L 2450 250 
L 3050 -75 
Q 3150 -125 3150 0 
L 3150 925 
Q 3150 1300 3125 1450 
Q 1875 1275 1575 1175 
L 1325 1425 
L 1850 1550 
Q 2175 1700 3250 2300 
Q 2075 2100 1875 2000 
L 1575 2250 
L 1800 2300 
Q 2150 2475 3025 3125 
L 2000 3025 
Q 2000 2675 1950 2700 
Q 1900 2725 1650 3025 
Q 1725 3250 1725 3425 
L 1650 4400 
Q 1625 4675 1525 4950 
L 1625 5000 
L 1875 4675 
L 4525 4975 
z
M 3150 3375 
L 3150 3875 
Q 2525 3800 2400 3725 
L 2100 3975 
Q 2500 3975 3150 4075 
L 3150 4600 
L 1900 4450 
L 1975 3250 
L 3150 3375 
z
M 3375 4100 
Q 3950 4175 4025 4225 
L 4275 4000 
Q 3950 3975 3375 3900 
L 3375 3400 
L 4400 3500 
L 4575 4750 
L 3375 4600 
L 3375 4100 
z
M 5450 -75 
Q 4975 325 3875 1025 
L 3950 1125 
Q 4850 700 5350 500 
Q 5425 250 5450 -75 
z
M 800 -250 
Q 1350 75 1825 500 
Q 2300 925 2325 1125 
L 2400 1150 
L 2550 725 
Q 2425 700 2075 425 
Q 1725 150 875 -350 
L 800 -250 
z
" transform="scale(0.015625)"/>
       <path id="FangSong-8ba1" d="M 4075 4200 
Q 4100 4825 3900 5100 
L 3975 5150 
L 4450 4725 
Q 4275 4600 4300 4200 
L 4275 3000 
Q 5525 3200 5575 3250 
L 5950 2950 
Q 5725 2975 4275 2800 
L 4250 -425 
Q 4250 -700 4150 -575 
L 3875 -150 
Q 4050 50 4025 300 
L 4050 2750 
Q 2975 2625 2900 2575 
L 2525 2825 
Q 2850 2825 4050 2975 
L 4075 4200 
z
M 1775 3250 
L 2100 2950 
L 1900 2750 
L 1875 550 
L 2825 1250 
L 2875 1175 
Q 1875 250 1750 -25 
L 1525 275 
Q 1625 375 1650 625 
L 1675 2775 
Q 900 2625 750 2550 
L 425 2800 
Q 850 2825 1650 3000 
L 1775 3250 
z
M 2025 3800 
Q 1825 4300 1325 4950 
L 1375 5025 
Q 1925 4575 2175 4300 
Q 2125 4000 2025 3800 
z
" transform="scale(0.015625)"/>
       <path id="FangSong-5b8c" d="M 5375 2050 
Q 4925 2050 3550 1950 
L 3850 1750 
Q 3725 1600 3700 1375 
L 3675 275 
Q 3650 -125 4075 -175 
L 4925 -175 
Q 5300 -150 5312 62 
Q 5325 275 5325 1025 
L 5425 1025 
Q 5450 750 5475 337 
Q 5500 -75 5700 -275 
Q 5400 -375 5000 -400 
L 4075 -400 
Q 3425 -350 3425 150 
L 3475 1450 
Q 3475 1775 3425 1925 
L 2675 1850 
L 2875 1650 
Q 2750 1550 2600 1200 
Q 2450 850 2025 312 
Q 1600 -225 600 -675 
L 550 -575 
Q 1525 -100 1987 625 
Q 2450 1350 2525 1850 
Q 1550 1775 1500 1725 
L 1150 2025 
Q 1625 2025 3212 2150 
Q 4800 2275 5000 2350 
L 5375 2050 
z
M 1650 3650 
Q 1550 3125 1325 2875 
L 1150 3250 
Q 1450 3425 1575 4400 
L 1675 4400 
L 1675 3900 
L 5025 4150 
L 5175 4400 
L 5525 4075 
Q 5375 4050 4725 3250 
L 4650 3325 
L 4975 3900 
L 1650 3650 
z
M 4475 2975 
Q 4225 2975 3412 2875 
Q 2600 2775 2400 2725 
L 2050 2975 
Q 2575 2975 3200 3075 
Q 3825 3175 4150 3225 
L 4475 2975 
z
M 3550 4575 
Q 3475 4350 3300 4150 
Q 3225 4475 2900 5200 
L 2975 5250 
Q 3350 4825 3550 4575 
z
" transform="scale(0.015625)"/>
       <path id="FangSong-6210" d="M 5575 975 
Q 5600 -150 5750 -625 
Q 4650 -225 4000 1075 
Q 3625 650 2975 225 
L 2925 325 
Q 3525 825 3900 1300 
Q 3600 2275 3500 3300 
L 1875 3125 
Q 1875 2625 1825 2100 
L 2725 2250 
L 2875 2475 
L 3175 2225 
L 3000 2050 
Q 2850 475 2575 -125 
Q 2225 400 1825 775 
L 1875 850 
L 2475 400 
Q 2650 875 2750 2000 
L 1825 1850 
Q 1675 250 600 -650 
L 525 -600 
Q 1250 250 1425 987 
Q 1600 1725 1625 2612 
Q 1650 3500 1550 3800 
L 1625 3825 
L 1850 3350 
L 3450 3525 
Q 3400 4150 3375 4562 
Q 3350 4975 3225 5200 
L 3275 5225 
L 3725 4900 
Q 3625 4925 3637 4575 
Q 3650 4225 3675 3550 
Q 4900 3700 5050 3775 
L 5325 3475 
Q 4775 3475 3725 3325 
Q 3775 2425 4075 1525 
Q 4500 2025 4687 2325 
Q 4875 2625 4800 2850 
L 4875 2875 
L 5125 2325 
Q 5075 2400 4850 2125 
Q 4625 1850 4150 1275 
Q 4625 225 5425 -125 
L 5475 975 
L 5575 975 
z
M 4100 5000 
Q 4525 4700 4875 4450 
Q 4825 4250 4750 4025 
Q 4400 4525 4025 4950 
L 4100 5000 
z
" transform="scale(0.015625)"/>
       <path id="FangSong-4f8b" d="M 3050 2000 
Q 3025 1800 2975 1600 
Q 2775 1900 2525 2250 
Q 2300 1875 2025 1550 
L 1925 1625 
Q 2675 2725 2975 3975 
Q 2475 3925 2375 3875 
L 2050 4125 
Q 2375 4125 3162 4225 
Q 3950 4325 4100 4450 
L 4350 4125 
Q 4050 4150 3100 3975 
L 3300 3700 
Q 3200 3675 3125 3525 
Q 3050 3375 2925 3050 
L 3625 3150 
L 3775 3350 
L 4050 3075 
L 3875 2900 
Q 3300 825 1850 -225 
L 1800 -100 
Q 3100 975 3625 2900 
Q 3150 2825 3025 2775 
L 2875 2925 
Q 2775 2675 2575 2350 
Q 2900 2125 3050 2000 
z
M 1275 -150 
Q 1425 25 1400 225 
L 1450 3425 
Q 1025 2800 475 2225 
L 400 2325 
Q 875 2850 1450 3887 
Q 2025 4925 1925 5150 
L 2000 5175 
L 2250 4700 
Q 2200 4725 2062 4475 
Q 1925 4225 1675 3800 
L 1625 -325 
Q 1650 -675 1525 -600 
L 1275 -150 
z
M 5475 250 
Q 5475 -300 5300 -650 
Q 4900 -100 4300 375 
L 4350 475 
L 5200 -75 
Q 5250 250 5250 575 
L 5250 4350 
Q 5275 4950 5100 5150 
L 5175 5225 
L 5600 4850 
Q 5450 4775 5475 4325 
L 5475 250 
z
M 4300 1525 
Q 4400 1650 4400 1900 
L 4400 3075 
Q 4425 3525 4300 3750 
L 4350 3800 
L 4725 3450 
Q 4600 3350 4625 3025 
L 4625 1375 
Q 4625 1050 4550 1125 
L 4300 1525 
z
" transform="scale(0.015625)"/>
      </defs>
      <use xlink:href="#FangSong-7d2f"/>
      <use xlink:href="#FangSong-8ba1" x="100"/>
      <use xlink:href="#FangSong-5b8c" x="200"/>
      <use xlink:href="#FangSong-6210" x="300"/>
      <use xlink:href="#FangSong-6bd4" x="400"/>
      <use xlink:href="#FangSong-4f8b" x="500"/>
     </g>
    </g>
   </g>
   <g id="line2d_13">
    <path d="M 73.832727 295.488 
L 74.160993 295.00416 
L 74.489258 294.2784 
L 74.817524 292.82688 
L 75.474055 285.56928 
L 76.130586 273.7152 
L 76.458851 264.28032 
L 77.771913 238.6368 
L 78.428444 223.39584 
L 80.726302 169.44768 
L 81.054568 165.33504 
L 81.382833 159.77088 
L 82.367629 150.09408 
L 83.02416 141.38496 
L 84.008957 135.8208 
L 84.337222 134.6112 
L 84.665488 134.12736 
L 85.322019 132.192 
L 85.978549 132.192 
L 86.963346 131.46624 
L 88.932939 131.46624 
L 89.261204 131.22432 
L 89.58947 131.22432 
L 89.917735 130.9824 
L 90.902531 130.9824 
L 91.230797 130.74048 
L 92.543859 130.74048 
L 92.872124 130.49856 
L 93.20039 130.01472 
L 93.528655 130.01472 
L 93.856921 129.53088 
L 94.513452 129.53088 
L 94.841717 129.28896 
L 95.169983 129.28896 
L 95.826513 128.80512 
L 96.154779 128.80512 
L 96.483044 128.5632 
L 96.81131 128.5632 
L 97.139575 128.32128 
L 97.796106 128.32128 
L 98.124372 127.83744 
L 99.437434 127.83744 
L 99.765699 127.59552 
L 100.093965 127.11168 
L 100.42223 126.38592 
L 101.407026 125.66016 
L 102.063557 124.69248 
L 102.391823 124.69248 
L 103.048354 124.20864 
L 103.704885 124.20864 
L 104.03315 123.96672 
L 104.361416 123.96672 
L 105.017947 123.48288 
L 105.346212 123.48288 
L 105.674477 123.24096 
L 106.002743 123.24096 
L 106.331008 122.75712 
L 107.315805 122.75712 
L 108.300601 122.03136 
L 108.628867 122.03136 
L 108.957132 121.78944 
L 110.270194 121.78944 
L 110.598459 121.3056 
L 111.25499 120.82176 
L 112.568052 120.82176 
L 112.896318 120.57984 
L 113.552849 120.57984 
L 113.881114 120.096 
L 114.537645 120.096 
L 114.86591 119.85408 
L 115.522441 119.85408 
L 116.835503 118.8864 
L 118.805096 118.8864 
L 119.133362 118.40256 
L 119.789892 118.40256 
L 120.118158 118.16064 
L 121.102954 118.16064 
L 121.759485 117.6768 
L 123.072547 117.6768 
L 123.400813 117.43488 
L 123.729078 117.43488 
L 124.057344 116.70912 
L 124.385609 116.70912 
L 125.04214 116.22528 
L 125.698671 116.22528 
L 126.683467 115.49952 
L 127.339998 115.49952 
L 127.668264 115.2576 
L 128.324795 115.2576 
L 128.65306 115.01568 
L 128.981325 115.01568 
L 129.309591 114.77376 
L 130.950918 114.77376 
L 131.279184 114.53184 
L 132.920511 114.53184 
L 133.248777 114.048 
L 133.905307 113.56416 
L 134.233573 113.08032 
L 134.561838 113.08032 
L 135.218369 112.59648 
L 135.546635 112.11264 
L 136.203166 112.11264 
L 136.531431 111.87072 
L 137.187962 111.87072 
L 137.516228 111.6288 
L 139.48582 111.6288 
L 140.142351 111.14496 
L 140.798882 111.14496 
L 141.127148 110.90304 
L 141.783679 110.90304 
L 142.111944 110.66112 
L 144.738068 110.66112 
L 145.066333 110.4192 
L 146.05113 110.4192 
L 146.707661 109.93536 
L 147.364192 109.93536 
L 147.692457 109.69344 
L 148.020722 109.69344 
L 148.348988 109.45152 
L 149.005519 109.45152 
L 149.333784 108.96768 
L 150.318581 108.96768 
L 150.646846 108.72576 
L 153.27297 108.72576 
L 153.601235 108.24192 
L 154.586032 108.24192 
L 154.914297 108 
L 155.570828 108 
L 156.227359 107.51616 
L 157.540421 107.51616 
L 157.868686 107.27424 
L 159.838279 107.27424 
L 160.166545 107.03232 
L 161.479607 107.03232 
L 161.807872 106.7904 
L 162.464403 106.7904 
L 162.792668 106.54848 
L 163.777465 106.54848 
L 164.10573 106.06464 
L 164.762261 106.06464 
L 165.090527 105.82272 
L 165.747058 105.82272 
L 166.075323 105.5808 
L 167.388385 105.5808 
L 167.71665 105.33888 
L 169.686243 105.33888 
L 170.014509 105.09696 
L 170.67104 105.09696 
L 170.999305 104.85504 
L 172.968898 104.85504 
L 173.297163 104.3712 
L 174.938491 104.3712 
L 175.266756 104.12928 
L 175.595022 104.12928 
L 175.923287 103.88736 
L 176.579818 103.88736 
L 176.908083 103.64544 
L 177.564614 103.64544 
L 177.89288 103.40352 
L 178.877676 103.40352 
L 179.205942 103.1616 
L 180.847269 103.1616 
L 181.175535 102.91968 
L 181.832065 102.91968 
L 182.488596 102.43584 
L 184.129924 102.43584 
L 184.458189 102.19392 
L 185.11472 102.19392 
L 185.442986 101.952 
L 186.756047 101.952 
L 187.084313 101.71008 
L 187.412578 101.71008 
L 187.740844 101.46816 
L 188.397375 101.46816 
L 188.72564 101.22624 
L 189.053906 101.22624 
L 189.382171 100.98432 
L 190.695233 100.98432 
L 191.023498 100.7424 
L 192.993091 100.7424 
L 193.321357 100.50048 
L 194.962684 100.50048 
L 195.29095 100.25856 
L 195.94748 100.25856 
L 196.275746 100.01664 
L 196.604011 100.01664 
L 196.932277 99.77472 
L 198.245339 99.77472 
L 198.573604 99.5328 
L 201.199728 99.5328 
L 201.527993 99.29088 
L 202.184524 99.29088 
L 202.841055 98.80704 
L 203.825852 98.80704 
L 204.154117 98.56512 
L 205.467179 98.56512 
L 205.795444 98.3232 
L 207.108506 98.3232 
L 207.436772 98.08128 
L 207.765037 98.08128 
L 208.093303 97.83936 
L 209.078099 97.83936 
L 209.406365 97.59744 
L 211.375957 97.59744 
L 211.704223 97.35552 
L 212.689019 97.35552 
L 213.017285 97.1136 
L 214.002081 97.1136 
L 214.658612 96.62976 
L 215.643408 96.62976 
L 215.971674 96.38784 
L 217.284736 96.38784 
L 217.613001 96.14592 
L 218.269532 96.14592 
L 218.597798 95.904 
L 220.239125 95.904 
L 220.56739 95.66208 
L 221.223921 95.66208 
L 221.552187 95.42016 
L 222.865249 95.42016 
L 223.193514 95.17824 
L 225.163107 95.17824 
L 225.491372 94.93632 
L 225.819638 94.93632 
L 226.147903 94.6944 
L 226.804434 94.6944 
L 227.1327 94.45248 
L 227.789231 94.45248 
L 228.117496 94.21056 
L 231.400151 94.21056 
L 231.728416 93.96864 
L 232.384947 93.96864 
L 232.713213 93.72672 
L 233.369744 93.72672 
L 234.026274 93.24288 
L 235.339336 93.24288 
L 235.667602 93.00096 
L 237.308929 93.00096 
L 237.637195 92.75904 
L 237.96546 92.75904 
L 238.293726 92.51712 
L 238.621991 92.51712 
L 238.950256 92.2752 
L 240.919849 92.2752 
L 242.232911 91.30752 
L 244.202504 91.30752 
L 244.530769 91.0656 
L 246.172097 91.0656 
L 246.500362 90.58176 
L 249.126486 90.58176 
L 249.454751 90.33984 
L 251.75261 90.33984 
L 252.080875 90.09792 
L 252.737406 90.09792 
L 253.065671 89.61408 
L 253.393937 89.37216 
L 255.035264 89.37216 
L 255.36353 89.13024 
L 257.004857 89.13024 
L 257.333123 88.88832 
L 258.646184 88.88832 
L 258.97445 88.6464 
L 260.287512 88.6464 
L 260.615777 88.40448 
L 261.600574 88.40448 
L 262.257105 87.92064 
L 263.898432 87.92064 
L 264.226697 87.67872 
L 264.883228 87.67872 
L 265.211494 87.4368 
L 267.837617 87.4368 
L 268.165883 87.19488 
L 270.463741 87.19488 
L 271.120272 86.71104 
L 271.776803 86.71104 
L 272.105068 86.46912 
L 274.074661 86.46912 
L 274.402927 86.2272 
L 275.387723 86.2272 
L 275.715989 85.98528 
L 278.342112 85.98528 
L 278.998643 85.50144 
L 282.281298 85.50144 
L 282.937829 85.0176 
L 285.563953 85.0176 
L 285.892218 84.77568 
L 286.548749 84.77568 
L 286.877014 84.53376 
L 287.861811 84.53376 
L 288.518342 84.04992 
L 289.174873 84.04992 
L 289.831404 83.56608 
L 293.114058 83.56608 
L 293.770589 83.08224 
L 294.42712 83.08224 
L 294.755386 82.84032 
L 296.724978 82.84032 
L 297.053244 82.5984 
L 298.366306 82.5984 
L 299.022837 82.11456 
L 300.335899 82.11456 
L 300.664164 81.87264 
L 301.977226 81.87264 
L 302.305491 81.63072 
L 304.275084 81.63072 
L 304.60335 81.3888 
L 305.259881 81.3888 
L 305.588146 81.14688 
L 308.21427 81.14688 
L 308.542535 80.90496 
L 310.840393 80.90496 
L 311.168659 80.66304 
L 312.153455 80.66304 
L 312.481721 80.42112 
L 314.123048 80.42112 
L 314.451314 80.1792 
L 314.779579 80.1792 
L 315.107844 79.69536 
L 316.749172 79.69536 
L 317.077437 79.45344 
L 317.405703 79.45344 
L 317.733968 78.72768 
L 318.390499 78.72768 
L 318.718765 78.48576 
L 319.375296 78.48576 
L 320.031826 78.00192 
L 321.016623 78.00192 
L 321.344888 77.76 
L 322.329685 77.76 
L 322.65795 77.51808 
L 323.314481 77.51808 
L 323.971012 77.03424 
L 324.299278 77.03424 
L 324.627543 76.79232 
L 325.940605 76.79232 
L 326.925401 76.06656 
L 327.581932 76.06656 
L 327.910198 75.82464 
L 329.551525 75.82464 
L 329.87979 75.3408 
L 330.208056 75.3408 
L 330.536321 75.09888 
L 331.521118 75.09888 
L 332.177649 74.61504 
L 332.505914 74.61504 
L 332.83418 74.37312 
L 333.490711 74.37312 
L 333.818976 74.1312 
L 334.475507 74.1312 
L 334.803772 73.88928 
L 335.132038 73.88928 
L 335.460303 73.64736 
L 336.4451 73.64736 
L 336.773365 73.16352 
L 337.429896 72.67968 
L 338.414693 72.67968 
L 338.742958 72.19584 
L 339.071223 71.95392 
L 339.399489 71.95392 
L 339.727754 71.712 
L 340.712551 71.712 
L 341.040816 71.22816 
L 341.369082 71.22816 
L 342.025613 70.74432 
L 342.682144 70.74432 
L 343.010409 70.5024 
L 343.66694 70.5024 
L 343.995205 70.26048 
L 345.308267 70.26048 
L 345.636533 70.01856 
L 345.964798 70.01856 
L 346.293064 69.77664 
L 347.606126 69.77664 
L 347.934391 69.2928 
L 348.590922 69.2928 
L 349.575718 68.56704 
L 350.232249 68.56704 
L 350.560515 68.32512 
L 351.217046 68.32512 
L 351.545311 68.0832 
L 352.201842 68.0832 
L 352.858373 67.59936 
L 353.514904 67.59936 
L 353.843169 67.35744 
L 354.827966 67.35744 
L 355.156231 66.8736 
L 356.469293 66.8736 
L 357.125824 66.38976 
L 357.782355 66.38976 
L 358.767151 65.664 
L 359.423682 65.664 
L 360.080213 65.18016 
L 361.06501 65.18016 
L 361.393275 64.69632 
L 362.378072 64.69632 
L 363.034602 64.21248 
L 363.691133 64.21248 
L 364.019399 63.72864 
L 364.347664 63.72864 
L 365.004195 63.2448 
L 365.988992 63.2448 
L 366.317257 63.00288 
L 366.645523 63.00288 
L 366.973788 62.76096 
L 367.302053 62.76096 
L 367.630319 62.51904 
L 368.615115 62.51904 
L 368.943381 62.27712 
L 369.599912 62.27712 
L 370.256443 61.79328 
L 370.584708 61.79328 
L 371.241239 61.30944 
L 371.89777 61.30944 
L 372.554301 60.8256 
L 373.210832 60.8256 
L 373.539097 60.58368 
L 373.867363 60.58368 
L 374.195628 60.34176 
L 374.852159 60.34176 
L 375.180425 60.09984 
L 376.493487 60.09984 
L 376.821752 59.85792 
L 379.11961 59.85792 
L 379.447876 59.616 
L 379.776141 59.616 
L 380.104407 59.37408 
L 380.760938 59.37408 
L 381.089203 59.13216 
L 381.745734 59.13216 
L 382.402265 58.64832 
L 383.715327 58.64832 
L 384.371858 58.16448 
L 384.700123 58.16448 
L 385.028389 57.68064 
L 386.013185 57.68064 
L 386.341451 57.43872 
L 386.997981 57.43872 
L 387.326247 57.1968 
L 387.654512 57.1968 
L 388.311043 56.71296 
L 389.624105 56.71296 
L 389.952371 56.47104 
L 390.280636 55.9872 
L 391.593698 55.9872 
L 391.921963 55.74528 
L 392.250229 55.74528 
L 392.578494 55.50336 
L 392.90676 55.50336 
L 393.563291 55.01952 
L 393.891556 54.53568 
L 394.219822 54.53568 
L 395.204618 53.80992 
L 396.189414 53.80992 
L 396.51768 53.568 
L 398.487273 53.568 
L 398.487273 53.568 
" clip-path="url(#p4a01203009)" style="fill: none; stroke: #ff0000; stroke-width: 0.5; stroke-linecap: square"/>
   </g>
   <g id="line2d_14">
    <path d="M 73.832727 295.488 
L 74.160993 287.98848 
L 74.817524 279.27936 
L 76.130586 250.97472 
L 76.787116 239.12064 
L 78.428444 209.36448 
L 79.084975 201.62304 
L 79.41324 195.33312 
L 79.741506 191.94624 
L 80.726302 177.43104 
L 82.039364 161.70624 
L 82.367629 158.31936 
L 82.695895 153.23904 
L 83.02416 151.06176 
L 84.008957 139.69152 
L 84.337222 138.24 
L 85.322019 130.9824 
L 85.978549 126.86976 
L 86.63508 123.48288 
L 87.291611 120.096 
L 87.619877 119.12832 
L 88.276408 116.70912 
L 89.261204 113.56416 
L 89.917735 109.93536 
L 90.246001 109.45152 
L 90.574266 108.72576 
L 91.230797 103.88736 
L 91.887328 102.19392 
L 92.215593 101.71008 
L 92.543859 100.50048 
L 92.872124 98.3232 
L 93.20039 97.35552 
L 93.856921 94.6944 
L 94.185186 94.21056 
L 94.841717 91.79136 
L 95.169983 91.54944 
L 95.498248 90.58176 
L 95.826513 87.67872 
L 96.154779 87.19488 
L 96.81131 84.04992 
L 97.467841 82.35648 
L 97.796106 82.35648 
L 98.452637 81.87264 
L 98.780903 81.87264 
L 99.109168 81.3888 
L 99.437434 81.14688 
L 99.765699 81.14688 
L 100.093965 80.90496 
L 100.42223 80.90496 
L 100.750495 80.42112 
L 101.078761 80.1792 
L 101.407026 80.1792 
L 101.735292 79.69536 
L 103.704885 78.24384 
L 104.361416 77.27616 
L 104.689681 77.03424 
L 105.017947 77.03424 
L 105.346212 76.79232 
L 106.002743 75.3408 
L 106.331008 75.09888 
L 107.972336 71.22816 
L 108.628867 68.80896 
L 108.957132 68.32512 
L 109.285398 67.35744 
L 109.613663 67.11552 
L 110.598459 64.93824 
L 110.926725 64.69632 
L 111.911521 62.51904 
L 112.239787 62.51904 
L 112.568052 61.55136 
L 113.881114 61.55136 
L 114.20938 61.30944 
L 114.86591 61.30944 
L 115.194176 61.06752 
L 115.522441 61.06752 
L 115.850707 60.8256 
L 117.8203 60.8256 
L 118.148565 60.58368 
L 120.774689 60.58368 
L 121.43122 60.09984 
L 122.087751 60.09984 
L 122.416016 59.85792 
L 124.385609 59.85792 
L 124.713874 59.616 
L 125.04214 59.616 
L 125.370405 59.37408 
L 126.026936 59.37408 
L 126.355202 59.13216 
L 128.65306 59.13216 
L 128.981325 58.89024 
L 130.950918 58.89024 
L 131.279184 58.64832 
L 134.233573 58.64832 
L 134.561838 58.4064 
L 134.890104 58.4064 
L 135.218369 58.16448 
L 140.470617 58.16448 
L 140.798882 57.68064 
L 141.783679 57.68064 
L 142.44021 57.1968 
L 148.020722 57.1968 
L 148.348988 56.95488 
L 148.677253 56.95488 
L 149.66205 56.22912 
L 150.646846 56.22912 
L 150.975112 55.9872 
L 151.303377 55.9872 
L 151.631643 55.74528 
L 151.959908 55.74528 
L 152.288174 55.50336 
L 153.929501 55.50336 
L 154.257766 55.26144 
L 154.914297 55.26144 
L 155.242563 55.01952 
L 155.899094 55.01952 
L 156.227359 54.7776 
L 157.540421 54.7776 
L 157.868686 54.53568 
L 161.807872 54.53568 
L 162.136138 54.29376 
L 163.777465 54.29376 
L 164.10573 54.05184 
L 164.433996 54.05184 
L 164.762261 53.80992 
L 174.938491 53.80992 
L 175.266756 53.568 
L 398.487273 53.568 
L 398.487273 53.568 
" clip-path="url(#p4a01203009)" style="fill: none; stroke-dasharray: 1.85,0.8; stroke-dashoffset: 0; stroke: #008000; stroke-width: 0.5"/>
   </g>
   <g id="line2d_15">
    <path d="M 73.832727 295.488 
L 74.160993 289.68192 
L 74.489258 281.21472 
L 74.817524 276.37632 
L 75.474055 261.6192 
L 76.458851 247.104 
L 76.787116 243.71712 
L 78.756709 231.3792 
L 79.084975 229.92768 
L 79.41324 227.26656 
L 79.741506 226.05696 
L 80.069771 224.36352 
L 81.054568 217.58976 
L 82.039364 211.78368 
L 82.695895 209.6064 
L 83.02416 208.63872 
L 83.352426 206.70336 
L 83.680691 204.04224 
L 84.008957 203.07456 
L 84.337222 201.62304 
L 85.322019 199.20384 
L 85.650284 195.81696 
L 85.978549 194.60736 
L 87.291611 188.31744 
L 88.276408 185.17248 
L 88.604673 183.96288 
L 89.261204 179.3664 
L 89.58947 178.1568 
L 90.246001 174.28608 
L 90.574266 174.04416 
L 91.230797 171.38304 
L 91.559062 171.14112 
L 91.887328 170.17344 
L 92.215593 167.99616 
L 92.872124 166.30272 
L 93.20039 163.6416 
L 93.528655 163.39968 
L 93.856921 162.67392 
L 95.826513 153.72288 
L 96.154779 151.78752 
L 96.483044 149.1264 
L 96.81131 147.9168 
L 97.139575 145.98144 
L 97.467841 143.0784 
L 98.780903 136.30464 
L 99.109168 135.57888 
L 99.437434 134.36928 
L 100.093965 131.22432 
L 100.750495 128.80512 
L 101.407026 127.11168 
L 101.735292 126.144 
L 102.063557 125.66016 
L 102.391823 124.45056 
L 102.720088 123.7248 
L 103.048354 122.5152 
L 103.376619 122.03136 
L 103.704885 120.57984 
L 104.03315 120.33792 
L 104.361416 119.61216 
L 104.689681 119.37024 
L 105.017947 118.8864 
L 105.674477 118.40256 
L 106.002743 117.91872 
L 106.331008 117.6768 
L 106.659274 117.6768 
L 106.987539 117.43488 
L 107.315805 117.43488 
L 107.64407 116.95104 
L 107.972336 115.98336 
L 108.628867 115.49952 
L 109.285398 115.49952 
L 109.613663 115.2576 
L 109.941928 115.2576 
L 110.270194 115.01568 
L 110.598459 115.01568 
L 111.25499 114.53184 
L 111.583256 114.048 
L 112.239787 113.56416 
L 112.568052 113.56416 
L 112.896318 113.08032 
L 113.552849 111.87072 
L 115.194176 110.66112 
L 115.522441 110.66112 
L 115.850707 110.17728 
L 116.178972 109.93536 
L 116.507238 109.45152 
L 117.163769 109.45152 
L 117.8203 108.96768 
L 118.476831 108.96768 
L 118.805096 108.24192 
L 119.461627 108.24192 
L 119.789892 107.75808 
L 120.118158 107.75808 
L 120.446423 107.51616 
L 120.774689 107.51616 
L 121.102954 107.27424 
L 122.087751 107.27424 
L 123.072547 106.54848 
L 123.400813 106.54848 
L 123.729078 106.30656 
L 124.385609 106.30656 
L 124.713874 106.06464 
L 125.04214 105.5808 
L 125.698671 105.5808 
L 126.683467 104.85504 
L 127.011733 104.3712 
L 127.339998 104.12928 
L 128.65306 104.12928 
L 128.981325 103.88736 
L 129.309591 103.88736 
L 129.966122 103.40352 
L 130.294387 103.40352 
L 130.622653 103.1616 
L 130.950918 103.1616 
L 131.279184 102.67776 
L 131.607449 102.67776 
L 132.26398 102.19392 
L 132.592246 102.19392 
L 132.920511 100.98432 
L 133.248777 100.25856 
L 133.905307 99.77472 
L 134.561838 99.77472 
L 135.546635 99.04896 
L 135.8749 99.04896 
L 136.203166 98.80704 
L 136.531431 98.3232 
L 136.859697 98.08128 
L 137.187962 97.59744 
L 137.516228 97.35552 
L 137.844493 96.62976 
L 138.501024 96.14592 
L 139.814086 96.14592 
L 140.142351 95.66208 
L 140.798882 95.66208 
L 141.127148 95.42016 
L 141.455413 95.42016 
L 141.783679 95.17824 
L 142.44021 95.17824 
L 143.096741 94.6944 
L 143.425006 94.6944 
L 144.738068 93.72672 
L 145.394599 93.72672 
L 145.722864 93.4848 
L 147.364192 93.4848 
L 147.692457 93.24288 
L 149.333784 93.24288 
L 149.66205 93.00096 
L 150.646846 93.00096 
L 150.975112 92.75904 
L 152.944704 92.75904 
L 153.27297 92.51712 
L 153.929501 92.51712 
L 154.257766 92.2752 
L 155.899094 92.2752 
L 156.227359 92.03328 
L 159.181748 92.03328 
L 160.166545 91.30752 
L 160.823076 91.30752 
L 161.151341 91.0656 
L 162.792668 91.0656 
L 163.120934 90.58176 
L 164.433996 90.58176 
L 164.762261 90.33984 
L 165.418792 90.33984 
L 166.075323 89.856 
L 166.731854 89.856 
L 167.060119 89.61408 
L 167.71665 89.61408 
L 168.044916 89.37216 
L 169.029712 89.37216 
L 169.357978 89.13024 
L 171.327571 89.13024 
L 171.655836 88.88832 
L 172.968898 88.88832 
L 173.297163 88.6464 
L 173.625429 88.6464 
L 174.28196 88.16256 
L 174.610225 87.4368 
L 175.595022 87.4368 
L 175.923287 87.19488 
L 178.221145 87.19488 
L 178.549411 86.71104 
L 178.877676 86.71104 
L 179.205942 86.46912 
L 183.145127 86.46912 
L 183.473393 86.2272 
L 184.129924 85.25952 
L 184.458189 85.0176 
L 186.427782 85.0176 
L 186.756047 84.77568 
L 187.412578 84.77568 
L 187.740844 84.53376 
L 188.397375 84.53376 
L 188.72564 84.29184 
L 189.053906 84.29184 
L 189.710437 83.808 
L 190.366968 83.808 
L 190.695233 83.32416 
L 191.351764 83.32416 
L 191.680029 83.08224 
L 192.008295 83.08224 
L 192.33656 82.84032 
L 192.664826 82.84032 
L 192.993091 82.5984 
L 193.649622 82.5984 
L 193.977888 81.63072 
L 194.634419 81.63072 
L 195.619215 80.90496 
L 196.275746 80.90496 
L 196.932277 80.42112 
L 197.588808 80.42112 
L 197.917073 80.1792 
L 198.245339 79.69536 
L 198.573604 79.69536 
L 198.90187 79.21152 
L 199.558401 78.72768 
L 199.886666 78.72768 
L 200.214932 78.48576 
L 200.543197 78.48576 
L 201.199728 78.00192 
L 201.527993 77.27616 
L 201.856259 77.27616 
L 202.184524 76.79232 
L 202.841055 76.30848 
L 203.497586 76.30848 
L 203.825852 76.06656 
L 204.154117 76.06656 
L 204.482383 75.82464 
L 204.810648 75.82464 
L 205.795444 75.09888 
L 206.12371 75.09888 
L 206.451975 74.85696 
L 206.780241 74.85696 
L 207.108506 74.61504 
L 207.436772 74.61504 
L 207.765037 73.40544 
L 208.421568 73.40544 
L 208.749834 73.16352 
L 209.406365 73.16352 
L 210.062895 72.67968 
L 211.375957 72.67968 
L 211.704223 72.19584 
L 212.360754 71.712 
L 212.689019 71.22816 
L 214.002081 71.22816 
L 214.330347 70.98624 
L 214.658612 70.98624 
L 214.986877 70.74432 
L 215.315143 70.74432 
L 215.643408 70.5024 
L 215.971674 70.5024 
L 216.299939 70.26048 
L 216.628205 70.26048 
L 217.284736 69.77664 
L 217.613001 69.77664 
L 217.941267 69.53472 
L 220.56739 69.53472 
L 220.895656 69.2928 
L 221.223921 69.2928 
L 221.880452 68.0832 
L 222.208718 67.84128 
L 222.865249 67.84128 
L 223.193514 67.35744 
L 224.178311 67.35744 
L 225.491372 66.38976 
L 225.819638 65.664 
L 226.804434 65.664 
L 227.1327 65.42208 
L 227.460965 65.42208 
L 227.789231 65.18016 
L 229.102292 65.18016 
L 229.430558 64.93824 
L 230.415354 64.93824 
L 230.74362 64.69632 
L 231.728416 64.69632 
L 232.384947 64.21248 
L 232.713213 63.72864 
L 233.041478 63.48672 
L 233.369744 63.48672 
L 233.698009 63.2448 
L 235.011071 63.2448 
L 235.995867 62.51904 
L 236.652398 62.51904 
L 237.637195 61.79328 
L 238.621991 61.79328 
L 238.950256 61.55136 
L 239.278522 61.55136 
L 239.606787 61.30944 
L 240.591584 61.30944 
L 241.248115 60.8256 
L 241.904646 60.8256 
L 242.232911 60.34176 
L 243.545973 60.34176 
L 244.530769 59.616 
L 244.859035 59.616 
L 245.1873 59.13216 
L 245.515566 58.89024 
L 247.485159 58.89024 
L 247.813424 58.64832 
L 248.469955 58.64832 
L 248.79822 58.4064 
L 249.454751 58.4064 
L 249.783017 58.16448 
L 250.439548 58.16448 
L 250.767813 57.68064 
L 251.096079 57.68064 
L 251.75261 57.1968 
L 252.080875 57.1968 
L 252.409141 56.95488 
L 256.348326 56.95488 
L 256.676592 56.71296 
L 259.302715 56.71296 
L 259.630981 56.47104 
L 261.600574 56.47104 
L 261.928839 56.22912 
L 262.913635 56.22912 
L 263.241901 55.9872 
L 263.898432 55.9872 
L 264.226697 55.74528 
L 266.524556 55.74528 
L 267.181086 55.26144 
L 267.837617 55.26144 
L 268.165883 55.01952 
L 269.150679 55.01952 
L 269.478945 54.7776 
L 269.80721 54.7776 
L 270.135476 54.53568 
L 271.448538 54.53568 
L 271.776803 54.29376 
L 274.074661 54.29376 
L 274.402927 54.05184 
L 279.326909 54.05184 
L 279.655174 53.80992 
L 283.59436 53.80992 
L 283.922625 53.568 
L 398.487273 53.568 
L 398.487273 53.568 
" clip-path="url(#p4a01203009)" style="fill: none; stroke-dasharray: 1.85,0.8; stroke-dashoffset: 0; stroke: #0000ff; stroke-width: 0.5"/>
   </g>
   <g id="line2d_16">
    <path d="M 73.832727 295.488 
L 74.489258 295.488 
L 74.817524 293.31072 
L 75.474055 286.77888 
L 76.130586 273.95712 
L 77.115382 251.70048 
L 78.100178 223.87968 
L 78.756709 209.84832 
L 79.741506 187.8336 
L 80.398037 173.56032 
L 81.054568 164.60928 
L 82.695895 139.69152 
L 83.680691 134.12736 
L 84.008957 133.15968 
L 84.337222 132.67584 
L 84.665488 131.70816 
L 84.993753 131.46624 
L 85.322019 131.46624 
L 85.650284 130.9824 
L 86.306815 130.9824 
L 86.63508 130.74048 
L 88.276408 130.74048 
L 88.604673 130.25664 
L 88.932939 130.01472 
L 89.917735 130.01472 
L 90.246001 129.53088 
L 91.230797 129.53088 
L 91.559062 129.04704 
L 93.856921 129.04704 
L 94.185186 128.80512 
L 96.81131 128.80512 
L 97.139575 128.07936 
L 97.467841 127.83744 
L 98.124372 127.83744 
L 98.452637 127.59552 
L 100.42223 127.59552 
L 100.750495 127.3536 
L 101.407026 127.3536 
L 101.735292 127.11168 
L 102.063557 127.11168 
L 102.391823 126.86976 
L 103.704885 126.86976 
L 104.03315 126.62784 
L 104.689681 126.62784 
L 105.017947 126.38592 
L 105.346212 125.66016 
L 106.331008 125.66016 
L 106.659274 125.41824 
L 107.972336 125.41824 
L 109.285398 124.45056 
L 109.613663 124.45056 
L 110.270194 123.96672 
L 111.25499 123.96672 
L 112.239787 123.24096 
L 113.224583 123.24096 
L 114.20938 122.5152 
L 114.537645 122.5152 
L 115.850707 121.54752 
L 116.178972 121.54752 
L 116.507238 121.3056 
L 116.835503 121.3056 
L 117.163769 121.06368 
L 117.492034 121.06368 
L 117.8203 120.57984 
L 118.148565 120.33792 
L 120.774689 120.33792 
L 121.102954 119.85408 
L 121.43122 119.61216 
L 122.087751 119.61216 
L 122.744282 119.12832 
L 123.072547 119.12832 
L 123.400813 118.8864 
L 124.057344 118.8864 
L 124.385609 118.64448 
L 126.683467 118.64448 
L 127.011733 118.40256 
L 127.668264 118.40256 
L 127.996529 118.16064 
L 129.309591 118.16064 
L 129.637856 117.91872 
L 131.935715 117.91872 
L 132.26398 117.6768 
L 132.920511 117.6768 
L 133.248777 117.43488 
L 133.577042 117.43488 
L 134.890104 116.4672 
L 135.8749 116.4672 
L 136.203166 116.22528 
L 137.187962 116.22528 
L 137.516228 115.98336 
L 137.844493 115.98336 
L 138.172759 115.74144 
L 138.829289 115.74144 
L 139.157555 115.49952 
L 139.48582 115.49952 
L 139.814086 115.2576 
L 140.142351 115.2576 
L 140.798882 114.77376 
L 141.455413 114.77376 
L 141.783679 114.53184 
L 143.096741 114.53184 
L 143.425006 114.28992 
L 143.753271 114.28992 
L 144.081537 113.80608 
L 144.409802 113.56416 
L 144.738068 113.56416 
L 145.066333 113.32224 
L 145.394599 112.59648 
L 145.722864 112.35456 
L 146.379395 112.35456 
L 146.707661 111.87072 
L 147.692457 111.87072 
L 148.020722 111.6288 
L 149.333784 111.6288 
L 149.66205 111.38688 
L 151.631643 111.38688 
L 151.959908 111.14496 
L 152.616439 111.14496 
L 152.944704 110.90304 
L 153.929501 110.90304 
L 154.257766 110.66112 
L 157.212156 110.66112 
L 157.540421 110.4192 
L 159.181748 110.4192 
L 159.510014 110.17728 
L 159.838279 110.17728 
L 160.166545 109.93536 
L 160.823076 109.93536 
L 161.479607 109.45152 
L 162.136138 109.45152 
L 162.464403 109.2096 
L 164.10573 109.2096 
L 164.433996 108.96768 
L 165.418792 108.96768 
L 166.075323 108.48384 
L 167.388385 108.48384 
L 168.044916 108 
L 168.701447 108 
L 169.029712 107.75808 
L 169.357978 107.75808 
L 169.686243 107.51616 
L 172.312367 107.51616 
L 172.640632 107.27424 
L 173.953694 107.27424 
L 174.28196 106.7904 
L 175.923287 106.7904 
L 176.251553 106.54848 
L 177.236349 106.54848 
L 177.89288 106.06464 
L 178.549411 106.06464 
L 178.877676 105.82272 
L 180.519004 105.82272 
L 180.847269 105.5808 
L 182.160331 105.5808 
L 182.488596 105.33888 
L 183.145127 105.33888 
L 183.473393 105.09696 
L 184.129924 105.09696 
L 184.458189 104.85504 
L 185.11472 104.85504 
L 185.442986 104.61312 
L 186.427782 104.61312 
L 186.756047 104.3712 
L 187.740844 104.3712 
L 188.069109 104.12928 
L 189.382171 104.12928 
L 189.710437 103.88736 
L 190.038702 103.88736 
L 190.366968 103.64544 
L 191.023498 103.64544 
L 191.351764 103.40352 
L 192.33656 103.40352 
L 192.664826 103.1616 
L 193.321357 103.1616 
L 193.649622 102.91968 
L 195.619215 102.91968 
L 195.94748 102.67776 
L 197.588808 102.67776 
L 197.917073 102.43584 
L 198.573604 102.43584 
L 198.90187 102.19392 
L 199.558401 102.19392 
L 199.886666 101.952 
L 200.214932 101.952 
L 200.543197 101.71008 
L 202.841055 101.71008 
L 203.169321 101.46816 
L 203.825852 101.46816 
L 204.154117 101.22624 
L 205.795444 101.22624 
L 206.12371 100.7424 
L 207.765037 100.7424 
L 208.093303 100.50048 
L 209.406365 100.50048 
L 209.73463 100.25856 
L 212.032488 100.25856 
L 212.689019 99.77472 
L 214.002081 99.77472 
L 214.330347 99.5328 
L 214.986877 99.5328 
L 215.315143 99.29088 
L 217.284736 99.29088 
L 217.613001 99.04896 
L 217.941267 99.04896 
L 218.269532 98.80704 
L 219.254329 98.80704 
L 219.582594 98.56512 
L 221.880452 98.56512 
L 222.208718 98.3232 
L 224.178311 98.3232 
L 224.506576 98.08128 
L 225.163107 98.08128 
L 225.819638 97.59744 
L 226.804434 97.59744 
L 227.1327 97.35552 
L 228.774027 97.35552 
L 229.102292 97.1136 
L 230.087089 97.1136 
L 230.415354 96.62976 
L 230.74362 96.38784 
L 231.400151 96.38784 
L 231.728416 96.14592 
L 232.056682 96.14592 
L 232.713213 95.66208 
L 234.026274 95.66208 
L 234.35454 95.42016 
L 234.682805 95.42016 
L 235.011071 95.17824 
L 236.980664 95.17824 
L 237.308929 94.93632 
L 238.293726 94.93632 
L 238.621991 94.6944 
L 240.263318 94.6944 
L 240.591584 94.45248 
L 242.232911 94.45248 
L 242.561177 94.21056 
L 243.874238 94.21056 
L 244.202504 93.96864 
L 245.843831 93.96864 
L 246.172097 93.72672 
L 246.828628 93.72672 
L 247.485159 93.24288 
L 248.141689 93.24288 
L 248.469955 93.00096 
L 249.454751 93.00096 
L 249.783017 92.75904 
L 251.75261 92.75904 
L 252.737406 92.03328 
L 253.393937 92.03328 
L 253.722202 91.79136 
L 255.691795 91.79136 
L 256.020061 91.30752 
L 257.004857 91.30752 
L 257.333123 91.0656 
L 257.989653 91.0656 
L 258.317919 90.82368 
L 259.959246 90.82368 
L 260.287512 90.58176 
L 262.257105 90.58176 
L 262.913635 90.09792 
L 263.570166 90.09792 
L 263.898432 89.856 
L 265.539759 89.856 
L 265.868025 89.61408 
L 266.852821 89.61408 
L 267.181086 89.37216 
L 269.150679 89.37216 
L 269.478945 89.13024 
L 271.448538 89.13024 
L 272.105068 88.6464 
L 272.433334 88.6464 
L 272.761599 88.40448 
L 273.746396 88.40448 
L 274.074661 88.16256 
L 276.044254 88.16256 
L 276.37252 87.92064 
L 278.670378 87.92064 
L 278.998643 87.67872 
L 279.326909 87.67872 
L 279.655174 87.4368 
L 281.624767 87.4368 
L 281.953032 87.19488 
L 282.281298 87.19488 
L 282.609563 86.95296 
L 283.266094 86.95296 
L 283.59436 86.71104 
L 285.235687 86.71104 
L 285.563953 86.46912 
L 287.20528 86.46912 
L 287.533545 86.2272 
L 288.190076 86.2272 
L 288.518342 85.98528 
L 289.503138 85.98528 
L 289.831404 85.74336 
L 292.457527 85.74336 
L 292.785793 85.50144 
L 293.114058 85.50144 
L 293.442324 85.25952 
L 295.083651 85.25952 
L 295.740182 84.77568 
L 297.709775 84.77568 
L 298.366306 84.29184 
L 298.694571 83.808 
L 299.679368 83.808 
L 300.007633 83.56608 
L 302.962022 83.56608 
L 303.618553 83.08224 
L 305.259881 83.08224 
L 305.588146 82.84032 
L 307.557739 82.84032 
L 308.542535 82.11456 
L 310.512128 82.11456 
L 310.840393 81.87264 
L 311.82519 81.87264 
L 312.153455 81.63072 
L 312.809986 81.63072 
L 313.138252 81.3888 
L 313.466517 81.3888 
L 313.794783 81.14688 
L 316.749172 81.14688 
L 317.405703 80.66304 
L 318.718765 80.66304 
L 319.04703 80.42112 
L 319.375296 80.42112 
L 320.031826 79.93728 
L 320.688357 79.93728 
L 321.673154 79.21152 
L 322.329685 79.21152 
L 322.65795 78.9696 
L 322.986216 78.9696 
L 323.314481 78.72768 
L 323.642747 78.72768 
L 323.971012 78.48576 
L 324.299278 78.48576 
L 324.627543 78.24384 
L 324.955808 78.24384 
L 325.284074 78.00192 
L 325.612339 78.00192 
L 326.26887 77.51808 
L 326.597136 77.51808 
L 326.925401 77.27616 
L 327.581932 77.27616 
L 328.566729 76.5504 
L 329.223259 76.5504 
L 329.551525 76.30848 
L 331.192852 76.30848 
L 331.849383 75.82464 
L 332.83418 75.82464 
L 333.162445 75.58272 
L 333.818976 75.58272 
L 334.147241 75.3408 
L 334.475507 75.3408 
L 335.132038 74.85696 
L 336.4451 74.85696 
L 336.773365 74.61504 
L 337.758162 74.61504 
L 338.414693 73.64736 
L 339.727754 73.64736 
L 340.05602 73.40544 
L 340.384285 73.40544 
L 340.712551 72.9216 
L 341.369082 72.9216 
L 341.697347 72.67968 
L 342.353878 72.67968 
L 343.338675 71.95392 
L 344.651736 71.95392 
L 345.636533 71.22816 
L 347.27786 71.22816 
L 347.606126 70.74432 
L 348.919187 70.74432 
L 349.575718 70.26048 
L 349.903984 70.26048 
L 350.232249 70.01856 
L 351.873577 70.01856 
L 352.201842 69.77664 
L 352.858373 69.77664 
L 353.843169 69.05088 
L 354.171435 69.05088 
L 354.4997 68.80896 
L 354.827966 68.80896 
L 355.156231 68.56704 
L 356.141028 68.56704 
L 356.469293 68.0832 
L 358.11062 68.0832 
L 359.095417 67.35744 
L 359.423682 67.35744 
L 360.080213 66.8736 
L 360.408479 66.8736 
L 361.06501 66.38976 
L 362.378072 66.38976 
L 362.706337 66.14784 
L 363.362868 66.14784 
L 363.691133 65.664 
L 364.67593 64.93824 
L 365.332461 64.93824 
L 365.660726 64.69632 
L 365.988992 64.69632 
L 366.317257 64.21248 
L 367.302053 64.21248 
L 367.630319 63.97056 
L 367.958584 63.97056 
L 368.28685 63.48672 
L 368.943381 63.48672 
L 369.271646 63.00288 
L 369.928177 63.00288 
L 370.256443 62.76096 
L 370.912974 62.76096 
L 371.569505 62.27712 
L 371.89777 62.27712 
L 372.226035 62.0352 
L 373.210832 62.0352 
L 373.867363 61.55136 
L 374.852159 61.55136 
L 375.836956 60.8256 
L 376.493487 60.8256 
L 376.821752 60.58368 
L 377.478283 60.58368 
L 377.806548 60.34176 
L 379.11961 60.34176 
L 379.447876 60.09984 
L 380.760938 60.09984 
L 381.089203 59.616 
L 381.417469 59.616 
L 382.073999 59.13216 
L 382.402265 59.13216 
L 382.73053 58.89024 
L 383.715327 58.89024 
L 384.043592 58.64832 
L 384.700123 58.64832 
L 385.028389 58.4064 
L 385.68492 58.4064 
L 386.013185 58.16448 
L 386.341451 58.16448 
L 386.669716 57.68064 
L 387.654512 57.68064 
L 387.982778 57.43872 
L 388.311043 57.43872 
L 388.967574 56.95488 
L 390.280636 56.95488 
L 391.265432 56.22912 
L 391.921963 56.22912 
L 392.250229 55.9872 
L 392.90676 55.9872 
L 393.235025 55.74528 
L 393.563291 55.74528 
L 394.876353 54.7776 
L 395.204618 54.7776 
L 395.532884 54.29376 
L 395.861149 54.05184 
L 396.845945 54.05184 
L 397.174211 53.80992 
L 398.159007 53.80992 
L 398.487273 53.568 
L 398.487273 53.568 
" clip-path="url(#p4a01203009)" style="fill: none; stroke-dasharray: 1.85,0.8; stroke-dashoffset: 0; stroke: #bf00bf; stroke-width: 0.5"/>
   </g>
   <g id="line2d_17">
    <path d="M 73.832727 295.488 
L 74.489258 259.44192 
L 74.817524 246.62016 
L 75.474055 231.86304 
L 76.458851 213.71904 
L 77.115382 207.42912 
L 77.443647 205.9776 
L 79.084975 194.36544 
L 79.41324 190.97856 
L 79.741506 188.80128 
L 80.398037 186.38208 
L 81.054568 181.30176 
L 81.711098 177.91488 
L 82.039364 175.01184 
L 82.367629 174.528 
L 83.02416 170.8992 
L 83.352426 167.02848 
L 84.008957 163.39968 
L 84.993753 155.65824 
L 85.322019 154.93248 
L 86.63508 148.64256 
L 86.963346 148.15872 
L 87.291611 146.94912 
L 87.619877 146.7072 
L 87.948142 145.4976 
L 88.276408 145.01376 
L 89.917735 138.24 
L 90.246001 137.75616 
L 90.574266 137.0304 
L 91.230797 134.36928 
L 91.559062 133.64352 
L 91.887328 132.192 
L 92.215593 131.46624 
L 92.872124 127.83744 
L 93.20039 127.3536 
L 93.528655 126.38592 
L 94.513452 121.54752 
L 94.841717 119.61216 
L 95.169983 119.12832 
L 95.498248 117.6768 
L 96.483044 110.90304 
L 96.81131 109.93536 
L 97.467841 107.27424 
L 98.124372 105.09696 
L 98.780903 101.952 
L 99.437434 97.35552 
L 100.42223 93.96864 
L 100.750495 93.24288 
L 101.407026 88.6464 
L 102.720088 83.32416 
L 103.376619 81.14688 
L 104.361416 78.9696 
L 104.689681 77.76 
L 105.346212 76.79232 
L 106.002743 74.61504 
L 106.659274 72.9216 
L 106.987539 72.43776 
L 107.64407 70.74432 
L 107.972336 70.74432 
L 108.300601 70.26048 
L 108.628867 69.2928 
L 109.613663 67.84128 
L 109.941928 67.84128 
L 110.270194 67.35744 
L 110.598459 67.11552 
L 111.25499 66.14784 
L 111.583256 66.14784 
L 111.911521 65.90592 
L 112.239787 65.90592 
L 112.896318 65.42208 
L 113.224583 64.4544 
L 113.552849 64.21248 
L 114.537645 64.21248 
L 115.194176 63.72864 
L 115.522441 63.2448 
L 115.850707 63.00288 
L 116.507238 63.00288 
L 116.835503 62.27712 
L 117.492034 61.79328 
L 118.476831 61.79328 
L 118.805096 61.06752 
L 119.133362 61.06752 
L 119.789892 60.58368 
L 120.118158 60.58368 
L 120.446423 60.34176 
L 120.774689 59.85792 
L 121.43122 59.37408 
L 122.416016 59.37408 
L 123.072547 58.89024 
L 123.400813 58.4064 
L 123.729078 58.4064 
L 124.385609 57.92256 
L 124.713874 57.43872 
L 125.370405 57.43872 
L 125.698671 56.95488 
L 126.355202 56.47104 
L 127.339998 56.47104 
L 128.324795 55.74528 
L 129.309591 55.74528 
L 129.637856 55.50336 
L 135.546635 55.50336 
L 135.8749 55.26144 
L 136.859697 55.26144 
L 137.187962 55.01952 
L 142.44021 55.01952 
L 142.768475 54.7776 
L 157.212156 54.7776 
L 157.540421 54.53568 
L 166.075323 54.53568 
L 166.403589 54.29376 
L 178.549411 54.29376 
L 178.877676 54.05184 
L 179.534207 54.05184 
L 179.862473 53.80992 
L 184.129924 53.80992 
L 184.458189 53.568 
L 398.487273 53.568 
L 398.487273 53.568 
" clip-path="url(#p4a01203009)" style="fill: none; stroke-dasharray: 1.85,0.8; stroke-dashoffset: 0; stroke: #bfbf00; stroke-width: 0.5"/>
   </g>
   <g id="patch_3">
    <path d="M 57.6 307.584 
L 57.6 41.472 
" style="fill: none; stroke: #000000; stroke-width: 0.8; stroke-linejoin: miter; stroke-linecap: square"/>
   </g>
   <g id="patch_4">
    <path d="M 414.72 307.584 
L 414.72 41.472 
" style="fill: none; stroke: #000000; stroke-width: 0.8; stroke-linejoin: miter; stroke-linecap: square"/>
   </g>
   <g id="patch_5">
    <path d="M 57.6 307.584 
L 414.72 307.584 
" style="fill: none; stroke: #000000; stroke-width: 0.8; stroke-linejoin: miter; stroke-linecap: square"/>
   </g>
   <g id="patch_6">
    <path d="M 57.6 41.472 
L 414.72 41.472 
" style="fill: none; stroke: #000000; stroke-width: 0.8; stroke-linejoin: miter; stroke-linecap: square"/>
   </g>
   <g id="text_15">
    <!-- count=1000, googlenet=125, resnet50=125, squeezenetv1=75, vgg19=75 -->
    <g transform="translate(38.16 35.472)scale(0.12 -0.12)">
     <defs>
      <path id="FangSong-63" d="M 2125 2125 
Q 2125 2200 2137 2225 
Q 2150 2250 2175 2325 
Q 2200 2425 2075 2562 
Q 1950 2700 1650 2700 
Q 1275 2700 1012 2337 
Q 750 1975 750 1375 
Q 750 825 975 487 
Q 1200 150 1725 150 
Q 2075 150 2312 375 
Q 2550 600 2650 900 
L 2775 850 
Q 2675 475 2400 212 
Q 2125 -50 1650 -50 
Q 1050 -50 700 325 
Q 350 700 350 1400 
Q 350 2025 725 2437 
Q 1100 2850 1700 2850 
Q 2125 2850 2362 2625 
Q 2600 2400 2600 2175 
Q 2600 2025 2537 1962 
Q 2475 1900 2350 1900 
Q 2250 1900 2187 1962 
Q 2125 2025 2125 2125 
z
" transform="scale(0.015625)"/>
      <path id="FangSong-6f" d="M 2875 1400 
Q 2875 775 2500 362 
Q 2125 -50 1575 -50 
Q 1000 -50 637 375 
Q 275 800 275 1400 
Q 275 1950 637 2400 
Q 1000 2850 1575 2850 
Q 2175 2850 2525 2400 
Q 2875 1950 2875 1400 
z
M 675 1375 
Q 675 725 937 412 
Q 1200 100 1575 100 
Q 2000 100 2237 437 
Q 2475 775 2475 1375 
Q 2475 2025 2212 2362 
Q 1950 2700 1575 2700 
Q 1225 2700 950 2362 
Q 675 2025 675 1375 
z
" transform="scale(0.015625)"/>
      <path id="FangSong-75" d="M 1425 225 
Q 1725 225 1937 375 
Q 2150 525 2250 850 
L 2250 2425 
Q 2250 2525 2200 2587 
Q 2150 2650 2025 2650 
L 1875 2650 
L 1875 2800 
L 2025 2800 
Q 2175 2800 2300 2825 
Q 2425 2850 2550 2950 
L 2600 2950 
L 2600 500 
Q 2600 400 2662 350 
Q 2725 300 2825 300 
L 2975 300 
L 2975 150 
L 2825 150 
Q 2700 150 2575 112 
Q 2450 75 2300 0 
L 2250 0 
L 2250 525 
Q 2125 250 1875 112 
Q 1625 -25 1300 -25 
Q 900 -25 700 200 
Q 500 425 500 925 
L 500 2425 
Q 500 2525 450 2587 
Q 400 2650 275 2650 
L 125 2650 
L 125 2800 
L 275 2800 
Q 425 2800 550 2825 
Q 675 2850 800 2950 
L 850 2950 
L 850 875 
Q 850 525 1000 375 
Q 1150 225 1425 225 
z
" transform="scale(0.015625)"/>
      <path id="FangSong-6e" d="M 175 0 
L 175 150 
L 300 150 
Q 425 150 475 200 
Q 525 250 525 350 
L 525 2500 
Q 525 2575 500 2612 
Q 475 2650 400 2650 
L 200 2650 
L 200 2800 
L 375 2800 
Q 500 2800 612 2825 
Q 725 2850 825 2925 
L 875 2925 
L 875 2350 
Q 1100 2600 1325 2725 
Q 1550 2850 1800 2850 
Q 2225 2850 2425 2625 
Q 2625 2400 2625 1950 
L 2625 350 
Q 2625 250 2687 200 
Q 2750 150 2850 150 
L 2975 150 
L 2975 0 
L 1925 0 
L 1925 150 
L 2050 150 
Q 2175 150 2225 200 
Q 2275 250 2275 350 
L 2275 2025 
Q 2275 2325 2150 2487 
Q 2025 2650 1775 2650 
Q 1550 2650 1312 2500 
Q 1075 2350 875 2075 
L 875 350 
Q 875 250 937 200 
Q 1000 150 1100 150 
L 1225 150 
L 1225 0 
L 175 0 
z
" transform="scale(0.015625)"/>
      <path id="FangSong-74" d="M 1475 800 
Q 1475 450 1600 325 
Q 1725 200 1975 200 
Q 2225 200 2375 362 
Q 2525 525 2575 825 
L 2700 775 
Q 2650 425 2437 200 
Q 2225 -25 1875 -25 
Q 1500 -25 1312 200 
Q 1125 425 1125 900 
L 1125 2650 
L 375 2650 
L 375 2800 
L 575 2800 
Q 875 2800 1062 2987 
Q 1250 3175 1300 3575 
L 1325 3775 
L 1475 3775 
L 1475 2800 
L 2475 2800 
L 2475 2650 
L 1475 2650 
L 1475 800 
z
" transform="scale(0.015625)"/>
      <path id="FangSong-3d" d="M 175 2725 
L 175 2950 
L 2950 2950 
L 2950 2725 
L 175 2725 
z
M 175 1450 
L 175 1675 
L 2950 1675 
L 2950 1450 
L 175 1450 
z
" transform="scale(0.015625)"/>
      <path id="FangSong-2c" d="M 1325 75 
Q 1200 25 1100 75 
Q 1000 125 962 237 
Q 925 350 925 437 
Q 925 525 987 612 
Q 1050 700 1150 737 
Q 1250 775 1425 725 
Q 1600 675 1650 500 
Q 1700 325 1662 150 
Q 1625 -25 1525 -200 
Q 1425 -375 1312 -475 
Q 1200 -575 1025 -675 
L 950 -575 
Q 1100 -450 1187 -312 
Q 1275 -175 1325 75 
z
" transform="scale(0.015625)"/>
      <path id="FangSong-20" transform="scale(0.015625)"/>
      <path id="FangSong-67" d="M 850 1875 
Q 850 1575 1025 1362 
Q 1200 1150 1500 1150 
Q 1825 1150 1987 1337 
Q 2150 1525 2150 1875 
Q 2150 2300 1962 2487 
Q 1775 2675 1500 2675 
Q 1225 2675 1037 2487 
Q 850 2300 850 1875 
z
M 2075 525 
Q 2450 475 2625 312 
Q 2800 150 2800 -125 
Q 2800 -500 2487 -725 
Q 2175 -950 1500 -950 
Q 975 -950 650 -737 
Q 325 -525 325 -250 
Q 325 -75 450 100 
Q 575 275 850 375 
Q 700 450 612 537 
Q 525 625 525 750 
Q 525 900 625 1012 
Q 725 1125 875 1200 
Q 725 1325 612 1500 
Q 500 1675 500 1875 
Q 500 2250 762 2537 
Q 1025 2825 1500 2825 
Q 1700 2825 1887 2775 
Q 2075 2725 2200 2600 
Q 2375 2725 2512 2787 
Q 2650 2850 2750 2850 
Q 2875 2850 2925 2762 
Q 2975 2675 2975 2600 
Q 2975 2500 2937 2437 
Q 2900 2375 2800 2375 
Q 2725 2375 2675 2412 
Q 2625 2450 2600 2525 
Q 2575 2600 2487 2587 
Q 2400 2575 2300 2500 
Q 2400 2400 2450 2225 
Q 2500 2050 2500 1875 
Q 2500 1575 2262 1287 
Q 2025 1000 1500 1000 
Q 1350 1000 1225 1037 
Q 1100 1075 1025 1125 
Q 925 1075 875 1000 
Q 825 925 825 875 
Q 825 775 875 725 
Q 925 675 1025 675 
Q 1350 625 1612 587 
Q 1875 550 2075 525 
z
M 1050 325 
Q 825 225 737 87 
Q 650 -50 650 -250 
Q 650 -450 875 -625 
Q 1100 -800 1550 -800 
Q 1975 -800 2225 -662 
Q 2475 -525 2475 -250 
Q 2475 -75 2412 25 
Q 2350 125 2225 150 
Q 1975 200 1675 237 
Q 1375 275 1050 325 
z
" transform="scale(0.015625)"/>
      <path id="FangSong-6c" d="M 900 4275 
Q 1125 4275 1325 4325 
Q 1525 4375 1700 4475 
L 1750 4475 
L 1750 350 
Q 1750 250 1812 200 
Q 1875 150 1975 150 
L 2550 150 
L 2550 0 
L 600 0 
L 600 150 
L 1175 150 
Q 1300 150 1350 200 
Q 1400 250 1400 350 
L 1400 3925 
Q 1400 4025 1350 4075 
Q 1300 4125 1175 4125 
L 625 4125 
L 625 4275 
L 900 4275 
z
" transform="scale(0.015625)"/>
      <path id="FangSong-65" d="M 2375 1550 
Q 2400 2100 2187 2387 
Q 1975 2675 1625 2675 
Q 1250 2675 1012 2375 
Q 775 2075 775 1550 
L 2375 1550 
z
M 775 1400 
Q 775 725 1037 437 
Q 1300 150 1725 150 
Q 2050 150 2275 337 
Q 2500 525 2600 800 
L 2725 750 
Q 2650 475 2387 212 
Q 2125 -50 1675 -50 
Q 1100 -50 737 325 
Q 375 700 375 1400 
Q 375 2025 737 2437 
Q 1100 2850 1625 2850 
Q 2100 2850 2450 2525 
Q 2800 2200 2800 1400 
L 775 1400 
z
" transform="scale(0.015625)"/>
      <path id="FangSong-35" d="M 1700 2750 
Q 2175 2750 2475 2387 
Q 2775 2025 2775 1425 
Q 2775 750 2462 350 
Q 2150 -50 1500 -50 
Q 1050 -50 700 212 
Q 350 475 350 850 
Q 350 1000 437 1112 
Q 525 1225 675 1225 
Q 825 1225 875 1125 
Q 925 1025 925 950 
Q 925 800 850 712 
Q 775 625 775 525 
Q 775 325 1012 225 
Q 1250 125 1525 125 
Q 1925 125 2137 450 
Q 2350 775 2350 1375 
Q 2350 1875 2162 2187 
Q 1975 2500 1600 2500 
Q 1325 2500 1125 2400 
Q 925 2300 750 1975 
L 525 2000 
L 650 4275 
L 2700 4275 
L 2625 3900 
L 825 3900 
L 725 2250 
Q 975 2600 1212 2675 
Q 1450 2750 1700 2750 
z
" transform="scale(0.015625)"/>
      <path id="FangSong-72" d="M 1250 2025 
Q 1500 2425 1787 2637 
Q 2075 2850 2375 2850 
Q 2625 2850 2762 2737 
Q 2900 2625 2900 2475 
Q 2900 2350 2837 2275 
Q 2775 2200 2650 2200 
Q 2525 2200 2462 2275 
Q 2400 2350 2425 2475 
Q 2425 2550 2400 2600 
Q 2375 2650 2250 2650 
Q 2050 2650 1762 2400 
Q 1475 2150 1250 1700 
L 1250 350 
Q 1250 250 1312 200 
Q 1375 150 1475 150 
L 2025 150 
L 2025 0 
L 175 0 
L 175 150 
L 675 150 
Q 800 150 850 200 
Q 900 250 900 350 
L 900 2425 
Q 900 2525 850 2587 
Q 800 2650 675 2650 
L 200 2650 
L 200 2800 
L 400 2800 
Q 575 2800 812 2837 
Q 1050 2875 1175 2925 
L 1250 2925 
L 1250 2025 
z
" transform="scale(0.015625)"/>
      <path id="FangSong-73" d="M 600 2075 
Q 600 2450 887 2650 
Q 1175 2850 1575 2850 
Q 1800 2850 2000 2787 
Q 2200 2725 2275 2725 
Q 2350 2725 2400 2750 
Q 2450 2775 2525 2850 
L 2625 2025 
L 2475 2000 
Q 2375 2325 2137 2512 
Q 1900 2700 1600 2700 
Q 1275 2700 1087 2575 
Q 900 2450 900 2225 
Q 900 2025 987 1912 
Q 1075 1800 1300 1750 
Q 1475 1675 1737 1587 
Q 2000 1500 2225 1400 
Q 2425 1300 2562 1137 
Q 2700 975 2700 775 
Q 2700 400 2437 187 
Q 2175 -25 1675 -25 
Q 1350 -25 1187 37 
Q 1025 100 925 100 
Q 850 100 762 62 
Q 675 25 575 -25 
L 500 900 
L 650 925 
Q 725 525 975 325 
Q 1225 125 1675 125 
Q 2025 125 2212 250 
Q 2400 375 2400 625 
Q 2400 800 2300 912 
Q 2200 1025 2100 1075 
Q 1850 1175 1550 1287 
Q 1250 1400 1025 1500 
Q 800 1600 700 1750 
Q 600 1900 600 2075 
z
" transform="scale(0.015625)"/>
      <path id="FangSong-71" d="M 2250 2150 
Q 2150 2375 1975 2512 
Q 1800 2650 1550 2650 
Q 1200 2650 950 2350 
Q 700 2050 700 1325 
Q 700 700 912 437 
Q 1125 175 1450 175 
Q 1725 175 1937 300 
Q 2150 425 2250 725 
L 2250 2150 
z
M 2600 -550 
Q 2600 -675 2662 -725 
Q 2725 -775 2825 -775 
L 2975 -775 
L 2975 -925 
L 1825 -925 
L 1825 -775 
L 2025 -775 
Q 2150 -775 2200 -725 
Q 2250 -675 2250 -550 
L 2250 375 
Q 2100 175 1887 75 
Q 1675 -25 1375 -25 
Q 950 -25 625 337 
Q 300 700 300 1400 
Q 300 2075 675 2450 
Q 1050 2825 1475 2825 
Q 1750 2825 1937 2725 
Q 2125 2625 2275 2475 
L 2500 2800 
L 2600 2800 
L 2600 -550 
z
" transform="scale(0.015625)"/>
      <path id="FangSong-7a" d="M 2725 975 
L 2550 0 
L 400 0 
L 400 125 
L 2125 2650 
L 1200 2650 
Q 975 2650 825 2487 
Q 675 2325 575 1925 
L 425 1950 
L 525 2800 
L 2575 2800 
L 2575 2725 
L 825 150 
L 1775 150 
Q 2100 150 2287 350 
Q 2475 550 2575 1000 
L 2725 975 
z
" transform="scale(0.015625)"/>
      <path id="FangSong-76" d="M 1600 -25 
L 1450 -25 
L 600 2425 
Q 575 2525 500 2587 
Q 425 2650 325 2650 
L 200 2650 
L 200 2800 
L 1275 2800 
L 1275 2650 
L 1175 2650 
Q 1025 2650 987 2575 
Q 950 2500 1000 2325 
L 1600 575 
L 1650 575 
L 2250 2300 
Q 2325 2475 2262 2562 
Q 2200 2650 2050 2650 
L 2000 2650 
L 2000 2800 
L 2900 2800 
L 2900 2650 
L 2850 2650 
Q 2700 2650 2612 2562 
Q 2525 2475 2450 2300 
L 1600 -25 
z
" transform="scale(0.015625)"/>
      <path id="FangSong-37" d="M 2800 4100 
Q 2275 3250 1962 2437 
Q 1650 1625 1650 1025 
Q 1650 925 1662 737 
Q 1675 550 1675 300 
Q 1675 100 1612 25 
Q 1550 -50 1400 -50 
Q 1275 -50 1187 37 
Q 1100 125 1100 350 
Q 1100 825 1312 1525 
Q 1525 2225 2450 3900 
L 1200 3900 
Q 925 3900 762 3725 
Q 600 3550 525 3200 
L 375 3225 
L 550 4275 
L 2800 4275 
L 2800 4100 
z
" transform="scale(0.015625)"/>
      <path id="FangSong-39" d="M 675 2950 
Q 675 2400 887 2112 
Q 1100 1825 1425 1825 
Q 1800 1825 2075 2175 
Q 2350 2525 2350 2825 
Q 2350 3425 2150 3787 
Q 1950 4150 1500 4150 
Q 1075 4150 875 3812 
Q 675 3475 675 2950 
z
M 1350 1600 
Q 850 1600 550 1912 
Q 250 2225 250 2925 
Q 250 3525 575 3925 
Q 900 4325 1500 4325 
Q 2125 4325 2475 3825 
Q 2825 3325 2825 2375 
Q 2825 1325 2412 637 
Q 2000 -50 1275 -50 
Q 950 -50 712 100 
Q 475 250 475 500 
Q 475 600 537 700 
Q 600 800 750 800 
Q 900 800 950 687 
Q 1000 575 1000 425 
Q 1000 325 1025 262 
Q 1050 200 1075 175 
Q 1100 150 1162 137 
Q 1225 125 1300 125 
Q 1750 125 2025 625 
Q 2300 1125 2350 2300 
Q 2225 2000 1975 1800 
Q 1725 1600 1350 1600 
z
" transform="scale(0.015625)"/>
     </defs>
     <use xlink:href="#FangSong-63"/>
     <use xlink:href="#FangSong-6f" x="50"/>
     <use xlink:href="#FangSong-75" x="100"/>
     <use xlink:href="#FangSong-6e" x="150"/>
     <use xlink:href="#FangSong-74" x="200"/>
     <use xlink:href="#FangSong-3d" x="250"/>
     <use xlink:href="#FangSong-31" x="300"/>
     <use xlink:href="#FangSong-30" x="350"/>
     <use xlink:href="#FangSong-30" x="400"/>
     <use xlink:href="#FangSong-30" x="450"/>
     <use xlink:href="#FangSong-2c" x="500"/>
     <use xlink:href="#FangSong-20" x="550"/>
     <use xlink:href="#FangSong-67" x="600"/>
     <use xlink:href="#FangSong-6f" x="650"/>
     <use xlink:href="#FangSong-6f" x="700"/>
     <use xlink:href="#FangSong-67" x="750"/>
     <use xlink:href="#FangSong-6c" x="800"/>
     <use xlink:href="#FangSong-65" x="850"/>
     <use xlink:href="#FangSong-6e" x="900"/>
     <use xlink:href="#FangSong-65" x="950"/>
     <use xlink:href="#FangSong-74" x="1000"/>
     <use xlink:href="#FangSong-3d" x="1050"/>
     <use xlink:href="#FangSong-31" x="1100"/>
     <use xlink:href="#FangSong-32" x="1150"/>
     <use xlink:href="#FangSong-35" x="1200"/>
     <use xlink:href="#FangSong-2c" x="1250"/>
     <use xlink:href="#FangSong-20" x="1300"/>
     <use xlink:href="#FangSong-72" x="1350"/>
     <use xlink:href="#FangSong-65" x="1400"/>
     <use xlink:href="#FangSong-73" x="1450"/>
     <use xlink:href="#FangSong-6e" x="1500"/>
     <use xlink:href="#FangSong-65" x="1550"/>
     <use xlink:href="#FangSong-74" x="1600"/>
     <use xlink:href="#FangSong-35" x="1650"/>
     <use xlink:href="#FangSong-30" x="1700"/>
     <use xlink:href="#FangSong-3d" x="1750"/>
     <use xlink:href="#FangSong-31" x="1800"/>
     <use xlink:href="#FangSong-32" x="1850"/>
     <use xlink:href="#FangSong-35" x="1900"/>
     <use xlink:href="#FangSong-2c" x="1950"/>
     <use xlink:href="#FangSong-20" x="2000"/>
     <use xlink:href="#FangSong-73" x="2050"/>
     <use xlink:href="#FangSong-71" x="2100"/>
     <use xlink:href="#FangSong-75" x="2150"/>
     <use xlink:href="#FangSong-65" x="2200"/>
     <use xlink:href="#FangSong-65" x="2250"/>
     <use xlink:href="#FangSong-7a" x="2300"/>
     <use xlink:href="#FangSong-65" x="2350"/>
     <use xlink:href="#FangSong-6e" x="2400"/>
     <use xlink:href="#FangSong-65" x="2450"/>
     <use xlink:href="#FangSong-74" x="2500"/>
     <use xlink:href="#FangSong-76" x="2550"/>
     <use xlink:href="#FangSong-31" x="2600"/>
     <use xlink:href="#FangSong-3d" x="2650"/>
     <use xlink:href="#FangSong-37" x="2700"/>
     <use xlink:href="#FangSong-35" x="2750"/>
     <use xlink:href="#FangSong-2c" x="2800"/>
     <use xlink:href="#FangSong-20" x="2850"/>
     <use xlink:href="#FangSong-76" x="2900"/>
     <use xlink:href="#FangSong-67" x="2950"/>
     <use xlink:href="#FangSong-67" x="3000"/>
     <use xlink:href="#FangSong-31" x="3050"/>
     <use xlink:href="#FangSong-39" x="3100"/>
     <use xlink:href="#FangSong-3d" x="3150"/>
     <use xlink:href="#FangSong-37" x="3200"/>
     <use xlink:href="#FangSong-35" x="3250"/>
    </g>
   </g>
   <g id="legend_1">
    <g id="patch_7">
     <path d="M 335.72 302.584 
L 407.72 302.584 
Q 409.72 302.584 409.72 300.584 
L 409.72 234.357437 
Q 409.72 232.357437 407.72 232.357437 
L 335.72 232.357437 
Q 333.72 232.357437 333.72 234.357437 
L 333.72 300.584 
Q 333.72 302.584 335.72 302.584 
z
" style="fill: #ffffff; opacity: 0.8; stroke: #cccccc; stroke-linejoin: miter"/>
    </g>
    <g id="line2d_18">
     <path d="M 337.72 239.857437 
L 347.72 239.857437 
L 357.72 239.857437 
" style="fill: none; stroke: #ff0000; stroke-width: 0.5; stroke-linecap: square"/>
    </g>
    <g id="text_16">
     <!-- DLIR -->
     <g transform="translate(365.72 243.357437)scale(0.1 -0.1)">
      <defs>
       <path id="FangSong-44" d="M 2475 2175 
Q 2475 3250 2150 3687 
Q 1825 4125 1250 4125 
Q 1075 4125 987 4075 
Q 900 4025 900 3925 
L 900 350 
Q 900 250 975 200 
Q 1050 150 1175 150 
Q 1725 150 2100 562 
Q 2475 975 2475 2175 
z
M 500 3925 
Q 500 4025 450 4075 
Q 400 4125 275 4125 
L 125 4125 
L 125 4275 
L 1250 4275 
Q 2025 4275 2487 3775 
Q 2950 3275 2950 2225 
Q 2950 1075 2500 537 
Q 2050 0 1175 0 
L 100 0 
L 100 150 
L 275 150 
Q 400 150 450 200 
Q 500 250 500 350 
L 500 3925 
z
" transform="scale(0.015625)"/>
       <path id="FangSong-4c" d="M 975 350 
Q 975 250 1037 200 
Q 1100 150 1200 150 
L 1875 150 
Q 2225 150 2475 362 
Q 2725 575 2850 1025 
L 2975 975 
L 2750 0 
L 175 0 
L 175 150 
L 350 150 
Q 475 150 525 200 
Q 575 250 575 350 
L 575 3925 
Q 575 4025 525 4075 
Q 475 4125 350 4125 
L 200 4125 
L 200 4275 
L 1375 4275 
L 1375 4125 
L 1200 4125 
Q 1100 4125 1037 4075 
Q 975 4025 975 3925 
L 975 350 
z
" transform="scale(0.015625)"/>
       <path id="FangSong-49" d="M 575 4125 
L 575 4275 
L 2575 4275 
L 2575 4125 
L 2000 4125 
Q 1900 4125 1837 4075 
Q 1775 4025 1775 3925 
L 1775 350 
Q 1775 250 1837 200 
Q 1900 150 2000 150 
L 2575 150 
L 2575 0 
L 575 0 
L 575 150 
L 1150 150 
Q 1275 150 1325 200 
Q 1375 250 1375 350 
L 1375 3925 
Q 1375 4025 1325 4075 
Q 1275 4125 1150 4125 
L 575 4125 
z
" transform="scale(0.015625)"/>
       <path id="FangSong-52" d="M 2800 3275 
Q 2800 2775 2525 2500 
Q 2250 2225 1900 2175 
L 2650 325 
Q 2700 225 2762 187 
Q 2825 150 2900 150 
L 3050 150 
L 3050 0 
L 2350 0 
L 1525 2150 
L 950 2150 
L 950 350 
Q 950 250 1012 200 
Q 1075 150 1175 150 
L 1325 150 
L 1325 0 
L 175 0 
L 175 150 
L 325 150 
Q 450 150 500 200 
Q 550 250 550 350 
L 550 3925 
Q 550 4025 500 4075 
Q 450 4125 325 4125 
L 175 4125 
L 175 4275 
L 1600 4275 
Q 2175 4275 2487 4025 
Q 2800 3775 2800 3275 
z
M 950 2300 
L 1500 2300 
Q 1875 2300 2125 2525 
Q 2375 2750 2375 3225 
Q 2375 3650 2150 3887 
Q 1925 4125 1450 4125 
L 1175 4125 
Q 1075 4125 1012 4075 
Q 950 4025 950 3925 
L 950 2300 
z
" transform="scale(0.015625)"/>
      </defs>
      <use xlink:href="#FangSong-44"/>
      <use xlink:href="#FangSong-4c" x="50"/>
      <use xlink:href="#FangSong-49" x="100"/>
      <use xlink:href="#FangSong-52" x="150"/>
     </g>
    </g>
    <g id="line2d_19">
     <path d="M 337.72 253.30275 
L 347.72 253.30275 
L 357.72 253.30275 
" style="fill: none; stroke-dasharray: 1.85,0.8; stroke-dashoffset: 0; stroke: #008000; stroke-width: 0.5"/>
    </g>
    <g id="text_17">
     <!-- BNST -->
     <g transform="translate(365.72 256.80275)scale(0.1 -0.1)">
      <defs>
       <path id="FangSong-42" d="M 75 0 
L 75 150 
L 275 150 
Q 400 150 450 200 
Q 500 250 500 350 
L 500 3925 
Q 500 4025 450 4075 
Q 400 4125 275 4125 
L 125 4125 
L 125 4275 
L 1575 4275 
Q 2175 4275 2462 4037 
Q 2750 3800 2750 3300 
Q 2750 2950 2600 2725 
Q 2450 2500 1975 2325 
Q 2550 2150 2750 1825 
Q 2950 1500 2950 1100 
Q 2950 600 2600 300 
Q 2250 0 1650 0 
L 75 0 
z
M 1575 150 
Q 2000 150 2237 412 
Q 2475 675 2475 1150 
Q 2475 1700 2225 1962 
Q 1975 2225 1475 2225 
L 900 2225 
L 900 350 
Q 900 250 962 200 
Q 1025 150 1125 150 
L 1575 150 
z
M 2325 3300 
Q 2325 3750 2075 3937 
Q 1825 4125 1425 4125 
L 1125 4125 
Q 1025 4125 962 4075 
Q 900 4025 900 3925 
L 900 2375 
L 1550 2375 
Q 1825 2375 2075 2600 
Q 2325 2825 2325 3300 
z
" transform="scale(0.015625)"/>
       <path id="FangSong-4e" d="M 2500 1000 
L 2550 1000 
L 2550 3925 
Q 2550 4025 2500 4075 
Q 2450 4125 2325 4125 
L 2125 4125 
L 2125 4275 
L 3125 4275 
L 3125 4125 
L 2925 4125 
Q 2825 4125 2762 4075 
Q 2700 4025 2700 3925 
L 2700 0 
L 2550 0 
L 650 3725 
L 600 3725 
L 600 350 
Q 600 250 662 200 
Q 725 150 825 150 
L 1025 150 
L 1025 0 
L 25 0 
L 25 150 
L 225 150 
Q 350 150 400 200 
Q 450 250 450 350 
L 450 3925 
Q 450 4025 400 4075 
Q 350 4125 225 4125 
L 75 4125 
L 75 4275 
L 800 4275 
L 2500 1000 
z
" transform="scale(0.015625)"/>
       <path id="FangSong-53" d="M 1475 2050 
Q 800 2350 550 2575 
Q 300 2800 300 3275 
Q 300 3650 612 3987 
Q 925 4325 1500 4325 
Q 1750 4325 1975 4237 
Q 2200 4150 2300 4150 
Q 2375 4150 2437 4187 
Q 2500 4225 2550 4325 
L 2650 3300 
L 2525 3250 
Q 2300 3775 2062 3962 
Q 1825 4150 1450 4150 
Q 975 4150 800 3887 
Q 625 3625 625 3325 
Q 625 3050 787 2887 
Q 950 2725 1675 2400 
Q 2275 2150 2537 1837 
Q 2800 1525 2800 1100 
Q 2800 650 2487 300 
Q 2175 -50 1575 -50 
Q 1325 -50 1112 37 
Q 900 125 775 125 
Q 700 125 625 75 
Q 550 25 450 -50 
L 250 1175 
L 400 1225 
Q 575 600 887 362 
Q 1200 125 1600 125 
Q 2025 125 2237 375 
Q 2450 625 2450 1100 
Q 2450 1350 2212 1587 
Q 1975 1825 1475 2050 
z
" transform="scale(0.015625)"/>
       <path id="FangSong-54" d="M 2200 0 
L 900 0 
L 900 150 
L 1125 150 
Q 1250 150 1300 200 
Q 1350 250 1350 350 
L 1350 3850 
Q 1350 4050 1325 4075 
Q 1300 4100 1125 4100 
Q 775 4100 637 3975 
Q 500 3850 300 3300 
L 150 3325 
L 375 4275 
L 2750 4275 
L 2950 3325 
L 2825 3300 
Q 2625 3825 2512 3962 
Q 2400 4100 2050 4100 
Q 1800 4100 1775 4075 
Q 1750 4050 1750 3825 
L 1750 350 
Q 1750 250 1812 200 
Q 1875 150 1975 150 
L 2200 150 
L 2200 0 
z
" transform="scale(0.015625)"/>
      </defs>
      <use xlink:href="#FangSong-42"/>
      <use xlink:href="#FangSong-4e" x="50"/>
      <use xlink:href="#FangSong-53" x="100"/>
      <use xlink:href="#FangSong-54" x="150"/>
     </g>
    </g>
    <g id="line2d_20">
     <path d="M 337.72 266.748062 
L 347.72 266.748062 
L 357.72 266.748062 
" style="fill: none; stroke-dasharray: 1.85,0.8; stroke-dashoffset: 0; stroke: #0000ff; stroke-width: 0.5"/>
    </g>
    <g id="text_18">
     <!-- FIFO -->
     <g transform="translate(365.72 270.248062)scale(0.1 -0.1)">
      <defs>
       <path id="FangSong-46" d="M 1325 150 
L 1325 0 
L 125 0 
L 125 150 
L 300 150 
Q 425 150 475 200 
Q 525 250 525 350 
L 525 3925 
Q 525 4025 475 4075 
Q 425 4125 300 4125 
L 150 4125 
L 150 4275 
L 2750 4275 
L 3050 3375 
L 2925 3325 
Q 2725 3725 2450 3925 
Q 2175 4125 1850 4125 
L 1150 4125 
Q 1050 4125 987 4075 
Q 925 4025 925 3925 
L 925 2325 
L 1750 2325 
Q 2000 2325 2112 2437 
Q 2225 2550 2225 2800 
L 2225 2925 
L 2375 2925 
L 2375 1475 
L 2225 1475 
L 2225 1575 
Q 2225 1875 2112 2025 
Q 2000 2175 1750 2175 
L 925 2175 
L 925 350 
Q 925 250 987 200 
Q 1050 150 1150 150 
L 1325 150 
z
" transform="scale(0.015625)"/>
       <path id="FangSong-4f" d="M 675 2150 
Q 675 1075 937 587 
Q 1200 100 1600 100 
Q 2025 100 2275 562 
Q 2525 1025 2525 2150 
Q 2525 3050 2312 3600 
Q 2100 4150 1600 4150 
Q 1175 4150 925 3650 
Q 675 3150 675 2150 
z
M 3000 2150 
Q 3000 1125 2600 537 
Q 2200 -50 1600 -50 
Q 1025 -50 612 550 
Q 200 1150 200 2150 
Q 200 3125 587 3725 
Q 975 4325 1600 4325 
Q 2250 4325 2625 3687 
Q 3000 3050 3000 2150 
z
" transform="scale(0.015625)"/>
      </defs>
      <use xlink:href="#FangSong-46"/>
      <use xlink:href="#FangSong-49" x="50"/>
      <use xlink:href="#FangSong-46" x="100"/>
      <use xlink:href="#FangSong-4f" x="150"/>
     </g>
    </g>
    <g id="line2d_21">
     <path d="M 337.72 280.193375 
L 347.72 280.193375 
L 357.72 280.193375 
" style="fill: none; stroke-dasharray: 1.85,0.8; stroke-dashoffset: 0; stroke: #bf00bf; stroke-width: 0.5"/>
    </g>
    <g id="text_19">
     <!-- OYST -->
     <g transform="translate(365.72 283.693375)scale(0.1 -0.1)">
      <defs>
       <path id="FangSong-59" d="M 2350 3825 
Q 2375 3975 2312 4050 
Q 2250 4125 2075 4125 
L 2025 4125 
L 2025 4275 
L 3000 4275 
L 3000 4125 
L 2925 4125 
Q 2800 4125 2700 4037 
Q 2600 3950 2525 3775 
L 1750 1800 
L 1750 350 
Q 1750 250 1812 200 
Q 1875 150 1975 150 
L 2200 150 
L 2200 0 
L 900 0 
L 900 150 
L 1125 150 
Q 1250 150 1300 200 
Q 1350 250 1350 350 
L 1350 1650 
L 500 3850 
Q 450 3975 375 4050 
Q 300 4125 175 4125 
L 125 4125 
L 125 4275 
L 1225 4275 
L 1225 4125 
L 1075 4125 
Q 925 4125 900 4050 
Q 875 3975 925 3825 
L 1600 1975 
L 1650 1975 
L 2350 3825 
z
" transform="scale(0.015625)"/>
      </defs>
      <use xlink:href="#FangSong-4f"/>
      <use xlink:href="#FangSong-59" x="50"/>
      <use xlink:href="#FangSong-53" x="100"/>
      <use xlink:href="#FangSong-54" x="150"/>
     </g>
    </g>
    <g id="line2d_22">
     <path d="M 337.72 293.638687 
L 347.72 293.638687 
L 357.72 293.638687 
" style="fill: none; stroke-dasharray: 1.85,0.8; stroke-dashoffset: 0; stroke: #bfbf00; stroke-width: 0.5"/>
    </g>
    <g id="text_20">
     <!-- PARALLEL -->
     <g transform="translate(365.72 297.138687)scale(0.1 -0.1)">
      <defs>
       <path id="FangSong-50" d="M 925 2000 
L 925 350 
Q 925 250 987 200 
Q 1050 150 1150 150 
L 1325 150 
L 1325 0 
L 125 0 
L 125 150 
L 300 150 
Q 425 150 475 200 
Q 525 250 525 350 
L 525 3925 
Q 525 4025 475 4075 
Q 425 4125 300 4125 
L 150 4125 
L 150 4275 
L 1625 4275 
Q 2250 4275 2587 3962 
Q 2925 3650 2925 3175 
Q 2925 2600 2562 2300 
Q 2200 2000 1700 2000 
L 925 2000 
z
M 1550 2150 
Q 1925 2150 2212 2375 
Q 2500 2600 2500 3150 
Q 2500 3650 2262 3887 
Q 2025 4125 1500 4125 
L 1150 4125 
Q 1050 4125 987 4075 
Q 925 4025 925 3925 
L 925 2150 
L 1550 2150 
z
" transform="scale(0.015625)"/>
       <path id="FangSong-41" d="M 2000 1600 
L 875 1600 
L 650 650 
Q 600 425 650 287 
Q 700 150 875 150 
L 950 150 
L 950 0 
L 25 0 
L 25 150 
L 100 150 
Q 200 150 275 212 
Q 350 275 375 425 
L 1350 4250 
L 1725 4375 
L 2675 425 
Q 2725 275 2800 212 
Q 2875 150 2975 150 
L 3050 150 
L 3050 0 
L 1975 0 
L 1975 150 
L 2075 150 
Q 2225 150 2262 237 
Q 2300 325 2250 500 
L 2000 1600 
z
M 1475 3825 
L 1450 3825 
L 925 1750 
L 1975 1750 
L 1475 3825 
z
" transform="scale(0.015625)"/>
       <path id="FangSong-45" d="M 175 4125 
L 175 4275 
L 2625 4275 
L 2900 3425 
L 2775 3375 
Q 2575 3750 2350 3937 
Q 2125 4125 1850 4125 
L 1150 4125 
Q 1050 4125 987 4075 
Q 925 4025 925 3925 
L 925 2375 
L 1650 2375 
Q 1900 2375 2012 2500 
Q 2125 2625 2125 2875 
L 2125 3025 
L 2275 3025 
L 2275 1550 
L 2125 1550 
L 2125 1650 
Q 2125 1925 2012 2075 
Q 1900 2225 1650 2225 
L 925 2225 
L 925 350 
Q 925 250 987 200 
Q 1050 150 1150 150 
L 1800 150 
Q 2175 150 2437 362 
Q 2700 575 2850 1025 
L 2975 975 
L 2700 0 
L 150 0 
L 150 150 
L 300 150 
Q 425 150 475 200 
Q 525 250 525 350 
L 525 3925 
Q 525 4025 475 4075 
Q 425 4125 300 4125 
L 175 4125 
z
" transform="scale(0.015625)"/>
      </defs>
      <use xlink:href="#FangSong-50"/>
      <use xlink:href="#FangSong-41" x="50"/>
      <use xlink:href="#FangSong-52" x="100"/>
      <use xlink:href="#FangSong-41" x="150"/>
      <use xlink:href="#FangSong-4c" x="200"/>
      <use xlink:href="#FangSong-4c" x="250"/>
      <use xlink:href="#FangSong-45" x="300"/>
      <use xlink:href="#FangSong-4c" x="350"/>
     </g>
    </g>
   </g>
  </g>
 </g>
 <defs>
  <clipPath id="p4a01203009">
   <rect x="57.6" y="41.472" width="357.12" height="266.112"/>
  </clipPath>
 </defs>
</svg>
